<?xml version="1.0" standalone="no"?>
<!DOCTYPE svg PUBLIC "-//W3C//DTD SVG 1.1//EN" "http://www.w3.org/Graphics/SVG/1.1/DTD/svg11.dtd" >
<svg xmlns="http://www.w3.org/2000/svg" xmlns:xlink="http://www.w3.org/1999/xlink" version="1.1">
<metadata>
Created by FontForge 20190801 at Wed Oct 24 08:22:45 2012
 By root
Axia Stencil Black is a trademark of Sibylle Hagmann | Kontour Type, LLC.
</metadata>
<defs>
<font id="AxiaStencilBlack-Regular" horiz-adv-x="310" >
  <font-face 
    font-family="Axia Stencil Black"
    font-weight="900"
    font-stretch="normal"
    units-per-em="1000"
    panose-1="2 11 10 3 3 2 2 2 2 6"
    ascent="800"
    descent="-200"
    x-height="474"
    cap-height="676"
    bbox="-136 -251 1177 954"
    underline-thickness="20"
    underline-position="-133"
    stemh="119"
    stemv="132"
    unicode-range="U+0020-FB04"
  />
<missing-glyph horiz-adv-x="1000" 
 />
    <glyph glyph-name="f_j" unicode="fj" horiz-adv-x="590" 
d="M300 -223v114c3 0 8 -1 11 -1c56 0 83 36 83 89v495h132v-519c0 -51 -16 -94 -48 -128c-31 -35 -78 -52 -141 -52c-16 0 -28 1 -37 2zM526 693v-145h-132v63c-52 5 -87 7 -106 7c-48 0 -67 -18 -67 -78v-540h-132v378h-69v96h69v76c0 115 50 171 191 171
c45 0 110 -6 153 -13s90 -15 93 -15zM328 378h-80v96h80v-96z" />
    <glyph glyph-name="f_f_j" unicode="ffj" horiz-adv-x="895" 
d="M831 693v-145h-132v63c-52 5 -87 7 -106 7c-48 0 -67 -18 -67 -78v-540h-132v378h-143v96h143v76c0 115 50 171 191 171c45 0 110 -6 153 -13s90 -15 93 -15zM601 -221v111c5 -1 11 -1 19 -1c65 0 79 30 79 89v496h132v-525c0 -51 -7 -87 -30 -120
c-23 -35 -67 -54 -132 -54c-26 0 -49 1 -68 4zM221 0h-132v378h-69v96h69v108c0 93 50 139 151 139c30 0 68 -3 113 -8v-103c-40 4 -64 6 -72 6c-47 0 -60 -15 -60 -68v-548zM633 378h-80v96h80v-96z" />
    <glyph glyph-name="ff" unicode="ff" horiz-adv-x="629" 
d="M658 713v-103c-40 4 -64 6 -72 6c-47 0 -60 -15 -60 -68v-548h-132v378h-144v96h144v108c0 93 51 139 152 139c19 0 56 -3 112 -8zM221 0h-132v378h-69v96h69v108c0 93 50 139 151 139c30 0 68 -3 113 -8v-103c-40 4 -64 6 -72 6c-47 0 -60 -15 -60 -68v-548zM633 378
h-80v96h80v-96z" />
    <glyph glyph-name="fi" unicode="fi" horiz-adv-x="590" 
d="M526 0h-132v474h132v-474zM526 693v-145h-132v63c-52 5 -87 7 -106 7c-48 0 -67 -18 -67 -78v-540h-132v378h-69v96h69v76c0 115 50 171 191 171c45 0 110 -6 153 -13s90 -15 93 -15zM328 378h-80v96h80v-96z" />
    <glyph glyph-name="fl" unicode="fl" horiz-adv-x="590" 
d="M526 693v-693h-132v611c-52 5 -87 7 -106 7c-48 0 -67 -18 -67 -78v-540h-132v378h-69v96h69v76c0 115 50 171 191 171c45 0 110 -6 153 -13s90 -15 93 -15zM328 378h-80v96h80v-96z" />
    <glyph glyph-name="ffi" unicode="ffi" horiz-adv-x="895" 
d="M221 0h-132v378h-69v96h69v108c0 93 50 139 151 139c30 0 68 -3 113 -8v-103c-40 4 -64 6 -72 6c-47 0 -60 -15 -60 -68v-548zM831 693v-145h-132v63c-46 5 -81 7 -106 7c-48 0 -67 -18 -67 -78v-540h-132v378h-144v96h144v76c0 115 50 171 191 171c45 0 110 -6 153 -13
s90 -15 93 -15zM831 0h-132v474h132v-474zM633 378h-80v96h80v-96z" />
    <glyph glyph-name="ffl" unicode="ffl" horiz-adv-x="895" 
d="M831 693v-693h-132v611c-52 5 -87 7 -106 7c-48 0 -67 -18 -67 -78v-540h-132v378h-144v96h144v76c0 115 50 171 191 171c45 0 110 -6 153 -13s90 -15 93 -15zM221 0h-132v378h-69v96h69v108c0 93 50 139 151 139c30 0 68 -3 113 -8v-103c-40 4 -64 6 -72 6
c-47 0 -60 -15 -60 -68v-548zM633 378h-80v96h80v-96z" />
    <glyph glyph-name=".notdef" horiz-adv-x="1000" 
 />
    <glyph glyph-name="NULL" horiz-adv-x="0" 
 />
    <glyph glyph-name="CR" horiz-adv-x="333" 
 />
    <glyph glyph-name="space" unicode=" " horiz-adv-x="205" 
 />
    <glyph glyph-name="exclam" unicode="!" horiz-adv-x="286" 
d="M199 211h-112l-13 158v307h138v-307zM213 0h-140v144h140v-144z" />
    <glyph glyph-name="quotedbl" unicode="&#x22;" horiz-adv-x="401" 
d="M171 676l-28 -277h-86l-28 277h142zM372 676l-28 -277h-86l-28 277h142z" />
    <glyph glyph-name="numbersign" unicode="#" horiz-adv-x="673" 
d="M635 372h-570v102h138l32 140h117l-32 -140h113l33 140h116l-32 -140h85v-102zM386 267l18 75h117l-18 -75h105v-102h-570v102h118l18 75h117l-18 -75h113zM212 0h-117l30 135h118zM443 0h-117l30 135h117z" />
    <glyph glyph-name="dollar" unicode="$" horiz-adv-x="554" 
d="M375 -154h-94v266c75 5 96 28 96 73v15c0 40 -11 64 -66 71l-113 14c-87 11 -144 77 -144 174v28h132v-9c0 -40 12 -64 65 -71l114 -14c87 -11 144 -73 144 -164v-67c0 -85 -45 -139 -134 -162v-154zM293 561c-63 0 -98 -16 -105 -47h-134v3c0 107 76 162 205 169v136h94
v-137c21 -1 62 -4 123 -9v-128c-79 9 -140 13 -183 13zM57 123c75 -8 140 -12 195 -12v-122l-195 10v124z" />
    <glyph glyph-name="percent" unicode="%" horiz-adv-x="859" 
d="M644 676l-313 -676h-115l313 676h115zM366 413c0 -76 -61 -113 -146 -116v98c19 5 29 18 29 41v109c0 23 -10 36 -29 41v95c85 -4 146 -40 146 -116v-152zM814 109c0 -76 -61 -112 -146 -116v98c19 5 29 18 29 41v109c0 23 -10 36 -29 41v95c85 -4 146 -40 146 -116v-152
zM45 413v152c0 76 61 112 145 115v-95c-19 -3 -28 -17 -28 -40v-109c0 -23 9 -36 28 -41v-98c-85 3 -145 39 -145 116zM493 109v152c0 76 61 112 145 115v-95c-19 -3 -28 -17 -28 -40v-109c0 -23 9 -36 28 -41v-98c-97 5 -145 44 -145 116z" />
    <glyph glyph-name="ampersand" unicode="&#x26;" horiz-adv-x="610" 
d="M610 280h-74v115h74v-115zM48 452v34h131v-1v-26l65 -64h263v-245c0 -45 -20 -84 -59 -115s-97 -46 -172 -46s-133 15 -172 46s-59 70 -59 115v69c0 13 2 22 6 29l90 89l-87 86c-4 7 -6 16 -6 29zM264 566c-56 0 -76 -9 -83 -50h-133v24c0 91 67 147 198 147
c19 0 44 -1 75 -3c31 -1 58 -3 81 -5s33 -3 32 -3v-122c-89 8 -145 12 -170 12zM375 190v88h-131l-68 -67v-21c0 -65 24 -92 100 -92s99 27 99 92z" />
    <glyph glyph-name="quotesingle" unicode="'" horiz-adv-x="200" 
d="M171 676l-28 -277h-86l-28 277h142z" />
    <glyph glyph-name="parenleft" unicode="(" horiz-adv-x="324" 
d="M329 -156l-95 -63c-104 145 -156 306 -156 482s52 337 156 482l95 -63c-77 -131 -116 -271 -116 -419s39 -288 116 -419z" />
    <glyph glyph-name="parenright" unicode=")" horiz-adv-x="324" 
d="M-5 682l95 63c104 -145 156 -306 156 -482s-52 -337 -156 -482l-95 63c77 131 116 271 116 419s-39 288 -116 419z" />
    <glyph glyph-name="asterisk" unicode="*" horiz-adv-x="489" 
d="M230 452l-132 -125l-57 101l174 51l-175 51l58 102l132 -126l-43 176h115l-43 -176l133 126l57 -102l-174 -51l173 -51l-56 -101l-133 126l43 -176h-115z" />
    <glyph glyph-name="plus" unicode="+" horiz-adv-x="510" 
d="M478 216h-161v-168h-124v168h-161v117h161v164h124v-164h161v-117z" />
    <glyph glyph-name="comma" unicode="," horiz-adv-x="244" 
d="M194 154v-152c0 -54 -12 -101 -37 -142l-70 21c19 35 29 75 29 119h-66v154h144z" />
    <glyph glyph-name="hyphen" unicode="-" horiz-adv-x="352" 
d="M317 215h-282v119h282v-119z" />
    <glyph glyph-name="period" unicode="." horiz-adv-x="244" 
d="M194 0h-144v154h144v-154z" />
    <glyph glyph-name="slash" unicode="/" horiz-adv-x="301" 
d="M340 696l-263 -720h-116l263 720h116z" />
    <glyph glyph-name="zero" unicode="0" horiz-adv-x="572" 
d="M511 466v-266c0 -135 -70 -205 -209 -210v113c55 5 77 37 77 132v197c0 95 -22 126 -77 130v114c139 -5 209 -75 209 -210zM61 200v266c0 135 70 205 209 210v-114c-55 -4 -77 -35 -77 -130v-197c0 -95 22 -127 77 -132v-113c-139 5 -209 75 -209 210z" />
    <glyph glyph-name="one" unicode="1" horiz-adv-x="330" 
d="M258 0h-132v526l-121 -22v132l253 50v-686z" />
    <glyph glyph-name="two" unicode="2" horiz-adv-x="467" 
d="M345 297l-265 -297h-62v105l207 237c41 46 61 84 61 113v77c0 25 -9 38 -40 38h-16v116c6 1 14 1 25 1c45 0 84 -10 115 -29c32 -19 48 -53 48 -101v-109c0 -53 -22 -94 -73 -151zM446 0h-327l106 119h221v-119zM47 675c57 5 108 8 154 10v-117l-154 -11v118z" />
    <glyph glyph-name="three" unicode="3" horiz-adv-x="469" 
d="M415 219v-40c0 -123 -58 -185 -205 -190v121c48 4 74 20 74 68v35l-67 66h-141v117h142l63 62v35c0 53 -12 71 -60 74v120h2c143 0 189 -66 189 -183v-52c0 -13 -2 -22 -6 -29l-87 -86l90 -89c4 -7 6 -16 6 -29zM19 123c76 -9 128 -14 156 -14h6v-121c-19 0 -42 1 -69 4
c-27 2 -49 4 -66 6l-27 3v122zM37 674c57 7 109 11 155 12v-118l-155 -13v119z" />
    <glyph glyph-name="four" unicode="4" horiz-adv-x="525" 
d="M299 0v676h132v-381h98v-119h-98v-176h-132zM270 465l-219 -289h-50v110l269 358v-179zM269 176h-184l90 119h94v-119z" />
    <glyph glyph-name="five" unicode="5" horiz-adv-x="492" 
d="M450 248v-88c0 -114 -68 -171 -205 -171h-2v119c51 4 75 20 75 76v39c0 61 -37 78 -96 78h-2v117h51c120 0 179 -67 179 -170zM191 558v-257h-132v375h72zM421 558h-199l-60 118h259v-118zM45 121c65 -9 120 -13 165 -13h4v-118c-15 0 -37 1 -66 3c-28 2 -52 4 -72 6
l-31 3v119z" />
    <glyph glyph-name="six" unicode="6" horiz-adv-x="539" 
d="M191 192c0 -63 16 -87 72 -91v-112c-58 2 -107 15 -146 40s-58 66 -58 122v332c0 152 81 204 221 204h2v-118c-39 -1 -64 -8 -75 -22s-16 -38 -16 -71v-284zM295 310c-26 0 -51 -3 -75 -10v125c19 3 42 4 69 4c148 0 208 -62 208 -178v-100c0 -56 -20 -97 -60 -122
c-39 -25 -88 -38 -145 -40v112c57 4 73 27 73 91v29c0 36 -4 60 -11 71c-7 12 -27 18 -59 18zM472 554c-65 7 -119 12 -161 14v118c19 -1 47 -3 86 -6s64 -5 75 -6v-120z" />
    <glyph glyph-name="seven" unicode="7" horiz-adv-x="443" 
d="M175 0h-147l314 676h95v-88zM0 558v118h309l-53 -118h-256z" />
    <glyph glyph-name="eight" unicode="8" horiz-adv-x="562" 
d="M369 177v16c0 60 -26 85 -74 86v116c39 2 59 29 59 81v15c0 55 -20 73 -59 77v108c119 -5 191 -69 191 -164v-36c0 -59 -32 -111 -91 -135c71 -25 106 -72 106 -140v-45c0 -56 -20 -97 -60 -124c-40 -26 -89 -40 -146 -43v107c49 3 74 30 74 81zM76 512
c0 95 71 159 191 164v-108c-39 -4 -59 -22 -59 -77v-15c0 -60 19 -81 59 -81v-116c-49 -1 -74 -25 -74 -86v-16c0 -51 25 -78 74 -81v-107c-57 3 -106 17 -146 43c-40 27 -60 68 -60 124v45c0 68 35 115 105 140c-59 24 -90 76 -90 135v36z" />
    <glyph glyph-name="nine" unicode="9" horiz-adv-x="539" 
d="M348 200v283c0 63 -16 87 -72 90v113c97 -2 204 -40 204 -162v-331c0 -77 -19 -130 -57 -159s-93 -44 -166 -45v118c39 1 63 7 74 20s17 38 17 73zM247 365c24 0 48 3 72 10v-125c-21 -3 -45 -4 -74 -4c-135 0 -203 59 -203 178v100c0 56 20 96 59 121s88 39 146 41v-113
c-57 -3 -73 -27 -73 -90v-29c0 -37 4 -61 11 -72c8 -11 29 -17 62 -17zM67 122c75 -8 129 -13 161 -15v-117c-17 1 -46 3 -87 6c-40 3 -65 5 -74 6v120z" />
    <glyph glyph-name="colon" unicode=":" horiz-adv-x="244" 
d="M194 0h-144v154h144v-154zM50 474h144v-154h-144v154z" />
    <glyph glyph-name="semicolon" unicode=";" horiz-adv-x="244" 
d="M194 154v-152c0 -54 -12 -101 -37 -142l-70 21c19 35 29 75 29 119h-66v154h144zM50 474h144v-154h-144v154z" />
    <glyph glyph-name="less" unicode="&#x3c;" horiz-adv-x="510" 
d="M460 381l-393 -168l-17 8v103l410 196v-139zM460 164v-139l-364 174l142 59z" />
    <glyph glyph-name="equal" unicode="=" horiz-adv-x="510" 
d="M468 315h-426v119h426v-119zM468 114h-426v119h426v-119z" />
    <glyph glyph-name="greater" unicode="&#x3e;" horiz-adv-x="510" 
d="M50 164l393 168l17 -8v-103l-410 -196v139zM50 381v139l364 -174l-142 -59z" />
    <glyph glyph-name="question" unicode="?" horiz-adv-x="415" 
d="M396 562v-46h-132c-3 36 -21 52 -76 52l-153 -11v119c80 7 140 11 180 11c121 0 181 -42 181 -125zM229 265v-54h-132v71c0 35 15 63 44 83l66 44c31 21 48 34 52 40c4 7 6 18 6 33v4h131v-12c0 -24 -2 -44 -10 -61c-8 -16 -11 -25 -26 -37c-13 -12 -14 -12 -31 -24
c-9 -5 -14 -9 -16 -10l-60 -40c-16 -10 -24 -22 -24 -37zM230 0h-134v144h134v-144z" />
    <glyph glyph-name="at" unicode="@" horiz-adv-x="826" 
d="M568 49c-33 0 -65 4 -98 12v244c0 32 -12 36 -60 36l-124 -13v81c66 10 109 15 128 15c104 0 153 -29 153 -136v-163c67 -3 101 46 101 148c0 62 -22 114 -67 157s-102 66 -173 69v87c215 -5 336 -151 337 -304c0 -155 -66 -233 -197 -233zM61 232c0 105 31 189 93 253
c63 64 144 98 244 101v-87c-144 -7 -239 -104 -239 -271c0 -161 92 -247 239 -255v-90c-102 4 -184 38 -245 101s-92 145 -92 248zM259 169c0 65 40 108 124 112l58 2v-72l-49 -3c-25 -2 -37 -13 -37 -33v-12c0 -13 12 -24 27 -24c5 0 18 3 39 9l20 7v-67l-39 -38
c-9 -3 -18 -5 -29 -5c-71 0 -114 43 -114 106v18zM592 -86c-41 -20 -95 -31 -164 -32v90c53 0 115 12 143 20l21 7v-85z" />
    <glyph glyph-name="A" unicode="A" horiz-adv-x="666" 
d="M421 297l-124 379h128l233 -676h-140l-56 172h-228l39 125h148zM267 676l51 -155l-170 -521h-140l233 676h26z" />
    <glyph glyph-name="B" unicode="B" horiz-adv-x="612" 
d="M425 191v20l-68 67h-159v-159h58v-119h-190v676h233v-118h-101v-163h158l56 55v31c0 60 -16 77 -76 77h-8v118h58c100 0 157 -63 157 -150v-83c0 -13 -2 -22 -6 -29l-77 -76l90 -89c4 -7 6 -16 6 -29v-70c0 -41 -15 -77 -45 -106s-66 -44 -108 -44h-118v119h56
c67 0 84 12 84 72z" />
    <glyph glyph-name="C" unicode="C" horiz-adv-x="539" 
d="M198 409v-135h-132v202c0 141 86 211 258 211c29 0 88 -4 178 -11v-121c-70 8 -127 12 -172 12c-55 0 -91 -11 -108 -34c-16 -22 -24 -63 -24 -124zM504 120v-120c-90 -7 -150 -11 -180 -11c-172 0 -258 70 -258 211v44h132c1 -52 9 -88 25 -107c17 -19 52 -29 107 -29
c20 0 44 1 73 3s54 4 73 6z" />
    <glyph glyph-name="D" unicode="D" horiz-adv-x="609" 
d="M419 201v275c0 63 -21 82 -85 82h-11v118h73c45 0 82 -14 111 -43s43 -64 43 -107v-376c0 -43 -14 -78 -42 -107s-65 -43 -110 -43h-113v119h49c64 0 85 19 85 82zM198 558v-439h58v-119h-190v676h228v-118h-96z" />
    <glyph glyph-name="E" unicode="E" horiz-adv-x="519" 
d="M491 0h-425v676h72l60 -118v-439h293v-119zM483 558h-254l-60 118h314v-118zM436 278h-209v119h209v-119z" />
    <glyph glyph-name="F" unicode="F" horiz-adv-x="503" 
d="M198 0h-132v676h72l60 -118v-558zM483 558h-254l-60 118h314v-118zM441 274h-214v119h214v-119z" />
    <glyph glyph-name="G" unicode="G" horiz-adv-x="620" 
d="M198 409v-135h-132v202c0 141 86 211 258 211c29 0 88 -4 178 -11v-121c-70 8 -127 12 -172 12c-55 0 -91 -11 -108 -34c-16 -22 -24 -63 -24 -124zM559 4l-132 -11v283h-126v119h258v-391zM330 108c29 0 52 1 68 2v-118c-27 -2 -51 -3 -74 -3c-172 0 -258 70 -258 211
v44h132c1 -52 9 -88 25 -107c17 -19 52 -29 107 -29z" />
    <glyph glyph-name="H" unicode="H" horiz-adv-x="639" 
d="M573 0h-132v676h132v-676zM198 676v-676h-132v676h132zM226 278v119h187v-119h-187z" />
    <glyph glyph-name="I" unicode="I" horiz-adv-x="278" 
d="M205 0h-132v676h132v-676z" />
    <glyph glyph-name="J" unicode="J" horiz-adv-x="278" 
d="M205 676v-676h-132v676h132zM-61 -30h266v-9c-1 -7 -7 -15 -16 -24l-85 -87c-7 -4 -16 -6 -29 -6h-136v126z" />
    <glyph glyph-name="K" unicode="K" horiz-adv-x="554" 
d="M551 676l-327 -438h-40v-238h-132v676h132v-279h10l211 279h146zM556 0h-152l-163 214l77 103z" />
    <glyph glyph-name="L" unicode="L" horiz-adv-x="491" 
d="M198 676v-676h-132v676h132zM475 0h-248v119h248v-119z" />
    <glyph glyph-name="M" unicode="M" horiz-adv-x="714" 
d="M521 0v676h127v-676h-127zM66 0v676h127v-676h-127zM312 164l-92 200v252l192 -432l-10 -20h-90zM428 221l-55 122l121 274v-253z" />
    <glyph glyph-name="N" unicode="N" horiz-adv-x="669" 
d="M66 676h132v-676h-132v676zM603 676v-630l-132 223v407h132zM226 627l372 -627h-127l-245 417v210z" />
    <glyph glyph-name="O" unicode="O" horiz-adv-x="638" 
d="M440 244v158h132v-202c0 -73 -24 -127 -72 -161c-47 -33 -108 -50 -181 -50s-134 17 -182 50c-47 34 -71 88 -71 161v44h132c0 -99 38 -133 121 -133s121 34 121 133zM198 434v-160h-132v202c0 73 24 127 72 160c48 34 108 51 181 51s133 -17 181 -51
c48 -33 72 -87 72 -160v-44h-132v2c0 99 -38 132 -121 132s-121 -33 -121 -132z" />
    <glyph glyph-name="P" unicode="P" horiz-adv-x="552" 
d="M198 558v-558h-132v676h233v-118h-101zM398 465v22c0 48 -15 70 -70 71v118h58c41 0 76 -15 103 -44s41 -64 41 -106v-107c0 -42 -14 -78 -41 -107s-62 -44 -103 -44h-159v119h96c59 0 75 26 75 78z" />
    <glyph glyph-name="Q" unicode="Q" horiz-adv-x="638" 
d="M581 -146h-144l-77 119h143zM440 244v158h132v-202c0 -73 -24 -127 -72 -161c-47 -33 -108 -50 -181 -50s-134 17 -182 50c-47 34 -71 88 -71 161v44h132c0 -99 38 -133 121 -133s121 34 121 133zM198 434v-160h-132v202c0 73 24 127 72 160c48 34 108 51 181 51
s133 -17 181 -51c48 -33 72 -87 72 -160v-44h-132v2c0 99 -38 132 -121 132s-121 -33 -121 -132z" />
    <glyph glyph-name="R" unicode="R" horiz-adv-x="606" 
d="M398 465v22c0 48 -15 70 -70 71v118h58c41 0 76 -15 103 -44s41 -64 41 -106v-107c0 -42 -14 -78 -41 -107s-62 -44 -103 -44h-159v119h96c59 0 75 26 75 78zM198 558v-558h-132v676h233v-118h-101zM318 245h143l126 -245h-144z" />
    <glyph glyph-name="S" unicode="S" horiz-adv-x="554" 
d="M509 229v-67c0 -115 -84 -172 -228 -173v123c75 5 96 28 96 73v15c0 40 -11 64 -66 71l-113 14c-87 11 -144 77 -144 174v28h132v-9c0 -40 12 -64 65 -71l114 -14c87 -11 144 -73 144 -164zM293 561c-63 0 -98 -16 -105 -47h-134v3c0 113 86 170 230 170
c33 0 97 -4 192 -11v-128c-79 9 -140 13 -183 13zM57 123c75 -8 140 -12 195 -12v-122l-195 10v124z" />
    <glyph glyph-name="T" unicode="T" horiz-adv-x="492" 
d="M6 557v119h306v-676h-132v557h-174zM486 557h-145v119h145v-119z" />
    <glyph glyph-name="U" unicode="U" horiz-adv-x="638" 
d="M66 201v43h132v-15c0 -47 11 -80 34 -97s52 -25 87 -25s64 8 87 25s34 50 34 97v173h132v-201c0 -70 -24 -123 -73 -159c-48 -35 -108 -53 -180 -53s-132 18 -181 53c-48 36 -72 89 -72 159zM198 676v-402h-132v402h132zM572 676v-244h-132v244h132z" />
    <glyph glyph-name="V" unicode="V" horiz-adv-x="634" 
d="M158 676l201 -676h-114l-231 676h144zM620 676l-231 -676l-56 190l143 486h144z" />
    <glyph glyph-name="W" unicode="W" horiz-adv-x="1000" 
d="M11 676h146l150 -676h-117zM661 0l-207 676h122l206 -676h-121zM810 0l-68 218l101 458h146zM485 479l-148 -479l-51 227l138 449z" />
    <glyph glyph-name="X" unicode="X" horiz-adv-x="605" 
d="M589 676l-421 -676h-151l421 676h151zM16 676h151l115 -200l-72 -115zM437 0l-115 199l71 114l195 -313h-151z" />
    <glyph glyph-name="Y" unicode="Y" horiz-adv-x="586" 
d="M359 0h-132v259l-219 417h149l202 -416v-260zM578 676l-203 -385l-66 135l120 250h149z" />
    <glyph glyph-name="Z" unicode="Z" horiz-adv-x="521" 
d="M487 558l-400 -558h-52v120l397 556h55v-118zM488 0h-368l85 119h283v-119zM56 558v118h343l-84 -118h-259z" />
    <glyph glyph-name="bracketleft" unicode="[" horiz-adv-x="296" 
d="M318 -210h-235v950h228v-117h-96v-716h103v-117z" />
    <glyph glyph-name="backslash" unicode="\" horiz-adv-x="301" 
d="M224 -24l-263 720h116l263 -720h-116z" />
    <glyph glyph-name="bracketright" unicode="]" horiz-adv-x="296" 
d="M213 -210h-235v117h103v716h-96v117h228v-950z" />
    <glyph glyph-name="asciicircum" unicode="^" horiz-adv-x="500" 
d="M467 345l-110 -51l-107 246l-107 -246l-110 51l166 331h102z" />
    <glyph glyph-name="underscore" unicode="_" horiz-adv-x="536" 
d="M531 -116h-526v82h526v-82z" />
    <glyph glyph-name="grave" unicode="`" 
d="M265 538h-117l-108 150h147z" />
    <glyph glyph-name="a" unicode="a" horiz-adv-x="497" 
d="M314 0v324c0 30 -25 45 -75 45l-160 -9v115c97 7 157 10 179 10c120 0 188 -40 188 -160v-325h-132zM40 117v39c0 79 49 133 166 141l79 5v-93l-74 -5c-31 -3 -46 -16 -46 -40v-12c0 -26 13 -39 40 -39c12 0 28 3 49 9l31 9v-84l-66 -54c-8 -3 -17 -4 -28 -4
c-92 0 -151 53 -151 128z" />
    <glyph glyph-name="b" unicode="b" horiz-adv-x="514" 
d="M51 151v559h132v-546c0 -46 25 -69 74 -69s74 23 74 69v124c0 45 -22 65 -67 58l-52 -9v90l65 54c8 3 17 4 28 4c104 0 158 -60 158 -152v-182c0 -128 -104 -162 -206 -162s-206 34 -206 162z" />
    <glyph glyph-name="c" unicode="c" horiz-adv-x="418" 
d="M183 292v-73h-132v94c0 115 65 172 195 172l138 -10v-105c-51 7 -90 10 -118 10c-55 0 -83 -19 -83 -88zM393 2c-42 -9 -90 -13 -143 -13c-133 0 -199 55 -199 166v34h132v-13c0 -36 6 -59 18 -68s35 -14 70 -14c25 0 73 5 101 8l21 3v-103z" />
    <glyph glyph-name="d" unicode="d" horiz-adv-x="514" 
d="M463 0h-132v710h132v-710zM245 485c19 0 38 -2 57 -6v-107c-15 5 -31 7 -46 7c-49 0 -73 -23 -73 -69v-124c0 -45 22 -65 67 -58l52 8v-89l-65 -54c-8 -3 -17 -4 -28 -4c-104 0 -158 60 -158 152v177c0 107 53 167 194 167z" />
    <glyph glyph-name="e" unicode="e" horiz-adv-x="491" 
d="M258 485c136 0 204 -56 204 -167v-127h-410v127c0 111 69 167 206 167zM279 -11c-66 0 -120 13 -162 40s-64 71 -65 132h133c3 -51 30 -67 101 -67c57 0 111 4 160 12v-106c-51 -7 -107 -11 -167 -11zM184 283h147v29c0 45 -16 68 -73 68c-52 0 -74 -18 -74 -70v-27z" />
    <glyph glyph-name="f" unicode="f" horiz-adv-x="324" 
d="M221 0h-132v378h-69v96h69v108c0 93 50 139 151 139c30 0 68 -3 113 -8v-103c-40 4 -64 6 -72 6c-47 0 -60 -15 -60 -68v-548zM328 378h-80v96h80v-96z" />
    <glyph glyph-name="g" unicode="g" horiz-adv-x="552" 
d="M104 83v21c0 9 3 17 8 22h110c-2 -5 -3 -10 -3 -15c0 -12 14 -20 43 -25l119 -16c87 -12 134 -61 134 -121v-10h-129c-1 12 -6 20 -23 25c-16 4 -17 4 -46 8l-106 14c-27 -7 -42 -26 -42 -46v-13c0 -31 39 -54 104 -54c59 0 96 12 109 36h132c-4 -42 -30 -75 -78 -98
c-48 -24 -103 -36 -164 -36c-67 0 -122 12 -165 36s-64 59 -64 106v8c0 45 33 89 94 110c-22 10 -33 26 -33 48zM269 134h-26c-117 0 -190 54 -195 162h131c3 -41 22 -61 75 -61c57 0 75 23 75 72v16c0 51 -18 74 -75 74c-59 0 -75 -22 -75 -71h-131c3 106 72 159 206 159
c137 0 206 -56 206 -167v-12c0 -119 -79 -172 -191 -172zM524 379l-80 41v54h90v-95h-10z" />
    <glyph glyph-name="h" unicode="h" horiz-adv-x="514" 
d="M183 710v-710h-132v710h132zM463 0h-132v288c0 45 -22 65 -67 58l-52 -9v90l65 54c8 3 17 4 28 4c104 0 158 -60 158 -152v-333z" />
    <glyph glyph-name="i" unicode="i" horiz-adv-x="258" 
d="M195 566h-132v144h132v-144zM195 0h-132v474h132v-474z" />
    <glyph glyph-name="j" unicode="j" horiz-adv-x="258" 
d="M195 567h-132v143h132v-143zM-35 -221v111c5 -1 11 -1 19 -1c65 0 79 30 79 89v496h132v-525c0 -51 -7 -87 -30 -120c-23 -35 -67 -54 -132 -54c-26 0 -49 1 -68 4z" />
    <glyph glyph-name="k" unicode="k" horiz-adv-x="462" 
d="M183 710v-710h-132v710h132zM467 0h-161l-94 169v136l94 169h151l-149 -232z" />
    <glyph glyph-name="l" unicode="l" horiz-adv-x="258" 
d="M195 0h-132v710h132v-710z" />
    <glyph glyph-name="m" unicode="m" horiz-adv-x="803" 
d="M467 0h-132v288c0 45 -24 65 -71 58l-52 -9v90l65 54c8 3 17 4 28 4c101 0 162 -58 162 -149v-336zM752 0h-132v288c0 46 -24 65 -72 58l-55 -9v86l69 58c8 3 17 4 27 4c105 0 163 -61 163 -152v-333zM183 474v-474h-132v474h132z" />
    <glyph glyph-name="n" unicode="n" horiz-adv-x="514" 
d="M463 0h-132v288c0 45 -22 65 -67 58l-52 -9v90l65 54c8 3 17 4 28 4c104 0 158 -60 158 -152v-333zM183 474v-474h-132v474h132z" />
    <glyph glyph-name="o" unicode="o" horiz-adv-x="528" 
d="M184 295v-76h-132v94c0 104 69 172 212 172s212 -68 212 -172v-94h-132v76c0 61 -24 88 -80 88s-80 -27 -80 -88zM344 180v9h132v-33c0 -128 -110 -167 -212 -167s-212 39 -212 167v33h132v-9c0 -63 24 -89 80 -89s80 26 80 89z" />
    <glyph glyph-name="p" unicode="p" horiz-adv-x="514" 
d="M51 -212v686h132v-310c0 -46 25 -69 74 -69s74 23 74 69v25h132v-38c0 -57 -19 -98 -56 -124c-37 -25 -83 -38 -140 -38c-36 0 -64 4 -84 11v-212h-132zM463 333v-114h-132v69c0 45 -22 65 -67 58l-52 -9v90l65 54c8 3 17 4 28 4c104 0 158 -60 158 -152z" />
    <glyph glyph-name="q" unicode="q" horiz-adv-x="514" 
d="M331 -212v679l132 7v-686h-132zM245 485c18 0 37 -3 57 -8v-105c-15 5 -31 7 -46 7c-49 0 -73 -23 -73 -69v-124c0 -45 22 -65 67 -58l52 8v-89l-65 -54c-8 -3 -17 -4 -28 -4c-104 0 -158 60 -158 152v177c0 107 53 167 194 167z" />
    <glyph glyph-name="r" unicode="r" horiz-adv-x="326" 
d="M176 0h-132v474h132v-474zM318 340c-47 1 -84 -15 -113 -48v126c25 38 63 58 113 61v-139z" />
    <glyph glyph-name="s" unicode="s" horiz-adv-x="456" 
d="M415 162v-37c0 -91 -58 -136 -175 -136h-30v111c50 0 68 1 73 39v9c0 19 -12 30 -35 33l-91 11c-64 8 -111 57 -111 124v10h132c1 -16 13 -26 36 -29l90 -11c64 -8 111 -57 111 -124zM246 375c-38 0 -60 -7 -66 -22h-134v1c0 96 63 131 184 131c53 0 113 -4 138 -7l19 -3
v-111c-64 7 -111 11 -141 11zM48 114c47 -7 91 -12 133 -14v-110l-133 10v114z" />
    <glyph glyph-name="t" unicode="t" horiz-adv-x="347" 
d="M330 109v-111c-20 -5 -51 -8 -93 -8c-89 0 -151 50 -151 149v239h-70v96h70v90l55 46h77v-416v-8c0 -41 -1 -55 14 -71c8 -7 20 -11 36 -11c20 0 41 2 62 5zM333 378h-86v96h86v-96z" />
    <glyph glyph-name="u" unicode="u" horiz-adv-x="514" 
d="M51 474h132v-288c0 -45 22 -65 67 -58l52 8v-89l-65 -54c-8 -3 -17 -4 -28 -4c-104 0 -158 60 -158 152v333zM331 0v474h132v-474h-132z" />
    <glyph glyph-name="v" unicode="v" horiz-adv-x="472" 
d="M135 474l147 -474h-126l-155 474h134zM316 0h-1l-61 197l83 277h134z" />
    <glyph glyph-name="w" unicode="w" horiz-adv-x="740" 
d="M138 474l114 -474h-129l-122 474h137zM460 0l-135 474h123l135 -474h-123zM617 0h-1l-69 239l55 235h137zM285 0h-1l-58 240l66 234h1l63 -222z" />
    <glyph glyph-name="x" unicode="x" horiz-adv-x="458" 
d="M1 0l321 474h135l-320 -474h-136zM317 0l-72 111l68 101l144 -212h-140zM1 474h139l74 -112l-68 -100z" />
    <glyph glyph-name="y" unicode="y" horiz-adv-x="472" 
d="M247 -212h-128l224 686h128zM1 474h134l85 -284l-62 -190h-2z" />
    <glyph glyph-name="z" unicode="z" horiz-adv-x="425" 
d="M387 376l-312 -376h-54v97l312 377h54v-98zM404 0h-294l88 106h206v-106zM36 368v106h262l-88 -106h-174z" />
    <glyph glyph-name="braceleft" unicode="{" horiz-adv-x="355" 
d="M152 263l70 -48c23 -15 27 -41 27 -93v-111c0 -36 0 -39 3 -62c2 -11 5 -19 9 -23c9 -8 24 -18 49 -22v-122c-129 0 -193 60 -193 180v142c0 47 -4 65 -24 85l-72 69v10l72 69c20 20 24 38 24 85v142c0 120 64 180 193 180v-122c-38 -11 -51 -14 -58 -45
c-3 -23 -3 -26 -3 -62v-111c0 -52 -4 -78 -27 -93z" />
    <glyph glyph-name="bar" unicode="|" horiz-adv-x="267" 
d="M194 -251h-121v1001h121v-1001z" />
    <glyph glyph-name="braceright" unicode="}" horiz-adv-x="355" 
d="M133 215l70 48l-70 48c-23 15 -27 41 -27 93v111c0 36 0 39 -4 62c-1 11 -4 19 -9 23c-8 8 -23 18 -48 22v122c129 0 193 -60 193 -180v-142c0 -47 4 -65 24 -85l72 -69v-10l-72 -69c-20 -20 -24 -38 -24 -85v-142c0 -120 -64 -180 -193 -180v122c38 10 52 14 57 45
c4 23 4 26 4 62v111c0 52 4 78 27 93z" />
    <glyph glyph-name="asciitilde" unicode="~" horiz-adv-x="515" 
d="M385 368h120c0 -131 -52 -197 -157 -197c-38 0 -70 11 -97 33l-35 29c-15 11 -29 17 -43 17c-25 0 -40 -26 -43 -77h-120c0 131 52 197 157 197c36 0 68 -11 97 -34l34 -27c15 -12 30 -18 44 -18c25 0 40 26 43 77z" />
    <glyph glyph-name="nbspace" unicode="&#xa0;" horiz-adv-x="205" 
 />
    <glyph glyph-name="exclamdown" unicode="&#xa1;" horiz-adv-x="286" 
d="M87 465h112l13 -158v-307h-138v307zM73 676h140v-144h-140v144z" />
    <glyph glyph-name="cent" unicode="&#xa2;" horiz-adv-x="418" 
d="M183 292v-73h-132v94c0 101 51 157 152 170v139h94v-140l87 -7v-105c-51 7 -90 10 -118 10c-55 0 -83 -19 -83 -88zM297 -154h-94v146c-101 12 -152 66 -152 163v34h132v-13c0 -36 6 -59 18 -68s35 -14 70 -14c25 0 73 5 101 8l21 3v-103c-27 -5 -59 -9 -96 -11v-145z
" />
    <glyph glyph-name="sterling" unicode="&#xa3;" horiz-adv-x="572" 
d="M249 469l5 -102h189v-96h-388v96h70l-8 133c-7 115 63 187 212 187c17 0 40 -1 69 -3c29 -1 54 -3 75 -5l31 -3v-125c-81 8 -138 12 -171 12c-69 0 -88 -23 -84 -94zM134 206l-2 35h132l1 -25c1 -24 0 -42 -3 -53c-2 -11 -7 -26 -15 -44h283v-119h-490v119h41
c16 0 57 13 53 87z" />
    <glyph glyph-name="currency" unicode="&#xa4;" horiz-adv-x="572" 
d="M295 87h-18c-123 0 -200 59 -200 190v33c0 132 79 190 200 190h18c121 0 200 -58 200 -190v-33c0 -131 -77 -190 -200 -190zM35 485l83 73l48 -52c-14 -7 -30 -19 -47 -35s-28 -30 -34 -42zM274 197h24c60 0 79 29 79 88v17c0 59 -19 89 -79 89h-24
c-60 0 -79 -30 -79 -89v-17c0 -59 19 -88 79 -88zM454 558l83 -73l-50 -56c-6 12 -18 26 -35 42s-32 28 -46 35zM118 25l-83 73l50 56c6 -12 17 -26 34 -42s33 -28 47 -35zM537 98l-83 -73l-48 52c14 7 29 19 46 35s29 30 35 42z" />
    <glyph glyph-name="yen" unicode="&#xa5;" horiz-adv-x="586" 
d="M88 162v97h139l-219 417h149l202 -416v-1h125v-97h-125v-162h-132v162h-139zM578 676l-203 -385l-66 135l120 250h149z" />
    <glyph glyph-name="brokenbar" unicode="&#xa6;" horiz-adv-x="267" 
d="M194 750v-435h-121v435h121zM194 -251h-121v435h121v-435z" />
    <glyph glyph-name="section" unicode="&#xa7;" horiz-adv-x="513" 
d="M256 159c57 0 85 12 88 52h118v-1c0 -52 -22 -98 -55 -117c37 -28 55 -68 55 -121v-23c0 -109 -75 -167 -206 -172v115c60 4 79 22 79 63v11c0 38 -19 59 -57 63l-82 11c-91 12 -146 60 -146 137v34h118c3 -40 29 -52 88 -52zM462 282v-41h-118c-3 39 -32 58 -88 58
c-57 0 -87 -17 -88 -58h-118v8c0 52 22 98 55 117c-37 28 -55 68 -55 121h127c1 -35 20 -54 57 -57l82 -11c91 -12 146 -60 146 -137zM280 569c-75 0 -100 -18 -103 -55h-127c1 112 83 169 226 169c33 0 85 -4 156 -11v-116c-58 9 -109 13 -152 13zM55 -100
c61 -6 119 -9 172 -9v-115l-172 8v116z" />
    <glyph glyph-name="dieresis" unicode="&#xa8;" 
d="M124 547h-131v134h131v-134zM317 547h-131v134h131v-134z" />
    <glyph glyph-name="copyright" unicode="&#xa9;" horiz-adv-x="826" 
d="M398 687v-85c-144 -7 -238 -97 -238 -264s94 -259 238 -264v-85c-216 5 -336 130 -336 349s120 344 336 349zM428 -11v85c144 5 238 97 238 264s-94 257 -238 264v85c216 -5 336 -130 336 -349s-120 -344 -336 -349zM358 384v-62h-103v84c0 93 46 136 166 136
c15 0 47 -2 95 -6v-90c-36 3 -64 5 -83 5c-55 0 -75 -11 -75 -67zM523 231v-91c-28 -5 -65 -7 -110 -7c-105 0 -158 42 -158 127v32h103c0 -55 17 -68 65 -68z" />
    <glyph glyph-name="ordfeminine" unicode="&#xaa;" horiz-adv-x="403" 
d="M247 307v253c0 31 -11 39 -52 39l-135 -8v83c81 5 131 8 148 8c99 0 149 -42 149 -126v-249h-110zM27 408v19c0 65 44 100 132 105l58 3v-73l-45 -3c-29 -2 -44 -14 -44 -35v-6c0 -18 11 -27 33 -27c7 0 18 2 34 6l22 6v-71l-36 -31c-9 -3 -19 -4 -31 -4
c-76 0 -123 46 -123 111z" />
    <glyph glyph-name="guillemotleft" unicode="&#xab;" horiz-adv-x="562" 
d="M291 414l-210 -216l-53 54v36l194 196zM222 56l-113 114l71 70l111 -113zM512 414l-210 -216l-53 54v36l194 196zM443 56l-113 114l71 70l111 -113z" />
    <glyph glyph-name="logicalnot" unicode="&#xac;" horiz-adv-x="510" 
d="M478 88h-132v215h-314v119h446v-334z" />
    <glyph glyph-name="uni00AD" unicode="&#xad;" horiz-adv-x="480" 
d="M395 215h-310v119h310v-119z" />
    <glyph glyph-name="registered" unicode="&#xae;" horiz-adv-x="627" 
d="M127 429c0 -127 58 -193 175 -197v-62c-153 4 -242 96 -242 259s89 254 242 258v-61c-115 -4 -175 -73 -175 -197zM501 429c0 124 -61 193 -177 197v61c153 -4 243 -97 243 -258s-90 -255 -243 -259v62c116 4 177 72 177 197zM353 486v8c0 13 -6 21 -18 24v51h12
c40 0 67 -26 67 -62v-35c0 -30 -13 -49 -40 -57l57 -115h-64l-55 111h-14v50h25c24 0 30 8 30 25zM286 519v-219h-62v269h96v-50h-34z" />
    <glyph glyph-name="overscore" unicode="&#xaf;" 
d="M22 556v114h266v-114h-266z" />
    <glyph glyph-name="degree" unicode="&#xb0;" horiz-adv-x="361" 
d="M29 510v72c0 57 50 100 138 104v-74c-28 -5 -42 -20 -42 -47v-33c0 -27 14 -42 42 -47v-80c-87 4 -138 46 -138 105zM332 582v-72c0 -57 -52 -100 -137 -105v80c27 5 40 21 40 47v33c0 26 -13 42 -40 47v74c85 -4 137 -47 137 -104z" />
    <glyph glyph-name="plusminus" unicode="&#xb1;" horiz-adv-x="510" 
d="M470 0h-430v116h430v-116zM478 264h-161v-116h-124v116h-161v117h161v116h124v-116h161v-117z" />
    <glyph glyph-name="twosuperior" unicode="&#xb2;" horiz-adv-x="360" 
d="M196 411l-134 -111h-35v90l122 95c37 29 55 51 55 65v15c0 13 -14 20 -43 20v97h22c85 0 127 -27 127 -82v-40c0 -41 -20 -76 -59 -107zM324 300h-222l112 93h110v-93zM44 675c24 3 53 5 87 6v-97l-87 -7v98z" />
    <glyph glyph-name="threesuperior" unicode="&#xb3;" horiz-adv-x="331" 
d="M303 579v-29c0 -9 -2 -15 -5 -20l-46 -45l48 -47c3 -5 4 -10 4 -17v-35c0 -56 -41 -93 -136 -93h-22v89c31 2 46 12 46 31v20l-18 18h-104v70h105l16 15v27c0 17 -13 27 -38 29v90h23c51 0 84 -9 101 -28c17 -18 26 -43 26 -75zM40 675c27 2 55 4 83 5v-88l-83 -5v88z
M33 389c37 -4 64 -6 83 -7v-87l-83 8v86z" />
    <glyph glyph-name="acute" unicode="&#xb4;" 
d="M162 538h-117l78 150h147z" />
    <glyph glyph-name="mu" unicode="&#xb5;" horiz-adv-x="514" 
d="M51 474h132v-296c3 -40 25 -57 67 -50l52 8v-89l-65 -54c-8 -3 -17 -4 -28 -4c-7 0 -15 1 -26 2v-203h-132v686zM331 0v474h132v-474h-132z" />
    <glyph glyph-name="paragraph" unicode="&#xb6;" horiz-adv-x="494" 
d="M379 0h-132v676h199v-117h-67v-559zM22 419v107c0 42 14 77 41 106s62 44 103 44h52v-408h-52c-41 0 -76 15 -103 44s-41 65 -41 107z" />
    <glyph glyph-name="middot" unicode="&#xb7;" horiz-adv-x="244" 
d="M194 210h-144v154h144v-154z" />
    <glyph glyph-name="cedilla" unicode="&#xb8;" 
d="M55 -219v73c29 -7 53 -10 70 -10c21 0 31 7 31 22v10c0 15 -9 21 -27 19l-40 34l31 41h76l-16 -21c48 3 79 -23 79 -66v-29c0 -57 -54 -84 -111 -84c-20 0 -57 5 -78 8z" />
    <glyph glyph-name="onesuperior" unicode="&#xb9;" horiz-adv-x="243" 
d="M205 300h-119v262l-86 -14v99l205 35v-382z" />
    <glyph glyph-name="ordmasculine" unicode="&#xba;" horiz-adv-x="440" 
d="M155 542v-68h-110v77c0 80 62 131 175 131s175 -51 175 -131v-77h-110v68c0 39 -22 58 -65 58s-65 -19 -65 -58zM45 424v19h110v-4c0 -39 22 -58 65 -58s65 19 65 58v4h110v-19c0 -46 -17 -79 -52 -99c-34 -20 -75 -30 -123 -30s-89 10 -124 30c-34 20 -51 53 -51 99z
" />
    <glyph glyph-name="guillemotright" unicode="&#xbb;" horiz-adv-x="562" 
d="M271 127l210 215l53 -54v-36l-194 -196zM340 484l113 -114l-71 -70l-111 114zM50 127l210 215l53 -54v-36l-194 -196zM119 484l113 -114l-71 -70l-111 114z" />
    <glyph glyph-name="onequarter" unicode="&#xbc;" horiz-adv-x="719" 
d="M721 88h-67v-88h-103v376h103v-202h67v-86zM360 88v71l166 202v-120l-124 -153h-42zM526 88h-92l67 86h25v-86zM205 300h-119v262l-86 -14v99l205 35v-382zM551 676l-313 -676h-105l313 676h105z" />
    <glyph glyph-name="onehalf" unicode="&#xbd;" horiz-adv-x="719" 
d="M205 300h-119v262l-86 -14v99l205 35v-382zM515 676l-313 -676h-105l313 676h105zM555 111l-134 -111h-35v90l122 95c37 29 55 51 55 65v15c0 13 -14 20 -43 20v97h22c85 0 127 -27 127 -82v-40c0 -41 -20 -76 -59 -107zM683 0h-222l112 93h110v-93zM403 375
c24 3 53 5 87 6v-97l-87 -7v98z" />
    <glyph glyph-name="threequarters" unicode="&#xbe;" horiz-adv-x="719" 
d="M721 88h-67v-88h-103v376h103v-202h67v-86zM360 88v71l166 202v-120l-124 -153h-42zM526 88h-92l67 86h25v-86zM577 676l-313 -676h-105l313 676h105zM303 579v-29c0 -9 -2 -15 -5 -20l-46 -45l48 -47c3 -5 4 -10 4 -17v-35c0 -56 -41 -93 -136 -93h-22v89
c31 2 46 12 46 31v20l-18 18h-104v70h105l16 15v27c0 17 -13 27 -38 29v90h23c51 0 84 -9 101 -28c17 -18 26 -43 26 -75zM40 675c27 2 55 4 83 5v-88l-83 -5v88zM33 389c37 -4 64 -6 83 -7v-87l-83 8v86z" />
    <glyph glyph-name="questiondown" unicode="&#xbf;" horiz-adv-x="415" 
d="M19 114v46h132c3 -36 21 -52 76 -52l153 11v-119c-80 -7 -140 -11 -180 -11c-121 0 -181 42 -181 125zM186 411v54h132v-71c0 -35 -15 -63 -44 -83l-66 -44c-31 -21 -48 -34 -52 -40c-4 -7 -6 -18 -6 -33v-4h-131v12c0 49 14 79 35 98c15 12 15 12 32 23c9 6 14 10 16 11
l60 40c16 10 24 22 24 37zM185 676h134v-144h-134v144z" />
    <glyph glyph-name="Agrave" unicode="&#xc0;" horiz-adv-x="666" 
d="M421 297l-124 379h128l233 -676h-140l-56 172h-228l39 125h148zM267 676l51 -155l-170 -521h-140l233 676h26zM446 740h-117l-108 150h147z" />
    <glyph glyph-name="Aacute" unicode="&#xc1;" horiz-adv-x="666" 
d="M421 297l-124 379h128l233 -676h-140l-56 172h-228l39 125h148zM267 676l51 -155l-170 -521h-140l233 676h26zM337 740h-117l78 150h147z" />
    <glyph glyph-name="Acircumflex" unicode="&#xc2;" horiz-adv-x="666" 
d="M421 297l-124 379h128l233 -676h-140l-56 172h-228l39 125h148zM267 676l51 -155l-170 -521h-140l233 676h26zM273 740h-99l103 150h112l103 -150h-99l-60 78z" />
    <glyph glyph-name="Atilde" unicode="&#xc3;" horiz-adv-x="666" 
d="M421 297l-124 379h128l233 -676h-140l-56 172h-228l39 125h148zM267 676l51 -155l-170 -521h-140l233 676h26zM335 766l-37 21c-7 2 -15 3 -24 3c-27 0 -41 -13 -42 -40h-96c4 83 52 134 120 134c27 0 53 -7 76 -20l37 -21c9 -2 17 -3 24 -3c27 0 41 13 42 40h96
c-4 -83 -52 -134 -120 -134c-29 0 -54 7 -76 20z" />
    <glyph glyph-name="Adieresis" unicode="&#xc4;" horiz-adv-x="666" 
d="M421 297l-124 379h128l233 -676h-140l-56 172h-228l39 125h148zM267 676l51 -155l-170 -521h-140l233 676h26zM302 749h-131v134h131v-134zM495 749h-131v134h131v-134z" />
    <glyph glyph-name="Aring" unicode="&#xc5;" horiz-adv-x="666" 
d="M421 297l-124 379h128l233 -676h-140l-56 172h-228l39 125h148zM267 676l51 -155l-170 -521h-140l233 676h26zM205 833c0 71 47 121 112 121h2v-83c-13 -1 -29 -13 -29 -38s17 -38 29 -38v-83h-2c-65 0 -112 49 -112 121zM348 871v83h2c64 0 111 -52 111 -121
c0 -72 -47 -121 -111 -121h-2v83c12 1 28 14 28 38s-16 37 -28 38z" />
    <glyph glyph-name="AE" unicode="&#xc6;" horiz-adv-x="882" 
d="M419 509l-287 -509h-146l388 676h127l60 -118v-439h293v-119h-425v172h-169l71 125h98v212h-10zM846 558h-254l-59 118h313v-118zM799 278h-209v119h209v-119z" />
    <glyph glyph-name="Ccedilla" unicode="&#xc7;" horiz-adv-x="539" 
d="M198 409v-135h-132v202c0 141 86 211 258 211c29 0 88 -4 178 -11v-121c-70 8 -127 12 -172 12c-55 0 -91 -11 -108 -34c-16 -22 -24 -63 -24 -124zM504 120v-120c-90 -7 -150 -11 -180 -11c-172 0 -258 70 -258 211v44h132c1 -52 9 -88 25 -107c17 -19 52 -29 107 -29
c20 0 44 1 73 3s54 4 73 6zM177 -219v73c29 -7 53 -10 70 -10c21 0 31 7 31 22v10c0 15 -9 21 -27 19l-40 34l31 41h76l-16 -21c48 3 79 -23 79 -66v-29c0 -57 -54 -84 -111 -84c-20 0 -57 5 -78 8z" />
    <glyph glyph-name="Egrave" unicode="&#xc8;" horiz-adv-x="519" 
d="M491 0h-425v676h72l60 -118v-439h293v-119zM483 558h-254l-60 118h314v-118zM436 278h-209v119h209v-119zM372 740h-117l-108 150h147z" />
    <glyph glyph-name="Eacute" unicode="&#xc9;" horiz-adv-x="519" 
d="M491 0h-425v676h72l60 -118v-439h293v-119zM483 558h-254l-60 118h314v-118zM436 278h-209v119h209v-119zM264 740h-117l78 150h147z" />
    <glyph glyph-name="Ecircumflex" unicode="&#xca;" horiz-adv-x="519" 
d="M491 0h-425v676h72l60 -118v-439h293v-119zM483 558h-254l-60 118h314v-118zM436 278h-209v119h209v-119zM199 740h-99l103 150h112l103 -150h-99l-60 78z" />
    <glyph glyph-name="Edieresis" unicode="&#xcb;" horiz-adv-x="519" 
d="M491 0h-425v676h72l60 -118v-439h293v-119zM483 558h-254l-60 118h314v-118zM436 278h-209v119h209v-119zM228 749h-131v134h131v-134zM421 749h-131v134h131v-134z" />
    <glyph glyph-name="Igrave" unicode="&#xcc;" horiz-adv-x="278" 
d="M205 0h-132v676h132v-676zM252 740h-117l-108 150h147z" />
    <glyph glyph-name="Iacute" unicode="&#xcd;" horiz-adv-x="278" 
d="M205 0h-132v676h132v-676zM144 740h-117l78 150h147z" />
    <glyph glyph-name="Icircumflex" unicode="&#xce;" horiz-adv-x="278" 
d="M205 0h-132v676h132v-676zM79 740h-99l103 150h112l103 -150h-99l-60 78z" />
    <glyph glyph-name="Idieresis" unicode="&#xcf;" horiz-adv-x="278" 
d="M205 0h-132v676h132v-676zM108 749h-131v134h131v-134zM301 749h-131v134h131v-134z" />
    <glyph glyph-name="Eth" unicode="&#xd0;" horiz-adv-x="609" 
d="M0 291v93h66v292h228v-118h-96v-439h58v-119h-190v291h-66zM419 201v275c0 63 -21 82 -85 82h-11v118h73c45 0 82 -14 111 -43s43 -64 43 -107v-376c0 -43 -14 -78 -42 -107s-65 -43 -110 -43h-113v119h49c64 0 85 19 85 82zM227 291v93h118v-93h-118z" />
    <glyph glyph-name="Ntilde" unicode="&#xd1;" horiz-adv-x="669" 
d="M66 676h132v-676h-132v676zM603 676v-630l-132 223v407h132zM226 627l372 -627h-127l-245 417v210zM336 766l-37 21c-7 2 -15 3 -24 3c-27 0 -41 -13 -42 -40h-96c4 83 52 134 120 134c27 0 53 -7 76 -20l37 -21c9 -2 17 -3 24 -3c27 0 41 13 42 40h96
c-4 -83 -52 -134 -120 -134c-29 0 -54 7 -76 20z" />
    <glyph glyph-name="Ograve" unicode="&#xd2;" horiz-adv-x="638" 
d="M440 244v158h132v-202c0 -73 -24 -127 -72 -161c-47 -33 -108 -50 -181 -50s-134 17 -182 50c-47 34 -71 88 -71 161v44h132c0 -99 38 -133 121 -133s121 34 121 133zM198 434v-160h-132v202c0 73 24 127 72 160c48 34 108 51 181 51s133 -17 181 -51
c48 -33 72 -87 72 -160v-44h-132v2c0 99 -38 132 -121 132s-121 -33 -121 -132zM432 740h-117l-108 150h147z" />
    <glyph glyph-name="Oacute" unicode="&#xd3;" horiz-adv-x="638" 
d="M440 244v158h132v-202c0 -73 -24 -127 -72 -161c-47 -33 -108 -50 -181 -50s-134 17 -182 50c-47 34 -71 88 -71 161v44h132c0 -99 38 -133 121 -133s121 34 121 133zM198 434v-160h-132v202c0 73 24 127 72 160c48 34 108 51 181 51s133 -17 181 -51
c48 -33 72 -87 72 -160v-44h-132v2c0 99 -38 132 -121 132s-121 -33 -121 -132zM324 740h-117l78 150h147z" />
    <glyph glyph-name="Ocircumflex" unicode="&#xd4;" horiz-adv-x="638" 
d="M440 244v158h132v-202c0 -73 -24 -127 -72 -161c-47 -33 -108 -50 -181 -50s-134 17 -182 50c-47 34 -71 88 -71 161v44h132c0 -99 38 -133 121 -133s121 34 121 133zM198 434v-160h-132v202c0 73 24 127 72 160c48 34 108 51 181 51s133 -17 181 -51
c48 -33 72 -87 72 -160v-44h-132v2c0 99 -38 132 -121 132s-121 -33 -121 -132zM259 740h-99l103 150h112l103 -150h-99l-60 78z" />
    <glyph glyph-name="Otilde" unicode="&#xd5;" horiz-adv-x="638" 
d="M440 244v158h132v-202c0 -73 -24 -127 -72 -161c-47 -33 -108 -50 -181 -50s-134 17 -182 50c-47 34 -71 88 -71 161v44h132c0 -99 38 -133 121 -133s121 34 121 133zM198 434v-160h-132v202c0 73 24 127 72 160c48 34 108 51 181 51s133 -17 181 -51
c48 -33 72 -87 72 -160v-44h-132v2c0 99 -38 132 -121 132s-121 -33 -121 -132zM321 766l-37 21c-7 2 -15 3 -24 3c-27 0 -41 -13 -42 -40h-96c4 83 52 134 120 134c27 0 53 -7 76 -20l37 -21c9 -2 17 -3 24 -3c27 0 41 13 42 40h96c-4 -83 -52 -134 -120 -134
c-29 0 -54 7 -76 20z" />
    <glyph glyph-name="Odieresis" unicode="&#xd6;" horiz-adv-x="638" 
d="M440 244v158h132v-202c0 -73 -24 -127 -72 -161c-47 -33 -108 -50 -181 -50s-134 17 -182 50c-47 34 -71 88 -71 161v44h132c0 -99 38 -133 121 -133s121 34 121 133zM198 434v-160h-132v202c0 73 24 127 72 160c48 34 108 51 181 51s133 -17 181 -51
c48 -33 72 -87 72 -160v-44h-132v2c0 99 -38 132 -121 132s-121 -33 -121 -132zM288 749h-131v134h131v-134zM481 749h-131v134h131v-134z" />
    <glyph glyph-name="multiply" unicode="&#xd7;" horiz-adv-x="510" 
d="M255 357l139 137l84 -84l-139 -138l139 -138l-84 -84l-139 138l-139 -139l-84 84l139 139l-139 138l84 84z" />
    <glyph glyph-name="Oslash" unicode="&#xd8;" horiz-adv-x="638" 
d="M440 244v158h132v-202c0 -73 -24 -127 -72 -161c-47 -33 -108 -50 -181 -50c-43 0 -84 6 -121 18l-49 -97l-68 34l50 100c-43 37 -65 89 -65 156v44h132c0 -99 38 -133 121 -133s121 34 121 133zM198 434v-160h-132v202c0 73 24 127 72 160c48 34 108 51 181 51
c47 0 88 -7 123 -20l47 94l68 -34l-49 -97c43 -37 64 -89 64 -154v-44h-132v2c0 99 -38 132 -121 132s-121 -33 -121 -132zM412 438l-117 -236l-68 35l118 235z" />
    <glyph glyph-name="Ugrave" unicode="&#xd9;" horiz-adv-x="638" 
d="M66 201v43h132v-15c0 -47 11 -80 34 -97s52 -25 87 -25s64 8 87 25s34 50 34 97v173h132v-201c0 -70 -24 -123 -73 -159c-48 -35 -108 -53 -180 -53s-132 18 -181 53c-48 36 -72 89 -72 159zM198 676v-402h-132v402h132zM572 676v-244h-132v244h132zM432 740h-117
l-108 150h147z" />
    <glyph glyph-name="Uacute" unicode="&#xda;" horiz-adv-x="638" 
d="M66 201v43h132v-15c0 -47 11 -80 34 -97s52 -25 87 -25s64 8 87 25s34 50 34 97v173h132v-201c0 -70 -24 -123 -73 -159c-48 -35 -108 -53 -180 -53s-132 18 -181 53c-48 36 -72 89 -72 159zM198 676v-402h-132v402h132zM572 676v-244h-132v244h132zM324 740h-117l78 150
h147z" />
    <glyph glyph-name="Ucircumflex" unicode="&#xdb;" horiz-adv-x="638" 
d="M66 201v43h132v-15c0 -47 11 -80 34 -97s52 -25 87 -25s64 8 87 25s34 50 34 97v173h132v-201c0 -70 -24 -123 -73 -159c-48 -35 -108 -53 -180 -53s-132 18 -181 53c-48 36 -72 89 -72 159zM198 676v-402h-132v402h132zM572 676v-244h-132v244h132zM259 740h-99l103 150
h112l103 -150h-99l-60 78z" />
    <glyph glyph-name="Udieresis" unicode="&#xdc;" horiz-adv-x="638" 
d="M66 201v43h132v-15c0 -47 11 -80 34 -97s52 -25 87 -25s64 8 87 25s34 50 34 97v173h132v-201c0 -70 -24 -123 -73 -159c-48 -35 -108 -53 -180 -53s-132 18 -181 53c-48 36 -72 89 -72 159zM198 676v-402h-132v402h132zM572 676v-244h-132v244h132zM288 749h-131v134
h131v-134zM481 749h-131v134h131v-134z" />
    <glyph glyph-name="Yacute" unicode="&#xdd;" horiz-adv-x="586" 
d="M359 0h-132v259l-219 417h149l202 -416v-260zM578 676l-203 -385l-66 135l120 250h149zM298 740h-117l78 150h147z" />
    <glyph glyph-name="Thorn" unicode="&#xde;" horiz-adv-x="552" 
d="M198 457v-457h-132v676h132v-101h101v-118h-101zM398 364v22c0 48 -15 70 -70 71v118h58c41 0 76 -15 103 -44s41 -64 41 -106v-107c0 -42 -14 -78 -41 -107s-62 -44 -103 -44h-159v119h96c59 0 75 26 75 78z" />
    <glyph glyph-name="germandbls" unicode="&#xdf;" horiz-adv-x="655" 
d="M186 0h-123v476c0 159 127 211 256 211s256 -52 256 -211v-111c-73 7 -120 10 -140 10c-37 0 -60 -7 -67 -22h-126v5c0 85 60 127 181 127h24v9c0 59 -56 84 -124 84c-91 0 -137 -46 -137 -137v-441zM446 181l-93 11c-61 7 -111 57 -111 125v9h123c4 -17 18 -26 42 -29
l90 -11c64 -8 111 -57 111 -124v-37c0 -100 -65 -136 -188 -136h-5v111c47 0 66 10 66 39v9c0 19 -12 30 -35 33zM244 0v114c50 -8 97 -13 142 -14v-111z" />
    <glyph glyph-name="agrave" unicode="&#xe0;" horiz-adv-x="497" 
d="M314 0v324c0 30 -25 45 -75 45l-160 -9v115c97 7 157 10 179 10c120 0 188 -40 188 -160v-325h-132zM40 117v39c0 79 49 133 166 141l79 5v-93l-74 -5c-31 -3 -46 -16 -46 -40v-12c0 -26 13 -39 40 -39c12 0 28 3 49 9l31 9v-84l-66 -54c-8 -3 -17 -4 -28 -4
c-92 0 -151 53 -151 128zM361 538h-117l-108 150h147z" />
    <glyph glyph-name="aacute" unicode="&#xe1;" horiz-adv-x="497" 
d="M314 0v324c0 30 -25 45 -75 45l-160 -9v115c97 7 157 10 179 10c120 0 188 -40 188 -160v-325h-132zM40 117v39c0 79 49 133 166 141l79 5v-93l-74 -5c-31 -3 -46 -16 -46 -40v-12c0 -26 13 -39 40 -39c12 0 28 3 49 9l31 9v-84l-66 -54c-8 -3 -17 -4 -28 -4
c-92 0 -151 53 -151 128zM253 538h-117l78 150h147z" />
    <glyph glyph-name="acircumflex" unicode="&#xe2;" horiz-adv-x="497" 
d="M314 0v324c0 30 -25 45 -75 45l-160 -9v115c97 7 157 10 179 10c120 0 188 -40 188 -160v-325h-132zM40 117v39c0 79 49 133 166 141l79 5v-93l-74 -5c-31 -3 -46 -16 -46 -40v-12c0 -26 13 -39 40 -39c12 0 28 3 49 9l31 9v-84l-66 -54c-8 -3 -17 -4 -28 -4
c-92 0 -151 53 -151 128zM188 538h-99l103 150h112l103 -150h-99l-60 78z" />
    <glyph glyph-name="atilde" unicode="&#xe3;" horiz-adv-x="497" 
d="M314 0v324c0 30 -25 45 -75 45l-160 -9v115c97 7 157 10 179 10c120 0 188 -40 188 -160v-325h-132zM40 117v39c0 79 49 133 166 141l79 5v-93l-74 -5c-31 -3 -46 -16 -46 -40v-12c0 -26 13 -39 40 -39c12 0 28 3 49 9l31 9v-84l-66 -54c-8 -3 -17 -4 -28 -4
c-92 0 -151 53 -151 128zM250 564l-37 21c-7 2 -15 3 -24 3c-27 0 -41 -13 -42 -40h-96c4 83 52 134 120 134c27 0 53 -7 76 -20l37 -21c9 -2 17 -3 24 -3c27 0 41 13 42 40h96c-4 -83 -52 -134 -120 -134c-29 0 -54 7 -76 20z" />
    <glyph glyph-name="adieresis" unicode="&#xe4;" horiz-adv-x="497" 
d="M314 0v324c0 30 -25 45 -75 45l-160 -9v115c97 7 157 10 179 10c120 0 188 -40 188 -160v-325h-132zM40 117v39c0 79 49 133 166 141l79 5v-93l-74 -5c-31 -3 -46 -16 -46 -40v-12c0 -26 13 -39 40 -39c12 0 28 3 49 9l31 9v-84l-66 -54c-8 -3 -17 -4 -28 -4
c-92 0 -151 53 -151 128zM217 547h-131v134h131v-134zM410 547h-131v134h131v-134z" />
    <glyph glyph-name="aring" unicode="&#xe5;" horiz-adv-x="497" 
d="M314 0v324c0 30 -25 45 -75 45l-160 -9v115c97 7 157 10 179 10c120 0 188 -40 188 -160v-325h-132zM40 117v39c0 79 49 133 166 141l79 5v-93l-74 -5c-31 -3 -46 -16 -46 -40v-12c0 -26 13 -39 40 -39c12 0 28 3 49 9l31 9v-84l-66 -54c-8 -3 -17 -4 -28 -4
c-92 0 -151 53 -151 128zM120 631c0 71 47 121 112 121h2v-83c-13 -1 -29 -13 -29 -38s17 -38 29 -38v-83h-2c-65 0 -112 49 -112 121zM263 669v83h2c64 0 111 -52 111 -121c0 -72 -47 -121 -111 -121h-2v83c12 1 28 14 28 38s-16 37 -28 38z" />
    <glyph glyph-name="ae" unicode="&#xe6;" horiz-adv-x="768" 
d="M535 485c136 0 204 -56 204 -167v-127h-419v132c0 31 -25 46 -75 46l-160 -9v115c93 7 151 10 173 10c60 0 105 -9 134 -28c33 19 81 28 143 28zM40 117v39c0 76 46 133 166 141l85 5v-93l-80 -5c-31 -3 -46 -16 -46 -40v-12c0 -26 13 -39 40 -39c12 0 28 3 49 9l37 10
v-83l-72 -56c-8 -3 -17 -4 -28 -4c-92 0 -151 53 -151 128zM320 161h132c5 -56 28 -67 101 -67c64 0 121 4 170 12v-106c-51 -7 -107 -11 -167 -11c-45 0 -74 1 -121 14c-23 7 -43 16 -58 27c-31 24 -57 70 -57 131zM452 283h156v29c0 45 -16 68 -73 68
c-55 0 -83 -21 -83 -63v-34z" />
    <glyph glyph-name="ccedilla" unicode="&#xe7;" horiz-adv-x="418" 
d="M183 292v-73h-132v94c0 115 65 172 195 172l138 -10v-105c-51 7 -90 10 -118 10c-55 0 -83 -19 -83 -88zM393 2c-42 -9 -90 -13 -143 -13c-133 0 -199 55 -199 166v34h132v-13c0 -36 6 -59 18 -68s35 -14 70 -14c25 0 73 5 101 8l21 3v-103zM107 -219v73
c29 -7 53 -10 70 -10c21 0 31 7 31 22v10c0 15 -9 21 -27 19l-40 34l31 41h76l-16 -21c48 3 79 -23 79 -66v-29c0 -57 -54 -84 -111 -84c-20 0 -57 5 -78 8z" />
    <glyph glyph-name="egrave" unicode="&#xe8;" horiz-adv-x="491" 
d="M258 485c136 0 204 -56 204 -167v-127h-410v127c0 111 69 167 206 167zM279 -11c-66 0 -120 13 -162 40s-64 71 -65 132h133c3 -51 30 -67 101 -67c57 0 111 4 160 12v-106c-51 -7 -107 -11 -167 -11zM184 283h147v29c0 45 -16 68 -73 68c-52 0 -74 -18 -74 -70v-27z
M358 538h-117l-108 150h147z" />
    <glyph glyph-name="eacute" unicode="&#xe9;" horiz-adv-x="491" 
d="M258 485c136 0 204 -56 204 -167v-127h-410v127c0 111 69 167 206 167zM279 -11c-66 0 -120 13 -162 40s-64 71 -65 132h133c3 -51 30 -67 101 -67c57 0 111 4 160 12v-106c-51 -7 -107 -11 -167 -11zM184 283h147v29c0 45 -16 68 -73 68c-52 0 -74 -18 -74 -70v-27z
M250 538h-117l78 150h147z" />
    <glyph glyph-name="ecircumflex" unicode="&#xea;" horiz-adv-x="491" 
d="M258 485c136 0 204 -56 204 -167v-127h-410v127c0 111 69 167 206 167zM279 -11c-66 0 -120 13 -162 40s-64 71 -65 132h133c3 -51 30 -67 101 -67c57 0 111 4 160 12v-106c-51 -7 -107 -11 -167 -11zM184 283h147v29c0 45 -16 68 -73 68c-52 0 -74 -18 -74 -70v-27z
M185 538h-99l103 150h112l103 -150h-99l-60 78z" />
    <glyph glyph-name="edieresis" unicode="&#xeb;" horiz-adv-x="491" 
d="M258 485c136 0 204 -56 204 -167v-127h-410v127c0 111 69 167 206 167zM279 -11c-66 0 -120 13 -162 40s-64 71 -65 132h133c3 -51 30 -67 101 -67c57 0 111 4 160 12v-106c-51 -7 -107 -11 -167 -11zM184 283h147v29c0 45 -16 68 -73 68c-52 0 -74 -18 -74 -70v-27z
M214 547h-131v134h131v-134zM407 547h-131v134h131v-134z" />
    <glyph glyph-name="igrave" unicode="&#xec;" horiz-adv-x="258" 
d="M195 0h-132v474h132v-474zM243 538h-117l-108 150h147z" />
    <glyph glyph-name="iacute" unicode="&#xed;" horiz-adv-x="258" 
d="M134 538h-117l78 150h147zM195 0h-132v474h132v-474z" />
    <glyph glyph-name="icircumflex" unicode="&#xee;" horiz-adv-x="258" 
d="M69 538h-99l103 150h112l103 -150h-99l-60 78zM195 0h-132v474h132v-474z" />
    <glyph glyph-name="idieresis" unicode="&#xef;" horiz-adv-x="258" 
d="M98 547h-131v134h131v-134zM291 547h-131v134h131v-134zM195 0h-132v474h132v-474z" />
    <glyph glyph-name="eth" unicode="&#xf0;" horiz-adv-x="528" 
d="M476 219h-132v65c0 61 -24 88 -80 88s-80 -27 -80 -88v-65h-132v83c0 104 69 172 212 172c15 0 33 -1 56 -4c-11 19 -27 38 -46 56l-113 -48l-30 70l77 33c-8 6 -30 22 -65 47l64 83c43 -27 80 -55 113 -82l104 45l32 -70l-76 -32c64 -73 96 -157 96 -253v-100zM344 180
v9h132v-33c0 -128 -110 -167 -212 -167s-212 39 -212 167v33h132v-9c0 -63 24 -89 80 -89s80 26 80 89z" />
    <glyph glyph-name="ntilde" unicode="&#xf1;" horiz-adv-x="514" 
d="M463 0h-132v288c0 45 -22 65 -67 58l-52 -9v90l65 54c8 3 17 4 28 4c104 0 158 -60 158 -152v-333zM183 474v-474h-132v474h132zM259 564l-37 21c-7 2 -15 3 -24 3c-27 0 -41 -13 -42 -40h-96c4 83 52 134 120 134c27 0 53 -7 76 -20l37 -21c9 -2 17 -3 24 -3
c27 0 41 13 42 40h96c-4 -83 -52 -134 -120 -134c-29 0 -54 7 -76 20z" />
    <glyph glyph-name="ograve" unicode="&#xf2;" horiz-adv-x="528" 
d="M184 295v-76h-132v94c0 104 69 172 212 172s212 -68 212 -172v-94h-132v76c0 61 -24 88 -80 88s-80 -27 -80 -88zM344 180v9h132v-33c0 -128 -110 -167 -212 -167s-212 39 -212 167v33h132v-9c0 -63 24 -89 80 -89s80 26 80 89zM377 538h-117l-108 150h147z" />
    <glyph glyph-name="oacute" unicode="&#xf3;" horiz-adv-x="528" 
d="M184 295v-76h-132v94c0 104 69 172 212 172s212 -68 212 -172v-94h-132v76c0 61 -24 88 -80 88s-80 -27 -80 -88zM344 180v9h132v-33c0 -128 -110 -167 -212 -167s-212 39 -212 167v33h132v-9c0 -63 24 -89 80 -89s80 26 80 89zM269 538h-117l78 150h147z" />
    <glyph glyph-name="ocircumflex" unicode="&#xf4;" horiz-adv-x="528" 
d="M184 295v-76h-132v94c0 104 69 172 212 172s212 -68 212 -172v-94h-132v76c0 61 -24 88 -80 88s-80 -27 -80 -88zM344 180v9h132v-33c0 -128 -110 -167 -212 -167s-212 39 -212 167v33h132v-9c0 -63 24 -89 80 -89s80 26 80 89zM204 538h-99l103 150h112l103 -150h-99
l-60 78z" />
    <glyph glyph-name="otilde" unicode="&#xf5;" horiz-adv-x="528" 
d="M184 295v-76h-132v94c0 104 69 172 212 172s212 -68 212 -172v-94h-132v76c0 61 -24 88 -80 88s-80 -27 -80 -88zM344 180v9h132v-33c0 -128 -110 -167 -212 -167s-212 39 -212 167v33h132v-9c0 -63 24 -89 80 -89s80 26 80 89zM266 564l-37 21c-7 2 -15 3 -24 3
c-27 0 -41 -13 -42 -40h-96c4 83 52 134 120 134c27 0 53 -7 76 -20l37 -21c9 -2 17 -3 24 -3c27 0 41 13 42 40h96c-4 -83 -52 -134 -120 -134c-29 0 -54 7 -76 20z" />
    <glyph glyph-name="odieresis" unicode="&#xf6;" horiz-adv-x="528" 
d="M184 295v-76h-132v94c0 104 69 172 212 172s212 -68 212 -172v-94h-132v76c0 61 -24 88 -80 88s-80 -27 -80 -88zM344 180v9h132v-33c0 -128 -110 -167 -212 -167s-212 39 -212 167v33h132v-9c0 -63 24 -89 80 -89s80 26 80 89zM233 547h-131v134h131v-134zM426 547h-131
v134h131v-134z" />
    <glyph glyph-name="divide" unicode="&#xf7;" horiz-adv-x="510" 
d="M318 379h-126v110h126v-110zM468 216h-426v117h426v-117zM318 55h-126v110h126v-110z" />
    <glyph glyph-name="oslash" unicode="&#xf8;" horiz-adv-x="528" 
d="M184 295v-76h-132v94c0 104 69 172 212 172c29 0 56 -3 79 -9l40 79l68 -34l-38 -76c42 -30 63 -74 63 -132v-94h-132v76c0 61 -24 88 -80 88s-80 -27 -80 -88zM344 180v9h132v-33c0 -128 -110 -167 -212 -167c-24 0 -49 3 -76 8l-43 -87l-68 34l40 81
c-43 29 -65 72 -65 131v33h132v-9c0 -63 24 -89 80 -89s80 26 80 89zM330 279l-60 -120l-68 34l60 120z" />
    <glyph glyph-name="ugrave" unicode="&#xf9;" horiz-adv-x="514" 
d="M51 474h132v-288c0 -45 22 -65 67 -58l52 8v-89l-65 -54c-8 -3 -17 -4 -28 -4c-104 0 -158 60 -158 152v333zM331 0v474h132v-474h-132zM370 538h-117l-108 150h147z" />
    <glyph glyph-name="uacute" unicode="&#xfa;" horiz-adv-x="514" 
d="M51 474h132v-288c0 -45 22 -65 67 -58l52 8v-89l-65 -54c-8 -3 -17 -4 -28 -4c-104 0 -158 60 -158 152v333zM331 0v474h132v-474h-132zM262 538h-117l78 150h147z" />
    <glyph glyph-name="ucircumflex" unicode="&#xfb;" horiz-adv-x="514" 
d="M51 474h132v-288c0 -45 22 -65 67 -58l52 8v-89l-65 -54c-8 -3 -17 -4 -28 -4c-104 0 -158 60 -158 152v333zM331 0v474h132v-474h-132zM197 538h-99l103 150h112l103 -150h-99l-60 78z" />
    <glyph glyph-name="udieresis" unicode="&#xfc;" horiz-adv-x="514" 
d="M51 474h132v-288c0 -45 22 -65 67 -58l52 8v-89l-65 -54c-8 -3 -17 -4 -28 -4c-104 0 -158 60 -158 152v333zM331 0v474h132v-474h-132zM226 547h-131v134h131v-134zM419 547h-131v134h131v-134z" />
    <glyph glyph-name="yacute" unicode="&#xfd;" horiz-adv-x="472" 
d="M247 -212h-128l224 686h128zM1 474h134l85 -284l-62 -190h-2zM241 538h-117l78 150h147z" />
    <glyph glyph-name="thorn" unicode="&#xfe;" horiz-adv-x="514" 
d="M58 -212v888h132v-512c0 -46 25 -69 74 -69s74 23 74 69v25h132v-38c0 -57 -19 -98 -56 -124c-37 -25 -83 -38 -140 -38c-36 0 -64 4 -84 11v-212h-132zM470 333v-114h-132v69c0 45 -22 65 -67 58l-52 -9v90l65 54c8 3 17 4 28 4c104 0 158 -60 158 -152z" />
    <glyph glyph-name="ydieresis" unicode="&#xff;" horiz-adv-x="472" 
d="M247 -212h-128l224 686h128zM1 474h134l85 -284l-62 -190h-2zM205 547h-131v134h131v-134zM398 547h-131v134h131v-134z" />
    <glyph glyph-name="Amacron" unicode="&#x100;" horiz-adv-x="666" 
d="M421 297l-124 379h128l233 -676h-140l-56 172h-228l39 125h148zM267 676l51 -155l-170 -521h-140l233 676h26zM200 758v114h266v-114h-266z" />
    <glyph glyph-name="amacron" unicode="&#x101;" horiz-adv-x="497" 
d="M314 0v324c0 30 -25 45 -75 45l-160 -9v115c97 7 157 10 179 10c120 0 188 -40 188 -160v-325h-132zM40 117v39c0 79 49 133 166 141l79 5v-93l-74 -5c-31 -3 -46 -16 -46 -40v-12c0 -26 13 -39 40 -39c12 0 28 3 49 9l31 9v-84l-66 -54c-8 -3 -17 -4 -28 -4
c-92 0 -151 53 -151 128zM115 556v114h266v-114h-266z" />
    <glyph glyph-name="Abreve" unicode="&#x102;" horiz-adv-x="666" 
d="M421 297l-124 379h128l233 -676h-140l-56 172h-228l39 125h148zM267 676l51 -155l-170 -521h-140l233 676h26zM360 725h-54c-38 0 -70 14 -95 42s-35 68 -30 121h94c0 -53 24 -75 56 -75h4c31 0 56 24 56 75h94c5 -53 -5 -93 -30 -121s-57 -42 -95 -42z" />
    <glyph glyph-name="abreve" unicode="&#x103;" horiz-adv-x="497" 
d="M314 0v324c0 30 -25 45 -75 45l-160 -9v115c97 7 157 10 179 10c120 0 188 -40 188 -160v-325h-132zM40 117v39c0 79 49 133 166 141l79 5v-93l-74 -5c-31 -3 -46 -16 -46 -40v-12c0 -26 13 -39 40 -39c12 0 28 3 49 9l31 9v-84l-66 -54c-8 -3 -17 -4 -28 -4
c-92 0 -151 53 -151 128zM275 523h-54c-38 0 -70 14 -95 42s-35 68 -30 121h94c0 -53 24 -75 56 -75h4c31 0 56 24 56 75h94c5 -53 -5 -93 -30 -121s-57 -42 -95 -42z" />
    <glyph glyph-name="Aogonek" unicode="&#x104;" horiz-adv-x="666" 
d="M421 297l-124 379h128l233 -676h-140l-56 172h-228l39 125h148zM267 676l51 -155l-170 -521h-140l233 676h26zM424 -145v22c0 45 21 70 65 94h101c-31 -23 -47 -52 -47 -85v-8c0 -15 14 -26 31 -26l62 9v-80c-31 -7 -59 -11 -84 -11c-85 0 -128 28 -128 85z" />
    <glyph glyph-name="aogonek" unicode="&#x105;" horiz-adv-x="497" 
d="M314 0v324c0 30 -25 45 -75 45l-160 -9v115c97 7 157 10 179 10c120 0 188 -40 188 -160v-325h-132zM40 117v39c0 79 49 133 166 141l79 5v-93l-74 -5c-31 -3 -46 -16 -46 -40v-12c0 -26 13 -39 40 -39c12 0 28 3 49 9l31 9v-84l-66 -54c-8 -3 -17 -4 -28 -4
c-92 0 -151 53 -151 128zM241 -145v22c0 45 21 70 65 94h101c-31 -23 -47 -52 -47 -85v-8c0 -15 14 -26 31 -26l62 9v-80c-31 -7 -59 -11 -84 -11c-85 0 -128 28 -128 85z" />
    <glyph glyph-name="Cacute" unicode="&#x106;" horiz-adv-x="539" 
d="M198 409v-135h-132v202c0 141 86 211 258 211c29 0 88 -4 178 -11v-121c-70 8 -127 12 -172 12c-55 0 -91 -11 -108 -34c-16 -22 -24 -63 -24 -124zM504 120v-120c-90 -7 -150 -11 -180 -11c-172 0 -258 70 -258 211v44h132c1 -52 9 -88 25 -107c17 -19 52 -29 107 -29
c20 0 44 1 73 3s54 4 73 6zM284 740h-117l78 150h147z" />
    <glyph glyph-name="cacute" unicode="&#x107;" horiz-adv-x="418" 
d="M183 292v-73h-132v94c0 115 65 172 195 172l138 -10v-105c-51 7 -90 10 -118 10c-55 0 -83 -19 -83 -88zM393 2c-42 -9 -90 -13 -143 -13c-133 0 -199 55 -199 166v34h132v-13c0 -36 6 -59 18 -68s35 -14 70 -14c25 0 73 5 101 8l21 3v-103zM214 538h-117l78 150h147z
" />
    <glyph glyph-name="Ccircumflex" unicode="&#x108;" horiz-adv-x="539" 
d="M198 409v-135h-132v202c0 141 86 211 258 211c29 0 88 -4 178 -11v-121c-70 8 -127 12 -172 12c-55 0 -91 -11 -108 -34c-16 -22 -24 -63 -24 -124zM504 120v-120c-90 -7 -150 -11 -180 -11c-172 0 -258 70 -258 211v44h132c1 -52 9 -88 25 -107c17 -19 52 -29 107 -29
c20 0 44 1 73 3s54 4 73 6zM219 740h-99l103 150h112l103 -150h-99l-60 78z" />
    <glyph glyph-name="ccircumflex" unicode="&#x109;" horiz-adv-x="418" 
d="M183 292v-73h-132v94c0 115 65 172 195 172l138 -10v-105c-51 7 -90 10 -118 10c-55 0 -83 -19 -83 -88zM393 2c-42 -9 -90 -13 -143 -13c-133 0 -199 55 -199 166v34h132v-13c0 -36 6 -59 18 -68s35 -14 70 -14c25 0 73 5 101 8l21 3v-103zM149 538h-99l103 150h112
l103 -150h-99l-60 78z" />
    <glyph glyph-name="Cdotaccent" unicode="&#x10a;" horiz-adv-x="539" 
d="M198 409v-135h-132v202c0 141 86 211 258 211c29 0 88 -4 178 -11v-121c-70 8 -127 12 -172 12c-55 0 -91 -11 -108 -34c-16 -22 -24 -63 -24 -124zM504 120v-120c-90 -7 -150 -11 -180 -11c-172 0 -258 70 -258 211v44h132c1 -52 9 -88 25 -107c17 -19 52 -29 107 -29
c20 0 44 1 73 3s54 4 73 6zM344 754h-130v128h130v-128z" />
    <glyph glyph-name="cdotaccent" unicode="&#x10b;" horiz-adv-x="418" 
d="M183 292v-73h-132v94c0 115 65 172 195 172l138 -10v-105c-51 7 -90 10 -118 10c-55 0 -83 -19 -83 -88zM393 2c-42 -9 -90 -13 -143 -13c-133 0 -199 55 -199 166v34h132v-13c0 -36 6 -59 18 -68s35 -14 70 -14c25 0 73 5 101 8l21 3v-103zM274 552h-130v128h130v-128z
" />
    <glyph glyph-name="Ccaron" unicode="&#x10c;" horiz-adv-x="539" 
d="M198 409v-135h-132v202c0 141 86 211 258 211c29 0 88 -4 178 -11v-121c-70 8 -127 12 -172 12c-55 0 -91 -11 -108 -34c-16 -22 -24 -63 -24 -124zM504 120v-120c-90 -7 -150 -11 -180 -11c-172 0 -258 70 -258 211v44h132c1 -52 9 -88 25 -107c17 -19 52 -29 107 -29
c20 0 44 1 73 3s54 4 73 6zM118 890h111l50 -78l50 78h111l-103 -150h-116z" />
    <glyph glyph-name="ccaron" unicode="&#x10d;" horiz-adv-x="418" 
d="M183 292v-73h-132v94c0 115 65 172 195 172l138 -10v-105c-51 7 -90 10 -118 10c-55 0 -83 -19 -83 -88zM393 2c-42 -9 -90 -13 -143 -13c-133 0 -199 55 -199 166v34h132v-13c0 -36 6 -59 18 -68s35 -14 70 -14c25 0 73 5 101 8l21 3v-103zM48 688h111l50 -78l50 78h111
l-103 -150h-116z" />
    <glyph glyph-name="Dcaron" unicode="&#x10e;" horiz-adv-x="609" 
d="M419 201v275c0 63 -21 82 -85 82h-11v118h73c45 0 82 -14 111 -43s43 -64 43 -107v-376c0 -43 -14 -78 -42 -107s-65 -43 -110 -43h-113v119h49c64 0 85 19 85 82zM198 558v-439h58v-119h-190v676h228v-118h-96zM143 890h111l50 -78l50 78h111l-103 -150h-116z" />
    <glyph glyph-name="dcaron" unicode="&#x10f;" horiz-adv-x="514" 
d="M463 0h-132v710h132v-710zM245 485c19 0 38 -2 57 -6v-107c-15 5 -31 7 -46 7c-49 0 -73 -23 -73 -69v-124c0 -45 22 -65 67 -58l52 8v-89l-65 -54c-8 -3 -17 -4 -28 -4c-104 0 -158 60 -158 152v177c0 107 53 167 194 167zM484 533l24 161h125l-55 -161h-94z" />
    <glyph glyph-name="Dcroat" unicode="&#x110;" horiz-adv-x="609" 
d="M0 291v93h66v292h228v-118h-96v-439h58v-119h-190v291h-66zM419 201v275c0 63 -21 82 -85 82h-11v118h73c45 0 82 -14 111 -43s43 -64 43 -107v-376c0 -43 -14 -78 -42 -107s-65 -43 -110 -43h-113v119h49c64 0 85 19 85 82zM227 291v93h118v-93h-118z" />
    <glyph glyph-name="dslash" unicode="&#x111;" horiz-adv-x="514" 
d="M463 0h-132v710h132v-73h81v-82h-81v-555zM245 485c19 0 38 -2 57 -6v-107c-15 5 -31 7 -46 7c-49 0 -73 -23 -73 -69v-124c0 -45 22 -65 67 -58l52 8v-89l-65 -54c-8 -3 -17 -4 -28 -4c-104 0 -158 60 -158 152v177c0 107 53 167 194 167zM302 637v-82h-85v82h85z" />
    <glyph glyph-name="Emacron" unicode="&#x112;" horiz-adv-x="519" 
d="M491 0h-425v676h72l60 -118v-439h293v-119zM483 558h-254l-60 118h314v-118zM436 278h-209v119h209v-119zM126 758v114h266v-114h-266z" />
    <glyph glyph-name="emacron" unicode="&#x113;" horiz-adv-x="491" 
d="M258 485c136 0 204 -56 204 -167v-127h-410v127c0 111 69 167 206 167zM279 -11c-66 0 -120 13 -162 40s-64 71 -65 132h133c3 -51 30 -67 101 -67c57 0 111 4 160 12v-106c-51 -7 -107 -11 -167 -11zM184 283h147v29c0 45 -16 68 -73 68c-52 0 -74 -18 -74 -70v-27z
M112 556v114h266v-114h-266z" />
    <glyph glyph-name="Ebreve" unicode="&#x114;" horiz-adv-x="519" 
d="M491 0h-425v676h72l60 -118v-439h293v-119zM483 558h-254l-60 118h314v-118zM436 278h-209v119h209v-119zM286 725h-54c-38 0 -70 14 -95 42s-35 68 -30 121h94c0 -53 24 -75 56 -75h4c31 0 56 24 56 75h94c5 -53 -5 -93 -30 -121s-57 -42 -95 -42z" />
    <glyph glyph-name="ebreve" unicode="&#x115;" horiz-adv-x="491" 
d="M258 485c136 0 204 -56 204 -167v-127h-410v127c0 111 69 167 206 167zM279 -11c-66 0 -120 13 -162 40s-64 71 -65 132h133c3 -51 30 -67 101 -67c57 0 111 4 160 12v-106c-51 -7 -107 -11 -167 -11zM184 283h147v29c0 45 -16 68 -73 68c-52 0 -74 -18 -74 -70v-27z
M272 523h-54c-38 0 -70 14 -95 42s-35 68 -30 121h94c0 -53 24 -75 56 -75h4c31 0 56 24 56 75h94c5 -53 -5 -93 -30 -121s-57 -42 -95 -42z" />
    <glyph glyph-name="Edotaccent" unicode="&#x116;" horiz-adv-x="519" 
d="M491 0h-425v676h72l60 -118v-439h293v-119zM483 558h-254l-60 118h314v-118zM436 278h-209v119h209v-119zM324 754h-130v128h130v-128z" />
    <glyph glyph-name="edotaccent" unicode="&#x117;" horiz-adv-x="491" 
d="M258 485c136 0 204 -56 204 -167v-127h-410v127c0 111 69 167 206 167zM279 -11c-66 0 -120 13 -162 40s-64 71 -65 132h133c3 -51 30 -67 101 -67c57 0 111 4 160 12v-106c-51 -7 -107 -11 -167 -11zM184 283h147v29c0 45 -16 68 -73 68c-52 0 -74 -18 -74 -70v-27z
M310 552h-130v128h130v-128z" />
    <glyph glyph-name="Eogonek" unicode="&#x118;" horiz-adv-x="519" 
d="M491 0h-425v676h72l60 -118v-439h293v-119zM483 558h-254l-60 118h314v-118zM436 278h-209v119h209v-119zM281 -145v22c0 45 21 70 65 94h101c-31 -23 -47 -52 -47 -85v-8c0 -15 14 -26 31 -26l62 9v-80c-31 -7 -59 -11 -84 -11c-85 0 -128 28 -128 85z" />
    <glyph glyph-name="eogonek" unicode="&#x119;" horiz-adv-x="491" 
d="M258 485c136 0 204 -56 204 -167v-127h-410v127c0 111 69 167 206 167zM279 -11c-66 0 -120 13 -162 40s-64 71 -65 132h133c3 -51 30 -67 101 -67c57 0 111 4 160 12v-106c-51 -7 -107 -11 -167 -11zM184 283h147v29c0 45 -16 68 -73 68c-52 0 -74 -18 -74 -70v-27z
M232 -145v22c0 45 21 70 65 94h101c-31 -23 -47 -52 -47 -85v-8c0 -15 14 -26 31 -26l62 9v-80c-31 -7 -59 -11 -84 -11c-85 0 -128 28 -128 85z" />
    <glyph glyph-name="Ecaron" unicode="&#x11a;" horiz-adv-x="519" 
d="M491 0h-425v676h72l60 -118v-439h293v-119zM483 558h-254l-60 118h314v-118zM436 278h-209v119h209v-119zM98 890h111l50 -78l50 78h111l-103 -150h-116z" />
    <glyph glyph-name="ecaron" unicode="&#x11b;" horiz-adv-x="491" 
d="M258 485c136 0 204 -56 204 -167v-127h-410v127c0 111 69 167 206 167zM279 -11c-66 0 -120 13 -162 40s-64 71 -65 132h133c3 -51 30 -67 101 -67c57 0 111 4 160 12v-106c-51 -7 -107 -11 -167 -11zM184 283h147v29c0 45 -16 68 -73 68c-52 0 -74 -18 -74 -70v-27z
M84 688h111l50 -78l50 78h111l-103 -150h-116z" />
    <glyph glyph-name="Gcircumflex" unicode="&#x11c;" horiz-adv-x="620" 
d="M198 409v-135h-132v202c0 141 86 211 258 211c29 0 88 -4 178 -11v-121c-70 8 -127 12 -172 12c-55 0 -91 -11 -108 -34c-16 -22 -24 -63 -24 -124zM559 4l-132 -11v283h-126v119h258v-391zM330 108c29 0 52 1 68 2v-118c-27 -2 -51 -3 -74 -3c-172 0 -258 70 -258 211
v44h132c1 -52 9 -88 25 -107c17 -19 52 -29 107 -29zM250 740h-99l103 150h112l103 -150h-99l-60 78z" />
    <glyph glyph-name="gcircumflex" unicode="&#x11d;" horiz-adv-x="552" 
d="M104 83v21c0 9 3 17 8 22h110c-2 -5 -3 -10 -3 -15c0 -12 14 -20 43 -25l119 -16c87 -12 134 -61 134 -121v-10h-129c-1 12 -6 20 -23 25c-16 4 -17 4 -46 8l-106 14c-27 -7 -42 -26 -42 -46v-13c0 -31 39 -54 104 -54c59 0 96 12 109 36h132c-4 -42 -30 -75 -78 -98
c-48 -24 -103 -36 -164 -36c-67 0 -122 12 -165 36s-64 59 -64 106v8c0 45 33 89 94 110c-22 10 -33 26 -33 48zM269 134h-26c-117 0 -190 54 -195 162h131c3 -41 22 -61 75 -61c57 0 75 23 75 72v16c0 51 -18 74 -75 74c-59 0 -75 -22 -75 -71h-131c3 106 72 159 206 159
c137 0 206 -56 206 -167v-12c0 -119 -79 -172 -191 -172zM524 379l-80 41v54h90v-95h-10zM216 538h-99l103 150h112l103 -150h-99l-60 78z" />
    <glyph glyph-name="Gbreve" unicode="&#x11e;" horiz-adv-x="620" 
d="M198 409v-135h-132v202c0 141 86 211 258 211c29 0 88 -4 178 -11v-121c-70 8 -127 12 -172 12c-55 0 -91 -11 -108 -34c-16 -22 -24 -63 -24 -124zM559 4l-132 -11v283h-126v119h258v-391zM330 108c29 0 52 1 68 2v-118c-27 -2 -51 -3 -74 -3c-172 0 -258 70 -258 211
v44h132c1 -52 9 -88 25 -107c17 -19 52 -29 107 -29zM337 725h-54c-38 0 -70 14 -95 42s-35 68 -30 121h94c0 -53 24 -75 56 -75h4c31 0 56 24 56 75h94c5 -53 -5 -93 -30 -121s-57 -42 -95 -42z" />
    <glyph glyph-name="gbreve" unicode="&#x11f;" horiz-adv-x="552" 
d="M104 83v21c0 9 3 17 8 22h110c-2 -5 -3 -10 -3 -15c0 -12 14 -20 43 -25l119 -16c87 -12 134 -61 134 -121v-10h-129c-1 12 -6 20 -23 25c-16 4 -17 4 -46 8l-106 14c-27 -7 -42 -26 -42 -46v-13c0 -31 39 -54 104 -54c59 0 96 12 109 36h132c-4 -42 -30 -75 -78 -98
c-48 -24 -103 -36 -164 -36c-67 0 -122 12 -165 36s-64 59 -64 106v8c0 45 33 89 94 110c-22 10 -33 26 -33 48zM269 134h-26c-117 0 -190 54 -195 162h131c3 -41 22 -61 75 -61c57 0 75 23 75 72v16c0 51 -18 74 -75 74c-59 0 -75 -22 -75 -71h-131c3 106 72 159 206 159
c137 0 206 -56 206 -167v-12c0 -119 -79 -172 -191 -172zM524 379l-80 41v54h90v-95h-10zM303 523h-54c-38 0 -70 14 -95 42s-35 68 -30 121h94c0 -53 24 -75 56 -75h4c31 0 56 24 56 75h94c5 -53 -5 -93 -30 -121s-57 -42 -95 -42z" />
    <glyph glyph-name="Gdotaccent" unicode="&#x120;" horiz-adv-x="620" 
d="M198 409v-135h-132v202c0 141 86 211 258 211c29 0 88 -4 178 -11v-121c-70 8 -127 12 -172 12c-55 0 -91 -11 -108 -34c-16 -22 -24 -63 -24 -124zM559 4l-132 -11v283h-126v119h258v-391zM330 108c29 0 52 1 68 2v-118c-27 -2 -51 -3 -74 -3c-172 0 -258 70 -258 211
v44h132c1 -52 9 -88 25 -107c17 -19 52 -29 107 -29zM375 754h-130v128h130v-128z" />
    <glyph glyph-name="gdotaccent" unicode="&#x121;" horiz-adv-x="552" 
d="M104 83v21c0 9 3 17 8 22h110c-2 -5 -3 -10 -3 -15c0 -12 14 -20 43 -25l119 -16c87 -12 134 -61 134 -121v-10h-129c-1 12 -6 20 -23 25c-16 4 -17 4 -46 8l-106 14c-27 -7 -42 -26 -42 -46v-13c0 -31 39 -54 104 -54c59 0 96 12 109 36h132c-4 -42 -30 -75 -78 -98
c-48 -24 -103 -36 -164 -36c-67 0 -122 12 -165 36s-64 59 -64 106v8c0 45 33 89 94 110c-22 10 -33 26 -33 48zM269 134h-26c-117 0 -190 54 -195 162h131c3 -41 22 -61 75 -61c57 0 75 23 75 72v16c0 51 -18 74 -75 74c-59 0 -75 -22 -75 -71h-131c3 106 72 159 206 159
c137 0 206 -56 206 -167v-12c0 -119 -79 -172 -191 -172zM524 379l-80 41v54h90v-95h-10zM341 552h-130v128h130v-128z" />
    <glyph glyph-name="Gcommaaccent" unicode="&#x122;" horiz-adv-x="620" 
d="M198 409v-135h-132v202c0 141 86 211 258 211c29 0 88 -4 178 -11v-121c-70 8 -127 12 -172 12c-55 0 -91 -11 -108 -34c-16 -22 -24 -63 -24 -124zM559 4l-132 -11v283h-126v119h258v-391zM330 108c29 0 52 1 68 2v-118c-27 -2 -51 -3 -74 -3c-172 0 -258 70 -258 211
v44h132c1 -52 9 -88 25 -107c17 -19 52 -29 107 -29zM236 -221l29 166h119l-51 -166h-97z" />
    <glyph glyph-name="gcommaaccent" unicode="&#x123;" horiz-adv-x="552" 
d="M104 83v21c0 9 3 17 8 22h110c-2 -5 -3 -10 -3 -15c0 -12 14 -20 43 -25l119 -16c87 -12 134 -61 134 -121v-10h-129c-1 12 -6 20 -23 25c-16 4 -17 4 -46 8l-106 14c-27 -7 -42 -26 -42 -46v-13c0 -31 39 -54 104 -54c59 0 96 12 109 36h132c-4 -42 -30 -75 -78 -98
c-48 -24 -103 -36 -164 -36c-67 0 -122 12 -165 36s-64 59 -64 106v8c0 45 33 89 94 110c-22 10 -33 26 -33 48zM269 134h-26c-117 0 -190 54 -195 162h131c3 -41 22 -61 75 -61c57 0 75 23 75 72v16c0 51 -18 74 -75 74c-59 0 -75 -22 -75 -71h-131c3 106 72 159 206 159
c137 0 206 -56 206 -167v-12c0 -119 -79 -172 -191 -172zM524 379l-80 41v54h90v-95h-10zM202 537l29 166h119l-51 -166h-97z" />
    <glyph glyph-name="Hcircumflex" unicode="&#x124;" horiz-adv-x="639" 
d="M573 0h-132v676h132v-676zM198 676v-676h-132v676h132zM226 278v119h187v-119h-187zM259 740h-99l103 150h112l103 -150h-99l-60 78z" />
    <glyph glyph-name="hcircumflex" unicode="&#x125;" horiz-adv-x="514" 
d="M183 710v-710h-132v710h132zM463 0h-132v288c0 45 -22 65 -67 58l-52 -9v90l65 54c8 3 17 4 28 4c104 0 158 -60 158 -152v-333zM57 740h-99l103 150h112l103 -150h-99l-60 78z" />
    <glyph glyph-name="Hbar" unicode="&#x126;" horiz-adv-x="639" 
d="M226 473v101h187v-101h-187zM573 0h-132v676h132v-676zM198 676v-676h-132v676h132zM226 278v119h187v-119h-187z" />
    <glyph glyph-name="hbar" unicode="&#x127;" horiz-adv-x="514" 
d="M-20 555v82h71v73h132v-710h-132v555h-71zM463 0h-132v288c0 45 -22 65 -67 58l-52 -9v90l65 54c8 3 17 4 28 4c104 0 158 -60 158 -152v-333zM212 555v82h120v-82h-120z" />
    <glyph glyph-name="Itilde" unicode="&#x128;" horiz-adv-x="278" 
d="M205 0h-132v676h132v-676zM141 766l-37 21c-7 2 -15 3 -24 3c-27 0 -41 -13 -42 -40h-96c4 83 52 134 120 134c27 0 53 -7 76 -20l37 -21c9 -2 17 -3 24 -3c27 0 41 13 42 40h96c-4 -83 -52 -134 -120 -134c-29 0 -54 7 -76 20z" />
    <glyph glyph-name="itilde" unicode="&#x129;" horiz-adv-x="258" 
d="M195 0h-132v474h132v-474zM131 564l-37 21c-7 2 -15 3 -24 3c-27 0 -41 -13 -42 -40h-96c4 83 52 134 120 134c27 0 53 -7 76 -20l37 -21c9 -2 17 -3 24 -3c27 0 41 13 42 40h96c-4 -83 -52 -134 -120 -134c-29 0 -54 7 -76 20z" />
    <glyph glyph-name="Imacron" unicode="&#x12a;" horiz-adv-x="278" 
d="M205 0h-132v676h132v-676zM6 758v114h266v-114h-266z" />
    <glyph glyph-name="imacron" unicode="&#x12b;" horiz-adv-x="258" 
d="M195 0h-132v474h132v-474zM-4 556v114h266v-114h-266z" />
    <glyph glyph-name="Ibreve" unicode="&#x12c;" horiz-adv-x="278" 
d="M205 0h-132v676h132v-676zM166 725h-54c-38 0 -70 14 -95 42s-35 68 -30 121h94c0 -53 24 -75 56 -75h4c31 0 56 24 56 75h94c5 -53 -5 -93 -30 -121s-57 -42 -95 -42z" />
    <glyph glyph-name="ibreve" unicode="&#x12d;" horiz-adv-x="258" 
d="M195 0h-132v474h132v-474zM156 523h-54c-38 0 -70 14 -95 42s-35 68 -30 121h94c0 -53 24 -75 56 -75h4c31 0 56 24 56 75h94c5 -53 -5 -93 -30 -121s-57 -42 -95 -42z" />
    <glyph glyph-name="Iogonek" unicode="&#x12e;" horiz-adv-x="278" 
d="M205 0h-132v676h132v-676zM-2 -145v22c0 45 21 70 65 94h101c-31 -23 -47 -52 -47 -85v-8c0 -15 14 -26 31 -26l62 9v-80c-31 -7 -59 -11 -84 -11c-85 0 -128 28 -128 85z" />
    <glyph glyph-name="iogonek" unicode="&#x12f;" horiz-adv-x="258" 
d="M195 566h-132v144h132v-144zM195 0h-132v474h132v-474zM-9 -145v22c0 45 21 70 65 94h101c-31 -23 -47 -52 -47 -85v-8c0 -15 14 -26 31 -26l62 9v-80c-31 -7 -59 -11 -84 -11c-85 0 -128 28 -128 85z" />
    <glyph glyph-name="Idot" unicode="&#x130;" horiz-adv-x="278" 
d="M205 0h-132v676h132v-676zM204 754h-130v128h130v-128z" />
    <glyph glyph-name="dotlessi" unicode="&#x131;" horiz-adv-x="258" 
d="M195 0h-132v474h132v-474z" />
    <glyph glyph-name="IJ" unicode="&#x132;" horiz-adv-x="556" 
d="M205 0h-132v676h132v-676zM483 676v-676h-132v676h132zM217 -30h266v-9c-1 -7 -7 -15 -16 -24l-85 -87c-7 -4 -16 -6 -29 -6h-136v126z" />
    <glyph glyph-name="ij" unicode="&#x133;" horiz-adv-x="516" 
d="M195 566h-132v144h132v-144zM195 0h-132v474h132v-474zM453 567h-132v143h132v-143zM223 -221v111c5 -1 11 -1 19 -1c65 0 79 30 79 89v496h132v-525c0 -51 -7 -87 -30 -120c-23 -35 -67 -54 -132 -54c-26 0 -49 1 -68 4z" />
    <glyph glyph-name="Jcircumflex" unicode="&#x134;" horiz-adv-x="278" 
d="M79 740h-99l103 150h112l103 -150h-99l-60 78zM205 676v-676h-132v676h132zM-61 -30h266v-9c-1 -7 -7 -15 -16 -24l-85 -87c-7 -4 -16 -6 -29 -6h-136v126z" />
    <glyph glyph-name="jcircumflex" unicode="&#x135;" horiz-adv-x="258" 
d="M69 538h-99l103 150h112l103 -150h-99l-60 78zM-31 -223v114c5 -1 8 -1 11 -1c56 0 83 36 83 89v495h132v-519c0 -51 -16 -94 -48 -128c-31 -35 -78 -52 -141 -52c-16 0 -28 1 -37 2z" />
    <glyph glyph-name="Kcommaaccent" unicode="&#x136;" horiz-adv-x="554" 
d="M551 676l-327 -438h-40v-238h-132v676h132v-279h10l211 279h146zM556 0h-152l-163 214l77 103zM203 -221l29 166h119l-51 -166h-97z" />
    <glyph glyph-name="kcommaaccent" unicode="&#x137;" horiz-adv-x="462" 
d="M183 710v-710h-132v710h132zM467 0h-161l-94 169v136l94 169h151l-149 -232zM157 -221l29 166h119l-51 -166h-97z" />
    <glyph glyph-name="kgreenlandic" unicode="&#x138;" horiz-adv-x="462" 
d="M183 474v-474h-132v474h132zM467 0h-161l-94 169v136l94 169h151l-149 -232z" />
    <glyph glyph-name="Lacute" unicode="&#x139;" horiz-adv-x="491" 
d="M198 676v-676h-132v676h132zM475 0h-248v119h248v-119zM182 740h-117l78 150h147z" />
    <glyph glyph-name="lacute" unicode="&#x13a;" horiz-adv-x="258" 
d="M195 0h-132v710h132v-710zM134 740h-117l78 150h147z" />
    <glyph glyph-name="Lcommaaccent" unicode="&#x13b;" horiz-adv-x="491" 
d="M198 676v-676h-132v676h132zM475 0h-248v119h248v-119zM171 -221l29 166h119l-51 -166h-97z" />
    <glyph glyph-name="lcommaaccent" unicode="&#x13c;" horiz-adv-x="258" 
d="M195 0h-132v710h132v-710zM55 -221l29 166h119l-51 -166h-97z" />
    <glyph glyph-name="Lcaron" unicode="&#x13d;" horiz-adv-x="491" 
d="M198 676v-676h-132v676h132zM475 0h-248v119h248v-119zM252 527l24 161h125l-55 -161h-94z" />
    <glyph glyph-name="lcaron" unicode="&#x13e;" horiz-adv-x="258" 
d="M195 0h-132v710h132v-710zM240 533l24 161h125l-55 -161h-94z" />
    <glyph glyph-name="Ldot" unicode="&#x13f;" horiz-adv-x="491" 
d="M198 676v-676h-132v676h132zM475 0h-248v119h248v-119zM420 292h-130v128h130v-128z" />
    <glyph glyph-name="ldot" unicode="&#x140;" horiz-adv-x="331" 
d="M195 0h-132v710h132v-710zM361 302h-130v128h130v-128z" />
    <glyph glyph-name="Lslash" unicode="&#x141;" horiz-adv-x="491" 
d="M7 241l-38 66l97 54v315h132v-676h-132v274zM475 0h-248v119h248v-119zM331 424l-104 -59v86l66 37z" />
    <glyph glyph-name="lslash" unicode="&#x142;" horiz-adv-x="258" 
d="M195 0h-132v269l-40 -22l-39 66l79 44v353h132v-280l41 23l39 -64l-80 -45v-344z" />
    <glyph glyph-name="Nacute" unicode="&#x143;" horiz-adv-x="669" 
d="M66 676h132v-676h-132v676zM603 676v-630l-132 223v407h132zM226 627l372 -627h-127l-245 417v210zM339 740h-117l78 150h147z" />
    <glyph glyph-name="nacute" unicode="&#x144;" horiz-adv-x="514" 
d="M463 0h-132v288c0 45 -22 65 -67 58l-52 -9v90l65 54c8 3 17 4 28 4c104 0 158 -60 158 -152v-333zM183 474v-474h-132v474h132zM262 538h-117l78 150h147z" />
    <glyph glyph-name="Ncommaaccent" unicode="&#x145;" horiz-adv-x="669" 
d="M66 676h132v-676h-132v676zM603 676v-630l-132 223v407h132zM226 627l372 -627h-127l-245 417v210zM260 -221l29 166h119l-51 -166h-97z" />
    <glyph glyph-name="ncommaaccent" unicode="&#x146;" horiz-adv-x="514" 
d="M463 0h-132v288c0 45 -22 65 -67 58l-52 -9v90l65 54c8 3 17 4 28 4c104 0 158 -60 158 -152v-333zM183 474v-474h-132v474h132zM183 -221l29 166h119l-51 -166h-97z" />
    <glyph glyph-name="Ncaron" unicode="&#x147;" horiz-adv-x="669" 
d="M66 676h132v-676h-132v676zM603 676v-630l-132 223v407h132zM226 627l372 -627h-127l-245 417v210zM173 890h111l50 -78l50 78h111l-103 -150h-116z" />
    <glyph glyph-name="ncaron" unicode="&#x148;" horiz-adv-x="514" 
d="M463 0h-132v288c0 45 -22 65 -67 58l-52 -9v90l65 54c8 3 17 4 28 4c104 0 158 -60 158 -152v-333zM183 474v-474h-132v474h132zM96 688h111l50 -78l50 78h111l-103 -150h-116z" />
    <glyph glyph-name="Eng" unicode="&#x14a;" horiz-adv-x="669" 
d="M339 -30h266v-9c-1 -7 -7 -15 -16 -24l-85 -87c-7 -4 -16 -6 -29 -6h-136v126zM66 676h132v-676h-132v676zM603 676v-630l-132 223v407h132zM226 627l372 -627h-127l-245 417v210z" />
    <glyph glyph-name="eng" unicode="&#x14b;" horiz-adv-x="514" 
d="M237 -223v114c4 -1 8 -1 11 -1c56 0 83 36 83 89v309c0 39 -17 59 -50 59c-7 0 -13 0 -17 -1l-52 -9v90l65 54c8 3 17 4 28 4c104 0 158 -60 158 -152v-378c0 -51 -16 -94 -48 -128c-31 -35 -78 -52 -141 -52c-16 0 -28 1 -37 2zM183 474v-474h-132v474h132z" />
    <glyph glyph-name="Omacron" unicode="&#x14c;" horiz-adv-x="638" 
d="M440 244v158h132v-202c0 -73 -24 -127 -72 -161c-47 -33 -108 -50 -181 -50s-134 17 -182 50c-47 34 -71 88 -71 161v44h132c0 -99 38 -133 121 -133s121 34 121 133zM198 434v-160h-132v202c0 73 24 127 72 160c48 34 108 51 181 51s133 -17 181 -51
c48 -33 72 -87 72 -160v-44h-132v2c0 99 -38 132 -121 132s-121 -33 -121 -132zM186 758v114h266v-114h-266z" />
    <glyph glyph-name="omacron" unicode="&#x14d;" horiz-adv-x="528" 
d="M184 295v-76h-132v94c0 104 69 172 212 172s212 -68 212 -172v-94h-132v76c0 61 -24 88 -80 88s-80 -27 -80 -88zM344 180v9h132v-33c0 -128 -110 -167 -212 -167s-212 39 -212 167v33h132v-9c0 -63 24 -89 80 -89s80 26 80 89zM131 556v114h266v-114h-266z" />
    <glyph glyph-name="Obreve" unicode="&#x14e;" horiz-adv-x="638" 
d="M440 244v158h132v-202c0 -73 -24 -127 -72 -161c-47 -33 -108 -50 -181 -50s-134 17 -182 50c-47 34 -71 88 -71 161v44h132c0 -99 38 -133 121 -133s121 34 121 133zM198 434v-160h-132v202c0 73 24 127 72 160c48 34 108 51 181 51s133 -17 181 -51
c48 -33 72 -87 72 -160v-44h-132v2c0 99 -38 132 -121 132s-121 -33 -121 -132zM346 725h-54c-38 0 -70 14 -95 42s-35 68 -30 121h94c0 -53 24 -75 56 -75h4c31 0 56 24 56 75h94c5 -53 -5 -93 -30 -121s-57 -42 -95 -42z" />
    <glyph glyph-name="obreve" unicode="&#x14f;" horiz-adv-x="528" 
d="M184 295v-76h-132v94c0 104 69 172 212 172s212 -68 212 -172v-94h-132v76c0 61 -24 88 -80 88s-80 -27 -80 -88zM344 180v9h132v-33c0 -128 -110 -167 -212 -167s-212 39 -212 167v33h132v-9c0 -63 24 -89 80 -89s80 26 80 89zM291 523h-54c-38 0 -70 14 -95 42
s-35 68 -30 121h94c0 -53 24 -75 56 -75h4c31 0 56 24 56 75h94c5 -53 -5 -93 -30 -121s-57 -42 -95 -42z" />
    <glyph glyph-name="Ohungarumlaut" unicode="&#x150;" horiz-adv-x="638" 
d="M440 244v158h132v-202c0 -73 -24 -127 -72 -161c-47 -33 -108 -50 -181 -50s-134 17 -182 50c-47 34 -71 88 -71 161v44h132c0 -99 38 -133 121 -133s121 34 121 133zM198 434v-160h-132v202c0 73 24 127 72 160c48 34 108 51 181 51s133 -17 181 -51
c48 -33 72 -87 72 -160v-44h-132v2c0 99 -38 132 -121 132s-121 -33 -121 -132zM129 747l91 179h129l-111 -179h-109zM289 747l91 179h129l-111 -179h-109z" />
    <glyph glyph-name="ohungarumlaut" unicode="&#x151;" horiz-adv-x="528" 
d="M184 295v-76h-132v94c0 104 69 172 212 172s212 -68 212 -172v-94h-132v76c0 61 -24 88 -80 88s-80 -27 -80 -88zM344 180v9h132v-33c0 -128 -110 -167 -212 -167s-212 39 -212 167v33h132v-9c0 -63 24 -89 80 -89s80 26 80 89zM74 523l91 179h129l-111 -179h-109z
M234 523l91 179h129l-111 -179h-109z" />
    <glyph glyph-name="OE" unicode="&#x152;" horiz-adv-x="907" 
d="M326 114c84 0 128 36 128 133v150h132v-278h293v-119h-425v13c-49 -16 -96 -24 -141 -24c-125 0 -247 52 -247 211v44h132c1 -95 45 -130 128 -130zM198 434v-160h-132v202c0 158 123 211 247 211c49 0 96 -8 141 -24v13h72l60 -118v-131h-132v7c0 97 -44 131 -128 131
s-128 -34 -128 -131zM871 558h-254l-59 118h313v-118zM824 278h-209v119h209v-119z" />
    <glyph glyph-name="oe" unicode="&#x153;" horiz-adv-x="799" 
d="M184 295v-76h-132v94c0 103 73 172 216 172c61 0 109 -11 146 -34c35 23 84 34 148 34c139 0 208 -56 208 -167v-122h-418v108c0 53 -28 79 -84 79s-84 -29 -84 -88zM268 91c54 0 82 25 84 75h132c14 -81 61 -85 270 -55v-104c-46 -12 -102 -18 -167 -18
c-73 0 -128 13 -166 38c-37 -25 -88 -38 -153 -38c-59 0 -110 13 -153 39c-42 27 -63 69 -63 128v33h132v-9c0 -63 27 -89 84 -89zM484 288h155v24c0 45 -18 68 -77 68c-52 0 -77 -19 -78 -67v-25z" />
    <glyph glyph-name="Racute" unicode="&#x154;" horiz-adv-x="606" 
d="M308 740h-117l78 150h147zM398 465v22c0 48 -15 70 -70 71v118h58c41 0 76 -15 103 -44s41 -64 41 -106v-107c0 -42 -14 -78 -41 -107s-62 -44 -103 -44h-159v119h96c59 0 75 26 75 78zM198 558v-558h-132v676h233v-118h-101zM318 245h143l126 -245h-144z" />
    <glyph glyph-name="racute" unicode="&#x155;" horiz-adv-x="326" 
d="M176 0h-132v474h132v-474zM318 340c-47 1 -84 -15 -113 -48v126c25 38 63 58 113 61v-139zM168 538h-117l78 150h147z" />
    <glyph glyph-name="Rcommaaccent" unicode="&#x156;" horiz-adv-x="606" 
d="M229 -221l29 166h119l-51 -166h-97zM398 465v22c0 48 -15 70 -70 71v118h58c41 0 76 -15 103 -44s41 -64 41 -106v-107c0 -42 -14 -78 -41 -107s-62 -44 -103 -44h-159v119h96c59 0 75 26 75 78zM198 558v-558h-132v676h233v-118h-101zM318 245h143l126 -245h-144z" />
    <glyph glyph-name="rcommaaccent" unicode="&#x157;" horiz-adv-x="326" 
d="M176 0h-132v474h132v-474zM318 340c-47 1 -84 -15 -113 -48v126c25 38 63 58 113 61v-139zM38 -221l29 166h119l-51 -166h-97z" />
    <glyph glyph-name="Rcaron" unicode="&#x158;" horiz-adv-x="606" 
d="M142 890h111l50 -78l50 78h111l-103 -150h-116zM398 465v22c0 48 -15 70 -70 71v118h58c41 0 76 -15 103 -44s41 -64 41 -106v-107c0 -42 -14 -78 -41 -107s-62 -44 -103 -44h-159v119h96c59 0 75 26 75 78zM198 558v-558h-132v676h233v-118h-101zM318 245h143l126 -245
h-144z" />
    <glyph glyph-name="rcaron" unicode="&#x159;" horiz-adv-x="326" 
d="M176 0h-132v474h132v-474zM318 340c-47 1 -84 -15 -113 -48v126c25 38 63 58 113 61v-139zM2 688h111l50 -78l50 78h111l-103 -150h-116z" />
    <glyph glyph-name="Sacute" unicode="&#x15a;" horiz-adv-x="554" 
d="M509 229v-67c0 -115 -84 -172 -228 -173v123c75 5 96 28 96 73v15c0 40 -11 64 -66 71l-113 14c-87 11 -144 77 -144 174v28h132v-9c0 -40 12 -64 65 -71l114 -14c87 -11 144 -73 144 -164zM293 561c-63 0 -98 -16 -105 -47h-134v3c0 113 86 170 230 170
c33 0 97 -4 192 -11v-128c-79 9 -140 13 -183 13zM57 123c75 -8 140 -12 195 -12v-122l-195 10v124zM282 740h-117l78 150h147z" />
    <glyph glyph-name="sacute" unicode="&#x15b;" horiz-adv-x="456" 
d="M415 162v-37c0 -91 -58 -136 -175 -136h-30v111c50 0 68 1 73 39v9c0 19 -12 30 -35 33l-91 11c-64 8 -111 57 -111 124v10h132c1 -16 13 -26 36 -29l90 -11c64 -8 111 -57 111 -124zM246 375c-38 0 -60 -7 -66 -22h-134v1c0 96 63 131 184 131c53 0 113 -4 138 -7l19 -3
v-111c-64 7 -111 11 -141 11zM48 114c47 -7 91 -12 133 -14v-110l-133 10v114zM233 538h-117l78 150h147z" />
    <glyph glyph-name="Scircumflex" unicode="&#x15c;" horiz-adv-x="554" 
d="M509 229v-67c0 -115 -84 -172 -228 -173v123c75 5 96 28 96 73v15c0 40 -11 64 -66 71l-113 14c-87 11 -144 77 -144 174v28h132v-9c0 -40 12 -64 65 -71l114 -14c87 -11 144 -73 144 -164zM293 561c-63 0 -98 -16 -105 -47h-134v3c0 113 86 170 230 170
c33 0 97 -4 192 -11v-128c-79 9 -140 13 -183 13zM57 123c75 -8 140 -12 195 -12v-122l-195 10v124zM217 740h-99l103 150h112l103 -150h-99l-60 78z" />
    <glyph glyph-name="scircumflex" unicode="&#x15d;" horiz-adv-x="456" 
d="M415 162v-37c0 -91 -58 -136 -175 -136h-30v111c50 0 68 1 73 39v9c0 19 -12 30 -35 33l-91 11c-64 8 -111 57 -111 124v10h132c1 -16 13 -26 36 -29l90 -11c64 -8 111 -57 111 -124zM246 375c-38 0 -60 -7 -66 -22h-134v1c0 96 63 131 184 131c53 0 113 -4 138 -7l19 -3
v-111c-64 7 -111 11 -141 11zM48 114c47 -7 91 -12 133 -14v-110l-133 10v114zM168 538h-99l103 150h112l103 -150h-99l-60 78z" />
    <glyph glyph-name="Scedilla" unicode="&#x15e;" horiz-adv-x="554" 
d="M509 229v-67c0 -115 -84 -172 -228 -173v123c75 5 96 28 96 73v15c0 40 -11 64 -66 71l-113 14c-87 11 -144 77 -144 174v28h132v-9c0 -40 12 -64 65 -71l114 -14c87 -11 144 -73 144 -164zM293 561c-63 0 -98 -16 -105 -47h-134v3c0 113 86 170 230 170
c33 0 97 -4 192 -11v-128c-79 9 -140 13 -183 13zM57 123c75 -8 140 -12 195 -12v-122l-195 10v124zM171 -145v22c0 45 21 70 65 94h101c-31 -23 -47 -52 -47 -85v-8c0 -15 14 -26 31 -26l62 9v-80c-31 -7 -59 -11 -84 -11c-85 0 -128 28 -128 85z" />
    <glyph glyph-name="scedilla" unicode="&#x15f;" horiz-adv-x="456" 
d="M415 162v-37c0 -91 -58 -136 -175 -136h-30v111c50 0 68 1 73 39v9c0 19 -12 30 -35 33l-91 11c-64 8 -111 57 -111 124v10h132c1 -16 13 -26 36 -29l90 -11c64 -8 111 -57 111 -124zM246 375c-38 0 -60 -7 -66 -22h-134v1c0 96 63 131 184 131c53 0 113 -4 138 -7l19 -3
v-111c-64 7 -111 11 -141 11zM48 114c47 -7 91 -12 133 -14v-110l-133 10v114zM126 -219v73c29 -7 53 -10 70 -10c21 0 31 7 31 22v10c0 15 -9 21 -27 19l-40 34l31 41h76l-16 -21c48 3 79 -23 79 -66v-29c0 -57 -54 -84 -111 -84c-20 0 -57 5 -78 8z" />
    <glyph glyph-name="Scaron" unicode="&#x160;" horiz-adv-x="554" 
d="M509 229v-67c0 -115 -84 -172 -228 -173v123c75 5 96 28 96 73v15c0 40 -11 64 -66 71l-113 14c-87 11 -144 77 -144 174v28h132v-9c0 -40 12 -64 65 -71l114 -14c87 -11 144 -73 144 -164zM293 561c-63 0 -98 -16 -105 -47h-134v3c0 113 86 170 230 170
c33 0 97 -4 192 -11v-128c-79 9 -140 13 -183 13zM57 123c75 -8 140 -12 195 -12v-122l-195 10v124zM116 890h111l50 -78l50 78h111l-103 -150h-116z" />
    <glyph glyph-name="scaron" unicode="&#x161;" horiz-adv-x="456" 
d="M415 162v-37c0 -91 -58 -136 -175 -136h-30v111c50 0 68 1 73 39v9c0 19 -12 30 -35 33l-91 11c-64 8 -111 57 -111 124v10h132c1 -16 13 -26 36 -29l90 -11c64 -8 111 -57 111 -124zM246 375c-38 0 -60 -7 -66 -22h-134v1c0 96 63 131 184 131c53 0 113 -4 138 -7l19 -3
v-111c-64 7 -111 11 -141 11zM48 114c47 -7 91 -12 133 -14v-110l-133 10v114zM67 688h111l50 -78l50 78h111l-103 -150h-116z" />
    <glyph glyph-name="Tcommaaccent" unicode="&#x162;" horiz-adv-x="492" 
d="M6 557v119h306v-676h-132v557h-174zM486 557h-145v119h145v-119zM172 -221l29 166h119l-51 -166h-97z" />
    <glyph glyph-name="tcommaaccent" unicode="&#x163;" horiz-adv-x="347" 
d="M330 109v-111c-20 -5 -51 -8 -93 -8c-89 0 -151 50 -151 149v239h-70v96h70v90l55 46h77v-416v-8c0 -41 -1 -55 14 -71c8 -7 20 -11 36 -11c20 0 41 2 62 5zM333 378h-86v96h86v-96zM99 -221l29 166h119l-51 -166h-97z" />
    <glyph glyph-name="Tcaron" unicode="&#x164;" horiz-adv-x="492" 
d="M6 557v119h306v-676h-132v557h-174zM486 557h-145v119h145v-119zM85 890h111l50 -78l50 78h111l-103 -150h-116z" />
    <glyph glyph-name="tcaron" unicode="&#x165;" horiz-adv-x="347" 
d="M330 109v-111c-20 -5 -51 -8 -93 -8c-89 0 -151 50 -151 149v239h-70v96h70v90l55 46h77v-416v-8c0 -41 -1 -55 14 -71c8 -7 20 -11 36 -11c20 0 41 2 62 5zM333 378h-86v96h86v-96zM271 527l24 161h125l-55 -161h-94z" />
    <glyph glyph-name="Tbar" unicode="&#x166;" horiz-adv-x="492" 
d="M46 291v93h134v173h-174v119h306v-676h-132v291h-134zM486 557h-145v119h145v-119zM341 291v93h111v-93h-111z" />
    <glyph glyph-name="tbar" unicode="&#x167;" horiz-adv-x="347" 
d="M19 227v82h67v69h-70v96h70v90l55 46h77v-416v-8c0 -41 -1 -55 14 -71c8 -7 20 -11 36 -11c20 0 41 2 62 5v-111c-20 -5 -51 -8 -93 -8c-89 0 -151 50 -151 149v88h-67zM333 378h-86v96h86v-96zM247 227v82h77v-82h-77z" />
    <glyph glyph-name="Utilde" unicode="&#x168;" horiz-adv-x="638" 
d="M66 201v43h132v-15c0 -47 11 -80 34 -97s52 -25 87 -25s64 8 87 25s34 50 34 97v173h132v-201c0 -70 -24 -123 -73 -159c-48 -35 -108 -53 -180 -53s-132 18 -181 53c-48 36 -72 89 -72 159zM198 676v-402h-132v402h132zM572 676v-244h-132v244h132zM321 766l-37 21
c-7 2 -15 3 -24 3c-27 0 -41 -13 -42 -40h-96c4 83 52 134 120 134c27 0 53 -7 76 -20l37 -21c9 -2 17 -3 24 -3c27 0 41 13 42 40h96c-4 -83 -52 -134 -120 -134c-29 0 -54 7 -76 20z" />
    <glyph glyph-name="utilde" unicode="&#x169;" horiz-adv-x="514" 
d="M51 474h132v-288c0 -45 22 -65 67 -58l52 8v-89l-65 -54c-8 -3 -17 -4 -28 -4c-104 0 -158 60 -158 152v333zM331 0v474h132v-474h-132zM259 564l-37 21c-7 2 -15 3 -24 3c-27 0 -41 -13 -42 -40h-96c4 83 52 134 120 134c27 0 53 -7 76 -20l37 -21c9 -2 17 -3 24 -3
c27 0 41 13 42 40h96c-4 -83 -52 -134 -120 -134c-29 0 -54 7 -76 20z" />
    <glyph glyph-name="Umacron" unicode="&#x16a;" horiz-adv-x="638" 
d="M66 201v43h132v-15c0 -47 11 -80 34 -97s52 -25 87 -25s64 8 87 25s34 50 34 97v173h132v-201c0 -70 -24 -123 -73 -159c-48 -35 -108 -53 -180 -53s-132 18 -181 53c-48 36 -72 89 -72 159zM198 676v-402h-132v402h132zM572 676v-244h-132v244h132zM186 758v114h266
v-114h-266z" />
    <glyph glyph-name="umacron" unicode="&#x16b;" horiz-adv-x="514" 
d="M51 474h132v-288c0 -45 22 -65 67 -58l52 8v-89l-65 -54c-8 -3 -17 -4 -28 -4c-104 0 -158 60 -158 152v333zM331 0v474h132v-474h-132zM124 556v114h266v-114h-266z" />
    <glyph glyph-name="Ubreve" unicode="&#x16c;" horiz-adv-x="638" 
d="M66 201v43h132v-15c0 -47 11 -80 34 -97s52 -25 87 -25s64 8 87 25s34 50 34 97v173h132v-201c0 -70 -24 -123 -73 -159c-48 -35 -108 -53 -180 -53s-132 18 -181 53c-48 36 -72 89 -72 159zM198 676v-402h-132v402h132zM572 676v-244h-132v244h132zM346 725h-54
c-38 0 -70 14 -95 42s-35 68 -30 121h94c0 -53 24 -75 56 -75h4c31 0 56 24 56 75h94c5 -53 -5 -93 -30 -121s-57 -42 -95 -42z" />
    <glyph glyph-name="ubreve" unicode="&#x16d;" horiz-adv-x="514" 
d="M51 474h132v-288c0 -45 22 -65 67 -58l52 8v-89l-65 -54c-8 -3 -17 -4 -28 -4c-104 0 -158 60 -158 152v333zM331 0v474h132v-474h-132zM284 523h-54c-38 0 -70 14 -95 42s-35 68 -30 121h94c0 -53 24 -75 56 -75h4c31 0 56 24 56 75h94c5 -53 -5 -93 -30 -121
s-57 -42 -95 -42z" />
    <glyph glyph-name="Uring" unicode="&#x16e;" horiz-adv-x="638" 
d="M66 201v43h132v-15c0 -47 11 -80 34 -97s52 -25 87 -25s64 8 87 25s34 50 34 97v173h132v-201c0 -70 -24 -123 -73 -159c-48 -35 -108 -53 -180 -53s-132 18 -181 53c-48 36 -72 89 -72 159zM198 676v-402h-132v402h132zM572 676v-244h-132v244h132zM191 833
c0 71 47 121 112 121h2v-83c-13 -1 -29 -13 -29 -38s17 -38 29 -38v-83h-2c-65 0 -112 49 -112 121zM334 871v83h2c64 0 111 -52 111 -121c0 -72 -47 -121 -111 -121h-2v83c12 1 28 14 28 38s-16 37 -28 38z" />
    <glyph glyph-name="uring" unicode="&#x16f;" horiz-adv-x="514" 
d="M51 474h132v-288c0 -45 22 -65 67 -58l52 8v-89l-65 -54c-8 -3 -17 -4 -28 -4c-104 0 -158 60 -158 152v333zM331 0v474h132v-474h-132zM129 631c0 71 47 121 112 121h2v-83c-13 -1 -29 -13 -29 -38s17 -38 29 -38v-83h-2c-65 0 -112 49 -112 121zM272 669v83h2
c64 0 111 -52 111 -121c0 -72 -47 -121 -111 -121h-2v83c12 1 28 14 28 38s-16 37 -28 38z" />
    <glyph glyph-name="Uhungarumlaut" unicode="&#x170;" horiz-adv-x="638" 
d="M66 201v43h132v-15c0 -47 11 -80 34 -97s52 -25 87 -25s64 8 87 25s34 50 34 97v173h132v-201c0 -70 -24 -123 -73 -159c-48 -35 -108 -53 -180 -53s-132 18 -181 53c-48 36 -72 89 -72 159zM198 676v-402h-132v402h132zM572 676v-244h-132v244h132zM129 747l91 179h129
l-111 -179h-109zM289 747l91 179h129l-111 -179h-109z" />
    <glyph glyph-name="uhungarumlaut" unicode="&#x171;" horiz-adv-x="514" 
d="M51 474h132v-288c0 -45 22 -65 67 -58l52 8v-89l-65 -54c-8 -3 -17 -4 -28 -4c-104 0 -158 60 -158 152v333zM331 0v474h132v-474h-132zM67 523l91 179h129l-111 -179h-109zM227 523l91 179h129l-111 -179h-109z" />
    <glyph glyph-name="Uogonek" unicode="&#x172;" horiz-adv-x="638" 
d="M66 201v43h132v-15c0 -47 11 -80 34 -97s52 -25 87 -25s64 8 87 25s34 50 34 97v173h132v-201c0 -70 -24 -123 -73 -159c-48 -35 -108 -53 -180 -53s-132 18 -181 53c-48 36 -72 89 -72 159zM198 676v-402h-132v402h132zM572 676v-244h-132v244h132zM210 -145v22
c0 45 21 70 65 94h101c-31 -23 -47 -52 -47 -85v-8c0 -15 14 -26 31 -26l62 9v-80c-31 -7 -59 -11 -84 -11c-85 0 -128 28 -128 85z" />
    <glyph glyph-name="uogonek" unicode="&#x173;" horiz-adv-x="514" 
d="M51 474h132v-288c0 -45 22 -65 67 -58l52 8v-89l-65 -54c-8 -3 -17 -4 -28 -4c-104 0 -158 60 -158 152v333zM331 0v474h132v-474h-132zM258 -145v22c0 45 21 70 65 94h101c-31 -23 -47 -52 -47 -85v-8c0 -15 14 -26 31 -26l62 9v-80c-31 -7 -59 -11 -84 -11
c-85 0 -128 28 -128 85z" />
    <glyph glyph-name="Wcircumflex" unicode="&#x174;" horiz-adv-x="1000" 
d="M11 676h146l150 -676h-117zM661 0l-207 676h122l206 -676h-121zM810 0l-68 218l101 458h146zM485 479l-148 -479l-51 227l138 449zM440 740h-99l103 150h112l103 -150h-99l-60 78z" />
    <glyph glyph-name="wcircumflex" unicode="&#x175;" horiz-adv-x="740" 
d="M138 474l114 -474h-129l-122 474h137zM460 0l-135 474h123l135 -474h-123zM617 0h-1l-69 239l55 235h137zM285 0h-1l-58 240l66 234h1l63 -222zM310 538h-99l103 150h112l103 -150h-99l-60 78z" />
    <glyph glyph-name="Ycircumflex" unicode="&#x176;" horiz-adv-x="586" 
d="M359 0h-132v259l-219 417h149l202 -416v-260zM578 676l-203 -385l-66 135l120 250h149zM233 740h-99l103 150h112l103 -150h-99l-60 78z" />
    <glyph glyph-name="ycircumflex" unicode="&#x177;" horiz-adv-x="472" 
d="M247 -212h-128l224 686h128zM1 474h134l85 -284l-62 -190h-2zM176 538h-99l103 150h112l103 -150h-99l-60 78z" />
    <glyph glyph-name="Ydieresis" unicode="&#x178;" horiz-adv-x="586" 
d="M359 0h-132v259l-219 417h149l202 -416v-260zM578 676l-203 -385l-66 135l120 250h149zM262 749h-131v134h131v-134zM455 749h-131v134h131v-134z" />
    <glyph glyph-name="Zacute" unicode="&#x179;" horiz-adv-x="521" 
d="M487 558l-400 -558h-52v120l397 556h55v-118zM488 0h-368l85 119h283v-119zM56 558v118h343l-84 -118h-259zM270 740h-117l78 150h147z" />
    <glyph glyph-name="zacute" unicode="&#x17a;" horiz-adv-x="425" 
d="M387 376l-312 -376h-54v97l312 377h54v-98zM404 0h-294l88 106h206v-106zM36 368v106h262l-88 -106h-174zM217 538h-117l78 150h147z" />
    <glyph glyph-name="Zdotaccent" unicode="&#x17b;" horiz-adv-x="521" 
d="M487 558l-400 -558h-52v120l397 556h55v-118zM488 0h-368l85 119h283v-119zM56 558v118h343l-84 -118h-259zM330 754h-130v128h130v-128z" />
    <glyph glyph-name="zdotaccent" unicode="&#x17c;" horiz-adv-x="425" 
d="M387 376l-312 -376h-54v97l312 377h54v-98zM404 0h-294l88 106h206v-106zM36 368v106h262l-88 -106h-174zM277 552h-130v128h130v-128z" />
    <glyph glyph-name="Zcaron" unicode="&#x17d;" horiz-adv-x="521" 
d="M487 558l-400 -558h-52v120l397 556h55v-118zM488 0h-368l85 119h283v-119zM56 558v118h343l-84 -118h-259zM104 890h111l50 -78l50 78h111l-103 -150h-116z" />
    <glyph glyph-name="zcaron" unicode="&#x17e;" horiz-adv-x="425" 
d="M387 376l-312 -376h-54v97l312 377h54v-98zM404 0h-294l88 106h206v-106zM36 368v106h262l-88 -106h-174zM51 688h111l50 -78l50 78h111l-103 -150h-116z" />
    <glyph glyph-name="florin" unicode="&#x192;" horiz-adv-x="523" 
d="M-46 -228l13 117c0 -3 18 -4 54 -4c61 0 83 28 90 87l39 365h-104l10 102h104l12 116c9 87 69 131 180 131l152 -10l-7 -119c-57 7 -98 10 -121 10c-53 0 -75 -13 -82 -72l-61 -575c-11 -101 -75 -152 -191 -152c-23 0 -52 1 -88 4zM422 337h-115l10 102h115z" />
    <glyph glyph-name="Scommaaccent" unicode="&#x218;" horiz-adv-x="554" 
d="M509 229v-67c0 -115 -84 -172 -228 -173v123c75 5 96 28 96 73v15c0 40 -11 64 -66 71l-113 14c-87 11 -144 77 -144 174v28h132v-9c0 -40 12 -64 65 -71l114 -14c87 -11 144 -73 144 -164zM293 561c-63 0 -98 -16 -105 -47h-134v3c0 113 86 170 230 170
c33 0 97 -4 192 -11v-128c-79 9 -140 13 -183 13zM57 123c75 -8 140 -12 195 -12v-122l-195 10v124zM203 -221l29 166h119l-51 -166h-97z" />
    <glyph glyph-name="scommaaccent" unicode="&#x219;" horiz-adv-x="456" 
d="M415 162v-37c0 -91 -58 -136 -175 -136h-30v111c50 0 68 1 73 39v9c0 19 -12 30 -35 33l-91 11c-64 8 -111 57 -111 124v10h132c1 -16 13 -26 36 -29l90 -11c64 -8 111 -57 111 -124zM246 375c-38 0 -60 -7 -66 -22h-134v1c0 96 63 131 184 131c53 0 113 -4 138 -7l19 -3
v-111c-64 7 -111 11 -141 11zM48 114c47 -7 91 -12 133 -14v-110l-133 10v114zM154 -221l29 166h119l-51 -166h-97z" />
    <glyph glyph-name="dotlessj" unicode="&#x237;" horiz-adv-x="258" 
d="M-31 -223v114c5 -1 8 -1 11 -1c56 0 83 36 83 89v495h132v-519c0 -51 -16 -94 -48 -128c-31 -35 -78 -52 -141 -52c-16 0 -28 1 -37 2z" />
    <glyph glyph-name="circumflex" unicode="&#x2c6;" 
d="M95 538h-99l103 150h112l103 -150h-99l-60 78z" />
    <glyph glyph-name="caron" unicode="&#x2c7;" 
d="M-6 688h111l50 -78l50 78h111l-103 -150h-116z" />
    <glyph glyph-name="breve" unicode="&#x2d8;" 
d="M182 523h-54c-38 0 -70 14 -95 42s-35 68 -30 121h94c0 -53 24 -75 56 -75h4c31 0 56 24 56 75h94c5 -53 -5 -93 -30 -121s-57 -42 -95 -42z" />
    <glyph glyph-name="dotaccent" unicode="&#x2d9;" 
d="M220 552h-130v128h130v-128z" />
    <glyph glyph-name="ring" unicode="&#x2da;" 
d="M27 631c0 71 47 121 112 121h2v-83c-13 -1 -29 -13 -29 -38s17 -38 29 -38v-83h-2c-65 0 -112 49 -112 121zM170 669v83h2c64 0 111 -52 111 -121c0 -72 -47 -121 -111 -121h-2v83c12 1 28 14 28 38s-16 37 -28 38z" />
    <glyph glyph-name="ogonek" unicode="&#x2db;" 
d="M29 -145v22c0 45 21 70 65 94h101c-31 -23 -47 -52 -47 -85v-8c0 -15 14 -26 31 -26l62 9v-80c-31 -7 -59 -11 -84 -11c-85 0 -128 28 -128 85z" />
    <glyph glyph-name="tilde" unicode="&#x2dc;" 
d="M157 564l-37 21c-7 2 -15 3 -24 3c-27 0 -41 -13 -42 -40h-96c4 83 52 134 120 134c27 0 53 -7 76 -20l37 -21c9 -2 17 -3 24 -3c27 0 41 13 42 40h96c-4 -83 -52 -134 -120 -134c-29 0 -54 7 -76 20z" />
    <glyph glyph-name="hungarumlaut" unicode="&#x2dd;" 
d="M-40 523l91 179h129l-111 -179h-109zM120 523l91 179h129l-111 -179h-109z" />
    <glyph glyph-name="uni0323" unicode="&#x323;" 
d="M216 -204h-132v135h132v-135z" />
    <glyph glyph-name="enspace" unicode="&#x2002;" horiz-adv-x="500" 
 />
    <glyph glyph-name="emspace" unicode="&#x2003;" horiz-adv-x="1000" 
 />
    <glyph glyph-name="threeperemspace" unicode="&#x2004;" horiz-adv-x="333" 
 />
    <glyph glyph-name="fourperemspace" unicode="&#x2005;" horiz-adv-x="250" 
 />
    <glyph glyph-name="sixperemspace" unicode="&#x2006;" horiz-adv-x="167" 
 />
    <glyph glyph-name="figurespace" unicode="&#x2007;" horiz-adv-x="640" 
 />
    <glyph glyph-name="punctuationspace" unicode="&#x2008;" horiz-adv-x="230" 
 />
    <glyph glyph-name="thinspace" unicode="&#x2009;" horiz-adv-x="50" 
 />
    <glyph glyph-name="hairspace" unicode="&#x200a;" horiz-adv-x="20" 
 />
    <glyph glyph-name="zerowidthspace" unicode="&#x200b;" horiz-adv-x="0" 
 />
    <glyph glyph-name="figuredash" unicode="&#x2012;" horiz-adv-x="650" 
d="M615 215h-580v119h580v-119z" />
    <glyph glyph-name="endash" unicode="&#x2013;" horiz-adv-x="500" 
d="M465 215h-430v119h430v-119z" />
    <glyph glyph-name="emdash" unicode="&#x2014;" horiz-adv-x="1000" 
d="M965 215h-930v119h930v-119z" />
    <glyph glyph-name="doublebar" unicode="&#x2016;" horiz-adv-x="432" 
d="M175 -251h-116v1001h116v-1001zM373 -251h-116v1001h116v-1001z" />
    <glyph glyph-name="quoteleft" unicode="&#x2018;" horiz-adv-x="252" 
d="M51 399v150c0 53 16 96 47 127h91v-21c-27 -21 -41 -53 -41 -97h53v-159h-150z" />
    <glyph glyph-name="quoteright" unicode="&#x2019;" horiz-adv-x="252" 
d="M201 676v-150c0 -53 -16 -96 -47 -127h-91v21c27 21 41 53 41 97h-53v159h150z" />
    <glyph glyph-name="quotesinglbase" unicode="&#x201a;" horiz-adv-x="252" 
d="M201 159v-150c0 -53 -16 -96 -47 -127h-91v21c27 21 41 53 41 97h-53v159h150z" />
    <glyph glyph-name="reversequoteleft" unicode="&#x201b;" horiz-adv-x="252" 
d="M51 526v150h150v-159h-53c0 -44 14 -76 41 -97v-21h-91c-31 31 -47 74 -47 127z" />
    <glyph glyph-name="quotedblleft" unicode="&#x201c;" horiz-adv-x="460" 
d="M44 399v150c0 53 16 96 47 127h91v-21c-27 -21 -41 -53 -41 -97h53v-159h-150zM266 399v150c0 53 16 96 47 127h91v-21c-27 -21 -41 -53 -41 -97h53v-159h-150z" />
    <glyph glyph-name="quotedblright" unicode="&#x201d;" horiz-adv-x="460" 
d="M416 676v-150c0 -53 -16 -96 -47 -127h-91v21c27 21 41 53 41 97h-53v159h150zM194 676v-150c0 -53 -16 -96 -47 -127h-91v21c27 21 41 53 41 97h-53v159h150z" />
    <glyph glyph-name="quotedblbase" unicode="&#x201e;" horiz-adv-x="460" 
d="M416 159v-150c0 -53 -16 -96 -47 -127h-91v21c27 21 41 53 41 97h-53v159h150zM194 159v-150c0 -53 -16 -96 -47 -127h-91v21c27 21 41 53 41 97h-53v159h150z" />
    <glyph glyph-name="reversequotedblleft" unicode="&#x201f;" horiz-adv-x="460" 
d="M44 526v150h150v-159h-53c0 -44 14 -76 41 -97v-21h-91c-31 31 -47 74 -47 127zM266 526v150h150v-159h-53c0 -44 14 -76 41 -97v-21h-91c-31 31 -47 74 -47 127z" />
    <glyph glyph-name="dagger" unicode="&#x2020;" horiz-adv-x="506" 
d="M312 -81h-118v321l11 132l-173 -10v112l173 -10l-15 92l-7 120h140l-7 -120l-15 -92l173 10v-112l-173 10l11 -132v-321z" />
    <glyph glyph-name="daggerdbl" unicode="&#x2021;" horiz-adv-x="506" 
d="M194 319l11 54l-173 -10v111l173 -10l-13 92l-7 120h136l-7 -120l-13 -92l173 10v-111l-173 10l11 -54v-33l-11 -61l173 10v-111l-173 10l13 -93l7 -122h-136l7 122l13 93l-173 -10v111l173 -10l-11 61v33z" />
    <glyph glyph-name="bullet" unicode="&#x2022;" horiz-adv-x="391" 
d="M196 412c88 0 144 -43 144 -118v-58c0 -75 -56 -118 -144 -118c-91 0 -145 43 -145 118v58c0 75 54 118 145 118z" />
    <glyph glyph-name="ellipsis" unicode="&#x2026;" horiz-adv-x="717" 
d="M185 0h-144v154h144v-154zM427 0h-144v154h144v-154zM676 0h-144v154h144v-154z" />
    <glyph glyph-name="perthousand" unicode="&#x2030;" horiz-adv-x="1222" 
d="M1177 109c0 -76 -61 -112 -146 -116v98c19 5 29 18 29 41v109c0 23 -10 36 -29 41v95c85 -4 146 -40 146 -116v-152zM856 109v152c0 76 61 112 145 115v-95c-19 -3 -28 -17 -28 -40v-109c0 -23 9 -36 28 -41v-98c-97 5 -145 44 -145 116zM644 676l-313 -676h-115l313 676
h115zM366 413c0 -76 -61 -113 -146 -116v98c19 5 29 18 29 41v109c0 23 -10 36 -29 41v95c85 -4 146 -40 146 -116v-152zM814 109c0 -76 -61 -112 -146 -116v98c19 5 29 18 29 41v109c0 23 -10 36 -29 41v95c85 -4 146 -40 146 -116v-152zM45 413v152c0 76 61 112 145 115
v-95c-19 -3 -28 -17 -28 -40v-109c0 -23 9 -36 28 -41v-98c-85 3 -145 39 -145 116zM493 109v152c0 76 61 112 145 115v-95c-19 -3 -28 -17 -28 -40v-109c0 -23 9 -36 28 -41v-98c-97 5 -145 44 -145 116z" />
    <glyph glyph-name="tripleprime" unicode="&#x2034;" horiz-adv-x="598" 
d="M171 676l-28 -277h-86l-28 277h142zM372 676l-28 -277h-86l-28 277h142zM573 676l-28 -277h-86l-28 277h142z" />
    <glyph glyph-name="guilsinglleft" unicode="&#x2039;" horiz-adv-x="346" 
d="M296 408l-211 -214l-57 58v36l194 196zM222 56l-113 114l76 74l111 -112z" />
    <glyph glyph-name="guilsinglright" unicode="&#x203a;" horiz-adv-x="346" 
d="M50 132l211 214l57 -58v-36l-194 -196zM124 484l113 -114l-76 -74l-111 112z" />
    <glyph glyph-name="fraction" unicode="&#x2044;" horiz-adv-x="146" 
d="M282 676l-313 -676h-105l313 676h105z" />
    <glyph glyph-name="Euro" unicode="&#x20ac;" horiz-adv-x="572" 
d="M10 374v89h89v13c0 141 86 211 258 211c29 0 88 -4 178 -11v-121c-70 8 -127 12 -172 12c-95 0 -123 -28 -130 -104h246l-15 -89h-454zM10 212v89h445l-16 -89h-207c3 -39 13 -66 30 -81c18 -15 52 -23 101 -23c20 0 44 1 73 3s53 4 72 6l29 3v-120
c-90 -7 -150 -11 -180 -11c-172 0 -258 70 -258 211v12h-89z" />
    <glyph glyph-name="trademark" unicode="&#x2122;" horiz-adv-x="814" 
d="M10 594v82h214v-380h-96v298h-118zM471 296h-95v380h95v-380zM648 296v380h95v-380h-95zM490 471v172l105 -255h-71zM342 594h-98v82h98v-82zM629 470l-25 -62l-35 90l60 145v-173z" />
    <glyph glyph-name="ohm" unicode="&#x2126;" horiz-adv-x="648" 
d="M643 0h-288v113c64 9 90 47 90 131v190c0 99 -38 132 -121 132s-121 -33 -121 -132v-190c0 -85 29 -123 90 -131v-113h-288v116h110c-29 17 -44 55 -44 114v246c0 73 24 127 72 160c48 34 108 51 181 51s133 -17 181 -51c48 -33 72 -87 72 -160v-246
c0 -58 -15 -96 -45 -114h111v-116z" />
    <glyph glyph-name="partialdiff" unicode="&#x2202;" horiz-adv-x="558" 
d="M287 429c35 0 67 -3 97 -9l6 56c1 13 2 23 2 29c0 44 -20 64 -85 64c-16 0 -40 -1 -72 -4c-31 -2 -59 -4 -83 -7l-35 -4l12 120c121 9 186 13 194 13c128 0 201 -43 201 -166c0 -8 -1 -21 -2 -38l-35 -332c-5 -41 -20 -74 -46 -99s-55 -42 -86 -51
c-31 -8 -66 -12 -104 -12c-72 0 -128 12 -171 56c-21 22 -32 51 -32 86c0 7 0 13 1 20l11 100c12 116 79 178 227 178zM268 310c-32 0 -52 -6 -61 -18c-8 -11 -14 -35 -18 -71l-3 -28c-1 -12 -2 -21 -2 -28c0 -45 20 -64 79 -64c69 0 90 23 97 91l10 97
c-26 14 -60 21 -102 21z" />
    <glyph glyph-name="increment" unicode="&#x2206;" horiz-adv-x="666" 
d="M658 0h-650l239 676h172zM328 555l-144 -430h297l-143 430h-10z" />
    <glyph glyph-name="product" unicode="&#x220f;" horiz-adv-x="698" 
d="M447 557h-196v-557h-132v557h-113v119h686v-119h-113v-557h-132v557z" />
    <glyph glyph-name="summation" unicode="&#x2211;" horiz-adv-x="448" 
d="M434 0h-413v103l195 235l-195 235v103h413v-118h-240l179 -220l-179 -220h240v-118z" />
    <glyph glyph-name="minus" unicode="&#x2212;" horiz-adv-x="510" 
d="M468 216h-426v117h426v-117z" />
    <glyph glyph-name="radical" unicode="&#x221a;" horiz-adv-x="535" 
d="M649 696h-158l-211 -696h-142l-146 396h133l81 -226l181 646h262v-120z" />
    <glyph glyph-name="infinity" unicode="&#x221e;" horiz-adv-x="772" 
d="M305 252l18 27l-18 28c-18 27 -42 41 -71 41h-26c-37 0 -55 -23 -55 -68c0 -46 18 -69 55 -69h26c29 0 53 14 71 41zM386 195l-6 -12c-16 -24 -22 -32 -46 -56c-23 -23 -53 -35 -88 -35h-73c-47 0 -82 17 -106 51c-24 35 -36 74 -36 118v37c0 44 12 83 36 117
c24 35 59 52 106 52h73c35 0 65 -12 88 -36c24 -23 30 -31 46 -55l6 -13l6 13c35 61 80 91 134 91h73c47 0 82 -17 106 -52c24 -34 36 -73 36 -117v-37c0 -44 -12 -83 -36 -118c-24 -34 -59 -51 -106 -51h-73c-35 0 -65 12 -89 35c-23 23 -30 33 -45 56zM449 279l18 -27
c18 -27 42 -41 71 -41h26c37 0 55 23 55 69c0 45 -18 68 -55 68h-26c-29 0 -53 -14 -71 -41z" />
    <glyph glyph-name="integral" unicode="&#x222b;" horiz-adv-x="337" 
d="M331 684v-118c-6 1 -14 1 -25 1c-55 0 -72 -22 -72 -65v-564c0 -109 -40 -164 -159 -164c-25 0 -48 2 -69 5v118c6 -1 14 -1 24 -1c55 0 73 22 73 65v564c0 109 40 164 159 164c17 0 40 -2 69 -5z" />
    <glyph glyph-name="approxequal" unicode="&#x2248;" horiz-adv-x="510" 
d="M383 368h120c0 -131 -52 -197 -157 -197c-38 0 -70 11 -97 33l-35 29c-15 11 -29 17 -43 17c-25 0 -40 -26 -43 -77h-120c0 131 52 197 157 197c36 0 68 -11 97 -34l34 -27c15 -12 30 -18 44 -18c25 0 40 26 43 77z" />
    <glyph glyph-name="notequal" unicode="&#x2260;" horiz-adv-x="510" 
d="M468 315h-426v119h231l46 129l72 -25l-37 -104h114v-119zM468 114h-426v119h159l20 54h81l-20 -54h186v-119zM191 -26l-72 26l30 86h81z" />
    <glyph glyph-name="lessequal" unicode="&#x2264;" horiz-adv-x="510" 
d="M460 0h-410v119h410v-119zM460 358l-410 -63v75l410 126v-138zM460 141l-410 126l255 36l155 -24v-138z" />
    <glyph glyph-name="greaterequal" unicode="&#x2265;" horiz-adv-x="510" 
d="M460 0h-410v119h410v-119zM460 295l-410 63v138l410 -126v-75zM460 267l-410 -126v138l155 24z" />
    <glyph glyph-name="anglebracketleft" unicode="&#x3008;" horiz-adv-x="359" 
d="M261 -214l-250 472v10l250 472h142l-251 -475v-4l251 -475h-142z" />
    <glyph glyph-name="anglebracketright" unicode="&#x3009;" horiz-adv-x="359" 
d="M348 258l-250 -472h-142l251 475v4l-251 475h142l250 -472v-10z" />
    <glyph glyph-name="idotaccent" unicode="&#xe007;" horiz-adv-x="258" 
d="M195 0h-132v474h132v-474zM194 552h-130v128h130v-128z" />
    <glyph glyph-name="a.superior" unicode="&#xe361;" horiz-adv-x="403" 
d="M247 307v253c0 31 -11 39 -52 39l-135 -8v83c81 5 131 8 148 8c99 0 149 -42 149 -126v-249h-110zM27 408v19c0 65 44 100 132 105l58 3v-73l-45 -3c-29 -2 -44 -14 -44 -35v-6c0 -18 11 -27 33 -27c7 0 18 2 34 6l22 6v-71l-36 -31c-9 -3 -19 -4 -31 -4
c-76 0 -123 46 -123 111z" />
    <glyph glyph-name="o.superior" unicode="&#xe36e;" horiz-adv-x="440" 
d="M155 542v-68h-110v77c0 80 62 131 175 131s175 -51 175 -131v-77h-110v68c0 39 -22 58 -65 58s-65 -19 -65 -58zM45 424v19h110v-4c0 -39 22 -58 65 -58s65 19 65 58v4h110v-19c0 -46 -17 -79 -52 -99c-34 -20 -75 -30 -123 -30s-89 10 -124 30c-34 20 -51 53 -51 99z
" />
    <glyph glyph-name="invertedbreve" unicode="&#xe411;" 
d="M128 686h54c38 0 70 -14 95 -42s35 -68 30 -121h-94c0 51 -25 75 -56 75h-4c-32 0 -56 -22 -56 -75h-94c-5 53 5 93 30 121s57 42 95 42z" />
    <glyph glyph-name="caronSlovak" unicode="&#xe413;" 
d="M84 527l24 161h125l-55 -161h-94z" />
    <glyph glyph-name="commaaccent" unicode="&#xe414;" 
d="M81 -221l29 166h119l-51 -166h-97z" />
    <glyph glyph-name="altcedilla" unicode="&#xe416;" 
d="M55 -219v73c29 -7 53 -10 70 -10c21 0 31 7 31 22v10c0 15 -12 22 -37 22c-3 0 -10 -1 -14 -1l-19 38c16 18 40 27 73 27c53 0 100 -30 100 -79v-29c0 -57 -54 -84 -111 -84c-20 0 -57 5 -78 8z" />
    <glyph glyph-name="grave.cap" unicode="&#xe421;" 
d="M265 740h-117l-108 150h147z" />
    <glyph glyph-name="acute.cap" unicode="&#xe422;" 
d="M162 740h-117l78 150h147z" />
    <glyph glyph-name="circumflex.cap" unicode="&#xe423;" 
d="M95 740h-99l103 150h112l103 -150h-99l-60 78z" />
    <glyph glyph-name="tilde.cap" unicode="&#xe424;" 
d="M157 766l-37 21c-7 2 -15 3 -24 3c-27 0 -41 -13 -42 -40h-96c4 83 52 134 120 134c27 0 53 -7 76 -20l37 -21c9 -2 17 -3 24 -3c27 0 41 13 42 40h96c-4 -83 -52 -134 -120 -134c-29 0 -54 7 -76 20z" />
    <glyph glyph-name="macron.cap" unicode="&#xe425;" 
d="M22 758v114h266v-114h-266z" />
    <glyph glyph-name="breve.cap" unicode="&#xe426;" 
d="M182 725h-54c-38 0 -70 14 -95 42s-35 68 -30 121h94c0 -53 24 -75 56 -75h4c31 0 56 24 56 75h94c5 -53 -5 -93 -30 -121s-57 -42 -95 -42z" />
    <glyph glyph-name="invertedbreve.cap" unicode="&#xe427;" 
d="M128 888h54c69 0 126 -48 126 -139c0 -11 0 -19 -1 -24h-94c0 51 -25 75 -56 75h-4c-32 0 -56 -22 -56 -75h-94c-1 5 -1 13 -1 24c0 91 57 139 126 139z" />
    <glyph glyph-name="dotaccent.cap" unicode="&#xe428;" 
d="M220 754h-130v128h130v-128z" />
    <glyph glyph-name="dieresis.cap" unicode="&#xe429;" 
d="M124 749h-131v134h131v-134zM317 749h-131v134h131v-134z" />
    <glyph glyph-name="ring.cap" unicode="&#xe42a;" 
d="M27 833c0 71 47 121 112 121h2v-83c-13 -1 -29 -13 -29 -38s17 -38 29 -38v-83h-2c-65 0 -112 49 -112 121zM170 871v83h2c64 0 111 -52 111 -121c0 -72 -47 -121 -111 -121h-2v83c12 1 28 14 28 38s-16 37 -28 38z" />
    <glyph glyph-name="hungarumlaut.cap" unicode="&#xe42b;" 
d="M-4 723l43 181h119l-43 -181h-119zM152 723l43 181h119l-43 -181h-119z" />
    <glyph glyph-name="caron.cap" unicode="&#xe42d;" 
d="M-6 890h111l50 -78l50 78h111l-103 -150h-116z" />
    <glyph glyph-name="commaaccent.cap" unicode="&#xe42e;" 
d="M83 -230l28 195h134l-48 -195h-114z" />
    <glyph glyph-name="exclamdown.cap" unicode="&#xe441;" horiz-adv-x="286" 
d="M87 465h112l13 -158v-307h-138v307zM73 676h140v-144h-140v144z" />
    <glyph glyph-name="questiondown.cap" unicode="&#xe444;" horiz-adv-x="415" 
d="M19 114v46h132c3 -36 21 -52 76 -52l153 11v-119c-80 -7 -140 -11 -180 -11c-121 0 -181 42 -181 125zM186 411v54h132v-71c0 -35 -15 -63 -44 -83l-66 -44c-31 -21 -48 -34 -52 -40c-4 -7 -6 -18 -6 -33v-4h-131v12c0 49 14 79 35 98c15 12 15 12 32 23c9 6 14 10 16 11
l60 40c16 10 24 22 24 37zM185 676h134v-144h-134v144z" />
    <glyph glyph-name="guilsinglleft.cap" unicode="&#xe451;" horiz-adv-x="346" 
d="M296 438l-211 -214l-57 58v36l194 196zM222 86l-113 114l76 74l111 -112z" />
    <glyph glyph-name="guilsinglright.cap" unicode="&#xe452;" horiz-adv-x="346" 
d="M50 162l211 214l57 -58v-36l-194 -196zM124 514l113 -114l-76 -74l-111 112z" />
    <glyph glyph-name="guillemotleft.cap" unicode="&#xe453;" horiz-adv-x="562" 
d="M291 444l-210 -216l-53 54v36l194 196zM222 86l-113 114l71 70l111 -113zM512 444l-210 -216l-53 54v36l194 196zM443 86l-113 114l71 70l111 -113z" />
    <glyph glyph-name="guillemotright.cap" unicode="&#xe454;" horiz-adv-x="562" 
d="M271 157l210 215l53 -54v-36l-194 -196zM340 514l113 -114l-71 -70l-111 114zM50 157l210 215l53 -54v-36l-194 -196zM119 514l113 -114l-71 -70l-111 114z" />
    <glyph glyph-name="slash.cap" unicode="&#xe461;" horiz-adv-x="301" 
d="M340 696l-263 -720h-116l263 720h116z" />
    <glyph glyph-name="backslash.cap" unicode="&#xe462;" horiz-adv-x="301" 
d="M224 -24l-263 720h116l263 -720h-116z" />
    <glyph glyph-name="bar.cap" unicode="&#xe463;" horiz-adv-x="267" 
d="M194 -251h-121v1001h121v-1001z" />
    <glyph glyph-name="doublebar.cap" unicode="&#xe464;" horiz-adv-x="432" 
d="M175 -251h-116v1001h116v-1001zM373 -251h-116v1001h116v-1001z" />
    <glyph glyph-name="brokenbar.cap" unicode="&#xe465;" horiz-adv-x="278" 
d="M194 750v-435h-121v435h121zM194 -251h-121v435h121v-435z" />
    <glyph glyph-name="bullet.cap" unicode="&#xe466;" horiz-adv-x="391" 
d="M196 480c88 0 144 -43 144 -118v-58c0 -75 -56 -118 -144 -118c-91 0 -145 43 -145 118v58c0 75 54 118 145 118z" />
    <glyph glyph-name="onethirdemdash" unicode="&#xe471;" horiz-adv-x="333" 
d="M298 215h-263v119h263v-119z" />
    <glyph glyph-name="threequarteremdash" unicode="&#xe472;" horiz-adv-x="750" 
d="M715 215h-680v119h680v-119z" />
    <glyph glyph-name="periodcentered.cap" unicode="&#xe481;" horiz-adv-x="244" 
d="M194 277h-144v154h144v-154z" />
    <glyph glyph-name="hyphen.cap" unicode="&#xe482;" horiz-adv-x="352" 
d="M317 255h-282v119h282v-119z" />
    <glyph glyph-name="onethirdemdash.cap" unicode="&#xe483;" horiz-adv-x="333" 
d="M298 255h-263v119h263v-119z" />
    <glyph glyph-name="endash.cap" unicode="&#xe484;" horiz-adv-x="500" 
d="M465 255h-430v119h430v-119z" />
    <glyph glyph-name="threequarteremdash.cap" unicode="&#xe485;" horiz-adv-x="750" 
d="M715 255h-680v119h680v-119z" />
    <glyph glyph-name="emdash.cap" unicode="&#xe486;" horiz-adv-x="1000" 
d="M965 255h-930v119h930v-119z" />
    <glyph glyph-name="figuredash.cap" unicode="&#xe487;" horiz-adv-x="650" 
d="M615 255h-580v119h580v-119z" />
    <glyph glyph-name="parenleft.cap" unicode="&#xe491;" horiz-adv-x="324" 
d="M329 -106l-95 -63c-104 145 -156 306 -156 482s52 337 156 482l95 -63c-77 -131 -116 -271 -116 -419s39 -288 116 -419z" />
    <glyph glyph-name="parenright.cap" unicode="&#xe492;" horiz-adv-x="324" 
d="M-5 732l95 63c104 -145 156 -306 156 -482s-52 -337 -156 -482l-95 63c77 131 116 271 116 419s-39 288 -116 419z" />
    <glyph glyph-name="bracketleft.cap" unicode="&#xe493;" horiz-adv-x="296" 
d="M318 -160h-235v950h228v-117h-96v-716h103v-117z" />
    <glyph glyph-name="bracketright.cap" unicode="&#xe494;" horiz-adv-x="296" 
d="M213 -160h-235v117h103v716h-96v117h228v-950z" />
    <glyph glyph-name="braceleft.cap" unicode="&#xe495;" horiz-adv-x="355" 
d="M152 313l70 -48c23 -15 27 -41 27 -93v-111c0 -36 0 -39 3 -62c2 -11 5 -19 9 -23c9 -8 24 -18 49 -22v-122c-129 0 -193 60 -193 180v142c0 47 -4 65 -24 85l-72 69v10l72 69c20 20 24 38 24 85v142c0 120 64 180 193 180v-122c-38 -11 -51 -14 -58 -45
c-3 -23 -3 -26 -3 -62v-111c0 -52 -4 -78 -27 -93z" />
    <glyph glyph-name="braceright.cap" unicode="&#xe496;" horiz-adv-x="355" 
d="M133 265l70 48l-70 48c-23 15 -27 41 -27 93v111c0 36 0 39 -4 62c-1 11 -4 19 -9 23c-8 8 -23 18 -48 22v122c129 0 193 -60 193 -180v-142c0 -47 4 -65 24 -85l72 -69v-10l-72 -69c-20 -20 -24 -38 -24 -85v-142c0 -120 -64 -180 -193 -180v122c38 10 52 14 57 45
c4 23 4 26 4 62v111c0 52 4 78 27 93z" />
    <glyph glyph-name="anglebracketleft.cap" unicode="&#xe497;" horiz-adv-x="359" 
d="M261 -164l-250 472v10l250 472h142l-251 -475v-4l251 -475h-142z" />
    <glyph glyph-name="anglebracketright.cap" unicode="&#xe498;" horiz-adv-x="359" 
d="M348 308l-250 -472h-142l251 475v4l-251 475h142l250 -472v-10z" />
    <glyph glyph-name="at.cap" unicode="&#xe513;" horiz-adv-x="826" 
d="M568 153c-33 0 -65 4 -98 12v244c0 32 -12 36 -60 36l-124 -13v81c66 10 109 15 128 15c104 0 153 -29 153 -136v-163c67 -3 101 46 101 148c0 62 -22 114 -67 157s-102 66 -173 69v87c215 -5 336 -151 337 -304c0 -155 -66 -233 -197 -233zM61 336c0 105 31 189 93 253
c63 64 144 98 244 101v-87c-144 -7 -239 -104 -239 -271c0 -161 92 -247 239 -255v-90c-102 4 -184 37 -245 100s-92 146 -92 249zM259 273c0 65 40 108 124 112l58 2v-72l-49 -3c-25 -2 -37 -13 -37 -33v-12c0 -13 12 -24 27 -24c5 0 18 3 39 9l20 7v-67l-39 -38
c-9 -3 -18 -5 -29 -5c-71 0 -114 43 -114 106v18zM592 18c-41 -20 -95 -31 -164 -32v90c53 0 115 12 143 20l21 7v-85z" />
    <glyph glyph-name="copyright.cap" horiz-adv-x="826" 
d="M398 687v-85c-144 -7 -238 -97 -238 -264s94 -259 238 -264v-85c-216 5 -336 130 -336 349s120 344 336 349zM428 -11v85c144 5 238 97 238 264s-94 257 -238 264v85c216 -5 336 -130 336 -349s-120 -344 -336 -349zM358 384v-62h-103v84c0 93 46 136 166 136
c15 0 47 -2 95 -6v-90c-36 3 -64 5 -83 5c-55 0 -75 -11 -75 -67zM523 231v-91c-28 -5 -65 -7 -110 -7c-105 0 -158 42 -158 127v32h103c0 -55 17 -68 65 -68z" />
    <glyph glyph-name="registered.cap" horiz-adv-x="627" 
d="M127 429c0 -127 58 -193 175 -197v-62c-153 4 -242 96 -242 259s89 254 242 258v-61c-115 -4 -175 -73 -175 -197zM501 429c0 124 -61 193 -177 197v61c153 -4 243 -97 243 -258s-90 -255 -243 -259v62c116 4 177 72 177 197zM353 486v8c0 13 -6 21 -18 24v51h12
c40 0 67 -26 67 -62v-35c0 -30 -13 -49 -40 -57l57 -115h-64l-55 111h-14v50h25c24 0 30 8 30 25zM286 519v-219h-62v269h96v-50h-34z" />
    </font>
</defs>
</svg>
