<?xml version="1.0" standalone="no"?>
<!DOCTYPE svg PUBLIC "-//W3C//DTD SVG 1.1//EN" "http://www.w3.org/Graphics/SVG/1.1/DTD/svg11.dtd" >
<svg xmlns="http://www.w3.org/2000/svg" xmlns:xlink="http://www.w3.org/1999/xlink" version="1.1">
<metadata>
Created by FontForge 20190801 at Wed Oct 24 08:03:34 2012
 By root
Axia Bold Italic is a trademark of Sibylle Hagmann | Kontour Type, LLC.
</metadata>
<defs>
<font id="Axia-BoldItalic" horiz-adv-x="514" >
  <font-face 
    font-family="Axia"
    font-weight="700"
    font-style="italic"
    font-stretch="normal"
    units-per-em="1000"
    panose-1="2 11 8 3 3 2 2 9 2 6"
    ascent="800"
    descent="-200"
    x-height="474"
    cap-height="676"
    bbox="-114 -251 1197 944"
    underline-thickness="20"
    underline-position="-133"
    slope="-6"
    stemh="91"
    stemv="104"
    unicode-range="U+0020-FB04"
  />
<missing-glyph horiz-adv-x="1000" 
 />
    <glyph glyph-name="f_f_j" unicode="ffj" horiz-adv-x="895" 
d="M420 713l-8 -85c-40 4 -67 6 -80 6c-44 0 -61 -21 -68 -76l-9 -84h203l9 85c12 112 65 162 193 162c88 0 229 -28 228 -28l-13 -130h-102l6 58c-61 6 -100 9 -119 9c-64 0 -84 -12 -92 -79l-8 -77h117l-9 -84h-117l-42 -408l-32 -124l-105 9l37 133l40 390h-203l-42 -408
l-32 -124l-105 9l37 133l40 390h-79l9 84h79l12 107c12 100 63 140 154 140c25 0 58 -3 101 -8zM587 -221l10 89c83 -5 104 20 111 81l55 525h102l-56 -534c-11 -104 -51 -165 -162 -165c-23 0 -43 1 -60 4z" />
    <glyph glyph-name="f_j" unicode="fj" horiz-adv-x="590" 
d="M282 -221l10 89c83 -5 104 20 111 81l55 525h102l-56 -534c-11 -104 -51 -165 -162 -165c-23 0 -43 1 -60 4zM570 563h-102l6 58c-61 6 -100 9 -119 9c-64 0 -84 -12 -92 -79l-8 -77h117l-9 -84h-117l-42 -408l-32 -124l-105 9l37 133l40 390h-79l9 84h79l9 85
c12 112 65 162 193 162c88 0 229 -28 228 -28z" />
    <glyph glyph-name="ff" unicode="ff" horiz-adv-x="629" 
d="M420 713l-8 -85c-40 4 -67 6 -80 6c-44 0 -61 -21 -68 -76l-9 -84h203l12 107c9 99 63 140 154 140c25 0 58 -3 101 -8l-8 -85c-40 4 -67 6 -80 6c-44 0 -61 -21 -68 -76l-9 -84h117l-9 -84h-117l-42 -408l-32 -124l-105 9l37 133l40 390h-203l-42 -408l-32 -124l-105 9
l37 133l40 390h-79l9 84h79l12 107c12 100 63 140 154 140c25 0 58 -3 101 -8z" />
    <glyph glyph-name="fi" unicode="fi" horiz-adv-x="590" 
d="M570 563h-102l6 58c-61 6 -100 9 -119 9c-64 0 -84 -12 -92 -79l-8 -77h117l-9 -84h-117l-42 -408l-32 -124l-105 9l37 133l40 390h-79l9 84h79l9 85c12 112 65 162 193 162c88 0 229 -28 228 -28zM511 0h-102l49 474h102z" />
    <glyph glyph-name="fl" unicode="fl" horiz-adv-x="590" 
d="M511 0h-102l65 621c-61 6 -100 9 -119 9c-64 0 -84 -12 -92 -79l-8 -77h117l-9 -84h-117l-42 -408l-32 -124l-105 9l37 133l40 390h-79l9 84h79l9 85c12 112 65 162 193 162c88 0 229 -28 228 -28z" />
    <glyph glyph-name="ffi" unicode="ffi" horiz-adv-x="895" 
d="M420 713l-8 -85c-40 4 -67 6 -80 6c-44 0 -61 -21 -68 -76l-9 -84h203l9 85c12 112 65 162 193 162c88 0 229 -28 228 -28l-13 -130h-102l6 58c-61 6 -100 9 -119 9c-64 0 -84 -12 -92 -79l-8 -77h117l-9 -84h-117l-42 -408l-32 -124l-105 9l37 133l40 390h-203l-42 -408
l-32 -124l-105 9l37 133l40 390h-79l9 84h79l12 107c12 100 63 140 154 140c25 0 58 -3 101 -8zM816 0h-102l49 474h102z" />
    <glyph glyph-name="ffl" unicode="ffl" horiz-adv-x="895" 
d="M420 713l-8 -85c-40 4 -67 6 -80 6c-44 0 -61 -21 -68 -76l-9 -84h203l9 85c12 112 65 162 193 162c88 0 229 -28 228 -28l-72 -693h-102l65 621c-61 6 -100 9 -119 9c-64 0 -84 -12 -92 -79l-8 -77h117l-9 -84h-117l-42 -408l-32 -124l-105 9l37 133l40 390h-203
l-42 -408l-32 -124l-105 9l37 133l40 390h-79l9 84h79l12 107c12 100 63 140 154 140c25 0 58 -3 101 -8z" />
    <glyph glyph-name=".notdef" horiz-adv-x="1000" 
 />
    <glyph glyph-name="NULL" horiz-adv-x="0" 
 />
    <glyph glyph-name="CR" horiz-adv-x="333" 
 />
    <glyph glyph-name="space" unicode=" " horiz-adv-x="205" 
 />
    <glyph glyph-name="exclam" unicode="!" horiz-adv-x="286" 
d="M206 211h-82l2 150l34 315h108l-34 -315zM198 0h-110l13 129h110z" />
    <glyph glyph-name="quotedbl" unicode="&#x22;" horiz-adv-x="401" 
d="M230 676l-49 -263h-76l7 263h118zM431 676l-49 -263h-76l7 263h118z" />
    <glyph glyph-name="numbersign" unicode="#" horiz-adv-x="673" 
d="M616 173h-126l-58 -173h-95l57 173h-136l-57 -173h-95l57 173h-100l9 84h119l43 133h-123l9 84h142l46 140h95l-46 -140h136l47 140h94l-46 -140h89l-9 -84h-108l-43 -133h108zM422 257l43 133h-136l-43 -133h136z" />
    <glyph glyph-name="dollar" unicode="$" horiz-adv-x="554" 
d="M320 -154h-86l15 143l-185 10l11 99c75 -8 140 -12 195 -12c95 0 140 28 147 89l3 28c1 8 1 15 1 20c0 36 -17 55 -73 62l-108 13c-81 9 -131 66 -131 145c0 5 0 12 1 20l6 54c12 103 81 160 206 169l15 136h86l-15 -136c37 -1 80 -5 131 -10l-11 -97
c-75 9 -132 13 -170 13c-92 0 -134 -25 -141 -88l-3 -27c-1 -7 -1 -12 -1 -17c0 -37 23 -59 70 -65l114 -14c79 -9 128 -61 128 -138c0 -5 0 -11 -1 -19l-6 -61c-9 -99 -70 -155 -182 -170z" />
    <glyph glyph-name="percent" unicode="%" horiz-adv-x="859" 
d="M276 681c80 -1 142 -31 142 -103c0 -3 0 -7 -1 -14l-16 -151c-8 -80 -81 -116 -165 -116c-77 0 -141 31 -141 102c0 5 0 11 1 19l16 147c4 40 22 69 54 88s69 28 110 28zM704 676l-384 -676h-93l384 676h93zM268 607c-43 0 -66 -21 -70 -62l-12 -109c-1 -6 -1 -10 -1 -13
c0 -34 20 -51 59 -51c43 0 67 21 71 62l12 110c1 6 1 10 1 12c0 34 -20 51 -60 51zM692 377c80 -1 142 -31 142 -103c0 -3 0 -7 -1 -14l-16 -151c-8 -80 -81 -116 -165 -116c-77 0 -141 31 -141 102c0 5 0 11 1 19l16 147c4 40 22 69 54 88s69 28 110 28zM684 303
c-43 0 -66 -21 -70 -62l-12 -109c-1 -6 -1 -10 -1 -13c0 -34 20 -51 59 -51c43 0 67 21 71 62l12 110c1 6 1 10 1 12c0 34 -20 51 -60 51z" />
    <glyph glyph-name="ampersand" unicode="&#x26;" horiz-adv-x="610" 
d="M274 382h370l-10 -90h-106l-15 -142c-9 -92 -91 -161 -240 -161c-141 0 -207 61 -207 145c0 7 0 13 1 18l8 67c2 13 5 23 9 29l99 89l-78 86c-3 5 -4 11 -4 19c0 3 0 7 1 12l9 80c11 102 83 153 216 153c19 0 42 -1 71 -3c29 -1 53 -3 72 -5l29 -3l-11 -97
c-71 8 -126 12 -166 12c-76 0 -104 -16 -112 -83l-6 -52zM282 75c87 0 124 35 132 102l12 115h-162l-88 -78l-4 -36c-1 -7 -1 -13 -1 -19c0 -56 32 -84 111 -84z" />
    <glyph glyph-name="quotesingle" unicode="'" horiz-adv-x="200" 
d="M230 676l-49 -263h-76l7 263h118z" />
    <glyph glyph-name="parenleft" unicode="(" horiz-adv-x="324" 
d="M327 745l70 -48c-55 -76 -98 -155 -130 -238c-31 -83 -47 -179 -47 -288c0 -117 29 -231 86 -342l-81 -48c-73 121 -110 252 -110 393c0 208 71 398 212 571z" />
    <glyph glyph-name="parenright" unicode=")" horiz-adv-x="324" 
d="M153 745c73 -120 110 -250 110 -391c0 -211 -71 -402 -212 -573l-68 48c54 78 97 158 128 239c31 82 47 177 47 286c0 114 -28 228 -85 343z" />
    <glyph glyph-name="asterisk" unicode="*" horiz-adv-x="489" 
d="M305 454l16 -177h-95l52 177l-152 -117l-38 81l177 61l-164 61l55 82l128 -117l-16 177h95l-52 -177l152 117l37 -82l-174 -61l161 -61l-54 -81z" />
    <glyph glyph-name="plus" unicode="+" horiz-adv-x="510" 
d="M501 227h-172l-18 -179h-102l18 179h-172l10 95h172l19 175h102l-19 -175h172z" />
    <glyph glyph-name="comma" unicode="," horiz-adv-x="244" 
d="M195 135l-14 -128c-4 -47 -22 -92 -54 -137l-56 18c25 40 40 77 44 112h-52l14 135h118z" />
    <glyph glyph-name="hyphen" unicode="-" horiz-adv-x="352" 
d="M341 229h-282l9 91h282z" />
    <glyph glyph-name="period" unicode="." horiz-adv-x="244" 
d="M181 0h-118l14 135h118z" />
    <glyph glyph-name="slash" unicode="/" horiz-adv-x="301" 
d="M400 696l-339 -720h-89l338 720h90z" />
    <glyph glyph-name="zero" unicode="0" horiz-adv-x="572" 
d="M336 484c131 0 197 -57 197 -172c0 -7 -1 -20 -2 -39l-7 -73c-13 -141 -93 -211 -240 -211c-131 0 -196 57 -196 171c0 12 1 25 2 40l7 73c13 141 93 211 239 211zM326 387c-84 0 -116 -33 -127 -120l-7 -61c-1 -13 -2 -23 -2 -29c0 -65 31 -93 104 -93
c84 0 119 35 128 122l7 65c1 7 1 15 1 24c0 65 -31 92 -104 92z" />
    <glyph glyph-name="one" unicode="1" horiz-adv-x="330" 
d="M243 0h-102l37 355l-131 -26l11 105l235 50z" />
    <glyph glyph-name="two" unicode="2" horiz-adv-x="467" 
d="M196 92h251l-9 -92h-412l9 87l222 140c20 13 34 22 42 28c9 7 17 16 26 29s15 28 17 45l2 15c1 6 1 10 1 12c0 24 -14 34 -51 34c-17 0 -41 -1 -73 -3c-31 -2 -59 -4 -82 -7l-35 -3l10 96c89 8 155 12 198 12c92 0 138 -31 138 -92c0 -3 0 -7 -1 -14l-6 -60
c-5 -50 -37 -93 -97 -130l-149 -93z" />
    <glyph glyph-name="three" unicode="3" horiz-adv-x="469" 
d="M248 179l81 72l6 57c1 16 2 26 2 29c0 43 -19 56 -74 56l-179 -13l10 92c87 9 149 13 186 13c121 0 159 -46 159 -133c0 -9 -1 -25 -2 -46l-6 -58c-1 -12 -4 -22 -9 -29l-97 -86l81 -89c3 -5 4 -10 4 -15c0 -3 0 -9 -1 -16l-4 -38c-13 -125 -88 -188 -227 -188
c-20 0 -45 1 -74 4c-29 2 -52 4 -71 6l-28 3l10 92c67 -9 124 -13 169 -13c72 0 110 19 118 87l5 45l-70 77h-145l9 91h147z" />
    <glyph glyph-name="four" unicode="4" horiz-adv-x="525" 
d="M521 0h-105l-22 -202h-102l22 202h-306l9 89l352 385h96l-40 -382h105zM323 92l25 236l-215 -236h190z" />
    <glyph glyph-name="five" unicode="5" horiz-adv-x="492" 
d="M446 46l-9 -92c-11 -111 -83 -167 -217 -167c-21 0 -48 1 -79 4c-31 2 -58 4 -79 6l-31 3l10 93c68 -9 122 -13 163 -13c82 0 126 29 132 87l7 68c1 7 1 12 1 15c0 47 -29 70 -88 70h-177l37 354h346l-9 -91h-244l-18 -172h91c112 0 165 -52 165 -139c0 -9 0 -17 -1 -26z
" />
    <glyph glyph-name="six" unicode="6" horiz-adv-x="539" 
d="M201 312l-15 -144c-1 -6 -1 -11 -1 -15c0 -51 34 -76 101 -76c72 0 111 30 118 91l8 73c1 9 1 17 1 24c0 51 -23 68 -87 68c-35 0 -82 -9 -106 -16zM339 429c128 0 179 -49 179 -140c0 -9 -1 -20 -2 -35l-12 -103c-9 -81 -66 -133 -126 -150c-30 -8 -64 -12 -102 -12
c-95 0 -195 29 -195 141c0 7 0 14 1 21l36 335c16 149 96 201 240 201c25 0 84 -4 176 -13l-10 -96c-91 10 -147 15 -167 15c-53 0 -89 -9 -106 -27c-17 -17 -27 -46 -32 -87l-8 -71c35 14 77 21 128 21z" />
    <glyph glyph-name="seven" unicode="7" horiz-adv-x="443" 
d="M141 -202h-115l331 585h-310l9 91h422l-8 -77z" />
    <glyph glyph-name="eight" unicode="8" horiz-adv-x="562" 
d="M353 687c116 0 180 -54 180 -142c0 -8 0 -15 -1 -22l-4 -42c-7 -60 -41 -111 -101 -135c59 -22 88 -62 88 -120c0 -6 0 -13 -1 -20l-5 -50c-6 -59 -31 -101 -76 -128c-44 -26 -95 -39 -154 -39c-55 0 -102 11 -139 34s-56 60 -56 111c0 5 0 13 1 22l5 50
c6 69 45 115 116 140c-49 21 -73 59 -73 116c0 6 0 12 1 19l4 42c9 100 90 164 215 164zM408 166l4 35c1 7 1 13 1 17c0 54 -30 81 -90 81h-22c-65 0 -101 -33 -109 -98l-4 -31c-1 -7 -1 -13 -1 -19c0 -51 34 -76 101 -76c73 0 113 30 120 91zM344 605
c-63 0 -98 -31 -105 -93l-3 -28c-1 -7 -1 -14 -1 -21c0 -50 24 -75 72 -75h19c61 0 92 31 100 96l3 23c1 12 2 20 2 23c0 50 -29 75 -87 75z" />
    <glyph glyph-name="nine" unicode="9" horiz-adv-x="539" 
d="M387 164l15 144c1 7 1 12 1 15c0 51 -34 76 -101 76c-72 0 -111 -30 -118 -91l-8 -76c-1 -8 -1 -15 -1 -22c0 -49 23 -67 87 -67c35 0 82 9 106 16zM249 47c-127 0 -178 50 -178 141c0 7 1 17 2 31l11 106c14 129 126 162 228 162c95 0 195 -29 195 -141
c0 -6 0 -13 -1 -21l-36 -335c-16 -149 -96 -201 -240 -201c-25 0 -84 4 -176 13l10 96c91 -10 147 -15 167 -15c53 0 88 9 105 27c17 17 28 46 33 87l8 71c-35 -14 -77 -21 -128 -21z" />
    <glyph glyph-name="colon" unicode=":" horiz-adv-x="244" 
d="M181 0h-118l14 135h118zM216 339h-118l14 135h118z" />
    <glyph glyph-name="semicolon" unicode=";" horiz-adv-x="244" 
d="M195 135l-14 -128c-4 -47 -22 -92 -54 -137l-56 18c25 40 40 77 44 112h-52l14 135h118zM216 339h-118l14 135h118z" />
    <glyph glyph-name="less" unicode="&#x3c;" horiz-adv-x="510" 
d="M464 40l-390 191l9 83l430 191l-12 -108l-299 -124l273 -125z" />
    <glyph glyph-name="equal" unicode="=" horiz-adv-x="510" 
d="M501 322h-426l10 95h426zM481 131h-426l10 95h426z" />
    <glyph glyph-name="greater" unicode="&#x3e;" horiz-adv-x="510" 
d="M103 505l390 -191l-9 -83l-430 -191l11 108l299 124l-273 125z" />
    <glyph glyph-name="question" unicode="?" horiz-adv-x="415" 
d="M215 0h-104l13 129h104zM241 265l-6 -64h-102l8 81c4 35 21 62 52 81l70 44c29 18 47 30 53 37c7 7 11 20 13 38l4 36c1 7 1 13 1 16c0 39 -19 56 -63 56l-168 -11l11 98c69 7 130 10 182 10c80 0 145 -29 145 -108c0 -3 0 -9 -1 -16l-10 -89c-3 -24 -8 -43 -17 -59
s-13 -25 -29 -37c-15 -11 -14 -12 -33 -24c-9 -5 -15 -8 -16 -9l-64 -40c-19 -12 -29 -25 -30 -40z" />
    <glyph glyph-name="at" unicode="@" horiz-adv-x="826" 
d="M495 116l-86 -67c-12 -3 -22 -4 -29 -4c-65 0 -103 39 -103 92c0 3 0 8 1 13l2 14c11 70 59 107 144 111l88 4l2 16c1 7 1 11 1 14c0 31 -15 48 -71 48c-25 0 -65 -5 -118 -14l7 67c61 9 102 14 121 14c96 0 141 -25 141 -109c0 -6 -1 -16 -2 -31l-18 -170
c87 0 130 63 130 188c0 62 -22 112 -65 151s-101 58 -174 58c-85 0 -156 -29 -211 -87c-55 -57 -82 -137 -82 -239c0 -151 92 -225 244 -225c56 0 118 13 146 22l21 7l-8 -75c-43 -21 -99 -32 -169 -32c-99 0 -176 27 -233 82s-85 128 -85 220c0 119 36 215 109 290
s165 113 276 113c97 0 173 -26 230 -79s85 -118 85 -197c0 -171 -86 -262 -214 -262c-30 0 -59 4 -86 12zM499 159l6 59l-86 -5c-35 -2 -54 -15 -57 -38l-2 -14c-1 -6 -1 -10 -1 -13c0 -18 11 -27 32 -27c11 0 27 4 48 13z" />
    <glyph glyph-name="A" unicode="A" horiz-adv-x="666" 
d="M538 0l-45 186h-276l-83 -186h-109l304 676h150l162 -676h-103zM392 581l-133 -298h212l-69 298h-10z" />
    <glyph glyph-name="B" unicode="B" horiz-adv-x="612" 
d="M481 448l5 51c1 8 1 14 1 18c0 45 -27 68 -82 68h-168l-21 -203h191zM465 174l4 38l-71 80h-192l-21 -200h175c65 0 98 21 105 82zM571 208l-7 -58c-12 -93 -78 -150 -165 -150h-325l71 676h305c87 0 142 -55 142 -131c0 -5 0 -12 -1 -19l-9 -83c-2 -13 -5 -23 -9 -29
l-85 -76l81 -89c3 -5 4 -11 4 -18c0 -5 -1 -12 -2 -23z" />
    <glyph glyph-name="C" unicode="C" horiz-adv-x="539" 
d="M510 96l-10 -96c-92 -7 -150 -11 -174 -11c-67 0 -115 9 -162 33c-45 24 -71 72 -71 140c0 13 1 26 2 39l29 275c15 141 107 211 278 211c21 0 77 -4 167 -11l-11 -96c-63 8 -116 12 -161 12c-61 0 -104 -11 -129 -32s-40 -61 -46 -118l-21 -195c-2 -17 -3 -32 -3 -43
c0 -85 38 -120 145 -120c40 0 104 5 140 9z" />
    <glyph glyph-name="D" unicode="D" horiz-adv-x="609" 
d="M598 526l-40 -376c-9 -93 -77 -150 -164 -150h-320l71 676h312c41 0 74 -13 101 -39c27 -25 41 -57 41 -94c0 -4 0 -10 -1 -17zM460 184l32 309c1 7 1 12 1 17c0 50 -29 75 -88 75h-168l-52 -493h168c65 0 100 25 107 92z" />
    <glyph glyph-name="E" unicode="E" horiz-adv-x="519" 
d="M486 0h-412l71 676h404l-10 -91h-302l-21 -203h255l-10 -90h-255l-21 -200h310z" />
    <glyph glyph-name="F" unicode="F" horiz-adv-x="503" 
d="M176 0h-102l71 676h404l-10 -91h-302l-21 -203h260l-10 -90h-260z" />
    <glyph glyph-name="G" unicode="G" horiz-adv-x="620" 
d="M552 4c-123 -10 -198 -15 -226 -15c-155 0 -233 59 -233 176c0 9 1 20 2 35l29 276c15 141 107 211 278 211c21 0 77 -4 167 -11l-11 -96c-63 8 -116 12 -161 12c-61 0 -104 -11 -129 -32s-40 -61 -46 -118l-21 -196c-2 -17 -3 -31 -3 -42c0 -85 38 -120 145 -120
c25 0 63 2 116 7l21 200h-135l10 90h237z" />
    <glyph glyph-name="H" unicode="H" horiz-adv-x="639" 
d="M565 0h-102l30 292h-287l-30 -292h-102l71 676h102l-31 -294h287l31 294h102z" />
    <glyph glyph-name="I" unicode="I" horiz-adv-x="278" 
d="M190 0h-102l71 676h102z" />
    <glyph glyph-name="J" unicode="J" horiz-adv-x="278" 
d="M37 -156h-109l10 92h80l70 64l71 676h102l-75 -709c-2 -6 -8 -14 -18 -24l-101 -93c-7 -4 -17 -6 -30 -6z" />
    <glyph glyph-name="K" unicode="K" horiz-adv-x="554" 
d="M543 0h-119l-215 292h-10l-30 -292h-102l71 676h102l-31 -294h10l276 294h120l-317 -342z" />
    <glyph glyph-name="L" unicode="L" horiz-adv-x="491" 
d="M470 0h-396l71 676h102l-62 -584h294z" />
    <glyph glyph-name="M" unicode="M" horiz-adv-x="714" 
d="M379 287h10l216 389h106l-71 -676h-102l47 455h-4l-166 -291h-82l-106 291h-4l-47 -455h-102l71 676h100z" />
    <glyph glyph-name="N" unicode="N" horiz-adv-x="669" 
d="M595 0h-102l-264 512l-53 -512h-102l71 676h101l264 -513l54 513h102z" />
    <glyph glyph-name="O" unicode="O" horiz-adv-x="638" 
d="M388 687c67 0 122 -15 164 -44s63 -75 63 -138c0 -13 0 -23 -1 -29l-29 -276c-16 -148 -121 -211 -265 -211c-67 0 -122 14 -164 43s-63 74 -63 137c0 7 1 17 2 32l29 275c16 148 120 211 264 211zM381 593c-92 0 -147 -37 -158 -142l-24 -224c-1 -13 -2 -23 -2 -32
c0 -83 46 -112 130 -112c92 0 147 36 158 143l24 225c1 14 2 24 2 30c0 75 -43 112 -130 112z" />
    <glyph glyph-name="P" unicode="P" horiz-adv-x="552" 
d="M577 526l-10 -92c-9 -88 -65 -150 -160 -150h-202l-29 -284h-102l71 676h296c84 0 137 -56 137 -132c0 -5 0 -11 -1 -18zM468 458l4 41c1 8 1 15 1 20c0 44 -26 66 -79 66h-157l-22 -210h157c59 0 91 28 96 83z" />
    <glyph glyph-name="Q" unicode="Q" horiz-adv-x="638" 
d="M388 687c67 0 122 -15 164 -44s63 -75 63 -138c0 -13 0 -23 -1 -29l-29 -276c-10 -94 -55 -157 -136 -190l85 -156h-113l-74 136c-7 0 -22 -1 -27 -1c-67 0 -122 14 -164 43s-63 74 -63 137c0 7 1 17 2 32l29 275c16 148 120 211 264 211zM381 593
c-92 0 -147 -37 -158 -142l-24 -224c-1 -13 -2 -23 -2 -32c0 -83 46 -112 130 -112c92 0 147 36 158 143l24 225c1 14 2 24 2 30c0 75 -43 112 -130 112z" />
    <glyph glyph-name="R" unicode="R" horiz-adv-x="606" 
d="M579 0h-111l-115 284h-148l-29 -284h-102l71 676h296c84 0 137 -56 137 -132c0 -5 0 -11 -1 -18l-10 -92c-8 -77 -55 -128 -107 -143zM468 458l4 42c1 7 1 14 1 19c0 44 -26 66 -79 66h-157l-22 -210h157c59 0 91 28 96 83z" />
    <glyph glyph-name="S" unicode="S" horiz-adv-x="554" 
d="M524 224l-6 -61c-11 -116 -93 -174 -245 -174c-29 0 -60 1 -95 3c-35 1 -62 3 -83 4l-31 3l11 99c75 -8 140 -12 195 -12c95 0 140 28 147 89l3 28c1 7 1 14 1 20c0 36 -17 55 -73 62l-108 13c-81 9 -131 66 -131 145c0 5 0 12 1 20l6 54c13 113 93 170 240 170
c51 0 112 -4 183 -11l-11 -97c-75 9 -132 13 -170 13c-93 0 -137 -25 -142 -88l-2 -25c-1 -8 -1 -14 -1 -19c0 -37 23 -59 70 -65l114 -14c79 -9 128 -61 128 -138c0 -5 0 -12 -1 -19z" />
    <glyph glyph-name="T" unicode="T" horiz-adv-x="492" 
d="M543 585h-185l-61 -585h-102l61 585h-185l10 91h472z" />
    <glyph glyph-name="U" unicode="U" horiz-adv-x="638" 
d="M317 -11c-65 0 -119 15 -161 46s-63 76 -63 137c0 6 1 16 2 29l50 475h102l-48 -455c-1 -12 -2 -20 -2 -25c0 -74 43 -111 130 -111c95 0 148 45 158 135l48 456h102l-50 -475c-7 -70 -36 -123 -86 -159c-50 -35 -111 -53 -182 -53z" />
    <glyph glyph-name="V" unicode="V" horiz-adv-x="634" 
d="M330 122l238 554h115l-305 -676h-122l-163 676h107l120 -554h10z" />
    <glyph glyph-name="W" unicode="W" horiz-adv-x="1000" 
d="M286 113l209 563h152l88 -563h10l199 563h107l-250 -676h-148l-89 562h-10l-207 -562h-148l-108 676h106l79 -563h10z" />
    <glyph glyph-name="X" unicode="X" horiz-adv-x="605" 
d="M462 0l-130 263l-184 -263h-124l251 335v1l-181 340h118l130 -266l186 266h124l-253 -340v-1l181 -335h-118z" />
    <glyph glyph-name="Y" unicode="Y" horiz-adv-x="586" 
d="M333 370l192 306h117l-271 -417h-1l-26 -259h-102l26 259l-182 417h111l126 -306h10z" />
    <glyph glyph-name="Z" unicode="Z" horiz-adv-x="521" 
d="M484 0h-444l10 96l382 489h-311l10 91h422l-10 -94l-385 -490h335z" />
    <glyph glyph-name="bracketleft" unicode="[" horiz-adv-x="296" 
d="M286 -210h-211l100 950h204l-9 -91h-102l-81 -768h109z" />
    <glyph glyph-name="backslash" unicode="\" horiz-adv-x="301" 
d="M234 -24l-187 720h90l187 -720h-90z" />
    <glyph glyph-name="bracketright" unicode="]" horiz-adv-x="296" 
d="M175 -210h-210l10 91h108l81 768h-102l9 91h204z" />
    <glyph glyph-name="asciicircum" unicode="^" horiz-adv-x="500" 
d="M495 345l-93 -41l-92 270l-150 -270l-83 41l201 331h86z" />
    <glyph glyph-name="underscore" unicode="_" horiz-adv-x="536" 
d="M520 -101h-525l5 62h526z" />
    <glyph glyph-name="grave" unicode="`" horiz-adv-x="310" 
d="M307 538h-89l-90 150h117z" />
    <glyph glyph-name="a" unicode="a" 
d="M455 0h-102l7 75l-117 -82c-9 -3 -18 -4 -29 -4c-96 0 -143 50 -143 130c0 7 0 14 1 22l19 180c12 109 79 164 201 164c47 0 83 -7 109 -21l103 10zM368 147l24 229c-33 14 -64 21 -95 21c-64 0 -99 -27 -104 -80l-15 -142c-1 -6 -1 -12 -1 -19c0 -42 18 -63 53 -63
c12 0 24 2 36 6z" />
    <glyph glyph-name="b" unicode="b" 
d="M74 151l59 559h102l-33 -311l118 82c8 3 17 4 28 4c95 0 143 -50 143 -129c0 -8 0 -16 -1 -23l-19 -182c-12 -108 -84 -162 -216 -162c-121 0 -182 46 -182 139c0 6 0 14 1 23zM195 327l-17 -165c-1 -7 -1 -13 -1 -18c0 -43 28 -69 87 -69c65 0 100 27 106 80l15 145
c1 7 1 12 1 17c0 43 -18 64 -53 64c-13 0 -25 -2 -36 -6z" />
    <glyph glyph-name="c" unicode="c" horiz-adv-x="418" 
d="M390 12c-41 -15 -88 -23 -141 -23c-117 0 -176 45 -176 135c0 12 0 21 1 26l18 168c11 105 67 167 206 167l132 -10l-9 -89c-51 7 -90 10 -118 10c-67 0 -104 -28 -110 -85l-16 -152c-1 -7 -1 -13 -1 -18c0 -53 30 -64 97 -64c21 0 71 9 103 16l23 5z" />
    <glyph glyph-name="d" unicode="d" 
d="M455 0h-102l7 75l-117 -82c-9 -3 -18 -4 -29 -4c-96 0 -143 50 -143 130c0 7 0 14 1 22l19 179c11 110 78 165 201 165c47 0 83 -7 109 -21l26 246h102zM366 147l26 229c-33 14 -64 21 -95 21c-64 0 -99 -27 -104 -80l-15 -142c-1 -7 -1 -14 -1 -19c0 -42 18 -63 53 -63
c16 0 30 3 43 9z" />
    <glyph glyph-name="e" unicode="e" horiz-adv-x="491" 
d="M303 485c124 0 186 -47 186 -142c0 -8 -1 -17 -2 -28l-12 -119h-294l-3 -26c-1 -7 -1 -13 -1 -16c0 -59 41 -77 118 -77c27 0 64 5 113 14c25 5 38 7 40 7l-9 -88c-8 -1 -23 -4 -45 -8c-21 -4 -41 -7 -60 -9c-18 -3 -35 -4 -52 -4c-59 0 -109 12 -148 36s-59 64 -59 119
c0 7 0 16 1 25l16 149c11 107 70 167 211 167zM190 278h192l5 46c1 6 1 10 1 13c0 41 -30 62 -89 62c-68 0 -100 -25 -105 -77z" />
    <glyph glyph-name="f" unicode="f" horiz-adv-x="324" 
d="M420 713l-8 -85c-40 4 -67 6 -80 6c-44 0 -61 -21 -68 -76l-9 -84h117l-9 -84h-117l-42 -408l-32 -124l-105 9l37 133l40 390h-79l9 84h79l12 107c12 100 63 140 154 140c25 0 58 -3 101 -8z" />
    <glyph glyph-name="g" unicode="g" 
d="M98 -205l9 89c71 -14 116 -21 135 -21c64 0 99 27 104 80l14 132l-117 -82c-9 -3 -18 -4 -29 -4c-96 0 -143 50 -143 130c0 6 0 13 1 22l19 180c12 109 79 164 201 164c47 0 83 -7 109 -21l103 10l-56 -534c-11 -110 -79 -165 -202 -165c-32 0 -90 8 -123 15zM368 147
l24 229c-33 14 -64 21 -95 21c-64 0 -99 -27 -104 -80l-15 -142c-1 -7 -1 -13 -1 -19c0 -42 18 -63 53 -63c15 0 28 3 40 8z" />
    <glyph glyph-name="h" unicode="h" 
d="M195 327l-34 -327h-102l74 710h102l-33 -311l118 82c8 3 17 4 28 4c96 0 143 -50 143 -129c0 -8 0 -16 -1 -23l-34 -333h-102l31 300c1 7 1 13 1 17c0 43 -18 64 -53 64c-15 0 -28 -3 -40 -8z" />
    <glyph glyph-name="i" unicode="i" horiz-adv-x="258" 
d="M180 0h-102l49 474h102zM240 579h-102l14 131h102z" />
    <glyph glyph-name="j" unicode="j" horiz-adv-x="258" 
d="M240 579h-102l14 131h102zM-48 -221l10 89c81 -5 103 20 110 81l55 525h102l-56 -534c-11 -104 -51 -165 -162 -165c-23 0 -42 1 -59 4z" />
    <glyph glyph-name="k" unicode="k" horiz-adv-x="462" 
d="M451 0h-123l-136 204h-10l-21 -204h-102l74 710h102l-46 -439h10l193 222l104 -29l-211 -230z" />
    <glyph glyph-name="l" unicode="l" horiz-adv-x="258" 
d="M180 0h-102l74 710h102z" />
    <glyph glyph-name="m" unicode="m" horiz-adv-x="803" 
d="M745 0h-102l31 300c1 7 1 13 1 18c0 43 -17 64 -51 64c-13 0 -25 -2 -35 -7l-102 -48l-34 -327h-102l31 300c1 7 1 13 1 18c0 43 -17 64 -51 64c-13 0 -25 -2 -35 -7l-102 -48l-34 -327h-102l49 474h102l-8 -75l118 82c8 3 17 4 28 4c78 0 124 -31 137 -93l127 89
c8 3 17 4 28 4c93 0 140 -48 140 -127c0 -9 0 -17 -1 -25z" />
    <glyph glyph-name="n" unicode="n" 
d="M456 0h-102l31 300c1 8 1 14 1 17c0 43 -18 65 -54 65c-13 0 -25 -2 -35 -7l-102 -48l-34 -327h-102l49 474h102l-8 -75l118 82c8 3 17 4 28 4c95 0 143 -50 143 -129c0 -7 0 -14 -1 -23z" />
    <glyph glyph-name="o" unicode="o" horiz-adv-x="528" 
d="M309 485c131 0 194 -57 194 -148c0 -7 0 -15 -1 -22l-17 -161c-7 -59 -30 -102 -71 -127c-40 -25 -89 -38 -147 -38c-55 0 -101 11 -138 33s-55 58 -55 109c0 7 0 15 1 23l17 161c11 113 84 170 217 170zM306 401c-69 0 -107 -33 -114 -98l-14 -132c-1 -7 -1 -12 -1 -16
c0 -55 31 -82 94 -82c68 0 106 33 113 98l14 132c1 7 1 13 1 18c0 53 -31 80 -93 80z" />
    <glyph glyph-name="p" unicode="p" 
d="M210 474l-8 -75l118 82c8 3 17 4 28 4c95 0 143 -50 143 -129c0 -7 0 -14 -1 -23l-19 -182c-12 -108 -84 -162 -216 -162c-35 0 -66 7 -93 22l-24 -223h-102l72 686h102zM195 327l-18 -169c-1 -7 -1 -11 -1 -14c0 -42 30 -63 89 -63c65 0 100 25 105 74l15 145
c1 7 1 12 1 17c0 43 -18 64 -53 64c-13 0 -25 -2 -36 -6z" />
    <glyph glyph-name="q" unicode="q" 
d="M432 -212h-102l30 287l-117 -82c-9 -3 -18 -4 -29 -4c-96 0 -143 50 -143 130c0 8 0 15 1 22l19 180c12 109 79 164 201 164c48 0 84 -7 109 -20l103 9zM368 147l24 229c-33 14 -64 21 -95 21c-64 0 -99 -27 -104 -80l-15 -142c-1 -6 -1 -12 -1 -19c0 -42 18 -63 53 -63
c12 0 24 2 36 6z" />
    <glyph glyph-name="r" unicode="r" horiz-adv-x="326" 
d="M161 0h-102l49 474h102l-11 -110h5c3 7 4 14 23 39c9 13 20 24 31 34c23 20 66 41 114 42l-12 -109c-41 1 -84 -17 -108 -34c-11 -9 -23 -20 -34 -33c-23 -25 -23 -30 -30 -41z" />
    <glyph glyph-name="s" unicode="s" horiz-adv-x="456" 
d="M422 148l-3 -32c-4 -45 -25 -77 -63 -97s-81 -30 -130 -30s-114 4 -146 8l-24 3l9 89c65 -8 117 -12 156 -12c61 0 93 16 97 48l2 16c1 6 1 10 1 13c0 19 -15 31 -44 35l-90 12c-61 8 -101 48 -101 107c0 5 0 10 1 16l4 34c9 84 80 127 193 127c40 0 96 -4 124 -7l21 -3
l-9 -89c-53 7 -96 10 -131 10c-65 0 -92 -14 -97 -51l-2 -15c-1 -5 -1 -9 -1 -11c0 -20 11 -29 46 -34l88 -12c63 -9 100 -49 100 -106c0 -5 0 -11 -1 -19z" />
    <glyph glyph-name="t" unicode="t" horiz-adv-x="347" 
d="M334 86l-10 -88c-19 -5 -44 -8 -73 -8c-92 0 -138 39 -138 117c0 8 1 18 2 30l27 255h-78l8 82h78l11 100l49 36h57l-15 -136h127l-8 -82h-127l-24 -224c-1 -17 -2 -29 -2 -34c0 -36 12 -53 51 -53c20 0 42 2 65 5z" />
    <glyph glyph-name="u" unicode="u" 
d="M107 474h102l-31 -300c-1 -7 -1 -14 -1 -19c0 -41 18 -62 53 -62c15 0 30 3 44 10l92 44l36 327h102l-49 -474h-102l7 75l-117 -82c-9 -3 -18 -4 -29 -4c-96 0 -143 50 -143 130c0 7 0 14 1 22z" />
    <glyph glyph-name="v" unicode="v" horiz-adv-x="472" 
d="M246 93l157 381h108l-207 -474h-136l-109 474h100l77 -381h10z" />
    <glyph glyph-name="w" unicode="w" horiz-adv-x="740" 
d="M216 95l130 379h146l50 -379h10l123 379h102l-171 -474h-140l-52 378h-10l-130 -378h-140l-73 474h102l43 -379h10z" />
    <glyph glyph-name="x" unicode="x" horiz-adv-x="458" 
d="M335 0l-86 155l-118 -155h-121l188 237l-139 237h112l87 -155l119 155h120l-189 -237l140 -237h-113z" />
    <glyph glyph-name="y" unicode="y" horiz-adv-x="472" 
d="M213 -212h-97l93 212h-41l-109 474h102l76 -381h10l156 381h108z" />
    <glyph glyph-name="z" unicode="z" horiz-adv-x="425" 
d="M400 0h-375l8 85l273 297v5h-226l9 87h343l-9 -86l-273 -295v-6h259z" />
    <glyph glyph-name="braceleft" unicode="{" horiz-adv-x="355" 
d="M171 263l58 -48c13 -10 19 -28 19 -55c0 -7 -1 -19 -2 -38l-14 -141c-2 -16 -3 -30 -3 -42c0 -39 14 -58 59 -65l-9 -92c-115 4 -153 56 -153 143c0 13 1 28 3 47l13 132c1 21 2 32 2 34c1 18 -5 34 -17 48l-64 72l1 10l79 72c23 20 28 37 33 82l14 132
c5 55 16 92 43 129s76 58 147 61l-10 -92c-30 -5 -50 -15 -59 -30s-16 -40 -20 -77l-15 -141c-5 -48 -18 -79 -37 -93z" />
    <glyph glyph-name="bar" unicode="|" horiz-adv-x="267" 
d="M152 -251h-91l105 1001h91z" />
    <glyph glyph-name="braceright" unicode="}" horiz-adv-x="355" 
d="M170 215l68 48l-58 48c-12 10 -19 28 -20 55c0 11 1 24 3 38l15 141c2 15 3 29 3 40c0 40 -15 59 -60 67l10 92c115 -4 152 -57 152 -146c0 -16 -1 -31 -2 -44l-14 -132c-2 -14 -3 -25 -3 -34c0 -19 6 -35 18 -48l65 -72l-1 -10l-80 -72c-23 -20 -29 -38 -33 -82
l-13 -132c-5 -55 -16 -92 -44 -129c-27 -37 -75 -58 -146 -61l9 92c59 9 72 35 80 107l14 141c4 47 16 78 37 93z" />
    <glyph glyph-name="asciitilde" unicode="~" horiz-adv-x="515" 
d="M436 359h93c-11 -103 -58 -178 -158 -178c-38 0 -71 12 -98 36l-35 31c-14 12 -28 18 -42 18c-31 0 -51 -28 -61 -84h-93c11 103 58 178 158 178c37 0 69 -12 98 -36l35 -31c14 -12 28 -18 41 -18c31 0 52 28 62 84z" />
    <glyph glyph-name="nbspace" unicode="&#xa0;" horiz-adv-x="205" 
 />
    <glyph glyph-name="exclamdown" unicode="&#xa1;" horiz-adv-x="286" 
d="M150 465h82l-2 -150l-33 -315h-108l33 315zM159 676h110l-14 -129h-110z" />
    <glyph glyph-name="cent" unicode="&#xa2;" horiz-adv-x="418" 
d="M276 -154h-86l15 145c-93 8 -140 52 -140 133c0 12 0 21 1 26l18 168c9 96 58 157 173 166l15 138h86l-15 -140l79 -7l-9 -89c-51 7 -90 10 -118 10c-67 0 -104 -28 -110 -85l-16 -152c-1 -7 -1 -13 -1 -18c0 -53 30 -64 97 -64c21 0 71 9 103 16l23 5l-9 -86
c-25 -9 -55 -15 -90 -20z" />
    <glyph glyph-name="sterling" unicode="&#xa3;" horiz-adv-x="572" 
d="M284 489l-7 -126h197l-10 -90h-191l-3 -70c-4 -65 -8 -90 -36 -111h298l-9 -92h-470l9 92h33c12 0 29 1 52 29c11 15 18 34 19 58l5 94h-81l10 90h75l6 137c7 125 83 187 230 187c19 0 42 -1 68 -3c27 -1 48 -3 65 -5l25 -3l-11 -97c-75 8 -128 12 -158 12
c-76 0 -111 -23 -116 -102z" />
    <glyph glyph-name="currency" unicode="&#xa4;" horiz-adv-x="572" 
d="M581 490l-70 -67c11 -23 16 -50 16 -79c0 -9 -1 -21 -2 -37l-3 -30c-5 -47 -18 -86 -40 -116l57 -68l-74 -59l-57 70c-27 -11 -60 -17 -98 -17h-18c-39 0 -70 6 -95 17l-72 -70l-62 59l71 69c-11 21 -16 48 -16 81c0 11 1 23 2 38l3 29c5 45 17 83 37 112l-55 68l74 59
l55 -68c29 13 63 19 101 19h18c38 0 70 -6 97 -18l69 67zM303 168h12c69 0 108 35 116 104l5 43c1 5 1 11 1 18c0 58 -32 87 -95 87h-12c-69 0 -107 -32 -116 -105l-5 -43c-1 -8 -1 -15 -1 -22c0 -55 32 -82 95 -82z" />
    <glyph glyph-name="yen" unicode="&#xa5;" horiz-adv-x="586" 
d="M333 370l192 306h117l-271 -417h139l-10 -88h-138l-18 -171h-102l17 171h-139l10 88h138l-182 417h111l126 -306h10z" />
    <glyph glyph-name="brokenbar" unicode="&#xa6;" horiz-adv-x="267" 
d="M257 750l-45 -435h-91l45 435h91zM152 -251h-91l46 435h91z" />
    <glyph glyph-name="section" unicode="&#xa7;" horiz-adv-x="513" 
d="M270 139c73 0 107 22 112 71l3 32c1 7 1 12 1 15c0 41 -32 62 -97 62c-71 0 -108 -25 -112 -75l-3 -34c-1 -7 -1 -11 -1 -13c0 -40 29 -58 97 -58zM452 -28l-3 -23c-15 -115 -95 -173 -241 -173c-56 0 -119 3 -148 6l-21 3l10 96c65 -6 124 -9 177 -9c77 0 118 26 125 79
l3 21c1 5 1 8 1 11c0 31 -24 49 -72 56l-80 10c-77 9 -128 55 -128 123c0 4 0 9 1 15l7 62c7 58 29 97 67 117c-29 24 -43 58 -43 101c0 9 0 18 1 26l2 17c13 117 87 173 227 173c35 0 88 -4 158 -11l-10 -96c-59 9 -108 13 -146 13c-92 0 -123 -23 -132 -88l-2 -14
c-1 -5 -1 -9 -1 -13c0 -29 24 -47 73 -54l81 -11c77 -11 126 -53 126 -122c0 -3 0 -8 -1 -15l-6 -62c-5 -52 -33 -97 -68 -117c29 -25 44 -59 44 -103c0 -5 0 -11 -1 -18z" />
    <glyph glyph-name="dieresis" unicode="&#xa8;" horiz-adv-x="310" 
d="M175 557h-110l12 113h110zM361 557h-110l12 113h110z" />
    <glyph glyph-name="copyright" unicode="&#xa9;" horiz-adv-x="826" 
d="M485 687c201 0 310 -108 310 -293c0 -125 -34 -224 -103 -297c-69 -72 -162 -108 -281 -108c-201 0 -310 108 -310 293c0 125 34 224 103 296c69 73 162 109 281 109zM477 615c-86 0 -157 -28 -212 -84s-82 -135 -82 -237c0 -151 91 -233 236 -233c86 0 156 28 211 84
s83 135 83 237c0 151 -91 233 -236 233zM574 536l-8 -74c-35 4 -65 6 -90 6c-55 0 -83 -16 -88 -71l-12 -117c-1 -6 -1 -11 -1 -15c0 -44 24 -57 73 -57l99 6l-8 -74c-39 -5 -73 -7 -101 -7c-103 0 -149 34 -149 106c0 7 0 14 1 21l15 148c9 93 60 134 176 134
c22 0 53 -2 93 -6z" />
    <glyph glyph-name="ordfeminine" unicode="&#xaa;" horiz-adv-x="403" 
d="M380 307h-87l7 61l-95 -67c-7 -3 -18 -4 -33 -4c-60 0 -106 40 -106 105c0 5 0 10 1 16l14 137c8 81 65 130 164 130c24 0 56 -7 73 -12l12 -4l1 8h89zM304 427l19 174c-25 9 -50 14 -74 14c-52 0 -81 -27 -86 -80l-10 -89c-1 -7 -1 -11 -1 -14c0 -35 15 -52 45 -52
c13 0 26 3 39 10z" />
    <glyph glyph-name="guillemotleft" unicode="&#xab;" horiz-adv-x="562" 
d="M177 275l-1 -10l134 -150l-67 -59l-174 196l4 36l215 196l54 -59zM393 275l-1 -10l134 -150l-67 -59l-174 196l4 36l215 196l54 -59z" />
    <glyph glyph-name="logicalnot" unicode="&#xac;" horiz-adv-x="510" 
d="M473 98h-98v218h-338v93h436v-311z" />
    <glyph glyph-name="uni00AD" unicode="&#xad;" horiz-adv-x="480" 
d="M419 229h-310l9 91h310z" />
    <glyph glyph-name="registered" unicode="&#xae;" horiz-adv-x="627" 
d="M385 687c145 0 229 -78 229 -218c0 -94 -26 -167 -78 -220c-51 -53 -120 -79 -206 -79c-145 0 -228 76 -228 216c0 95 25 169 76 222s120 79 207 79zM378 626c-133 0 -208 -85 -208 -234c0 -107 56 -160 167 -160c132 0 211 82 211 230c0 107 -58 164 -170 164zM283 569
h123c37 0 62 -21 62 -53c0 -3 0 -7 -1 -14l-4 -30c-5 -30 -20 -49 -47 -57l48 -115h-64l-47 111h-24l-12 -111h-62zM340 519l-6 -58h37c20 0 31 8 32 25l1 13c1 15 -10 20 -27 20h-37z" />
    <glyph glyph-name="overscore" unicode="&#xaf;" horiz-adv-x="310" 
d="M88 568l10 90h252l-10 -90h-252z" />
    <glyph glyph-name="degree" unicode="&#xb0;" horiz-adv-x="361" 
d="M253 687c85 0 132 -39 132 -95c0 -3 0 -7 -1 -13l-5 -54c-7 -69 -62 -114 -155 -114c-87 0 -133 39 -133 100c0 3 0 9 1 16l5 52c7 61 64 108 156 108zM246 620c-43 0 -66 -19 -70 -57l-3 -25c-1 -6 -1 -10 -1 -12c0 -32 20 -48 59 -48c41 0 64 19 68 57l3 24
c1 4 1 9 1 14c0 31 -19 47 -57 47z" />
    <glyph glyph-name="plusminus" unicode="&#xb1;" horiz-adv-x="510" 
d="M470 0h-430l9 95h430zM505 262h-172l-15 -140h-102l15 140h-172l10 95h172l15 140h102l-15 -140h172z" />
    <glyph glyph-name="twosuperior" unicode="&#xb2;" horiz-adv-x="360" 
d="M187 377h169l-8 -77h-283l8 77l144 106c33 22 52 46 55 72l2 16c1 5 1 9 1 12c0 13 -11 19 -32 19l-130 -7l8 80c57 5 102 7 135 7c74 0 111 -24 111 -71c0 -5 0 -10 -1 -15l-5 -37c-7 -49 -22 -77 -69 -108l-102 -67z" />
    <glyph glyph-name="threesuperior" unicode="&#xb3;" horiz-adv-x="331" 
d="M354 589l-4 -42c-1 -7 -3 -14 -8 -20l-49 -42l42 -44c2 -7 3 -13 2 -17l-4 -37c-7 -55 -54 -94 -142 -94l-119 9l8 70c23 -5 52 -7 87 -7c49 0 75 12 78 37l3 27l-23 26h-99l7 62h101l25 22l3 27c1 7 1 11 1 13c0 21 -18 31 -54 31l-96 -7l7 72c58 5 99 7 123 7
c80 0 112 -34 112 -78c0 -3 0 -8 -1 -15z" />
    <glyph glyph-name="acute" unicode="&#xb4;" horiz-adv-x="310" 
d="M204 538h-89l94 150h117z" />
    <glyph glyph-name="mu" unicode="&#xb5;" 
d="M35 -212l72 686h102l-31 -300c-1 -8 -1 -14 -1 -19c0 -41 18 -62 53 -62c15 0 27 2 36 6l101 40l35 335h102l-49 -474h-102l7 75l-117 -82c-9 -3 -18 -4 -29 -4c-18 0 -36 2 -55 7l-22 -208h-102z" />
    <glyph glyph-name="paragraph" unicode="&#xb6;" horiz-adv-x="494" 
d="M75 437l10 89c5 42 22 77 52 106c31 29 67 44 108 44h269l-10 -91h-77l-61 -585h-102l29 284h-90c-76 0 -129 55 -129 130c0 7 0 15 1 23z" />
    <glyph glyph-name="middot" unicode="&#xb7;" horiz-adv-x="244" 
d="M203 210h-118l14 135h118z" />
    <glyph glyph-name="cedilla" unicode="&#xb8;" horiz-adv-x="310" 
d="M41 -219l7 62c24 -6 44 -9 61 -9c27 0 42 9 43 26l2 18c1 13 -9 21 -26 21c-3 0 -5 0 -8 -1l-32 31l66 78h63l-51 -60c47 0 71 -18 71 -55c0 -5 0 -10 -1 -15l-3 -24c-6 -55 -45 -83 -116 -83c-21 0 -47 4 -76 11z" />
    <glyph glyph-name="onesuperior" unicode="&#xb9;" horiz-adv-x="243" 
d="M221 300h-95l30 282l-87 -14l9 79l183 35z" />
    <glyph glyph-name="ordmasculine" unicode="&#xba;" horiz-adv-x="440" 
d="M291 682c104 0 155 -44 155 -113c0 -5 0 -11 -1 -18l-13 -127c-5 -47 -25 -80 -60 -100s-75 -30 -122 -30c-77 -2 -153 28 -155 113c0 7 0 13 1 18l13 126c8 80 70 131 182 131zM284 612c-53 0 -82 -21 -87 -64l-12 -116c-1 -6 -1 -10 -1 -13c0 -36 31 -53 74 -53
c47 0 83 20 88 64l12 116c1 6 1 10 1 13c0 35 -25 53 -75 53z" />
    <glyph glyph-name="guillemotright" unicode="&#xbb;" horiz-adv-x="562" 
d="M440 265l1 10l-133 150l66 59l175 -196l-4 -36l-216 -196l-53 59zM224 265l1 10l-133 150l66 59l175 -196l-4 -36l-216 -196l-53 59z" />
    <glyph glyph-name="onequarter" unicode="&#xbc;" horiz-adv-x="719" 
d="M221 300h-95l30 282l-87 -14l9 79l183 35zM625 676l-384 -676h-91l384 676h91zM598 166l13 119l-104 -119h91zM746 95h-72l-10 -95h-83l10 95h-172l7 66l187 215h91l-23 -210h72z" />
    <glyph glyph-name="onehalf" unicode="&#xbd;" horiz-adv-x="719" 
d="M221 300h-95l30 282l-87 -14l9 79l183 35zM580 676l-384 -676h-91l384 676h91zM546 72h169l-8 -77h-283l8 77l144 106c33 22 52 46 55 72l2 16c1 5 1 9 1 12c0 13 -11 19 -32 19l-130 -7l8 80c57 5 102 7 135 7c74 0 111 -24 111 -71c0 -5 0 -10 -1 -15l-5 -37
c-7 -49 -22 -77 -69 -108l-102 -67z" />
    <glyph glyph-name="threequarters" unicode="&#xbe;" horiz-adv-x="719" 
d="M649 676l-384 -676h-91l384 676h91zM354 589l-4 -42c-1 -7 -3 -14 -8 -20l-49 -42l42 -44c2 -7 3 -13 2 -17l-4 -37c-7 -55 -54 -94 -142 -94l-119 9l8 70c23 -5 52 -7 87 -7c49 0 75 12 78 37l3 27l-23 26h-99l7 62h101l25 22l3 27c1 7 1 11 1 13c0 21 -18 31 -54 31
l-96 -7l7 72c58 5 99 7 123 7c80 0 112 -34 112 -78c0 -3 0 -8 -1 -15zM598 166l13 119l-104 -119h91zM746 95h-72l-10 -95h-83l10 95h-172l7 66l187 215h91l-23 -210h72z" />
    <glyph glyph-name="questiondown" unicode="&#xbf;" horiz-adv-x="415" 
d="M270 676h104l-13 -129h-104zM244 411l6 64h102l-8 -81c-4 -35 -21 -62 -52 -81l-70 -44c-29 -18 -47 -31 -54 -38c-6 -7 -10 -19 -12 -37l-4 -36c-1 -7 -1 -13 -1 -16c0 -39 19 -56 63 -56l168 11l-11 -98c-69 -7 -130 -10 -182 -10c-80 0 -145 29 -145 108c0 3 0 9 1 16
l10 89c3 24 8 43 17 59s13 25 28 36c16 12 15 13 34 24c9 6 15 9 16 10l64 40c19 12 29 25 30 40z" />
    <glyph glyph-name="Agrave" unicode="&#xc0;" horiz-adv-x="666" 
d="M538 0l-45 186h-276l-83 -186h-109l304 676h150l162 -676h-103zM392 581l-133 -298h212l-69 298h-10zM508 740h-89l-90 150h117z" />
    <glyph glyph-name="Aacute" unicode="&#xc1;" horiz-adv-x="666" 
d="M538 0l-45 186h-276l-83 -186h-109l304 676h150l162 -676h-103zM392 581l-133 -298h212l-69 298h-10zM402 740h-89l94 150h117z" />
    <glyph glyph-name="Acircumflex" unicode="&#xc2;" horiz-adv-x="666" 
d="M538 0l-45 186h-276l-83 -186h-109l304 676h150l162 -676h-103zM392 581l-133 -298h212l-69 298h-10zM342 740h-85l119 150h100l87 -150h-85l-58 88z" />
    <glyph glyph-name="Atilde" unicode="&#xc3;" horiz-adv-x="666" 
d="M538 0l-45 186h-276l-83 -186h-109l304 676h150l162 -676h-103zM392 581l-133 -298h212l-69 298h-10zM413 773l-34 21c-7 3 -16 4 -26 4c-25 0 -41 -14 -48 -41h-80c13 76 69 122 129 122c25 0 48 -8 71 -23l32 -20c9 -3 18 -4 26 -4c25 0 41 14 48 41h80
c-13 -76 -69 -122 -129 -122c-21 0 -44 7 -69 22z" />
    <glyph glyph-name="Adieresis" unicode="&#xc4;" horiz-adv-x="666" 
d="M538 0l-45 186h-276l-83 -186h-109l304 676h150l162 -676h-103zM392 581l-133 -298h212l-69 298h-10zM374 759h-110l12 113h110zM560 759h-110l12 113h110z" />
    <glyph glyph-name="Aring" unicode="&#xc5;" horiz-adv-x="666" 
d="M538 0l-45 186h-276l-83 -186h-109l304 676h150l162 -676h-103zM392 581l-133 -298h212l-69 298h-10zM418 944h28c52 0 95 -38 95 -97c0 -38 -12 -68 -37 -91c-24 -23 -51 -34 -82 -34h-28c-53 0 -95 36 -95 95c0 38 12 69 36 92s52 35 83 35zM416 884
c-29 0 -51 -25 -51 -58c0 -27 16 -44 41 -44h18c29 0 51 25 51 58c0 27 -16 44 -41 44h-18z" />
    <glyph glyph-name="AE" unicode="&#xc6;" horiz-adv-x="882" 
d="M849 0h-412l19 186h-224l-129 -186h-108l468 676h449l-10 -91h-302l-21 -203h255l-10 -90h-255l-21 -200h310zM485 553l-186 -270h167l29 270h-10z" />
    <glyph glyph-name="Ccedilla" unicode="&#xc7;" horiz-adv-x="539" 
d="M163 -219l7 62c24 -6 44 -9 61 -9c27 0 42 9 43 26l2 18c1 13 -9 21 -26 21c-3 0 -5 0 -8 -1l-32 31l53 64c-113 12 -170 68 -170 169c0 13 1 26 2 39l29 275c15 141 107 211 278 211c21 0 77 -4 167 -11l-11 -96c-63 8 -116 12 -161 12c-61 0 -104 -11 -129 -32
s-40 -61 -46 -118l-21 -195c-2 -17 -3 -32 -3 -43c0 -85 38 -120 145 -120c40 0 104 5 140 9l27 3l-10 -96c-92 -7 -150 -11 -174 -11h-3l-35 -42c47 0 71 -18 71 -55c0 -5 0 -10 -1 -15l-3 -24c-6 -55 -45 -83 -116 -83c-21 0 -47 4 -76 11z" />
    <glyph glyph-name="Egrave" unicode="&#xc8;" horiz-adv-x="519" 
d="M486 0h-412l71 676h404l-10 -91h-302l-21 -203h255l-10 -90h-255l-21 -200h310zM434 740h-89l-90 150h117z" />
    <glyph glyph-name="Eacute" unicode="&#xc9;" horiz-adv-x="519" 
d="M486 0h-412l71 676h404l-10 -91h-302l-21 -203h255l-10 -90h-255l-21 -200h310zM328 740h-89l94 150h117z" />
    <glyph glyph-name="Ecircumflex" unicode="&#xca;" horiz-adv-x="519" 
d="M486 0h-412l71 676h404l-10 -91h-302l-21 -203h255l-10 -90h-255l-21 -200h310zM268 740h-85l119 150h100l87 -150h-85l-58 88z" />
    <glyph glyph-name="Edieresis" unicode="&#xcb;" horiz-adv-x="519" 
d="M486 0h-412l71 676h404l-10 -91h-302l-21 -203h255l-10 -90h-255l-21 -200h310zM300 759h-110l12 113h110zM486 759h-110l12 113h110z" />
    <glyph glyph-name="Igrave" unicode="&#xcc;" horiz-adv-x="278" 
d="M190 0h-102l71 676h102zM314 740h-89l-90 150h117z" />
    <glyph glyph-name="Iacute" unicode="&#xcd;" horiz-adv-x="278" 
d="M190 0h-102l71 676h102zM208 740h-89l94 150h117z" />
    <glyph glyph-name="Icircumflex" unicode="&#xce;" horiz-adv-x="278" 
d="M190 0h-102l71 676h102zM148 740h-85l119 150h100l87 -150h-85l-58 88z" />
    <glyph glyph-name="Idieresis" unicode="&#xcf;" horiz-adv-x="278" 
d="M190 0h-102l71 676h102zM180 759h-110l12 113h110zM366 759h-110l12 113h110z" />
    <glyph glyph-name="Eth" unicode="&#xd0;" horiz-adv-x="609" 
d="M31 296l8 82h74l32 298h312c41 0 74 -13 101 -39c27 -25 41 -57 41 -94c0 -4 0 -10 -1 -17l-40 -376c-9 -93 -76 -150 -164 -150h-320l31 296h-74zM460 184l32 309c1 7 1 12 1 17c0 50 -29 75 -88 75h-168l-22 -207h161l-8 -82h-162l-21 -204h168c65 0 100 25 107 92z
" />
    <glyph glyph-name="Ntilde" unicode="&#xd1;" horiz-adv-x="669" 
d="M595 0h-102l-264 512l-53 -512h-102l71 676h101l264 -513l54 513h102zM414 773l-34 21c-7 3 -16 4 -26 4c-25 0 -41 -14 -48 -41h-80c13 76 69 122 129 122c25 0 48 -8 71 -23l32 -20c9 -3 18 -4 26 -4c25 0 41 14 48 41h80c-13 -76 -69 -122 -129 -122
c-21 0 -44 7 -69 22z" />
    <glyph glyph-name="Ograve" unicode="&#xd2;" horiz-adv-x="638" 
d="M388 687c67 0 122 -15 164 -44s63 -75 63 -138c0 -13 0 -23 -1 -29l-29 -276c-16 -148 -121 -211 -265 -211c-67 0 -122 14 -164 43s-63 74 -63 137c0 7 1 17 2 32l29 275c16 148 120 211 264 211zM381 593c-92 0 -147 -37 -158 -142l-24 -224c-1 -13 -2 -23 -2 -32
c0 -83 46 -112 130 -112c92 0 147 36 158 143l24 225c1 14 2 24 2 30c0 75 -43 112 -130 112zM494 740h-89l-90 150h117z" />
    <glyph glyph-name="Oacute" unicode="&#xd3;" horiz-adv-x="638" 
d="M388 687c67 0 122 -15 164 -44s63 -75 63 -138c0 -13 0 -23 -1 -29l-29 -276c-16 -148 -121 -211 -265 -211c-67 0 -122 14 -164 43s-63 74 -63 137c0 7 1 17 2 32l29 275c16 148 120 211 264 211zM381 593c-92 0 -147 -37 -158 -142l-24 -224c-1 -13 -2 -23 -2 -32
c0 -83 46 -112 130 -112c92 0 147 36 158 143l24 225c1 14 2 24 2 30c0 75 -43 112 -130 112zM388 740h-89l94 150h117z" />
    <glyph glyph-name="Ocircumflex" unicode="&#xd4;" horiz-adv-x="638" 
d="M388 687c67 0 122 -15 164 -44s63 -75 63 -138c0 -13 0 -23 -1 -29l-29 -276c-16 -148 -121 -211 -265 -211c-67 0 -122 14 -164 43s-63 74 -63 137c0 7 1 17 2 32l29 275c16 148 120 211 264 211zM381 593c-92 0 -147 -37 -158 -142l-24 -224c-1 -13 -2 -23 -2 -32
c0 -83 46 -112 130 -112c92 0 147 36 158 143l24 225c1 14 2 24 2 30c0 75 -43 112 -130 112zM328 740h-85l119 150h100l87 -150h-85l-58 88z" />
    <glyph glyph-name="Otilde" unicode="&#xd5;" horiz-adv-x="638" 
d="M388 687c67 0 122 -15 164 -44s63 -75 63 -138c0 -13 0 -23 -1 -29l-29 -276c-16 -148 -121 -211 -265 -211c-67 0 -122 14 -164 43s-63 74 -63 137c0 7 1 17 2 32l29 275c16 148 120 211 264 211zM381 593c-92 0 -147 -37 -158 -142l-24 -224c-1 -13 -2 -23 -2 -32
c0 -83 46 -112 130 -112c92 0 147 36 158 143l24 225c1 14 2 24 2 30c0 75 -43 112 -130 112zM399 773l-34 21c-7 3 -16 4 -26 4c-25 0 -41 -14 -48 -41h-80c13 76 69 122 129 122c25 0 48 -8 71 -23l32 -20c9 -3 18 -4 26 -4c25 0 41 14 48 41h80
c-13 -76 -69 -122 -129 -122c-21 0 -44 7 -69 22z" />
    <glyph glyph-name="Odieresis" unicode="&#xd6;" horiz-adv-x="638" 
d="M388 687c67 0 122 -15 164 -44s63 -75 63 -138c0 -13 0 -23 -1 -29l-29 -276c-16 -148 -121 -211 -265 -211c-67 0 -122 14 -164 43s-63 74 -63 137c0 7 1 17 2 32l29 275c16 148 120 211 264 211zM381 593c-92 0 -147 -37 -158 -142l-24 -224c-1 -13 -2 -23 -2 -32
c0 -83 46 -112 130 -112c92 0 147 36 158 143l24 225c1 14 2 24 2 30c0 75 -43 112 -130 112zM360 759h-110l12 113h110zM546 759h-110l12 113h110z" />
    <glyph glyph-name="multiply" unicode="&#xd7;" horiz-adv-x="510" 
d="M414 59l-137 151l-169 -151l-57 62l168 151l-136 152l69 61l138 -150l168 150l57 -61l-168 -152l136 -151z" />
    <glyph glyph-name="Oslash" unicode="&#xd8;" horiz-adv-x="638" 
d="M388 687c50 0 92 -8 127 -23l55 91l56 -30l-58 -96c31 -30 47 -71 47 -124c0 -13 0 -23 -1 -29l-29 -276c-16 -148 -121 -211 -265 -211c-47 0 -89 7 -126 21l-56 -93l-56 29l59 98c-32 30 -48 72 -48 125c0 7 1 17 2 32l29 275c16 148 120 211 264 211zM381 593
c-92 0 -147 -37 -158 -142l-24 -224c-1 -13 -2 -23 -2 -32c0 -19 2 -35 7 -48l258 430c-21 11 -48 16 -81 16zM511 481c0 17 -2 31 -6 44l-258 -427c20 -10 47 -15 80 -15c92 0 147 36 158 143l24 225c1 14 2 24 2 30z" />
    <glyph glyph-name="Ugrave" unicode="&#xd9;" horiz-adv-x="638" 
d="M317 -11c-65 0 -119 15 -161 46s-63 76 -63 137c0 6 1 16 2 29l50 475h102l-48 -455c-1 -12 -2 -20 -2 -25c0 -74 43 -111 130 -111c95 0 148 45 158 135l48 456h102l-50 -475c-7 -70 -36 -123 -86 -159c-50 -35 -111 -53 -182 -53zM494 740h-89l-90 150h117z" />
    <glyph glyph-name="Uacute" unicode="&#xda;" horiz-adv-x="638" 
d="M317 -11c-65 0 -119 15 -161 46s-63 76 -63 137c0 6 1 16 2 29l50 475h102l-48 -455c-1 -12 -2 -20 -2 -25c0 -74 43 -111 130 -111c95 0 148 45 158 135l48 456h102l-50 -475c-7 -70 -36 -123 -86 -159c-50 -35 -111 -53 -182 -53zM388 740h-89l94 150h117z" />
    <glyph glyph-name="Ucircumflex" unicode="&#xdb;" horiz-adv-x="638" 
d="M317 -11c-65 0 -119 15 -161 46s-63 76 -63 137c0 6 1 16 2 29l50 475h102l-48 -455c-1 -12 -2 -20 -2 -25c0 -74 43 -111 130 -111c95 0 148 45 158 135l48 456h102l-50 -475c-7 -70 -36 -123 -86 -159c-50 -35 -111 -53 -182 -53zM328 740h-85l119 150h100l87 -150h-85
l-58 88z" />
    <glyph glyph-name="Udieresis" unicode="&#xdc;" horiz-adv-x="638" 
d="M317 -11c-65 0 -119 15 -161 46s-63 76 -63 137c0 6 1 16 2 29l50 475h102l-48 -455c-1 -12 -2 -20 -2 -25c0 -74 43 -111 130 -111c95 0 148 45 158 135l48 456h102l-50 -475c-7 -70 -36 -123 -86 -159c-50 -35 -111 -53 -182 -53zM360 759h-110l12 113h110zM546 759
h-110l12 113h110z" />
    <glyph glyph-name="Yacute" unicode="&#xdd;" horiz-adv-x="586" 
d="M333 370l192 306h117l-271 -417h-1l-26 -259h-102l26 259l-182 417h111l126 -306h10zM362 740h-89l94 150h117z" />
    <glyph glyph-name="Thorn" unicode="&#xde;" horiz-adv-x="552" 
d="M565 416l-10 -92c-9 -88 -64 -150 -159 -150h-202l-18 -174h-102l71 676h102l-12 -110h193c85 0 138 -56 138 -132c0 -5 0 -11 -1 -18zM456 348l5 44c1 6 1 11 1 16c0 45 -27 67 -80 67h-157l-22 -210h157c61 0 89 26 96 83z" />
    <glyph glyph-name="germandbls" unicode="&#xdf;" horiz-adv-x="655" 
d="M471 485h37c1 8 2 17 2 26c0 67 -41 82 -129 82c-93 0 -145 -46 -154 -137l-47 -456h-102l50 476c7 74 35 128 83 161s108 50 180 50c132 0 220 -55 220 -180c0 -12 -1 -25 -2 -38l-9 -81c-48 5 -88 7 -120 7c-59 0 -90 -17 -95 -50l-1 -7c-1 -5 -1 -9 -1 -14
c0 -21 15 -33 44 -37l95 -13c59 -8 95 -46 95 -105c0 -3 0 -8 -1 -15l-4 -35c-10 -87 -75 -130 -195 -130c-56 0 -119 4 -147 8l-21 3l9 92c55 -9 105 -13 150 -13c64 0 98 14 102 43l2 17c1 7 1 11 1 14c0 21 -13 34 -40 37l-95 12c-60 7 -99 48 -99 105c0 5 0 10 1 16
l5 39c9 75 70 123 186 123z" />
    <glyph glyph-name="agrave" unicode="&#xe0;" 
d="M455 0h-102l7 75l-117 -82c-9 -3 -18 -4 -29 -4c-96 0 -143 50 -143 130c0 7 0 14 1 22l19 180c12 109 79 164 201 164c47 0 83 -7 109 -21l103 10zM368 147l24 229c-33 14 -64 21 -95 21c-64 0 -99 -27 -104 -80l-15 -142c-1 -6 -1 -12 -1 -19c0 -42 18 -63 53 -63
c12 0 24 2 36 6zM402 538h-89l-90 150h117z" />
    <glyph glyph-name="aacute" unicode="&#xe1;" 
d="M455 0h-102l7 75l-117 -82c-9 -3 -18 -4 -29 -4c-96 0 -143 50 -143 130c0 7 0 14 1 22l19 180c12 109 79 164 201 164c47 0 83 -7 109 -21l103 10zM368 147l24 229c-33 14 -64 21 -95 21c-64 0 -99 -27 -104 -80l-15 -142c-1 -6 -1 -12 -1 -19c0 -42 18 -63 53 -63
c12 0 24 2 36 6zM296 538h-89l94 150h117z" />
    <glyph glyph-name="acircumflex" unicode="&#xe2;" 
d="M455 0h-102l7 75l-117 -82c-9 -3 -18 -4 -29 -4c-96 0 -143 50 -143 130c0 7 0 14 1 22l19 180c12 109 79 164 201 164c47 0 83 -7 109 -21l103 10zM368 147l24 229c-33 14 -64 21 -95 21c-64 0 -99 -27 -104 -80l-15 -142c-1 -6 -1 -12 -1 -19c0 -42 18 -63 53 -63
c12 0 24 2 36 6zM236 538h-85l119 150h100l87 -150h-85l-59 88z" />
    <glyph glyph-name="atilde" unicode="&#xe3;" 
d="M455 0h-102l7 75l-117 -82c-9 -3 -18 -4 -29 -4c-96 0 -143 50 -143 130c0 7 0 14 1 22l19 180c12 109 79 164 201 164c47 0 83 -7 109 -21l103 10zM368 147l24 229c-33 14 -64 21 -95 21c-64 0 -99 -27 -104 -80l-15 -142c-1 -6 -1 -12 -1 -19c0 -42 18 -63 53 -63
c12 0 24 2 36 6zM307 571l-34 21c-7 3 -16 4 -26 4c-25 0 -41 -14 -48 -41h-80c13 76 69 122 129 122c25 0 48 -8 71 -23l32 -20c9 -3 18 -4 26 -4c25 0 41 14 48 41h80c-13 -76 -69 -122 -129 -122c-21 0 -44 7 -69 22z" />
    <glyph glyph-name="adieresis" unicode="&#xe4;" 
d="M455 0h-102l7 75l-117 -82c-9 -3 -18 -4 -29 -4c-96 0 -143 50 -143 130c0 7 0 14 1 22l19 180c12 109 79 164 201 164c47 0 83 -7 109 -21l103 10zM368 147l24 229c-33 14 -64 21 -95 21c-64 0 -99 -27 -104 -80l-15 -142c-1 -6 -1 -12 -1 -19c0 -42 18 -63 53 -63
c12 0 24 2 36 6zM268 557h-110l12 113h110zM454 557h-110l12 113h110z" />
    <glyph glyph-name="aring" unicode="&#xe5;" 
d="M455 0h-102l7 75l-117 -82c-9 -3 -18 -4 -29 -4c-96 0 -143 50 -143 130c0 7 0 14 1 22l19 180c12 109 79 164 201 164c47 0 83 -7 109 -21l103 10zM368 147l24 229c-33 14 -64 21 -95 21c-64 0 -99 -27 -104 -80l-15 -142c-1 -6 -1 -12 -1 -19c0 -42 18 -63 53 -63
c12 0 24 2 36 6zM311 742h28c52 0 96 -38 96 -98c0 -37 -12 -67 -37 -90c-24 -23 -51 -34 -82 -34h-28c-53 0 -95 36 -95 95c0 38 12 69 36 92s51 35 82 35zM310 682c-29 0 -51 -25 -51 -58c0 -27 15 -44 40 -44h18c29 0 52 25 52 58c0 27 -16 44 -41 44h-18z" />
    <glyph glyph-name="ae" unicode="&#xe6;" horiz-adv-x="799" 
d="M385 87l-135 -94c-9 -3 -18 -4 -29 -4c-97 0 -150 52 -150 132c0 6 0 13 1 20l19 180c12 109 79 164 201 164c59 0 117 -12 174 -35c33 23 83 35 150 35c121 0 181 -47 181 -141c0 -9 0 -18 -1 -26l-13 -122h-301l-3 -26c-1 -6 -1 -11 -1 -15c0 -59 46 -78 125 -78
c27 0 64 5 113 14c25 5 38 7 40 7l-9 -88c-7 -1 -23 -4 -46 -8s-44 -7 -63 -9c-19 -3 -36 -4 -53 -4c-110 0 -177 33 -200 98zM491 278h198l6 46c1 5 1 10 1 13c0 41 -30 62 -89 62c-69 0 -106 -25 -111 -74zM375 147l24 229c-37 14 -71 21 -102 21c-64 0 -99 -27 -104 -80
l-15 -142c-1 -6 -1 -11 -1 -15c0 -43 23 -67 60 -67c12 0 24 2 36 6z" />
    <glyph glyph-name="ccedilla" unicode="&#xe7;" horiz-adv-x="418" 
d="M93 -219l7 62c24 -6 44 -9 61 -9c27 0 42 9 43 26l2 18c1 13 -9 21 -26 21c-3 0 -5 0 -8 -1l-32 31l54 64c-81 11 -121 55 -121 131c0 11 0 20 1 26l18 168c11 105 67 167 206 167l132 -10l-9 -89c-51 7 -90 10 -118 10c-67 0 -104 -28 -110 -85l-16 -152
c-1 -7 -1 -13 -1 -18c0 -53 30 -64 97 -64c21 0 71 9 103 16l23 5l-9 -86c-39 -15 -85 -22 -137 -23l-35 -42c47 0 71 -18 71 -55c0 -5 0 -10 -1 -15l-3 -24c-6 -55 -45 -83 -116 -83c-21 0 -47 4 -76 11z" />
    <glyph glyph-name="egrave" unicode="&#xe8;" horiz-adv-x="491" 
d="M303 485c124 0 186 -47 186 -142c0 -8 -1 -17 -2 -28l-12 -119h-294l-3 -26c-1 -7 -1 -13 -1 -16c0 -59 41 -77 118 -77c27 0 64 5 113 14c25 5 38 7 40 7l-9 -88c-8 -1 -23 -4 -45 -8c-21 -4 -41 -7 -60 -9c-18 -3 -35 -4 -52 -4c-59 0 -109 12 -148 36s-59 64 -59 119
c0 7 0 16 1 25l16 149c11 107 70 167 211 167zM190 278h192l5 46c1 6 1 10 1 13c0 41 -30 62 -89 62c-68 0 -100 -25 -105 -77zM399 538h-89l-90 150h117z" />
    <glyph glyph-name="eacute" unicode="&#xe9;" horiz-adv-x="491" 
d="M303 485c124 0 186 -47 186 -142c0 -8 -1 -17 -2 -28l-12 -119h-294l-3 -26c-1 -7 -1 -13 -1 -16c0 -59 41 -77 118 -77c27 0 64 5 113 14c25 5 38 7 40 7l-9 -88c-8 -1 -23 -4 -45 -8c-21 -4 -41 -7 -60 -9c-18 -3 -35 -4 -52 -4c-59 0 -109 12 -148 36s-59 64 -59 119
c0 7 0 16 1 25l16 149c11 107 70 167 211 167zM190 278h192l5 46c1 6 1 10 1 13c0 41 -30 62 -89 62c-68 0 -100 -25 -105 -77zM293 538h-89l94 150h117z" />
    <glyph glyph-name="ecircumflex" unicode="&#xea;" horiz-adv-x="491" 
d="M303 485c124 0 186 -47 186 -142c0 -8 -1 -17 -2 -28l-12 -119h-294l-3 -26c-1 -7 -1 -13 -1 -16c0 -59 41 -77 118 -77c27 0 64 5 113 14c25 5 38 7 40 7l-9 -88c-8 -1 -23 -4 -45 -8c-21 -4 -41 -7 -60 -9c-18 -3 -35 -4 -52 -4c-59 0 -109 12 -148 36s-59 64 -59 119
c0 7 0 16 1 25l16 149c11 107 70 167 211 167zM190 278h192l5 46c1 6 1 10 1 13c0 41 -30 62 -89 62c-68 0 -100 -25 -105 -77zM233 538h-85l119 150h100l87 -150h-85l-59 88z" />
    <glyph glyph-name="edieresis" unicode="&#xeb;" horiz-adv-x="491" 
d="M303 485c124 0 186 -47 186 -142c0 -8 -1 -17 -2 -28l-12 -119h-294l-3 -26c-1 -7 -1 -13 -1 -16c0 -59 41 -77 118 -77c27 0 64 5 113 14c25 5 38 7 40 7l-9 -88c-8 -1 -23 -4 -45 -8c-21 -4 -41 -7 -60 -9c-18 -3 -35 -4 -52 -4c-59 0 -109 12 -148 36s-59 64 -59 119
c0 7 0 16 1 25l16 149c11 107 70 167 211 167zM190 278h192l5 46c1 6 1 10 1 13c0 41 -30 62 -89 62c-68 0 -100 -25 -105 -77zM265 557h-110l12 113h110zM451 557h-110l12 113h110z" />
    <glyph glyph-name="igrave" unicode="&#xec;" horiz-adv-x="258" 
d="M180 0h-102l49 474h102zM283 538h-89l-90 150h117z" />
    <glyph glyph-name="iacute" unicode="&#xed;" horiz-adv-x="258" 
d="M180 0h-102l49 474h102zM177 538h-89l94 150h117z" />
    <glyph glyph-name="icircumflex" unicode="&#xee;" horiz-adv-x="258" 
d="M180 0h-102l49 474h102zM117 538h-85l119 150h100l87 -150h-85l-59 88z" />
    <glyph glyph-name="idieresis" unicode="&#xef;" horiz-adv-x="258" 
d="M180 0h-102l49 474h102zM149 557h-110l12 113h110zM335 557h-110l12 113h110z" />
    <glyph glyph-name="eth" unicode="&#xf0;" horiz-adv-x="528" 
d="M500 299l-15 -145c-8 -81 -63 -133 -123 -152c-30 -9 -63 -13 -100 -13c-55 0 -100 11 -135 32c-35 22 -53 58 -53 109c0 8 0 16 1 24l15 141c11 105 81 170 222 170c31 0 59 -4 84 -13c-13 30 -32 59 -57 87l-127 -46l-15 64l91 33c-19 18 -43 37 -71 57l54 64
c41 -30 77 -59 106 -88l111 41l16 -64l-80 -30c52 -67 78 -142 78 -223c0 -16 -1 -32 -2 -48zM303 379c-69 0 -106 -33 -113 -98l-10 -96c-1 -12 -2 -22 -2 -29c0 -53 31 -80 93 -80c69 0 107 33 114 98l11 107c1 7 1 12 1 17c0 54 -31 81 -94 81z" />
    <glyph glyph-name="ntilde" unicode="&#xf1;" 
d="M456 0h-102l31 300c1 8 1 14 1 17c0 43 -18 65 -54 65c-13 0 -25 -2 -35 -7l-102 -48l-34 -327h-102l49 474h102l-8 -75l118 82c8 3 17 4 28 4c95 0 143 -50 143 -129c0 -7 0 -14 -1 -23zM316 571l-34 21c-7 3 -16 4 -26 4c-25 0 -41 -14 -48 -41h-80
c13 76 69 122 129 122c25 0 48 -8 71 -23l32 -20c9 -3 18 -4 26 -4c25 0 41 14 48 41h80c-13 -76 -69 -122 -129 -122c-21 0 -44 7 -69 22z" />
    <glyph glyph-name="ograve" unicode="&#xf2;" horiz-adv-x="528" 
d="M309 485c131 0 194 -57 194 -148c0 -7 0 -15 -1 -22l-17 -161c-7 -59 -30 -102 -71 -127c-40 -25 -89 -38 -147 -38c-55 0 -101 11 -138 33s-55 58 -55 109c0 7 0 15 1 23l17 161c11 113 84 170 217 170zM306 401c-69 0 -107 -33 -114 -98l-14 -132c-1 -7 -1 -12 -1 -16
c0 -55 31 -82 94 -82c68 0 106 33 113 98l14 132c1 7 1 13 1 18c0 53 -31 80 -93 80zM418 538h-89l-90 150h117z" />
    <glyph glyph-name="oacute" unicode="&#xf3;" horiz-adv-x="528" 
d="M309 485c131 0 194 -57 194 -148c0 -7 0 -15 -1 -22l-17 -161c-7 -59 -30 -102 -71 -127c-40 -25 -89 -38 -147 -38c-55 0 -101 11 -138 33s-55 58 -55 109c0 7 0 15 1 23l17 161c11 113 84 170 217 170zM306 401c-69 0 -107 -33 -114 -98l-14 -132c-1 -7 -1 -12 -1 -16
c0 -55 31 -82 94 -82c68 0 106 33 113 98l14 132c1 7 1 13 1 18c0 53 -31 80 -93 80zM312 538h-89l94 150h117z" />
    <glyph glyph-name="ocircumflex" unicode="&#xf4;" horiz-adv-x="528" 
d="M309 485c131 0 194 -57 194 -148c0 -7 0 -15 -1 -22l-17 -161c-7 -59 -30 -102 -71 -127c-40 -25 -89 -38 -147 -38c-55 0 -101 11 -138 33s-55 58 -55 109c0 7 0 15 1 23l17 161c11 113 84 170 217 170zM306 401c-69 0 -107 -33 -114 -98l-14 -132c-1 -7 -1 -12 -1 -16
c0 -55 31 -82 94 -82c68 0 106 33 113 98l14 132c1 7 1 13 1 18c0 53 -31 80 -93 80zM252 538h-85l119 150h100l87 -150h-85l-59 88z" />
    <glyph glyph-name="otilde" unicode="&#xf5;" horiz-adv-x="528" 
d="M309 485c131 0 194 -57 194 -148c0 -7 0 -15 -1 -22l-17 -161c-7 -59 -30 -102 -71 -127c-40 -25 -89 -38 -147 -38c-55 0 -101 11 -138 33s-55 58 -55 109c0 7 0 15 1 23l17 161c11 113 84 170 217 170zM306 401c-69 0 -107 -33 -114 -98l-14 -132c-1 -7 -1 -12 -1 -16
c0 -55 31 -82 94 -82c68 0 106 33 113 98l14 132c1 7 1 13 1 18c0 53 -31 80 -93 80zM323 571l-34 21c-7 3 -16 4 -26 4c-25 0 -41 -14 -48 -41h-80c13 76 69 122 129 122c25 0 48 -8 71 -23l32 -20c9 -3 18 -4 26 -4c25 0 41 14 48 41h80c-13 -76 -69 -122 -129 -122
c-21 0 -44 7 -69 22z" />
    <glyph glyph-name="odieresis" unicode="&#xf6;" horiz-adv-x="528" 
d="M309 485c131 0 194 -57 194 -148c0 -7 0 -15 -1 -22l-17 -161c-7 -59 -30 -102 -71 -127c-40 -25 -89 -38 -147 -38c-55 0 -101 11 -138 33s-55 58 -55 109c0 7 0 15 1 23l17 161c11 113 84 170 217 170zM306 401c-69 0 -107 -33 -114 -98l-14 -132c-1 -7 -1 -12 -1 -16
c0 -55 31 -82 94 -82c68 0 106 33 113 98l14 132c1 7 1 13 1 18c0 53 -31 80 -93 80zM284 557h-110l12 113h110zM470 557h-110l12 113h110z" />
    <glyph glyph-name="divide" unicode="&#xf7;" horiz-adv-x="510" 
d="M491 227h-426l10 95h426zM349 384h-108l11 105h108zM217 160h108l-11 -105h-108z" />
    <glyph glyph-name="oslash" unicode="&#xf8;" horiz-adv-x="528" 
d="M309 485c33 0 62 -4 87 -11l46 75l56 -30l-44 -73c33 -27 49 -63 49 -109c0 -7 0 -15 -1 -22l-17 -161c-7 -59 -30 -102 -71 -127c-40 -25 -89 -38 -147 -38c-30 0 -58 3 -84 10l-49 -82l-56 29l47 79c-34 24 -51 59 -51 106c0 7 0 15 1 23l17 161c11 113 84 170 217 170
zM306 401c-69 0 -107 -33 -114 -98l-14 -132c-1 -7 -1 -12 -1 -16c0 -13 2 -25 5 -36l167 276c-13 4 -28 6 -43 6zM399 321c0 7 -1 16 -4 28l-164 -271c10 -3 23 -5 40 -5c68 0 106 33 113 98l14 132c1 7 1 13 1 18z" />
    <glyph glyph-name="ugrave" unicode="&#xf9;" 
d="M107 474h102l-31 -300c-1 -7 -1 -14 -1 -19c0 -41 18 -62 53 -62c15 0 30 3 44 10l92 44l36 327h102l-49 -474h-102l7 75l-117 -82c-9 -3 -18 -4 -29 -4c-96 0 -143 50 -143 130c0 7 0 14 1 22zM411 538h-89l-90 150h117z" />
    <glyph glyph-name="uacute" unicode="&#xfa;" 
d="M107 474h102l-31 -300c-1 -7 -1 -14 -1 -19c0 -41 18 -62 53 -62c15 0 30 3 44 10l92 44l36 327h102l-49 -474h-102l7 75l-117 -82c-9 -3 -18 -4 -29 -4c-96 0 -143 50 -143 130c0 7 0 14 1 22zM305 538h-89l94 150h117z" />
    <glyph glyph-name="ucircumflex" unicode="&#xfb;" 
d="M107 474h102l-31 -300c-1 -7 -1 -14 -1 -19c0 -41 18 -62 53 -62c15 0 30 3 44 10l92 44l36 327h102l-49 -474h-102l7 75l-117 -82c-9 -3 -18 -4 -29 -4c-96 0 -143 50 -143 130c0 7 0 14 1 22zM245 538h-85l119 150h100l87 -150h-85l-59 88z" />
    <glyph glyph-name="udieresis" unicode="&#xfc;" 
d="M107 474h102l-31 -300c-1 -7 -1 -14 -1 -19c0 -41 18 -62 53 -62c15 0 30 3 44 10l92 44l36 327h102l-49 -474h-102l7 75l-117 -82c-9 -3 -18 -4 -29 -4c-96 0 -143 50 -143 130c0 7 0 14 1 22zM277 557h-110l12 113h110zM463 557h-110l12 113h110z" />
    <glyph glyph-name="yacute" unicode="&#xfd;" horiz-adv-x="472" 
d="M213 -212h-97l93 212h-41l-109 474h102l76 -381h10l156 381h108zM284 538h-89l94 150h117z" />
    <glyph glyph-name="thorn" unicode="&#xfe;" 
d="M232 676l-30 -277l118 82c8 3 17 4 28 4c95 0 143 -50 143 -129c0 -7 0 -14 -1 -23l-19 -182c-12 -108 -84 -162 -216 -162c-35 0 -66 7 -93 22l-24 -223h-102l94 888h102zM195 327l-18 -169c-1 -7 -1 -11 -1 -14c0 -42 30 -63 89 -63c65 0 100 25 105 74l15 145
c1 7 1 12 1 17c0 43 -18 64 -53 64c-13 0 -25 -2 -36 -6z" />
    <glyph glyph-name="ydieresis" unicode="&#xff;" horiz-adv-x="472" 
d="M213 -212h-97l93 212h-41l-109 474h102l76 -381h10l156 381h108zM256 557h-110l12 113h110zM442 557h-110l12 113h110z" />
    <glyph glyph-name="Amacron" unicode="&#x100;" horiz-adv-x="666" 
d="M538 0l-45 186h-276l-83 -186h-109l304 676h150l162 -676h-103zM392 581l-133 -298h212l-69 298h-10zM287 768l10 94h252l-10 -94h-252z" />
    <glyph glyph-name="amacron" unicode="&#x101;" 
d="M455 0h-102l7 75l-117 -82c-9 -3 -18 -4 -29 -4c-96 0 -143 50 -143 130c0 7 0 14 1 22l19 180c12 109 79 164 201 164c47 0 83 -7 109 -21l103 10zM368 147l24 229c-33 14 -64 21 -95 21c-64 0 -99 -27 -104 -80l-15 -142c-1 -6 -1 -12 -1 -19c0 -42 18 -63 53 -63
c12 0 24 2 36 6zM181 568l10 90h252l-10 -90h-252z" />
    <glyph glyph-name="Abreve" unicode="&#x102;" horiz-adv-x="666" 
d="M538 0l-45 186h-276l-83 -186h-109l304 676h150l162 -676h-103zM392 581l-133 -298h212l-69 298h-10zM429 732h-40c-68 0 -111 43 -111 118c0 12 1 25 3 38h75c-1 -3 -1 -7 -1 -13c0 -47 25 -70 57 -70h10c35 0 67 27 74 83h75c-4 -96 -62 -156 -142 -156z" />
    <glyph glyph-name="abreve" unicode="&#x103;" 
d="M455 0h-102l7 75l-117 -82c-9 -3 -18 -4 -29 -4c-96 0 -143 50 -143 130c0 7 0 14 1 22l19 180c12 109 79 164 201 164c47 0 83 -7 109 -21l103 10zM368 147l24 229c-33 14 -64 21 -95 21c-64 0 -99 -27 -104 -80l-15 -142c-1 -6 -1 -12 -1 -19c0 -42 18 -63 53 -63
c12 0 24 2 36 6zM323 530h-40c-69 0 -112 44 -112 117c0 7 1 20 4 39h75c-1 -3 -1 -8 -1 -15c0 -45 25 -68 57 -68h10c35 0 66 27 74 83h75c-5 -96 -62 -156 -142 -156z" />
    <glyph glyph-name="Aogonek" unicode="&#x104;" horiz-adv-x="666" 
d="M641 0c-81 -25 -123 -66 -127 -121l-1 -14c-1 -17 17 -26 37 -26l63 9l-8 -67c-27 -7 -53 -11 -78 -11c-69 0 -104 23 -104 69c0 7 0 15 1 23l2 20c5 48 42 88 111 119l-44 185h-276l-83 -186h-109l304 676h150zM392 581l-133 -298h212l-69 298h-10z" />
    <glyph glyph-name="aogonek" unicode="&#x105;" 
d="M504 474l-49 -474c-68 -36 -104 -76 -107 -121l-1 -14c-1 -17 17 -26 37 -26l63 9l-8 -67c-27 -7 -53 -11 -78 -11c-69 0 -104 23 -104 69c0 7 0 15 1 23l2 20c4 42 35 80 93 115l7 78l-117 -82c-9 -3 -18 -4 -29 -4c-96 0 -143 50 -143 130c0 7 0 14 1 22l19 180
c12 109 79 164 201 164c47 0 83 -7 109 -21zM368 147l24 229c-33 14 -64 21 -95 21c-64 0 -99 -27 -104 -80l-15 -142c-1 -6 -1 -12 -1 -19c0 -42 18 -63 53 -63c12 0 24 2 36 6z" />
    <glyph glyph-name="Cacute" unicode="&#x106;" horiz-adv-x="539" 
d="M510 96l-10 -96c-92 -7 -150 -11 -174 -11c-67 0 -115 9 -162 33c-45 24 -71 72 -71 140c0 13 1 26 2 39l29 275c15 141 107 211 278 211c21 0 77 -4 167 -11l-11 -96c-63 8 -116 12 -161 12c-61 0 -104 -11 -129 -32s-40 -61 -46 -118l-21 -195c-2 -17 -3 -32 -3 -43
c0 -85 38 -120 145 -120c40 0 104 5 140 9zM348 740h-89l94 150h117z" />
    <glyph glyph-name="cacute" unicode="&#x107;" horiz-adv-x="418" 
d="M390 12c-41 -15 -88 -23 -141 -23c-117 0 -176 45 -176 135c0 12 0 21 1 26l18 168c11 105 67 167 206 167l132 -10l-9 -89c-51 7 -90 10 -118 10c-67 0 -104 -28 -110 -85l-16 -152c-1 -7 -1 -13 -1 -18c0 -53 30 -64 97 -64c21 0 71 9 103 16l23 5zM257 538h-89l94 150
h117z" />
    <glyph glyph-name="Ccircumflex" unicode="&#x108;" horiz-adv-x="539" 
d="M510 96l-10 -96c-92 -7 -150 -11 -174 -11c-67 0 -115 9 -162 33c-45 24 -71 72 -71 140c0 13 1 26 2 39l29 275c15 141 107 211 278 211c21 0 77 -4 167 -11l-11 -96c-63 8 -116 12 -161 12c-61 0 -104 -11 -129 -32s-40 -61 -46 -118l-21 -195c-2 -17 -3 -32 -3 -43
c0 -85 38 -120 145 -120c40 0 104 5 140 9zM288 740h-85l119 150h100l87 -150h-85l-58 88z" />
    <glyph glyph-name="ccircumflex" unicode="&#x109;" horiz-adv-x="418" 
d="M390 12c-41 -15 -88 -23 -141 -23c-117 0 -176 45 -176 135c0 12 0 21 1 26l18 168c11 105 67 167 206 167l132 -10l-9 -89c-51 7 -90 10 -118 10c-67 0 -104 -28 -110 -85l-16 -152c-1 -7 -1 -13 -1 -18c0 -53 30 -64 97 -64c21 0 71 9 103 16l23 5zM197 538h-85
l119 150h100l87 -150h-85l-59 88z" />
    <glyph glyph-name="Cdotaccent" unicode="&#x10a;" horiz-adv-x="539" 
d="M510 96l-10 -96c-92 -7 -150 -11 -174 -11c-67 0 -115 9 -162 33c-45 24 -71 72 -71 140c0 13 1 26 2 39l29 275c15 141 107 211 278 211c21 0 77 -4 167 -11l-11 -96c-63 8 -116 12 -161 12c-61 0 -104 -11 -129 -32s-40 -61 -46 -118l-21 -195c-2 -17 -3 -32 -3 -43
c0 -85 38 -120 145 -120c40 0 104 5 140 9zM401 764h-104l11 108h104z" />
    <glyph glyph-name="cdotaccent" unicode="&#x10b;" horiz-adv-x="418" 
d="M390 12c-41 -15 -88 -23 -141 -23c-117 0 -176 45 -176 135c0 12 0 21 1 26l18 168c11 105 67 167 206 167l132 -10l-9 -89c-51 7 -90 10 -118 10c-67 0 -104 -28 -110 -85l-16 -152c-1 -7 -1 -13 -1 -18c0 -53 30 -64 97 -64c21 0 71 9 103 16l23 5zM320 562h-104
l11 108h104z" />
    <glyph glyph-name="Ccaron" unicode="&#x10c;" horiz-adv-x="539" 
d="M510 96l-10 -96c-92 -7 -150 -11 -174 -11c-67 0 -115 9 -162 33c-45 24 -71 72 -71 140c0 13 1 26 2 39l29 275c15 141 107 211 278 211c21 0 77 -4 167 -11l-11 -96c-63 8 -116 12 -161 12c-61 0 -104 -11 -129 -32s-40 -61 -46 -118l-21 -195c-2 -17 -3 -32 -3 -43
c0 -85 38 -120 145 -120c40 0 104 5 140 9zM219 890h85l59 -88l77 88h85l-119 -150h-100z" />
    <glyph glyph-name="ccaron" unicode="&#x10d;" horiz-adv-x="418" 
d="M390 12c-41 -15 -88 -23 -141 -23c-117 0 -176 45 -176 135c0 12 0 21 1 26l18 168c11 105 67 167 206 167l132 -10l-9 -89c-51 7 -90 10 -118 10c-67 0 -104 -28 -110 -85l-16 -152c-1 -7 -1 -13 -1 -18c0 -53 30 -64 97 -64c21 0 71 9 103 16l23 5zM128 688h85l59 -88
l77 88h85l-119 -150h-100z" />
    <glyph glyph-name="Dcaron" unicode="&#x10e;" horiz-adv-x="609" 
d="M598 526l-40 -376c-9 -93 -77 -150 -164 -150h-320l71 676h312c41 0 74 -13 101 -39c27 -25 41 -57 41 -94c0 -4 0 -10 -1 -17zM460 184l32 309c1 7 1 12 1 17c0 50 -29 75 -88 75h-168l-52 -493h168c65 0 100 25 107 92zM244 890h85l59 -88l77 88h85l-119 -150h-100z
" />
    <glyph glyph-name="dcaron" unicode="&#x10f;" 
d="M455 0h-102l7 75l-117 -82c-9 -3 -18 -4 -29 -4c-96 0 -143 50 -143 130c0 7 0 14 1 22l19 179c11 110 78 165 201 165c47 0 83 -7 109 -21l26 246h102zM366 147l26 229c-33 14 -64 21 -95 21c-64 0 -99 -27 -104 -80l-15 -142c-1 -7 -1 -14 -1 -19c0 -42 18 -63 53 -63
c16 0 30 3 43 9zM551 533l40 161h103l-71 -161h-72z" />
    <glyph glyph-name="Dcroat" unicode="&#x110;" horiz-adv-x="609" 
d="M31 296l8 82h74l32 298h313c40 0 73 -13 100 -39c27 -25 41 -57 41 -94c0 -4 0 -10 -1 -17l-40 -376c-9 -93 -76 -150 -164 -150h-320l31 296h-74zM460 184l32 309c1 7 1 12 1 17c0 50 -29 75 -88 75h-168l-22 -207h161l-8 -82h-162l-21 -204h168c65 0 100 25 107 92z
" />
    <glyph glyph-name="dslash" unicode="&#x111;" 
d="M280 558l8 74h131l8 78h102l-8 -78h89l-8 -74h-89l-58 -558h-102l7 75l-117 -82c-9 -3 -18 -4 -29 -4c-96 0 -143 50 -143 130c0 7 0 14 1 22l19 179c11 110 78 165 201 165c47 0 83 -7 109 -21l10 94h-131zM366 147l26 229c-33 14 -64 21 -95 21c-64 0 -99 -27 -104 -80
l-15 -142c-1 -7 -1 -14 -1 -19c0 -42 18 -63 53 -63c16 0 30 3 43 9z" />
    <glyph glyph-name="Emacron" unicode="&#x112;" horiz-adv-x="519" 
d="M486 0h-412l71 676h404l-10 -91h-302l-21 -203h255l-10 -90h-255l-21 -200h310zM213 768l10 94h252l-10 -94h-252z" />
    <glyph glyph-name="emacron" unicode="&#x113;" horiz-adv-x="491" 
d="M303 485c124 0 186 -47 186 -142c0 -8 -1 -17 -2 -28l-12 -119h-294l-3 -26c-1 -7 -1 -13 -1 -16c0 -59 41 -77 118 -77c27 0 64 5 113 14c25 5 38 7 40 7l-9 -88c-8 -1 -23 -4 -45 -8c-21 -4 -41 -7 -60 -9c-18 -3 -35 -4 -52 -4c-59 0 -109 12 -148 36s-59 64 -59 119
c0 7 0 16 1 25l16 149c11 107 70 167 211 167zM190 278h192l5 46c1 6 1 10 1 13c0 41 -30 62 -89 62c-68 0 -100 -25 -105 -77zM178 568l10 90h252l-10 -90h-252z" />
    <glyph glyph-name="Ebreve" unicode="&#x114;" horiz-adv-x="519" 
d="M486 0h-412l71 676h404l-10 -91h-302l-21 -203h255l-10 -90h-255l-21 -200h310zM355 732h-40c-68 0 -111 43 -111 118c0 12 1 25 3 38h75c-1 -3 -1 -7 -1 -13c0 -47 25 -70 57 -70h10c35 0 67 27 74 83h75c-4 -96 -62 -156 -142 -156z" />
    <glyph glyph-name="ebreve" unicode="&#x115;" horiz-adv-x="491" 
d="M303 485c124 0 186 -47 186 -142c0 -8 -1 -17 -2 -28l-12 -119h-294l-3 -26c-1 -7 -1 -13 -1 -16c0 -59 41 -77 118 -77c27 0 64 5 113 14c25 5 38 7 40 7l-9 -88c-8 -1 -23 -4 -45 -8c-21 -4 -41 -7 -60 -9c-18 -3 -35 -4 -52 -4c-59 0 -109 12 -148 36s-59 64 -59 119
c0 7 0 16 1 25l16 149c11 107 70 167 211 167zM190 278h192l5 46c1 6 1 10 1 13c0 41 -30 62 -89 62c-68 0 -100 -25 -105 -77zM320 530h-40c-69 0 -112 44 -112 117c0 7 1 20 4 39h75c-1 -3 -1 -8 -1 -15c0 -45 25 -68 57 -68h10c35 0 66 27 74 83h75
c-5 -96 -62 -156 -142 -156z" />
    <glyph glyph-name="Edotaccent" unicode="&#x116;" horiz-adv-x="519" 
d="M486 0h-412l71 676h404l-10 -91h-302l-21 -203h255l-10 -90h-255l-21 -200h310zM391 764h-104l11 108h104z" />
    <glyph glyph-name="edotaccent" unicode="&#x117;" horiz-adv-x="491" 
d="M303 485c124 0 186 -47 186 -142c0 -8 -1 -17 -2 -28l-12 -119h-294l-3 -26c-1 -7 -1 -13 -1 -16c0 -59 41 -77 118 -77c27 0 64 5 113 14c25 5 38 7 40 7l-9 -88c-8 -1 -23 -4 -45 -8c-21 -4 -41 -7 -60 -9c-18 -3 -35 -4 -52 -4c-59 0 -109 12 -148 36s-59 64 -59 119
c0 7 0 16 1 25l16 149c11 107 70 167 211 167zM190 278h192l5 46c1 6 1 10 1 13c0 41 -30 62 -89 62c-68 0 -100 -25 -105 -77zM356 562h-104l11 108h104z" />
    <glyph glyph-name="Eogonek" unicode="&#x118;" horiz-adv-x="519" 
d="M486 0c-73 -33 -112 -74 -115 -121l-1 -14c-1 -17 17 -26 37 -26l63 9l-8 -67c-27 -7 -53 -11 -78 -11c-69 0 -104 23 -104 69c0 7 0 15 1 23l2 20c5 47 41 87 109 118h-318l71 676h404l-10 -91h-302l-21 -203h255l-10 -90h-255l-21 -200h310z" />
    <glyph glyph-name="eogonek" unicode="&#x119;" horiz-adv-x="491" 
d="M303 485c124 0 186 -47 186 -142c0 -8 -1 -17 -2 -28l-12 -119h-294l-3 -26c-1 -7 -1 -13 -1 -16c0 -59 41 -77 118 -77c27 0 64 5 113 14c25 5 38 7 40 7l-10 -88c-73 -37 -112 -81 -116 -131l-1 -14c-1 -17 17 -26 37 -26l63 9l-8 -67c-27 -7 -53 -11 -78 -11
c-69 0 -104 23 -104 69c0 7 0 15 1 23l2 20c4 39 40 81 96 112c-17 -3 -33 -5 -48 -5c-59 0 -109 12 -148 36s-59 64 -59 119c0 7 0 16 1 25l16 149c11 107 70 167 211 167zM190 278h192l5 46c1 6 1 10 1 13c0 41 -30 62 -89 62c-68 0 -100 -25 -105 -77z" />
    <glyph glyph-name="Ecaron" unicode="&#x11a;" horiz-adv-x="519" 
d="M486 0h-412l71 676h404l-10 -91h-302l-21 -203h255l-10 -90h-255l-21 -200h310zM199 890h85l59 -88l77 88h85l-119 -150h-100z" />
    <glyph glyph-name="ecaron" unicode="&#x11b;" horiz-adv-x="491" 
d="M303 485c124 0 186 -47 186 -142c0 -8 -1 -17 -2 -28l-12 -119h-294l-3 -26c-1 -7 -1 -13 -1 -16c0 -59 41 -77 118 -77c27 0 64 5 113 14c25 5 38 7 40 7l-9 -88c-8 -1 -23 -4 -45 -8c-21 -4 -41 -7 -60 -9c-18 -3 -35 -4 -52 -4c-59 0 -109 12 -148 36s-59 64 -59 119
c0 7 0 16 1 25l16 149c11 107 70 167 211 167zM190 278h192l5 46c1 6 1 10 1 13c0 41 -30 62 -89 62c-68 0 -100 -25 -105 -77zM164 688h85l59 -88l77 88h85l-119 -150h-100z" />
    <glyph glyph-name="Gcircumflex" unicode="&#x11c;" horiz-adv-x="620" 
d="M552 4c-123 -10 -198 -15 -226 -15c-155 0 -233 59 -233 176c0 9 1 20 2 35l29 276c15 141 107 211 278 211c21 0 77 -4 167 -11l-11 -96c-63 8 -116 12 -161 12c-61 0 -104 -11 -129 -32s-40 -61 -46 -118l-21 -196c-2 -17 -3 -31 -3 -42c0 -85 38 -120 145 -120
c25 0 63 2 116 7l21 200h-135l10 90h237zM319 740h-85l119 150h100l87 -150h-85l-58 88z" />
    <glyph glyph-name="gcircumflex" unicode="&#x11d;" 
d="M98 -205l9 89c71 -14 116 -21 135 -21c64 0 99 27 104 80l14 132l-117 -82c-9 -3 -18 -4 -29 -4c-96 0 -143 50 -143 130c0 6 0 13 1 22l19 180c12 109 79 164 201 164c47 0 83 -7 109 -21l103 10l-56 -534c-11 -110 -79 -165 -202 -165c-32 0 -90 8 -123 15zM368 147
l24 229c-33 14 -64 21 -95 21c-64 0 -99 -27 -104 -80l-15 -142c-1 -7 -1 -13 -1 -19c0 -42 18 -63 53 -63c15 0 28 3 40 8zM264 538h-85l119 150h100l87 -150h-85l-59 88z" />
    <glyph glyph-name="Gbreve" unicode="&#x11e;" horiz-adv-x="620" 
d="M552 4c-123 -10 -198 -15 -226 -15c-155 0 -233 59 -233 176c0 9 1 20 2 35l29 276c15 141 107 211 278 211c21 0 77 -4 167 -11l-11 -96c-63 8 -116 12 -161 12c-61 0 -104 -11 -129 -32s-40 -61 -46 -118l-21 -196c-2 -17 -3 -31 -3 -42c0 -85 38 -120 145 -120
c25 0 63 2 116 7l21 200h-135l10 90h237zM406 732h-40c-68 0 -111 43 -111 118c0 12 1 25 3 38h75c-1 -3 -1 -7 -1 -13c0 -47 25 -70 57 -70h10c35 0 67 27 74 83h75c-4 -96 -62 -156 -142 -156z" />
    <glyph glyph-name="gbreve" unicode="&#x11f;" 
d="M98 -205l9 89c71 -14 116 -21 135 -21c64 0 99 27 104 80l14 132l-117 -82c-9 -3 -18 -4 -29 -4c-96 0 -143 50 -143 130c0 6 0 13 1 22l19 180c12 109 79 164 201 164c47 0 83 -7 109 -21l103 10l-56 -534c-11 -110 -79 -165 -202 -165c-32 0 -90 8 -123 15zM368 147
l24 229c-33 14 -64 21 -95 21c-64 0 -99 -27 -104 -80l-15 -142c-1 -7 -1 -13 -1 -19c0 -42 18 -63 53 -63c15 0 28 3 40 8zM351 530h-40c-69 0 -112 44 -112 117c0 7 1 20 4 39h75c-1 -3 -1 -8 -1 -15c0 -45 25 -68 57 -68h10c35 0 66 27 74 83h75
c-5 -96 -62 -156 -142 -156z" />
    <glyph glyph-name="Gdotaccent" unicode="&#x120;" horiz-adv-x="620" 
d="M552 4c-123 -10 -198 -15 -226 -15c-155 0 -233 59 -233 176c0 9 1 20 2 35l29 276c15 141 107 211 278 211c21 0 77 -4 167 -11l-11 -96c-63 8 -116 12 -161 12c-61 0 -104 -11 -129 -32s-40 -61 -46 -118l-21 -196c-2 -17 -3 -31 -3 -42c0 -85 38 -120 145 -120
c25 0 63 2 116 7l21 200h-135l10 90h237zM442 764h-104l11 108h104z" />
    <glyph glyph-name="gdotaccent" unicode="&#x121;" 
d="M98 -205l9 89c71 -14 116 -21 135 -21c64 0 99 27 104 80l14 132l-117 -82c-9 -3 -18 -4 -29 -4c-96 0 -143 50 -143 130c0 6 0 13 1 22l19 180c12 109 79 164 201 164c47 0 83 -7 109 -21l103 10l-56 -534c-11 -110 -79 -165 -202 -165c-32 0 -90 8 -123 15zM368 147
l24 229c-33 14 -64 21 -95 21c-64 0 -99 -27 -104 -80l-15 -142c-1 -7 -1 -13 -1 -19c0 -42 18 -63 53 -63c15 0 28 3 40 8zM387 562h-104l11 108h104z" />
    <glyph glyph-name="Gcommaaccent" unicode="&#x122;" horiz-adv-x="620" 
d="M552 4c-123 -10 -198 -15 -226 -15c-155 0 -233 59 -233 176c0 9 1 20 2 35l29 276c15 141 107 211 278 211c21 0 77 -4 167 -11l-11 -96c-63 8 -116 12 -161 12c-61 0 -104 -11 -129 -32s-40 -61 -46 -118l-21 -196c-2 -17 -3 -31 -3 -42c0 -85 38 -120 145 -120
c25 0 63 2 116 7l21 200h-135l10 90h237zM223 -221l47 166h97l-68 -166h-76z" />
    <glyph glyph-name="gcommaaccent" unicode="&#x123;" 
d="M98 -205l9 89c71 -14 116 -21 135 -21c64 0 99 27 104 80l14 132l-117 -82c-9 -3 -18 -4 -29 -4c-96 0 -143 50 -143 130c0 6 0 13 1 22l19 180c12 109 79 164 201 164c47 0 83 -7 109 -21l103 10l-56 -534c-11 -110 -79 -165 -202 -165c-32 0 -90 8 -123 15zM368 147
l24 229c-33 14 -64 21 -95 21c-64 0 -99 -27 -104 -80l-15 -142c-1 -7 -1 -13 -1 -19c0 -42 18 -63 53 -63c15 0 28 3 40 8zM268 537l47 166h97l-68 -166h-76z" />
    <glyph glyph-name="Hcircumflex" unicode="&#x124;" horiz-adv-x="639" 
d="M565 0h-102l30 292h-287l-30 -292h-102l71 676h102l-31 -294h287l31 294h102zM328 740h-85l119 150h100l87 -150h-85l-58 88z" />
    <glyph glyph-name="hcircumflex" unicode="&#x125;" 
d="M195 327l-34 -327h-102l74 710h102l-33 -311l118 82c8 3 17 4 28 4c96 0 143 -50 143 -129c0 -8 0 -16 -1 -23l-34 -333h-102l31 300c1 7 1 13 1 17c0 43 -18 64 -53 64c-15 0 -28 -3 -40 -8zM118 740h-85l119 150h100l87 -150h-85l-58 88z" />
    <glyph glyph-name="Hbar" unicode="&#x126;" horiz-adv-x="639" 
d="M565 0h-102l30 292h-287l-30 -292h-102l71 676h102l-12 -109h287l12 109h102zM216 382h287l10 99h-287z" />
    <glyph glyph-name="hbar" unicode="&#x127;" 
d="M195 327l-34 -327h-102l58 559h-71l8 72h71l8 79h102l-9 -79h167l-8 -72h-166l-17 -160l118 82c8 3 17 4 28 4c96 0 143 -50 143 -129c0 -8 0 -16 -1 -23l-34 -333h-102l31 300c1 7 1 13 1 17c0 43 -18 64 -53 64c-15 0 -28 -3 -40 -8z" />
    <glyph glyph-name="Itilde" unicode="&#x128;" horiz-adv-x="278" 
d="M190 0h-102l71 676h102zM219 773l-34 21c-7 3 -16 4 -26 4c-25 0 -41 -14 -48 -41h-80c13 76 69 122 129 122c25 0 48 -8 71 -23l32 -20c9 -3 18 -4 26 -4c25 0 41 14 48 41h80c-13 -76 -69 -122 -129 -122c-21 0 -44 7 -69 22z" />
    <glyph glyph-name="itilde" unicode="&#x129;" horiz-adv-x="258" 
d="M180 0h-102l49 474h102zM188 571l-34 21c-7 3 -16 4 -26 4c-25 0 -41 -14 -48 -41h-80c13 76 69 122 129 122c25 0 48 -8 71 -23l32 -20c9 -3 18 -4 26 -4c25 0 41 14 48 41h80c-13 -76 -69 -122 -129 -122c-21 0 -44 7 -69 22z" />
    <glyph glyph-name="Imacron" unicode="&#x12a;" horiz-adv-x="278" 
d="M190 0h-102l71 676h102zM93 768l10 94h252l-10 -94h-252z" />
    <glyph glyph-name="imacron" unicode="&#x12b;" horiz-adv-x="258" 
d="M180 0h-102l49 474h102zM62 568l10 90h252l-10 -90h-252z" />
    <glyph glyph-name="Ibreve" unicode="&#x12c;" horiz-adv-x="278" 
d="M190 0h-102l71 676h102zM235 732h-40c-68 0 -111 43 -111 118c0 12 1 25 3 38h75c-1 -3 -1 -7 -1 -13c0 -47 25 -70 57 -70h10c35 0 67 27 74 83h75c-4 -96 -62 -156 -142 -156z" />
    <glyph glyph-name="ibreve" unicode="&#x12d;" horiz-adv-x="258" 
d="M180 0h-102l49 474h102zM204 530h-40c-69 0 -112 44 -112 117c0 7 1 20 4 39h75c-1 -3 -1 -8 -1 -15c0 -45 25 -68 57 -68h10c35 0 66 27 74 83h75c-5 -96 -62 -156 -142 -156z" />
    <glyph glyph-name="Iogonek" unicode="&#x12e;" horiz-adv-x="278" 
d="M190 0c-74 -30 -113 -70 -117 -121l-1 -14c-1 -17 17 -26 37 -26l63 9l-8 -67c-27 -7 -53 -11 -78 -11c-69 0 -104 23 -104 69c0 7 0 15 1 23l2 20c6 49 40 89 103 118l71 676h102z" />
    <glyph glyph-name="iogonek" unicode="&#x12f;" horiz-adv-x="258" 
d="M180 0c-74 -33 -113 -73 -117 -121l-1 -14c-1 -17 17 -26 37 -26l63 9l-8 -67c-27 -7 -53 -11 -78 -11c-69 0 -104 23 -104 69c0 7 0 15 1 23l2 20c6 48 40 87 103 118l49 474h102zM240 579h-102l14 131h102z" />
    <glyph glyph-name="Idot" unicode="&#x130;" horiz-adv-x="278" 
d="M190 0h-102l71 676h102zM271 764h-104l11 108h104z" />
    <glyph glyph-name="dotlessi" unicode="&#x131;" horiz-adv-x="258" 
d="M180 0h-102l49 474h102z" />
    <glyph glyph-name="IJ" unicode="&#x132;" horiz-adv-x="556" 
d="M190 0h-102l71 676h102zM315 -156h-109l10 92h80l70 64l71 676h102l-75 -709c-2 -6 -8 -14 -18 -24l-101 -93c-7 -4 -17 -6 -30 -6z" />
    <glyph glyph-name="ij" unicode="&#x133;" horiz-adv-x="516" 
d="M180 0h-102l49 474h102zM240 579h-102l14 131h102zM498 579h-102l14 131h102zM210 -221l10 89c81 -5 103 20 110 81l55 525h102l-56 -534c-11 -104 -51 -165 -162 -165c-23 0 -42 1 -59 4z" />
    <glyph glyph-name="Jcircumflex" unicode="&#x134;" horiz-adv-x="278" 
d="M148 740h-85l119 150h100l87 -150h-85l-58 88zM37 -156h-109l10 92h80l70 64l71 676h102l-75 -709c-2 -6 -8 -14 -18 -24l-101 -93c-7 -4 -17 -6 -30 -6z" />
    <glyph glyph-name="jcircumflex" unicode="&#x135;" horiz-adv-x="258" 
d="M117 538h-85l119 150h100l87 -150h-85l-59 88zM-44 -224l10 91c63 -5 99 26 106 82l55 525h102l-55 -529c-12 -111 -85 -181 -218 -169z" />
    <glyph glyph-name="Kcommaaccent" unicode="&#x136;" horiz-adv-x="554" 
d="M543 0h-119l-215 292h-10l-30 -292h-102l71 676h102l-31 -294h10l276 294h120l-317 -342zM190 -221l47 166h97l-68 -166h-76z" />
    <glyph glyph-name="kcommaaccent" unicode="&#x137;" horiz-adv-x="462" 
d="M451 0h-123l-136 204h-10l-21 -204h-102l74 710h102l-46 -439h10l193 222l104 -29l-211 -230zM144 -221l47 166h97l-68 -166h-76z" />
    <glyph glyph-name="kgreenlandic" unicode="&#x138;" horiz-adv-x="462" 
d="M451 0h-123l-136 204h-10l-21 -204h-102l49 474h102l-21 -203h10l193 222l104 -29l-211 -230z" />
    <glyph glyph-name="Lacute" unicode="&#x139;" horiz-adv-x="491" 
d="M470 0h-396l71 676h102l-62 -584h294zM238 740h-89l94 150h117z" />
    <glyph glyph-name="lacute" unicode="&#x13a;" horiz-adv-x="258" 
d="M180 0h-102l74 710h102zM198 740h-89l94 150h117z" />
    <glyph glyph-name="Lcommaaccent" unicode="&#x13b;" horiz-adv-x="491" 
d="M470 0h-396l71 676h102l-62 -584h294zM158 -221l47 166h97l-68 -166h-76z" />
    <glyph glyph-name="lcommaaccent" unicode="&#x13c;" horiz-adv-x="258" 
d="M180 0h-102l74 710h102zM42 -221l47 166h97l-68 -166h-76z" />
    <glyph glyph-name="Lcaron" unicode="&#x13d;" horiz-adv-x="491" 
d="M470 0h-396l71 676h102l-62 -584h294zM291 527l40 161h103l-71 -161h-72z" />
    <glyph glyph-name="lcaron" unicode="&#x13e;" horiz-adv-x="258" 
d="M180 0h-102l74 710h102zM282 533l40 161h103l-71 -161h-72z" />
    <glyph glyph-name="Ldot" unicode="&#x13f;" horiz-adv-x="491" 
d="M470 0h-396l71 676h102l-62 -584h294zM414 303h-104l11 108h104z" />
    <glyph glyph-name="ldot" unicode="&#x140;" horiz-adv-x="331" 
d="M180 0h-102l74 710h102zM374 312h-104l11 108h104z" />
    <glyph glyph-name="Lslash" unicode="&#x141;" horiz-adv-x="491" 
d="M470 0h-396l29 282l-67 -36l-29 61l105 55l33 314h102l-27 -257l120 64l29 -58l-158 -85l-26 -248h294z" />
    <glyph glyph-name="lslash" unicode="&#x142;" horiz-adv-x="258" 
d="M180 0h-102l29 280l-54 -29l-30 61l92 49l37 349h102l-31 -292l57 30l28 -58l-93 -51z" />
    <glyph glyph-name="Nacute" unicode="&#x143;" horiz-adv-x="669" 
d="M595 0h-102l-264 512l-53 -512h-102l71 676h101l264 -513l54 513h102zM403 740h-89l94 150h117z" />
    <glyph glyph-name="nacute" unicode="&#x144;" 
d="M456 0h-102l31 300c1 8 1 14 1 17c0 43 -18 65 -54 65c-13 0 -25 -2 -35 -7l-102 -48l-34 -327h-102l49 474h102l-8 -75l118 82c8 3 17 4 28 4c95 0 143 -50 143 -129c0 -7 0 -14 -1 -23zM305 538h-89l94 150h117z" />
    <glyph glyph-name="Ncommaaccent" unicode="&#x145;" horiz-adv-x="669" 
d="M595 0h-102l-264 512l-53 -512h-102l71 676h101l264 -513l54 513h102zM247 -221l47 166h97l-68 -166h-76z" />
    <glyph glyph-name="ncommaaccent" unicode="&#x146;" 
d="M456 0h-102l31 300c1 8 1 14 1 17c0 43 -18 65 -54 65c-13 0 -25 -2 -35 -7l-102 -48l-34 -327h-102l49 474h102l-8 -75l118 82c8 3 17 4 28 4c95 0 143 -50 143 -129c0 -7 0 -14 -1 -23zM170 -221l47 166h97l-68 -166h-76z" />
    <glyph glyph-name="Ncaron" unicode="&#x147;" horiz-adv-x="669" 
d="M595 0h-102l-264 512l-53 -512h-102l71 676h101l264 -513l54 513h102zM274 890h85l59 -88l77 88h85l-119 -150h-100z" />
    <glyph glyph-name="ncaron" unicode="&#x148;" 
d="M456 0h-102l31 300c1 8 1 14 1 17c0 43 -18 65 -54 65c-13 0 -25 -2 -35 -7l-102 -48l-34 -327h-102l49 474h102l-8 -75l118 82c8 3 17 4 28 4c95 0 143 -50 143 -129c0 -7 0 -14 -1 -23zM176 688h85l59 -88l77 88h85l-119 -150h-100z" />
    <glyph glyph-name="Eng" unicode="&#x14a;" horiz-adv-x="669" 
d="M666 676l-75 -709c-2 -6 -8 -14 -18 -24l-101 -93c-7 -4 -17 -6 -30 -6h-110l10 92h81l70 64l-264 512l-53 -512h-102l71 676h101l264 -513l54 513h102z" />
    <glyph glyph-name="eng" unicode="&#x14b;" 
d="M490 333l-41 -393c-11 -104 -51 -165 -162 -165c-23 0 -43 1 -60 4l10 89c83 -5 104 20 111 81l37 351c1 8 1 14 1 17c0 43 -18 65 -54 65c-13 0 -25 -2 -35 -7l-102 -48l-34 -327h-102l49 474h102l-8 -75l118 82c8 3 17 4 28 4c95 0 143 -50 143 -129c0 -7 0 -14 -1 -23
z" />
    <glyph glyph-name="Omacron" unicode="&#x14c;" horiz-adv-x="638" 
d="M388 687c67 0 122 -15 164 -44s63 -75 63 -138c0 -13 0 -23 -1 -29l-29 -276c-16 -148 -121 -211 -265 -211c-67 0 -122 14 -164 43s-63 74 -63 137c0 7 1 17 2 32l29 275c16 148 120 211 264 211zM381 593c-92 0 -147 -37 -158 -142l-24 -224c-1 -13 -2 -23 -2 -32
c0 -83 46 -112 130 -112c92 0 147 36 158 143l24 225c1 14 2 24 2 30c0 75 -43 112 -130 112zM273 768l10 94h252l-10 -94h-252z" />
    <glyph glyph-name="omacron" unicode="&#x14d;" horiz-adv-x="528" 
d="M309 485c131 0 194 -57 194 -148c0 -7 0 -15 -1 -22l-17 -161c-7 -59 -30 -102 -71 -127c-40 -25 -89 -38 -147 -38c-55 0 -101 11 -138 33s-55 58 -55 109c0 7 0 15 1 23l17 161c11 113 84 170 217 170zM306 401c-69 0 -107 -33 -114 -98l-14 -132c-1 -7 -1 -12 -1 -16
c0 -55 31 -82 94 -82c68 0 106 33 113 98l14 132c1 7 1 13 1 18c0 53 -31 80 -93 80zM197 568l10 90h252l-10 -90h-252z" />
    <glyph glyph-name="Obreve" unicode="&#x14e;" horiz-adv-x="638" 
d="M388 687c67 0 122 -15 164 -44s63 -75 63 -138c0 -13 0 -23 -1 -29l-29 -276c-16 -148 -121 -211 -265 -211c-67 0 -122 14 -164 43s-63 74 -63 137c0 7 1 17 2 32l29 275c16 148 120 211 264 211zM381 593c-92 0 -147 -37 -158 -142l-24 -224c-1 -13 -2 -23 -2 -32
c0 -83 46 -112 130 -112c92 0 147 36 158 143l24 225c1 14 2 24 2 30c0 75 -43 112 -130 112zM415 732h-40c-68 0 -111 43 -111 118c0 12 1 25 3 38h75c-1 -3 -1 -7 -1 -13c0 -47 25 -70 57 -70h10c35 0 67 27 74 83h75c-4 -96 -62 -156 -142 -156z" />
    <glyph glyph-name="obreve" unicode="&#x14f;" horiz-adv-x="528" 
d="M309 485c131 0 194 -57 194 -148c0 -7 0 -15 -1 -22l-17 -161c-7 -59 -30 -102 -71 -127c-40 -25 -89 -38 -147 -38c-55 0 -101 11 -138 33s-55 58 -55 109c0 7 0 15 1 23l17 161c11 113 84 170 217 170zM306 401c-69 0 -107 -33 -114 -98l-14 -132c-1 -7 -1 -12 -1 -16
c0 -55 31 -82 94 -82c68 0 106 33 113 98l14 132c1 7 1 13 1 18c0 53 -31 80 -93 80zM339 530h-40c-69 0 -112 44 -112 117c0 7 1 20 4 39h75c-1 -3 -1 -8 -1 -15c0 -45 25 -68 57 -68h10c35 0 66 27 74 83h75c-5 -96 -62 -156 -142 -156z" />
    <glyph glyph-name="Ohungarumlaut" unicode="&#x150;" horiz-adv-x="638" 
d="M388 687c67 0 122 -15 164 -44s63 -75 63 -138c0 -13 0 -23 -1 -29l-29 -276c-16 -148 -121 -211 -265 -211c-67 0 -122 14 -164 43s-63 74 -63 137c0 7 1 17 2 32l29 275c16 148 120 211 264 211zM381 593c-92 0 -147 -37 -158 -142l-24 -224c-1 -13 -2 -23 -2 -32
c0 -83 46 -112 130 -112c92 0 147 36 158 143l24 225c1 14 2 24 2 30c0 75 -43 112 -130 112zM222 755l105 164h104l-125 -164h-84zM382 755l105 164h104l-125 -164h-84z" />
    <glyph glyph-name="ohungarumlaut" unicode="&#x151;" horiz-adv-x="528" 
d="M309 485c131 0 194 -57 194 -148c0 -7 0 -15 -1 -22l-17 -161c-7 -59 -30 -102 -71 -127c-40 -25 -89 -38 -147 -38c-55 0 -101 11 -138 33s-55 58 -55 109c0 7 0 15 1 23l17 161c11 113 84 170 217 170zM306 401c-69 0 -107 -33 -114 -98l-14 -132c-1 -7 -1 -12 -1 -16
c0 -55 31 -82 94 -82c68 0 106 33 113 98l14 132c1 7 1 13 1 18c0 53 -31 80 -93 80zM144 531l105 164h104l-125 -164h-84zM304 531l105 164h104l-125 -164h-84z" />
    <glyph glyph-name="OE" unicode="&#x152;" horiz-adv-x="907" 
d="M874 0h-412l1 19c-47 -20 -99 -30 -156 -30c-128 0 -214 54 -214 178c0 10 1 21 2 33l29 276c17 157 135 211 258 211c56 0 105 -11 148 -33l3 22h404l-10 -91h-302l-21 -203h255l-10 -90h-255l-21 -200h310zM381 593c-92 0 -147 -37 -158 -142l-24 -225
c-1 -13 -2 -23 -2 -29c0 -84 46 -114 130 -114c92 0 147 36 158 143l24 225c1 7 1 16 1 28c0 84 -46 114 -129 114z" />
    <glyph glyph-name="oe" unicode="&#x153;" horiz-adv-x="799" 
d="M612 485c123 0 185 -47 185 -142c0 -8 0 -15 -1 -21l-13 -126h-294l-3 -26c-1 -3 -1 -8 -1 -15c0 -60 41 -78 118 -78c27 0 64 5 113 14c25 5 38 7 40 7l-9 -88c-7 -1 -23 -4 -46 -8s-44 -7 -63 -9c-19 -3 -36 -4 -53 -4c-69 0 -123 16 -160 49c-39 -33 -94 -49 -163 -49
c-55 0 -100 11 -135 32c-35 22 -53 58 -53 109c0 9 0 17 1 24l17 161c11 105 81 170 222 170c66 0 115 -14 147 -43c37 29 88 43 151 43zM305 399c-69 0 -106 -33 -113 -98l-13 -127c-1 -7 -1 -13 -1 -18c0 -53 31 -80 93 -80c69 0 107 31 113 92l14 133c1 4 1 10 1 17
c0 54 -31 81 -94 81zM498 278h192l5 46c1 6 1 10 1 13c0 41 -30 62 -89 62c-68 0 -100 -25 -105 -77z" />
    <glyph glyph-name="Racute" unicode="&#x154;" horiz-adv-x="606" 
d="M372 740h-89l94 150h117zM579 0h-111l-115 284h-148l-29 -284h-102l71 676h296c84 0 137 -56 137 -132c0 -5 0 -11 -1 -18l-10 -92c-8 -77 -55 -128 -107 -143zM468 458l4 42c1 7 1 14 1 19c0 44 -26 66 -79 66h-157l-22 -210h157c59 0 91 28 96 83z" />
    <glyph glyph-name="racute" unicode="&#x155;" horiz-adv-x="326" 
d="M161 0h-102l49 474h102l-11 -110h5c3 7 4 14 23 39c9 13 20 24 31 34c23 20 66 41 114 42l-12 -109c-41 1 -84 -17 -108 -34c-11 -9 -23 -20 -34 -33c-23 -25 -23 -30 -30 -41zM211 538h-89l94 150h117z" />
    <glyph glyph-name="Rcommaaccent" unicode="&#x156;" horiz-adv-x="606" 
d="M216 -221l47 166h97l-68 -166h-76zM579 0h-111l-115 284h-148l-29 -284h-102l71 676h296c84 0 137 -56 137 -132c0 -5 0 -11 -1 -18l-10 -92c-8 -77 -55 -128 -107 -143zM468 458l4 42c1 7 1 14 1 19c0 44 -26 66 -79 66h-157l-22 -210h157c59 0 91 28 96 83z" />
    <glyph glyph-name="rcommaaccent" unicode="&#x157;" horiz-adv-x="326" 
d="M161 0h-102l49 474h102l-11 -110h5c3 7 4 14 23 39c9 13 20 24 31 34c23 20 66 41 114 42l-12 -109c-41 1 -84 -17 -108 -34c-11 -9 -23 -20 -34 -33c-23 -25 -23 -30 -30 -41zM24 -221l47 166h97l-68 -166h-76z" />
    <glyph glyph-name="Rcaron" unicode="&#x158;" horiz-adv-x="606" 
d="M243 890h85l59 -88l77 88h85l-119 -150h-100zM579 0h-111l-115 284h-148l-29 -284h-102l71 676h296c84 0 137 -56 137 -132c0 -5 0 -11 -1 -18l-10 -92c-8 -77 -55 -128 -107 -143zM468 458l4 42c1 7 1 14 1 19c0 44 -26 66 -79 66h-157l-22 -210h157c59 0 91 28 96 83z
" />
    <glyph glyph-name="rcaron" unicode="&#x159;" horiz-adv-x="326" 
d="M161 0h-102l49 474h102l-11 -110h5c3 7 4 14 23 39c9 13 20 24 31 34c23 20 66 41 114 42l-12 -109c-41 1 -84 -17 -108 -34c-11 -9 -23 -20 -34 -33c-23 -25 -23 -30 -30 -41zM82 688h85l59 -88l77 88h85l-119 -150h-100z" />
    <glyph glyph-name="Sacute" unicode="&#x15a;" horiz-adv-x="554" 
d="M524 224l-6 -61c-11 -116 -93 -174 -245 -174c-29 0 -60 1 -95 3c-35 1 -62 3 -83 4l-31 3l11 99c75 -8 140 -12 195 -12c95 0 140 28 147 89l3 28c1 7 1 14 1 20c0 36 -17 55 -73 62l-108 13c-81 9 -131 66 -131 145c0 5 0 12 1 20l6 54c13 113 93 170 240 170
c51 0 112 -4 183 -11l-11 -97c-75 9 -132 13 -170 13c-93 0 -137 -25 -142 -88l-2 -25c-1 -8 -1 -14 -1 -19c0 -37 23 -59 70 -65l114 -14c79 -9 128 -61 128 -138c0 -5 0 -12 -1 -19zM346 740h-89l94 150h117z" />
    <glyph glyph-name="sacute" unicode="&#x15b;" horiz-adv-x="456" 
d="M422 148l-3 -32c-4 -45 -25 -77 -63 -97s-81 -30 -130 -30s-114 4 -146 8l-24 3l9 89c65 -8 117 -12 156 -12c61 0 93 16 97 48l2 16c1 6 1 10 1 13c0 19 -15 31 -44 35l-90 12c-61 8 -101 48 -101 107c0 5 0 10 1 16l4 34c9 84 80 127 193 127c40 0 96 -4 124 -7l21 -3
l-9 -89c-53 7 -96 10 -131 10c-65 0 -92 -14 -97 -51l-2 -15c-1 -5 -1 -9 -1 -11c0 -20 11 -29 46 -34l88 -12c63 -9 100 -49 100 -106c0 -5 0 -11 -1 -19zM276 538h-89l94 150h117z" />
    <glyph glyph-name="Scircumflex" unicode="&#x15c;" horiz-adv-x="554" 
d="M524 224l-6 -61c-11 -116 -93 -174 -245 -174c-29 0 -60 1 -95 3c-35 1 -62 3 -83 4l-31 3l11 99c75 -8 140 -12 195 -12c95 0 140 28 147 89l3 28c1 7 1 14 1 20c0 36 -17 55 -73 62l-108 13c-81 9 -131 66 -131 145c0 5 0 12 1 20l6 54c13 113 93 170 240 170
c51 0 112 -4 183 -11l-11 -97c-75 9 -132 13 -170 13c-93 0 -137 -25 -142 -88l-2 -25c-1 -8 -1 -14 -1 -19c0 -37 23 -59 70 -65l114 -14c79 -9 128 -61 128 -138c0 -5 0 -12 -1 -19zM286 740h-85l119 150h100l87 -150h-85l-58 88z" />
    <glyph glyph-name="scircumflex" unicode="&#x15d;" horiz-adv-x="456" 
d="M422 148l-3 -32c-4 -45 -25 -77 -63 -97s-81 -30 -130 -30s-114 4 -146 8l-24 3l9 89c65 -8 117 -12 156 -12c61 0 93 16 97 48l2 16c1 6 1 10 1 13c0 19 -15 31 -44 35l-90 12c-61 8 -101 48 -101 107c0 5 0 10 1 16l4 34c9 84 80 127 193 127c40 0 96 -4 124 -7l21 -3
l-9 -89c-53 7 -96 10 -131 10c-65 0 -92 -14 -97 -51l-2 -15c-1 -5 -1 -9 -1 -11c0 -20 11 -29 46 -34l88 -12c63 -9 100 -49 100 -106c0 -5 0 -11 -1 -19zM216 538h-85l119 150h100l87 -150h-85l-59 88z" />
    <glyph glyph-name="Scedilla" unicode="&#x15e;" horiz-adv-x="554" 
d="M161 -219l7 62c24 -6 44 -9 61 -9c27 0 42 9 43 26l2 18c1 13 -9 21 -26 21c-3 0 -5 0 -8 -1l-32 31l51 60c-27 0 -57 1 -90 3c-33 1 -58 3 -77 4l-28 3l11 99c75 -8 140 -12 195 -12c95 0 140 28 147 89l3 28c1 7 1 14 1 20c0 36 -17 55 -73 62l-108 13
c-81 9 -131 66 -131 145c0 5 0 12 1 20l6 54c13 113 93 170 240 170c51 0 112 -4 183 -11l-11 -97c-75 9 -132 13 -170 13c-93 0 -137 -25 -142 -88l-2 -25c-1 -8 -1 -14 -1 -19c0 -37 23 -59 70 -65l114 -14c79 -9 128 -61 128 -138c0 -5 0 -12 -1 -19l-6 -61
c-11 -103 -75 -160 -194 -171l-38 -45c47 0 71 -18 71 -55c0 -5 0 -10 -1 -15l-3 -24c-6 -55 -45 -83 -116 -83c-21 0 -47 4 -76 11z" />
    <glyph glyph-name="scedilla" unicode="&#x15f;" horiz-adv-x="456" 
d="M112 -219l7 62c24 -6 44 -9 61 -9c27 0 42 9 43 26l2 18c1 13 -9 21 -26 21c-3 0 -5 0 -8 -1l-32 31l51 60c-47 0 -105 5 -133 9l-21 2l9 89c65 -8 117 -12 156 -12c61 0 93 16 97 48l2 16c1 6 1 10 1 13c0 19 -15 31 -44 35l-90 12c-61 8 -101 48 -101 107
c0 5 0 10 1 16l4 34c9 84 80 127 193 127c40 0 96 -4 124 -7l21 -3l-9 -89c-53 7 -96 10 -131 10c-65 0 -92 -14 -97 -51l-2 -15c-1 -5 -1 -9 -1 -11c0 -20 11 -29 46 -34l88 -12c63 -9 100 -49 100 -106c0 -5 0 -11 -1 -19l-3 -32c-7 -75 -67 -112 -144 -123l-38 -46
c47 0 71 -18 71 -55c0 -5 0 -10 -1 -15l-3 -24c-6 -55 -45 -83 -116 -83c-21 0 -47 4 -76 11z" />
    <glyph glyph-name="Scaron" unicode="&#x160;" horiz-adv-x="554" 
d="M524 224l-6 -61c-11 -116 -93 -174 -245 -174c-29 0 -60 1 -95 3c-35 1 -62 3 -83 4l-31 3l11 99c75 -8 140 -12 195 -12c95 0 140 28 147 89l3 28c1 7 1 14 1 20c0 36 -17 55 -73 62l-108 13c-81 9 -131 66 -131 145c0 5 0 12 1 20l6 54c13 113 93 170 240 170
c51 0 112 -4 183 -11l-11 -97c-75 9 -132 13 -170 13c-93 0 -137 -25 -142 -88l-2 -25c-1 -8 -1 -14 -1 -19c0 -37 23 -59 70 -65l114 -14c79 -9 128 -61 128 -138c0 -5 0 -12 -1 -19zM217 890h85l59 -88l77 88h85l-119 -150h-100z" />
    <glyph glyph-name="scaron" unicode="&#x161;" horiz-adv-x="456" 
d="M422 148l-3 -32c-4 -45 -25 -77 -63 -97s-81 -30 -130 -30s-114 4 -146 8l-24 3l9 89c65 -8 117 -12 156 -12c61 0 93 16 97 48l2 16c1 6 1 10 1 13c0 19 -15 31 -44 35l-90 12c-61 8 -101 48 -101 107c0 5 0 10 1 16l4 34c9 84 80 127 193 127c40 0 96 -4 124 -7l21 -3
l-9 -89c-53 7 -96 10 -131 10c-65 0 -92 -14 -97 -51l-2 -15c-1 -5 -1 -9 -1 -11c0 -20 11 -29 46 -34l88 -12c63 -9 100 -49 100 -106c0 -5 0 -11 -1 -19zM147 688h85l59 -88l77 88h85l-119 -150h-100z" />
    <glyph glyph-name="Tcommaaccent" unicode="&#x162;" horiz-adv-x="492" 
d="M543 585h-185l-61 -585h-102l61 585h-185l10 91h472zM159 -221l47 166h97l-68 -166h-76z" />
    <glyph glyph-name="tcommaaccent" unicode="&#x163;" horiz-adv-x="347" 
d="M334 86l-10 -88c-19 -5 -44 -8 -73 -8c-92 0 -138 39 -138 117c0 8 1 18 2 30l27 255h-78l8 82h78l11 100l49 36h57l-15 -136h127l-8 -82h-127l-24 -224c-1 -17 -2 -29 -2 -34c0 -36 12 -53 51 -53c20 0 42 2 65 5zM86 -221l47 166h97l-68 -166h-76z" />
    <glyph glyph-name="Tcaron" unicode="&#x164;" horiz-adv-x="492" 
d="M543 585h-185l-61 -585h-102l61 585h-185l10 91h472zM186 890h85l59 -88l77 88h85l-119 -150h-100z" />
    <glyph glyph-name="tcaron" unicode="&#x165;" horiz-adv-x="347" 
d="M334 86l-10 -88c-19 -5 -44 -8 -73 -8c-92 0 -138 39 -138 117c0 8 1 18 2 30l27 255h-78l8 82h78l11 100l49 36h57l-15 -136h127l-8 -82h-127l-24 -224c-1 -17 -2 -29 -2 -34c0 -36 12 -53 51 -53c20 0 42 2 65 5zM318 527l40 161h103l-71 -161h-72z" />
    <glyph glyph-name="Tbar" unicode="&#x166;" horiz-adv-x="492" 
d="M543 585h-185l-22 -207h137l-8 -82h-137l-31 -296h-102l31 296h-141l8 82h141l22 207h-185l10 91h472z" />
    <glyph glyph-name="tbar" unicode="&#x167;" horiz-adv-x="347" 
d="M47 231l8 74h78l9 87h-78l8 82h78l11 100l49 36h57l-15 -136h127l-8 -82h-127l-9 -87h92l-8 -74h-92l-7 -63c-1 -17 -2 -29 -2 -34c0 -36 12 -53 51 -53c20 0 42 2 65 5l-10 -88c-19 -5 -44 -8 -73 -8c-92 0 -138 39 -138 117c0 8 1 18 2 30l10 94h-78z" />
    <glyph glyph-name="Utilde" unicode="&#x168;" horiz-adv-x="638" 
d="M317 -11c-65 0 -119 15 -161 46s-63 76 -63 137c0 6 1 16 2 29l50 475h102l-48 -455c-1 -12 -2 -20 -2 -25c0 -74 43 -111 130 -111c95 0 148 45 158 135l48 456h102l-50 -475c-7 -70 -36 -123 -86 -159c-50 -35 -111 -53 -182 -53zM399 773l-34 21c-7 3 -16 4 -26 4
c-25 0 -41 -14 -48 -41h-80c13 76 69 122 129 122c25 0 48 -8 71 -23l32 -20c9 -3 18 -4 26 -4c25 0 41 14 48 41h80c-13 -76 -69 -122 -129 -122c-21 0 -44 7 -69 22z" />
    <glyph glyph-name="utilde" unicode="&#x169;" 
d="M107 474h102l-31 -300c-1 -7 -1 -14 -1 -19c0 -41 18 -62 53 -62c15 0 30 3 44 10l92 44l36 327h102l-49 -474h-102l7 75l-117 -82c-9 -3 -18 -4 -29 -4c-96 0 -143 50 -143 130c0 7 0 14 1 22zM316 571l-34 21c-7 3 -16 4 -26 4c-25 0 -41 -14 -48 -41h-80
c13 76 69 122 129 122c25 0 48 -8 71 -23l32 -20c9 -3 18 -4 26 -4c25 0 41 14 48 41h80c-13 -76 -69 -122 -129 -122c-21 0 -44 7 -69 22z" />
    <glyph glyph-name="Umacron" unicode="&#x16a;" horiz-adv-x="638" 
d="M317 -11c-65 0 -119 15 -161 46s-63 76 -63 137c0 6 1 16 2 29l50 475h102l-48 -455c-1 -12 -2 -20 -2 -25c0 -74 43 -111 130 -111c95 0 148 45 158 135l48 456h102l-50 -475c-7 -70 -36 -123 -86 -159c-50 -35 -111 -53 -182 -53zM273 768l10 94h252l-10 -94h-252z" />
    <glyph glyph-name="umacron" unicode="&#x16b;" 
d="M107 474h102l-31 -300c-1 -7 -1 -14 -1 -19c0 -41 18 -62 53 -62c15 0 30 3 44 10l92 44l36 327h102l-49 -474h-102l7 75l-117 -82c-9 -3 -18 -4 -29 -4c-96 0 -143 50 -143 130c0 7 0 14 1 22zM190 568l10 90h252l-10 -90h-252z" />
    <glyph glyph-name="Ubreve" unicode="&#x16c;" horiz-adv-x="638" 
d="M317 -11c-65 0 -119 15 -161 46s-63 76 -63 137c0 6 1 16 2 29l50 475h102l-48 -455c-1 -12 -2 -20 -2 -25c0 -74 43 -111 130 -111c95 0 148 45 158 135l48 456h102l-50 -475c-7 -70 -36 -123 -86 -159c-50 -35 -111 -53 -182 -53zM415 732h-40c-68 0 -111 43 -111 118
c0 12 1 25 3 38h75c-1 -3 -1 -7 -1 -13c0 -47 25 -70 57 -70h10c35 0 67 27 74 83h75c-4 -96 -62 -156 -142 -156z" />
    <glyph glyph-name="ubreve" unicode="&#x16d;" 
d="M107 474h102l-31 -300c-1 -7 -1 -14 -1 -19c0 -41 18 -62 53 -62c15 0 30 3 44 10l92 44l36 327h102l-49 -474h-102l7 75l-117 -82c-9 -3 -18 -4 -29 -4c-96 0 -143 50 -143 130c0 7 0 14 1 22zM332 530h-40c-69 0 -112 44 -112 117c0 7 1 20 4 39h75c-1 -3 -1 -8 -1 -15
c0 -45 25 -68 57 -68h10c35 0 66 27 74 83h75c-5 -96 -62 -156 -142 -156z" />
    <glyph glyph-name="Uring" unicode="&#x16e;" horiz-adv-x="638" 
d="M317 -11c-65 0 -119 15 -161 46s-63 76 -63 137c0 6 1 16 2 29l50 475h102l-48 -455c-1 -12 -2 -20 -2 -25c0 -74 43 -111 130 -111c95 0 148 45 158 135l48 456h102l-50 -475c-7 -70 -36 -123 -86 -159c-50 -35 -111 -53 -182 -53zM404 944h28c52 0 95 -38 95 -97
c0 -38 -12 -68 -37 -91c-24 -23 -51 -34 -82 -34h-28c-53 0 -95 36 -95 95c0 38 12 69 36 92s52 35 83 35zM402 884c-29 0 -51 -25 -51 -58c0 -27 16 -44 41 -44h18c29 0 51 25 51 58c0 27 -16 44 -41 44h-18z" />
    <glyph glyph-name="uring" unicode="&#x16f;" 
d="M107 474h102l-31 -300c-1 -7 -1 -14 -1 -19c0 -41 18 -62 53 -62c15 0 30 3 44 10l92 44l36 327h102l-49 -474h-102l7 75l-117 -82c-9 -3 -18 -4 -29 -4c-96 0 -143 50 -143 130c0 7 0 14 1 22zM320 742h28c52 0 96 -38 96 -98c0 -37 -12 -67 -37 -90
c-24 -23 -51 -34 -82 -34h-28c-53 0 -95 36 -95 95c0 38 12 69 36 92s51 35 82 35zM319 682c-29 0 -51 -25 -51 -58c0 -27 15 -44 40 -44h18c29 0 52 25 52 58c0 27 -16 44 -41 44h-18z" />
    <glyph glyph-name="Uhungarumlaut" unicode="&#x170;" horiz-adv-x="638" 
d="M317 -11c-65 0 -119 15 -161 46s-63 76 -63 137c0 6 1 16 2 29l50 475h102l-48 -455c-1 -12 -2 -20 -2 -25c0 -74 43 -111 130 -111c95 0 148 45 158 135l48 456h102l-50 -475c-7 -70 -36 -123 -86 -159c-50 -35 -111 -53 -182 -53zM222 755l105 164h104l-125 -164h-84z
M382 755l105 164h104l-125 -164h-84z" />
    <glyph glyph-name="uhungarumlaut" unicode="&#x171;" 
d="M107 474h102l-31 -300c-1 -7 -1 -14 -1 -19c0 -41 18 -62 53 -62c15 0 30 3 44 10l92 44l36 327h102l-49 -474h-102l7 75l-117 -82c-9 -3 -18 -4 -29 -4c-96 0 -143 50 -143 130c0 7 0 14 1 22zM137 531l105 164h104l-125 -164h-84zM297 531l105 164h104l-125 -164h-84z
" />
    <glyph glyph-name="Uogonek" unicode="&#x172;" horiz-adv-x="638" 
d="M585 201c-11 -103 -68 -169 -170 -199v-2c-73 -33 -112 -74 -115 -121l-1 -14c-1 -17 17 -26 37 -26l63 9l-8 -67c-27 -7 -53 -11 -78 -11c-69 0 -104 23 -104 69c0 7 0 15 1 23l2 20c5 41 34 77 88 108c-123 5 -207 66 -207 182c0 6 1 16 2 29l50 475h102l-48 -455
c-1 -12 -2 -20 -2 -25c0 -74 43 -111 130 -111c95 0 148 45 158 135l48 456h102z" />
    <glyph glyph-name="uogonek" unicode="&#x173;" 
d="M504 474l-49 -474c-68 -32 -104 -78 -107 -121l-1 -14c-1 -17 17 -26 37 -26l63 9l-8 -67c-27 -7 -53 -11 -78 -11c-69 0 -104 23 -104 69c0 7 0 15 1 23l2 20c4 41 35 79 93 114l7 79l-117 -82c-9 -3 -18 -4 -29 -4c-96 0 -143 50 -143 130c0 7 0 14 1 22l35 333h102
l-31 -300c-1 -7 -1 -14 -1 -19c0 -41 18 -62 53 -62c15 0 30 3 44 10l92 44l36 327h102z" />
    <glyph glyph-name="Wcircumflex" unicode="&#x174;" horiz-adv-x="1000" 
d="M286 113l209 563h152l88 -563h10l199 563h107l-250 -676h-148l-89 562h-10l-207 -562h-148l-108 676h106l79 -563h10zM509 740h-85l119 150h100l87 -150h-85l-58 88z" />
    <glyph glyph-name="wcircumflex" unicode="&#x175;" horiz-adv-x="740" 
d="M216 95l130 379h146l50 -379h10l123 379h102l-171 -474h-140l-52 378h-10l-130 -378h-140l-73 474h102l43 -379h10zM358 538h-85l119 150h100l87 -150h-85l-59 88z" />
    <glyph glyph-name="Ycircumflex" unicode="&#x176;" horiz-adv-x="586" 
d="M333 370l192 306h117l-271 -417h-1l-26 -259h-102l26 259l-182 417h111l126 -306h10zM302 740h-85l119 150h100l87 -150h-85l-58 88z" />
    <glyph glyph-name="ycircumflex" unicode="&#x177;" horiz-adv-x="472" 
d="M213 -212h-97l93 212h-41l-109 474h102l76 -381h10l156 381h108zM224 538h-85l119 150h100l87 -150h-85l-59 88z" />
    <glyph glyph-name="Ydieresis" unicode="&#x178;" horiz-adv-x="586" 
d="M333 370l192 306h117l-271 -417h-1l-26 -259h-102l26 259l-182 417h111l126 -306h10zM334 759h-110l12 113h110zM520 759h-110l12 113h110z" />
    <glyph glyph-name="Zacute" unicode="&#x179;" horiz-adv-x="521" 
d="M484 0h-444l10 96l382 489h-311l10 91h422l-10 -94l-385 -490h335zM334 740h-89l94 150h117z" />
    <glyph glyph-name="zacute" unicode="&#x17a;" horiz-adv-x="425" 
d="M400 0h-375l8 85l273 297v5h-226l9 87h343l-9 -86l-273 -295v-6h259zM260 538h-89l94 150h117z" />
    <glyph glyph-name="Zdotaccent" unicode="&#x17b;" horiz-adv-x="521" 
d="M484 0h-444l10 96l382 489h-311l10 91h422l-10 -94l-385 -490h335zM397 764h-104l11 108h104z" />
    <glyph glyph-name="zdotaccent" unicode="&#x17c;" horiz-adv-x="425" 
d="M400 0h-375l8 85l273 297v5h-226l9 87h343l-9 -86l-273 -295v-6h259zM323 562h-104l11 108h104z" />
    <glyph glyph-name="Zcaron" unicode="&#x17d;" horiz-adv-x="521" 
d="M484 0h-444l10 96l382 489h-311l10 91h422l-10 -94l-385 -490h335zM205 890h85l59 -88l77 88h85l-119 -150h-100z" />
    <glyph glyph-name="zcaron" unicode="&#x17e;" horiz-adv-x="425" 
d="M400 0h-375l8 85l273 297v5h-226l9 87h343l-9 -86l-273 -295v-6h259zM131 688h85l59 -88l77 88h85l-119 -150h-100z" />
    <glyph glyph-name="florin" unicode="&#x192;" horiz-adv-x="523" 
d="M-58 -229l20 94c0 -3 19 -4 57 -4c57 0 81 24 94 87l87 401h-107l19 90h107l24 121c18 84 82 126 192 126l140 -10l-18 -97c-57 7 -99 10 -127 10c-59 0 -82 -15 -95 -80l-14 -70h147l-19 -90h-147l-94 -439c-20 -95 -83 -142 -189 -142z" />
    <glyph glyph-name="Scommaaccent" unicode="&#x218;" horiz-adv-x="554" 
d="M524 224l-6 -61c-11 -116 -93 -174 -245 -174c-29 0 -60 1 -95 3c-35 1 -62 3 -83 4l-31 3l11 99c75 -8 140 -12 195 -12c95 0 140 28 147 89l3 28c1 7 1 14 1 20c0 36 -17 55 -73 62l-108 13c-81 9 -131 66 -131 145c0 5 0 12 1 20l6 54c13 113 93 170 240 170
c51 0 112 -4 183 -11l-11 -97c-75 9 -132 13 -170 13c-93 0 -137 -25 -142 -88l-2 -25c-1 -8 -1 -14 -1 -19c0 -37 23 -59 70 -65l114 -14c79 -9 128 -61 128 -138c0 -5 0 -12 -1 -19zM190 -221l47 166h97l-68 -166h-76z" />
    <glyph glyph-name="scommaaccent" unicode="&#x219;" horiz-adv-x="456" 
d="M422 148l-3 -32c-4 -45 -25 -77 -63 -97s-81 -30 -130 -30s-114 4 -146 8l-24 3l9 89c65 -8 117 -12 156 -12c61 0 93 16 97 48l2 16c1 6 1 10 1 13c0 19 -15 31 -44 35l-90 12c-61 8 -101 48 -101 107c0 5 0 10 1 16l4 34c9 84 80 127 193 127c40 0 96 -4 124 -7l21 -3
l-9 -89c-53 7 -96 10 -131 10c-65 0 -92 -14 -97 -51l-2 -15c-1 -5 -1 -9 -1 -11c0 -20 11 -29 46 -34l88 -12c63 -9 100 -49 100 -106c0 -5 0 -11 -1 -19zM141 -221l47 166h97l-68 -166h-76z" />
    <glyph glyph-name="dotlessj" unicode="&#x237;" horiz-adv-x="258" 
d="M-44 -224l10 91c63 -5 99 26 106 82l55 525h102l-55 -529c-12 -111 -85 -181 -218 -169z" />
    <glyph glyph-name="circumflex" unicode="&#x2c6;" horiz-adv-x="310" 
d="M143 538h-85l119 150h100l87 -150h-85l-59 88z" />
    <glyph glyph-name="caron" unicode="&#x2c7;" horiz-adv-x="310" 
d="M74 688h85l59 -88l77 88h85l-119 -150h-100z" />
    <glyph glyph-name="breve" unicode="&#x2d8;" horiz-adv-x="310" 
d="M230 530h-40c-69 0 -112 44 -112 117c0 7 1 20 4 39h75c-1 -3 -1 -8 -1 -15c0 -45 25 -68 57 -68h10c35 0 66 27 74 83h75c-5 -96 -62 -156 -142 -156z" />
    <glyph glyph-name="dotaccent" unicode="&#x2d9;" horiz-adv-x="310" 
d="M266 562h-104l11 108h104z" />
    <glyph glyph-name="ring" unicode="&#x2da;" horiz-adv-x="310" 
d="M218 742h28c52 0 96 -38 96 -98c0 -37 -12 -67 -37 -90c-24 -23 -51 -34 -82 -34h-28c-53 0 -95 36 -95 95c0 38 12 69 36 92s51 35 82 35zM217 682c-29 0 -51 -25 -51 -58c0 -27 15 -44 40 -44h18c29 0 52 25 52 58c0 27 -16 44 -41 44h-18z" />
    <glyph glyph-name="ogonek" unicode="&#x2db;" horiz-adv-x="310" 
d="M237 31l-3 -31c-73 -33 -112 -74 -115 -121l-1 -14c-1 -17 17 -26 37 -26l63 9l-8 -67c-27 -7 -53 -11 -78 -11c-69 0 -104 23 -104 69c0 7 0 15 1 23l2 20c7 63 82 124 206 149z" />
    <glyph glyph-name="tilde" unicode="&#x2dc;" horiz-adv-x="310" 
d="M214 571l-34 21c-7 3 -16 4 -26 4c-25 0 -41 -14 -48 -41h-80c13 76 69 122 129 122c25 0 48 -8 71 -23l32 -20c9 -3 18 -4 26 -4c25 0 41 14 48 41h80c-13 -76 -69 -122 -129 -122c-21 0 -44 7 -69 22z" />
    <glyph glyph-name="hungarumlaut" unicode="&#x2dd;" horiz-adv-x="310" 
d="M31 531l105 164h104l-125 -164h-84zM191 531l105 164h104l-125 -164h-84z" />
    <glyph glyph-name="uni0323" unicode="&#x323;" horiz-adv-x="310" 
d="M184 -195h-110l12 117h110z" />
    <glyph glyph-name="enspace" unicode="&#x2002;" horiz-adv-x="500" 
 />
    <glyph glyph-name="emspace" unicode="&#x2003;" horiz-adv-x="1000" 
 />
    <glyph glyph-name="threeperemspace" unicode="&#x2004;" horiz-adv-x="333" 
 />
    <glyph glyph-name="fourperemspace" unicode="&#x2005;" horiz-adv-x="250" 
 />
    <glyph glyph-name="sixperemspace" unicode="&#x2006;" horiz-adv-x="167" 
 />
    <glyph glyph-name="figurespace" unicode="&#x2007;" horiz-adv-x="640" 
 />
    <glyph glyph-name="punctuationspace" unicode="&#x2008;" horiz-adv-x="230" 
 />
    <glyph glyph-name="thinspace" unicode="&#x2009;" horiz-adv-x="50" 
 />
    <glyph glyph-name="hairspace" unicode="&#x200a;" horiz-adv-x="20" 
 />
    <glyph glyph-name="zerowidthspace" unicode="&#x200b;" horiz-adv-x="0" 
 />
    <glyph glyph-name="figuredash" unicode="&#x2012;" horiz-adv-x="650" 
d="M639 229h-580l9 91h580z" />
    <glyph glyph-name="endash" unicode="&#x2013;" horiz-adv-x="500" 
d="M489 229h-430l9 91h430z" />
    <glyph glyph-name="emdash" unicode="&#x2014;" horiz-adv-x="1000" 
d="M989 229h-930l9 91h930z" />
    <glyph glyph-name="doublebar" unicode="&#x2016;" horiz-adv-x="432" 
d="M143 -251h-91l105 1001h91zM326 -251h-91l105 1001h91z" />
    <glyph glyph-name="quoteleft" unicode="&#x2018;" horiz-adv-x="252" 
d="M111 413l14 131c5 57 26 101 61 132h69l-2 -16c-31 -20 -49 -54 -54 -102h47l-15 -145h-120z" />
    <glyph glyph-name="quoteright" unicode="&#x2019;" horiz-adv-x="252" 
d="M257 676l-14 -131c-7 -57 -27 -101 -61 -132h-71l2 16c31 25 48 59 52 102h-44l16 145h120z" />
    <glyph glyph-name="quotesinglbase" unicode="&#x201a;" horiz-adv-x="252" 
d="M201 145l-14 -131c-5 -57 -26 -101 -61 -132h-71l2 16c30 24 48 58 53 102h-44l15 145h120z" />
    <glyph glyph-name="reversequoteleft" unicode="&#x201b;" horiz-adv-x="252" 
d="M123 545l14 131h120l-16 -145h-44c-4 -44 7 -78 32 -102l-2 -16h-71c-29 32 -40 76 -33 132z" />
    <glyph glyph-name="quotedblleft" unicode="&#x201c;" horiz-adv-x="460" 
d="M109 413l14 131c5 57 26 101 61 132h71l-2 -16c-31 -24 -49 -58 -53 -102h44l-15 -145h-120zM317 413l14 131c5 57 26 101 61 132h71l-2 -16c-31 -24 -49 -58 -53 -102h44l-15 -145h-120z" />
    <glyph glyph-name="quotedblright" unicode="&#x201d;" horiz-adv-x="460" 
d="M465 676l-14 -131c-7 -57 -27 -101 -61 -132h-71l2 16c31 25 48 59 52 102h-44l16 145h120zM257 676l-14 -131c-7 -57 -27 -101 -61 -132h-71l2 16c31 25 48 59 52 102h-44l16 145h120z" />
    <glyph glyph-name="quotedblbase" unicode="&#x201e;" horiz-adv-x="460" 
d="M201 145l-14 -131c-5 -57 -26 -101 -61 -132h-71l2 16c30 24 48 58 53 102h-44l15 145h120zM409 145l-14 -131c-5 -57 -26 -101 -61 -132h-71l2 16c30 24 48 58 53 102h-44l15 145h120z" />
    <glyph glyph-name="reversequotedblleft" unicode="&#x201f;" horiz-adv-x="460" 
d="M123 545l14 131h120l-16 -145h-44c-4 -44 7 -78 32 -102l-2 -16h-71c-29 32 -40 76 -33 132zM331 545l14 131h120l-16 -145h-44c-4 -44 7 -78 32 -102l-2 -16h-71c-29 32 -40 76 -33 132z" />
    <glyph glyph-name="dagger" unicode="&#x2020;" horiz-adv-x="506" 
d="M293 -81h-98l34 321l26 146l-184 -10l10 98l182 -10l-5 92l6 120h120l-20 -120l-25 -92l184 10l-10 -98l-182 10l-4 -146z" />
    <glyph glyph-name="daggerdbl" unicode="&#x2021;" horiz-adv-x="506" 
d="M237 319l18 67l-184 -10l10 98l182 -10l-3 92l6 120h116l-20 -120l-23 -92l184 10l-10 -98l-182 10l4 -67l-3 -33l-19 -74l184 10l-10 -98l-182 10l3 -93l-6 -122h-116l20 122l23 93l-184 -10l10 98l182 -10l-3 74z" />
    <glyph glyph-name="bullet" unicode="&#x2022;" horiz-adv-x="391" 
d="M237 397c77 0 119 -39 119 -95c0 -4 0 -9 -1 -16l-5 -47c-7 -61 -58 -106 -141 -106c-79 0 -119 37 -119 92c0 5 0 11 1 18l5 47c7 63 56 107 141 107z" />
    <glyph glyph-name="ellipsis" unicode="&#x2026;" horiz-adv-x="717" 
d="M178 0h-118l14 135h118zM414 0h-118l14 135h118zM657 0h-118l14 135h118z" />
    <glyph glyph-name="perthousand" unicode="&#x2030;" horiz-adv-x="1222" 
d="M276 681c80 -1 142 -31 142 -103c0 -3 0 -7 -1 -14l-16 -151c-8 -80 -81 -116 -165 -116c-77 0 -141 31 -141 102c0 5 0 11 1 19l16 147c4 40 22 69 54 88s69 28 110 28zM704 676l-384 -676h-93l384 676h93zM268 607c-43 0 -66 -21 -70 -62l-12 -109c-1 -6 -1 -10 -1 -13
c0 -34 20 -51 59 -51c43 0 67 21 71 62l12 110c1 6 1 10 1 12c0 34 -20 51 -60 51zM692 377c80 -1 142 -31 142 -103c0 -3 0 -7 -1 -14l-16 -151c-8 -80 -81 -116 -165 -116c-77 0 -141 31 -141 102c0 5 0 11 1 19l16 147c4 40 22 69 54 88s69 28 110 28zM684 303
c-43 0 -66 -21 -70 -62l-12 -109c-1 -6 -1 -10 -1 -13c0 -34 20 -51 59 -51c43 0 67 21 71 62l12 110c1 6 1 10 1 12c0 34 -20 51 -60 51zM1055 377c80 -1 142 -31 142 -103c0 -3 0 -7 -1 -14l-16 -151c-8 -80 -81 -116 -165 -116c-77 0 -141 31 -141 102c0 5 0 11 1 19
l16 147c4 40 22 69 54 88s69 28 110 28zM1047 303c-43 0 -66 -21 -70 -62l-12 -109c-1 -6 -1 -10 -1 -13c0 -34 20 -51 59 -51c43 0 67 21 71 62l12 110c1 6 1 10 1 12c0 34 -20 51 -60 51z" />
    <glyph glyph-name="tripleprime" unicode="&#x2034;" horiz-adv-x="598" 
d="M230 676l-49 -263h-76l7 263h118zM431 676l-49 -263h-76l7 263h118zM632 676l-49 -263h-76l7 263h118z" />
    <glyph glyph-name="guilsinglleft" unicode="&#x2039;" horiz-adv-x="346" 
d="M177 275l-1 -10l134 -150l-67 -59l-174 196l4 36l215 196l54 -59z" />
    <glyph glyph-name="guilsinglright" unicode="&#x203a;" horiz-adv-x="346" 
d="M224 265l1 10l-133 150l66 59l175 -196l-4 -36l-216 -196l-53 59z" />
    <glyph glyph-name="fraction" unicode="&#x2044;" horiz-adv-x="146" 
d="M361 676l-384 -676h-91l384 676h91z" />
    <glyph glyph-name="zerosuperior" unicode="&#x2070;" horiz-adv-x="411" 
d="M276 681c79 0 142 -32 142 -103c0 -2 0 -6 -1 -13l-17 -156c-9 -80 -81 -116 -165 -116c-77 0 -141 31 -141 102c0 3 0 7 1 14l17 156c4 40 22 69 54 88s69 28 110 28zM268 607c-43 0 -66 -21 -70 -62l-12 -113c-1 -6 -1 -11 -1 -15c0 -33 19 -49 58 -49
c44 0 68 21 72 62l12 110c1 7 1 12 1 16c0 34 -20 51 -60 51z" />
    <glyph glyph-name="foursuperior" unicode="&#x2074;" horiz-adv-x="352" 
d="M231 466l13 119l-104 -119h91zM379 395h-72l-10 -95h-83l10 95h-172l7 66l187 215h91l-23 -210h72z" />
    <glyph glyph-name="fivesuperior" unicode="&#x2075;" horiz-adv-x="322" 
d="M92 458l23 218h243l-8 -75h-167l-8 -74h61c78 0 117 -28 117 -84c0 -3 0 -7 -1 -14l-3 -26c-8 -73 -57 -110 -147 -110c-36 0 -89 4 -118 7l-21 3l8 74c47 -6 86 -9 116 -9c43 0 66 12 68 37l2 16c1 6 1 10 1 13c0 16 -17 24 -52 24h-114z" />
    <glyph glyph-name="sixsuperior" unicode="&#x2076;" horiz-adv-x="375" 
d="M259 541c85 0 127 -27 127 -81c0 -2 0 -6 -1 -12l-5 -42c-9 -76 -74 -113 -157 -113c-77 0 -135 33 -135 100c0 4 0 9 1 15l17 154c8 69 54 120 146 120c23 0 67 -3 134 -8l-7 -73c-61 6 -101 9 -120 9c-47 0 -61 -18 -65 -58l-3 -25c22 9 45 14 68 14zM254 483
c-19 0 -45 -6 -58 -11l-11 -4l-7 -58c-1 -6 -1 -10 -1 -12c0 -28 14 -41 53 -41c41 0 56 15 61 51l4 29c1 6 1 11 1 14c0 21 -14 32 -42 32z" />
    <glyph glyph-name="sevensuperior" unicode="&#x2077;" horiz-adv-x="308" 
d="M180 300h-95l184 300h-184l8 76h273l-8 -74z" />
    <glyph glyph-name="eightsuperior" unicode="&#x2078;" horiz-adv-x="352" 
d="M247 682c80 0 131 -34 131 -91c0 -4 0 -9 -1 -14l-2 -13c-5 -32 -25 -57 -62 -76c37 -14 55 -37 55 -68c0 -4 0 -10 -1 -19l-1 -9c-5 -37 -23 -62 -54 -77s-66 -22 -106 -22c-76 0 -139 23 -139 87c0 7 0 13 1 19l2 12c5 33 29 59 71 77c-30 16 -45 39 -45 69
c0 4 0 9 1 16l1 8c8 64 65 101 149 101zM230 459h-12c-29 0 -54 -14 -58 -45l-1 -7c-1 -7 -1 -12 -1 -15c0 -24 18 -36 55 -36c39 0 61 15 64 45l1 9c1 7 1 11 1 14c0 23 -16 35 -49 35zM222 512h14c29 0 45 16 50 47l2 14c1 5 1 9 1 11c0 25 -16 38 -48 38
c-35 0 -52 -11 -57 -48l-2 -12c-1 -5 -1 -9 -1 -12c0 -25 14 -38 41 -38z" />
    <glyph glyph-name="ninesuperior" unicode="&#x2079;" horiz-adv-x="375" 
d="M217 434c-84 0 -126 27 -126 82c0 5 0 10 1 15l4 38c8 76 76 113 157 113c77 0 135 -32 135 -99c0 -2 0 -7 -1 -14l-16 -156c-8 -69 -56 -120 -147 -120c-20 0 -65 3 -134 8l8 73c61 -6 101 -9 120 -9c47 0 61 19 65 58l3 25c-22 -9 -45 -14 -69 -14zM222 492
c19 0 45 7 60 12l10 3l6 60c1 7 1 10 1 11c0 27 -18 40 -53 40c-40 0 -57 -16 -61 -51l-3 -28c-1 -5 -1 -9 -1 -14c0 -22 14 -33 41 -33z" />
    <glyph glyph-name="Euro" unicode="&#x20ac;" horiz-adv-x="572" 
d="M49 377l8 75h97l3 24c15 141 107 211 278 211c21 0 77 -4 167 -11l-11 -96c-63 8 -116 12 -161 12c-60 0 -102 -10 -127 -30s-40 -57 -47 -110h258l-21 -75h-245l-9 -79h235l-21 -75h-221c-1 -11 -1 -19 -1 -24c0 -80 40 -115 145 -115c40 0 104 5 140 9l27 3l-10 -96
c-91 -7 -149 -11 -174 -11c-67 0 -115 9 -162 33c-45 24 -71 72 -71 140c0 13 1 26 2 39l2 22h-97l8 75h97l9 79h-98z" />
    <glyph glyph-name="trademark" unicode="&#x2122;" horiz-adv-x="814" 
d="M397 608h-118l-32 -312h-80l32 312h-118l8 68h316zM606 473h5l118 203h80l-40 -380h-79l23 226h-2l-79 -134h-65l-51 134h-2l-23 -226h-79l40 380h80z" />
    <glyph glyph-name="ohm" unicode="&#x2126;" horiz-adv-x="648" 
d="M181 451v-225c0 -79 34 -126 101 -139v-87h-266v92h117c-36 30 -54 66 -54 108v276c0 74 23 128 68 161c46 33 105 50 177 50s131 -17 176 -50c46 -33 69 -87 69 -161v-276c0 -43 -18 -79 -55 -108h118v-92h-266v87c67 13 101 60 101 139v225c0 105 -51 142 -143 142
s-143 -37 -143 -142z" />
    <glyph glyph-name="estimated" unicode="&#x212e;" horiz-adv-x="830" 
d="M775 311h-560v-175c63 -65 134 -97 212 -97c75 0 144 32 205 97h89c-83 -99 -174 -136 -306 -136c-98 0 -180 32 -247 95c-67 64 -100 142 -100 233c0 97 34 177 101 238c68 61 151 92 250 92c111 0 198 -33 261 -100c63 -66 95 -148 95 -247zM215 350h419v165
c-44 69 -129 104 -213 104c-87 0 -156 -35 -206 -104v-165z" />
    <glyph glyph-name="partialdiff" unicode="&#x2202;" horiz-adv-x="558" 
d="M378 168l15 144c-42 14 -82 21 -121 21c-71 0 -97 -22 -104 -89l-8 -76c-1 -6 -1 -11 -1 -15c0 -51 34 -76 101 -76c72 0 111 30 118 91zM281 429c51 0 91 -7 122 -21l8 71c1 15 2 25 2 32c0 56 -27 82 -116 82l-170 -12l9 93c95 9 155 13 180 13c131 0 200 -44 200 -164
c0 -7 -1 -20 -2 -37l-36 -335c-7 -59 -31 -100 -74 -125s-94 -37 -154 -37c-95 0 -195 29 -195 141c0 7 0 14 1 21l12 106c13 111 72 172 213 172z" />
    <glyph glyph-name="increment" unicode="&#x2206;" horiz-adv-x="666" 
d="M641 0h-616l233 676h150zM328 581l-161 -484h332l-161 484h-10z" />
    <glyph glyph-name="product" unicode="&#x220f;" horiz-adv-x="698" 
d="M471 585h-244v-585h-102v585h-115v91h678v-91h-115v-585h-102v585z" />
    <glyph glyph-name="summation" unicode="&#x2211;" horiz-adv-x="448" 
d="M429 0h-398v88l200 250l-200 250v88h398v-91h-271l200 -247l-200 -246h271v-92z" />
    <glyph glyph-name="minus" unicode="&#x2212;" horiz-adv-x="510" 
d="M491 227h-426l10 95h426z" />
    <glyph glyph-name="radical" unicode="&#x221a;" horiz-adv-x="535" 
d="M633 721h-150l-217 -721h-114l-146 396h105l95 -262l195 682h232v-95z" />
    <glyph glyph-name="infinity" unicode="&#x221e;" horiz-adv-x="772" 
d="M322 255l18 24l-18 28c-23 36 -51 54 -83 54h-31c-44 0 -66 -27 -66 -81c0 -55 22 -82 66 -82h31c31 0 58 19 83 57zM386 205l-6 -12c-38 -57 -83 -86 -134 -86h-63c-47 0 -82 15 -105 46s-34 68 -34 111v31c0 43 11 80 34 111s58 46 105 46h63c51 0 96 -29 134 -86
l6 -13l6 13c33 57 78 86 134 86h63c47 0 81 -15 104 -46s35 -68 35 -111v-31c0 -43 -12 -80 -35 -111s-57 -46 -104 -46h-63c-53 0 -97 29 -134 86zM432 279l18 -24c25 -38 52 -57 83 -57h31c44 0 66 27 66 82c0 54 -22 81 -66 81h-31c-32 0 -60 -18 -83 -54z" />
    <glyph glyph-name="integral" unicode="&#x222b;" horiz-adv-x="337" 
d="M318 684v-88c-6 1 -14 1 -25 1c-55 0 -73 -22 -73 -65v-614c0 -45 -10 -81 -29 -106s-56 -38 -113 -38c-20 0 -40 1 -59 4v89c6 -1 14 -1 24 -1c56 0 74 22 74 65v614c0 45 9 80 28 105s56 38 113 38c19 0 39 -1 60 -4z" />
    <glyph glyph-name="approxequal" unicode="&#x2248;" horiz-adv-x="510" 
d="M434 359h93c-11 -103 -58 -178 -158 -178c-38 0 -71 12 -98 36l-35 31c-14 12 -28 18 -42 18c-31 0 -51 -28 -61 -84h-93c11 103 58 178 158 178c37 0 69 -12 98 -36l35 -31c14 -12 28 -18 41 -18c31 0 52 28 62 84z" />
    <glyph glyph-name="notequal" unicode="&#x2260;" horiz-adv-x="510" 
d="M481 131h-226l-70 -152l-59 21l60 131h-131l10 95h164l44 96h-198l10 95h231l64 139l60 -23l-54 -116h125l-10 -95h-159l-44 -96h193z" />
    <glyph glyph-name="lessequal" unicode="&#x2264;" horiz-adv-x="510" 
d="M476 156l-397 121l8 83l423 121l-11 -109l-288 -53l276 -54zM460 0h-410l9 95h410z" />
    <glyph glyph-name="greaterequal" unicode="&#x2265;" horiz-adv-x="510" 
d="M489 277l-423 -121l11 109l288 54l-276 53l11 109l397 -121zM460 0h-410l9 95h410z" />
    <glyph glyph-name="anglebracketleft" unicode="&#x3008;" horiz-adv-x="359" 
d="M253 -214l-200 472l1 10l299 472h112l-301 -475v-4l201 -475h-112z" />
    <glyph glyph-name="anglebracketright" unicode="&#x3009;" horiz-adv-x="359" 
d="M360 258l-300 -472h-111l300 475v4l-201 475h112l201 -472z" />
    <glyph glyph-name="idotaccent" unicode="&#xe007;" horiz-adv-x="258" 
d="M180 0h-102l49 474h102zM240 562h-104l11 108h104z" />
    <glyph glyph-name="ampersand.alt" unicode="&#xe00e;" 
d="M340 206h-128l-42 -39l-4 -39c-4 -36 34 -55 77 -55c55 0 85 20 89 60zM98 322l6 55c8 77 61 124 158 124l141 -8l-9 -88c-61 5 -104 8 -128 8c-42 0 -64 -16 -67 -49l-5 -48l28 -30h300l-9 -80h-75l-10 -97c-7 -65 -79 -120 -194 -120c-109 0 -167 47 -167 108
c0 7 0 15 1 23l4 40c1 12 5 22 10 29l64 56l-45 48c-3 7 -4 17 -3 29z" />
    <glyph glyph-name="ampersand.smcp" unicode="&#xe200;" 
d="M340 206h-128l-42 -39l-4 -39c-4 -36 34 -55 77 -55c55 0 85 20 89 60zM98 322l6 55c8 77 61 124 158 124l141 -8l-9 -88c-61 5 -104 8 -128 8c-42 0 -64 -16 -67 -49l-5 -48l28 -30h300l-9 -80h-75l-10 -97c-7 -65 -79 -120 -194 -120c-109 0 -167 47 -167 108
c0 7 0 15 1 23l4 40c1 12 5 22 10 29l64 56l-45 48c-3 7 -4 17 -3 29z" />
    <glyph glyph-name="A.smcp" unicode="&#xe201;" horiz-adv-x="490" 
d="M384 0l-27 118h-196l-51 -118h-100l217 490h138l115 -490h-96zM284 403l-87 -200h141l-44 200h-10z" />
    <glyph glyph-name="B.smcp" unicode="&#xe202;" horiz-adv-x="497" 
d="M479 380l-5 -51c-2 -13 -5 -23 -9 -29l-58 -52l55 -62c3 -5 4 -11 4 -18c0 -3 0 -7 -1 -13l-5 -45c-8 -80 -58 -110 -146 -110h-255l51 490h245c81 0 125 -26 125 -93c0 -5 0 -10 -1 -17zM371 317l4 39c1 5 1 10 1 15c0 21 -14 32 -43 32h-135l-13 -119h149zM360 127
l3 34l-37 43h-149l-12 -116h144c31 0 48 13 51 39z" />
    <glyph glyph-name="C.smcp" unicode="&#xe203;" horiz-adv-x="441" 
d="M422 92l-9 -92c-91 -7 -144 -11 -159 -11c-123 0 -182 41 -182 130c0 5 0 13 1 22l22 208c11 107 80 151 213 151c28 0 77 -3 146 -9l-10 -92c-56 7 -100 10 -131 10c-43 0 -73 -7 -90 -20c-16 -13 -26 -40 -30 -79l-14 -131c-1 -13 -2 -23 -2 -28c0 -53 25 -70 102 -70
c28 0 84 4 117 8z" />
    <glyph glyph-name="D.smcp" unicode="&#xe204;" horiz-adv-x="512" 
d="M491 340l-20 -190c-4 -42 -21 -78 -52 -107c-30 -29 -66 -43 -107 -43h-253l51 490h253c76 0 129 -57 129 -132c0 -5 0 -11 -1 -18zM376 184l13 123c1 5 1 11 1 20c0 49 -23 72 -78 72h-114l-32 -307h113c63 0 90 28 97 92z" />
    <glyph glyph-name="E.smcp" unicode="&#xe205;" horiz-adv-x="424" 
d="M399 0h-340l51 490h332l-10 -91h-234l-11 -108h192l-9 -90h-192l-12 -109h242z" />
    <glyph glyph-name="F.smcp" unicode="&#xe206;" horiz-adv-x="398" 
d="M157 0h-98l51 490h334l-10 -91h-236l-12 -118h194l-9 -90h-194z" />
    <glyph glyph-name="G.smcp" unicode="&#xe207;" horiz-adv-x="511" 
d="M458 4c-106 -10 -174 -15 -204 -15c-124 0 -182 38 -182 127c0 9 0 17 1 24l22 210c11 105 80 150 213 150c37 0 90 -3 159 -9l-10 -92c-65 7 -113 10 -144 10c-44 0 -74 -7 -91 -20s-27 -40 -32 -79l-14 -130c-1 -11 -2 -20 -2 -27c0 -55 25 -72 100 -72l97 5l11 109
h-104l9 90h200z" />
    <glyph glyph-name="H.smcp" unicode="&#xe208;" horiz-adv-x="544" 
d="M485 0h-99l21 201h-228l-21 -201h-99l51 490h99l-21 -199h228l21 199h99z" />
    <glyph glyph-name="I.smcp" unicode="&#xe209;" horiz-adv-x="248" 
d="M175 0h-102l51 490h102z" />
    <glyph glyph-name="J.smcp" unicode="&#xe20a;" horiz-adv-x="248" 
d="M22 -156h-99l10 92h70l70 64l51 490h102l-55 -523c-2 -6 -8 -14 -18 -24l-101 -93c-7 -4 -17 -6 -30 -6z" />
    <glyph glyph-name="K.smcp" unicode="&#xe20b;" horiz-adv-x="452" 
d="M454 0h-124l-141 201h-10l-21 -201h-99l51 490h99l-21 -199h10l182 199h119l-221 -241z" />
    <glyph glyph-name="L.smcp" unicode="&#xe20c;" horiz-adv-x="407" 
d="M385 0h-326l51 490h99l-42 -398h227z" />
    <glyph glyph-name="M.smcp" unicode="&#xe20d;" horiz-adv-x="580" 
d="M306 223h10l153 267h103l-51 -490h-99l32 307h-2l-115 -194h-72l-73 194h-2l-32 -307h-99l51 490h99z" />
    <glyph glyph-name="N.smcp" unicode="&#xe20e;" horiz-adv-x="544" 
d="M485 0h-102l-189 346l-36 -346h-99l51 490h101l189 -348l37 348h99z" />
    <glyph glyph-name="O.smcp" unicode="&#xe20f;" horiz-adv-x="538" 
d="M321 500c121 0 192 -57 192 -157c0 -8 0 -16 -1 -24l-15 -145c-12 -117 -98 -185 -230 -185c-121 0 -192 57 -192 158c0 9 1 20 2 31l15 141c12 115 97 181 229 181zM312 413c-76 0 -114 -39 -123 -123l-10 -91c-1 -6 -1 -14 -1 -25c0 -65 33 -98 98 -98
c76 0 114 39 123 123l10 91c1 9 1 18 1 27c0 64 -33 96 -98 96z" />
    <glyph glyph-name="P.smcp" unicode="&#xe210;" horiz-adv-x="453" 
d="M461 370l-8 -78c-9 -80 -71 -125 -158 -125h-119l-17 -167h-100l51 490h219c81 0 133 -35 133 -104c0 -4 0 -9 -1 -16zM185 253h106c37 0 57 17 61 51l5 45c1 6 1 10 1 11c0 27 -17 40 -51 40h-106z" />
    <glyph glyph-name="Q.smcp" unicode="&#xe211;" horiz-adv-x="538" 
d="M321 500c121 0 192 -57 192 -157c0 -8 0 -16 -1 -24l-15 -145c-8 -75 -44 -128 -107 -160l87 -160h-111l-74 136c-5 0 -20 -1 -25 -1c-121 0 -192 57 -192 158c0 9 1 20 2 31l15 141c12 115 97 181 229 181zM312 413c-76 0 -114 -39 -123 -123l-10 -91
c-1 -6 -1 -14 -1 -25c0 -65 33 -98 98 -98c76 0 114 39 123 123l10 91c1 9 1 18 1 27c0 64 -33 96 -98 96z" />
    <glyph glyph-name="R.smcp" unicode="&#xe212;" horiz-adv-x="472" 
d="M462 375l-9 -83c-5 -52 -30 -88 -77 -107l86 -185h-110l-77 167h-99l-17 -167h-100l51 490h219c81 0 134 -36 134 -101c0 -3 0 -7 -1 -14zM185 253h106c37 0 57 17 61 51l5 45c1 5 1 9 1 11c0 27 -17 40 -51 40h-106z" />
    <glyph glyph-name="S.smcp" unicode="&#xe213;" horiz-adv-x="435" 
d="M411 158l-4 -42c-4 -45 -25 -77 -63 -97s-81 -30 -130 -30s-114 4 -146 8l-24 3l9 89c65 -8 117 -12 156 -12c61 0 93 16 97 48l3 26c1 6 1 10 1 11c0 19 -15 31 -44 35l-91 12c-60 8 -100 48 -100 107c0 3 0 8 1 15l5 42c10 85 74 127 193 127c40 0 96 -4 124 -8l21 -2
l-9 -89c-53 7 -96 10 -131 10c-64 0 -94 -14 -98 -51l-2 -19c-1 -7 -1 -11 -1 -12c0 -21 11 -31 46 -36l88 -12c63 -9 100 -49 100 -106c0 -4 0 -10 -1 -17z" />
    <glyph glyph-name="T.smcp" unicode="&#xe214;" horiz-adv-x="422" 
d="M456 399h-154l-41 -399h-100l41 399h-154l10 91h408z" />
    <glyph glyph-name="U.smcp" unicode="&#xe215;" horiz-adv-x="538" 
d="M267 -11c-127 0 -191 54 -191 163c0 10 1 22 2 36l32 302h100l-32 -300c-1 -6 -1 -12 -1 -18c0 -61 33 -91 100 -91c73 0 113 36 121 109l32 300h100l-32 -302c-14 -133 -91 -199 -231 -199z" />
    <glyph glyph-name="V.smcp" unicode="&#xe216;" horiz-adv-x="512" 
d="M270 111l158 379h112l-222 -490h-124l-120 490h108l78 -379h10z" />
    <glyph glyph-name="W.smcp" unicode="&#xe217;" horiz-adv-x="778" 
d="M491 0l-57 389h-10l-137 -389h-130l-84 490h104l48 -387h10l133 387h144l51 -387h10l130 387h104l-186 -490h-130z" />
    <glyph glyph-name="X.smcp" unicode="&#xe218;" horiz-adv-x="473" 
d="M74 490h104l90 -168l125 168h108l-185 -243v-4l134 -243h-104l-90 168l-125 -168h-108l184 243v4z" />
    <glyph glyph-name="Y.smcp" unicode="&#xe219;" horiz-adv-x="454" 
d="M260 287l123 203h107l-194 -290l-20 -200h-98l20 201l-132 289h103l81 -203h10z" />
    <glyph glyph-name="Z.smcp" unicode="&#xe21a;" horiz-adv-x="407" 
d="M380 0h-348l9 86l277 315h-230l9 89h342l-9 -88l-277 -312h236z" />
    <glyph glyph-name="Aacute.smcp" unicode="&#xe221;" horiz-adv-x="490" 
d="M384 0l-27 118h-196l-51 -118h-100l217 490h138l115 -490h-96zM284 403l-87 -200h141l-44 200h-10zM293 538h-89l94 150h117z" />
    <glyph glyph-name="Agrave.smcp" unicode="&#xe222;" horiz-adv-x="490" 
d="M384 0l-27 118h-196l-51 -118h-100l217 490h138l115 -490h-96zM284 403l-87 -200h141l-44 200h-10zM399 538h-89l-90 150h117z" />
    <glyph glyph-name="Acircumflex.smcp" unicode="&#xe223;" horiz-adv-x="490" 
d="M384 0l-27 118h-196l-51 -118h-100l217 490h138l115 -490h-96zM284 403l-87 -200h141l-44 200h-10zM233 538h-85l119 150h100l87 -150h-85l-59 88z" />
    <glyph glyph-name="Adieresis.smcp" unicode="&#xe224;" horiz-adv-x="490" 
d="M384 0l-27 118h-196l-51 -118h-100l217 490h138l115 -490h-96zM284 403l-87 -200h141l-44 200h-10zM265 557h-110l12 113h110zM451 557h-110l12 113h110z" />
    <glyph glyph-name="Atilde.smcp" unicode="&#xe225;" horiz-adv-x="490" 
d="M384 0l-27 118h-196l-51 -118h-100l217 490h138l115 -490h-96zM284 403l-87 -200h141l-44 200h-10zM304 571l-34 21c-7 3 -16 4 -26 4c-25 0 -41 -14 -48 -41h-80c13 76 69 122 129 122c25 0 48 -8 71 -23l32 -20c9 -3 18 -4 26 -4c25 0 41 14 48 41h80
c-13 -76 -69 -122 -129 -122c-21 0 -44 7 -69 22z" />
    <glyph glyph-name="Aring.smcp" unicode="&#xe226;" horiz-adv-x="490" 
d="M384 0l-27 118h-196l-51 -118h-100l217 490h138l115 -490h-96zM284 403l-87 -200h141l-44 200h-10zM308 742h28c52 0 96 -38 96 -98c0 -37 -12 -67 -37 -90c-24 -23 -51 -34 -82 -34h-28c-53 0 -95 36 -95 95c0 38 12 69 36 92s51 35 82 35zM307 682
c-29 0 -51 -25 -51 -58c0 -27 15 -44 40 -44h18c29 0 52 25 52 58c0 27 -16 44 -41 44h-18z" />
    <glyph glyph-name="Amacron.smcp" unicode="&#xe228;" horiz-adv-x="490" 
d="M384 0l-27 118h-196l-51 -118h-100l217 490h138l115 -490h-96zM284 403l-87 -200h141l-44 200h-10zM178 568l10 90h252l-10 -90h-252z" />
    <glyph glyph-name="Abreve.smcp" unicode="&#xe229;" horiz-adv-x="490" 
d="M384 0l-27 118h-196l-51 -118h-100l217 490h138l115 -490h-96zM284 403l-87 -200h141l-44 200h-10zM320 530h-40c-69 0 -112 44 -112 117c0 7 1 20 4 39h75c-1 -3 -1 -8 -1 -15c0 -45 25 -68 57 -68h10c35 0 66 27 74 83h75c-5 -96 -62 -156 -142 -156z" />
    <glyph glyph-name="Aogonek.smcp" unicode="&#xe22f;" horiz-adv-x="490" 
d="M365 490l115 -490c-2 -1 -9 -4 -22 -11c-12 -7 -20 -11 -25 -14s-12 -8 -22 -15c-27 -22 -38 -41 -44 -78l-1 -13c-1 -20 15 -30 36 -30l63 9l-8 -67c-27 -7 -53 -11 -78 -11c-70 0 -105 22 -105 67c0 5 0 11 1 18l3 27c5 45 41 85 106 118l-27 118h-196l-51 -118h-100
l217 490h138zM284 403l-87 -200h141l-44 200h-10z" />
    <glyph glyph-name="AE.smcp" unicode="&#xe231;" horiz-adv-x="706" 
d="M681 0h-342l12 115h-171l-78 -115h-109l331 490h400l-10 -91h-232l-11 -108h190l-9 -90h-190l-12 -109h240zM371 393l-131 -190h120l20 190h-9z" />
    <glyph glyph-name="Cacute.smcp" unicode="&#xe234;" horiz-adv-x="441" 
d="M422 92l-9 -92c-91 -7 -144 -11 -159 -11c-123 0 -182 41 -182 130c0 5 0 13 1 22l22 208c11 107 80 151 213 151c28 0 77 -3 146 -9l-10 -92c-56 7 -100 10 -131 10c-43 0 -73 -7 -90 -20c-16 -13 -26 -40 -30 -79l-14 -131c-1 -13 -2 -23 -2 -28c0 -53 25 -70 102 -70
c28 0 84 4 117 8zM268 538h-89l94 150h117z" />
    <glyph glyph-name="Ccircumflex.smcp" unicode="&#xe235;" horiz-adv-x="441" 
d="M422 92l-9 -92c-91 -7 -144 -11 -159 -11c-123 0 -182 41 -182 130c0 5 0 13 1 22l22 208c11 107 80 151 213 151c28 0 77 -3 146 -9l-10 -92c-56 7 -100 10 -131 10c-43 0 -73 -7 -90 -20c-16 -13 -26 -40 -30 -79l-14 -131c-1 -13 -2 -23 -2 -28c0 -53 25 -70 102 -70
c28 0 84 4 117 8zM208 538h-85l119 150h100l87 -150h-85l-59 88z" />
    <glyph glyph-name="Ccaron.smcp" unicode="&#xe236;" horiz-adv-x="441" 
d="M422 92l-9 -92c-91 -7 -144 -11 -159 -11c-123 0 -182 41 -182 130c0 5 0 13 1 22l22 208c11 107 80 151 213 151c28 0 77 -3 146 -9l-10 -92c-56 7 -100 10 -131 10c-43 0 -73 -7 -90 -20c-16 -13 -26 -40 -30 -79l-14 -131c-1 -13 -2 -23 -2 -28c0 -53 25 -70 102 -70
c28 0 84 4 117 8zM139 688h85l59 -88l77 88h85l-119 -150h-100z" />
    <glyph glyph-name="Cdotaccent.smcp" unicode="&#xe237;" horiz-adv-x="441" 
d="M422 92l-9 -92c-91 -7 -144 -11 -159 -11c-123 0 -182 41 -182 130c0 5 0 13 1 22l22 208c11 107 80 151 213 151c28 0 77 -3 146 -9l-10 -92c-56 7 -100 10 -131 10c-43 0 -73 -7 -90 -20c-16 -13 -26 -40 -30 -79l-14 -131c-1 -13 -2 -23 -2 -28c0 -53 25 -70 102 -70
c28 0 84 4 117 8zM331 562h-104l11 108h104z" />
    <glyph glyph-name="Ccedilla.smcp" unicode="&#xe238;" horiz-adv-x="441" 
d="M104 -219l7 62c24 -6 44 -9 61 -9c27 0 42 9 43 26l2 18c1 13 -9 21 -26 21c-3 0 -5 0 -8 -1l-32 31l53 63c-88 9 -132 52 -132 127c0 5 0 13 1 22l22 208c11 107 80 151 213 151c28 0 77 -3 146 -9l-10 -92c-56 7 -100 10 -131 10c-43 0 -73 -7 -90 -20
c-16 -13 -26 -40 -30 -79l-14 -131c-1 -13 -2 -23 -2 -28c0 -53 25 -70 102 -70c28 0 84 4 117 8l26 3l-9 -92c-8 -1 -31 -2 -68 -5s-64 -5 -81 -6l-35 -42c47 0 71 -18 71 -55c0 -5 0 -10 -1 -15l-3 -24c-6 -55 -45 -83 -116 -83c-21 0 -47 4 -76 11z" />
    <glyph glyph-name="Dcaron.smcp" unicode="&#xe239;" horiz-adv-x="512" 
d="M491 340l-20 -190c-4 -42 -21 -78 -52 -107c-30 -29 -66 -43 -107 -43h-253l51 490h253c76 0 129 -57 129 -132c0 -5 0 -11 -1 -18zM376 184l13 123c1 5 1 11 1 20c0 49 -23 72 -78 72h-114l-32 -307h113c63 0 90 28 97 92zM175 688h85l59 -88l77 88h85l-119 -150h-100z
" />
    <glyph glyph-name="Dcroat.smcp" unicode="&#xe23c;" horiz-adv-x="512" 
d="M16 203l8 82h59l22 205h253c76 0 129 -57 129 -132c0 -5 0 -11 -1 -18l-20 -190c-4 -42 -21 -78 -52 -107c-30 -29 -66 -43 -107 -43h-253l21 203h-59zM371 184l13 123c1 5 1 11 1 20c0 49 -23 72 -78 72h-114l-12 -114h123l-8 -82h-124l-11 -111h113c63 0 90 28 97 92z
" />
    <glyph glyph-name="Eacute.smcp" unicode="&#xe23d;" horiz-adv-x="424" 
d="M399 0h-340l51 490h332l-10 -91h-234l-11 -108h192l-9 -90h-192l-12 -109h242zM260 538h-89l94 150h117z" />
    <glyph glyph-name="Egrave.smcp" unicode="&#xe23e;" horiz-adv-x="424" 
d="M399 0h-340l51 490h332l-10 -91h-234l-11 -108h192l-9 -90h-192l-12 -109h242zM366 538h-89l-90 150h117z" />
    <glyph glyph-name="Ecircumflex.smcp" unicode="&#xe23f;" horiz-adv-x="424" 
d="M399 0h-340l51 490h332l-10 -91h-234l-11 -108h192l-9 -90h-192l-12 -109h242zM200 538h-85l119 150h100l87 -150h-85l-59 88z" />
    <glyph glyph-name="Edieresis.smcp" unicode="&#xe240;" horiz-adv-x="424" 
d="M399 0h-340l51 490h332l-10 -91h-234l-11 -108h192l-9 -90h-192l-12 -109h242zM232 557h-110l12 113h110zM418 557h-110l12 113h110z" />
    <glyph glyph-name="Ecaron.smcp" unicode="&#xe241;" horiz-adv-x="424" 
d="M399 0h-340l51 490h332l-10 -91h-234l-11 -108h192l-9 -90h-192l-12 -109h242zM131 688h85l59 -88l77 88h85l-119 -150h-100z" />
    <glyph glyph-name="Emacron.smcp" unicode="&#xe242;" horiz-adv-x="424" 
d="M399 0h-340l51 490h332l-10 -91h-234l-11 -108h192l-9 -90h-192l-12 -109h242zM145 568l10 90h252l-10 -90h-252z" />
    <glyph glyph-name="Ebreve.smcp" unicode="&#xe243;" horiz-adv-x="424" 
d="M399 0h-340l51 490h332l-10 -91h-234l-11 -108h192l-9 -90h-192l-12 -109h242zM287 530h-40c-69 0 -112 44 -112 117c0 7 1 20 4 39h75c-1 -3 -1 -8 -1 -15c0 -45 25 -68 57 -68h10c35 0 66 27 74 83h75c-5 -96 -62 -156 -142 -156z" />
    <glyph glyph-name="Edotaccent.smcp" unicode="&#xe246;" horiz-adv-x="424" 
d="M399 0h-340l51 490h332l-10 -91h-234l-11 -108h192l-9 -90h-192l-12 -109h242zM323 562h-104l11 108h104z" />
    <glyph glyph-name="Eogonek.smcp" unicode="&#xe249;" horiz-adv-x="424" 
d="M408 92l-9 -92c-71 -35 -110 -67 -114 -119l-1 -12v-3c0 -18 12 -27 36 -27l63 9l-8 -67c-27 -7 -53 -11 -78 -11c-70 0 -105 23 -105 70c0 3 0 8 1 16l3 26c5 46 43 85 113 118h-250l51 490h332l-10 -91h-234l-11 -108h192l-9 -90h-192l-12 -109h242z" />
    <glyph glyph-name="Gcircumflex.smcp" unicode="&#xe24b;" horiz-adv-x="511" 
d="M458 4c-106 -10 -174 -15 -204 -15c-124 0 -182 38 -182 127c0 9 0 17 1 24l22 210c11 105 80 150 213 150c37 0 90 -3 159 -9l-10 -92c-65 7 -113 10 -144 10c-44 0 -74 -7 -91 -20s-27 -40 -32 -79l-14 -130c-1 -11 -2 -20 -2 -27c0 -55 25 -72 100 -72l97 5l11 109
h-104l9 90h200zM243 538h-85l119 150h100l87 -150h-85l-59 88z" />
    <glyph glyph-name="Gbreve.smcp" unicode="&#xe24e;" horiz-adv-x="511" 
d="M458 4c-106 -10 -174 -15 -204 -15c-124 0 -182 38 -182 127c0 9 0 17 1 24l22 210c11 105 80 150 213 150c37 0 90 -3 159 -9l-10 -92c-65 7 -113 10 -144 10c-44 0 -74 -7 -91 -20s-27 -40 -32 -79l-14 -130c-1 -11 -2 -20 -2 -27c0 -55 25 -72 100 -72l97 5l11 109
h-104l9 90h200zM330 530h-40c-69 0 -112 44 -112 117c0 7 1 20 4 39h75c-1 -3 -1 -8 -1 -15c0 -45 25 -68 57 -68h10c35 0 66 27 74 83h75c-5 -96 -62 -156 -142 -156z" />
    <glyph glyph-name="Gdotaccent.smcp" unicode="&#xe24f;" horiz-adv-x="511" 
d="M458 4c-106 -10 -174 -15 -204 -15c-124 0 -182 38 -182 127c0 9 0 17 1 24l22 210c11 105 80 150 213 150c37 0 90 -3 159 -9l-10 -92c-65 7 -113 10 -144 10c-44 0 -74 -7 -91 -20s-27 -40 -32 -79l-14 -130c-1 -11 -2 -20 -2 -27c0 -55 25 -72 100 -72l97 5l11 109
h-104l9 90h200zM366 562h-104l11 108h104z" />
    <glyph glyph-name="Gcommaaccent.smcp" unicode="&#xe250;" horiz-adv-x="511" 
d="M458 4c-106 -10 -174 -15 -204 -15c-124 0 -182 38 -182 127c0 9 0 17 1 24l22 210c11 105 80 150 213 150c37 0 90 -3 159 -9l-10 -92c-65 7 -113 10 -144 10c-44 0 -74 -7 -91 -20s-27 -40 -32 -79l-14 -130c-1 -11 -2 -20 -2 -27c0 -55 25 -72 100 -72l97 5l11 109
h-104l9 90h200zM168 -221l47 166h97l-68 -166h-76z" />
    <glyph glyph-name="Hcircumflex.smcp" unicode="&#xe253;" horiz-adv-x="544" 
d="M485 0h-99l21 201h-228l-21 -201h-99l51 490h99l-21 -199h228l21 199h99zM260 538h-85l119 150h100l87 -150h-85l-59 88z" />
    <glyph glyph-name="Hbar.smcp" unicode="&#xe257;" horiz-adv-x="544" 
d="M485 0h-99l21 201h-228l-21 -201h-99l51 490h99l-6 -58h228l6 58h99zM188 291h228l6 55h-228z" />
    <glyph glyph-name="Iacute.smcp" unicode="&#xe258;" horiz-adv-x="248" 
d="M175 0h-102l51 490h102zM172 538h-89l94 150h117z" />
    <glyph glyph-name="Igrave.smcp" unicode="&#xe259;" horiz-adv-x="248" 
d="M175 0h-102l51 490h102zM278 538h-89l-90 150h117z" />
    <glyph glyph-name="Icircumflex.smcp" unicode="&#xe25a;" horiz-adv-x="248" 
d="M175 0h-102l51 490h102zM112 538h-85l119 150h100l87 -150h-85l-59 88z" />
    <glyph glyph-name="Idieresis.smcp" unicode="&#xe25b;" horiz-adv-x="248" 
d="M175 0h-102l51 490h102zM144 557h-110l12 113h110zM330 557h-110l12 113h110z" />
    <glyph glyph-name="Itilde.smcp" unicode="&#xe25c;" horiz-adv-x="248" 
d="M175 0h-102l51 490h102zM183 571l-34 21c-7 3 -16 4 -26 4c-25 0 -41 -14 -48 -41h-80c13 76 69 122 129 122c25 0 48 -8 71 -23l32 -20c9 -3 18 -4 26 -4c25 0 41 14 48 41h80c-13 -76 -69 -122 -129 -122c-21 0 -44 7 -69 22z" />
    <glyph glyph-name="Imacron.smcp" unicode="&#xe25e;" horiz-adv-x="248" 
d="M175 0h-102l51 490h102zM57 568l10 90h252l-10 -90h-252z" />
    <glyph glyph-name="Ibreve.smcp" unicode="&#xe25f;" horiz-adv-x="248" 
d="M175 0h-102l51 490h102zM199 530h-40c-69 0 -112 44 -112 117c0 7 1 20 4 39h75c-1 -3 -1 -8 -1 -15c0 -45 25 -68 57 -68h10c35 0 66 27 74 83h75c-5 -96 -62 -156 -142 -156z" />
    <glyph glyph-name="Idotaccent.smcp" unicode="&#xe262;" horiz-adv-x="248" 
d="M175 0h-102l51 490h102zM235 562h-104l11 108h104z" />
    <glyph glyph-name="Iogonek.smcp" unicode="&#xe264;" horiz-adv-x="248" 
d="M226 490l-51 -490c-72 -33 -111 -67 -116 -119l-1 -12v-4c0 -17 12 -26 36 -26l63 9l-8 -67c-27 -7 -53 -11 -78 -11c-69 0 -104 23 -104 70c0 3 0 8 1 16l3 26c5 48 39 87 102 118l51 490h102z" />
    <glyph glyph-name="Jcircumflex.smcp" unicode="&#xe265;" horiz-adv-x="248" 
d="M22 -156h-99l10 92h70l70 64l51 490h102l-55 -523c-2 -6 -8 -14 -18 -24l-101 -93c-7 -4 -17 -6 -30 -6zM112 538h-85l119 150h100l87 -150h-85l-59 88z" />
    <glyph glyph-name="Kcommaaccent.smcp" unicode="&#xe268;" horiz-adv-x="452" 
d="M454 0h-124l-141 201h-10l-21 -201h-99l51 490h99l-21 -199h10l182 199h119l-221 -241zM139 -221l47 166h97l-68 -166h-76z" />
    <glyph glyph-name="Lacute.smcp" unicode="&#xe26b;" horiz-adv-x="407" 
d="M385 0h-326l51 490h99l-42 -398h227zM203 538h-89l94 150h117z" />
    <glyph glyph-name="Lcaron.smcp" unicode="&#xe26c;" horiz-adv-x="407" 
d="M385 0h-326l51 490h99l-42 -398h227zM259 339l40 161h103l-71 -161h-72z" />
    <glyph glyph-name="Lcommaaccent.smcp" unicode="&#xe26d;" horiz-adv-x="407" 
d="M385 0h-326l51 490h99l-42 -398h227zM116 -221l47 166h97l-68 -166h-76z" />
    <glyph glyph-name="Ldot.smcp" unicode="&#xe271;" horiz-adv-x="407" 
d="M385 0h-326l51 490h99l-42 -398h227zM362 221h-104l11 108h104z" />
    <glyph glyph-name="Lslash.smcp" unicode="&#xe272;" horiz-adv-x="407" 
d="M385 0h-326l19 181l-51 -27l-29 61l88 47l24 228h99l-18 -173l90 48l29 -58l-128 -69l-15 -146h227z" />
    <glyph glyph-name="Nacute.smcp" unicode="&#xe276;" horiz-adv-x="544" 
d="M485 0h-102l-189 346l-36 -346h-99l51 490h101l189 -348l37 348h99zM320 538h-89l94 150h117z" />
    <glyph glyph-name="Ntilde.smcp" unicode="&#xe279;" horiz-adv-x="544" 
d="M485 0h-102l-189 346l-36 -346h-99l51 490h101l189 -348l37 348h99zM331 571l-34 21c-7 3 -16 4 -26 4c-25 0 -41 -14 -48 -41h-80c13 76 69 122 129 122c25 0 48 -8 71 -23l32 -20c9 -3 18 -4 26 -4c25 0 41 14 48 41h80c-13 -76 -69 -122 -129 -122c-21 0 -44 7 -69 22
z" />
    <glyph glyph-name="Ncaron.smcp" unicode="&#xe27a;" horiz-adv-x="544" 
d="M485 0h-102l-189 346l-36 -346h-99l51 490h101l189 -348l37 348h99zM191 688h85l59 -88l77 88h85l-119 -150h-100z" />
    <glyph glyph-name="Ncommaaccent.smcp" unicode="&#xe27d;" horiz-adv-x="544" 
d="M485 0h-102l-189 346l-36 -346h-99l51 490h101l189 -348l37 348h99zM185 -221l47 166h97l-68 -166h-76z" />
    <glyph glyph-name="Oacute.smcp" unicode="&#xe281;" horiz-adv-x="538" 
d="M321 500c121 0 192 -57 192 -157c0 -8 0 -16 -1 -24l-15 -145c-12 -117 -98 -185 -230 -185c-121 0 -192 57 -192 158c0 9 1 20 2 31l15 141c12 115 97 181 229 181zM312 413c-76 0 -114 -39 -123 -123l-10 -91c-1 -6 -1 -14 -1 -25c0 -65 33 -98 98 -98
c76 0 114 39 123 123l10 91c1 9 1 18 1 27c0 64 -33 96 -98 96zM317 538h-89l94 150h117z" />
    <glyph glyph-name="Ograve.smcp" unicode="&#xe282;" horiz-adv-x="538" 
d="M321 500c121 0 192 -57 192 -157c0 -8 0 -16 -1 -24l-15 -145c-12 -117 -98 -185 -230 -185c-121 0 -192 57 -192 158c0 9 1 20 2 31l15 141c12 115 97 181 229 181zM312 413c-76 0 -114 -39 -123 -123l-10 -91c-1 -6 -1 -14 -1 -25c0 -65 33 -98 98 -98
c76 0 114 39 123 123l10 91c1 9 1 18 1 27c0 64 -33 96 -98 96zM423 538h-89l-90 150h117z" />
    <glyph glyph-name="Ocircumflex.smcp" unicode="&#xe283;" horiz-adv-x="538" 
d="M321 500c121 0 192 -57 192 -157c0 -8 0 -16 -1 -24l-15 -145c-12 -117 -98 -185 -230 -185c-121 0 -192 57 -192 158c0 9 1 20 2 31l15 141c12 115 97 181 229 181zM312 413c-76 0 -114 -39 -123 -123l-10 -91c-1 -6 -1 -14 -1 -25c0 -65 33 -98 98 -98
c76 0 114 39 123 123l10 91c1 9 1 18 1 27c0 64 -33 96 -98 96zM257 538h-85l119 150h100l87 -150h-85l-59 88z" />
    <glyph glyph-name="Odieresis.smcp" unicode="&#xe284;" horiz-adv-x="538" 
d="M321 500c121 0 192 -57 192 -157c0 -8 0 -16 -1 -24l-15 -145c-12 -117 -98 -185 -230 -185c-121 0 -192 57 -192 158c0 9 1 20 2 31l15 141c12 115 97 181 229 181zM312 413c-76 0 -114 -39 -123 -123l-10 -91c-1 -6 -1 -14 -1 -25c0 -65 33 -98 98 -98
c76 0 114 39 123 123l10 91c1 9 1 18 1 27c0 64 -33 96 -98 96zM289 557h-110l12 113h110zM475 557h-110l12 113h110z" />
    <glyph glyph-name="Otilde.smcp" unicode="&#xe285;" horiz-adv-x="538" 
d="M321 500c121 0 192 -57 192 -157c0 -8 0 -16 -1 -24l-15 -145c-12 -117 -98 -185 -230 -185c-121 0 -192 57 -192 158c0 9 1 20 2 31l15 141c12 115 97 181 229 181zM312 413c-76 0 -114 -39 -123 -123l-10 -91c-1 -6 -1 -14 -1 -25c0 -65 33 -98 98 -98
c76 0 114 39 123 123l10 91c1 9 1 18 1 27c0 64 -33 96 -98 96zM328 571l-34 21c-7 3 -16 4 -26 4c-25 0 -41 -14 -48 -41h-80c13 76 69 122 129 122c25 0 48 -8 71 -23l32 -20c9 -3 18 -4 26 -4c25 0 41 14 48 41h80c-13 -76 -69 -122 -129 -122c-21 0 -44 7 -69 22z" />
    <glyph glyph-name="Omacron.smcp" unicode="&#xe287;" horiz-adv-x="538" 
d="M321 500c121 0 192 -57 192 -157c0 -8 0 -16 -1 -24l-15 -145c-12 -117 -98 -185 -230 -185c-121 0 -192 57 -192 158c0 9 1 20 2 31l15 141c12 115 97 181 229 181zM312 413c-76 0 -114 -39 -123 -123l-10 -91c-1 -6 -1 -14 -1 -25c0 -65 33 -98 98 -98
c76 0 114 39 123 123l10 91c1 9 1 18 1 27c0 64 -33 96 -98 96zM202 568l10 90h252l-10 -90h-252z" />
    <glyph glyph-name="Obreve.smcp" unicode="&#xe288;" horiz-adv-x="538" 
d="M321 500c121 0 192 -57 192 -157c0 -8 0 -16 -1 -24l-15 -145c-12 -117 -98 -185 -230 -185c-121 0 -192 57 -192 158c0 9 1 20 2 31l15 141c12 115 97 181 229 181zM312 413c-76 0 -114 -39 -123 -123l-10 -91c-1 -6 -1 -14 -1 -25c0 -65 33 -98 98 -98
c76 0 114 39 123 123l10 91c1 9 1 18 1 27c0 64 -33 96 -98 96zM344 530h-40c-69 0 -112 44 -112 117c0 7 1 20 4 39h75c-1 -3 -1 -8 -1 -15c0 -45 25 -68 57 -68h10c35 0 66 27 74 83h75c-5 -96 -62 -156 -142 -156z" />
    <glyph glyph-name="Ohungarumlaut.smcp" unicode="&#xe28a;" horiz-adv-x="538" 
d="M321 500c121 0 192 -57 192 -157c0 -8 0 -16 -1 -24l-15 -145c-12 -117 -98 -185 -230 -185c-121 0 -192 57 -192 158c0 9 1 20 2 31l15 141c12 115 97 181 229 181zM312 413c-76 0 -114 -39 -123 -123l-10 -91c-1 -6 -1 -14 -1 -25c0 -65 33 -98 98 -98
c76 0 114 39 123 123l10 91c1 9 1 18 1 27c0 64 -33 96 -98 96zM149 531l105 164h104l-125 -164h-84zM309 531l105 164h104l-125 -164h-84z" />
    <glyph glyph-name="Oslash.smcp" unicode="&#xe295;" horiz-adv-x="538" 
d="M321 500c32 0 60 -4 84 -12l43 71l56 -30l-42 -70c34 -28 51 -67 51 -116c0 -8 0 -16 -1 -24l-15 -145c-12 -117 -98 -185 -230 -185c-30 0 -58 4 -83 11l-50 -83l-56 29l49 82c-35 27 -52 67 -52 119c0 9 1 20 2 31l15 141c12 115 97 181 229 181zM312 413
c-76 0 -114 -39 -123 -123l-10 -91c-1 -6 -1 -14 -1 -25c0 -19 3 -35 8 -49l170 282c-13 4 -28 6 -44 6zM410 317c0 15 -2 30 -7 45l-170 -281c13 -3 28 -5 43 -5c76 0 114 39 123 123l10 91c1 9 1 18 1 27z" />
    <glyph glyph-name="OE.smcp" unicode="&#xe298;" horiz-adv-x="742" 
d="M717 0h-340v8c-33 -13 -69 -19 -110 -19c-121 0 -192 56 -192 159c0 7 1 18 2 31l15 140c12 115 97 181 229 181c41 0 76 -6 106 -18l1 8h332l-10 -91h-230l-11 -108h188l-9 -90h-188l-12 -109h238zM312 413c-75 0 -112 -39 -121 -123l-10 -91c-1 -7 -1 -15 -1 -26
c0 -65 32 -97 96 -97c75 0 112 39 121 123l10 91c1 7 1 16 1 28c0 64 -29 95 -96 95z" />
    <glyph glyph-name="Racute.smcp" unicode="&#xe29a;" horiz-adv-x="464" 
d="M280 538h-89l94 150h117zM462 375l-9 -83c-5 -52 -30 -88 -77 -107l86 -185h-110l-77 167h-99l-17 -167h-100l51 490h219c81 0 134 -36 134 -101c0 -3 0 -7 -1 -14zM185 253h106c37 0 57 17 61 51l5 45c1 5 1 9 1 11c0 27 -17 40 -51 40h-106z" />
    <glyph glyph-name="Rcaron.smcp" unicode="&#xe29b;" horiz-adv-x="464" 
d="M151 688h85l59 -88l77 88h85l-119 -150h-100zM462 375l-9 -83c-5 -52 -30 -88 -77 -107l86 -185h-110l-77 167h-99l-17 -167h-100l51 490h219c81 0 134 -36 134 -101c0 -3 0 -7 -1 -14zM185 253h106c37 0 57 17 61 51l5 45c1 5 1 9 1 11c0 27 -17 40 -51 40h-106z" />
    <glyph glyph-name="Rcommaaccent.smcp" unicode="&#xe29e;" horiz-adv-x="464" 
d="M145 -221l47 166h97l-68 -166h-76zM462 375l-9 -83c-5 -52 -30 -88 -77 -107l86 -185h-110l-77 167h-99l-17 -167h-100l51 490h219c81 0 134 -36 134 -101c0 -3 0 -7 -1 -14zM185 253h106c37 0 57 17 61 51l5 45c1 5 1 9 1 11c0 27 -17 40 -51 40h-106z" />
    <glyph glyph-name="Sacute.smcp" unicode="&#xe302;" horiz-adv-x="435" 
d="M411 158l-4 -42c-4 -45 -25 -77 -63 -97s-81 -30 -130 -30s-114 4 -146 8l-24 3l9 89c65 -8 117 -12 156 -12c61 0 93 16 97 48l3 26c1 6 1 10 1 11c0 19 -15 31 -44 35l-91 12c-60 8 -100 48 -100 107c0 3 0 8 1 15l5 42c10 85 74 127 193 127c40 0 96 -4 124 -8l21 -2
l-9 -89c-53 7 -96 10 -131 10c-64 0 -94 -14 -98 -51l-2 -19c-1 -7 -1 -11 -1 -12c0 -21 11 -31 46 -36l88 -12c63 -9 100 -49 100 -106c0 -4 0 -10 -1 -17zM265 538h-89l94 150h117z" />
    <glyph glyph-name="Scircumflex.smcp" unicode="&#xe303;" horiz-adv-x="435" 
d="M411 158l-4 -42c-4 -45 -25 -77 -63 -97s-81 -30 -130 -30s-114 4 -146 8l-24 3l9 89c65 -8 117 -12 156 -12c61 0 93 16 97 48l3 26c1 6 1 10 1 11c0 19 -15 31 -44 35l-91 12c-60 8 -100 48 -100 107c0 3 0 8 1 15l5 42c10 85 74 127 193 127c40 0 96 -4 124 -8l21 -2
l-9 -89c-53 7 -96 10 -131 10c-64 0 -94 -14 -98 -51l-2 -19c-1 -7 -1 -11 -1 -12c0 -21 11 -31 46 -36l88 -12c63 -9 100 -49 100 -106c0 -4 0 -10 -1 -17zM205 538h-85l119 150h100l87 -150h-85l-59 88z" />
    <glyph glyph-name="Scaron.smcp" unicode="&#xe304;" horiz-adv-x="435" 
d="M411 158l-4 -42c-4 -45 -25 -77 -63 -97s-81 -30 -130 -30s-114 4 -146 8l-24 3l9 89c65 -8 117 -12 156 -12c61 0 93 16 97 48l3 26c1 6 1 10 1 11c0 19 -15 31 -44 35l-91 12c-60 8 -100 48 -100 107c0 3 0 8 1 15l5 42c10 85 74 127 193 127c40 0 96 -4 124 -8l21 -2
l-9 -89c-53 7 -96 10 -131 10c-64 0 -94 -14 -98 -51l-2 -19c-1 -7 -1 -11 -1 -12c0 -21 11 -31 46 -36l88 -12c63 -9 100 -49 100 -106c0 -4 0 -10 -1 -17zM136 688h85l59 -88l77 88h85l-119 -150h-100z" />
    <glyph glyph-name="Scommaaccent.smcp" unicode="&#xe305;" horiz-adv-x="435" 
d="M411 158l-4 -42c-4 -45 -25 -77 -63 -97s-81 -30 -130 -30s-114 4 -146 8l-24 3l9 89c65 -8 117 -12 156 -12c61 0 93 16 97 48l3 26c1 6 1 10 1 11c0 19 -15 31 -44 35l-91 12c-60 8 -100 48 -100 107c0 3 0 8 1 15l5 42c10 85 74 127 193 127c40 0 96 -4 124 -8l21 -2
l-9 -89c-53 7 -96 10 -131 10c-64 0 -94 -14 -98 -51l-2 -19c-1 -7 -1 -11 -1 -12c0 -21 11 -31 46 -36l88 -12c63 -9 100 -49 100 -106c0 -4 0 -10 -1 -17zM130 -221l47 166h97l-68 -166h-76z" />
    <glyph glyph-name="Scedilla.smcp" unicode="&#xe306;" horiz-adv-x="435" 
d="M101 -219l7 62c24 -6 44 -9 61 -9c27 0 42 9 43 26l2 18c1 13 -9 21 -26 21c-3 0 -5 0 -8 -1l-32 31l51 60c-47 0 -106 5 -134 9l-21 2l9 89c65 -8 117 -12 156 -12c61 0 93 16 97 48l3 26c1 6 1 10 1 11c0 19 -15 31 -44 35l-91 12c-60 8 -100 48 -100 107c0 3 0 8 1 15
l5 42c10 85 74 127 193 127c40 0 96 -4 124 -8l21 -2l-9 -89c-53 7 -96 10 -131 10c-64 0 -94 -14 -98 -51l-2 -19c-1 -7 -1 -11 -1 -12c0 -21 11 -31 46 -36l88 -12c63 -9 100 -49 100 -106c0 -4 0 -10 -1 -17l-4 -42c-7 -73 -66 -111 -143 -123l-38 -46
c47 0 71 -18 71 -55c0 -5 0 -10 -1 -15l-3 -24c-6 -55 -45 -83 -116 -83c-21 0 -47 4 -76 11z" />
    <glyph glyph-name="Tcaron.smcp" unicode="&#xe309;" horiz-adv-x="422" 
d="M456 399h-154l-41 -399h-100l41 399h-154l10 91h408zM130 688h85l59 -88l77 88h85l-119 -150h-100z" />
    <glyph glyph-name="Tcommaaccent.smcp" unicode="&#xe30a;" horiz-adv-x="422" 
d="M456 399h-154l-41 -399h-100l41 399h-154l10 91h408zM124 -221l47 166h97l-68 -166h-76z" />
    <glyph glyph-name="Tbar.smcp" unicode="&#xe30d;" horiz-adv-x="422" 
d="M456 399h-154l-14 -130h113l-9 -82h-112l-19 -187h-100l19 187h-112l9 82h111l14 130h-154l10 91h408z" />
    <glyph glyph-name="Uacute.smcp" unicode="&#xe30e;" horiz-adv-x="538" 
d="M267 -11c-127 0 -191 54 -191 163c0 10 1 22 2 36l32 302h100l-32 -300c-1 -6 -1 -12 -1 -18c0 -61 33 -91 100 -91c73 0 113 36 121 109l32 300h100l-32 -302c-14 -133 -91 -199 -231 -199zM317 538h-89l94 150h117z" />
    <glyph glyph-name="Ugrave.smcp" unicode="&#xe30f;" horiz-adv-x="538" 
d="M267 -11c-127 0 -191 54 -191 163c0 10 1 22 2 36l32 302h100l-32 -300c-1 -6 -1 -12 -1 -18c0 -61 33 -91 100 -91c73 0 113 36 121 109l32 300h100l-32 -302c-14 -133 -91 -199 -231 -199zM423 538h-89l-90 150h117z" />
    <glyph glyph-name="Ucircumflex.smcp" unicode="&#xe310;" horiz-adv-x="538" 
d="M267 -11c-127 0 -191 54 -191 163c0 10 1 22 2 36l32 302h100l-32 -300c-1 -6 -1 -12 -1 -18c0 -61 33 -91 100 -91c73 0 113 36 121 109l32 300h100l-32 -302c-14 -133 -91 -199 -231 -199zM257 538h-85l119 150h100l87 -150h-85l-59 88z" />
    <glyph glyph-name="Udieresis.smcp" unicode="&#xe311;" horiz-adv-x="538" 
d="M267 -11c-127 0 -191 54 -191 163c0 10 1 22 2 36l32 302h100l-32 -300c-1 -6 -1 -12 -1 -18c0 -61 33 -91 100 -91c73 0 113 36 121 109l32 300h100l-32 -302c-14 -133 -91 -199 -231 -199zM289 557h-110l12 113h110zM475 557h-110l12 113h110z" />
    <glyph glyph-name="Utilde.smcp" unicode="&#xe312;" horiz-adv-x="538" 
d="M267 -11c-127 0 -191 54 -191 163c0 10 1 22 2 36l32 302h100l-32 -300c-1 -6 -1 -12 -1 -18c0 -61 33 -91 100 -91c73 0 113 36 121 109l32 300h100l-32 -302c-14 -133 -91 -199 -231 -199zM328 571l-34 21c-7 3 -16 4 -26 4c-25 0 -41 -14 -48 -41h-80
c13 76 69 122 129 122c25 0 48 -8 71 -23l32 -20c9 -3 18 -4 26 -4c25 0 41 14 48 41h80c-13 -76 -69 -122 -129 -122c-21 0 -44 7 -69 22z" />
    <glyph glyph-name="Uring.smcp" unicode="&#xe313;" horiz-adv-x="538" 
d="M267 -11c-127 0 -191 54 -191 163c0 10 1 22 2 36l32 302h100l-32 -300c-1 -6 -1 -12 -1 -18c0 -61 33 -91 100 -91c73 0 113 36 121 109l32 300h100l-32 -302c-14 -133 -91 -199 -231 -199zM332 742h28c52 0 96 -38 96 -98c0 -37 -12 -67 -37 -90
c-24 -23 -51 -34 -82 -34h-28c-53 0 -95 36 -95 95c0 38 12 69 36 92s51 35 82 35zM331 682c-29 0 -51 -25 -51 -58c0 -27 15 -44 40 -44h18c29 0 52 25 52 58c0 27 -16 44 -41 44h-18z" />
    <glyph glyph-name="Umacron.smcp" unicode="&#xe315;" horiz-adv-x="538" 
d="M267 -11c-127 0 -191 54 -191 163c0 10 1 22 2 36l32 302h100l-32 -300c-1 -6 -1 -12 -1 -18c0 -61 33 -91 100 -91c73 0 113 36 121 109l32 300h100l-32 -302c-14 -133 -91 -199 -231 -199zM202 568l10 90h252l-10 -90h-252z" />
    <glyph glyph-name="Ubreve.smcp" unicode="&#xe316;" horiz-adv-x="538" 
d="M267 -11c-127 0 -191 54 -191 163c0 10 1 22 2 36l32 302h100l-32 -300c-1 -6 -1 -12 -1 -18c0 -61 33 -91 100 -91c73 0 113 36 121 109l32 300h100l-32 -302c-14 -133 -91 -199 -231 -199zM344 530h-40c-69 0 -112 44 -112 117c0 7 1 20 4 39h75c-1 -3 -1 -8 -1 -15
c0 -45 25 -68 57 -68h10c35 0 66 27 74 83h75c-5 -96 -62 -156 -142 -156z" />
    <glyph glyph-name="Uhungarumlaut.smcp" unicode="&#xe318;" horiz-adv-x="538" 
d="M267 -11c-127 0 -191 54 -191 163c0 10 1 22 2 36l32 302h100l-32 -300c-1 -6 -1 -12 -1 -18c0 -61 33 -91 100 -91c73 0 113 36 121 109l32 300h100l-32 -302c-14 -133 -91 -199 -231 -199zM149 531l105 164h104l-125 -164h-84zM309 531l105 164h104l-125 -164h-84z" />
    <glyph glyph-name="Uogonek.smcp" unicode="&#xe31b;" horiz-adv-x="538" 
d="M530 490l-32 -302c-12 -108 -58 -161 -142 -188c-69 -40 -103 -68 -107 -119l-1 -12c-1 -17 15 -30 36 -30l63 9l-8 -67c-27 -7 -53 -11 -78 -11c-70 0 -105 23 -105 70c0 3 0 9 1 16l3 26c4 39 33 75 88 108c-115 5 -172 59 -172 163c0 10 1 22 2 35l32 302h100
l-32 -300c-1 -5 -1 -11 -1 -18c0 -61 33 -91 100 -91c73 0 113 36 121 109l32 300h100z" />
    <glyph glyph-name="Wcircumflex.smcp" unicode="&#xe31f;" horiz-adv-x="778" 
d="M491 0l-57 389h-10l-137 -389h-130l-84 490h104l48 -387h10l133 387h144l51 -387h10l130 387h104l-186 -490h-130zM377 538h-85l119 150h100l87 -150h-85l-59 88z" />
    <glyph glyph-name="Yacute.smcp" unicode="&#xe321;" horiz-adv-x="454" 
d="M260 287l123 203h107l-194 -290l-20 -200h-98l20 201l-132 289h103l81 -203h10zM275 538h-89l94 150h117z" />
    <glyph glyph-name="Ycircumflex.smcp" unicode="&#xe323;" horiz-adv-x="454" 
d="M260 287l123 203h107l-194 -290l-20 -200h-98l20 201l-132 289h103l81 -203h10zM215 538h-85l119 150h100l87 -150h-85l-59 88z" />
    <glyph glyph-name="Ydieresis.smcp" unicode="&#xe324;" horiz-adv-x="454" 
d="M260 287l123 203h107l-194 -290l-20 -200h-98l20 201l-132 289h103l81 -203h10zM247 557h-110l12 113h110zM433 557h-110l12 113h110z" />
    <glyph glyph-name="IJ.smcp" unicode="&#xe327;" horiz-adv-x="506" 
d="M175 0h-102l51 490h102zM280 -156h-99l10 92h70l70 64l51 490h102l-55 -523c-2 -6 -8 -14 -18 -24l-101 -93c-7 -4 -17 -6 -30 -6z" />
    <glyph glyph-name="Zacute.smcp" unicode="&#xe328;" horiz-adv-x="407" 
d="M380 0h-348l9 86l277 315h-230l9 89h342l-9 -88l-277 -312h236zM251 538h-89l94 150h117z" />
    <glyph glyph-name="Zcaron.smcp" unicode="&#xe329;" horiz-adv-x="407" 
d="M380 0h-348l9 86l277 315h-230l9 89h342l-9 -88l-277 -312h236zM122 688h85l59 -88l77 88h85l-119 -150h-100z" />
    <glyph glyph-name="Zdotaccent.smcp" unicode="&#xe32a;" horiz-adv-x="407" 
d="M380 0h-348l9 86l277 315h-230l9 89h342l-9 -88l-277 -312h236zM314 562h-104l11 108h104z" />
    <glyph glyph-name="Eng.smcp" unicode="&#xe32b;" horiz-adv-x="544" 
d="M536 490l-55 -523c-2 -6 -8 -14 -18 -24l-101 -93c-7 -4 -17 -6 -30 -6h-100l10 92h71l70 64l-189 346l-36 -346h-99l51 490h101l189 -348l37 348h99z" />
    <glyph glyph-name="Eth.smcp" unicode="&#xe32c;" horiz-adv-x="512" 
d="M16 203l8 82h64l22 205h253c76 0 129 -57 129 -132c0 -5 0 -11 -1 -18l-20 -190c-4 -42 -21 -78 -52 -107c-30 -29 -66 -43 -107 -43h-253l21 203h-64zM376 184l13 123c1 5 1 11 1 20c0 49 -23 72 -78 72h-114l-12 -114h118l-8 -82h-119l-11 -111h113c63 0 90 28 97 92z
" />
    <glyph glyph-name="Thorn.smcp" unicode="&#xe32d;" horiz-adv-x="453" 
d="M454 301l-8 -79c-9 -80 -71 -125 -158 -125h-117l-10 -97h-102l51 490h102l-7 -70h117c80 0 133 -35 133 -103c0 -5 0 -10 -1 -16zM180 188h104c38 0 59 17 62 51l4 39c1 6 1 10 1 12c0 27 -17 40 -52 40h-104z" />
    <glyph glyph-name="ordfeminine.smcp" unicode="&#xe351;" horiz-adv-x="406" 
d="M336 307l-20 89h-144l-38 -89h-86l167 369h118l89 -369h-86zM262 604l-61 -139h99l-30 139h-8z" />
    <glyph glyph-name="ordmasculine.smcp" unicode="&#xe352;" horiz-adv-x="452" 
d="M297 684c108 0 162 -46 162 -137c0 -10 0 -19 -1 -28l-6 -61c-11 -111 -76 -166 -196 -166c-108 0 -162 44 -162 133c0 7 1 19 2 34l6 60c11 110 76 165 195 165zM290 613c-60 0 -93 -27 -101 -98l-6 -53c-1 -8 -1 -15 -1 -21c0 -51 27 -77 82 -77c60 0 94 33 101 98
l6 53c1 7 1 13 1 19c0 53 -27 79 -82 79z" />
    <glyph glyph-name="a.superior" unicode="&#xe361;" horiz-adv-x="403" 
d="M380 307h-87l7 61l-95 -67c-7 -3 -18 -4 -33 -4c-60 0 -106 40 -106 105c0 5 0 10 1 16l14 137c8 81 65 130 164 130c24 0 56 -7 73 -12l12 -4l1 8h89zM304 427l19 174c-25 9 -50 14 -74 14c-52 0 -81 -27 -86 -80l-10 -89c-1 -7 -1 -11 -1 -14c0 -35 15 -52 45 -52
c13 0 26 3 39 10z" />
    <glyph glyph-name="o.superior" unicode="&#xe36e;" horiz-adv-x="440" 
d="M291 682c104 0 155 -44 155 -113c0 -5 0 -11 -1 -18l-13 -127c-5 -47 -25 -80 -60 -100s-75 -30 -122 -30c-77 -2 -153 28 -155 113c0 7 0 13 1 18l13 126c8 80 70 131 182 131zM284 612c-53 0 -82 -21 -87 -64l-12 -116c-1 -6 -1 -10 -1 -13c0 -36 31 -53 74 -53
c47 0 83 20 88 64l12 116c1 6 1 10 1 13c0 35 -25 53 -75 53z" />
    <glyph glyph-name="invertedbreve" unicode="&#xe411;" horiz-adv-x="310" 
d="M206 679h40c68 0 111 -44 111 -119c0 -13 -1 -25 -3 -37h-75c1 3 1 8 1 14c0 47 -25 69 -57 69h-10c-35 0 -66 -27 -74 -83h-75c0 41 13 78 39 109s60 47 103 47z" />
    <glyph glyph-name="caronSlovak" unicode="&#xe413;" horiz-adv-x="310" 
d="M151 527l40 161h103l-71 -161h-72z" />
    <glyph glyph-name="commaaccent" unicode="&#xe414;" horiz-adv-x="310" 
d="M68 -221l47 166h97l-68 -166h-76z" />
    <glyph glyph-name="altcedilla" unicode="&#xe416;" horiz-adv-x="310" 
d="M41 -219l7 62c24 -6 44 -9 61 -9c27 0 42 9 43 26l2 18c1 16 -9 24 -30 24c-7 0 -15 -1 -25 -3l-14 34c21 15 44 23 69 23c47 0 82 -25 82 -68c0 -5 0 -11 -1 -18l-2 -17c-7 -55 -45 -83 -116 -83c-21 0 -47 4 -76 11z" />
    <glyph glyph-name="grave.cap" unicode="&#xe421;" horiz-adv-x="310" 
d="M328 740h-89l-90 150h117z" />
    <glyph glyph-name="acute.cap" unicode="&#xe422;" horiz-adv-x="310" 
d="M225 740h-89l94 150h117z" />
    <glyph glyph-name="circumflex.cap" unicode="&#xe423;" horiz-adv-x="310" 
d="M164 740h-85l119 150h100l87 -150h-85l-58 88z" />
    <glyph glyph-name="tilde.cap" unicode="&#xe424;" horiz-adv-x="310" 
d="M235 773l-34 21c-7 3 -16 4 -26 4c-25 0 -41 -14 -48 -41h-80c13 76 69 122 129 122c25 0 48 -8 71 -23l32 -20c9 -3 18 -4 26 -4c25 0 41 14 48 41h80c-13 -76 -69 -122 -129 -122c-21 0 -44 7 -69 22z" />
    <glyph glyph-name="macron.cap" unicode="&#xe425;" horiz-adv-x="310" 
d="M109 768l10 94h252l-10 -94h-252z" />
    <glyph glyph-name="breve.cap" unicode="&#xe426;" horiz-adv-x="310" 
d="M251 732h-40c-68 0 -111 43 -111 118c0 12 1 25 3 38h75c-1 -3 -1 -7 -1 -13c0 -47 25 -70 57 -70h10c35 0 67 27 74 83h75c-4 -96 -62 -156 -142 -156z" />
    <glyph glyph-name="invertedbreve.cap" unicode="&#xe427;" horiz-adv-x="310" 
d="M227 881h40c68 0 111 -44 111 -117c0 -10 -1 -23 -2 -39h-76c1 3 1 7 1 12c0 48 -25 71 -57 71h-10c-35 0 -66 -27 -73 -83h-75c0 47 14 85 41 113c27 29 61 43 100 43z" />
    <glyph glyph-name="dotaccent.cap" unicode="&#xe428;" horiz-adv-x="310" 
d="M287 764h-104l11 108h104z" />
    <glyph glyph-name="dieresis.cap" unicode="&#xe429;" horiz-adv-x="310" 
d="M196 759h-110l12 113h110zM382 759h-110l12 113h110z" />
    <glyph glyph-name="ring.cap" unicode="&#xe42a;" horiz-adv-x="310" 
d="M240 944h28c52 0 95 -38 95 -97c0 -38 -12 -68 -37 -91c-24 -23 -51 -34 -82 -34h-28c-53 0 -95 36 -95 95c0 38 12 69 36 92s52 35 83 35zM238 884c-29 0 -51 -25 -51 -58c0 -27 16 -44 41 -44h18c29 0 51 25 51 58c0 27 -16 44 -41 44h-18z" />
    <glyph glyph-name="hungarumlaut.cap" unicode="&#xe42b;" horiz-adv-x="310" 
d="M53 733l104 164h104l-124 -164h-84zM213 733l104 164h104l-124 -164h-84z" />
    <glyph glyph-name="caron.cap" unicode="&#xe42d;" horiz-adv-x="310" 
d="M95 890h85l59 -88l77 88h85l-119 -150h-100z" />
    <glyph glyph-name="commaaccent.cap" unicode="&#xe42e;" horiz-adv-x="310" 
d="M68 -221l47 166h97l-68 -166h-76z" />
    <glyph glyph-name="exclamdown.cap" unicode="&#xe441;" horiz-adv-x="286" 
d="M150 465h82l-2 -150l-33 -315h-108l33 315zM159 676h110l-14 -129h-110z" />
    <glyph glyph-name="exclam.smcp" unicode="&#xe442;" horiz-adv-x="286" 
d="M200 161h-82l2 141l20 188h108l-20 -188zM195 0h-104l10 101h104z" />
    <glyph glyph-name="exclamdown.smcp" unicode="&#xe443;" horiz-adv-x="286" 
d="M136 329h82l-2 -141l-19 -188h-108l19 188zM142 490h104l-11 -101h-104z" />
    <glyph glyph-name="questiondown.cap" unicode="&#xe444;" horiz-adv-x="415" 
d="M271 676h104l-14 -129h-104zM244 411l6 64h102l-8 -81c-4 -35 -21 -62 -52 -81l-70 -44c-29 -18 -47 -31 -54 -38c-6 -7 -10 -19 -12 -37l-4 -36c-1 -7 -1 -13 -1 -16c0 -28 23 -56 64 -56l167 11l-11 -98c-69 -7 -130 -10 -182 -10c-70 -2 -142 22 -145 108
c0 5 0 11 1 18l10 87c6 43 19 70 36 87c5 8 24 20 28 23c5 4 28 16 31 19l64 40c18 12 28 25 30 40z" />
    <glyph glyph-name="question.smcp" unicode="&#xe445;" horiz-adv-x="353" 
d="M197 0h-104l10 101h104zM212 179l-2 -18h-99l5 44c4 35 15 48 46 67l49 31c33 20 38 23 44 44l3 27c1 6 1 10 1 11c0 19 -15 28 -44 28c-33 0 -81 -4 -105 -7l-19 -3l9 87c59 7 107 10 143 10c80 0 120 -28 120 -85c0 -4 -1 -12 -2 -24l-5 -45c-4 -35 -21 -59 -33 -68
c-5 -4 -17 -11 -35 -22l-54 -33c-17 -11 -19 -21 -22 -44z" />
    <glyph glyph-name="questiondown.smcp" unicode="&#xe446;" horiz-adv-x="353" 
d="M208 500h104l-10 -101h-104zM193 321l2 18h99l-5 -44c-4 -35 -15 -48 -46 -67l-49 -31c-33 -20 -38 -23 -44 -44l-3 -27c-1 -6 -1 -10 -1 -11c0 -19 15 -28 44 -28c33 0 81 4 106 7l18 3l-9 -87c-59 -7 -107 -10 -143 -10c-80 0 -120 28 -120 85c0 4 1 12 2 24l5 45
c4 35 21 59 32 67c6 5 18 12 36 23l54 33c17 11 19 21 22 44z" />
    <glyph glyph-name="guilsinglleft.cap" unicode="&#xe451;" horiz-adv-x="346" 
d="M181 305l-1 -10l133 -150l-66 -59l-175 196l4 36l216 196l53 -59z" />
    <glyph glyph-name="guilsinglright.cap" unicode="&#xe452;" horiz-adv-x="346" 
d="M228 295l1 10l-134 150l67 59l174 -196l-4 -36l-215 -196l-54 59z" />
    <glyph glyph-name="guillemotleft.cap" unicode="&#xe453;" horiz-adv-x="562" 
d="M181 305l-1 -10l133 -150l-66 -59l-175 196l4 36l216 196l53 -59zM397 305l-1 -10l133 -150l-66 -59l-175 196l4 36l216 196l53 -59z" />
    <glyph glyph-name="guillemotright.cap" unicode="&#xe454;" horiz-adv-x="562" 
d="M444 295l1 10l-134 150l67 59l174 -196l-4 -36l-215 -196l-54 59zM228 295l1 10l-134 150l67 59l174 -196l-4 -36l-215 -196l-54 59z" />
    <glyph glyph-name="slash.cap" unicode="&#xe461;" horiz-adv-x="301" 
d="M400 696l-339 -720h-89l338 720h90z" />
    <glyph glyph-name="backslash.cap" unicode="&#xe462;" horiz-adv-x="301" 
d="M234 -24l-187 720h90l187 -720h-90z" />
    <glyph glyph-name="bar.cap" unicode="&#xe463;" horiz-adv-x="267" 
d="M152 -251h-91l105 1001h91z" />
    <glyph glyph-name="doublebar.cap" unicode="&#xe464;" horiz-adv-x="432" 
d="M143 -251h-91l105 1001h91zM326 -251h-91l105 1001h91z" />
    <glyph glyph-name="brokenbar.cap" unicode="&#xe465;" horiz-adv-x="278" 
d="M257 750l-45 -435h-91l45 435h91zM152 -251h-91l46 435h91z" />
    <glyph glyph-name="bullet.cap" unicode="&#xe466;" horiz-adv-x="391" 
d="M244 465c77 0 119 -39 119 -95c0 -4 0 -9 -1 -16l-5 -47c-7 -61 -58 -106 -141 -106c-79 0 -119 37 -119 92c0 5 0 11 1 18l5 47c7 63 56 107 141 107z" />
    <glyph glyph-name="slash.smcp" unicode="&#xe467;" horiz-adv-x="234" 
d="M313 513l-252 -537h-89l251 537h90z" />
    <glyph glyph-name="backslash.smcp" unicode="&#xe468;" horiz-adv-x="234" 
d="M167 -24l-140 537h90l140 -537h-90z" />
    <glyph glyph-name="bar.smcp" unicode="&#xe469;" horiz-adv-x="267" 
d="M164 -141h-91l78 741h91z" />
    <glyph glyph-name="doublebar.smcp" unicode="&#xe46a;" horiz-adv-x="432" 
d="M155 -141h-91l78 741h91zM338 -141h-91l78 741h91z" />
    <glyph glyph-name="brokenbar.smcp" unicode="&#xe46b;" horiz-adv-x="297" 
d="M257 600l-30 -285h-91l30 285h91zM179 -141h-91l34 325h91z" />
    <glyph glyph-name="bullet.smcp" unicode="&#xe46c;" horiz-adv-x="391" 
d="M234 369c77 0 119 -39 119 -95c0 -4 0 -9 -1 -16l-5 -47c-7 -61 -58 -106 -141 -106c-79 0 -119 37 -119 92c0 5 0 11 1 18l5 47c7 63 56 107 141 107z" />
    <glyph glyph-name="onethirdemdash" unicode="&#xe471;" horiz-adv-x="333" 
d="M322 229h-263l9 91h263z" />
    <glyph glyph-name="threequarteremdash" unicode="&#xe472;" horiz-adv-x="750" 
d="M739 229h-680l9 91h680z" />
    <glyph glyph-name="periodcentered.cap" unicode="&#xe481;" horiz-adv-x="244" 
d="M210 277h-118l14 135h118z" />
    <glyph glyph-name="hyphen.cap" unicode="&#xe482;" horiz-adv-x="352" 
d="M345 269h-282l9 91h282z" />
    <glyph glyph-name="onethirdemdash.cap" unicode="&#xe483;" horiz-adv-x="333" 
d="M326 269h-263l9 91h263z" />
    <glyph glyph-name="endash.cap" unicode="&#xe484;" horiz-adv-x="500" 
d="M493 269h-430l9 91h430z" />
    <glyph glyph-name="threequarteremdash.cap" unicode="&#xe485;" horiz-adv-x="750" 
d="M743 269h-680l9 91h680z" />
    <glyph glyph-name="emdash.cap" unicode="&#xe486;" horiz-adv-x="1000" 
d="M993 269h-930l9 91h930z" />
    <glyph glyph-name="figuredash.cap" unicode="&#xe487;" horiz-adv-x="650" 
d="M643 269h-580l9 91h580z" />
    <glyph glyph-name="parenleft.cap" unicode="&#xe491;" horiz-adv-x="324" 
d="M332 794l70 -48c-55 -76 -98 -155 -130 -238c-31 -83 -47 -179 -47 -288c0 -117 29 -231 86 -342l-80 -48c-74 121 -111 252 -111 393c0 208 71 398 212 571z" />
    <glyph glyph-name="parenright.cap" unicode="&#xe492;" horiz-adv-x="324" 
d="M158 794c73 -120 110 -250 110 -391c0 -210 -70 -401 -211 -573l-69 48c54 78 97 158 128 239c31 82 47 177 47 286c0 114 -28 228 -85 343z" />
    <glyph glyph-name="bracketleft.cap" unicode="&#xe493;" horiz-adv-x="296" 
d="M292 -160h-211l100 950h204l-10 -91h-102l-81 -768h109z" />
    <glyph glyph-name="bracketright.cap" unicode="&#xe494;" horiz-adv-x="296" 
d="M181 -160h-210l9 91h108l81 768h-102l10 91h204z" />
    <glyph glyph-name="braceleft.cap" unicode="&#xe495;" horiz-adv-x="355" 
d="M176 313l58 -48c13 -10 19 -28 19 -55c0 -7 -1 -19 -2 -38l-14 -141c-2 -16 -3 -30 -3 -42c0 -39 14 -58 59 -65l-9 -92c-115 4 -153 56 -153 143c0 13 1 28 3 47l13 132c1 21 2 32 2 34c1 18 -5 34 -17 48l-64 72l1 10l79 72c23 20 28 37 33 82l14 132
c5 55 16 92 43 129s76 58 147 61l-10 -92c-30 -5 -50 -15 -59 -30s-16 -40 -20 -77l-15 -141c-5 -48 -18 -79 -37 -93z" />
    <glyph glyph-name="braceright.cap" unicode="&#xe496;" horiz-adv-x="355" 
d="M175 265l68 48l-58 48c-12 10 -19 28 -20 55c0 11 1 24 3 38l15 141c2 15 3 29 3 40c0 40 -15 59 -60 67l10 92c115 -4 152 -57 152 -146c0 -16 -1 -31 -2 -44l-14 -132c-2 -14 -3 -25 -3 -34c0 -19 6 -35 18 -48l65 -72l-1 -10l-80 -72c-23 -20 -29 -38 -33 -82
l-13 -132c-5 -55 -16 -92 -44 -129c-27 -37 -75 -58 -146 -61l9 92c59 9 72 35 80 107l14 141c4 47 16 78 37 93z" />
    <glyph glyph-name="anglebracketleft.cap" unicode="&#xe497;" horiz-adv-x="359" 
d="M258 -164l-200 472l1 10l300 472h112l-301 -475l-1 -4l201 -475h-112z" />
    <glyph glyph-name="anglebracketright.cap" unicode="&#xe498;" horiz-adv-x="359" 
d="M365 308l-300 -472h-111l300 475l1 4l-201 475h112l200 -472z" />
    <glyph glyph-name="at.cap" unicode="&#xe513;" horiz-adv-x="826" 
d="M505 219l-86 -67c-12 -3 -22 -4 -29 -4c-65 0 -103 39 -103 92c0 3 0 8 1 13l2 14c11 70 59 107 144 111l88 4l2 16c1 7 1 11 1 14c0 31 -15 48 -71 48c-25 0 -65 -5 -118 -14l7 67c61 9 102 14 121 14c96 0 141 -25 141 -109c0 -6 -1 -16 -2 -31l-18 -170
c87 0 130 63 130 188c0 62 -22 112 -65 151s-101 58 -174 58c-85 0 -156 -29 -211 -87c-55 -57 -82 -137 -82 -239c0 -151 92 -225 244 -225c56 0 118 13 146 22l21 7l-8 -75c-43 -21 -99 -32 -169 -32c-99 0 -176 27 -233 82s-85 128 -85 220c0 119 36 215 109 290
s165 113 276 113c97 0 173 -26 230 -79s85 -118 85 -197c0 -171 -86 -262 -214 -262c-30 0 -59 4 -86 12zM509 262l6 59l-86 -5c-35 -2 -54 -15 -57 -38l-2 -14c-1 -6 -1 -10 -1 -13c0 -18 11 -27 32 -27c11 0 27 4 48 13z" />
    <glyph glyph-name="Euro.LP" unicode="&#xe521;" horiz-adv-x="572" 
d="M49 377l8 75h97l3 24c15 141 107 211 278 211c21 0 77 -4 167 -11l-11 -96c-63 8 -116 12 -161 12c-60 0 -102 -10 -127 -30s-40 -57 -47 -110h258l-21 -75h-245l-9 -79h235l-21 -75h-221c-1 -5 -1 -13 -1 -23c0 -81 40 -116 145 -116c40 0 104 5 140 9l27 3l-10 -96
c-91 -7 -149 -11 -174 -11c-67 0 -115 9 -162 33c-45 24 -71 72 -71 140c0 13 1 26 2 39l2 22h-97l8 75h97l8 79h-97z" />
    <glyph glyph-name="dollar.LP" unicode="&#xe522;" horiz-adv-x="554" 
d="M320 -154h-86l15 143l-185 10l11 99c75 -8 140 -12 195 -12c95 0 140 28 147 89l3 28c1 7 1 14 1 20c0 36 -17 55 -73 62l-108 13c-81 9 -131 66 -131 145c0 5 0 12 1 20l6 54c12 104 81 160 206 169l15 136h86l-15 -136c37 -1 80 -5 131 -10l-11 -97
c-75 9 -132 13 -170 13c-93 0 -137 -25 -142 -88l-2 -25c-1 -8 -1 -14 -1 -19c0 -37 23 -59 70 -65l114 -14c79 -9 128 -61 128 -138c0 -5 0 -12 -1 -19l-6 -61c-10 -99 -71 -155 -182 -170z" />
    <glyph glyph-name="cent.LP" unicode="&#xe523;" horiz-adv-x="418" 
d="M276 -154h-86l15 145c-93 8 -140 52 -140 133c0 12 0 21 1 26l18 168c9 96 58 157 173 166l16 148h86l-16 -150l79 -7l-9 -89c-51 7 -90 10 -118 10c-67 0 -104 -28 -110 -85l-16 -152c-1 -7 -1 -13 -1 -18c0 -53 30 -64 97 -64c21 0 71 9 103 16l23 5l-9 -86
c-25 -9 -55 -15 -90 -20z" />
    <glyph glyph-name="sterling.LP" unicode="&#xe524;" horiz-adv-x="572" 
d="M284 489l-7 -126h197l-10 -90h-191l-3 -70c-4 -65 -8 -90 -36 -111h298l-9 -92h-470l9 92h33c12 0 29 1 52 29c11 15 18 34 19 58l5 94h-81l10 90h75l6 137c7 125 83 187 230 187c19 0 42 -1 68 -3c27 -1 48 -3 65 -5l25 -3l-11 -97c-75 8 -128 12 -158 12
c-76 0 -111 -23 -116 -102z" />
    <glyph glyph-name="florin.LP" unicode="&#xe525;" horiz-adv-x="523" 
d="M-58 -229l20 94c0 -3 19 -4 57 -4c57 0 81 24 94 87l87 401h-107l19 90h107l24 121c18 84 82 126 192 126l140 -10l-18 -97c-57 7 -99 10 -127 10c-59 0 -82 -15 -95 -80l-14 -70h147l-19 -90h-147l-94 -439c-20 -95 -83 -142 -189 -142z" />
    <glyph glyph-name="numbersign.LP" unicode="&#xe533;" horiz-adv-x="659" 
d="M616 173h-126l-58 -173h-95l57 173h-136l-57 -173h-95l57 173h-100l9 84h119l43 133h-123l9 84h142l46 140h95l-46 -140h136l47 140h94l-46 -140h89l-9 -84h-108l-43 -133h108zM422 257l43 133h-136l-43 -133h136z" />
    <glyph glyph-name="zero.LP" unicode="&#xe534;" horiz-adv-x="572" 
d="M358 687c131 0 197 -58 197 -173c0 -8 -1 -21 -2 -38l-29 -276c-16 -151 -100 -211 -240 -211c-131 0 -196 57 -196 171c0 15 1 28 2 40l29 276c14 141 94 211 239 211zM348 599c-75 0 -118 -33 -129 -133l-25 -245c-1 -13 -2 -26 -2 -41c0 -75 29 -102 102 -102
c84 0 119 38 130 143l25 245c1 16 2 27 2 33c0 75 -35 100 -103 100z" />
    <glyph glyph-name="one.LP" unicode="&#xe536;" horiz-adv-x="330" 
d="M243 0h-102l58 556l-131 -27l11 107l236 50z" />
    <glyph glyph-name="two.LP" unicode="&#xe537;" horiz-adv-x="467" 
d="M165 92h281l-9 -92h-411l9 87l242 248c8 11 36 41 48 56c13 16 28 44 31 67l9 84c1 7 1 12 1 13c0 25 -19 37 -56 37l-190 -13l10 96c87 8 153 12 196 12c95 0 143 -36 143 -109c0 -5 0 -11 -1 -19l-11 -111c-5 -45 -35 -96 -91 -152l-200 -200z" />
    <glyph glyph-name="three.LP" unicode="&#xe538;" horiz-adv-x="469" 
d="M431 219l-5 -43c-15 -123 -83 -188 -227 -188c-20 0 -44 1 -73 3s-52 4 -71 7l-28 3l9 92c67 -9 124 -13 169 -13c72 0 110 19 118 87l5 48l-70 77h-145l10 91h147l80 72l7 63c1 5 1 11 1 18c0 47 -18 59 -74 59l-178 -13l9 92c87 9 150 13 187 13
c120 0 159 -46 159 -131c0 -15 -1 -31 -3 -48l-6 -56c-2 -13 -5 -23 -9 -29l-96 -86l81 -89c3 -7 4 -16 3 -29z" />
    <glyph glyph-name="four.LP" unicode="&#xe539;" horiz-adv-x="525" 
d="M540 190h-105l-19 -190h-102l19 190h-305l10 88l349 398h100l-42 -395h105zM343 281l27 254l-219 -254h192z" />
    <glyph glyph-name="five.LP" unicode="&#xe53a;" horiz-adv-x="492" 
d="M467 243l-9 -87c-13 -123 -93 -167 -217 -167c-21 0 -48 1 -79 4c-31 2 -57 4 -78 6l-31 3l9 93c68 -9 122 -13 163 -13c67 -1 120 14 132 87l7 62c1 8 1 14 1 18c0 45 -29 68 -88 68h-177l38 359h346l-10 -91h-244l-19 -177h91c113 0 166 -53 166 -141
c0 -8 0 -16 -1 -24z" />
    <glyph glyph-name="six.LP" unicode="&#xe53b;" horiz-adv-x="539" 
d="M201 312l-15 -144c-1 -6 -1 -12 -1 -17c0 -49 34 -74 101 -74c72 0 111 30 118 91l8 76c1 7 1 14 1 21c0 51 -23 68 -87 68c-35 0 -82 -9 -106 -16zM339 429c128 0 178 -51 178 -143c0 -10 0 -19 -1 -26l-12 -109c-7 -59 -31 -100 -74 -125s-94 -37 -154 -37
c-95 0 -195 29 -195 141c0 6 0 13 1 21l36 335c16 149 96 201 240 201c25 0 84 -4 176 -13l-10 -96c-91 10 -147 15 -167 15c-53 0 -89 -9 -106 -27c-17 -17 -27 -46 -32 -87l-8 -71c35 14 77 21 128 21z" />
    <glyph glyph-name="seven.LP" unicode="&#xe53c;" horiz-adv-x="443" 
d="M143 0h-115l331 585h-310l9 91h422l-8 -77z" />
    <glyph glyph-name="eight.LP" unicode="&#xe53d;" horiz-adv-x="562" 
d="M353 687c116 0 180 -54 180 -142c0 -7 0 -14 -1 -22l-4 -42c-7 -60 -41 -111 -101 -135c59 -22 88 -62 88 -120c0 -6 0 -13 -1 -21l-5 -49c-6 -59 -31 -101 -76 -128c-44 -26 -95 -39 -154 -39c-55 0 -102 11 -139 34s-56 60 -56 111c0 5 0 13 1 22l5 50
c6 69 45 115 116 140c-49 21 -73 59 -73 116c0 5 0 11 1 19l4 42c9 100 90 164 215 164zM408 166l4 35c1 7 1 13 1 17c0 54 -30 81 -90 81h-22c-65 0 -101 -33 -109 -98l-4 -33c-1 -7 -1 -13 -1 -17c0 -51 34 -76 101 -76c73 0 113 30 120 91zM344 605
c-63 0 -98 -31 -105 -93l-3 -28c-1 -7 -1 -14 -1 -21c0 -50 24 -75 72 -75h19c60 0 93 32 100 96l3 27c1 7 1 13 1 19c0 50 -29 75 -86 75z" />
    <glyph glyph-name="nine.LP" unicode="&#xe53e;" horiz-adv-x="539" 
d="M408 363l15 144c1 6 1 12 1 17c0 49 -34 74 -101 74c-72 0 -111 -30 -118 -91l-8 -76c-1 -7 -1 -14 -1 -21c0 -51 23 -68 87 -68c35 0 82 8 107 16zM270 246c-128 0 -178 51 -178 143c0 10 0 19 1 26l12 109c7 59 31 100 74 125s94 37 154 37c95 0 195 -29 195 -141
c0 -6 0 -13 -1 -21l-36 -335c-16 -149 -96 -201 -240 -201c-25 0 -84 4 -176 13l10 96c91 -10 147 -15 167 -15c53 0 88 9 105 26c17 18 28 47 33 88l8 71c-35 -14 -77 -21 -128 -21z" />
    <glyph glyph-name="zero.LT" unicode="&#xe53f;" horiz-adv-x="572" 
d="M358 687c131 0 197 -58 197 -173c0 -8 -1 -21 -2 -38l-29 -276c-16 -151 -100 -211 -240 -211c-131 0 -196 57 -196 171c0 15 1 28 2 40l29 276c14 141 94 211 239 211zM348 599c-75 0 -118 -33 -129 -133l-25 -245c-1 -13 -2 -26 -2 -41c0 -75 29 -102 102 -102
c84 0 119 38 130 143l25 245c1 16 2 27 2 33c0 75 -35 100 -103 100z" />
    <glyph glyph-name="one.LT" unicode="&#xe541;" horiz-adv-x="572" 
d="M365 0h-102l58 556l-131 -27l11 107l236 50z" />
    <glyph glyph-name="two.LT" unicode="&#xe542;" horiz-adv-x="572" 
d="M229 92h281l-9 -92h-411l9 87l242 248c8 11 36 41 48 56c13 16 28 44 31 67l9 84c1 7 1 12 1 13c0 25 -19 37 -56 37l-190 -13l10 96c87 8 153 12 196 12c95 0 143 -36 143 -109c0 -5 0 -11 -1 -19l-11 -111c-5 -45 -35 -96 -91 -152l-200 -200z" />
    <glyph glyph-name="three.LT" unicode="&#xe543;" horiz-adv-x="572" 
d="M493 219l-5 -43c-15 -123 -83 -188 -227 -188c-20 0 -44 1 -73 3s-52 4 -71 7l-28 3l9 92c67 -9 124 -13 169 -13c72 0 110 19 118 87l5 48l-70 77h-145l10 91h147l80 72l7 63c1 5 1 11 1 18c0 47 -18 59 -74 59l-178 -13l9 92c87 9 150 13 187 13
c120 0 159 -46 159 -131c0 -15 -1 -31 -3 -48l-6 -56c-2 -13 -5 -23 -9 -29l-96 -86l81 -89c3 -7 4 -16 3 -29z" />
    <glyph glyph-name="four.LT" unicode="&#xe544;" horiz-adv-x="572" 
d="M568 190h-105l-19 -190h-102l19 190h-305l10 88l349 398h100l-42 -395h105zM371 281l27 254l-219 -254h192z" />
    <glyph glyph-name="five.LT" unicode="&#xe545;" horiz-adv-x="572" 
d="M515 243l-9 -87c-13 -123 -93 -167 -217 -167c-21 0 -48 1 -79 4c-31 2 -57 4 -78 6l-31 3l9 93c68 -9 122 -13 163 -13c67 -1 120 14 132 87l7 62c1 8 1 14 1 18c0 45 -29 68 -88 68h-177l38 359h346l-10 -91h-244l-19 -177h91c113 0 166 -53 166 -141
c0 -8 0 -16 -1 -24z" />
    <glyph glyph-name="six.LT" unicode="&#xe546;" horiz-adv-x="572" 
d="M225 312l-15 -144c-1 -6 -1 -12 -1 -17c0 -49 34 -74 101 -74c72 0 111 30 118 91l8 76c1 7 1 14 1 21c0 51 -23 68 -87 68c-35 0 -82 -9 -106 -16zM363 429c128 0 178 -51 178 -143c0 -10 0 -19 -1 -26l-12 -109c-7 -59 -31 -100 -74 -125s-94 -37 -154 -37
c-95 0 -195 29 -195 141c0 6 0 13 1 21l36 335c16 149 96 201 240 201c25 0 84 -4 176 -13l-10 -96c-91 10 -147 15 -167 15c-53 0 -89 -9 -106 -27c-17 -17 -27 -46 -32 -87l-8 -71c35 14 77 21 128 21z" />
    <glyph glyph-name="seven.LT" unicode="&#xe547;" horiz-adv-x="572" 
d="M243 0h-115l331 585h-310l9 91h422l-8 -77z" />
    <glyph glyph-name="eight.LT" unicode="&#xe548;" horiz-adv-x="572" 
d="M358 687c116 0 180 -54 180 -142c0 -7 0 -14 -1 -22l-4 -42c-7 -60 -41 -111 -101 -135c59 -22 88 -62 88 -120c0 -6 0 -13 -1 -21l-5 -49c-6 -59 -31 -101 -76 -128c-44 -26 -95 -39 -154 -39c-55 0 -102 11 -139 34s-56 60 -56 111c0 5 0 13 1 22l5 50
c6 69 45 115 116 140c-49 21 -73 59 -73 116c0 5 0 11 1 19l4 42c9 100 90 164 215 164zM413 166l4 35c1 7 1 13 1 17c0 54 -30 81 -90 81h-22c-65 0 -101 -33 -109 -98l-4 -33c-1 -7 -1 -13 -1 -17c0 -51 34 -76 101 -76c73 0 113 30 120 91zM349 605
c-63 0 -98 -31 -105 -93l-3 -28c-1 -7 -1 -14 -1 -21c0 -50 24 -75 72 -75h19c60 0 93 32 100 96l3 27c1 7 1 13 1 19c0 50 -29 75 -86 75z" />
    <glyph glyph-name="nine.LT" unicode="&#xe549;" horiz-adv-x="572" 
d="M417 363l15 144c1 6 1 12 1 17c0 49 -34 74 -101 74c-72 0 -111 -30 -118 -91l-8 -76c-1 -7 -1 -14 -1 -21c0 -51 23 -68 87 -68c35 0 82 8 106 16zM279 246c-128 0 -178 51 -178 143c0 10 0 19 1 26l12 109c7 59 31 100 74 125s94 37 154 37c95 0 195 -29 195 -141
c0 -6 0 -13 -1 -21l-36 -335c-16 -149 -96 -201 -240 -201c-25 0 -84 4 -176 13l10 96c91 -10 147 -15 167 -15c53 0 88 9 105 26c17 18 28 47 33 88l8 71c-35 -14 -77 -21 -128 -21z" />
    <glyph glyph-name="zero.OP" unicode="&#xe54a;" horiz-adv-x="572" 
d="M336 484c131 0 197 -57 197 -172c0 -7 -1 -20 -2 -39l-7 -73c-13 -141 -93 -211 -240 -211c-131 0 -196 57 -196 171c0 12 1 25 2 40l7 73c13 141 93 211 239 211zM326 387c-84 0 -116 -33 -127 -120l-7 -61c-1 -13 -2 -23 -2 -29c0 -65 31 -93 104 -93
c84 0 119 35 128 122l7 65c1 7 1 15 1 24c0 65 -31 92 -104 92z" />
    <glyph glyph-name="one.OP" unicode="&#xe54c;" horiz-adv-x="330" 
d="M243 0h-102l37 355l-131 -26l11 105l235 50z" />
    <glyph glyph-name="two.OP" unicode="&#xe54d;" horiz-adv-x="467" 
d="M196 92h251l-9 -92h-412l9 87l222 140c20 13 34 22 42 28c9 7 17 16 26 29s15 28 17 45l2 15c1 6 1 10 1 12c0 24 -14 34 -51 34c-17 0 -41 -1 -73 -3c-31 -2 -59 -4 -82 -7l-35 -3l10 96c89 8 155 12 198 12c92 0 138 -31 138 -92c0 -3 0 -7 -1 -14l-6 -60
c-5 -50 -37 -93 -97 -130l-149 -93z" />
    <glyph glyph-name="three.OP" unicode="&#xe54e;" horiz-adv-x="469" 
d="M248 179l81 72l6 57c1 16 2 26 2 29c0 43 -19 56 -74 56l-179 -13l10 92c87 9 149 13 186 13c121 0 159 -46 159 -133c0 -9 -1 -25 -2 -46l-6 -58c-1 -12 -4 -22 -9 -29l-97 -86l81 -89c3 -5 4 -10 4 -15c0 -3 0 -9 -1 -16l-4 -38c-13 -125 -88 -188 -227 -188
c-20 0 -45 1 -74 4c-29 2 -52 4 -71 6l-28 3l10 92c67 -9 124 -13 169 -13c72 0 110 19 118 87l5 45l-70 77h-145l9 91h147z" />
    <glyph glyph-name="four.OP" unicode="&#xe54f;" horiz-adv-x="525" 
d="M521 0h-105l-22 -202h-102l22 202h-306l9 89l352 385h96l-40 -382h105zM323 92l25 236l-215 -236h190z" />
    <glyph glyph-name="five.OP" unicode="&#xe550;" horiz-adv-x="492" 
d="M446 46l-9 -92c-11 -111 -83 -167 -217 -167c-21 0 -48 1 -79 4c-31 2 -58 4 -79 6l-31 3l10 93c68 -9 122 -13 163 -13c82 0 126 29 132 87l7 68c1 7 1 12 1 15c0 47 -29 70 -88 70h-177l37 354h346l-9 -91h-244l-18 -172h91c112 0 165 -52 165 -139c0 -9 0 -17 -1 -26z
" />
    <glyph glyph-name="six.OP" unicode="&#xe551;" horiz-adv-x="539" 
d="M201 312l-15 -144c-1 -6 -1 -11 -1 -15c0 -51 34 -76 101 -76c72 0 111 30 118 91l8 73c1 9 1 17 1 24c0 51 -23 68 -87 68c-35 0 -82 -9 -106 -16zM339 429c128 0 179 -49 179 -140c0 -9 -1 -20 -2 -35l-12 -103c-9 -81 -66 -133 -126 -150c-30 -8 -64 -12 -102 -12
c-95 0 -195 29 -195 141c0 7 0 14 1 21l36 335c16 149 96 201 240 201c25 0 84 -4 176 -13l-10 -96c-91 10 -147 15 -167 15c-53 0 -89 -9 -106 -27c-17 -17 -27 -46 -32 -87l-8 -71c35 14 77 21 128 21z" />
    <glyph glyph-name="seven.OP" unicode="&#xe552;" horiz-adv-x="443" 
d="M141 -202h-115l331 585h-310l9 91h422l-8 -77z" />
    <glyph glyph-name="eight.OP" unicode="&#xe553;" horiz-adv-x="562" 
d="M353 687c116 0 180 -54 180 -142c0 -8 0 -15 -1 -22l-4 -42c-7 -60 -41 -111 -101 -135c59 -22 88 -62 88 -120c0 -6 0 -13 -1 -20l-5 -50c-6 -59 -31 -101 -76 -128c-44 -26 -95 -39 -154 -39c-55 0 -102 11 -139 34s-56 60 -56 111c0 5 0 13 1 22l5 50
c6 69 45 115 116 140c-49 21 -73 59 -73 116c0 6 0 12 1 19l4 42c9 100 90 164 215 164zM408 166l4 35c1 7 1 13 1 17c0 54 -30 81 -90 81h-22c-65 0 -101 -33 -109 -98l-4 -31c-1 -7 -1 -13 -1 -19c0 -51 34 -76 101 -76c73 0 113 30 120 91zM344 605
c-63 0 -98 -31 -105 -93l-3 -28c-1 -7 -1 -14 -1 -21c0 -50 24 -75 72 -75h19c61 0 92 31 100 96l3 23c1 12 2 20 2 23c0 50 -29 75 -87 75z" />
    <glyph glyph-name="nine.OP" unicode="&#xe554;" horiz-adv-x="539" 
d="M387 164l15 144c1 7 1 12 1 15c0 51 -34 76 -101 76c-72 0 -111 -30 -118 -91l-8 -76c-1 -8 -1 -15 -1 -22c0 -49 23 -67 87 -67c35 0 82 9 106 16zM249 47c-127 0 -178 50 -178 141c0 7 1 17 2 31l11 106c14 129 126 162 228 162c95 0 195 -29 195 -141
c0 -6 0 -13 -1 -21l-36 -335c-16 -149 -96 -201 -240 -201c-25 0 -84 4 -176 13l10 96c91 -10 147 -15 167 -15c53 0 88 9 105 27c17 17 28 46 33 87l8 71c-35 -14 -77 -21 -128 -21z" />
    <glyph glyph-name="zero.OT" unicode="&#xe555;" horiz-adv-x="572" 
d="M336 484c131 0 197 -57 197 -172c0 -7 -1 -20 -2 -39l-7 -73c-13 -141 -93 -211 -240 -211c-131 0 -196 57 -196 171c0 12 1 25 2 40l7 73c13 141 93 211 239 211zM326 387c-84 0 -116 -33 -127 -120l-7 -61c-1 -13 -2 -23 -2 -29c0 -65 31 -93 104 -93
c84 0 119 35 128 122l7 65c1 7 1 15 1 24c0 65 -31 92 -104 92z" />
    <glyph glyph-name="one.OT" unicode="&#xe557;" horiz-adv-x="572" 
d="M365 0h-102l37 355l-131 -26l11 105l235 50z" />
    <glyph glyph-name="two.OT" unicode="&#xe558;" horiz-adv-x="572" 
d="M260 92h251l-9 -92h-412l9 87l222 140c20 13 34 22 42 28c9 7 17 16 26 29s15 28 17 45l2 15c1 6 1 10 1 12c0 24 -14 34 -51 34c-17 0 -41 -1 -73 -3c-31 -2 -59 -4 -82 -7l-35 -3l10 96c89 8 155 12 198 12c92 0 138 -31 138 -92c0 -3 0 -7 -1 -14l-6 -60
c-5 -50 -37 -93 -97 -130l-149 -93z" />
    <glyph glyph-name="three.OT" unicode="&#xe559;" horiz-adv-x="572" 
d="M310 179l81 72l6 57c1 16 2 26 2 29c0 43 -19 56 -74 56l-179 -13l10 92c87 9 149 13 186 13c121 0 159 -46 159 -133c0 -9 -1 -25 -2 -46l-6 -58c-1 -12 -4 -22 -9 -29l-97 -86l81 -89c3 -5 4 -10 4 -15c0 -3 0 -9 -1 -16l-4 -38c-13 -125 -88 -188 -227 -188
c-20 0 -45 1 -74 4c-29 2 -52 4 -71 6l-28 3l10 92c67 -9 124 -13 169 -13c72 0 110 19 118 87l5 45l-70 77h-145l9 91h147z" />
    <glyph glyph-name="four.OT" unicode="&#xe55a;" horiz-adv-x="572" 
d="M550 0h-105l-22 -202h-102l22 202h-306l9 89l352 385h96l-40 -382h105zM352 92l25 236l-215 -236h190z" />
    <glyph glyph-name="five.OT" unicode="&#xe55b;" horiz-adv-x="572" 
d="M495 46l-9 -92c-11 -111 -83 -167 -217 -167c-21 0 -48 1 -79 4c-31 2 -57 4 -78 6l-32 3l10 93c68 -9 122 -13 163 -13c82 0 126 29 132 87l7 68c1 7 1 12 1 15c0 47 -29 70 -88 70h-177l37 354h346l-9 -91h-244l-18 -172h91c112 0 165 -52 165 -139c0 -9 0 -17 -1 -26z
" />
    <glyph glyph-name="six.OT" unicode="&#xe55c;" horiz-adv-x="572" 
d="M225 312l-15 -144c-1 -6 -1 -11 -1 -15c0 -51 34 -76 101 -76c72 0 111 30 118 91l8 73c1 9 1 17 1 24c0 51 -23 68 -87 68c-35 0 -82 -9 -106 -16zM363 429c128 0 179 -49 179 -140c0 -9 -1 -20 -2 -35l-12 -103c-9 -81 -66 -133 -126 -150c-30 -8 -64 -12 -102 -12
c-95 0 -195 29 -195 141c0 7 0 14 1 21l36 335c16 149 96 201 240 201c25 0 84 -4 176 -13l-10 -96c-91 10 -147 15 -167 15c-53 0 -89 -9 -106 -27c-17 -17 -27 -46 -32 -87l-8 -71c35 14 77 21 128 21z" />
    <glyph glyph-name="seven.OT" unicode="&#xe55d;" horiz-adv-x="572" 
d="M221 -202h-115l331 585h-310l9 91h422l-8 -77z" />
    <glyph glyph-name="eight.OT" unicode="&#xe55e;" horiz-adv-x="572" 
d="M358 687c116 0 180 -54 180 -142c0 -8 0 -15 -1 -22l-4 -42c-7 -60 -41 -111 -101 -135c59 -22 88 -62 88 -120c0 -6 0 -13 -1 -20l-5 -50c-6 -59 -31 -101 -76 -128c-44 -26 -95 -39 -154 -39c-55 0 -102 11 -139 34s-56 60 -56 111c0 5 0 13 1 22l5 50
c6 69 45 115 116 140c-49 21 -73 59 -73 116c0 6 0 12 1 19l4 42c9 100 90 164 215 164zM413 166l4 35c1 7 1 13 1 17c0 54 -30 81 -90 81h-22c-65 0 -101 -33 -109 -98l-4 -31c-1 -7 -1 -13 -1 -19c0 -51 34 -76 101 -76c73 0 113 30 120 91zM349 605
c-63 0 -98 -31 -105 -93l-3 -28c-1 -7 -1 -14 -1 -21c0 -50 24 -75 72 -75h19c61 0 92 31 100 96l3 23c1 12 2 20 2 23c0 50 -29 75 -87 75z" />
    <glyph glyph-name="nine.OT" unicode="&#xe55f;" horiz-adv-x="572" 
d="M396 164l15 144c1 7 1 12 1 15c0 51 -34 76 -101 76c-72 0 -111 -30 -118 -91l-8 -76c-1 -8 -1 -15 -1 -22c0 -49 23 -67 87 -67c35 0 82 9 107 16zM258 47c-127 0 -178 50 -178 141c0 7 1 17 2 31l11 106c14 129 126 162 228 162c95 0 195 -29 195 -141
c0 -6 0 -13 -1 -21l-36 -335c-16 -149 -96 -201 -240 -201c-25 0 -84 4 -176 13l10 96c91 -10 147 -15 167 -15c53 0 88 9 105 27c17 17 28 46 33 87l8 71c-35 -14 -77 -21 -128 -21z" />
    <glyph glyph-name="plus.cap" unicode="&#xe591;" horiz-adv-x="510" 
d="M505 267h-172l-18 -179h-102l18 179h-172l10 95h172l19 175h102l-19 -175h172z" />
    <glyph glyph-name="minus.cap" unicode="&#xe592;" horiz-adv-x="510" 
d="M495 267h-426l10 95h426z" />
    <glyph glyph-name="multiply.cap" unicode="&#xe593;" horiz-adv-x="510" 
d="M422 99l-137 151l-169 -151l-57 62l168 151l-136 152l69 61l138 -150l168 150l57 -61l-168 -152l136 -151z" />
    <glyph glyph-name="divide.cap" unicode="&#xe594;" horiz-adv-x="510" 
d="M495 267h-426l10 95h426zM353 424h-108l11 105h108zM221 200h108l-11 -105h-108z" />
    <glyph glyph-name="equal.cap" unicode="&#xe595;" horiz-adv-x="510" 
d="M505 362h-426l10 95h426zM485 171h-426l10 95h426z" />
    <glyph glyph-name="less.cap" unicode="&#xe596;" horiz-adv-x="510" 
d="M468 80l-390 191l9 83l430 191l-12 -108l-299 -124l273 -125z" />
    <glyph glyph-name="greater.cap" unicode="&#xe597;" horiz-adv-x="510" 
d="M107 545l390 -191l-9 -83l-430 -191l11 108l299 124l-273 125z" />
    <glyph glyph-name="zero.smcp" unicode="&#xe598;" horiz-adv-x="572" 
d="M338 500c131 0 197 -58 197 -173c0 -11 -1 -23 -2 -38l-9 -89c-14 -141 -94 -211 -240 -211c-131 0 -196 57 -196 171c0 12 1 25 2 40l9 89c14 141 94 211 239 211zM328 403c-84 0 -119 -33 -128 -120l-8 -77c-1 -15 -2 -24 -2 -29c0 -65 31 -93 104 -93
c83 0 119 35 128 122l8 77c1 13 2 23 2 29c0 65 -29 91 -104 91z" />
    <glyph glyph-name="one.smcp" unicode="&#xe599;" horiz-adv-x="330" 
d="M243 0h-99l39 373l-134 -26l11 105l235 50z" />
    <glyph glyph-name="two.smcp" unicode="&#xe59a;" horiz-adv-x="467" 
d="M196 92h250l-9 -92h-411l9 87l222 140c20 13 34 22 42 28c9 7 17 16 26 29s15 28 17 45l3 24c1 7 1 12 1 14c0 27 -16 38 -57 38c-15 0 -37 -1 -68 -4c-30 -2 -57 -4 -80 -6l-35 -3l10 96c90 8 155 12 194 12c95 0 142 -31 142 -92c0 -4 0 -9 -1 -16l-8 -73
c-6 -51 -38 -94 -97 -130l-149 -93z" />
    <glyph glyph-name="three.smcp" unicode="&#xe59b;" horiz-adv-x="398" 
d="M369 153l-4 -38c-9 -81 -73 -126 -178 -126c-32 0 -90 5 -125 9l-25 3l9 92c58 -7 104 -11 138 -11c52 0 80 14 83 43l3 32l-38 44h-124l9 85h123l45 42l4 39c1 7 1 11 1 13c0 23 -12 31 -48 31l-150 -10l9 89c73 7 125 10 158 10c97 0 131 -38 131 -102
c0 -7 0 -14 -1 -21l-5 -44c-2 -13 -5 -23 -9 -29l-68 -61l58 -63c3 -5 5 -10 5 -15c0 -1 0 -5 -1 -12z" />
    <glyph glyph-name="four.smcp" unicode="&#xe59c;" horiz-adv-x="516" 
d="M493 98h-95l-10 -98h-99l10 98h-256l9 85l287 307h100l-32 -305h95zM308 185l20 187l-174 -187h154z" />
    <glyph glyph-name="five.smcp" unicode="&#xe59d;" horiz-adv-x="469" 
d="M102 210l29 280h302l-10 -91h-203l-10 -102h75c97 0 140 -29 140 -104c0 -7 -1 -18 -2 -32l-5 -42c-9 -85 -73 -130 -176 -130c-17 0 -40 1 -70 3c-29 2 -55 4 -76 6l-32 3l9 88c88 -7 144 -11 168 -11c52 0 73 14 78 53l3 23c1 6 1 11 1 14c0 28 -20 42 -60 42h-161z
" />
    <glyph glyph-name="six.smcp" unicode="&#xe59e;" horiz-adv-x="472" 
d="M290 313c107 0 145 -37 145 -101c0 -7 0 -14 -1 -22l-7 -71c-4 -43 -24 -75 -61 -97c-36 -22 -78 -33 -127 -33c-92 0 -162 40 -162 113c0 5 0 11 1 20l24 229c4 39 20 74 49 104s71 45 128 45c38 0 90 -3 157 -10l-10 -92c-63 7 -108 10 -136 10c-55 0 -85 -24 -90 -71
l-5 -45c33 14 64 21 95 21zM280 235c-31 0 -65 -9 -81 -16l-12 -5l-8 -75c-1 -6 -1 -10 -1 -13c0 -37 23 -55 70 -55c52 0 76 19 81 68l5 40c1 5 1 10 1 13c0 29 -18 43 -55 43z" />
    <glyph glyph-name="seven.smcp" unicode="&#xe59f;" horiz-adv-x="403" 
d="M185 0h-106l237 401h-242l9 89h344l-9 -88z" />
    <glyph glyph-name="eight.smcp" unicode="&#xe601;" horiz-adv-x="496" 
d="M300 500c97 0 154 -42 154 -113c0 -3 0 -9 -1 -16l-2 -19c-5 -49 -31 -84 -77 -104c45 -19 68 -52 68 -98c0 -3 0 -8 -1 -16l-1 -10c-5 -47 -26 -82 -64 -103s-81 -32 -130 -32c-46 0 -85 9 -118 27c-32 18 -48 47 -48 87c0 5 0 12 1 19l2 15c7 53 37 90 91 111
c-38 18 -57 48 -57 89c0 5 0 10 1 17l2 17c9 80 76 129 180 129zM268 285h18c45 0 70 19 75 58l2 16c1 7 1 12 1 15c0 33 -24 49 -72 49c-49 0 -77 -20 -82 -59l-2 -17c-1 -7 -1 -12 -1 -15c0 -31 20 -47 61 -47zM278 206h-18c-49 0 -76 -19 -80 -58l-2 -18
c-1 -7 -1 -11 -1 -14c0 -31 30 -48 78 -48c52 0 86 20 90 59l2 16c1 6 1 11 1 16c0 31 -23 47 -70 47z" />
    <glyph glyph-name="nine.smcp" unicode="&#xe602;" horiz-adv-x="472" 
d="M232 176c-107 0 -145 37 -145 101c0 7 0 14 1 22l7 71c4 43 24 75 60 97c37 22 79 33 128 33c92 0 162 -40 162 -113c0 -5 0 -11 -1 -20l-24 -229c-4 -39 -20 -74 -49 -104s-71 -45 -128 -45c-38 0 -90 3 -157 10l10 92c63 -7 108 -10 136 -10c55 0 85 24 90 71l5 45
c-33 -14 -64 -21 -95 -21zM242 254c31 0 65 8 81 16l12 5l8 75c1 6 1 10 1 13c0 37 -23 55 -70 55c-52 0 -76 -19 -81 -68l-5 -40c-1 -5 -1 -10 -1 -13c0 -29 18 -43 55 -43z" />
    <glyph glyph-name="guilsinglleft.smcp" unicode="&#xf610;" horiz-adv-x="346" 
d="M175 252l-1 -10l107 -120l-66 -59l-148 166l3 36l184 166l54 -59z" />
    <glyph glyph-name="guillemotleft.smcp" unicode="&#xf611;" horiz-adv-x="532" 
d="M175 252l-1 -10l107 -120l-66 -59l-148 166l3 36l184 166l54 -59zM391 252l-1 -10l107 -120l-66 -59l-148 166l3 36l184 166l54 -59z" />
    <glyph glyph-name="guillemotright.smcp" unicode="&#xf612;" horiz-adv-x="532" 
d="M408 242l1 10l-107 120l66 59l148 -166l-3 -36l-184 -166l-54 59zM192 242l1 10l-107 120l66 59l148 -166l-3 -36l-184 -166l-54 59z" />
    <glyph glyph-name="guilsinglright.smcp" unicode="&#xf613;" horiz-adv-x="346" 
d="M208 242l1 10l-107 120l66 59l148 -166l-3 -36l-184 -166l-54 59z" />
    <glyph glyph-name="copyright.cap" horiz-adv-x="826" 
d="M485 687c201 0 310 -108 310 -293c0 -125 -34 -224 -103 -297c-69 -72 -162 -108 -281 -108c-201 0 -310 108 -310 293c0 125 34 224 103 296c69 73 162 109 281 109zM477 615c-86 0 -157 -28 -212 -84s-82 -135 -82 -237c0 -151 91 -233 236 -233c86 0 156 28 211 84
s83 135 83 237c0 151 -91 233 -236 233zM574 536l-8 -74c-35 4 -65 6 -90 6c-55 0 -83 -16 -88 -71l-12 -117c-1 -6 -1 -11 -1 -15c0 -44 24 -57 73 -57l99 6l-8 -74c-39 -5 -73 -7 -101 -7c-103 0 -149 34 -149 106c0 7 0 14 1 21l15 148c9 93 60 134 176 134
c22 0 53 -2 93 -6z" />
    <glyph glyph-name="registered.cap" horiz-adv-x="627" 
d="M385 687c145 0 229 -78 229 -218c0 -94 -26 -167 -78 -220c-51 -53 -120 -79 -206 -79c-145 0 -228 76 -228 216c0 95 25 169 76 222s120 79 207 79zM378 626c-133 0 -208 -85 -208 -234c0 -107 56 -160 167 -160c132 0 211 82 211 230c0 107 -58 164 -170 164zM283 569
h123c37 0 62 -21 62 -53c0 -3 0 -7 -1 -14l-4 -30c-5 -30 -20 -49 -47 -57l48 -115h-64l-47 111h-24l-12 -111h-62zM340 519l-6 -58h37c20 0 31 8 32 25l1 13c1 15 -10 20 -27 20h-37z" />
    <glyph glyph-name="Euro.OP" horiz-adv-x="503" 
d="M62 273l6 58h87l2 18c11 107 80 151 213 151c29 0 77 -3 146 -9l-10 -92c-56 7 -100 10 -131 10c-80 0 -108 -18 -117 -78h191l-17 -58h-181l-6 -54h173l-17 -58h-161c-1 -5 -1 -9 -1 -13c0 -51 25 -67 102 -67c28 0 84 4 117 8l26 3l-9 -92c-91 -7 -144 -11 -159 -11
c-123 0 -182 41 -182 130c0 5 0 13 1 22l2 20h-87l7 58h86l6 54h-87z" />
    <glyph glyph-name="dollar.OP" horiz-adv-x="449" 
d="M246 -154h-86l15 144l-131 10l9 89c65 -8 117 -12 156 -12c61 0 93 16 97 48l3 26c1 6 1 10 1 11c0 19 -15 31 -44 35l-91 12c-60 8 -100 48 -100 107c0 3 0 8 1 15l5 42c8 72 57 113 147 124l15 135h86l-15 -133l105 -9l-9 -89c-53 7 -96 10 -131 10
c-64 0 -94 -14 -98 -51l-2 -19c-1 -7 -1 -11 -1 -12c0 -21 11 -31 46 -36l88 -12c63 -9 100 -49 100 -106c0 -4 0 -10 -1 -17l-4 -42c-8 -75 -66 -113 -145 -124z" />
    <glyph glyph-name="cent.OP" horiz-adv-x="418" 
d="M276 -154h-86l15 145c-88 10 -132 54 -132 133c0 12 0 21 1 26l18 168c9 93 56 153 165 165l16 149h86l-16 -149l87 -8l-9 -89c-51 7 -90 10 -118 10c-67 0 -104 -28 -110 -85l-16 -152c-1 -7 -1 -13 -1 -18c0 -53 30 -64 97 -64c21 0 71 9 103 16l23 5l-9 -86
c-27 -10 -60 -17 -99 -21z" />
    <glyph glyph-name="sterling.OP" horiz-adv-x="570" 
d="M285 351l-4 -76h142l-9 -90h-137l-1 -30c-1 -29 -9 -50 -22 -63h220l-9 -92h-368l9 92h19c9 0 46 3 48 42l2 51h-52l9 90h46l6 89c6 91 67 136 182 136c25 0 73 -3 142 -8l-9 -92c-61 5 -104 8 -128 8c-63 0 -83 -10 -86 -57z" />
    <glyph glyph-name="florin.OP" horiz-adv-x="483" 
d="M-51 -228l19 94c32 -3 54 -5 67 -5c34 0 55 21 64 62l59 282h-81l17 87h81l20 95c16 75 69 113 160 113l137 -9l-17 -93c-65 5 -107 8 -124 8c-40 0 -54 -13 -61 -49l-12 -65h134l-17 -87h-135l-64 -312c-17 -84 -84 -125 -163 -125z" />
    <glyph glyph-name="yen.OP" horiz-adv-x="456" 
d="M261 287l123 203h107l-193 -288h131l-9 -85h-131l-12 -117h-98l12 117h-131l9 85h130l-132 288h103l81 -203h10z" />
    <glyph glyph-name="numbersign.OP" horiz-adv-x="605" 
d="M567 110h-135l-35 -110h-94l35 110h-110l-35 -110h-94l35 110h-85l8 76h103l35 113h-116l8 77h136l32 98h95l-33 -98h110l33 98h94l-34 -98h86l-8 -77h-103l-37 -113h117zM364 186l35 113h-110l-34 -113h109z" />
    <glyph glyph-name="zero.denominator" horiz-adv-x="411" 
d="M276 381c79 0 142 -32 142 -103c0 -2 0 -6 -1 -13l-17 -156c-9 -80 -81 -116 -165 -116c-77 0 -141 31 -141 102c0 3 0 7 1 14l17 156c4 40 22 69 54 88s69 28 110 28zM268 307c-43 0 -66 -21 -70 -62l-12 -113c-1 -6 -1 -11 -1 -15c0 -33 19 -49 58 -49
c44 0 68 21 72 62l12 110c1 7 1 12 1 16c0 34 -20 51 -60 51z" />
    <glyph glyph-name="one.denominator" horiz-adv-x="243" 
d="M221 0h-95l30 282l-87 -14l9 79l183 35z" />
    <glyph glyph-name="two.denominator" horiz-adv-x="360" 
d="M187 77h169l-8 -77h-283l8 77l144 106c33 22 52 46 55 72l2 16c1 5 1 9 1 12c0 13 -11 19 -32 19l-130 -7l8 80c57 5 102 7 135 7c74 0 111 -24 111 -71c0 -5 0 -10 -1 -15l-5 -37c-7 -49 -22 -77 -69 -108l-102 -67z" />
    <glyph glyph-name="three.denominator" horiz-adv-x="331" 
d="M354 289l-4 -42c-1 -7 -3 -14 -8 -20l-49 -42l42 -44c2 -7 3 -13 2 -17l-4 -37c-7 -55 -54 -94 -142 -94l-119 9l8 70c23 -5 52 -7 87 -7c49 0 75 12 78 37l3 27l-23 26h-99l7 62h101l25 22l3 27c1 7 1 11 1 13c0 21 -18 31 -54 31l-96 -7l7 72c58 5 99 7 123 7
c80 0 112 -34 112 -78c0 -3 0 -8 -1 -15z" />
    <glyph glyph-name="four.denominator" horiz-adv-x="352" 
d="M231 166l13 119l-104 -119h91zM379 95h-72l-10 -95h-83l10 95h-172l7 66l187 215h91l-23 -210h72z" />
    <glyph glyph-name="five.denominator" horiz-adv-x="322" 
d="M92 158l23 218h243l-8 -75h-167l-8 -74h61c78 0 117 -28 117 -84c0 -3 0 -7 -1 -14l-3 -26c-8 -73 -57 -110 -147 -110c-36 0 -89 4 -118 7l-21 3l8 74c47 -6 86 -9 116 -9c43 0 66 12 68 37l2 16c1 6 1 10 1 13c0 16 -17 24 -52 24h-114z" />
    <glyph glyph-name="six.denominator" horiz-adv-x="375" 
d="M259 241c85 0 127 -27 127 -81c0 -2 0 -6 -1 -12l-5 -42c-9 -76 -74 -113 -157 -113c-77 0 -135 33 -135 100c0 4 0 9 1 15l17 154c8 69 54 120 146 120c23 0 67 -3 134 -8l-7 -73c-61 6 -101 9 -120 9c-47 0 -61 -18 -65 -58l-3 -25c22 9 45 14 68 14zM254 183
c-19 0 -45 -6 -58 -11l-11 -4l-7 -58c-1 -6 -1 -10 -1 -12c0 -28 14 -41 53 -41c41 0 56 15 61 51l4 29c1 6 1 11 1 14c0 21 -14 32 -42 32z" />
    <glyph glyph-name="seven.denominator" horiz-adv-x="308" 
d="M180 0h-95l184 300h-184l8 76h273l-8 -74z" />
    <glyph glyph-name="eight.denominator" horiz-adv-x="352" 
d="M247 382c80 0 131 -34 131 -91c0 -4 0 -9 -1 -14l-2 -13c-5 -32 -25 -57 -62 -76c37 -14 55 -37 55 -68c0 -4 0 -10 -1 -19l-1 -9c-5 -37 -23 -62 -54 -77s-66 -22 -106 -22c-76 0 -139 23 -139 87c0 7 0 13 1 19l2 12c5 33 29 59 71 77c-30 16 -45 39 -45 69
c0 4 0 9 1 16l1 8c8 64 65 101 149 101zM230 159h-12c-29 0 -54 -14 -58 -45l-1 -7c-1 -7 -1 -12 -1 -15c0 -24 18 -36 55 -36c39 0 61 15 64 45l1 9c1 7 1 11 1 14c0 23 -16 35 -49 35zM222 212h14c29 0 45 16 50 47l2 14c1 5 1 9 1 11c0 25 -16 38 -48 38
c-35 0 -52 -11 -57 -48l-2 -12c-1 -5 -1 -9 -1 -12c0 -25 14 -38 41 -38z" />
    <glyph glyph-name="nine.denominator" horiz-adv-x="375" 
d="M217 134c-84 0 -126 27 -126 82c0 5 0 10 1 15l4 38c8 76 76 113 157 113c77 0 135 -32 135 -99c0 -2 0 -7 -1 -14l-16 -156c-8 -69 -56 -120 -147 -120c-20 0 -65 3 -134 8l8 73c61 -6 101 -9 120 -9c47 0 61 19 65 58l3 25c-22 -9 -45 -14 -69 -14zM222 192
c19 0 45 7 60 12l10 3l6 60c1 7 1 10 1 11c0 27 -18 40 -53 40c-40 0 -57 -16 -61 -51l-3 -28c-1 -5 -1 -9 -1 -14c0 -22 14 -33 41 -33z" />
    <glyph glyph-name="percent.LT" horiz-adv-x="859" 
d="M276 681c80 -1 142 -31 142 -103c0 -3 0 -7 -1 -14l-16 -151c-8 -80 -81 -116 -165 -116c-77 0 -141 31 -141 102c0 5 0 11 1 19l16 147c4 40 22 69 54 88s69 28 110 28zM704 676l-384 -676h-93l384 676h93zM268 607c-43 0 -66 -21 -70 -62l-12 -109c-1 -6 -1 -10 -1 -13
c0 -34 20 -51 59 -51c43 0 67 21 71 62l12 110c1 6 1 10 1 12c0 34 -20 51 -60 51zM692 377c80 -1 142 -31 142 -103c0 -3 0 -7 -1 -14l-16 -151c-8 -80 -81 -116 -165 -116c-77 0 -141 31 -141 102c0 5 0 11 1 19l16 147c4 40 22 69 54 88s69 28 110 28zM684 303
c-43 0 -66 -21 -70 -62l-12 -109c-1 -6 -1 -10 -1 -13c0 -34 20 -51 59 -51c43 0 67 21 71 62l12 110c1 6 1 10 1 12c0 34 -20 51 -60 51z" />
    <glyph glyph-name="percent.LP" horiz-adv-x="859" 
d="M276 681c80 -1 142 -31 142 -103c0 -3 0 -7 -1 -14l-16 -151c-8 -80 -81 -116 -165 -116c-77 0 -141 31 -141 102c0 5 0 11 1 19l16 147c4 40 22 69 54 88s69 28 110 28zM704 676l-384 -676h-93l384 676h93zM268 607c-43 0 -66 -21 -70 -62l-12 -109c-1 -6 -1 -10 -1 -13
c0 -34 20 -51 59 -51c43 0 67 21 71 62l12 110c1 6 1 10 1 12c0 34 -20 51 -60 51zM692 377c80 -1 142 -31 142 -103c0 -3 0 -7 -1 -14l-16 -151c-8 -80 -81 -116 -165 -116c-77 0 -141 31 -141 102c0 5 0 11 1 19l16 147c4 40 22 69 54 88s69 28 110 28zM684 303
c-43 0 -66 -21 -70 -62l-12 -109c-1 -6 -1 -10 -1 -13c0 -34 20 -51 59 -51c43 0 67 21 71 62l12 110c1 6 1 10 1 12c0 34 -20 51 -60 51z" />
    <glyph glyph-name="perthousand.LP" horiz-adv-x="1222" 
d="M276 681c80 -1 142 -31 142 -103c0 -3 0 -7 -1 -14l-16 -151c-8 -80 -81 -116 -165 -116c-77 0 -141 31 -141 102c0 5 0 11 1 19l16 147c4 40 22 69 54 88s69 28 110 28zM704 676l-384 -676h-93l384 676h93zM268 607c-43 0 -66 -21 -70 -62l-12 -109c-1 -6 -1 -10 -1 -13
c0 -34 20 -51 59 -51c43 0 67 21 71 62l12 110c1 6 1 10 1 12c0 34 -20 51 -60 51zM692 377c80 -1 142 -31 142 -103c0 -3 0 -7 -1 -14l-16 -151c-8 -80 -81 -116 -165 -116c-77 0 -141 31 -141 102c0 5 0 11 1 19l16 147c4 40 22 69 54 88s69 28 110 28zM684 303
c-43 0 -66 -21 -70 -62l-12 -109c-1 -6 -1 -10 -1 -13c0 -34 20 -51 59 -51c43 0 67 21 71 62l12 110c1 6 1 10 1 12c0 34 -20 51 -60 51zM1055 377c80 -1 142 -31 142 -103c0 -3 0 -7 -1 -14l-16 -151c-8 -80 -81 -116 -165 -116c-77 0 -141 31 -141 102c0 5 0 11 1 19
l16 147c4 40 22 69 54 88s69 28 110 28zM1047 303c-43 0 -66 -21 -70 -62l-12 -109c-1 -6 -1 -10 -1 -13c0 -34 20 -51 59 -51c43 0 67 21 71 62l12 110c1 6 1 10 1 12c0 34 -20 51 -60 51z" />
    <glyph glyph-name="percent.OT" horiz-adv-x="816" 
d="M619 490l-278 -490h-92l278 490h92zM650 287c76 0 132 -32 132 -101c0 -3 0 -8 -1 -15l-7 -62c-9 -81 -72 -116 -155 -116c-76 0 -131 30 -131 101c0 5 0 11 1 18l7 59c9 81 73 116 154 116zM642 216c-35 0 -54 -18 -59 -54l-5 -39c-1 -5 -1 -10 -1 -15
c0 -29 16 -43 49 -43c36 0 56 18 61 54l5 43c1 7 1 11 1 12c0 28 -17 42 -51 42zM247 497c76 0 132 -32 132 -101c0 -3 0 -8 -1 -15l-7 -62c-9 -81 -72 -116 -155 -116c-76 0 -131 30 -131 101c0 5 0 11 1 18l7 59c9 81 73 116 154 116zM239 426c-35 0 -54 -18 -59 -54
l-5 -39c-1 -5 -1 -10 -1 -15c0 -29 16 -43 49 -43c36 0 56 18 61 54l5 43c1 7 1 11 1 12c0 28 -17 42 -51 42z" />
    <glyph glyph-name="percent.OP" horiz-adv-x="816" 
d="M619 490l-278 -490h-92l278 490h92zM650 287c76 0 132 -32 132 -101c0 -3 0 -8 -1 -15l-7 -62c-9 -81 -72 -116 -155 -116c-76 0 -131 30 -131 101c0 5 0 11 1 18l7 59c9 81 73 116 154 116zM642 216c-35 0 -54 -18 -59 -54l-5 -39c-1 -5 -1 -10 -1 -15
c0 -29 16 -43 49 -43c36 0 56 18 61 54l5 43c1 7 1 11 1 12c0 28 -17 42 -51 42zM247 497c76 0 132 -32 132 -101c0 -3 0 -8 -1 -15l-7 -62c-9 -81 -72 -116 -155 -116c-76 0 -131 30 -131 101c0 5 0 11 1 18l7 59c9 81 73 116 154 116zM239 426c-35 0 -54 -18 -59 -54
l-5 -39c-1 -5 -1 -10 -1 -15c0 -29 16 -43 49 -43c36 0 56 18 61 54l5 43c1 7 1 11 1 12c0 28 -17 42 -51 42z" />
    <glyph glyph-name="perthousand.OP" horiz-adv-x="1150" 
d="M619 490l-278 -490h-92l278 490h92zM650 287c76 0 132 -32 132 -101c0 -3 0 -8 -1 -15l-7 -62c-9 -81 -72 -116 -155 -116c-76 0 -131 30 -131 101c0 5 0 11 1 18l7 59c9 81 73 116 154 116zM642 216c-35 0 -54 -18 -59 -54l-5 -39c-1 -5 -1 -10 -1 -15
c0 -29 16 -43 49 -43c36 0 56 18 61 54l5 43c1 7 1 11 1 12c0 28 -17 42 -51 42zM247 497c76 0 132 -32 132 -101c0 -3 0 -8 -1 -15l-7 -62c-9 -81 -72 -116 -155 -116c-76 0 -131 30 -131 101c0 5 0 11 1 18l7 59c9 81 73 116 154 116zM239 426c-35 0 -54 -18 -59 -54
l-5 -39c-1 -5 -1 -10 -1 -15c0 -29 16 -43 49 -43c36 0 56 18 61 54l5 43c1 7 1 11 1 12c0 28 -17 42 -51 42zM984 287c76 0 132 -32 132 -101c0 -3 0 -8 -1 -15l-7 -62c-9 -81 -72 -116 -155 -116c-76 0 -131 30 -131 101c0 5 0 11 1 18l7 59c9 81 73 116 154 116zM976 216
c-35 0 -54 -18 -59 -54l-5 -39c-1 -5 -1 -10 -1 -15c0 -29 16 -43 49 -43c36 0 56 18 61 54l5 43c1 7 1 11 1 12c0 28 -17 42 -51 42z" />
    <glyph glyph-name="percent.smcp" horiz-adv-x="816" 
d="M619 490l-278 -490h-92l278 490h92zM650 287c76 0 132 -32 132 -101c0 -3 0 -8 -1 -15l-7 -62c-9 -81 -72 -116 -155 -116c-76 0 -131 30 -131 101c0 5 0 11 1 18l7 59c9 81 73 116 154 116zM642 216c-35 0 -54 -18 -59 -54l-5 -39c-1 -5 -1 -10 -1 -15
c0 -29 16 -43 49 -43c36 0 56 18 61 54l5 43c1 7 1 11 1 12c0 28 -17 42 -51 42zM247 497c76 0 132 -32 132 -101c0 -3 0 -8 -1 -15l-7 -62c-9 -81 -72 -116 -155 -116c-76 0 -131 30 -131 101c0 5 0 11 1 18l7 59c9 81 73 116 154 116zM239 426c-35 0 -54 -18 -59 -54
l-5 -39c-1 -5 -1 -10 -1 -15c0 -29 16 -43 49 -43c36 0 56 18 61 54l5 43c1 7 1 11 1 12c0 28 -17 42 -51 42z" />
    <glyph glyph-name="perthousand.smcp" horiz-adv-x="1150" 
d="M619 490l-278 -490h-92l278 490h92zM650 287c76 0 132 -32 132 -101c0 -3 0 -8 -1 -15l-7 -62c-9 -81 -72 -116 -155 -116c-76 0 -131 30 -131 101c0 5 0 11 1 18l7 59c9 81 73 116 154 116zM642 216c-35 0 -54 -18 -59 -54l-5 -39c-1 -5 -1 -10 -1 -15
c0 -29 16 -43 49 -43c36 0 56 18 61 54l5 43c1 7 1 11 1 12c0 28 -17 42 -51 42zM247 497c76 0 132 -32 132 -101c0 -3 0 -8 -1 -15l-7 -62c-9 -81 -72 -116 -155 -116c-76 0 -131 30 -131 101c0 5 0 11 1 18l7 59c9 81 73 116 154 116zM239 426c-35 0 -54 -18 -59 -54
l-5 -39c-1 -5 -1 -10 -1 -15c0 -29 16 -43 49 -43c36 0 56 18 61 54l5 43c1 7 1 11 1 12c0 28 -17 42 -51 42zM984 287c76 0 132 -32 132 -101c0 -3 0 -8 -1 -15l-7 -62c-9 -81 -72 -116 -155 -116c-76 0 -131 30 -131 101c0 5 0 11 1 18l7 59c9 81 73 116 154 116zM976 216
c-35 0 -54 -18 -59 -54l-5 -39c-1 -5 -1 -10 -1 -15c0 -29 16 -43 49 -43c36 0 56 18 61 54l5 43c1 7 1 11 1 12c0 28 -17 42 -51 42z" />
    </font>
</defs>
</svg>
