<?xml version="1.0" standalone="no"?>
<!DOCTYPE svg PUBLIC "-//W3C//DTD SVG 1.1//EN" "http://www.w3.org/Graphics/SVG/1.1/DTD/svg11.dtd" >
<svg xmlns="http://www.w3.org/2000/svg" xmlns:xlink="http://www.w3.org/1999/xlink" version="1.1">
<metadata>
Created by FontForge 20190801 at Wed Oct 24 08:07:54 2012
 By root
Axia Black is a trademark of Sibylle Hagmann | Kontour Type, LLC.
</metadata>
<defs>
<font id="AxiaBlack-Regular" horiz-adv-x="310" >
  <font-face 
    font-family="Axia Black"
    font-weight="900"
    font-stretch="normal"
    units-per-em="1000"
    panose-1="2 11 10 3 3 2 2 2 2 6"
    ascent="800"
    descent="-200"
    x-height="474"
    cap-height="676"
    bbox="-136 -251 1177 954"
    underline-thickness="20"
    underline-position="-133"
    stemh="119"
    stemv="132"
    unicode-range="U+0020-FB04"
  />
<missing-glyph horiz-adv-x="1000" 
 />
    <glyph glyph-name="f_f_j" unicode="ffj" horiz-adv-x="895" 
d="M353 713v-103c-40 4 -64 6 -72 6c-47 0 -60 -15 -60 -68v-74h173v76c0 115 50 171 191 171c45 0 110 -6 153 -13s90 -15 93 -15v-145h-132v63c-52 5 -87 7 -106 7c-48 0 -67 -18 -67 -78v-66h109v-96h-109v-378h-132v378h-173v-378h-132v378h-69v96h69v108
c0 93 51 139 152 139c19 0 56 -3 112 -8zM601 -221v111c77 -4 98 27 98 88v496h132v-525c0 -51 -7 -87 -30 -120c-23 -35 -67 -54 -132 -54c-26 0 -49 1 -68 4z" />
    <glyph glyph-name="f_j" unicode="fj" horiz-adv-x="590" 
d="M526 693v-145h-132v63c-52 5 -87 7 -106 7c-48 0 -67 -18 -67 -78v-66h109v-96h-109v-378h-132v378h-69v96h69v76c0 115 50 171 191 171c45 0 110 -6 153 -13s90 -15 93 -15zM296 -221v111c77 -4 98 27 98 88v496h132v-525c0 -51 -7 -87 -30 -120
c-23 -35 -67 -54 -132 -54c-26 0 -49 1 -68 4z" />
    <glyph glyph-name="ff" unicode="ff" horiz-adv-x="629" 
d="M353 713v-103c-40 4 -64 6 -72 6c-47 0 -60 -15 -60 -68v-74h173v108c0 93 51 139 152 139c19 0 56 -3 112 -8v-103c-40 4 -64 6 -72 6c-47 0 -60 -15 -60 -68v-74h107v-96h-107v-378h-132v378h-173v-378h-132v378h-69v96h69v108c0 93 51 139 152 139c19 0 56 -3 112 -8z
" />
    <glyph glyph-name="fi" unicode="fi" horiz-adv-x="590" 
d="M526 693v-145h-132v63c-52 5 -87 7 -106 7c-48 0 -67 -18 -67 -78v-66h109v-96h-109v-378h-132v378h-69v96h69v76c0 115 50 171 191 171c45 0 110 -6 153 -13s90 -15 93 -15zM526 0h-132v474h132v-474z" />
    <glyph glyph-name="fl" unicode="fl" horiz-adv-x="590" 
d="M526 693v-693h-132v611c-52 5 -87 7 -106 7c-48 0 -67 -18 -67 -78v-66h109v-96h-109v-378h-132v378h-69v96h69v76c0 115 50 171 191 171c45 0 110 -6 153 -13s90 -15 93 -15z" />
    <glyph glyph-name="ffi" unicode="ffi" horiz-adv-x="895" 
d="M353 713v-103c-40 4 -64 6 -72 6c-47 0 -60 -15 -60 -68v-74h173v76c0 115 50 171 191 171c45 0 110 -6 153 -13s90 -15 93 -15v-145h-132v63c-46 5 -81 7 -106 7c-48 0 -67 -18 -67 -78v-66h109v-96h-109v-378h-132v378h-173v-378h-132v378h-69v96h69v108
c0 93 51 139 152 139c19 0 56 -3 112 -8zM831 0h-132v474h132v-474z" />
    <glyph glyph-name="ffl" unicode="ffl" horiz-adv-x="895" 
d="M353 713v-103c-40 4 -64 6 -72 6c-47 0 -60 -15 -60 -68v-74h173v76c0 115 50 171 191 171c45 0 110 -6 153 -13s90 -15 93 -15v-693h-132v611c-52 5 -87 7 -106 7c-48 0 -67 -18 -67 -78v-66h109v-96h-109v-378h-132v378h-173v-378h-132v378h-69v96h69v108
c0 93 51 139 152 139c19 0 56 -3 112 -8z" />
    <glyph glyph-name=".notdef" horiz-adv-x="1000" 
 />
    <glyph glyph-name="NULL" horiz-adv-x="0" 
 />
    <glyph glyph-name="CR" horiz-adv-x="333" 
 />
    <glyph glyph-name="space" unicode=" " horiz-adv-x="205" 
 />
    <glyph glyph-name="exclam" unicode="!" horiz-adv-x="286" 
d="M199 211h-112l-13 158v307h138v-307zM213 0h-140v144h140v-144z" />
    <glyph glyph-name="quotedbl" unicode="&#x22;" horiz-adv-x="401" 
d="M171 676l-28 -277h-86l-28 277h142zM372 676l-28 -277h-86l-28 277h142z" />
    <glyph glyph-name="numbersign" unicode="#" horiz-adv-x="673" 
d="M608 165h-128l-37 -165h-117l37 165h-113l-38 -165h-117l37 165h-94v102h118l25 105h-116v102h138l32 140h117l-32 -140h113l33 140h116l-32 -140h85v-102h-107l-25 -105h105v-102zM386 267l25 105h-113l-25 -105h113z" />
    <glyph glyph-name="dollar" unicode="$" horiz-adv-x="554" 
d="M353 -154h-94v143l-202 10v124c79 -8 143 -12 191 -12c103 0 129 22 129 74v15c0 40 -11 64 -66 71l-110 14c-88 11 -147 78 -147 174v58c0 105 68 162 205 169v136h94v-137c23 -1 64 -4 123 -9v-128c-79 9 -140 13 -183 13c-80 0 -107 -19 -107 -66v-17
c0 -40 12 -64 65 -71l114 -14c87 -11 144 -73 144 -164v-67c0 -93 -52 -149 -156 -166v-150z" />
    <glyph glyph-name="percent" unicode="%" horiz-adv-x="859" 
d="M366 565v-152c0 -81 -68 -116 -161 -116c-92 0 -160 35 -160 116v152c0 81 68 116 160 116s161 -35 161 -116zM814 261v-152c0 -81 -68 -116 -161 -116c-92 0 -160 35 -160 116v152c0 81 68 116 160 116s161 -35 161 -116zM205 587c-29 0 -43 -14 -43 -42v-109
c0 -28 14 -42 43 -42s44 14 44 42v109c0 28 -15 42 -44 42zM653 283c-29 0 -43 -14 -43 -42v-109c0 -28 14 -42 43 -42s44 14 44 42v109c0 28 -15 42 -44 42zM644 676l-313 -676h-115l313 676h115z" />
    <glyph glyph-name="ampersand" unicode="&#x26;" horiz-adv-x="610" 
d="M48 452v88c0 91 67 147 198 147c19 0 44 -1 75 -3c31 -1 58 -3 81 -5s33 -3 32 -3v-122c-89 8 -145 12 -170 12c-65 0 -85 -13 -85 -81v-26l65 -64h366v-115h-103v-130c0 -45 -20 -84 -59 -115s-97 -46 -172 -46s-133 15 -172 46s-59 70 -59 115v69c0 13 2 22 6 29l90 89
l-87 86c-4 7 -6 16 -6 29zM375 190v88h-131l-68 -67v-21c0 -65 24 -92 100 -92s99 27 99 92z" />
    <glyph glyph-name="quotesingle" unicode="'" horiz-adv-x="200" 
d="M171 676l-28 -277h-86l-28 277h142z" />
    <glyph glyph-name="parenleft" unicode="(" horiz-adv-x="324" 
d="M329 -156l-95 -63c-104 145 -156 306 -156 482s52 337 156 482l95 -63c-77 -131 -116 -271 -116 -419s39 -288 116 -419z" />
    <glyph glyph-name="parenright" unicode=")" horiz-adv-x="324" 
d="M-5 682l95 63c104 -145 156 -306 156 -482s-52 -337 -156 -482l-95 63c77 131 116 271 116 419s-39 288 -116 419z" />
    <glyph glyph-name="asterisk" unicode="*" horiz-adv-x="489" 
d="M230 452l-132 -125l-57 101l174 51l-175 51l58 102l132 -126l-43 176h115l-43 -176l133 126l57 -102l-174 -51l173 -51l-56 -101l-133 126l43 -176h-115z" />
    <glyph glyph-name="plus" unicode="+" horiz-adv-x="510" 
d="M478 216h-161v-168h-124v168h-161v117h161v164h124v-164h161v-117z" />
    <glyph glyph-name="comma" unicode="," horiz-adv-x="244" 
d="M194 154v-152c0 -54 -12 -101 -37 -142l-70 21c19 35 29 75 29 119h-66v154h144z" />
    <glyph glyph-name="hyphen" unicode="-" horiz-adv-x="352" 
d="M317 215h-282v119h282v-119z" />
    <glyph glyph-name="period" unicode="." horiz-adv-x="244" 
d="M194 0h-144v154h144v-154z" />
    <glyph glyph-name="slash" unicode="/" horiz-adv-x="301" 
d="M340 696l-263 -720h-116l263 720h116z" />
    <glyph glyph-name="zero" unicode="0" horiz-adv-x="572" 
d="M511 273v-73c0 -141 -75 -211 -225 -211s-225 70 -225 211v73c0 141 75 211 225 211s225 -70 225 -211zM193 254v-35c0 -42 6 -71 17 -88s37 -25 76 -25s65 8 76 25s17 46 17 88v35c0 42 -6 71 -17 88s-37 25 -76 25s-65 -8 -76 -25s-17 -46 -17 -88z" />
    <glyph glyph-name="one" unicode="1" horiz-adv-x="330" 
d="M258 0h-132v323l-121 -22v133l253 50v-484z" />
    <glyph glyph-name="two" unicode="2" horiz-adv-x="467" 
d="M224 119h222v-119h-428v105l201 130c30 19 48 33 54 42c9 11 13 28 13 49v9c0 24 -11 33 -40 33l-189 -12v117c91 8 159 12 202 12c91 0 159 -30 159 -106v-59c0 -57 -20 -84 -81 -124l-113 -73v-4z" />
    <glyph glyph-name="three" unicode="3" horiz-adv-x="469" 
d="M415 18v-40c0 -128 -63 -191 -224 -191c-18 0 -41 1 -70 4c-29 2 -53 4 -73 6l-29 3v122c76 -9 128 -14 156 -14c48 0 71 1 92 22c11 11 17 26 17 47v35l-67 66h-141v117h142l63 62v34c0 59 -14 75 -74 75l-170 -13v119c77 9 139 13 186 13c143 0 189 -66 189 -183v-51
c0 -13 -2 -22 -6 -29l-87 -86l90 -89c4 -7 6 -16 6 -29z" />
    <glyph glyph-name="four" unicode="4" horiz-adv-x="525" 
d="M526 0h-95v-202h-126v202h-300v116l312 358h114v-355h95v-119zM305 119v183l-153 -183h153z" />
    <glyph glyph-name="five" unicode="5" horiz-adv-x="492" 
d="M450 52v-95c0 -113 -68 -170 -205 -170c-21 0 -49 1 -82 4c-33 2 -61 4 -84 6l-34 3v119c65 -9 120 -13 165 -13c40 0 54 1 77 10s31 30 31 66v44c0 61 -37 78 -96 78h-163v370h362v-118h-230v-135h80c120 0 179 -66 179 -169z" />
    <glyph glyph-name="six" unicode="6" horiz-adv-x="539" 
d="M289 429c148 0 208 -62 208 -178v-100c0 -61 -28 -107 -73 -130c-44 -23 -91 -32 -146 -32s-102 9 -147 32c-44 23 -72 69 -72 130v332c0 152 81 204 221 204c9 0 73 -4 192 -13v-120c-89 10 -152 15 -189 15c-39 0 -65 -7 -76 -22c-11 -14 -16 -38 -16 -71v-56
c30 6 63 9 98 9zM295 310c-37 0 -76 -8 -92 -16l-12 -5v-97c0 -68 18 -91 87 -91s87 23 87 91v29c0 36 -4 60 -11 71c-7 12 -27 18 -59 18z" />
    <glyph glyph-name="seven" unicode="7" horiz-adv-x="443" 
d="M175 -202h-149l261 558h-287v118h437v-88z" />
    <glyph glyph-name="eight" unicode="8" horiz-adv-x="562" 
d="M486 523v-42c0 -59 -32 -111 -91 -135c71 -25 106 -72 106 -140v-50c0 -128 -118 -167 -220 -167s-220 39 -220 167v50c0 68 35 115 105 140c-59 24 -90 76 -90 135v42c0 99 77 164 205 164s205 -65 205 -164zM369 177v21c0 63 -26 86 -77 86h-22c-52 0 -77 -23 -77 -86
v-21c0 -61 32 -81 88 -81s88 20 88 81zM208 497v-13c0 -56 20 -84 59 -84h19c44 0 68 23 68 84v13c0 63 -26 83 -73 83s-73 -20 -73 -83z" />
    <glyph glyph-name="nine" unicode="9" horiz-adv-x="539" 
d="M245 46c-135 0 -203 59 -203 178v100c0 61 28 107 72 130c45 23 92 32 147 32s102 -9 146 -32c45 -23 73 -69 73 -130v-332c0 -77 -20 -131 -59 -160s-95 -44 -170 -44c-6 0 -67 4 -184 13v120c95 -10 154 -15 175 -15c46 0 75 6 87 19c13 13 19 37 19 74v56
c-30 -6 -64 -9 -103 -9zM247 165c35 0 72 9 89 16l12 5v97c0 68 -18 91 -87 91s-87 -23 -87 -91v-29c0 -37 4 -61 11 -72c8 -11 29 -17 62 -17z" />
    <glyph glyph-name="colon" unicode=":" horiz-adv-x="244" 
d="M194 0h-144v154h144v-154zM50 474h144v-154h-144v154z" />
    <glyph glyph-name="semicolon" unicode=";" horiz-adv-x="244" 
d="M194 154v-152c0 -54 -12 -101 -37 -142l-70 21c19 35 29 75 29 119h-66v154h144zM50 474h144v-154h-144v154z" />
    <glyph glyph-name="less" unicode="&#x3c;" horiz-adv-x="510" 
d="M460 164v-139l-410 196v103l410 196v-139l-256 -108z" />
    <glyph glyph-name="equal" unicode="=" horiz-adv-x="510" 
d="M468 315h-426v119h426v-119zM468 114h-426v119h426v-119z" />
    <glyph glyph-name="greater" unicode="&#x3e;" horiz-adv-x="510" 
d="M50 25v139l256 109l-256 108v139l410 -196v-103z" />
    <glyph glyph-name="question" unicode="?" horiz-adv-x="415" 
d="M229 265v-54h-132v71c0 35 15 63 44 83l66 44c31 21 48 34 52 40c4 7 6 18 6 33v22c0 45 -17 64 -77 64l-153 -11v119c80 7 140 11 180 11c121 0 181 -42 181 -125v-88c0 -24 -2 -44 -10 -61c-8 -16 -11 -25 -26 -37c-13 -12 -14 -12 -31 -24c-9 -5 -14 -9 -16 -10
l-60 -40c-16 -10 -24 -22 -24 -37zM230 0h-134v144h134v-144z" />
    <glyph glyph-name="at" unicode="@" horiz-adv-x="826" 
d="M470 116l-68 -66c-9 -3 -18 -5 -29 -5c-71 0 -114 43 -114 106v18c0 65 40 108 124 112l87 4v20c0 32 -12 36 -60 36l-124 -13v81c66 10 109 15 128 15c104 0 153 -29 153 -136v-163c67 -3 101 46 101 148c0 65 -24 118 -72 161c-47 43 -108 65 -183 65
c-76 0 -137 -24 -184 -71s-70 -113 -70 -200c0 -169 103 -256 263 -256c56 0 120 12 148 20l22 7v-85c-43 -21 -101 -32 -174 -32c-107 0 -194 32 -259 96c-65 63 -98 148 -98 254c0 107 33 193 98 258s150 97 254 97c108 0 194 -30 257 -90s95 -132 95 -215
c0 -155 -66 -233 -197 -233c-33 0 -65 4 -98 12v55zM470 166v47l-78 -5c-25 -2 -37 -13 -37 -33v-12c0 -13 12 -24 27 -24c5 0 18 3 39 9z" />
    <glyph glyph-name="A" unicode="A" horiz-adv-x="666" 
d="M518 0l-56 172h-258l-56 -172h-140l233 676h184l233 -676h-140zM328 555l-84 -258h177l-83 258h-10z" />
    <glyph glyph-name="B" unicode="B" horiz-adv-x="612" 
d="M543 526v-83c0 -13 -2 -22 -6 -29l-77 -76l90 -89c4 -7 6 -16 6 -29v-70c0 -41 -15 -77 -45 -106s-66 -44 -108 -44h-337v676h320c100 0 157 -63 157 -150zM412 450v31c0 60 -16 77 -76 77h-138v-163h158zM425 191v20l-68 67h-159v-159h143c67 0 84 12 84 72z" />
    <glyph glyph-name="C" unicode="C" horiz-adv-x="539" 
d="M504 120v-120c-90 -7 -150 -11 -180 -11c-172 0 -258 70 -258 211v276c0 141 86 211 258 211c29 0 88 -4 178 -11v-121c-70 8 -127 12 -172 12c-55 0 -91 -11 -108 -34c-16 -22 -24 -63 -24 -124v-141c0 -65 2 -91 19 -122c17 -29 52 -38 113 -38c20 0 44 1 73 3
s54 4 73 6z" />
    <glyph glyph-name="D" unicode="D" horiz-adv-x="609" 
d="M550 526v-376c0 -43 -14 -78 -42 -107s-65 -43 -110 -43h-332v676h330c45 0 82 -14 111 -43s43 -64 43 -107zM419 201v275c0 63 -21 82 -85 82h-136v-439h136c64 0 85 19 85 82z" />
    <glyph glyph-name="E" unicode="E" horiz-adv-x="519" 
d="M491 0h-425v676h417v-118h-285v-161h238v-119h-238v-159h293v-119z" />
    <glyph glyph-name="F" unicode="F" horiz-adv-x="503" 
d="M198 0h-132v676h417v-118h-285v-165h243v-119h-243v-274z" />
    <glyph glyph-name="G" unicode="G" horiz-adv-x="620" 
d="M559 4c-120 -10 -198 -15 -235 -15c-172 0 -258 70 -258 211v276c0 141 86 211 258 211c29 0 88 -4 178 -11v-121c-70 8 -127 12 -172 12c-55 0 -91 -11 -108 -34c-16 -22 -24 -63 -24 -124v-141c0 -65 2 -91 19 -122c17 -29 52 -38 113 -38c22 0 54 1 97 4v164h-126v119
h258v-391z" />
    <glyph glyph-name="H" unicode="H" horiz-adv-x="639" 
d="M573 0h-132v278h-243v-278h-132v676h132v-279h243v279h132v-676z" />
    <glyph glyph-name="I" unicode="I" horiz-adv-x="278" 
d="M205 0h-132v676h132v-676z" />
    <glyph glyph-name="J" unicode="J" horiz-adv-x="278" 
d="M205 676v-715c-1 -7 -7 -15 -16 -24l-85 -87c-7 -4 -16 -6 -29 -6h-136v119h98l36 37v676h132z" />
    <glyph glyph-name="K" unicode="K" horiz-adv-x="554" 
d="M556 0h-152l-210 278h-10v-278h-132v676h132v-279h10l211 279h146l-250 -335z" />
    <glyph glyph-name="L" unicode="L" horiz-adv-x="491" 
d="M475 0h-409v676h132v-557h277v-119z" />
    <glyph glyph-name="M" unicode="M" horiz-adv-x="714" 
d="M352 317h10l158 359h128v-676h-127v414h-4l-115 -250h-90l-115 250h-4v-414h-127v676h128z" />
    <glyph glyph-name="N" unicode="N" horiz-adv-x="669" 
d="M603 0h-132l-273 465v-465h-132v676h131l274 -466v466h132v-676z" />
    <glyph glyph-name="O" unicode="O" horiz-adv-x="638" 
d="M572 476v-276c0 -73 -24 -127 -72 -161c-47 -33 -108 -50 -181 -50s-134 17 -182 50c-47 34 -71 88 -71 161v276c0 73 24 127 72 160c48 34 108 51 181 51s133 -17 181 -51c48 -33 72 -87 72 -160zM198 434v-190c0 -99 38 -133 121 -133s121 34 121 133v190
c0 99 -38 132 -121 132s-121 -33 -121 -132z" />
    <glyph glyph-name="P" unicode="P" horiz-adv-x="552" 
d="M530 526v-107c0 -42 -14 -78 -41 -107s-62 -44 -103 -44h-188v-268h-132v676h320c41 0 76 -15 103 -44s41 -64 41 -106zM398 465v22c0 51 -15 71 -75 71h-125v-171h125c59 0 75 26 75 78z" />
    <glyph glyph-name="Q" unicode="Q" horiz-adv-x="638" 
d="M572 476v-276c0 -83 -33 -143 -100 -179l109 -167h-144l-89 136c-5 0 -22 -1 -29 -1c-73 0 -134 17 -182 50c-47 34 -71 88 -71 161v276c0 73 24 127 72 160c48 34 108 51 181 51s133 -17 181 -51c48 -33 72 -87 72 -160zM198 434v-190c0 -99 38 -133 121 -133
s121 34 121 133v190c0 99 -38 132 -121 132s-121 -33 -121 -132z" />
    <glyph glyph-name="R" unicode="R" horiz-adv-x="606" 
d="M530 526v-107c0 -61 -34 -116 -86 -139l143 -280h-144l-137 268h-108v-268h-132v676h320c41 0 76 -15 103 -44s41 -64 41 -106zM398 465v22c0 51 -15 71 -75 71h-125v-171h125c59 0 75 26 75 78z" />
    <glyph glyph-name="S" unicode="S" horiz-adv-x="554" 
d="M509 229v-67c0 -115 -82 -173 -247 -173c-21 0 -49 1 -83 3c-34 1 -63 3 -87 4l-35 3v124c79 -8 143 -12 191 -12c103 0 129 22 129 74v15c0 40 -11 64 -66 71l-110 14c-88 11 -147 78 -147 174v58c0 115 86 170 235 170c29 0 92 -4 187 -11v-128c-79 9 -140 13 -183 13
c-80 0 -107 -19 -107 -66v-17c0 -40 12 -64 65 -71l114 -14c87 -11 144 -73 144 -164z" />
    <glyph glyph-name="T" unicode="T" horiz-adv-x="492" 
d="M486 557h-174v-557h-132v557h-174v119h480v-119z" />
    <glyph glyph-name="U" unicode="U" horiz-adv-x="638" 
d="M66 201v475h132v-447c0 -47 11 -80 34 -97s52 -25 87 -25s64 8 87 25s34 50 34 97v447h132v-475c0 -70 -24 -123 -73 -159c-48 -35 -108 -53 -180 -53s-132 18 -181 53c-48 36 -72 89 -72 159z" />
    <glyph glyph-name="V" unicode="V" horiz-adv-x="634" 
d="M158 676l154 -513h10l154 513h144l-233 -676h-140l-233 676h144z" />
    <glyph glyph-name="W" unicode="W" horiz-adv-x="1000" 
d="M279 156l136 520h170l136 -520h10l112 520h146l-179 -676h-169l-136 525h-10l-136 -525h-169l-179 676h146l112 -520h10z" />
    <glyph glyph-name="X" unicode="X" horiz-adv-x="605" 
d="M437 0l-135 233l-134 -233h-151l208 335v1l-209 340h151l135 -236l136 236h151l-209 -340v-1l208 -335h-151z" />
    <glyph glyph-name="Y" unicode="Y" horiz-adv-x="586" 
d="M298 402l131 274h149l-219 -417v-259h-132v259l-219 417h149l131 -274h10z" />
    <glyph glyph-name="Z" unicode="Z" horiz-adv-x="521" 
d="M488 0h-453v120l313 438h-292v118h431v-118l-314 -439h315v-119z" />
    <glyph glyph-name="bracketleft" unicode="[" horiz-adv-x="296" 
d="M318 -210h-235v950h228v-117h-96v-716h103v-117z" />
    <glyph glyph-name="backslash" unicode="\" horiz-adv-x="301" 
d="M224 -24l-263 720h116l263 -720h-116z" />
    <glyph glyph-name="bracketright" unicode="]" horiz-adv-x="296" 
d="M213 -210h-235v117h103v716h-96v117h228v-950z" />
    <glyph glyph-name="asciicircum" unicode="^" horiz-adv-x="500" 
d="M467 345l-110 -51l-107 246l-107 -246l-110 51l166 331h102z" />
    <glyph glyph-name="underscore" unicode="_" horiz-adv-x="536" 
d="M531 -116h-526v82h526v-82z" />
    <glyph glyph-name="grave" unicode="`" 
d="M265 538h-117l-108 150h147z" />
    <glyph glyph-name="a" unicode="a" horiz-adv-x="497" 
d="M314 140v71l-103 -7c-31 -3 -46 -16 -46 -40v-12c0 -26 13 -39 40 -39c12 0 28 3 49 9zM314 0v71l-95 -78c-8 -3 -17 -4 -28 -4c-92 0 -151 53 -151 128v39c0 79 49 134 166 141l108 6v21c0 30 -25 45 -75 45l-160 -9v115c97 7 156 10 178 10c120 0 189 -40 189 -160
v-325h-132z" />
    <glyph glyph-name="b" unicode="b" horiz-adv-x="514" 
d="M51 151v559h132v-307l94 78c8 3 17 4 28 4c104 0 158 -60 158 -152v-182c0 -128 -104 -162 -206 -162s-206 34 -206 162zM183 333v-169c0 -46 25 -69 74 -69s74 23 74 69v124c0 45 -22 65 -67 58z" />
    <glyph glyph-name="c" unicode="c" horiz-adv-x="418" 
d="M393 2c-42 -9 -90 -13 -143 -13c-133 0 -199 55 -199 166v158c0 115 65 172 195 172l138 -10v-105c-51 7 -90 10 -118 10c-55 0 -83 -19 -83 -88v-116c0 -36 6 -59 17 -68c12 -9 35 -14 70 -14c25 0 73 5 102 8l21 3v-103z" />
    <glyph glyph-name="d" unicode="d" horiz-adv-x="514" 
d="M463 0h-132v71l-94 -78c-8 -3 -17 -4 -28 -4c-104 0 -158 60 -158 152v177c0 107 53 167 194 167c37 0 65 -5 86 -15v240h132v-710zM331 141v219c-19 13 -44 19 -75 19c-49 0 -73 -23 -73 -69v-124c0 -45 22 -65 67 -58z" />
    <glyph glyph-name="e" unicode="e" horiz-adv-x="491" 
d="M258 485c136 0 204 -56 204 -167v-127h-278v-12c0 -68 25 -85 102 -85c57 0 111 4 160 12v-106c-51 -7 -107 -11 -167 -11c-151 0 -227 60 -227 180v149c0 111 69 167 206 167zM184 283h147v29c0 45 -16 68 -73 68c-52 0 -74 -18 -74 -70v-27z" />
    <glyph glyph-name="f" unicode="f" horiz-adv-x="324" 
d="M353 713v-103c-40 4 -64 6 -72 6c-47 0 -60 -15 -60 -68v-74h107v-96h-107v-378h-132v378h-69v96h69v108c0 93 51 139 152 139c19 0 56 -3 112 -8z" />
    <glyph glyph-name="g" unicode="g" horiz-adv-x="552" 
d="M386 -77v11c-6 28 -19 32 -62 37c-3 1 -6 1 -7 1l-106 14c-27 -7 -42 -26 -42 -46v-13c0 -31 39 -54 104 -54c61 0 113 19 113 50zM254 397c-59 0 -75 -22 -75 -74v-16c0 -49 18 -72 75 -72s75 23 75 72v16c0 51 -18 74 -75 74zM134 150c-52 20 -86 77 -86 156v12
c0 104 63 167 206 167c33 0 63 -4 88 -11h192v-95h-10l-90 19c17 -17 26 -44 26 -80v-12c0 -119 -79 -172 -191 -172c-17 0 -30 1 -41 2l-4 -7c-3 -7 -5 -13 -5 -18c0 -12 14 -20 43 -25l119 -16c87 -12 134 -61 134 -121v-28c0 -46 -25 -82 -74 -107
c-49 -26 -105 -39 -169 -39c-67 0 -122 12 -165 36s-64 59 -64 106v8c0 45 33 89 94 110c-22 10 -33 26 -33 48v21c0 9 3 17 8 22z" />
    <glyph glyph-name="h" unicode="h" horiz-adv-x="514" 
d="M463 0h-132v288c0 45 -22 65 -67 58l-81 -13v-333h-132v710h132v-307l94 78c8 3 17 4 28 4c104 0 158 -60 158 -152v-333z" />
    <glyph glyph-name="i" unicode="i" horiz-adv-x="258" 
d="M195 566h-132v144h132v-144zM195 0h-132v474h132v-474z" />
    <glyph glyph-name="j" unicode="j" horiz-adv-x="258" 
d="M195 567h-132v143h132v-143zM-35 -221v111c81 -7 98 24 98 88v496h132v-525c0 -51 -7 -87 -30 -120c-23 -35 -67 -54 -132 -54c-26 0 -49 1 -68 4z" />
    <glyph glyph-name="k" unicode="k" horiz-adv-x="462" 
d="M467 0h-161l-113 204h-10v-204h-132v710h132v-439h10l113 203h151l-153 -232z" />
    <glyph glyph-name="l" unicode="l" horiz-adv-x="258" 
d="M195 0h-132v710h132v-710z" />
    <glyph glyph-name="m" unicode="m" horiz-adv-x="803" 
d="M752 0h-132v288c0 46 -24 65 -72 58l-81 -13v-333h-132v288c0 45 -24 65 -71 58l-81 -13v-333h-132v474h132v-71l94 78c8 3 17 4 28 4c79 0 130 -31 152 -92l105 88c8 3 17 4 27 4c105 0 163 -61 163 -152v-333z" />
    <glyph glyph-name="n" unicode="n" horiz-adv-x="514" 
d="M463 0h-132v288c0 45 -22 65 -67 58l-81 -13v-333h-132v474h132v-71l94 78c8 3 17 4 28 4c104 0 158 -60 158 -152v-333z" />
    <glyph glyph-name="o" unicode="o" horiz-adv-x="528" 
d="M476 313v-157c0 -128 -110 -167 -212 -167s-212 39 -212 167v157c0 104 69 172 212 172s212 -68 212 -172zM184 295v-115c0 -63 24 -89 80 -89s80 26 80 89v115c0 61 -24 88 -80 88s-80 -27 -80 -88z" />
    <glyph glyph-name="p" unicode="p" horiz-adv-x="514" 
d="M51 -212v686h132v-71l94 78c8 3 17 4 28 4c104 0 158 -60 158 -152v-182c0 -57 -19 -98 -56 -124c-37 -25 -83 -38 -140 -38c-36 0 -64 4 -84 11v-212h-132zM183 333v-169c0 -46 25 -69 74 -69s74 23 74 69v124c0 45 -22 65 -67 58z" />
    <glyph glyph-name="q" unicode="q" horiz-adv-x="514" 
d="M331 -212v283l-94 -78c-8 -3 -17 -4 -28 -4c-104 0 -158 60 -158 152v177c0 107 53 167 194 167c32 0 61 -6 86 -18l132 7v-686h-132zM331 141v219c-19 13 -44 19 -75 19c-49 0 -73 -23 -73 -69v-124c0 -45 22 -65 67 -58z" />
    <glyph glyph-name="r" unicode="r" horiz-adv-x="326" 
d="M176 0h-132v474h132v-110h5c1 5 2 13 14 38c7 13 15 24 24 34c19 20 55 40 99 43v-141c-67 1 -115 -30 -142 -94v-244z" />
    <glyph glyph-name="s" unicode="s" horiz-adv-x="456" 
d="M415 162v-37c0 -91 -58 -136 -175 -136c-53 0 -127 4 -164 8l-28 3v114c59 -9 111 -14 156 -14c41 0 53 0 68 11c7 6 11 15 11 28v9c0 19 -12 30 -35 33l-91 11c-64 8 -111 57 -111 124v38c0 96 63 131 184 131c53 0 113 -4 138 -7l19 -3v-111c-64 7 -111 11 -141 11
c-51 0 -68 -11 -68 -36v-9c0 -19 12 -30 36 -33l90 -11c64 -8 111 -57 111 -124z" />
    <glyph glyph-name="t" unicode="t" horiz-adv-x="347" 
d="M330 109v-111c-20 -5 -51 -8 -93 -8c-89 0 -151 50 -151 149v239h-70v96h70v90l55 46h77v-136h115v-96h-115v-184v-8c0 -41 -1 -55 14 -71c8 -7 20 -11 36 -11c20 0 41 2 62 5z" />
    <glyph glyph-name="u" unicode="u" horiz-adv-x="514" 
d="M51 474h132v-288c0 -45 22 -65 67 -58l81 13v333h132v-474h-132v71l-94 -78c-8 -3 -17 -4 -28 -4c-104 0 -158 60 -158 152v333z" />
    <glyph glyph-name="v" unicode="v" horiz-adv-x="472" 
d="M241 145l96 329h134l-154 -474h-162l-154 474h134l96 -329h10z" />
    <glyph glyph-name="w" unicode="w" horiz-adv-x="740" 
d="M214 145l77 329h158l77 -329h10l66 329h137l-122 -474h-162l-80 343h-10l-80 -343h-162l-122 474h137l66 -329h10z" />
    <glyph glyph-name="x" unicode="x" horiz-adv-x="458" 
d="M317 0l-88 135l-88 -135h-140l161 237l-161 237h139l89 -135l89 135h139l-161 -237l161 -237h-140z" />
    <glyph glyph-name="y" unicode="y" horiz-adv-x="472" 
d="M251 -212h-119l70 212h-49l-152 474h134l96 -329h10l96 329h134z" />
    <glyph glyph-name="z" unicode="z" horiz-adv-x="425" 
d="M404 0h-383v97l220 266v5h-205v106h351v-98l-219 -264v-6h236v-106z" />
    <glyph glyph-name="braceleft" unicode="{" horiz-adv-x="355" 
d="M152 263l70 -48c23 -15 27 -41 27 -93v-111c0 -36 0 -39 3 -62c2 -11 5 -19 9 -23c9 -8 24 -18 49 -22v-122c-129 0 -193 60 -193 180v142c0 47 -4 65 -24 85l-72 69v10l72 69c20 20 24 38 24 85v142c0 120 64 180 193 180v-122c-38 -11 -51 -14 -58 -45
c-3 -23 -3 -26 -3 -62v-111c0 -52 -4 -78 -27 -93z" />
    <glyph glyph-name="bar" unicode="|" horiz-adv-x="267" 
d="M194 -251h-121v1001h121v-1001z" />
    <glyph glyph-name="braceright" unicode="}" horiz-adv-x="355" 
d="M133 215l70 48l-70 48c-23 15 -27 41 -27 93v111c0 36 0 39 -4 62c-1 11 -4 19 -9 23c-8 8 -23 18 -48 22v122c129 0 193 -60 193 -180v-142c0 -47 4 -65 24 -85l72 -69v-10l-72 -69c-20 -20 -24 -38 -24 -85v-142c0 -120 -64 -180 -193 -180v122c38 10 52 14 57 45
c4 23 4 26 4 62v111c0 52 4 78 27 93z" />
    <glyph glyph-name="asciitilde" unicode="~" horiz-adv-x="515" 
d="M385 368h120c0 -131 -52 -197 -157 -197c-38 0 -70 11 -97 33l-35 29c-15 11 -29 17 -43 17c-25 0 -40 -26 -43 -77h-120c0 131 52 197 157 197c36 0 68 -11 97 -34l34 -27c15 -12 30 -18 44 -18c25 0 40 26 43 77z" />
    <glyph glyph-name="nbspace" unicode="&#xa0;" horiz-adv-x="205" 
 />
    <glyph glyph-name="exclamdown" unicode="&#xa1;" horiz-adv-x="286" 
d="M87 465h112l13 -158v-307h-138v307zM73 676h140v-144h-140v144z" />
    <glyph glyph-name="cent" unicode="&#xa2;" horiz-adv-x="418" 
d="M297 -154h-94v146c-101 12 -152 66 -152 163v158c0 101 51 157 152 170v139h94v-140l87 -7v-105c-51 7 -90 10 -118 10c-55 0 -83 -19 -83 -88v-116c0 -36 6 -59 17 -68c12 -9 35 -14 70 -14c25 0 73 5 102 8l21 3v-103c-27 -5 -59 -9 -96 -11v-145z" />
    <glyph glyph-name="sterling" unicode="&#xa3;" horiz-adv-x="572" 
d="M249 469l5 -102h189v-96h-180l2 -55c1 -24 0 -42 -3 -53c-2 -11 -7 -26 -15 -44h283v-119h-490v119h41c16 0 57 13 53 87l-3 65h-76v96h70l-8 133c-7 115 63 187 212 187c17 0 40 -1 69 -3c29 -1 54 -3 75 -5l31 -3v-125c-81 8 -138 12 -171 12c-69 0 -88 -23 -84 -94z
" />
    <glyph glyph-name="currency" unicode="&#xa4;" horiz-adv-x="572" 
d="M543 485l-65 -72c15 -29 23 -64 23 -103v-33c0 -41 -8 -76 -24 -106l66 -73l-83 -73l-71 75c-25 -9 -55 -13 -88 -13h-18c-33 0 -63 4 -89 13l-70 -75l-83 73l65 73c-15 29 -23 64 -23 106v33c0 41 7 75 22 103l-64 72l83 73l68 -73c27 10 58 15 91 15h18
c34 0 64 -5 91 -15l68 73zM280 197h24c60 0 79 29 79 88v17c0 59 -19 89 -79 89h-24c-60 0 -79 -30 -79 -89v-17c0 -59 19 -88 79 -88z" />
    <glyph glyph-name="yen" unicode="&#xa5;" horiz-adv-x="586" 
d="M298 402l131 274h149l-219 -417h125v-97h-125v-162h-132v162h-139v97h139l-219 417h149l131 -274h10z" />
    <glyph glyph-name="brokenbar" unicode="&#xa6;" horiz-adv-x="267" 
d="M194 750v-435h-121v435h121zM194 -251h-121v435h121v-435z" />
    <glyph glyph-name="section" unicode="&#xa7;" horiz-adv-x="513" 
d="M344 219v16c0 47 -28 64 -88 64s-88 -17 -88 -64v-16c0 -47 27 -60 88 -60s88 13 88 60zM462 -28v-23c0 -116 -82 -173 -226 -173c-56 0 -124 3 -156 6l-25 2v116c62 -6 120 -9 173 -9c84 0 107 17 107 64v11c0 38 -19 59 -57 63l-82 11c-91 12 -146 60 -146 137v72
c0 52 22 98 55 117c-37 28 -55 68 -55 121v23c0 116 82 173 226 173c33 0 85 -4 156 -11v-116c-58 9 -109 13 -152 13c-80 0 -103 -20 -103 -65v-11c0 -38 19 -59 57 -63l82 -11c91 -12 146 -60 146 -137v-72c0 -52 -22 -98 -55 -117c37 -28 55 -68 55 -121z" />
    <glyph glyph-name="dieresis" unicode="&#xa8;" 
d="M124 547h-131v134h131v-134zM317 547h-131v134h131v-134z" />
    <glyph glyph-name="copyright" unicode="&#xa9;" horiz-adv-x="826" 
d="M523 231v-91c-28 -5 -65 -7 -110 -7c-105 0 -158 42 -158 127v146c0 93 46 136 166 136c15 0 47 -2 95 -6v-90c-36 3 -64 5 -83 5c-55 0 -75 -11 -75 -67v-90c0 -56 17 -70 65 -70zM596 141c47 45 70 111 70 197s-23 151 -70 196c-46 45 -107 68 -183 68
s-137 -23 -184 -68c-46 -45 -69 -110 -69 -196s23 -152 69 -197c47 -45 108 -67 184 -67s137 22 183 67zM153 79c-61 61 -91 147 -91 259s30 198 91 258c61 61 147 91 260 91s199 -30 260 -91c61 -60 91 -146 91 -258s-30 -198 -91 -259c-61 -60 -147 -90 -260 -90
s-199 30 -260 90z" />
    <glyph glyph-name="ordfeminine" unicode="&#xaa;" horiz-adv-x="403" 
d="M247 307v52l-66 -58c-9 -3 -19 -4 -31 -4c-76 0 -123 46 -123 111v19c0 65 44 100 132 105l88 5v23c0 31 -11 39 -52 39l-135 -8v83c81 5 131 8 148 8c99 0 149 -42 149 -126v-249h-110zM247 411v53l-75 -5c-29 -2 -44 -14 -44 -35v-6c0 -18 11 -27 33 -27c7 0 18 2 34 6
z" />
    <glyph glyph-name="guillemotleft" unicode="&#xab;" horiz-adv-x="562" 
d="M155 275v-10l136 -138l-69 -71l-194 196v36l194 196l69 -70zM376 275v-10l136 -138l-69 -71l-194 196v36l194 196l69 -70z" />
    <glyph glyph-name="logicalnot" unicode="&#xac;" horiz-adv-x="510" 
d="M478 88h-132v215h-314v119h446v-334z" />
    <glyph glyph-name="uni00AD" unicode="&#xad;" horiz-adv-x="480" 
d="M395 215h-310v119h310v-119z" />
    <glyph glyph-name="registered" unicode="&#xae;" horiz-adv-x="627" 
d="M126 237c-44 45 -66 109 -66 192s22 146 66 191c45 45 107 67 187 67s142 -22 187 -67s67 -108 67 -191s-22 -147 -67 -192s-107 -67 -187 -67s-142 22 -187 67zM501 429c0 128 -65 197 -188 197s-186 -69 -186 -197c0 -131 62 -197 186 -197c123 0 188 68 188 197z
M414 507v-35c0 -30 -14 -49 -43 -58l60 -114h-64l-59 111h-22v-111h-62v269h123c40 0 67 -26 67 -62zM353 486v8c0 17 -6 25 -30 25h-37v-58h37c24 0 30 8 30 25z" />
    <glyph glyph-name="overscore" unicode="&#xaf;" 
d="M22 556v114h266v-114h-266z" />
    <glyph glyph-name="degree" unicode="&#xb0;" horiz-adv-x="361" 
d="M181 687c95 0 151 -44 151 -105v-72c0 -61 -56 -105 -151 -105c-96 0 -152 44 -152 105v72c0 61 56 105 152 105zM181 613c-32 0 -56 -15 -56 -48v-33c0 -33 24 -48 56 -48c31 0 54 16 54 48v33c0 32 -23 48 -54 48z" />
    <glyph glyph-name="plusminus" unicode="&#xb1;" horiz-adv-x="510" 
d="M470 0h-430v116h430v-116zM478 264h-161v-116h-124v116h-161v117h161v116h124v-116h161v-117z" />
    <glyph glyph-name="twosuperior" unicode="&#xb2;" horiz-adv-x="360" 
d="M168 393h156v-93h-297v90l122 95c37 29 55 51 55 65v15c0 13 -12 20 -36 20l-124 -8v98c62 5 108 7 139 7c85 0 127 -27 127 -82v-41c0 -43 -25 -81 -75 -115l-65 -44z" />
    <glyph glyph-name="threesuperior" unicode="&#xb3;" horiz-adv-x="331" 
d="M303 579v-29c0 -9 -2 -15 -5 -20l-46 -45l48 -47c3 -5 4 -10 4 -17v-35c0 -56 -41 -93 -136 -93l-135 10v86c44 -5 74 -7 90 -7c49 0 69 6 69 31v20l-18 18h-104v70h105l16 15v27c0 20 -16 30 -49 30l-102 -6v88c55 5 101 7 136 7c51 0 84 -9 101 -28
c17 -18 26 -43 26 -75z" />
    <glyph glyph-name="acute" unicode="&#xb4;" 
d="M162 538h-117l78 150h147z" />
    <glyph glyph-name="mu" unicode="&#xb5;" horiz-adv-x="514" 
d="M51 -212v686h132v-288c0 -45 22 -65 67 -58l81 13v333h132v-474h-132v71l-94 -78c-8 -3 -17 -4 -28 -4c-7 0 -15 1 -26 2v-203h-132z" />
    <glyph glyph-name="paragraph" unicode="&#xb6;" horiz-adv-x="494" 
d="M22 419v107c0 42 14 77 41 106s62 44 103 44h280v-117h-67v-559h-132v268h-81c-41 0 -76 15 -103 44s-41 65 -41 107z" />
    <glyph glyph-name="middot" unicode="&#xb7;" horiz-adv-x="244" 
d="M194 210h-144v154h144v-154z" />
    <glyph glyph-name="cedilla" unicode="&#xb8;" 
d="M55 -219v73c29 -7 53 -10 70 -10c21 0 31 7 31 22v10c0 15 -9 21 -27 19l-40 34l58 78h77l-44 -58c48 3 79 -23 79 -66v-29c0 -57 -54 -84 -111 -84c-20 0 -57 5 -78 8z" />
    <glyph glyph-name="onesuperior" unicode="&#xb9;" horiz-adv-x="243" 
d="M205 300h-119v262l-86 -14v99l205 35v-382z" />
    <glyph glyph-name="ordmasculine" unicode="&#xba;" horiz-adv-x="440" 
d="M395 551v-127c0 -46 -17 -79 -52 -99c-34 -20 -75 -30 -123 -30s-89 10 -124 30c-34 20 -51 53 -51 99v127c0 80 62 131 175 131s175 -51 175 -131zM155 542v-103c0 -39 22 -58 65 -58s65 19 65 58v103c0 39 -22 58 -65 58s-65 -19 -65 -58z" />
    <glyph glyph-name="guillemotright" unicode="&#xbb;" horiz-adv-x="562" 
d="M407 265v10l-136 139l69 70l194 -196v-36l-194 -196l-69 71zM186 265v10l-136 139l69 70l194 -196v-36l-194 -196l-69 71z" />
    <glyph glyph-name="onequarter" unicode="&#xbc;" horiz-adv-x="719" 
d="M551 676l-313 -676h-105l313 676h105zM205 300h-119v262l-86 -14v99l205 35v-382zM721 88h-67v-88h-98v88h-174v80l159 208h113v-202h67v-86zM556 174v99l-79 -99h79z" />
    <glyph glyph-name="onehalf" unicode="&#xbd;" horiz-adv-x="719" 
d="M205 300h-119v262l-86 -14v99l205 35v-382zM515 676l-313 -676h-105l313 676h105zM527 93h156v-93h-297v90l122 95c37 29 55 51 55 65v15c0 13 -12 20 -36 20l-124 -8v98c62 5 108 7 139 7c85 0 127 -27 127 -82v-41c0 -43 -25 -81 -75 -115l-65 -44z" />
    <glyph glyph-name="threequarters" unicode="&#xbe;" horiz-adv-x="719" 
d="M586 676l-313 -676h-105l313 676h105zM303 579v-29c0 -9 -2 -15 -5 -20l-46 -45l48 -47c3 -5 4 -10 4 -17v-35c0 -56 -41 -93 -136 -93l-135 10v86c44 -5 74 -7 90 -7c49 0 69 6 69 31v20l-18 18h-104v70h105l16 15v27c0 20 -16 30 -49 30l-102 -6v88c55 5 101 7 136 7
c51 0 84 -9 101 -28c17 -18 26 -43 26 -75zM721 88h-67v-88h-98v88h-174v80l159 208h113v-202h67v-86zM556 174v99l-79 -99h79z" />
    <glyph glyph-name="questiondown" unicode="&#xbf;" horiz-adv-x="415" 
d="M186 411v54h132v-71c0 -35 -15 -63 -44 -83l-66 -44c-31 -21 -48 -34 -52 -40c-4 -7 -6 -18 -6 -33v-22c0 -45 17 -64 77 -64l153 11v-119c-80 -7 -140 -11 -180 -11c-121 0 -181 42 -181 125v88c0 49 14 79 35 98c15 12 15 12 32 23c9 6 14 10 16 11l60 40
c16 10 24 22 24 37zM185 676h134v-144h-134v144z" />
    <glyph glyph-name="Agrave" unicode="&#xc0;" horiz-adv-x="666" 
d="M518 0l-56 172h-258l-56 -172h-140l233 676h184l233 -676h-140zM328 555l-84 -258h177l-83 258h-10zM446 740h-117l-108 150h147z" />
    <glyph glyph-name="Aacute" unicode="&#xc1;" horiz-adv-x="666" 
d="M518 0l-56 172h-258l-56 -172h-140l233 676h184l233 -676h-140zM328 555l-84 -258h177l-83 258h-10zM338 740h-117l78 150h147z" />
    <glyph glyph-name="Acircumflex" unicode="&#xc2;" horiz-adv-x="666" 
d="M518 0l-56 172h-258l-56 -172h-140l233 676h184l233 -676h-140zM328 555l-84 -258h177l-83 258h-10zM273 740h-99l103 150h112l103 -150h-99l-60 78z" />
    <glyph glyph-name="Atilde" unicode="&#xc3;" horiz-adv-x="666" 
d="M518 0l-56 172h-258l-56 -172h-140l233 676h184l233 -676h-140zM328 555l-84 -258h177l-83 258h-10zM335 766l-37 21c-7 2 -15 3 -24 3c-27 0 -41 -13 -42 -40h-96c4 83 52 134 120 134c27 0 53 -7 76 -20l37 -21c9 -2 17 -3 24 -3c27 0 41 13 42 40h96
c-4 -83 -52 -134 -120 -134c-29 0 -54 7 -76 20z" />
    <glyph glyph-name="Adieresis" unicode="&#xc4;" horiz-adv-x="666" 
d="M518 0l-56 172h-258l-56 -172h-140l233 676h184l233 -676h-140zM328 555l-84 -258h177l-83 258h-10zM302 749h-131v134h131v-134zM495 749h-131v134h131v-134z" />
    <glyph glyph-name="Aring" unicode="&#xc5;" horiz-adv-x="666" 
d="M518 0l-56 172h-258l-56 -172h-140l233 676h184l233 -676h-140zM328 555l-84 -258h177l-83 258h-10zM205 833c0 71 47 121 112 121h33c64 0 111 -52 111 -121c0 -72 -47 -121 -111 -121h-33c-65 0 -112 49 -112 121zM321 795h24c13 0 31 11 31 38s-18 38 -31 38h-24
c-15 0 -31 -11 -31 -38s16 -38 31 -38z" />
    <glyph glyph-name="AE" unicode="&#xc6;" horiz-adv-x="882" 
d="M429 0v172h-203l-98 -172h-140l394 676h464v-118h-285v-161h238v-119h-238v-159h293v-119h-425zM419 514l-121 -217h131v217h-10z" />
    <glyph glyph-name="Ccedilla" unicode="&#xc7;" horiz-adv-x="539" 
d="M167 -219v73c29 -7 53 -10 70 -10c21 0 31 7 31 22v10c0 15 -9 21 -27 19l-40 34l48 65c-122 18 -183 87 -183 206v276c0 141 86 211 258 211c29 0 88 -4 178 -11v-121c-70 8 -127 12 -172 12c-55 0 -91 -11 -108 -34c-16 -22 -24 -63 -24 -124v-141c0 -65 2 -91 19 -122
c17 -29 52 -38 113 -38c20 0 44 1 73 3s54 4 73 6l28 3v-120c-90 -7 -150 -11 -180 -11h-2l-30 -40c48 3 79 -23 79 -66v-29c0 -57 -54 -84 -111 -84c-20 0 -57 5 -78 8z" />
    <glyph glyph-name="Egrave" unicode="&#xc8;" horiz-adv-x="519" 
d="M491 0h-425v676h417v-118h-285v-161h238v-119h-238v-159h293v-119zM372 740h-117l-108 150h147z" />
    <glyph glyph-name="Eacute" unicode="&#xc9;" horiz-adv-x="519" 
d="M491 0h-425v676h417v-118h-285v-161h238v-119h-238v-159h293v-119zM264 740h-117l78 150h147z" />
    <glyph glyph-name="Ecircumflex" unicode="&#xca;" horiz-adv-x="519" 
d="M491 0h-425v676h417v-118h-285v-161h238v-119h-238v-159h293v-119zM199 740h-99l103 150h112l103 -150h-99l-60 78z" />
    <glyph glyph-name="Edieresis" unicode="&#xcb;" horiz-adv-x="519" 
d="M491 0h-425v676h417v-118h-285v-161h238v-119h-238v-159h293v-119zM228 749h-131v134h131v-134zM421 749h-131v134h131v-134z" />
    <glyph glyph-name="Igrave" unicode="&#xcc;" horiz-adv-x="278" 
d="M205 0h-132v676h132v-676zM252 740h-117l-108 150h147z" />
    <glyph glyph-name="Iacute" unicode="&#xcd;" horiz-adv-x="278" 
d="M205 0h-132v676h132v-676zM144 740h-117l78 150h147z" />
    <glyph glyph-name="Icircumflex" unicode="&#xce;" horiz-adv-x="278" 
d="M205 0h-132v676h132v-676zM79 740h-99l103 150h112l103 -150h-99l-60 78z" />
    <glyph glyph-name="Idieresis" unicode="&#xcf;" horiz-adv-x="278" 
d="M205 0h-132v676h132v-676zM108 749h-131v134h131v-134zM301 749h-131v134h131v-134z" />
    <glyph glyph-name="Eth" unicode="&#xd0;" horiz-adv-x="609" 
d="M0 291v93h66v292h330c45 0 82 -14 111 -43s43 -64 43 -107v-376c0 -43 -14 -78 -42 -107s-65 -43 -110 -43h-332v291h-66zM419 201v275c0 63 -21 82 -85 82h-136v-174h147v-93h-147v-172h136c64 0 85 19 85 82z" />
    <glyph glyph-name="Ntilde" unicode="&#xd1;" horiz-adv-x="669" 
d="M603 0h-132l-273 465v-465h-132v676h131l274 -466v466h132v-676zM336 766l-37 21c-7 2 -15 3 -24 3c-27 0 -41 -13 -42 -40h-96c4 83 52 134 120 134c27 0 53 -7 76 -20l37 -21c9 -2 17 -3 24 -3c27 0 41 13 42 40h96c-4 -83 -52 -134 -120 -134c-29 0 -54 7 -76 20z" />
    <glyph glyph-name="Ograve" unicode="&#xd2;" horiz-adv-x="638" 
d="M572 476v-276c0 -73 -24 -127 -72 -161c-47 -33 -108 -50 -181 -50s-134 17 -182 50c-47 34 -71 88 -71 161v276c0 73 24 127 72 160c48 34 108 51 181 51s133 -17 181 -51c48 -33 72 -87 72 -160zM198 434v-190c0 -99 38 -133 121 -133s121 34 121 133v190
c0 99 -38 132 -121 132s-121 -33 -121 -132zM432 740h-117l-108 150h147z" />
    <glyph glyph-name="Oacute" unicode="&#xd3;" horiz-adv-x="638" 
d="M572 476v-276c0 -73 -24 -127 -72 -161c-47 -33 -108 -50 -181 -50s-134 17 -182 50c-47 34 -71 88 -71 161v276c0 73 24 127 72 160c48 34 108 51 181 51s133 -17 181 -51c48 -33 72 -87 72 -160zM198 434v-190c0 -99 38 -133 121 -133s121 34 121 133v190
c0 99 -38 132 -121 132s-121 -33 -121 -132zM324 740h-117l78 150h147z" />
    <glyph glyph-name="Ocircumflex" unicode="&#xd4;" horiz-adv-x="638" 
d="M572 476v-276c0 -73 -24 -127 -72 -161c-47 -33 -108 -50 -181 -50s-134 17 -182 50c-47 34 -71 88 -71 161v276c0 73 24 127 72 160c48 34 108 51 181 51s133 -17 181 -51c48 -33 72 -87 72 -160zM198 434v-190c0 -99 38 -133 121 -133s121 34 121 133v190
c0 99 -38 132 -121 132s-121 -33 -121 -132zM259 740h-99l103 150h112l103 -150h-99l-60 78z" />
    <glyph glyph-name="Otilde" unicode="&#xd5;" horiz-adv-x="638" 
d="M572 476v-276c0 -73 -24 -127 -72 -161c-47 -33 -108 -50 -181 -50s-134 17 -182 50c-47 34 -71 88 -71 161v276c0 73 24 127 72 160c48 34 108 51 181 51s133 -17 181 -51c48 -33 72 -87 72 -160zM198 434v-190c0 -99 38 -133 121 -133s121 34 121 133v190
c0 99 -38 132 -121 132s-121 -33 -121 -132zM321 766l-37 21c-7 2 -15 3 -24 3c-27 0 -41 -13 -42 -40h-96c4 83 52 134 120 134c27 0 53 -7 76 -20l37 -21c9 -2 17 -3 24 -3c27 0 41 13 42 40h96c-4 -83 -52 -134 -120 -134c-29 0 -54 7 -76 20z" />
    <glyph glyph-name="Odieresis" unicode="&#xd6;" horiz-adv-x="638" 
d="M572 476v-276c0 -73 -24 -127 -72 -161c-47 -33 -108 -50 -181 -50s-134 17 -182 50c-47 34 -71 88 -71 161v276c0 73 24 127 72 160c48 34 108 51 181 51s133 -17 181 -51c48 -33 72 -87 72 -160zM198 434v-190c0 -99 38 -133 121 -133s121 34 121 133v190
c0 99 -38 132 -121 132s-121 -33 -121 -132zM288 749h-131v134h131v-134zM481 749h-131v134h131v-134z" />
    <glyph glyph-name="multiply" unicode="&#xd7;" horiz-adv-x="510" 
d="M255 357l139 137l84 -84l-139 -138l139 -138l-84 -84l-139 138l-139 -139l-84 84l139 139l-139 138l84 84z" />
    <glyph glyph-name="Oslash" unicode="&#xd8;" horiz-adv-x="638" 
d="M319 687c47 0 88 -7 123 -20l47 94l68 -34l-49 -97c43 -37 64 -89 64 -154v-276c0 -73 -24 -127 -72 -161c-47 -33 -108 -50 -181 -50c-44 0 -85 6 -122 18l-48 -97l-68 34l50 100c-43 37 -65 89 -65 156v276c0 73 24 127 72 160c48 34 108 51 181 51zM319 566
c-83 0 -121 -33 -121 -132v-190c0 -19 2 -37 5 -55l182 365c-18 8 -40 12 -66 12zM440 244v190c0 17 -2 33 -5 50l-181 -362c17 -7 38 -11 65 -11c83 0 121 34 121 133z" />
    <glyph glyph-name="Ugrave" unicode="&#xd9;" horiz-adv-x="638" 
d="M66 201v475h132v-447c0 -47 11 -80 34 -97s52 -25 87 -25s64 8 87 25s34 50 34 97v447h132v-475c0 -70 -24 -123 -73 -159c-48 -35 -108 -53 -180 -53s-132 18 -181 53c-48 36 -72 89 -72 159zM432 740h-117l-108 150h147z" />
    <glyph glyph-name="Uacute" unicode="&#xda;" horiz-adv-x="638" 
d="M66 201v475h132v-447c0 -47 11 -80 34 -97s52 -25 87 -25s64 8 87 25s34 50 34 97v447h132v-475c0 -70 -24 -123 -73 -159c-48 -35 -108 -53 -180 -53s-132 18 -181 53c-48 36 -72 89 -72 159zM324 740h-117l78 150h147z" />
    <glyph glyph-name="Ucircumflex" unicode="&#xdb;" horiz-adv-x="638" 
d="M66 201v475h132v-447c0 -47 11 -80 34 -97s52 -25 87 -25s64 8 87 25s34 50 34 97v447h132v-475c0 -70 -24 -123 -73 -159c-48 -35 -108 -53 -180 -53s-132 18 -181 53c-48 36 -72 89 -72 159zM259 740h-99l103 150h112l103 -150h-99l-60 78z" />
    <glyph glyph-name="Udieresis" unicode="&#xdc;" horiz-adv-x="638" 
d="M66 201v475h132v-447c0 -47 11 -80 34 -97s52 -25 87 -25s64 8 87 25s34 50 34 97v447h132v-475c0 -70 -24 -123 -73 -159c-48 -35 -108 -53 -180 -53s-132 18 -181 53c-48 36 -72 89 -72 159zM288 749h-131v134h131v-134zM481 749h-131v134h131v-134z" />
    <glyph glyph-name="Yacute" unicode="&#xdd;" horiz-adv-x="586" 
d="M298 402l131 274h149l-219 -417v-259h-132v259l-219 417h149l131 -274h10zM298 740h-117l78 150h147z" />
    <glyph glyph-name="Thorn" unicode="&#xde;" horiz-adv-x="552" 
d="M530 425v-107c0 -42 -14 -78 -41 -107s-62 -44 -103 -44h-188v-167h-132v676h132v-101h188c41 0 76 -15 103 -44s41 -64 41 -106zM398 364v22c0 51 -15 71 -75 71h-125v-171h125c59 0 75 26 75 78z" />
    <glyph glyph-name="germandbls" unicode="&#xdf;" horiz-adv-x="655" 
d="M434 375c-46 0 -69 -12 -69 -36v-9c0 -19 14 -30 42 -33l90 -11c64 -8 111 -57 111 -124v-37c0 -100 -65 -136 -188 -136c-20 0 -45 1 -74 3c-29 1 -54 3 -73 5l-29 3v114c57 -9 108 -14 153 -14c32 0 42 0 59 4c19 5 25 16 25 35v9c0 19 -12 30 -35 33l-93 11
c-61 7 -111 56 -111 124v38c0 87 60 131 181 131h24v9c0 59 -56 84 -124 84c-91 0 -137 -46 -137 -137v-441h-123v476c0 159 127 211 256 211s256 -52 256 -211v-111c-66 7 -113 10 -141 10z" />
    <glyph glyph-name="agrave" unicode="&#xe0;" horiz-adv-x="497" 
d="M314 140v71l-103 -7c-31 -3 -46 -16 -46 -40v-12c0 -26 13 -39 40 -39c12 0 28 3 49 9zM314 0v71l-95 -78c-8 -3 -17 -4 -28 -4c-92 0 -151 53 -151 128v39c0 79 49 134 166 141l108 6v21c0 30 -25 45 -75 45l-160 -9v115c97 7 156 10 178 10c120 0 189 -40 189 -160
v-325h-132zM361 538h-117l-108 150h147z" />
    <glyph glyph-name="aacute" unicode="&#xe1;" horiz-adv-x="497" 
d="M314 140v71l-103 -7c-31 -3 -46 -16 -46 -40v-12c0 -26 13 -39 40 -39c12 0 28 3 49 9zM314 0v71l-95 -78c-8 -3 -17 -4 -28 -4c-92 0 -151 53 -151 128v39c0 79 49 134 166 141l108 6v21c0 30 -25 45 -75 45l-160 -9v115c97 7 156 10 178 10c120 0 189 -40 189 -160
v-325h-132zM253 538h-117l78 150h147z" />
    <glyph glyph-name="acircumflex" unicode="&#xe2;" horiz-adv-x="497" 
d="M314 140v71l-103 -7c-31 -3 -46 -16 -46 -40v-12c0 -26 13 -39 40 -39c12 0 28 3 49 9zM314 0v71l-95 -78c-8 -3 -17 -4 -28 -4c-92 0 -151 53 -151 128v39c0 79 49 134 166 141l108 6v21c0 30 -25 45 -75 45l-160 -9v115c97 7 156 10 178 10c120 0 189 -40 189 -160
v-325h-132zM188 538h-99l103 150h112l103 -150h-99l-60 78z" />
    <glyph glyph-name="atilde" unicode="&#xe3;" horiz-adv-x="497" 
d="M314 140v71l-103 -7c-31 -3 -46 -16 -46 -40v-12c0 -26 13 -39 40 -39c12 0 28 3 49 9zM314 0v71l-95 -78c-8 -3 -17 -4 -28 -4c-92 0 -151 53 -151 128v39c0 79 49 134 166 141l108 6v21c0 30 -25 45 -75 45l-160 -9v115c97 7 156 10 178 10c120 0 189 -40 189 -160
v-325h-132zM250 564l-37 21c-7 2 -15 3 -24 3c-27 0 -41 -13 -42 -40h-96c4 83 52 134 120 134c27 0 53 -7 76 -20l37 -21c9 -2 17 -3 24 -3c27 0 41 13 42 40h96c-4 -83 -52 -134 -120 -134c-29 0 -54 7 -76 20z" />
    <glyph glyph-name="adieresis" unicode="&#xe4;" horiz-adv-x="497" 
d="M314 140v71l-103 -7c-31 -3 -46 -16 -46 -40v-12c0 -26 13 -39 40 -39c12 0 28 3 49 9zM314 0v71l-95 -78c-8 -3 -17 -4 -28 -4c-92 0 -151 53 -151 128v39c0 79 49 134 166 141l108 6v21c0 30 -25 45 -75 45l-160 -9v115c97 7 156 10 178 10c120 0 189 -40 189 -160
v-325h-132zM217 547h-131v134h131v-134zM410 547h-131v134h131v-134z" />
    <glyph glyph-name="aring" unicode="&#xe5;" horiz-adv-x="497" 
d="M314 140v71l-103 -7c-31 -3 -46 -16 -46 -40v-12c0 -26 13 -39 40 -39c12 0 28 3 49 9zM314 0v71l-95 -78c-8 -3 -17 -4 -28 -4c-92 0 -151 53 -151 128v39c0 79 49 134 166 141l108 6v21c0 30 -25 45 -75 45l-160 -9v115c97 7 156 10 178 10c120 0 189 -40 189 -160
v-325h-132zM120 631c0 71 47 121 112 121h33c64 0 111 -52 111 -121c0 -72 -47 -121 -111 -121h-33c-65 0 -112 49 -112 121zM236 593h24c13 0 31 11 31 38s-18 38 -31 38h-24c-15 0 -31 -11 -31 -38s16 -38 31 -38z" />
    <glyph glyph-name="ae" unicode="&#xe6;" horiz-adv-x="768" 
d="M535 485c136 0 204 -56 204 -167v-122h-287v-17c0 -67 32 -85 111 -85c57 0 111 4 160 12v-106c-51 -7 -107 -11 -167 -11c-115 0 -188 32 -219 96l-118 -92c-8 -3 -17 -4 -28 -4c-92 0 -151 53 -151 128v39c0 86 55 133 166 141l114 8v18c0 28 -33 46 -81 46l-160 -9
v115c97 7 156 10 179 10c57 0 101 -10 134 -31c37 21 84 31 143 31zM452 288h156v24c0 45 -16 68 -73 68c-55 0 -83 -21 -83 -63v-29zM320 140v71l-109 -7c-31 -3 -46 -16 -46 -40v-12c0 -26 13 -39 40 -39c12 0 28 3 49 9z" />
    <glyph glyph-name="ccedilla" unicode="&#xe7;" horiz-adv-x="418" 
d="M107 -219v73c29 -7 53 -10 70 -10c21 0 31 7 31 22v10c0 15 -9 21 -27 19l-40 34l48 65c-92 15 -138 69 -138 161v158c0 115 65 172 195 172l138 -10v-105c-51 7 -90 10 -118 10c-55 0 -83 -19 -83 -88v-116c0 -36 6 -59 17 -68c12 -9 35 -14 70 -14c25 0 73 5 102 8
l21 3v-103c-38 -7 -82 -12 -131 -13l-30 -40c48 3 79 -23 79 -66v-29c0 -57 -54 -84 -111 -84c-20 0 -57 5 -78 8z" />
    <glyph glyph-name="egrave" unicode="&#xe8;" horiz-adv-x="491" 
d="M258 485c136 0 204 -56 204 -167v-127h-278v-12c0 -68 25 -85 102 -85c57 0 111 4 160 12v-106c-51 -7 -107 -11 -167 -11c-151 0 -227 60 -227 180v149c0 111 69 167 206 167zM184 283h147v29c0 45 -16 68 -73 68c-52 0 -74 -18 -74 -70v-27zM358 538h-117l-108 150h147
z" />
    <glyph glyph-name="eacute" unicode="&#xe9;" horiz-adv-x="491" 
d="M258 485c136 0 204 -56 204 -167v-127h-278v-12c0 -68 25 -85 102 -85c57 0 111 4 160 12v-106c-51 -7 -107 -11 -167 -11c-151 0 -227 60 -227 180v149c0 111 69 167 206 167zM184 283h147v29c0 45 -16 68 -73 68c-52 0 -74 -18 -74 -70v-27zM250 538h-117l78 150h147z
" />
    <glyph glyph-name="ecircumflex" unicode="&#xea;" horiz-adv-x="491" 
d="M258 485c136 0 204 -56 204 -167v-127h-278v-12c0 -68 25 -85 102 -85c57 0 111 4 160 12v-106c-51 -7 -107 -11 -167 -11c-151 0 -227 60 -227 180v149c0 111 69 167 206 167zM184 283h147v29c0 45 -16 68 -73 68c-52 0 -74 -18 -74 -70v-27zM185 538h-99l103 150h112
l103 -150h-99l-60 78z" />
    <glyph glyph-name="edieresis" unicode="&#xeb;" horiz-adv-x="491" 
d="M258 485c136 0 204 -56 204 -167v-127h-278v-12c0 -68 25 -85 102 -85c57 0 111 4 160 12v-106c-51 -7 -107 -11 -167 -11c-151 0 -227 60 -227 180v149c0 111 69 167 206 167zM184 283h147v29c0 45 -16 68 -73 68c-52 0 -74 -18 -74 -70v-27zM214 547h-131v134h131v-134
zM407 547h-131v134h131v-134z" />
    <glyph glyph-name="igrave" unicode="&#xec;" horiz-adv-x="258" 
d="M195 0h-132v474h132v-474zM242 538h-117l-108 150h147z" />
    <glyph glyph-name="iacute" unicode="&#xed;" horiz-adv-x="258" 
d="M195 0h-132v474h132v-474zM134 538h-117l78 150h147z" />
    <glyph glyph-name="icircumflex" unicode="&#xee;" horiz-adv-x="258" 
d="M195 0h-132v474h132v-474zM69 538h-99l103 150h112l103 -150h-99l-60 78z" />
    <glyph glyph-name="idieresis" unicode="&#xef;" horiz-adv-x="258" 
d="M195 0h-132v474h132v-474zM98 547h-131v134h131v-134zM291 547h-131v134h131v-134z" />
    <glyph glyph-name="eth" unicode="&#xf0;" horiz-adv-x="528" 
d="M476 319v-163c0 -128 -110 -167 -212 -167s-212 39 -212 167v142c0 103 69 167 212 167c23 0 43 -2 62 -6c-12 23 -29 45 -52 67l-113 -48l-30 70l77 33c-8 6 -30 22 -65 47l64 83c43 -27 80 -55 113 -82l104 45l32 -70l-76 -32c64 -73 96 -157 96 -253zM184 275v-95
c0 -63 24 -89 80 -89s80 26 80 89v95c0 61 -24 88 -80 88s-80 -27 -80 -88z" />
    <glyph glyph-name="ntilde" unicode="&#xf1;" horiz-adv-x="514" 
d="M463 0h-132v288c0 45 -22 65 -67 58l-81 -13v-333h-132v474h132v-71l94 78c8 3 17 4 28 4c104 0 158 -60 158 -152v-333zM259 564l-37 21c-7 2 -15 3 -24 3c-27 0 -41 -13 -42 -40h-96c4 83 52 134 120 134c27 0 53 -7 76 -20l37 -21c9 -2 17 -3 24 -3c27 0 41 13 42 40
h96c-4 -83 -52 -134 -120 -134c-29 0 -54 7 -76 20z" />
    <glyph glyph-name="ograve" unicode="&#xf2;" horiz-adv-x="528" 
d="M476 313v-157c0 -128 -110 -167 -212 -167s-212 39 -212 167v157c0 104 69 172 212 172s212 -68 212 -172zM184 295v-115c0 -63 24 -89 80 -89s80 26 80 89v115c0 61 -24 88 -80 88s-80 -27 -80 -88zM377 538h-117l-108 150h147z" />
    <glyph glyph-name="oacute" unicode="&#xf3;" horiz-adv-x="528" 
d="M476 313v-157c0 -128 -110 -167 -212 -167s-212 39 -212 167v157c0 104 69 172 212 172s212 -68 212 -172zM184 295v-115c0 -63 24 -89 80 -89s80 26 80 89v115c0 61 -24 88 -80 88s-80 -27 -80 -88zM269 538h-117l78 150h147z" />
    <glyph glyph-name="ocircumflex" unicode="&#xf4;" horiz-adv-x="528" 
d="M476 313v-157c0 -128 -110 -167 -212 -167s-212 39 -212 167v157c0 104 69 172 212 172s212 -68 212 -172zM184 295v-115c0 -63 24 -89 80 -89s80 26 80 89v115c0 61 -24 88 -80 88s-80 -27 -80 -88zM204 538h-99l103 150h112l103 -150h-99l-60 78z" />
    <glyph glyph-name="otilde" unicode="&#xf5;" horiz-adv-x="528" 
d="M476 313v-157c0 -128 -110 -167 -212 -167s-212 39 -212 167v157c0 104 69 172 212 172s212 -68 212 -172zM184 295v-115c0 -63 24 -89 80 -89s80 26 80 89v115c0 61 -24 88 -80 88s-80 -27 -80 -88zM266 564l-37 21c-7 2 -15 3 -24 3c-27 0 -41 -13 -42 -40h-96
c4 83 52 134 120 134c27 0 53 -7 76 -20l37 -21c9 -2 17 -3 24 -3c27 0 41 13 42 40h96c-4 -83 -52 -134 -120 -134c-29 0 -54 7 -76 20z" />
    <glyph glyph-name="odieresis" unicode="&#xf6;" horiz-adv-x="528" 
d="M476 313v-157c0 -128 -110 -167 -212 -167s-212 39 -212 167v157c0 104 69 172 212 172s212 -68 212 -172zM184 295v-115c0 -63 24 -89 80 -89s80 26 80 89v115c0 61 -24 88 -80 88s-80 -27 -80 -88zM233 547h-131v134h131v-134zM426 547h-131v134h131v-134z" />
    <glyph glyph-name="divide" unicode="&#xf7;" horiz-adv-x="510" 
d="M318 379h-126v110h126v-110zM468 216h-426v117h426v-117zM318 55h-126v110h126v-110z" />
    <glyph glyph-name="oslash" unicode="&#xf8;" horiz-adv-x="528" 
d="M264 485c31 0 57 -3 80 -9l39 79l68 -34l-38 -76c42 -30 63 -74 63 -132v-157c0 -128 -110 -167 -212 -167c-24 0 -49 3 -76 8l-43 -87l-68 34l41 81c-44 29 -66 73 -66 131v157c0 104 69 172 212 172zM264 383c-56 0 -80 -27 -80 -88v-115c0 -10 0 -17 1 -21l110 220
c-8 3 -18 4 -31 4zM344 180v127l-107 -214c11 -1 20 -2 27 -2c56 0 80 26 80 89z" />
    <glyph glyph-name="ugrave" unicode="&#xf9;" horiz-adv-x="514" 
d="M51 474h132v-288c0 -45 22 -65 67 -58l81 13v333h132v-474h-132v71l-94 -78c-8 -3 -17 -4 -28 -4c-104 0 -158 60 -158 152v333zM370 538h-117l-108 150h147z" />
    <glyph glyph-name="uacute" unicode="&#xfa;" horiz-adv-x="514" 
d="M51 474h132v-288c0 -45 22 -65 67 -58l81 13v333h132v-474h-132v71l-94 -78c-8 -3 -17 -4 -28 -4c-104 0 -158 60 -158 152v333zM262 538h-117l78 150h147z" />
    <glyph glyph-name="ucircumflex" unicode="&#xfb;" horiz-adv-x="514" 
d="M51 474h132v-288c0 -45 22 -65 67 -58l81 13v333h132v-474h-132v71l-94 -78c-8 -3 -17 -4 -28 -4c-104 0 -158 60 -158 152v333zM197 538h-99l103 150h112l103 -150h-99l-60 78z" />
    <glyph glyph-name="udieresis" unicode="&#xfc;" horiz-adv-x="514" 
d="M51 474h132v-288c0 -45 22 -65 67 -58l81 13v333h132v-474h-132v71l-94 -78c-8 -3 -17 -4 -28 -4c-104 0 -158 60 -158 152v333zM226 547h-131v134h131v-134zM419 547h-131v134h131v-134z" />
    <glyph glyph-name="yacute" unicode="&#xfd;" horiz-adv-x="472" 
d="M251 -212h-119l70 212h-49l-152 474h134l96 -329h10l96 329h134zM241 538h-117l78 150h147z" />
    <glyph glyph-name="thorn" unicode="&#xfe;" horiz-adv-x="514" 
d="M51 -212v888h132v-273l94 78c8 3 17 4 28 4c104 0 158 -60 158 -152v-182c0 -57 -19 -98 -56 -124c-37 -25 -83 -38 -140 -38c-36 0 -64 4 -84 11v-212h-132zM183 333v-169c0 -46 25 -69 74 -69s74 23 74 69v124c0 45 -22 65 -67 58z" />
    <glyph glyph-name="ydieresis" unicode="&#xff;" horiz-adv-x="472" 
d="M251 -212h-119l70 212h-49l-152 474h134l96 -329h10l96 329h134zM205 547h-131v134h131v-134zM398 547h-131v134h131v-134z" />
    <glyph glyph-name="Amacron" unicode="&#x100;" horiz-adv-x="666" 
d="M518 0l-56 172h-258l-56 -172h-140l233 676h184l233 -676h-140zM328 555l-84 -258h177l-83 258h-10zM200 758v114h266v-114h-266z" />
    <glyph glyph-name="amacron" unicode="&#x101;" horiz-adv-x="497" 
d="M314 140v71l-103 -7c-31 -3 -46 -16 -46 -40v-12c0 -26 13 -39 40 -39c12 0 28 3 49 9zM314 0v71l-95 -78c-8 -3 -17 -4 -28 -4c-92 0 -151 53 -151 128v39c0 79 49 134 166 141l108 6v21c0 30 -25 45 -75 45l-160 -9v115c97 7 156 10 178 10c120 0 189 -40 189 -160
v-325h-132zM115 556v114h266v-114h-266z" />
    <glyph glyph-name="Abreve" unicode="&#x102;" horiz-adv-x="666" 
d="M518 0l-56 172h-258l-56 -172h-140l233 676h184l233 -676h-140zM328 555l-84 -258h177l-83 258h-10zM360 725h-54c-38 0 -70 14 -95 42s-35 68 -30 121h94c0 -53 24 -75 56 -75h4c31 0 56 24 56 75h94c5 -53 -5 -93 -30 -121s-57 -42 -95 -42z" />
    <glyph glyph-name="abreve" unicode="&#x103;" horiz-adv-x="497" 
d="M314 140v71l-103 -7c-31 -3 -46 -16 -46 -40v-12c0 -26 13 -39 40 -39c12 0 28 3 49 9zM314 0v71l-95 -78c-8 -3 -17 -4 -28 -4c-92 0 -151 53 -151 128v39c0 79 49 134 166 141l108 6v21c0 30 -25 45 -75 45l-160 -9v115c97 7 156 10 178 10c120 0 189 -40 189 -160
v-325h-132zM275 523h-54c-38 0 -70 14 -95 42s-35 68 -30 121h94c0 -53 24 -75 56 -75h4c31 0 56 24 56 75h94c5 -53 -5 -93 -30 -121s-57 -42 -95 -42z" />
    <glyph glyph-name="Aogonek" unicode="&#x104;" horiz-adv-x="666" 
d="M518 0l-56 172h-258l-56 -172h-140l233 676h184l233 -676c-77 -24 -115 -62 -115 -114v-8c0 -15 14 -26 31 -26l62 9v-80c-31 -7 -59 -11 -84 -11c-85 0 -128 29 -128 88v22c0 45 31 85 94 120zM328 555l-84 -258h177l-83 258h-10z" />
    <glyph glyph-name="aogonek" unicode="&#x105;" horiz-adv-x="497" 
d="M314 0v71l-95 -78c-8 -3 -17 -4 -28 -4c-92 0 -151 53 -151 128v39c0 79 49 134 166 141l108 6v21c0 30 -25 45 -75 45l-160 -9v115c97 7 156 10 178 10c120 0 189 -40 189 -160v-325c-35 -23 -59 -41 -70 -56s-16 -32 -16 -51v-10c0 -21 11 -31 34 -31l59 9v-80
c-31 -7 -59 -11 -84 -11c-85 0 -128 30 -128 89v21c0 48 21 77 73 120zM314 140v71l-103 -7c-31 -3 -46 -16 -46 -40v-12c0 -26 13 -39 40 -39c12 0 28 3 49 9z" />
    <glyph glyph-name="Cacute" unicode="&#x106;" horiz-adv-x="539" 
d="M504 120v-120c-90 -7 -150 -11 -180 -11c-172 0 -258 70 -258 211v276c0 141 86 211 258 211c29 0 88 -4 178 -11v-121c-70 8 -127 12 -172 12c-55 0 -91 -11 -108 -34c-16 -22 -24 -63 -24 -124v-141c0 -65 2 -91 19 -122c17 -29 52 -38 113 -38c20 0 44 1 73 3
s54 4 73 6zM284 740h-117l78 150h147z" />
    <glyph glyph-name="cacute" unicode="&#x107;" horiz-adv-x="418" 
d="M393 2c-42 -9 -90 -13 -143 -13c-133 0 -199 55 -199 166v158c0 115 65 172 195 172l138 -10v-105c-51 7 -90 10 -118 10c-55 0 -83 -19 -83 -88v-116c0 -36 6 -59 17 -68c12 -9 35 -14 70 -14c25 0 73 5 102 8l21 3v-103zM214 538h-117l78 150h147z" />
    <glyph glyph-name="Ccircumflex" unicode="&#x108;" horiz-adv-x="539" 
d="M504 120v-120c-90 -7 -150 -11 -180 -11c-172 0 -258 70 -258 211v276c0 141 86 211 258 211c29 0 88 -4 178 -11v-121c-70 8 -127 12 -172 12c-55 0 -91 -11 -108 -34c-16 -22 -24 -63 -24 -124v-141c0 -65 2 -91 19 -122c17 -29 52 -38 113 -38c20 0 44 1 73 3
s54 4 73 6zM219 740h-99l103 150h112l103 -150h-99l-60 78z" />
    <glyph glyph-name="ccircumflex" unicode="&#x109;" horiz-adv-x="418" 
d="M393 2c-42 -9 -90 -13 -143 -13c-133 0 -199 55 -199 166v158c0 115 65 172 195 172l138 -10v-105c-51 7 -90 10 -118 10c-55 0 -83 -19 -83 -88v-116c0 -36 6 -59 17 -68c12 -9 35 -14 70 -14c25 0 73 5 102 8l21 3v-103zM149 538h-99l103 150h112l103 -150h-99l-60 78z
" />
    <glyph glyph-name="Cdotaccent" unicode="&#x10a;" horiz-adv-x="539" 
d="M504 120v-120c-90 -7 -150 -11 -180 -11c-172 0 -258 70 -258 211v276c0 141 86 211 258 211c29 0 88 -4 178 -11v-121c-70 8 -127 12 -172 12c-55 0 -91 -11 -108 -34c-16 -22 -24 -63 -24 -124v-141c0 -65 2 -91 19 -122c17 -29 52 -38 113 -38c20 0 44 1 73 3
s54 4 73 6zM344 754h-130v128h130v-128z" />
    <glyph glyph-name="cdotaccent" unicode="&#x10b;" horiz-adv-x="418" 
d="M393 2c-42 -9 -90 -13 -143 -13c-133 0 -199 55 -199 166v158c0 115 65 172 195 172l138 -10v-105c-51 7 -90 10 -118 10c-55 0 -83 -19 -83 -88v-116c0 -36 6 -59 17 -68c12 -9 35 -14 70 -14c25 0 73 5 102 8l21 3v-103zM274 552h-130v128h130v-128z" />
    <glyph glyph-name="Ccaron" unicode="&#x10c;" horiz-adv-x="539" 
d="M504 120v-120c-90 -7 -150 -11 -180 -11c-172 0 -258 70 -258 211v276c0 141 86 211 258 211c29 0 88 -4 178 -11v-121c-70 8 -127 12 -172 12c-55 0 -91 -11 -108 -34c-16 -22 -24 -63 -24 -124v-141c0 -65 2 -91 19 -122c17 -29 52 -38 113 -38c20 0 44 1 73 3
s54 4 73 6zM118 890h111l50 -78l50 78h111l-103 -150h-116z" />
    <glyph glyph-name="ccaron" unicode="&#x10d;" horiz-adv-x="418" 
d="M393 2c-42 -9 -90 -13 -143 -13c-133 0 -199 55 -199 166v158c0 115 65 172 195 172l138 -10v-105c-51 7 -90 10 -118 10c-55 0 -83 -19 -83 -88v-116c0 -36 6 -59 17 -68c12 -9 35 -14 70 -14c25 0 73 5 102 8l21 3v-103zM48 688h111l50 -78l50 78h111l-103 -150h-116z
" />
    <glyph glyph-name="Dcaron" unicode="&#x10e;" horiz-adv-x="609" 
d="M550 526v-376c0 -43 -14 -78 -42 -107s-65 -43 -110 -43h-332v676h330c45 0 82 -14 111 -43s43 -64 43 -107zM419 201v275c0 63 -21 82 -85 82h-136v-439h136c64 0 85 19 85 82zM143 890h111l50 -78l50 78h111l-103 -150h-116z" />
    <glyph glyph-name="dcaron" unicode="&#x10f;" horiz-adv-x="514" 
d="M463 0h-132v71l-94 -78c-8 -3 -17 -4 -28 -4c-104 0 -158 60 -158 152v177c0 107 53 167 194 167c37 0 65 -5 86 -15v240h132v-710zM331 141v219c-19 13 -44 19 -75 19c-49 0 -73 -23 -73 -69v-124c0 -45 22 -65 67 -58zM484 533l24 161h125l-55 -161h-94z" />
    <glyph glyph-name="Dcroat" unicode="&#x110;" horiz-adv-x="609" 
d="M0 291v93h66v292h330c45 0 82 -14 111 -43s43 -64 43 -107v-376c0 -43 -14 -78 -42 -107s-65 -43 -110 -43h-332v291h-66zM419 201v275c0 63 -21 82 -85 82h-136v-174h147v-93h-147v-172h136c64 0 85 19 85 82z" />
    <glyph glyph-name="dslash" unicode="&#x111;" horiz-adv-x="514" 
d="M463 0h-132v71l-94 -78c-8 -3 -17 -4 -28 -4c-104 0 -158 60 -158 152v177c0 107 53 167 194 167c37 0 65 -5 86 -15v85h-114v82h114v73h132v-73h81v-82h-81v-555zM331 141v219c-19 13 -44 19 -75 19c-49 0 -73 -23 -73 -69v-124c0 -45 22 -65 67 -58z" />
    <glyph glyph-name="Emacron" unicode="&#x112;" horiz-adv-x="519" 
d="M491 0h-425v676h417v-118h-285v-161h238v-119h-238v-159h293v-119zM126 758v114h266v-114h-266z" />
    <glyph glyph-name="emacron" unicode="&#x113;" horiz-adv-x="491" 
d="M258 485c136 0 204 -56 204 -167v-127h-278v-12c0 -68 25 -85 102 -85c57 0 111 4 160 12v-106c-51 -7 -107 -11 -167 -11c-151 0 -227 60 -227 180v149c0 111 69 167 206 167zM184 283h147v29c0 45 -16 68 -73 68c-52 0 -74 -18 -74 -70v-27zM112 556v114h266v-114h-266
z" />
    <glyph glyph-name="Ebreve" unicode="&#x114;" horiz-adv-x="519" 
d="M491 0h-425v676h417v-118h-285v-161h238v-119h-238v-159h293v-119zM286 725h-54c-38 0 -70 14 -95 42s-35 68 -30 121h94c0 -53 24 -75 56 -75h4c31 0 56 24 56 75h94c5 -53 -5 -93 -30 -121s-57 -42 -95 -42z" />
    <glyph glyph-name="ebreve" unicode="&#x115;" horiz-adv-x="491" 
d="M258 485c136 0 204 -56 204 -167v-127h-278v-12c0 -68 25 -85 102 -85c57 0 111 4 160 12v-106c-51 -7 -107 -11 -167 -11c-151 0 -227 60 -227 180v149c0 111 69 167 206 167zM184 283h147v29c0 45 -16 68 -73 68c-52 0 -74 -18 -74 -70v-27zM272 523h-54
c-38 0 -70 14 -95 42s-35 68 -30 121h94c0 -53 24 -75 56 -75h4c31 0 56 24 56 75h94c5 -53 -5 -93 -30 -121s-57 -42 -95 -42z" />
    <glyph glyph-name="Edotaccent" unicode="&#x116;" horiz-adv-x="519" 
d="M491 0h-425v676h417v-118h-285v-161h238v-119h-238v-159h293v-119zM324 754h-130v128h130v-128z" />
    <glyph glyph-name="edotaccent" unicode="&#x117;" horiz-adv-x="491" 
d="M258 485c136 0 204 -56 204 -167v-127h-278v-12c0 -68 25 -85 102 -85c57 0 111 4 160 12v-106c-51 -7 -107 -11 -167 -11c-151 0 -227 60 -227 180v149c0 111 69 167 206 167zM184 283h147v29c0 45 -16 68 -73 68c-52 0 -74 -18 -74 -70v-27zM310 552h-130v128h130v-128
z" />
    <glyph glyph-name="Eogonek" unicode="&#x118;" horiz-adv-x="519" 
d="M491 119v-119c-75 -39 -91 -70 -91 -114v-8c0 -15 14 -26 31 -26l62 9v-80c-31 -7 -59 -11 -84 -11c-85 0 -128 30 -128 89v23c0 49 34 88 103 118h-318v676h417v-118h-285v-161h238v-119h-238v-159h293z" />
    <glyph glyph-name="eogonek" unicode="&#x119;" horiz-adv-x="491" 
d="M258 485c136 0 204 -56 204 -167v-127h-278v-12c0 -68 25 -85 102 -85c57 0 111 4 160 12v-106c-72 -41 -95 -72 -95 -107v-10c0 -21 11 -31 34 -31l59 9v-80c-31 -7 -59 -11 -84 -11c-85 0 -128 30 -128 89v18c0 44 39 86 96 113c-12 0 -40 -1 -49 -1
c-151 0 -227 60 -227 180v149c0 111 69 167 206 167zM184 283h147v29c0 45 -16 68 -73 68c-52 0 -74 -18 -74 -70v-27z" />
    <glyph glyph-name="Ecaron" unicode="&#x11a;" horiz-adv-x="519" 
d="M491 0h-425v676h417v-118h-285v-161h238v-119h-238v-159h293v-119zM98 890h111l50 -78l50 78h111l-103 -150h-116z" />
    <glyph glyph-name="ecaron" unicode="&#x11b;" horiz-adv-x="491" 
d="M258 485c136 0 204 -56 204 -167v-127h-278v-12c0 -68 25 -85 102 -85c57 0 111 4 160 12v-106c-51 -7 -107 -11 -167 -11c-151 0 -227 60 -227 180v149c0 111 69 167 206 167zM184 283h147v29c0 45 -16 68 -73 68c-52 0 -74 -18 -74 -70v-27zM84 688h111l50 -78l50 78
h111l-103 -150h-116z" />
    <glyph glyph-name="Gcircumflex" unicode="&#x11c;" horiz-adv-x="620" 
d="M559 4c-120 -10 -198 -15 -235 -15c-172 0 -258 70 -258 211v276c0 141 86 211 258 211c29 0 88 -4 178 -11v-121c-70 8 -127 12 -172 12c-55 0 -91 -11 -108 -34c-16 -22 -24 -63 -24 -124v-141c0 -65 2 -91 19 -122c17 -29 52 -38 113 -38c22 0 54 1 97 4v164h-126v119
h258v-391zM250 740h-99l103 150h112l103 -150h-99l-60 78z" />
    <glyph glyph-name="gcircumflex" unicode="&#x11d;" horiz-adv-x="552" 
d="M386 -77v11c-6 28 -19 32 -62 37c-3 1 -6 1 -7 1l-106 14c-27 -7 -42 -26 -42 -46v-13c0 -31 39 -54 104 -54c61 0 113 19 113 50zM254 397c-59 0 -75 -22 -75 -74v-16c0 -49 18 -72 75 -72s75 23 75 72v16c0 51 -18 74 -75 74zM134 150c-52 20 -86 77 -86 156v12
c0 104 63 167 206 167c33 0 63 -4 88 -11h192v-95h-10l-90 19c17 -17 26 -44 26 -80v-12c0 -119 -79 -172 -191 -172c-17 0 -30 1 -41 2l-4 -7c-3 -7 -5 -13 -5 -18c0 -12 14 -20 43 -25l119 -16c87 -12 134 -61 134 -121v-28c0 -46 -25 -82 -74 -107
c-49 -26 -105 -39 -169 -39c-67 0 -122 12 -165 36s-64 59 -64 106v8c0 45 33 89 94 110c-22 10 -33 26 -33 48v21c0 9 3 17 8 22zM216 538h-99l103 150h112l103 -150h-99l-60 78z" />
    <glyph glyph-name="Gbreve" unicode="&#x11e;" horiz-adv-x="620" 
d="M559 4c-120 -10 -198 -15 -235 -15c-172 0 -258 70 -258 211v276c0 141 86 211 258 211c29 0 88 -4 178 -11v-121c-70 8 -127 12 -172 12c-55 0 -91 -11 -108 -34c-16 -22 -24 -63 -24 -124v-141c0 -65 2 -91 19 -122c17 -29 52 -38 113 -38c22 0 54 1 97 4v164h-126v119
h258v-391zM337 725h-54c-38 0 -70 14 -95 42s-35 68 -30 121h94c0 -53 24 -75 56 -75h4c31 0 56 24 56 75h94c5 -53 -5 -93 -30 -121s-57 -42 -95 -42z" />
    <glyph glyph-name="gbreve" unicode="&#x11f;" horiz-adv-x="552" 
d="M386 -77v11c-6 28 -19 32 -62 37c-3 1 -6 1 -7 1l-106 14c-27 -7 -42 -26 -42 -46v-13c0 -31 39 -54 104 -54c61 0 113 19 113 50zM254 397c-59 0 -75 -22 -75 -74v-16c0 -49 18 -72 75 -72s75 23 75 72v16c0 51 -18 74 -75 74zM134 150c-52 20 -86 77 -86 156v12
c0 104 63 167 206 167c33 0 63 -4 88 -11h192v-95h-10l-90 19c17 -17 26 -44 26 -80v-12c0 -119 -79 -172 -191 -172c-17 0 -30 1 -41 2l-4 -7c-3 -7 -5 -13 -5 -18c0 -12 14 -20 43 -25l119 -16c87 -12 134 -61 134 -121v-28c0 -46 -25 -82 -74 -107
c-49 -26 -105 -39 -169 -39c-67 0 -122 12 -165 36s-64 59 -64 106v8c0 45 33 89 94 110c-22 10 -33 26 -33 48v21c0 9 3 17 8 22zM303 523h-54c-38 0 -70 14 -95 42s-35 68 -30 121h94c0 -53 24 -75 56 -75h4c31 0 56 24 56 75h94c5 -53 -5 -93 -30 -121s-57 -42 -95 -42z
" />
    <glyph glyph-name="Gdotaccent" unicode="&#x120;" horiz-adv-x="620" 
d="M559 4c-120 -10 -198 -15 -235 -15c-172 0 -258 70 -258 211v276c0 141 86 211 258 211c29 0 88 -4 178 -11v-121c-70 8 -127 12 -172 12c-55 0 -91 -11 -108 -34c-16 -22 -24 -63 -24 -124v-141c0 -65 2 -91 19 -122c17 -29 52 -38 113 -38c22 0 54 1 97 4v164h-126v119
h258v-391zM375 754h-130v128h130v-128z" />
    <glyph glyph-name="gdotaccent" unicode="&#x121;" horiz-adv-x="552" 
d="M386 -77v11c-6 28 -19 32 -62 37c-3 1 -6 1 -7 1l-106 14c-27 -7 -42 -26 -42 -46v-13c0 -31 39 -54 104 -54c61 0 113 19 113 50zM254 397c-59 0 -75 -22 -75 -74v-16c0 -49 18 -72 75 -72s75 23 75 72v16c0 51 -18 74 -75 74zM134 150c-52 20 -86 77 -86 156v12
c0 104 63 167 206 167c33 0 63 -4 88 -11h192v-95h-10l-90 19c17 -17 26 -44 26 -80v-12c0 -119 -79 -172 -191 -172c-17 0 -30 1 -41 2l-4 -7c-3 -7 -5 -13 -5 -18c0 -12 14 -20 43 -25l119 -16c87 -12 134 -61 134 -121v-28c0 -46 -25 -82 -74 -107
c-49 -26 -105 -39 -169 -39c-67 0 -122 12 -165 36s-64 59 -64 106v8c0 45 33 89 94 110c-22 10 -33 26 -33 48v21c0 9 3 17 8 22zM341 552h-130v128h130v-128z" />
    <glyph glyph-name="Gcommaaccent" unicode="&#x122;" horiz-adv-x="620" 
d="M559 4c-120 -10 -198 -15 -235 -15c-172 0 -258 70 -258 211v276c0 141 86 211 258 211c29 0 88 -4 178 -11v-121c-70 8 -127 12 -172 12c-55 0 -91 -11 -108 -34c-16 -22 -24 -63 -24 -124v-141c0 -65 2 -91 19 -122c17 -29 52 -38 113 -38c22 0 54 1 97 4v164h-126v119
h258v-391zM236 -221l29 166h119l-51 -166h-97z" />
    <glyph glyph-name="gcommaaccent" unicode="&#x123;" horiz-adv-x="552" 
d="M386 -77v11c-6 28 -19 32 -62 37c-3 1 -6 1 -7 1l-106 14c-27 -7 -42 -26 -42 -46v-13c0 -31 39 -54 104 -54c61 0 113 19 113 50zM254 397c-59 0 -75 -22 -75 -74v-16c0 -49 18 -72 75 -72s75 23 75 72v16c0 51 -18 74 -75 74zM134 150c-52 20 -86 77 -86 156v12
c0 104 63 167 206 167c33 0 63 -4 88 -11h192v-95h-10l-90 19c17 -17 26 -44 26 -80v-12c0 -119 -79 -172 -191 -172c-17 0 -30 1 -41 2l-4 -7c-3 -7 -5 -13 -5 -18c0 -12 14 -20 43 -25l119 -16c87 -12 134 -61 134 -121v-28c0 -46 -25 -82 -74 -107
c-49 -26 -105 -39 -169 -39c-67 0 -122 12 -165 36s-64 59 -64 106v8c0 45 33 89 94 110c-22 10 -33 26 -33 48v21c0 9 3 17 8 22zM202 537l29 166h119l-51 -166h-97z" />
    <glyph glyph-name="Hcircumflex" unicode="&#x124;" horiz-adv-x="639" 
d="M573 0h-132v278h-243v-278h-132v676h132v-279h243v279h132v-676zM259 740h-99l103 150h112l103 -150h-99l-60 78z" />
    <glyph glyph-name="hcircumflex" unicode="&#x125;" horiz-adv-x="514" 
d="M463 0h-132v288c0 45 -22 65 -67 58l-81 -13v-333h-132v710h132v-307l94 78c8 3 17 4 28 4c104 0 158 -60 158 -152v-333zM58 740h-99l103 150h112l103 -150h-99l-60 78z" />
    <glyph glyph-name="Hbar" unicode="&#x126;" horiz-adv-x="639" 
d="M573 0h-132v278h-243v-278h-132v676h132v-102h243v102h132v-676zM198 397h243v76h-243v-76z" />
    <glyph glyph-name="hbar" unicode="&#x127;" horiz-adv-x="514" 
d="M-20 555v82h71v73h132v-73h149v-82h-149v-152l94 78c8 3 17 4 28 4c104 0 158 -60 158 -152v-333h-132v288c0 45 -22 65 -67 58l-81 -13v-333h-132v555h-71z" />
    <glyph glyph-name="Itilde" unicode="&#x128;" horiz-adv-x="278" 
d="M205 0h-132v676h132v-676zM141 766l-37 21c-7 2 -15 3 -24 3c-27 0 -41 -13 -42 -40h-96c4 83 52 134 120 134c27 0 53 -7 76 -20l37 -21c9 -2 17 -3 24 -3c27 0 41 13 42 40h96c-4 -83 -52 -134 -120 -134c-29 0 -54 7 -76 20z" />
    <glyph glyph-name="itilde" unicode="&#x129;" horiz-adv-x="258" 
d="M195 0h-132v474h132v-474zM131 564l-37 21c-7 2 -15 3 -24 3c-27 0 -41 -13 -42 -40h-96c4 83 52 134 120 134c27 0 53 -7 76 -20l37 -21c9 -2 17 -3 24 -3c27 0 41 13 42 40h96c-4 -83 -52 -134 -120 -134c-29 0 -54 7 -76 20z" />
    <glyph glyph-name="Imacron" unicode="&#x12a;" horiz-adv-x="278" 
d="M205 0h-132v676h132v-676zM6 758v114h266v-114h-266z" />
    <glyph glyph-name="imacron" unicode="&#x12b;" horiz-adv-x="258" 
d="M195 0h-132v474h132v-474zM-4 556v114h266v-114h-266z" />
    <glyph glyph-name="Ibreve" unicode="&#x12c;" horiz-adv-x="278" 
d="M205 0h-132v676h132v-676zM166 725h-54c-38 0 -70 14 -95 42s-35 68 -30 121h94c0 -53 24 -75 56 -75h4c31 0 56 24 56 75h94c5 -53 -5 -93 -30 -121s-57 -42 -95 -42z" />
    <glyph glyph-name="ibreve" unicode="&#x12d;" horiz-adv-x="258" 
d="M195 0h-132v474h132v-474zM156 523h-54c-38 0 -70 14 -95 42s-35 68 -30 121h94c0 -53 24 -75 56 -75h4c31 0 56 24 56 75h94c5 -53 -5 -93 -30 -121s-57 -42 -95 -42z" />
    <glyph glyph-name="Iogonek" unicode="&#x12e;" horiz-adv-x="278" 
d="M205 676v-676c-81 -35 -103 -70 -103 -110v-12c0 -17 11 -26 32 -26l61 9v-80c-31 -7 -59 -11 -84 -11c-85 0 -128 30 -128 89v23c0 48 30 87 90 118v676h132z" />
    <glyph glyph-name="iogonek" unicode="&#x12f;" horiz-adv-x="258" 
d="M195 474v-474c-67 -33 -100 -69 -100 -108v-9c0 -21 11 -31 34 -31l59 9v-80c-31 -7 -59 -11 -84 -11c-85 0 -128 30 -128 89v15c0 49 28 86 87 127v473h132zM195 566h-132v144h132v-144z" />
    <glyph glyph-name="Idot" unicode="&#x130;" horiz-adv-x="278" 
d="M205 0h-132v676h132v-676zM204 754h-130v128h130v-128z" />
    <glyph glyph-name="dotlessi" unicode="&#x131;" horiz-adv-x="258" 
d="M195 0h-132v474h132v-474z" />
    <glyph glyph-name="IJ" unicode="&#x132;" horiz-adv-x="556" 
d="M205 0h-132v676h132v-676zM483 676v-715c-1 -7 -7 -15 -16 -24l-85 -87c-7 -4 -16 -6 -29 -6h-136v119h98l36 37v676h132z" />
    <glyph glyph-name="ij" unicode="&#x133;" horiz-adv-x="516" 
d="M195 566h-132v144h132v-144zM195 0h-132v474h132v-474zM453 567h-132v143h132v-143zM223 -221v111c81 -7 98 24 98 88v496h132v-525c0 -51 -7 -87 -30 -120c-23 -35 -67 -54 -132 -54c-26 0 -49 1 -68 4z" />
    <glyph glyph-name="Jcircumflex" unicode="&#x134;" horiz-adv-x="278" 
d="M79 740h-99l103 150h112l103 -150h-99l-60 78zM205 676v-715c-1 -7 -7 -15 -16 -24l-85 -87c-7 -4 -16 -6 -29 -6h-136v119h98l36 37v676h132z" />
    <glyph glyph-name="jcircumflex" unicode="&#x135;" horiz-adv-x="258" 
d="M69 538h-99l103 150h112l103 -150h-99l-60 78zM-31 -224v114c63 -5 94 31 94 88v496h132v-520c0 -57 -19 -102 -57 -137s-94 -49 -169 -41z" />
    <glyph glyph-name="Kcommaaccent" unicode="&#x136;" horiz-adv-x="554" 
d="M556 0h-152l-210 278h-10v-278h-132v676h132v-279h10l211 279h146l-250 -335zM203 -221l29 166h119l-51 -166h-97z" />
    <glyph glyph-name="kcommaaccent" unicode="&#x137;" horiz-adv-x="462" 
d="M467 0h-161l-113 204h-10v-204h-132v710h132v-439h10l113 203h151l-153 -232zM157 -221l29 166h119l-51 -166h-97z" />
    <glyph glyph-name="kgreenlandic" unicode="&#x138;" horiz-adv-x="462" 
d="M467 0h-161l-113 204h-10v-204h-132v474h132v-203h10l113 203h151l-153 -232z" />
    <glyph glyph-name="Lacute" unicode="&#x139;" horiz-adv-x="491" 
d="M475 0h-409v676h132v-557h277v-119zM188 740h-117l78 150h147z" />
    <glyph glyph-name="lacute" unicode="&#x13a;" horiz-adv-x="258" 
d="M195 0h-132v710h132v-710zM134 740h-117l78 150h147z" />
    <glyph glyph-name="Lcommaaccent" unicode="&#x13b;" horiz-adv-x="491" 
d="M475 0h-409v676h132v-557h277v-119zM171 -221l29 166h119l-51 -166h-97z" />
    <glyph glyph-name="lcommaaccent" unicode="&#x13c;" horiz-adv-x="258" 
d="M195 0h-132v710h132v-710zM55 -221l29 166h119l-51 -166h-97z" />
    <glyph glyph-name="Lcaron" unicode="&#x13d;" horiz-adv-x="491" 
d="M475 0h-409v676h132v-557h277v-119zM252 527l24 161h125l-55 -161h-94z" />
    <glyph glyph-name="lcaron" unicode="&#x13e;" horiz-adv-x="258" 
d="M195 0h-132v710h132v-710zM245 533l24 161h125l-55 -161h-94z" />
    <glyph glyph-name="Ldot" unicode="&#x13f;" horiz-adv-x="491" 
d="M475 0h-409v676h132v-557h277v-119zM420 292h-130v128h130v-128z" />
    <glyph glyph-name="ldot" unicode="&#x140;" horiz-adv-x="331" 
d="M195 0h-132v710h132v-710zM358 302h-130v128h130v-128z" />
    <glyph glyph-name="Lslash" unicode="&#x141;" horiz-adv-x="491" 
d="M475 0h-409v274l-59 -33l-38 66l97 54v315h132v-241l95 53l38 -64l-133 -75v-230h277v-119z" />
    <glyph glyph-name="lslash" unicode="&#x142;" horiz-adv-x="258" 
d="M195 0h-132v269l-40 -22l-39 66l79 44v353h132v-280l41 23l39 -64l-80 -45v-344z" />
    <glyph glyph-name="Nacute" unicode="&#x143;" horiz-adv-x="669" 
d="M603 0h-132l-273 465v-465h-132v676h131l274 -466v466h132v-676zM339 740h-117l78 150h147z" />
    <glyph glyph-name="nacute" unicode="&#x144;" horiz-adv-x="514" 
d="M463 0h-132v288c0 45 -22 65 -67 58l-81 -13v-333h-132v474h132v-71l94 78c8 3 17 4 28 4c104 0 158 -60 158 -152v-333zM262 538h-117l78 150h147z" />
    <glyph glyph-name="Ncommaaccent" unicode="&#x145;" horiz-adv-x="669" 
d="M603 0h-132l-273 465v-465h-132v676h131l274 -466v466h132v-676zM260 -221l29 166h119l-51 -166h-97z" />
    <glyph glyph-name="ncommaaccent" unicode="&#x146;" horiz-adv-x="514" 
d="M463 0h-132v288c0 45 -22 65 -67 58l-81 -13v-333h-132v474h132v-71l94 78c8 3 17 4 28 4c104 0 158 -60 158 -152v-333zM183 -221l29 166h119l-51 -166h-97z" />
    <glyph glyph-name="Ncaron" unicode="&#x147;" horiz-adv-x="669" 
d="M603 0h-132l-273 465v-465h-132v676h131l274 -466v466h132v-676zM173 890h111l50 -78l50 78h111l-103 -150h-116z" />
    <glyph glyph-name="ncaron" unicode="&#x148;" horiz-adv-x="514" 
d="M463 0h-132v288c0 45 -22 65 -67 58l-81 -13v-333h-132v474h132v-71l94 78c8 3 17 4 28 4c104 0 158 -60 158 -152v-333zM96 688h111l50 -78l50 78h111l-103 -150h-116z" />
    <glyph glyph-name="Eng" unicode="&#x14a;" horiz-adv-x="669" 
d="M603 676v-715c-1 -7 -7 -15 -16 -24l-85 -87c-7 -4 -16 -6 -29 -6h-136v119h98l36 37l-273 465v-465h-132v676h131l274 -466v466h132z" />
    <glyph glyph-name="eng" unicode="&#x14b;" horiz-adv-x="514" 
d="M233 -221v111c77 -4 98 27 98 88v310c0 45 -22 65 -67 58l-81 -13v-333h-132v474h132v-71l94 78c8 3 17 4 28 4c104 0 158 -60 158 -152v-384c0 -51 -7 -87 -30 -120c-23 -35 -67 -54 -132 -54c-26 0 -49 1 -68 4z" />
    <glyph glyph-name="Omacron" unicode="&#x14c;" horiz-adv-x="638" 
d="M572 476v-276c0 -73 -24 -127 -72 -161c-47 -33 -108 -50 -181 -50s-134 17 -182 50c-47 34 -71 88 -71 161v276c0 73 24 127 72 160c48 34 108 51 181 51s133 -17 181 -51c48 -33 72 -87 72 -160zM198 434v-190c0 -99 38 -133 121 -133s121 34 121 133v190
c0 99 -38 132 -121 132s-121 -33 -121 -132zM186 758v114h266v-114h-266z" />
    <glyph glyph-name="omacron" unicode="&#x14d;" horiz-adv-x="528" 
d="M476 313v-157c0 -128 -110 -167 -212 -167s-212 39 -212 167v157c0 104 69 172 212 172s212 -68 212 -172zM184 295v-115c0 -63 24 -89 80 -89s80 26 80 89v115c0 61 -24 88 -80 88s-80 -27 -80 -88zM131 556v114h266v-114h-266z" />
    <glyph glyph-name="Obreve" unicode="&#x14e;" horiz-adv-x="638" 
d="M572 476v-276c0 -73 -24 -127 -72 -161c-47 -33 -108 -50 -181 -50s-134 17 -182 50c-47 34 -71 88 -71 161v276c0 73 24 127 72 160c48 34 108 51 181 51s133 -17 181 -51c48 -33 72 -87 72 -160zM198 434v-190c0 -99 38 -133 121 -133s121 34 121 133v190
c0 99 -38 132 -121 132s-121 -33 -121 -132zM346 725h-54c-38 0 -70 14 -95 42s-35 68 -30 121h94c0 -53 24 -75 56 -75h4c31 0 56 24 56 75h94c5 -53 -5 -93 -30 -121s-57 -42 -95 -42z" />
    <glyph glyph-name="obreve" unicode="&#x14f;" horiz-adv-x="528" 
d="M476 313v-157c0 -128 -110 -167 -212 -167s-212 39 -212 167v157c0 104 69 172 212 172s212 -68 212 -172zM184 295v-115c0 -63 24 -89 80 -89s80 26 80 89v115c0 61 -24 88 -80 88s-80 -27 -80 -88zM291 523h-54c-38 0 -70 14 -95 42s-35 68 -30 121h94
c0 -53 24 -75 56 -75h4c31 0 56 24 56 75h94c5 -53 -5 -93 -30 -121s-57 -42 -95 -42z" />
    <glyph glyph-name="Ohungarumlaut" unicode="&#x150;" horiz-adv-x="638" 
d="M572 476v-276c0 -73 -24 -127 -72 -161c-47 -33 -108 -50 -181 -50s-134 17 -182 50c-47 34 -71 88 -71 161v276c0 73 24 127 72 160c48 34 108 51 181 51s133 -17 181 -51c48 -33 72 -87 72 -160zM198 434v-190c0 -99 38 -133 121 -133s121 34 121 133v190
c0 99 -38 132 -121 132s-121 -33 -121 -132zM129 747l91 179h129l-111 -179h-109zM289 747l91 179h129l-111 -179h-109z" />
    <glyph glyph-name="ohungarumlaut" unicode="&#x151;" horiz-adv-x="528" 
d="M476 313v-157c0 -128 -110 -167 -212 -167s-212 39 -212 167v157c0 104 69 172 212 172s212 -68 212 -172zM184 295v-115c0 -63 24 -89 80 -89s80 26 80 89v115c0 61 -24 88 -80 88s-80 -27 -80 -88zM74 523l91 179h129l-111 -179h-109zM234 523l91 179h129l-111 -179
h-109z" />
    <glyph glyph-name="OE" unicode="&#x152;" horiz-adv-x="907" 
d="M879 0h-425v13c-49 -16 -96 -24 -141 -24c-125 0 -247 52 -247 211v276c0 158 123 211 247 211c49 0 96 -8 141 -24v13h417v-118h-285v-161h238v-119h-238v-159h293v-119zM198 434v-187c0 -97 44 -133 128 -133s128 36 128 133v187c0 97 -44 131 -128 131
s-128 -34 -128 -131z" />
    <glyph glyph-name="oe" unicode="&#x153;" horiz-adv-x="799" 
d="M562 485c139 0 208 -56 208 -167v-122h-286v-17c0 -67 31 -85 110 -85c57 0 111 4 160 12v-106c-51 -7 -107 -11 -167 -11c-73 0 -128 13 -166 38c-37 -25 -88 -38 -153 -38c-59 0 -110 13 -153 39c-42 27 -63 69 -63 128v157c0 103 73 172 216 172c61 0 109 -11 146 -34
c35 23 84 34 148 34zM184 295v-115c0 -63 27 -89 84 -89c56 0 84 27 84 80v133c0 53 -28 79 -84 79s-84 -29 -84 -88zM484 288h155v24c0 45 -18 68 -77 68c-52 0 -77 -19 -78 -67v-25z" />
    <glyph glyph-name="Racute" unicode="&#x154;" horiz-adv-x="606" 
d="M308 740h-117l78 150h147zM530 526v-107c0 -61 -34 -116 -86 -139l143 -280h-144l-137 268h-108v-268h-132v676h320c41 0 76 -15 103 -44s41 -64 41 -106zM398 465v22c0 51 -15 71 -75 71h-125v-171h125c59 0 75 26 75 78z" />
    <glyph glyph-name="racute" unicode="&#x155;" horiz-adv-x="326" 
d="M176 0h-132v474h132v-110h5c1 5 2 13 14 38c7 13 15 24 24 34c19 20 55 40 99 43v-141c-67 1 -115 -30 -142 -94v-244zM168 538h-117l78 150h147z" />
    <glyph glyph-name="Rcommaaccent" unicode="&#x156;" horiz-adv-x="606" 
d="M229 -221l29 166h119l-51 -166h-97zM530 526v-107c0 -61 -34 -116 -86 -139l143 -280h-144l-137 268h-108v-268h-132v676h320c41 0 76 -15 103 -44s41 -64 41 -106zM398 465v22c0 51 -15 71 -75 71h-125v-171h125c59 0 75 26 75 78z" />
    <glyph glyph-name="rcommaaccent" unicode="&#x157;" horiz-adv-x="326" 
d="M176 0h-132v474h132v-110h5c1 5 2 13 14 38c7 13 15 24 24 34c19 20 55 40 99 43v-141c-67 1 -115 -30 -142 -94v-244zM38 -221l29 166h119l-51 -166h-97z" />
    <glyph glyph-name="Rcaron" unicode="&#x158;" horiz-adv-x="606" 
d="M142 890h111l50 -78l50 78h111l-103 -150h-116zM530 526v-107c0 -61 -34 -116 -86 -139l143 -280h-144l-137 268h-108v-268h-132v676h320c41 0 76 -15 103 -44s41 -64 41 -106zM398 465v22c0 51 -15 71 -75 71h-125v-171h125c59 0 75 26 75 78z" />
    <glyph glyph-name="rcaron" unicode="&#x159;" horiz-adv-x="326" 
d="M176 0h-132v474h132v-110h5c1 5 2 13 14 38c7 13 15 24 24 34c19 20 55 40 99 43v-141c-67 1 -115 -30 -142 -94v-244zM2 688h111l50 -78l50 78h111l-103 -150h-116z" />
    <glyph glyph-name="Sacute" unicode="&#x15a;" horiz-adv-x="554" 
d="M509 229v-67c0 -115 -82 -173 -247 -173c-21 0 -49 1 -83 3c-34 1 -63 3 -87 4l-35 3v124c79 -8 143 -12 191 -12c103 0 129 22 129 74v15c0 40 -11 64 -66 71l-110 14c-88 11 -147 78 -147 174v58c0 115 86 170 235 170c29 0 92 -4 187 -11v-128c-79 9 -140 13 -183 13
c-80 0 -107 -19 -107 -66v-17c0 -40 12 -64 65 -71l114 -14c87 -11 144 -73 144 -164zM282 740h-117l78 150h147z" />
    <glyph glyph-name="sacute" unicode="&#x15b;" horiz-adv-x="456" 
d="M415 162v-37c0 -91 -58 -136 -175 -136c-53 0 -127 4 -164 8l-28 3v114c59 -9 111 -14 156 -14c41 0 53 0 68 11c7 6 11 15 11 28v9c0 19 -12 30 -35 33l-91 11c-64 8 -111 57 -111 124v38c0 96 63 131 184 131c53 0 113 -4 138 -7l19 -3v-111c-64 7 -111 11 -141 11
c-51 0 -68 -11 -68 -36v-9c0 -19 12 -30 36 -33l90 -11c64 -8 111 -57 111 -124zM233 538h-117l78 150h147z" />
    <glyph glyph-name="Scircumflex" unicode="&#x15c;" horiz-adv-x="554" 
d="M509 229v-67c0 -115 -82 -173 -247 -173c-21 0 -49 1 -83 3c-34 1 -63 3 -87 4l-35 3v124c79 -8 143 -12 191 -12c103 0 129 22 129 74v15c0 40 -11 64 -66 71l-110 14c-88 11 -147 78 -147 174v58c0 115 86 170 235 170c29 0 92 -4 187 -11v-128c-79 9 -140 13 -183 13
c-80 0 -107 -19 -107 -66v-17c0 -40 12 -64 65 -71l114 -14c87 -11 144 -73 144 -164zM217 740h-99l103 150h112l103 -150h-99l-60 78z" />
    <glyph glyph-name="scircumflex" unicode="&#x15d;" horiz-adv-x="456" 
d="M415 162v-37c0 -91 -58 -136 -175 -136c-53 0 -127 4 -164 8l-28 3v114c59 -9 111 -14 156 -14c41 0 53 0 68 11c7 6 11 15 11 28v9c0 19 -12 30 -35 33l-91 11c-64 8 -111 57 -111 124v38c0 96 63 131 184 131c53 0 113 -4 138 -7l19 -3v-111c-64 7 -111 11 -141 11
c-51 0 -68 -11 -68 -36v-9c0 -19 12 -30 36 -33l90 -11c64 -8 111 -57 111 -124zM168 538h-99l103 150h112l103 -150h-99l-60 78z" />
    <glyph glyph-name="Scedilla" unicode="&#x15e;" horiz-adv-x="554" 
d="M175 -219v73c29 -7 53 -10 70 -10c21 0 31 7 31 22v10c0 15 -9 21 -27 19l-40 34l44 60l-196 10v124c79 -8 143 -12 191 -12c103 0 129 22 129 74v15c0 40 -11 64 -66 71l-110 14c-88 11 -147 78 -147 174v58c0 115 86 170 235 170c29 0 92 -4 187 -11v-128
c-79 9 -140 13 -183 13c-80 0 -107 -19 -107 -66v-17c0 -40 12 -64 65 -71l114 -14c87 -11 144 -73 144 -164v-67c0 -98 -59 -154 -176 -169l-33 -44c48 3 79 -23 79 -66v-29c0 -57 -54 -84 -111 -84c-20 0 -57 5 -78 8z" />
    <glyph glyph-name="scedilla" unicode="&#x15f;" horiz-adv-x="456" 
d="M126 -219v73c29 -7 53 -10 70 -10c21 0 31 7 31 22v10c0 15 -9 21 -27 19l-40 34l45 61l-157 10v114c59 -9 111 -14 156 -14c41 0 53 0 68 11c7 6 11 15 11 28v9c0 19 -12 30 -35 33l-91 11c-64 8 -111 57 -111 124v38c0 96 63 131 184 131c53 0 113 -4 138 -7l19 -3
v-111c-64 7 -111 11 -141 11c-51 0 -68 -11 -68 -36v-9c0 -19 12 -30 36 -33l90 -11c64 -8 111 -57 111 -124v-37c0 -79 -44 -123 -132 -133l-32 -43c48 3 79 -23 79 -66v-29c0 -57 -54 -84 -111 -84c-20 0 -57 5 -77 8z" />
    <glyph glyph-name="Scaron" unicode="&#x160;" horiz-adv-x="554" 
d="M509 229v-67c0 -115 -82 -173 -247 -173c-21 0 -49 1 -83 3c-34 1 -63 3 -87 4l-35 3v124c79 -8 143 -12 191 -12c103 0 129 22 129 74v15c0 40 -11 64 -66 71l-110 14c-88 11 -147 78 -147 174v58c0 115 86 170 235 170c29 0 92 -4 187 -11v-128c-79 9 -140 13 -183 13
c-80 0 -107 -19 -107 -66v-17c0 -40 12 -64 65 -71l114 -14c87 -11 144 -73 144 -164zM116 890h111l50 -78l50 78h111l-103 -150h-116z" />
    <glyph glyph-name="scaron" unicode="&#x161;" horiz-adv-x="456" 
d="M415 162v-37c0 -91 -58 -136 -175 -136c-53 0 -127 4 -164 8l-28 3v114c59 -9 111 -14 156 -14c41 0 53 0 68 11c7 6 11 15 11 28v9c0 19 -12 30 -35 33l-91 11c-64 8 -111 57 -111 124v38c0 96 63 131 184 131c53 0 113 -4 138 -7l19 -3v-111c-64 7 -111 11 -141 11
c-51 0 -68 -11 -68 -36v-9c0 -19 12 -30 36 -33l90 -11c64 -8 111 -57 111 -124zM67 688h111l50 -78l50 78h111l-103 -150h-116z" />
    <glyph glyph-name="Tcommaaccent" unicode="&#x162;" horiz-adv-x="492" 
d="M486 557h-174v-557h-132v557h-174v119h480v-119zM172 -221l29 166h119l-51 -166h-97z" />
    <glyph glyph-name="tcommaaccent" unicode="&#x163;" horiz-adv-x="347" 
d="M330 109v-111c-20 -5 -51 -8 -93 -8c-89 0 -151 50 -151 149v239h-70v96h70v90l55 46h77v-136h115v-96h-115v-184v-8c0 -41 -1 -55 14 -71c8 -7 20 -11 36 -11c20 0 41 2 62 5zM99 -221l29 166h119l-51 -166h-97z" />
    <glyph glyph-name="Tcaron" unicode="&#x164;" horiz-adv-x="492" 
d="M486 557h-174v-557h-132v557h-174v119h480v-119zM85 890h111l50 -78l50 78h111l-103 -150h-116z" />
    <glyph glyph-name="tcaron" unicode="&#x165;" horiz-adv-x="347" 
d="M330 109v-111c-20 -5 -51 -8 -93 -8c-89 0 -151 50 -151 149v239h-70v96h70v90l55 46h77v-136h115v-96h-115v-184v-8c0 -41 -1 -55 14 -71c8 -7 20 -11 36 -11c20 0 41 2 62 5zM259 527l24 161h125l-55 -161h-94z" />
    <glyph glyph-name="Tbar" unicode="&#x166;" horiz-adv-x="492" 
d="M486 557h-174v-173h130v-93h-130v-291h-132v291h-134v93h134v173h-174v119h480v-119z" />
    <glyph glyph-name="tbar" unicode="&#x167;" horiz-adv-x="347" 
d="M19 227v82h67v69h-70v96h70v90l55 46h77v-136h115v-96h-115v-69h96v-82h-96v-33v-8c0 -41 -1 -55 14 -71c8 -7 20 -11 36 -11c20 0 41 2 62 5v-111c-20 -5 -51 -8 -93 -8c-89 0 -151 50 -151 149v88h-67z" />
    <glyph glyph-name="Utilde" unicode="&#x168;" horiz-adv-x="638" 
d="M66 201v475h132v-447c0 -47 11 -80 34 -97s52 -25 87 -25s64 8 87 25s34 50 34 97v447h132v-475c0 -70 -24 -123 -73 -159c-48 -35 -108 -53 -180 -53s-132 18 -181 53c-48 36 -72 89 -72 159zM321 766l-37 21c-7 2 -15 3 -24 3c-27 0 -41 -13 -42 -40h-96
c4 83 52 134 120 134c27 0 53 -7 76 -20l37 -21c9 -2 17 -3 24 -3c27 0 41 13 42 40h96c-4 -83 -52 -134 -120 -134c-29 0 -54 7 -76 20z" />
    <glyph glyph-name="utilde" unicode="&#x169;" horiz-adv-x="514" 
d="M51 474h132v-288c0 -45 22 -65 67 -58l81 13v333h132v-474h-132v71l-94 -78c-8 -3 -17 -4 -28 -4c-104 0 -158 60 -158 152v333zM259 564l-37 21c-7 2 -15 3 -24 3c-27 0 -41 -13 -42 -40h-96c4 83 52 134 120 134c27 0 53 -7 76 -20l37 -21c9 -2 17 -3 24 -3
c27 0 41 13 42 40h96c-4 -83 -52 -134 -120 -134c-29 0 -54 7 -76 20z" />
    <glyph glyph-name="Umacron" unicode="&#x16a;" horiz-adv-x="638" 
d="M66 201v475h132v-447c0 -47 11 -80 34 -97s52 -25 87 -25s64 8 87 25s34 50 34 97v447h132v-475c0 -70 -24 -123 -73 -159c-48 -35 -108 -53 -180 -53s-132 18 -181 53c-48 36 -72 89 -72 159zM186 758v114h266v-114h-266z" />
    <glyph glyph-name="umacron" unicode="&#x16b;" horiz-adv-x="514" 
d="M51 474h132v-288c0 -45 22 -65 67 -58l81 13v333h132v-474h-132v71l-94 -78c-8 -3 -17 -4 -28 -4c-104 0 -158 60 -158 152v333zM124 556v114h266v-114h-266z" />
    <glyph glyph-name="Ubreve" unicode="&#x16c;" horiz-adv-x="638" 
d="M66 201v475h132v-447c0 -47 11 -80 34 -97s52 -25 87 -25s64 8 87 25s34 50 34 97v447h132v-475c0 -70 -24 -123 -73 -159c-48 -35 -108 -53 -180 -53s-132 18 -181 53c-48 36 -72 89 -72 159zM346 725h-54c-38 0 -70 14 -95 42s-35 68 -30 121h94c0 -53 24 -75 56 -75h4
c31 0 56 24 56 75h94c5 -53 -5 -93 -30 -121s-57 -42 -95 -42z" />
    <glyph glyph-name="ubreve" unicode="&#x16d;" horiz-adv-x="514" 
d="M51 474h132v-288c0 -45 22 -65 67 -58l81 13v333h132v-474h-132v71l-94 -78c-8 -3 -17 -4 -28 -4c-104 0 -158 60 -158 152v333zM284 523h-54c-38 0 -70 14 -95 42s-35 68 -30 121h94c0 -53 24 -75 56 -75h4c31 0 56 24 56 75h94c5 -53 -5 -93 -30 -121s-57 -42 -95 -42z
" />
    <glyph glyph-name="Uring" unicode="&#x16e;" horiz-adv-x="638" 
d="M66 201v475h132v-447c0 -47 11 -80 34 -97s52 -25 87 -25s64 8 87 25s34 50 34 97v447h132v-475c0 -70 -24 -123 -73 -159c-48 -35 -108 -53 -180 -53s-132 18 -181 53c-48 36 -72 89 -72 159zM191 833c0 71 47 121 112 121h33c64 0 111 -52 111 -121
c0 -72 -47 -121 -111 -121h-33c-65 0 -112 49 -112 121zM307 795h24c13 0 31 11 31 38s-18 38 -31 38h-24c-15 0 -31 -11 -31 -38s16 -38 31 -38z" />
    <glyph glyph-name="uring" unicode="&#x16f;" horiz-adv-x="514" 
d="M51 474h132v-288c0 -45 22 -65 67 -58l81 13v333h132v-474h-132v71l-94 -78c-8 -3 -17 -4 -28 -4c-104 0 -158 60 -158 152v333zM129 631c0 71 47 121 112 121h33c64 0 111 -52 111 -121c0 -72 -47 -121 -111 -121h-33c-65 0 -112 49 -112 121zM245 593h24
c13 0 31 11 31 38s-18 38 -31 38h-24c-15 0 -31 -11 -31 -38s16 -38 31 -38z" />
    <glyph glyph-name="Uhungarumlaut" unicode="&#x170;" horiz-adv-x="638" 
d="M66 201v475h132v-447c0 -47 11 -80 34 -97s52 -25 87 -25s64 8 87 25s34 50 34 97v447h132v-475c0 -70 -24 -123 -73 -159c-48 -35 -108 -53 -180 -53s-132 18 -181 53c-48 36 -72 89 -72 159zM129 747l91 179h129l-111 -179h-109zM289 747l91 179h129l-111 -179h-109z
" />
    <glyph glyph-name="uhungarumlaut" unicode="&#x171;" horiz-adv-x="514" 
d="M51 474h132v-288c0 -45 22 -65 67 -58l81 13v333h132v-474h-132v71l-94 -78c-8 -3 -17 -4 -28 -4c-104 0 -158 60 -158 152v333zM67 523l91 179h129l-111 -179h-109zM227 523l91 179h129l-111 -179h-109z" />
    <glyph glyph-name="Uogonek" unicode="&#x172;" horiz-adv-x="638" 
d="M572 676v-475c0 -103 -58 -160 -155 -201c-37 -25 -61 -45 -72 -60s-16 -33 -16 -53v-8c0 -15 14 -27 31 -27l62 9v-80c-31 -7 -59 -11 -84 -11c-85 0 -128 31 -128 92v15c0 45 28 82 85 113c-66 4 -121 24 -164 59s-65 86 -65 152v475h132v-447c0 -47 11 -80 34 -97
s52 -25 87 -25s64 8 87 25s34 50 34 97v447h132z" />
    <glyph glyph-name="uogonek" unicode="&#x173;" horiz-adv-x="514" 
d="M331 0v71l-94 -78c-8 -3 -17 -4 -28 -4c-104 0 -158 60 -158 152v333h132v-288c0 -45 22 -65 67 -58l81 13v333h132v-474c-35 -23 -59 -41 -70 -56s-16 -32 -16 -51v-10c0 -21 11 -31 34 -31l59 9v-80c-31 -7 -59 -11 -84 -11c-85 0 -128 30 -128 89v21
c0 48 21 77 73 120z" />
    <glyph glyph-name="Wcircumflex" unicode="&#x174;" horiz-adv-x="1000" 
d="M279 156l136 520h170l136 -520h10l112 520h146l-179 -676h-169l-136 525h-10l-136 -525h-169l-179 676h146l112 -520h10zM440 740h-99l103 150h112l103 -150h-99l-60 78z" />
    <glyph glyph-name="wcircumflex" unicode="&#x175;" horiz-adv-x="740" 
d="M214 145l77 329h158l77 -329h10l66 329h137l-122 -474h-162l-80 343h-10l-80 -343h-162l-122 474h137l66 -329h10zM310 538h-99l103 150h112l103 -150h-99l-60 78z" />
    <glyph glyph-name="Ycircumflex" unicode="&#x176;" horiz-adv-x="586" 
d="M298 402l131 274h149l-219 -417v-259h-132v259l-219 417h149l131 -274h10zM233 740h-99l103 150h112l103 -150h-99l-60 78z" />
    <glyph glyph-name="ycircumflex" unicode="&#x177;" horiz-adv-x="472" 
d="M251 -212h-119l70 212h-49l-152 474h134l96 -329h10l96 329h134zM176 538h-99l103 150h112l103 -150h-99l-60 78z" />
    <glyph glyph-name="Ydieresis" unicode="&#x178;" horiz-adv-x="586" 
d="M298 402l131 274h149l-219 -417v-259h-132v259l-219 417h149l131 -274h10zM262 749h-131v134h131v-134zM455 749h-131v134h131v-134z" />
    <glyph glyph-name="Zacute" unicode="&#x179;" horiz-adv-x="521" 
d="M488 0h-453v120l313 438h-292v118h431v-118l-314 -439h315v-119zM270 740h-117l78 150h147z" />
    <glyph glyph-name="zacute" unicode="&#x17a;" horiz-adv-x="425" 
d="M404 0h-383v97l220 266v5h-205v106h351v-98l-219 -264v-6h236v-106zM217 538h-117l78 150h147z" />
    <glyph glyph-name="Zdotaccent" unicode="&#x17b;" horiz-adv-x="521" 
d="M488 0h-453v120l313 438h-292v118h431v-118l-314 -439h315v-119zM330 754h-130v128h130v-128z" />
    <glyph glyph-name="zdotaccent" unicode="&#x17c;" horiz-adv-x="425" 
d="M404 0h-383v97l220 266v5h-205v106h351v-98l-219 -264v-6h236v-106zM277 552h-130v128h130v-128z" />
    <glyph glyph-name="Zcaron" unicode="&#x17d;" horiz-adv-x="521" 
d="M488 0h-453v120l313 438h-292v118h431v-118l-314 -439h315v-119zM104 890h111l50 -78l50 78h111l-103 -150h-116z" />
    <glyph glyph-name="zcaron" unicode="&#x17e;" horiz-adv-x="425" 
d="M404 0h-383v97l220 266v5h-205v106h351v-98l-219 -264v-6h236v-106zM51 688h111l50 -78l50 78h111l-103 -150h-116z" />
    <glyph glyph-name="florin" unicode="&#x192;" horiz-adv-x="523" 
d="M-46 -228l13 117c0 -3 18 -4 54 -4c61 0 83 28 90 87l39 365h-104l10 102h104l12 116c9 87 69 131 180 131l152 -10l-7 -119c-57 7 -98 10 -121 10c-53 0 -75 -13 -82 -72l-6 -56h144l-10 -102h-144l-45 -417c-11 -101 -75 -152 -191 -152c-23 0 -52 1 -88 4z" />
    <glyph glyph-name="Scommaaccent" unicode="&#x218;" horiz-adv-x="554" 
d="M509 229v-67c0 -115 -82 -173 -247 -173c-21 0 -49 1 -83 3c-34 1 -63 3 -87 4l-35 3v124c79 -8 143 -12 191 -12c103 0 129 22 129 74v15c0 40 -11 64 -66 71l-110 14c-88 11 -147 78 -147 174v58c0 115 86 170 235 170c29 0 92 -4 187 -11v-128c-79 9 -140 13 -183 13
c-80 0 -107 -19 -107 -66v-17c0 -40 12 -64 65 -71l114 -14c87 -11 144 -73 144 -164zM203 -221l29 166h119l-51 -166h-97z" />
    <glyph glyph-name="scommaaccent" unicode="&#x219;" horiz-adv-x="456" 
d="M415 162v-37c0 -91 -58 -136 -175 -136c-53 0 -127 4 -164 8l-28 3v114c59 -9 111 -14 156 -14c41 0 53 0 68 11c7 6 11 15 11 28v9c0 19 -12 30 -35 33l-91 11c-64 8 -111 57 -111 124v38c0 96 63 131 184 131c53 0 113 -4 138 -7l19 -3v-111c-64 7 -111 11 -141 11
c-51 0 -68 -11 -68 -36v-9c0 -19 12 -30 36 -33l90 -11c64 -8 111 -57 111 -124zM154 -221l29 166h119l-51 -166h-97z" />
    <glyph glyph-name="dotlessj" unicode="&#x237;" horiz-adv-x="258" 
d="M-31 -224v114c63 -5 94 31 94 88v496h132v-520c0 -57 -19 -102 -57 -137s-94 -49 -169 -41z" />
    <glyph glyph-name="circumflex" unicode="&#x2c6;" 
d="M95 538h-99l103 150h112l103 -150h-99l-60 78z" />
    <glyph glyph-name="caron" unicode="&#x2c7;" 
d="M-6 688h111l50 -78l50 78h111l-103 -150h-116z" />
    <glyph glyph-name="breve" unicode="&#x2d8;" 
d="M182 523h-54c-38 0 -70 14 -95 42s-35 68 -30 121h94c0 -53 24 -75 56 -75h4c31 0 56 24 56 75h94c5 -53 -5 -93 -30 -121s-57 -42 -95 -42z" />
    <glyph glyph-name="dotaccent" unicode="&#x2d9;" 
d="M220 552h-130v128h130v-128z" />
    <glyph glyph-name="ring" unicode="&#x2da;" 
d="M27 631c0 71 47 121 112 121h33c64 0 111 -52 111 -121c0 -72 -47 -121 -111 -121h-33c-65 0 -112 49 -112 121zM143 593h24c13 0 31 11 31 38s-18 38 -31 38h-24c-15 0 -31 -11 -31 -38s16 -38 31 -38z" />
    <glyph glyph-name="ogonek" unicode="&#x2db;" 
d="M229 31v-31c-65 -39 -81 -67 -81 -107v-10c0 -21 11 -31 34 -31l59 9v-80c-31 -7 -59 -11 -84 -11c-85 0 -128 30 -128 89v21c0 71 72 123 200 151z" />
    <glyph glyph-name="tilde" unicode="&#x2dc;" 
d="M157 564l-37 21c-7 2 -15 3 -24 3c-27 0 -41 -13 -42 -40h-96c4 83 52 134 120 134c27 0 53 -7 76 -20l37 -21c9 -2 17 -3 24 -3c27 0 41 13 42 40h96c-4 -83 -52 -134 -120 -134c-29 0 -54 7 -76 20z" />
    <glyph glyph-name="hungarumlaut" unicode="&#x2dd;" 
d="M-40 523l91 179h129l-111 -179h-109zM120 523l91 179h129l-111 -179h-109z" />
    <glyph glyph-name="uni0323" unicode="&#x323;" 
d="M216 -204h-132v135h132v-135z" />
    <glyph glyph-name="enspace" unicode="&#x2002;" horiz-adv-x="500" 
 />
    <glyph glyph-name="emspace" unicode="&#x2003;" horiz-adv-x="1000" 
 />
    <glyph glyph-name="threeperemspace" unicode="&#x2004;" horiz-adv-x="333" 
 />
    <glyph glyph-name="fourperemspace" unicode="&#x2005;" horiz-adv-x="250" 
 />
    <glyph glyph-name="sixperemspace" unicode="&#x2006;" horiz-adv-x="167" 
 />
    <glyph glyph-name="figurespace" unicode="&#x2007;" horiz-adv-x="640" 
 />
    <glyph glyph-name="punctuationspace" unicode="&#x2008;" horiz-adv-x="230" 
 />
    <glyph glyph-name="thinspace" unicode="&#x2009;" horiz-adv-x="50" 
 />
    <glyph glyph-name="hairspace" unicode="&#x200a;" horiz-adv-x="20" 
 />
    <glyph glyph-name="zerowidthspace" unicode="&#x200b;" horiz-adv-x="0" 
 />
    <glyph glyph-name="figuredash" unicode="&#x2012;" horiz-adv-x="650" 
d="M615 215h-580v119h580v-119z" />
    <glyph glyph-name="endash" unicode="&#x2013;" horiz-adv-x="500" 
d="M465 215h-430v119h430v-119z" />
    <glyph glyph-name="emdash" unicode="&#x2014;" horiz-adv-x="1000" 
d="M965 215h-930v119h930v-119z" />
    <glyph glyph-name="doublebar" unicode="&#x2016;" horiz-adv-x="432" 
d="M175 -251h-116v1001h116v-1001zM373 -251h-116v1001h116v-1001z" />
    <glyph glyph-name="quoteleft" unicode="&#x2018;" horiz-adv-x="252" 
d="M51 399v150c0 53 16 96 47 127h91v-21c-27 -21 -41 -53 -41 -97h53v-159h-150z" />
    <glyph glyph-name="quoteright" unicode="&#x2019;" horiz-adv-x="252" 
d="M201 676v-150c0 -53 -16 -96 -47 -127h-91v21c27 21 41 53 41 97h-53v159h150z" />
    <glyph glyph-name="quotesinglbase" unicode="&#x201a;" horiz-adv-x="252" 
d="M201 159v-150c0 -53 -16 -96 -47 -127h-91v21c27 21 41 53 41 97h-53v159h150z" />
    <glyph glyph-name="reversequoteleft" unicode="&#x201b;" horiz-adv-x="252" 
d="M51 526v150h150v-159h-53c0 -44 14 -76 41 -97v-21h-91c-31 31 -47 74 -47 127z" />
    <glyph glyph-name="quotedblleft" unicode="&#x201c;" horiz-adv-x="460" 
d="M44 399v150c0 53 16 96 47 127h91v-21c-27 -21 -41 -53 -41 -97h53v-159h-150zM266 399v150c0 53 16 96 47 127h91v-21c-27 -21 -41 -53 -41 -97h53v-159h-150z" />
    <glyph glyph-name="quotedblright" unicode="&#x201d;" horiz-adv-x="460" 
d="M416 676v-150c0 -53 -16 -96 -47 -127h-91v21c27 21 41 53 41 97h-53v159h150zM194 676v-150c0 -53 -16 -96 -47 -127h-91v21c27 21 41 53 41 97h-53v159h150z" />
    <glyph glyph-name="quotedblbase" unicode="&#x201e;" horiz-adv-x="460" 
d="M416 159v-150c0 -53 -16 -96 -47 -127h-91v21c27 21 41 53 41 97h-53v159h150zM194 159v-150c0 -53 -16 -96 -47 -127h-91v21c27 21 41 53 41 97h-53v159h150z" />
    <glyph glyph-name="reversequotedblleft" unicode="&#x201f;" horiz-adv-x="460" 
d="M44 526v150h150v-159h-53c0 -44 14 -76 41 -97v-21h-91c-31 31 -47 74 -47 127zM266 526v150h150v-159h-53c0 -44 14 -76 41 -97v-21h-91c-31 31 -47 74 -47 127z" />
    <glyph glyph-name="dagger" unicode="&#x2020;" horiz-adv-x="506" 
d="M312 -81h-118v321l11 132l-173 -10v112l173 -10l-15 92l-7 120h140l-7 -120l-15 -92l173 10v-112l-173 10l11 -132v-321z" />
    <glyph glyph-name="daggerdbl" unicode="&#x2021;" horiz-adv-x="506" 
d="M194 319l11 54l-173 -10v111l173 -10l-13 92l-7 120h136l-7 -120l-13 -92l173 10v-111l-173 10l11 -54v-33l-11 -61l173 10v-111l-173 10l13 -93l7 -122h-136l7 122l13 93l-173 -10v111l173 -10l-11 61v33z" />
    <glyph glyph-name="bullet" unicode="&#x2022;" horiz-adv-x="391" 
d="M196 412c88 0 144 -43 144 -118v-58c0 -75 -56 -118 -144 -118c-91 0 -145 43 -145 118v58c0 75 54 118 145 118z" />
    <glyph glyph-name="ellipsis" unicode="&#x2026;" horiz-adv-x="717" 
d="M190 0h-144v154h144v-154zM427 0h-144v154h144v-154zM671 0h-144v154h144v-154z" />
    <glyph glyph-name="perthousand" unicode="&#x2030;" horiz-adv-x="1222" 
d="M1177 261v-152c0 -81 -68 -116 -161 -116c-92 0 -160 35 -160 116v152c0 81 68 116 160 116s161 -35 161 -116zM1016 283c-29 0 -43 -14 -43 -42v-109c0 -28 14 -42 43 -42s44 14 44 42v109c0 28 -15 42 -44 42zM366 565v-152c0 -81 -68 -116 -161 -116
c-92 0 -160 35 -160 116v152c0 81 68 116 160 116s161 -35 161 -116zM814 261v-152c0 -81 -68 -116 -161 -116c-92 0 -160 35 -160 116v152c0 81 68 116 160 116s161 -35 161 -116zM205 587c-29 0 -43 -14 -43 -42v-109c0 -28 14 -42 43 -42s44 14 44 42v109
c0 28 -15 42 -44 42zM653 283c-29 0 -43 -14 -43 -42v-109c0 -28 14 -42 43 -42s44 14 44 42v109c0 28 -15 42 -44 42zM644 676l-313 -676h-115l313 676h115z" />
    <glyph glyph-name="tripleprime" unicode="&#x2034;" horiz-adv-x="598" 
d="M171 676l-28 -277h-86l-28 277h142zM372 676l-28 -277h-86l-28 277h142zM573 676l-28 -277h-86l-28 277h142z" />
    <glyph glyph-name="guilsinglleft" unicode="&#x2039;" horiz-adv-x="346" 
d="M165 275v-10l131 -133l-74 -76l-194 196v36l194 196l74 -76z" />
    <glyph glyph-name="guilsinglright" unicode="&#x203a;" horiz-adv-x="346" 
d="M181 265v10l-131 133l74 76l194 -196v-36l-194 -196l-74 76z" />
    <glyph glyph-name="fraction" unicode="&#x2044;" horiz-adv-x="146" 
d="M282 676l-313 -676h-105l313 676h105z" />
    <glyph glyph-name="zerosuperior" unicode="&#x2070;" horiz-adv-x="411" 
d="M380 545v-116c0 -87 -66 -136 -175 -136s-174 49 -174 136v116c0 87 65 136 174 136s175 -49 175 -136zM205 603c-26 0 -51 -6 -51 -57v-118c0 -45 20 -57 51 -57c25 0 52 6 52 57v118c0 45 -20 57 -52 57z" />
    <glyph glyph-name="foursuperior" unicode="&#x2074;" horiz-adv-x="352" 
d="M354 388h-67v-88h-98v88h-174v80l159 208h113v-202h67v-86zM189 474v99l-79 -99h79z" />
    <glyph glyph-name="fivesuperior" unicode="&#x2075;" horiz-adv-x="322" 
d="M29 450v226h274v-85h-181v-58h65c89 0 134 -33 134 -99v-31c0 -65 -52 -110 -149 -110l-155 10v88c55 -6 97 -9 127 -9c41 0 62 11 62 34v7c0 23 -16 27 -56 27h-121z" />
    <glyph glyph-name="sixsuperior" unicode="&#x2076;" horiz-adv-x="375" 
d="M225 539c88 0 129 -42 129 -103v-30c0 -39 -15 -67 -45 -86c-30 -18 -66 -27 -109 -27c-75 0 -169 26 -169 123v146c0 30 12 57 35 82c24 25 58 38 103 38c48 0 109 -4 138 -8l22 -2v-87c-61 7 -102 11 -121 11c-37 0 -56 -15 -56 -45v-26c21 9 45 14 73 14zM204 478
c-19 0 -38 -7 -46 -12l-6 -3v-55c0 -27 14 -41 41 -41s40 14 40 41v32c0 25 -10 38 -29 38z" />
    <glyph glyph-name="sevensuperior" unicode="&#x2077;" horiz-adv-x="308" 
d="M163 300h-121l147 280h-177v96h288v-94z" />
    <glyph glyph-name="eightsuperior" unicode="&#x2078;" horiz-adv-x="352" 
d="M332 575v-7c0 -31 -26 -71 -65 -80c43 -7 75 -39 75 -82v-4c0 -73 -55 -109 -166 -109s-166 36 -166 109v4c0 43 33 75 76 82c-40 9 -66 48 -66 80v7c0 73 64 107 156 107s156 -34 156 -107zM169 517h14c20 0 33 14 33 33v29c0 21 -13 32 -40 32s-40 -11 -40 -32v-29
c0 -19 13 -33 33 -33zM183 456h-14c-20 0 -33 -14 -33 -33v-23c0 -21 13 -32 40 -32s40 11 40 32v23c0 19 -13 33 -33 33z" />
    <glyph glyph-name="ninesuperior" unicode="&#x2079;" horiz-adv-x="375" 
d="M150 436c-88 0 -129 42 -129 103v30c0 39 15 67 45 85c30 19 66 28 109 28c75 0 169 -26 169 -123v-146c0 -30 -12 -58 -36 -83c-23 -25 -57 -37 -102 -37c-48 0 -109 4 -138 7l-22 3v87c61 -7 102 -11 121 -11c37 0 56 15 56 45v26c-21 -9 -45 -14 -73 -14zM171 497
c19 0 38 6 46 11l6 4v55c0 27 -14 41 -41 41s-40 -14 -40 -41v-32c0 -25 10 -38 29 -38z" />
    <glyph glyph-name="Euro" unicode="&#x20ac;" horiz-adv-x="572" 
d="M10 374v89h89v13c0 141 86 211 258 211c29 0 88 -4 178 -11v-121c-70 8 -127 12 -172 12c-95 0 -123 -28 -130 -104h246l-15 -89h-233v-73h224l-16 -89h-207c3 -39 14 -66 31 -81s51 -23 100 -23c20 0 44 1 73 3s53 4 72 6l29 3v-120c-90 -7 -150 -11 -180 -11
c-172 0 -258 70 -258 211v12h-89v89h89v73h-89z" />
    <glyph glyph-name="trademark" unicode="&#x2122;" horiz-adv-x="814" 
d="M342 594h-118v-298h-96v298h-118v82h332v-82zM557 499h5l82 177h99v-380h-95v94l5 120h-2l-56 -122h-71l-56 122h-2l5 -120v-94h-95v380h99z" />
    <glyph glyph-name="ohm" unicode="&#x2126;" horiz-adv-x="648" 
d="M643 0h-288v113c64 9 90 47 90 131v190c0 99 -38 132 -121 132s-121 -33 -121 -132v-190c0 -85 29 -123 90 -131v-113h-288v116h110c-29 17 -44 55 -44 114v246c0 73 24 127 72 160c48 34 108 51 181 51s133 -17 181 -51c48 -33 72 -87 72 -160v-246
c0 -58 -15 -96 -45 -114h111v-116z" />
    <glyph glyph-name="estimated" unicode="&#x212e;" horiz-adv-x="830" 
d="M775 311h-560v-175c63 -65 134 -97 212 -97c75 0 144 32 205 97h89c-83 -99 -174 -136 -306 -136c-98 0 -180 32 -247 95c-67 64 -100 142 -100 233c0 97 34 177 101 238c68 61 151 92 250 92c111 0 198 -33 261 -100c63 -66 95 -148 95 -247zM215 350h419v165
c-44 69 -129 104 -213 104c-87 0 -156 -35 -206 -104v-165z" />
    <glyph glyph-name="partialdiff" unicode="&#x2202;" horiz-adv-x="558" 
d="M287 429c35 0 67 -3 97 -9l6 56c1 13 2 23 2 29c0 44 -20 64 -85 64c-16 0 -40 -1 -72 -4c-31 -2 -59 -4 -83 -7l-35 -4l12 120c121 9 186 13 194 13c128 0 201 -43 201 -166c0 -8 -1 -21 -2 -38l-35 -332c-5 -41 -20 -74 -46 -99s-55 -42 -86 -51
c-31 -8 -66 -12 -104 -12c-72 0 -128 12 -171 56c-21 22 -32 51 -32 86c0 7 0 13 1 20l11 100c12 116 79 178 227 178zM268 310c-32 0 -52 -6 -61 -18c-8 -11 -14 -35 -18 -71l-3 -28c-1 -12 -2 -21 -2 -28c0 -45 20 -64 79 -64c69 0 90 23 97 91l10 97
c-26 14 -60 21 -102 21z" />
    <glyph glyph-name="increment" unicode="&#x2206;" horiz-adv-x="666" 
d="M658 0h-650l239 676h172zM328 555l-144 -430h297l-143 430h-10z" />
    <glyph glyph-name="product" unicode="&#x220f;" horiz-adv-x="698" 
d="M447 557h-196v-557h-132v557h-113v119h686v-119h-113v-557h-132v557z" />
    <glyph glyph-name="summation" unicode="&#x2211;" horiz-adv-x="448" 
d="M434 0h-413v103l195 235l-195 235v103h413v-118h-240l179 -220l-179 -220h240v-118z" />
    <glyph glyph-name="minus" unicode="&#x2212;" horiz-adv-x="510" 
d="M468 216h-426v117h426v-117z" />
    <glyph glyph-name="radical" unicode="&#x221a;" horiz-adv-x="535" 
d="M649 696h-158l-211 -696h-142l-146 396h133l81 -226l181 646h262v-120z" />
    <glyph glyph-name="infinity" unicode="&#x221e;" horiz-adv-x="772" 
d="M305 252l18 27l-18 28c-18 27 -42 41 -71 41h-26c-37 0 -55 -23 -55 -68c0 -46 18 -69 55 -69h26c29 0 53 14 71 41zM386 195l-6 -12c-16 -24 -22 -32 -46 -56c-23 -23 -53 -35 -88 -35h-73c-47 0 -82 17 -106 51c-24 35 -36 74 -36 118v37c0 44 12 83 36 117
c24 35 59 52 106 52h73c35 0 65 -12 88 -36c24 -23 30 -31 46 -55l6 -13l6 13c35 61 80 91 134 91h73c47 0 82 -17 106 -52c24 -34 36 -73 36 -117v-37c0 -44 -12 -83 -36 -118c-24 -34 -59 -51 -106 -51h-73c-35 0 -65 12 -89 35c-23 23 -30 33 -45 56zM449 279l18 -27
c18 -27 42 -41 71 -41h26c37 0 55 23 55 69c0 45 -18 68 -55 68h-26c-29 0 -53 -14 -71 -41z" />
    <glyph glyph-name="integral" unicode="&#x222b;" horiz-adv-x="337" 
d="M331 684v-118c-6 1 -14 1 -25 1c-55 0 -72 -22 -72 -65v-564c0 -109 -40 -164 -159 -164c-25 0 -48 2 -69 5v118c6 -1 14 -1 24 -1c55 0 73 22 73 65v564c0 109 40 164 159 164c17 0 40 -2 69 -5z" />
    <glyph glyph-name="approxequal" unicode="&#x2248;" horiz-adv-x="510" 
d="M383 368h120c0 -131 -52 -197 -157 -197c-38 0 -70 11 -97 33l-35 29c-15 11 -29 17 -43 17c-25 0 -40 -26 -43 -77h-120c0 131 52 197 157 197c36 0 68 -11 97 -34l34 -27c15 -12 30 -18 44 -18c25 0 40 26 43 77z" />
    <glyph glyph-name="notequal" unicode="&#x2260;" horiz-adv-x="510" 
d="M468 114h-228l-49 -140l-72 26l40 114h-117v119h160l29 82h-189v119h231l46 129l72 -25l-37 -104h114v-119h-157l-29 -82h186v-119z" />
    <glyph glyph-name="lessequal" unicode="&#x2264;" horiz-adv-x="510" 
d="M202 319l258 -40v-138l-410 126v103l410 126v-138zM460 0h-410v119h410v-119z" />
    <glyph glyph-name="greaterequal" unicode="&#x2265;" horiz-adv-x="510" 
d="M50 279l258 40l-258 39v138l410 -126v-103l-410 -126v138zM460 0h-410v119h410v-119z" />
    <glyph glyph-name="anglebracketleft" unicode="&#x3008;" horiz-adv-x="359" 
d="M261 -214l-250 472v10l250 472h142l-251 -475v-4l251 -475h-142z" />
    <glyph glyph-name="anglebracketright" unicode="&#x3009;" horiz-adv-x="359" 
d="M348 258l-250 -472h-142l251 475v4l-251 475h142l250 -472v-10z" />
    <glyph glyph-name="idotaccent" unicode="&#xe007;" horiz-adv-x="258" 
d="M195 0h-132v474h132v-474zM194 552h-130v128h130v-128z" />
    <glyph glyph-name="ampersand.alt" unicode="&#xe00e;" horiz-adv-x="514" 
d="M307 198h-105l-27 -27l-1 -34c-1 -25 22 -46 69 -46c44 0 64 25 64 50v57zM57 321v56c0 77 51 124 147 124l155 -8v-104c-64 5 -106 7 -126 7c-39 0 -50 -11 -50 -39v-45l20 -18h293v-96h-71v-83c0 -72 -72 -126 -189 -126c-57 0 -103 12 -137 36s-51 52 -51 83v52
c0 13 2 22 7 29l58 56l-50 47c-4 7 -6 16 -6 29z" />
    <glyph glyph-name="ampersand.smcp" unicode="&#xe200;" horiz-adv-x="514" 
d="M307 198h-105l-27 -27l-1 -34c-1 -25 22 -46 69 -46c44 0 64 25 64 50v57zM57 321v56c0 77 51 124 147 124l155 -8v-104c-64 5 -106 7 -126 7c-39 0 -50 -11 -50 -39v-45l20 -18h293v-96h-71v-83c0 -72 -72 -126 -189 -126c-57 0 -103 12 -137 36s-51 52 -51 83v52
c0 13 2 22 7 29l58 56l-50 47c-4 7 -6 16 -6 29z" />
    <glyph glyph-name="A.smcp" unicode="&#xe201;" horiz-adv-x="490" 
d="M376 0l-34 101h-194l-34 -101h-121l167 490h170l167 -490h-121zM240 390l-26 -90l-29 -91h120l-29 91l-26 90h-10z" />
    <glyph glyph-name="B.smcp" unicode="&#xe202;" horiz-adv-x="497" 
d="M448 380v-51c0 -13 -2 -22 -6 -29l-53 -52l62 -62c4 -7 6 -16 6 -29v-47c0 -73 -49 -110 -146 -110h-260v490h254c95 0 143 -37 143 -110zM323 311v41c0 22 -13 33 -38 33h-110v-94h128zM326 138v39l-24 24h-127v-96h111c27 0 40 11 40 33z" />
    <glyph glyph-name="C.smcp" unicode="&#xe203;" horiz-adv-x="441" 
d="M417 114v-114c-90 -7 -144 -11 -161 -11c-137 0 -205 50 -205 151v209c0 101 68 151 205 151c30 0 80 -3 151 -9v-115c-63 7 -106 10 -129 10c-38 0 -63 -5 -76 -15s-19 -32 -19 -65v-126c0 -63 20 -77 95 -77z" />
    <glyph glyph-name="D.smcp" unicode="&#xe204;" horiz-adv-x="512" 
d="M464 340v-190c0 -42 -14 -78 -41 -107s-62 -43 -103 -43h-269v490h269c41 0 76 -15 103 -44s41 -64 41 -106zM332 206v79c0 69 -11 92 -70 92h-87v-263h87c59 0 70 23 70 92z" />
    <glyph glyph-name="E.smcp" unicode="&#xe205;" horiz-adv-x="424" 
d="M404 0h-353v490h345v-118h-218v-79h176v-93h-176v-81h226v-119z" />
    <glyph glyph-name="F.smcp" unicode="&#xe206;" horiz-adv-x="398" 
d="M178 0h-127v490h350v-118h-223v-82h181v-107h-181v-183z" />
    <glyph glyph-name="G.smcp" unicode="&#xe207;" horiz-adv-x="511" 
d="M466 4c-110 -10 -180 -15 -210 -15c-137 0 -205 50 -205 151v209c0 101 68 151 205 151c41 0 97 -3 168 -9v-115c-75 7 -123 10 -146 10c-77 0 -100 -15 -100 -80v-126c0 -63 24 -77 100 -77l78 4v86h-98v105h208v-294z" />
    <glyph glyph-name="H.smcp" unicode="&#xe208;" horiz-adv-x="544" 
d="M493 0h-127v187h-188v-187h-127v490h127v-186h188v186h127v-490z" />
    <glyph glyph-name="I.smcp" unicode="&#xe209;" horiz-adv-x="248" 
d="M190 0h-132v490h132v-490z" />
    <glyph glyph-name="J.smcp" unicode="&#xe20a;" horiz-adv-x="248" 
d="M190 490v-529c-1 -7 -7 -15 -16 -24l-85 -87c-7 -4 -16 -6 -29 -6h-126v119h88l36 37v490h132z" />
    <glyph glyph-name="K.smcp" unicode="&#xe20b;" horiz-adv-x="452" 
d="M460 0h-142l-130 197h-10v-197h-127v490h127v-194h10l130 194h136l-161 -241z" />
    <glyph glyph-name="L.smcp" unicode="&#xe20c;" horiz-adv-x="407" 
d="M392 0h-341v490h129v-371h212v-119z" />
    <glyph glyph-name="M.smcp" unicode="&#xe20d;" horiz-adv-x="580" 
d="M285 259h10l102 231h132v-490h-127v116l5 161h-2l-76 -164h-78l-75 164h-2l4 -161v-116h-127v490h132z" />
    <glyph glyph-name="N.smcp" unicode="&#xe20e;" horiz-adv-x="544" 
d="M493 0h-132l-183 313v-313h-127v490h131l184 -314v314h127v-490z" />
    <glyph glyph-name="O.smcp" unicode="&#xe20f;" horiz-adv-x="538" 
d="M487 319v-143c0 -120 -85 -187 -218 -187s-218 68 -218 187v143c0 116 85 181 218 181s218 -65 218 -181zM178 292v-94c0 -67 30 -100 91 -100s91 33 91 100v94c0 66 -30 99 -91 99s-91 -33 -91 -99z" />
    <glyph glyph-name="P.smcp" unicode="&#xe210;" horiz-adv-x="453" 
d="M431 361v-75c0 -81 -63 -133 -148 -133h-105v-153h-127v490h235c85 0 145 -48 145 -129zM178 255h71c37 0 50 12 50 44v38c0 32 -13 44 -50 44h-71v-126z" />
    <glyph glyph-name="Q.smcp" unicode="&#xe211;" horiz-adv-x="538" 
d="M487 319v-143c0 -69 -27 -121 -80 -154l109 -168h-134l-89 136c-5 0 -19 -1 -24 -1c-133 0 -218 68 -218 187v143c0 116 85 181 218 181s218 -65 218 -181zM178 292v-94c0 -67 30 -100 91 -100s91 33 91 100v94c0 66 -30 99 -91 99s-91 -33 -91 -99z" />
    <glyph glyph-name="R.smcp" unicode="&#xe212;" horiz-adv-x="472" 
d="M431 361v-75c0 -49 -28 -94 -68 -111l106 -175h-142l-86 153h-63v-153h-127v490h235c85 0 145 -48 145 -129zM178 255h72c36 0 49 12 49 44v38c0 32 -13 44 -49 44h-72v-126z" />
    <glyph glyph-name="S.smcp" unicode="&#xe213;" horiz-adv-x="435" 
d="M403 168v-43c0 -91 -64 -136 -191 -136c-19 0 -43 1 -72 3c-29 1 -54 3 -74 5l-30 3v111c4 0 103 -16 167 -16c51 0 73 11 73 44v17c0 19 -12 30 -35 33l-97 13c-64 9 -110 59 -110 126v41c0 97 75 131 198 131c40 0 94 -4 122 -8l21 -2v-106c-64 7 -112 11 -144 11
c-47 0 -70 -12 -70 -36v-21c0 -21 12 -33 35 -36l99 -14c65 -9 108 -55 108 -120z" />
    <glyph glyph-name="T.smcp" unicode="&#xe214;" horiz-adv-x="422" 
d="M422 372h-150v-372h-122v372h-150v118h422v-118z" />
    <glyph glyph-name="U.smcp" unicode="&#xe215;" horiz-adv-x="538" 
d="M51 188v302h127v-292c0 -61 30 -92 91 -92s91 31 91 92v292h127v-302c0 -143 -78 -199 -218 -199s-218 56 -218 199z" />
    <glyph glyph-name="V.smcp" unicode="&#xe216;" horiz-adv-x="512" 
d="M261 151l94 339h142l-168 -490h-146l-168 490h142l94 -339h10z" />
    <glyph glyph-name="W.smcp" unicode="&#xe217;" horiz-adv-x="778" 
d="M473 0l-79 359h-10l-79 -359h-156l-133 490h132l69 -359h10l79 359h166l79 -359h10l69 359h132l-133 -490h-156z" />
    <glyph glyph-name="X.smcp" unicode="&#xe218;" horiz-adv-x="473" 
d="M15 490h135l87 -143l86 143h135l-154 -242v-4l154 -244h-135l-86 144l-87 -144h-135l154 244v4z" />
    <glyph glyph-name="Y.smcp" unicode="&#xe219;" horiz-adv-x="454" 
d="M232 321l84 169h131l-159 -287v-203h-122v203l-159 287h131l84 -169h10z" />
    <glyph glyph-name="Z.smcp" unicode="&#xe21a;" horiz-adv-x="407" 
d="M388 0h-364v117l162 181l77 81h-225v111h358v-118l-161 -179l-78 -81h231v-112z" />
    <glyph glyph-name="Aacute.smcp" unicode="&#xe221;" horiz-adv-x="490" 
d="M376 0l-34 101h-194l-34 -101h-121l167 490h170l167 -490h-121zM240 390l-26 -90l-29 -91h120l-29 91l-26 90h-10zM250 538h-117l78 150h147z" />
    <glyph glyph-name="Agrave.smcp" unicode="&#xe222;" horiz-adv-x="490" 
d="M376 0l-34 101h-194l-34 -101h-121l167 490h170l167 -490h-121zM240 390l-26 -90l-29 -91h120l-29 91l-26 90h-10zM358 538h-117l-108 150h147z" />
    <glyph glyph-name="Acircumflex.smcp" unicode="&#xe223;" horiz-adv-x="490" 
d="M376 0l-34 101h-194l-34 -101h-121l167 490h170l167 -490h-121zM240 390l-26 -90l-29 -91h120l-29 91l-26 90h-10zM185 538h-99l103 150h112l103 -150h-99l-60 78z" />
    <glyph glyph-name="Adieresis.smcp" unicode="&#xe224;" horiz-adv-x="490" 
d="M376 0l-34 101h-194l-34 -101h-121l167 490h170l167 -490h-121zM240 390l-26 -90l-29 -91h120l-29 91l-26 90h-10zM214 547h-131v134h131v-134zM407 547h-131v134h131v-134z" />
    <glyph glyph-name="Atilde.smcp" unicode="&#xe225;" horiz-adv-x="490" 
d="M376 0l-34 101h-194l-34 -101h-121l167 490h170l167 -490h-121zM240 390l-26 -90l-29 -91h120l-29 91l-26 90h-10zM247 564l-37 21c-7 2 -15 3 -24 3c-27 0 -41 -13 -42 -40h-96c4 83 52 134 120 134c27 0 53 -7 76 -20l37 -21c9 -2 17 -3 24 -3c27 0 41 13 42 40h96
c-4 -83 -52 -134 -120 -134c-29 0 -54 7 -76 20z" />
    <glyph glyph-name="Aring.smcp" unicode="&#xe226;" horiz-adv-x="490" 
d="M376 0l-34 101h-194l-34 -101h-121l167 490h170l167 -490h-121zM240 390l-26 -90l-29 -91h120l-29 91l-26 90h-10zM117 631c0 71 47 121 112 121h33c64 0 111 -52 111 -121c0 -72 -47 -121 -111 -121h-33c-65 0 -112 49 -112 121zM233 593h24c13 0 31 11 31 38
s-18 38 -31 38h-24c-15 0 -31 -11 -31 -38s16 -38 31 -38z" />
    <glyph glyph-name="Amacron.smcp" unicode="&#xe228;" horiz-adv-x="490" 
d="M376 0l-34 101h-194l-34 -101h-121l167 490h170l167 -490h-121zM240 390l-26 -90l-29 -91h120l-29 91l-26 90h-10zM112 556v114h266v-114h-266z" />
    <glyph glyph-name="Abreve.smcp" unicode="&#xe229;" horiz-adv-x="490" 
d="M376 0l-34 101h-194l-34 -101h-121l167 490h170l167 -490h-121zM240 390l-26 -90l-29 -91h120l-29 91l-26 90h-10zM272 523h-54c-38 0 -70 14 -95 42s-35 68 -30 121h94c0 -53 24 -75 56 -75h4c31 0 56 24 56 75h94c5 -53 -5 -93 -30 -121s-57 -42 -95 -42z" />
    <glyph glyph-name="Aogonek.smcp" unicode="&#xe22f;" horiz-adv-x="490" 
d="M376 0l-34 101h-194l-34 -101h-121l167 490h170l167 -490c-48 -23 -77 -41 -89 -61c-12 -21 -13 -30 -13 -53v-8c0 -15 14 -26 31 -26l62 9v-80c-31 -7 -59 -11 -84 -11c-85 0 -128 29 -128 86v23c0 47 33 88 100 121zM240 390l-26 -90l-29 -91h120l-29 91l-26 90h-10z
" />
    <glyph glyph-name="AE.smcp" unicode="&#xe231;" horiz-adv-x="706" 
d="M337 0v107h-163l-61 -107h-134l278 490h426v-118h-219v-79h172v-93h-172v-81h227v-119h-354zM328 376l-101 -177h110v177h-9z" />
    <glyph glyph-name="Cacute.smcp" unicode="&#xe234;" horiz-adv-x="441" 
d="M417 114v-114c-90 -7 -144 -11 -161 -11c-137 0 -205 50 -205 151v209c0 101 68 151 205 151c30 0 80 -3 151 -9v-115c-63 7 -106 10 -129 10c-38 0 -63 -5 -76 -15s-19 -32 -19 -65v-126c0 -63 20 -77 95 -77zM225 538h-117l78 150h147z" />
    <glyph glyph-name="Ccircumflex.smcp" unicode="&#xe235;" horiz-adv-x="441" 
d="M417 114v-114c-90 -7 -144 -11 -161 -11c-137 0 -205 50 -205 151v209c0 101 68 151 205 151c30 0 80 -3 151 -9v-115c-63 7 -106 10 -129 10c-38 0 -63 -5 -76 -15s-19 -32 -19 -65v-126c0 -63 20 -77 95 -77zM160 538h-99l103 150h112l103 -150h-99l-60 78z" />
    <glyph glyph-name="Ccaron.smcp" unicode="&#xe236;" horiz-adv-x="441" 
d="M417 114v-114c-90 -7 -144 -11 -161 -11c-137 0 -205 50 -205 151v209c0 101 68 151 205 151c30 0 80 -3 151 -9v-115c-63 7 -106 10 -129 10c-38 0 -63 -5 -76 -15s-19 -32 -19 -65v-126c0 -63 20 -77 95 -77zM59 688h111l50 -78l50 78h111l-103 -150h-116z" />
    <glyph glyph-name="Cdotaccent.smcp" unicode="&#xe237;" horiz-adv-x="441" 
d="M417 114v-114c-90 -7 -144 -11 -161 -11c-137 0 -205 50 -205 151v209c0 101 68 151 205 151c30 0 80 -3 151 -9v-115c-63 7 -106 10 -129 10c-38 0 -63 -5 -76 -15s-19 -32 -19 -65v-126c0 -63 20 -77 95 -77zM285 552h-130v128h130v-128z" />
    <glyph glyph-name="Ccedilla.smcp" unicode="&#xe238;" horiz-adv-x="441" 
d="M118 -219v73c29 -7 53 -10 70 -10c21 0 31 7 31 22v10c0 15 -9 21 -27 19l-40 34l47 63c-99 13 -148 62 -148 148v209c0 101 68 151 205 151c30 0 80 -3 151 -9v-115c-63 7 -106 10 -129 10c-38 0 -63 -5 -76 -15s-19 -32 -19 -65v-126c0 -63 20 -77 95 -77l139 11v-114
c-8 -1 -30 -2 -66 -5c-35 -3 -61 -5 -78 -6l-30 -40c48 3 79 -23 79 -66v-29c0 -57 -54 -84 -111 -84c-20 0 -57 5 -77 8z" />
    <glyph glyph-name="Dcaron.smcp" unicode="&#xe239;" horiz-adv-x="512" 
d="M464 340v-190c0 -42 -14 -78 -41 -107s-62 -43 -103 -43h-269v490h269c41 0 76 -15 103 -44s41 -64 41 -106zM332 206v79c0 69 -11 92 -70 92h-87v-263h87c59 0 70 23 70 92zM95 688h111l50 -78l50 78h111l-103 -150h-116z" />
    <glyph glyph-name="Dcroat.smcp" unicode="&#xe23c;" horiz-adv-x="512" 
d="M-5 200v89h56v201h269c41 0 76 -15 103 -44s41 -64 41 -106v-190c0 -42 -14 -78 -41 -107s-62 -43 -103 -43h-269v200h-56zM332 206v79c0 69 -11 92 -70 92h-87v-88h68v-89h-68v-86h87c59 0 70 23 70 92z" />
    <glyph glyph-name="Eacute.smcp" unicode="&#xe23d;" horiz-adv-x="424" 
d="M404 0h-353v490h345v-118h-218v-79h176v-93h-176v-81h226v-119zM217 538h-117l78 150h147z" />
    <glyph glyph-name="Egrave.smcp" unicode="&#xe23e;" horiz-adv-x="424" 
d="M404 0h-353v490h345v-118h-218v-79h176v-93h-176v-81h226v-119zM325 538h-117l-108 150h147z" />
    <glyph glyph-name="Ecircumflex.smcp" unicode="&#xe23f;" horiz-adv-x="424" 
d="M404 0h-353v490h345v-118h-218v-79h176v-93h-176v-81h226v-119zM152 538h-99l103 150h112l103 -150h-99l-60 78z" />
    <glyph glyph-name="Edieresis.smcp" unicode="&#xe240;" horiz-adv-x="424" 
d="M404 0h-353v490h345v-118h-218v-79h176v-93h-176v-81h226v-119zM181 547h-131v134h131v-134zM374 547h-131v134h131v-134z" />
    <glyph glyph-name="Ecaron.smcp" unicode="&#xe241;" horiz-adv-x="424" 
d="M404 0h-353v490h345v-118h-218v-79h176v-93h-176v-81h226v-119zM51 688h111l50 -78l50 78h111l-103 -150h-116z" />
    <glyph glyph-name="Emacron.smcp" unicode="&#xe242;" horiz-adv-x="424" 
d="M404 0h-353v490h345v-118h-218v-79h176v-93h-176v-81h226v-119zM79 556v114h266v-114h-266z" />
    <glyph glyph-name="Ebreve.smcp" unicode="&#xe243;" horiz-adv-x="424" 
d="M404 0h-353v490h345v-118h-218v-79h176v-93h-176v-81h226v-119zM239 523h-54c-38 0 -70 14 -95 42s-35 68 -30 121h94c0 -53 24 -75 56 -75h4c31 0 56 24 56 75h94c5 -53 -5 -93 -30 -121s-57 -42 -95 -42z" />
    <glyph glyph-name="Edotaccent.smcp" unicode="&#xe246;" horiz-adv-x="424" 
d="M404 0h-353v490h345v-118h-218v-79h176v-93h-176v-81h226v-119zM277 552h-130v128h130v-128z" />
    <glyph glyph-name="Eogonek.smcp" unicode="&#xe249;" horiz-adv-x="424" 
d="M300 0h-249v490h345v-118h-218v-79h176v-93h-176v-81h226v-119c-38 -22 -63 -41 -74 -57c-11 -17 -17 -36 -17 -57v-8c0 -15 14 -26 31 -26l62 9v-80c-31 -7 -59 -11 -84 -11c-84 0 -128 21 -128 81v23c0 51 38 95 106 126z" />
    <glyph glyph-name="Gcircumflex.smcp" unicode="&#xe24b;" horiz-adv-x="511" 
d="M466 4c-110 -10 -180 -15 -210 -15c-137 0 -205 50 -205 151v209c0 101 68 151 205 151c41 0 97 -3 168 -9v-115c-75 7 -123 10 -146 10c-77 0 -100 -15 -100 -80v-126c0 -63 24 -77 100 -77l78 4v86h-98v105h208v-294zM195 538h-99l103 150h112l103 -150h-99l-60 78z
" />
    <glyph glyph-name="Gbreve.smcp" unicode="&#xe24e;" horiz-adv-x="511" 
d="M466 4c-110 -10 -180 -15 -210 -15c-137 0 -205 50 -205 151v209c0 101 68 151 205 151c41 0 97 -3 168 -9v-115c-75 7 -123 10 -146 10c-77 0 -100 -15 -100 -80v-126c0 -63 24 -77 100 -77l78 4v86h-98v105h208v-294zM282 523h-54c-38 0 -70 14 -95 42s-35 68 -30 121
h94c0 -53 24 -75 56 -75h4c31 0 56 24 56 75h94c5 -53 -5 -93 -30 -121s-57 -42 -95 -42z" />
    <glyph glyph-name="Gdotaccent.smcp" unicode="&#xe24f;" horiz-adv-x="511" 
d="M466 4c-110 -10 -180 -15 -210 -15c-137 0 -205 50 -205 151v209c0 101 68 151 205 151c41 0 97 -3 168 -9v-115c-75 7 -123 10 -146 10c-77 0 -100 -15 -100 -80v-126c0 -63 24 -77 100 -77l78 4v86h-98v105h208v-294zM320 552h-130v128h130v-128z" />
    <glyph glyph-name="Gcommaaccent.smcp" unicode="&#xe250;" horiz-adv-x="511" 
d="M466 4c-110 -10 -180 -15 -210 -15c-137 0 -205 50 -205 151v209c0 101 68 151 205 151c41 0 97 -3 168 -9v-115c-75 7 -123 10 -146 10c-77 0 -100 -15 -100 -80v-126c0 -63 24 -77 100 -77l78 4v86h-98v105h208v-294zM181 -221l29 166h119l-51 -166h-97z" />
    <glyph glyph-name="Hcircumflex.smcp" unicode="&#xe253;" horiz-adv-x="544" 
d="M493 0h-127v187h-188v-187h-127v490h127v-186h188v186h127v-490zM212 538h-99l103 150h112l103 -150h-99l-60 78z" />
    <glyph glyph-name="Hbar.smcp" unicode="&#xe257;" horiz-adv-x="544" 
d="M493 0h-127v187h-188v-187h-127v490h127v-52h188v52h127v-490zM178 304h188v57h-188v-57z" />
    <glyph glyph-name="Iacute.smcp" unicode="&#xe258;" horiz-adv-x="248" 
d="M190 0h-132v490h132v-490zM129 538h-117l78 150h147z" />
    <glyph glyph-name="Igrave.smcp" unicode="&#xe259;" horiz-adv-x="248" 
d="M190 0h-132v490h132v-490zM237 538h-117l-108 150h147z" />
    <glyph glyph-name="Icircumflex.smcp" unicode="&#xe25a;" horiz-adv-x="248" 
d="M190 0h-132v490h132v-490zM64 538h-99l103 150h112l103 -150h-99l-60 78z" />
    <glyph glyph-name="Idieresis.smcp" unicode="&#xe25b;" horiz-adv-x="248" 
d="M190 0h-132v490h132v-490zM93 547h-131v134h131v-134zM286 547h-131v134h131v-134z" />
    <glyph glyph-name="Itilde.smcp" unicode="&#xe25c;" horiz-adv-x="248" 
d="M190 0h-132v490h132v-490zM126 564l-37 21c-7 2 -15 3 -24 3c-27 0 -41 -13 -42 -40h-96c4 83 52 134 120 134c27 0 53 -7 76 -20l37 -21c9 -2 17 -3 24 -3c27 0 41 13 42 40h96c-4 -83 -52 -134 -120 -134c-29 0 -54 7 -76 20z" />
    <glyph glyph-name="Imacron.smcp" unicode="&#xe25e;" horiz-adv-x="248" 
d="M190 0h-132v490h132v-490zM-9 556v114h266v-114h-266z" />
    <glyph glyph-name="Ibreve.smcp" unicode="&#xe25f;" horiz-adv-x="248" 
d="M190 0h-132v490h132v-490zM151 523h-54c-38 0 -70 14 -95 42s-35 68 -30 121h94c0 -53 24 -75 56 -75h4c31 0 56 24 56 75h94c5 -53 -5 -93 -30 -121s-57 -42 -95 -42z" />
    <glyph glyph-name="Idotaccent.smcp" unicode="&#xe262;" horiz-adv-x="248" 
d="M190 0h-132v490h132v-490zM189 552h-130v128h130v-128z" />
    <glyph glyph-name="Iogonek.smcp" unicode="&#xe264;" horiz-adv-x="248" 
d="M190 490v-490c-81 -35 -103 -70 -103 -110v-12c0 -17 11 -26 32 -26l61 9v-80c-31 -7 -59 -11 -84 -11c-84 0 -128 21 -128 81v23c0 52 30 94 90 125v491h132z" />
    <glyph glyph-name="Jcircumflex.smcp" unicode="&#xe265;" horiz-adv-x="248" 
d="M190 490v-529c-1 -7 -7 -15 -16 -24l-85 -87c-7 -4 -16 -6 -29 -6h-126v119h88l36 37v490h132zM64 538h-99l103 150h112l103 -150h-99l-60 78z" />
    <glyph glyph-name="Kcommaaccent.smcp" unicode="&#xe268;" horiz-adv-x="452" 
d="M460 0h-142l-130 197h-10v-197h-127v490h127v-194h10l130 194h136l-161 -241zM152 -221l29 166h119l-51 -166h-97z" />
    <glyph glyph-name="Lacute.smcp" unicode="&#xe26b;" horiz-adv-x="407" 
d="M392 0h-341v490h129v-371h212v-119zM208 538h-117l78 150h147z" />
    <glyph glyph-name="Lcaron.smcp" unicode="&#xe26c;" horiz-adv-x="407" 
d="M392 0h-341v490h129v-371h212v-119zM243 329l24 161h125l-55 -161h-94z" />
    <glyph glyph-name="Lcommaaccent.smcp" unicode="&#xe26d;" horiz-adv-x="407" 
d="M392 0h-341v490h129v-371h212v-119zM129 -221l29 166h119l-51 -166h-97z" />
    <glyph glyph-name="Ldot.smcp" unicode="&#xe271;" horiz-adv-x="407" 
d="M392 0h-341v490h129v-371h212v-119zM367 210h-130v128h130v-128z" />
    <glyph glyph-name="Lslash.smcp" unicode="&#xe272;" horiz-adv-x="407" 
d="M392 0h-341v174l-44 -25l-38 66l82 46v229h129v-157l66 37l38 -64l-104 -59v-128h212v-119z" />
    <glyph glyph-name="Nacute.smcp" unicode="&#xe276;" horiz-adv-x="544" 
d="M493 0h-132l-183 313v-313h-127v490h131l184 -314v314h127v-490zM277 538h-117l78 150h147z" />
    <glyph glyph-name="Ntilde.smcp" unicode="&#xe279;" horiz-adv-x="544" 
d="M493 0h-132l-183 313v-313h-127v490h131l184 -314v314h127v-490zM274 564l-37 21c-7 2 -15 3 -24 3c-27 0 -41 -13 -42 -40h-96c4 83 52 134 120 134c27 0 53 -7 76 -20l37 -21c9 -2 17 -3 24 -3c27 0 41 13 42 40h96c-4 -83 -52 -134 -120 -134c-29 0 -54 7 -76 20z" />
    <glyph glyph-name="Ncaron.smcp" unicode="&#xe27a;" horiz-adv-x="544" 
d="M493 0h-132l-183 313v-313h-127v490h131l184 -314v314h127v-490zM111 688h111l50 -78l50 78h111l-103 -150h-116z" />
    <glyph glyph-name="Ncommaaccent.smcp" unicode="&#xe27d;" horiz-adv-x="544" 
d="M493 0h-132l-183 313v-313h-127v490h131l184 -314v314h127v-490zM198 -221l29 166h119l-51 -166h-97z" />
    <glyph glyph-name="Oacute.smcp" unicode="&#xe281;" horiz-adv-x="538" 
d="M487 319v-143c0 -120 -85 -187 -218 -187s-218 68 -218 187v143c0 116 85 181 218 181s218 -65 218 -181zM178 292v-94c0 -67 30 -100 91 -100s91 33 91 100v94c0 66 -30 99 -91 99s-91 -33 -91 -99zM274 538h-117l78 150h147z" />
    <glyph glyph-name="Ograve.smcp" unicode="&#xe282;" horiz-adv-x="538" 
d="M487 319v-143c0 -120 -85 -187 -218 -187s-218 68 -218 187v143c0 116 85 181 218 181s218 -65 218 -181zM178 292v-94c0 -67 30 -100 91 -100s91 33 91 100v94c0 66 -30 99 -91 99s-91 -33 -91 -99zM382 538h-117l-108 150h147z" />
    <glyph glyph-name="Ocircumflex.smcp" unicode="&#xe283;" horiz-adv-x="538" 
d="M487 319v-143c0 -120 -85 -187 -218 -187s-218 68 -218 187v143c0 116 85 181 218 181s218 -65 218 -181zM178 292v-94c0 -67 30 -100 91 -100s91 33 91 100v94c0 66 -30 99 -91 99s-91 -33 -91 -99zM209 538h-99l103 150h112l103 -150h-99l-60 78z" />
    <glyph glyph-name="Odieresis.smcp" unicode="&#xe284;" horiz-adv-x="538" 
d="M487 319v-143c0 -120 -85 -187 -218 -187s-218 68 -218 187v143c0 116 85 181 218 181s218 -65 218 -181zM178 292v-94c0 -67 30 -100 91 -100s91 33 91 100v94c0 66 -30 99 -91 99s-91 -33 -91 -99zM238 547h-131v134h131v-134zM431 547h-131v134h131v-134z" />
    <glyph glyph-name="Otilde.smcp" unicode="&#xe285;" horiz-adv-x="538" 
d="M487 319v-143c0 -120 -85 -187 -218 -187s-218 68 -218 187v143c0 116 85 181 218 181s218 -65 218 -181zM178 292v-94c0 -67 30 -100 91 -100s91 33 91 100v94c0 66 -30 99 -91 99s-91 -33 -91 -99zM271 564l-37 21c-7 2 -15 3 -24 3c-27 0 -41 -13 -42 -40h-96
c4 83 52 134 120 134c27 0 53 -7 76 -20l37 -21c9 -2 17 -3 24 -3c27 0 41 13 42 40h96c-4 -83 -52 -134 -120 -134c-29 0 -54 7 -76 20z" />
    <glyph glyph-name="Omacron.smcp" unicode="&#xe287;" horiz-adv-x="538" 
d="M487 319v-143c0 -120 -85 -187 -218 -187s-218 68 -218 187v143c0 116 85 181 218 181s218 -65 218 -181zM178 292v-94c0 -67 30 -100 91 -100s91 33 91 100v94c0 66 -30 99 -91 99s-91 -33 -91 -99zM136 556v114h266v-114h-266z" />
    <glyph glyph-name="Obreve.smcp" unicode="&#xe288;" horiz-adv-x="538" 
d="M487 319v-143c0 -120 -85 -187 -218 -187s-218 68 -218 187v143c0 116 85 181 218 181s218 -65 218 -181zM178 292v-94c0 -67 30 -100 91 -100s91 33 91 100v94c0 66 -30 99 -91 99s-91 -33 -91 -99zM296 523h-54c-38 0 -70 14 -95 42s-35 68 -30 121h94
c0 -53 24 -75 56 -75h4c31 0 56 24 56 75h94c5 -53 -5 -93 -30 -121s-57 -42 -95 -42z" />
    <glyph glyph-name="Ohungarumlaut.smcp" unicode="&#xe28a;" horiz-adv-x="538" 
d="M487 319v-143c0 -120 -85 -187 -218 -187s-218 68 -218 187v143c0 116 85 181 218 181s218 -65 218 -181zM178 292v-94c0 -67 30 -100 91 -100s91 33 91 100v94c0 66 -30 99 -91 99s-91 -33 -91 -99zM79 523l91 179h129l-111 -179h-109zM239 523l91 179h129l-111 -179
h-109z" />
    <glyph glyph-name="Oslash.smcp" unicode="&#xe295;" horiz-adv-x="538" 
d="M269 500c31 0 58 -3 81 -10l38 75l68 -34l-36 -72c45 -33 67 -79 67 -140v-143c0 -120 -85 -187 -218 -187c-27 0 -53 3 -80 10l-44 -89l-68 34l43 86c-46 33 -69 81 -69 146v143c0 116 85 181 218 181zM269 391c-61 0 -91 -33 -91 -99v-94c0 -18 2 -32 5 -42l116 231
c-9 3 -19 4 -30 4zM360 198v94c0 13 -2 26 -5 38l-115 -230c6 -1 16 -2 29 -2c61 0 91 33 91 100z" />
    <glyph glyph-name="OE.smcp" unicode="&#xe298;" horiz-adv-x="742" 
d="M265 500c29 0 58 -3 87 -10h367v-118h-226v-69h184v-113h-184v-71h234v-119h-373c-27 -7 -57 -11 -89 -11c-133 0 -214 67 -214 187v143c0 116 82 181 214 181zM272 391c-59 0 -89 -28 -89 -99v-94c0 -67 30 -100 89 -100s89 33 89 100v94c0 66 -30 99 -89 99z" />
    <glyph glyph-name="Racute.smcp" unicode="&#xe29a;" horiz-adv-x="464" 
d="M237 538h-117l78 150h147zM431 361v-75c0 -49 -28 -94 -68 -111l106 -175h-142l-86 153h-63v-153h-127v490h235c85 0 145 -48 145 -129zM178 255h72c36 0 49 12 49 44v38c0 32 -13 44 -49 44h-72v-126z" />
    <glyph glyph-name="Rcaron.smcp" unicode="&#xe29b;" horiz-adv-x="464" 
d="M71 688h111l50 -78l50 78h111l-103 -150h-116zM431 361v-75c0 -49 -28 -94 -68 -111l106 -175h-142l-86 153h-63v-153h-127v490h235c85 0 145 -48 145 -129zM178 255h72c36 0 49 12 49 44v38c0 32 -13 44 -49 44h-72v-126z" />
    <glyph glyph-name="Rcommaaccent.smcp" unicode="&#xe29e;" horiz-adv-x="464" 
d="M158 -221l29 166h119l-51 -166h-97zM431 361v-75c0 -49 -28 -94 -68 -111l106 -175h-142l-86 153h-63v-153h-127v490h235c85 0 145 -48 145 -129zM178 255h72c36 0 49 12 49 44v38c0 32 -13 44 -49 44h-72v-126z" />
    <glyph glyph-name="Sacute.smcp" unicode="&#xe302;" horiz-adv-x="435" 
d="M403 168v-43c0 -91 -64 -136 -191 -136c-19 0 -43 1 -72 3c-29 1 -54 3 -74 5l-30 3v111c4 0 103 -16 167 -16c51 0 73 11 73 44v17c0 19 -12 30 -35 33l-97 13c-64 9 -110 59 -110 126v41c0 97 75 131 198 131c40 0 94 -4 122 -8l21 -2v-106c-64 7 -112 11 -144 11
c-47 0 -70 -12 -70 -36v-21c0 -21 12 -33 35 -36l99 -14c65 -9 108 -55 108 -120zM222 538h-117l78 150h147z" />
    <glyph glyph-name="Scircumflex.smcp" unicode="&#xe303;" horiz-adv-x="435" 
d="M403 168v-43c0 -91 -64 -136 -191 -136c-19 0 -43 1 -72 3c-29 1 -54 3 -74 5l-30 3v111c4 0 103 -16 167 -16c51 0 73 11 73 44v17c0 19 -12 30 -35 33l-97 13c-64 9 -110 59 -110 126v41c0 97 75 131 198 131c40 0 94 -4 122 -8l21 -2v-106c-64 7 -112 11 -144 11
c-47 0 -70 -12 -70 -36v-21c0 -21 12 -33 35 -36l99 -14c65 -9 108 -55 108 -120zM157 538h-99l103 150h112l103 -150h-99l-60 78z" />
    <glyph glyph-name="Scaron.smcp" unicode="&#xe304;" horiz-adv-x="435" 
d="M403 168v-43c0 -91 -64 -136 -191 -136c-19 0 -43 1 -72 3c-29 1 -54 3 -74 5l-30 3v111c4 0 103 -16 167 -16c51 0 73 11 73 44v17c0 19 -12 30 -35 33l-97 13c-64 9 -110 59 -110 126v41c0 97 75 131 198 131c40 0 94 -4 122 -8l21 -2v-106c-64 7 -112 11 -144 11
c-47 0 -70 -12 -70 -36v-21c0 -21 12 -33 35 -36l99 -14c65 -9 108 -55 108 -120zM56 688h111l50 -78l50 78h111l-103 -150h-116z" />
    <glyph glyph-name="Scommaaccent.smcp" unicode="&#xe305;" horiz-adv-x="435" 
d="M403 168v-43c0 -91 -64 -136 -191 -136c-19 0 -43 1 -72 3c-29 1 -54 3 -74 5l-30 3v111c4 0 103 -16 167 -16c51 0 73 11 73 44v17c0 19 -12 30 -35 33l-97 13c-64 9 -110 59 -110 126v41c0 97 75 131 198 131c40 0 94 -4 122 -8l21 -2v-106c-64 7 -112 11 -144 11
c-47 0 -70 -12 -70 -36v-21c0 -21 12 -33 35 -36l99 -14c65 -9 108 -55 108 -120zM143 -221l29 166h119l-51 -166h-97z" />
    <glyph glyph-name="Scedilla.smcp" unicode="&#xe306;" horiz-adv-x="435" 
d="M115 -219v73c29 -7 53 -10 70 -10c21 0 31 7 31 22v10c0 15 -9 21 -27 19l-40 34l44 60l-157 11v111c4 0 103 -16 167 -16c51 0 73 11 73 44v17c0 19 -12 30 -35 33l-97 13c-64 9 -110 59 -110 126v41c0 97 75 131 198 131c40 0 94 -4 122 -8l21 -2v-106
c-64 7 -112 11 -144 11c-47 0 -70 -12 -70 -36v-21c0 -21 12 -33 35 -36l99 -14c65 -9 108 -55 108 -120v-43c0 -75 -43 -119 -130 -132l-33 -44c48 3 79 -23 79 -66v-29c0 -57 -54 -84 -111 -84c-20 0 -57 5 -78 8z" />
    <glyph glyph-name="Tcaron.smcp" unicode="&#xe309;" horiz-adv-x="422" 
d="M422 372h-150v-372h-122v372h-150v118h422v-118zM50 688h111l50 -78l50 78h111l-103 -150h-116z" />
    <glyph glyph-name="Tcommaaccent.smcp" unicode="&#xe30a;" horiz-adv-x="422" 
d="M422 372h-150v-372h-122v372h-150v118h422v-118zM137 -221l29 166h119l-51 -166h-97z" />
    <glyph glyph-name="Tbar.smcp" unicode="&#xe30d;" horiz-adv-x="422" 
d="M422 372h-150v-97h109v-93h-109v-182h-122v182h-109v93h109v97h-150v118h422v-118z" />
    <glyph glyph-name="Uacute.smcp" unicode="&#xe30e;" horiz-adv-x="538" 
d="M51 188v302h127v-292c0 -61 30 -92 91 -92s91 31 91 92v292h127v-302c0 -143 -78 -199 -218 -199s-218 56 -218 199zM274 538h-117l78 150h147z" />
    <glyph glyph-name="Ugrave.smcp" unicode="&#xe30f;" horiz-adv-x="538" 
d="M51 188v302h127v-292c0 -61 30 -92 91 -92s91 31 91 92v292h127v-302c0 -143 -78 -199 -218 -199s-218 56 -218 199zM382 538h-117l-108 150h147z" />
    <glyph glyph-name="Ucircumflex.smcp" unicode="&#xe310;" horiz-adv-x="538" 
d="M51 188v302h127v-292c0 -61 30 -92 91 -92s91 31 91 92v292h127v-302c0 -143 -78 -199 -218 -199s-218 56 -218 199zM209 538h-99l103 150h112l103 -150h-99l-60 78z" />
    <glyph glyph-name="Udieresis.smcp" unicode="&#xe311;" horiz-adv-x="538" 
d="M51 188v302h127v-292c0 -61 30 -92 91 -92s91 31 91 92v292h127v-302c0 -143 -78 -199 -218 -199s-218 56 -218 199zM238 547h-131v134h131v-134zM431 547h-131v134h131v-134z" />
    <glyph glyph-name="Utilde.smcp" unicode="&#xe312;" horiz-adv-x="538" 
d="M51 188v302h127v-292c0 -61 30 -92 91 -92s91 31 91 92v292h127v-302c0 -143 -78 -199 -218 -199s-218 56 -218 199zM271 564l-37 21c-7 2 -15 3 -24 3c-27 0 -41 -13 -42 -40h-96c4 83 52 134 120 134c27 0 53 -7 76 -20l37 -21c9 -2 17 -3 24 -3c27 0 41 13 42 40h96
c-4 -83 -52 -134 -120 -134c-29 0 -54 7 -76 20z" />
    <glyph glyph-name="Uring.smcp" unicode="&#xe313;" horiz-adv-x="538" 
d="M51 188v302h127v-292c0 -61 30 -92 91 -92s91 31 91 92v292h127v-302c0 -143 -78 -199 -218 -199s-218 56 -218 199zM141 631c0 71 47 121 112 121h33c64 0 111 -52 111 -121c0 -72 -47 -121 -111 -121h-33c-65 0 -112 49 -112 121zM257 593h24c13 0 31 11 31 38
s-18 38 -31 38h-24c-15 0 -31 -11 -31 -38s16 -38 31 -38z" />
    <glyph glyph-name="Umacron.smcp" unicode="&#xe315;" horiz-adv-x="538" 
d="M51 188v302h127v-292c0 -61 30 -92 91 -92s91 31 91 92v292h127v-302c0 -143 -78 -199 -218 -199s-218 56 -218 199zM136 556v114h266v-114h-266z" />
    <glyph glyph-name="Ubreve.smcp" unicode="&#xe316;" horiz-adv-x="538" 
d="M51 188v302h127v-292c0 -61 30 -92 91 -92s91 31 91 92v292h127v-302c0 -143 -78 -199 -218 -199s-218 56 -218 199zM296 523h-54c-38 0 -70 14 -95 42s-35 68 -30 121h94c0 -53 24 -75 56 -75h4c31 0 56 24 56 75h94c5 -53 -5 -93 -30 -121s-57 -42 -95 -42z" />
    <glyph glyph-name="Uhungarumlaut.smcp" unicode="&#xe318;" horiz-adv-x="538" 
d="M51 188v302h127v-292c0 -61 30 -92 91 -92s91 31 91 92v292h127v-302c0 -143 -78 -199 -218 -199s-218 56 -218 199zM79 523l91 179h129l-111 -179h-109zM239 523l91 179h129l-111 -179h-109z" />
    <glyph glyph-name="Uogonek.smcp" unicode="&#xe31b;" horiz-adv-x="538" 
d="M487 490v-302c0 -104 -44 -153 -125 -188c-36 -25 -59 -45 -70 -60c-10 -15 -15 -33 -15 -53v-8c0 -15 14 -27 31 -27l62 9v-80c-31 -7 -59 -11 -84 -11c-84 0 -128 24 -128 88v15c0 47 29 86 86 117c-124 7 -193 63 -193 198v302h127v-292c0 -61 30 -92 91 -92
s91 31 91 92v292h127z" />
    <glyph glyph-name="Wcircumflex.smcp" unicode="&#xe31f;" horiz-adv-x="778" 
d="M473 0l-79 359h-10l-79 -359h-156l-133 490h132l69 -359h10l79 359h166l79 -359h10l69 359h132l-133 -490h-156zM329 538h-99l103 150h112l103 -150h-99l-60 78z" />
    <glyph glyph-name="Yacute.smcp" unicode="&#xe321;" horiz-adv-x="454" 
d="M232 321l84 169h131l-159 -287v-203h-122v203l-159 287h131l84 -169h10zM232 538h-117l78 150h147z" />
    <glyph glyph-name="Ycircumflex.smcp" unicode="&#xe323;" horiz-adv-x="454" 
d="M232 321l84 169h131l-159 -287v-203h-122v203l-159 287h131l84 -169h10zM167 538h-99l103 150h112l103 -150h-99l-60 78z" />
    <glyph glyph-name="Ydieresis.smcp" unicode="&#xe324;" horiz-adv-x="454" 
d="M232 321l84 169h131l-159 -287v-203h-122v203l-159 287h131l84 -169h10zM196 547h-131v134h131v-134zM389 547h-131v134h131v-134z" />
    <glyph glyph-name="IJ.smcp" unicode="&#xe327;" horiz-adv-x="506" 
d="M190 0h-132v490h132v-490zM448 490v-529c-1 -7 -7 -15 -16 -24l-85 -87c-7 -4 -16 -6 -29 -6h-126v119h88l36 37v490h132z" />
    <glyph glyph-name="Zacute.smcp" unicode="&#xe328;" horiz-adv-x="407" 
d="M388 0h-364v117l162 181l77 81h-225v111h358v-118l-161 -179l-78 -81h231v-112zM208 538h-117l78 150h147z" />
    <glyph glyph-name="Zcaron.smcp" unicode="&#xe329;" horiz-adv-x="407" 
d="M388 0h-364v117l162 181l77 81h-225v111h358v-118l-161 -179l-78 -81h231v-112zM42 688h111l50 -78l50 78h111l-103 -150h-116z" />
    <glyph glyph-name="Zdotaccent.smcp" unicode="&#xe32a;" horiz-adv-x="407" 
d="M388 0h-364v117l162 181l77 81h-225v111h358v-118l-161 -179l-78 -81h231v-112zM268 552h-130v128h130v-128z" />
    <glyph glyph-name="Eng.smcp" unicode="&#xe32b;" horiz-adv-x="544" 
d="M493 490v-529c-1 -7 -7 -15 -16 -24l-85 -87c-7 -4 -16 -6 -29 -6h-126v119h88l36 37l-183 313v-313h-127v490h131l184 -314v314h127z" />
    <glyph glyph-name="Eth.smcp" unicode="&#xe32c;" horiz-adv-x="512" 
d="M-5 200v89h56v201h269c41 0 76 -15 103 -44s41 -64 41 -106v-190c0 -42 -14 -78 -41 -107s-62 -43 -103 -43h-269v200h-56zM332 206v79c0 69 -11 92 -70 92h-87v-88h68v-89h-68v-86h87c59 0 70 23 70 92z" />
    <glyph glyph-name="Thorn.smcp" unicode="&#xe32d;" horiz-adv-x="453" 
d="M431 297v-75c0 -81 -60 -133 -145 -133h-103v-89h-132v490h132v-64h103c85 0 145 -48 145 -129zM183 206h70c36 0 46 11 46 44v13c0 33 -10 44 -46 44h-70v-101z" />
    <glyph glyph-name="ordfeminine.smcp" unicode="&#xe351;" horiz-adv-x="406" 
d="M293 307l-23 78h-134l-23 -78h-108l128 369h140l128 -369h-108zM199 590l-34 -117h75l-33 117h-8z" />
    <glyph glyph-name="ordmasculine.smcp" unicode="&#xe352;" horiz-adv-x="452" 
d="M412 519v-61c0 -116 -74 -166 -186 -166s-186 50 -186 166v61c0 116 74 165 186 165s186 -49 186 -165zM150 508v-39c0 -69 25 -91 76 -91s76 22 76 91v39c0 69 -27 92 -76 92s-76 -23 -76 -92z" />
    <glyph glyph-name="a.superior" unicode="&#xe361;" horiz-adv-x="403" 
d="M247 307v52l-66 -58c-9 -3 -19 -4 -31 -4c-76 0 -123 46 -123 111v19c0 65 44 100 132 105l88 5v23c0 31 -11 39 -52 39l-135 -8v83c81 5 131 8 148 8c99 0 149 -42 149 -126v-249h-110zM247 411v53l-75 -5c-29 -2 -44 -14 -44 -35v-6c0 -18 11 -27 33 -27c7 0 18 2 34 6
z" />
    <glyph glyph-name="o.superior" unicode="&#xe36e;" horiz-adv-x="440" 
d="M395 551v-127c0 -46 -17 -79 -52 -99c-34 -20 -75 -30 -123 -30s-89 10 -124 30c-34 20 -51 53 -51 99v127c0 80 62 131 175 131s175 -51 175 -131zM155 542v-103c0 -39 22 -58 65 -58s65 19 65 58v103c0 39 -22 58 -65 58s-65 -19 -65 -58z" />
    <glyph glyph-name="invertedbreve" unicode="&#xe411;" 
d="M128 686h54c38 0 70 -14 95 -42s35 -68 30 -121h-94c0 51 -25 75 -56 75h-4c-32 0 -56 -22 -56 -75h-94c-5 53 5 93 30 121s57 42 95 42z" />
    <glyph glyph-name="caronSlovak" unicode="&#xe413;" 
d="M84 527l24 161h125l-55 -161h-94z" />
    <glyph glyph-name="commaaccent" unicode="&#xe414;" 
d="M81 -221l29 166h119l-51 -166h-97z" />
    <glyph glyph-name="altcedilla" unicode="&#xe416;" 
d="M55 -219v73c29 -7 53 -10 70 -10c21 0 31 7 31 22v10c0 15 -12 22 -37 22c-3 0 -10 -1 -14 -1l-19 38c16 18 40 27 73 27c53 0 100 -30 100 -79v-29c0 -57 -54 -84 -111 -84c-20 0 -57 5 -78 8z" />
    <glyph glyph-name="grave.cap" unicode="&#xe421;" 
d="M265 740h-117l-108 150h147z" />
    <glyph glyph-name="acute.cap" unicode="&#xe422;" 
d="M162 740h-117l78 150h147z" />
    <glyph glyph-name="circumflex.cap" unicode="&#xe423;" 
d="M95 740h-99l103 150h112l103 -150h-99l-60 78z" />
    <glyph glyph-name="tilde.cap" unicode="&#xe424;" 
d="M157 766l-37 21c-7 2 -15 3 -24 3c-27 0 -41 -13 -42 -40h-96c4 83 52 134 120 134c27 0 53 -7 76 -20l37 -21c9 -2 17 -3 24 -3c27 0 41 13 42 40h96c-4 -83 -52 -134 -120 -134c-29 0 -54 7 -76 20z" />
    <glyph glyph-name="macron.cap" unicode="&#xe425;" 
d="M22 758v114h266v-114h-266z" />
    <glyph glyph-name="breve.cap" unicode="&#xe426;" 
d="M182 725h-54c-38 0 -70 14 -95 42s-35 68 -30 121h94c0 -53 24 -75 56 -75h4c31 0 56 24 56 75h94c5 -53 -5 -93 -30 -121s-57 -42 -95 -42z" />
    <glyph glyph-name="invertedbreve.cap" unicode="&#xe427;" 
d="M128 888h54c69 0 126 -48 126 -139c0 -11 0 -19 -1 -24h-94c0 51 -25 75 -56 75h-4c-32 0 -56 -22 -56 -75h-94c-1 5 -1 13 -1 24c0 91 57 139 126 139z" />
    <glyph glyph-name="dotaccent.cap" unicode="&#xe428;" 
d="M220 754h-130v128h130v-128z" />
    <glyph glyph-name="dieresis.cap" unicode="&#xe429;" 
d="M124 749h-131v134h131v-134zM317 749h-131v134h131v-134z" />
    <glyph glyph-name="ring.cap" unicode="&#xe42a;" 
d="M27 833c0 71 47 121 112 121h33c64 0 111 -52 111 -121c0 -72 -47 -121 -111 -121h-33c-65 0 -112 49 -112 121zM143 795h24c13 0 31 11 31 38s-18 38 -31 38h-24c-15 0 -31 -11 -31 -38s16 -38 31 -38z" />
    <glyph glyph-name="hungarumlaut.cap" unicode="&#xe42b;" 
d="M-40 725l91 179h129l-111 -179h-109zM120 725l91 179h129l-111 -179h-109z" />
    <glyph glyph-name="caron.cap" unicode="&#xe42d;" 
d="M-6 890h111l50 -78l50 78h111l-103 -150h-116z" />
    <glyph glyph-name="commaaccent.cap" unicode="&#xe42e;" 
d="M83 -230l28 195h134l-48 -195h-114z" />
    <glyph glyph-name="exclamdown.cap" unicode="&#xe441;" horiz-adv-x="286" 
d="M87 465h112l13 -158v-307h-138v307zM73 676h140v-144h-140v144z" />
    <glyph glyph-name="exclam.smcp" unicode="&#xe442;" horiz-adv-x="286" 
d="M199 167h-112l-13 143v180h138v-180zM210 0h-134v110h134v-110z" />
    <glyph glyph-name="exclamdown.smcp" unicode="&#xe443;" horiz-adv-x="286" 
d="M87 323h112l13 -143v-180h-138v180zM76 490h134v-110h-134v110z" />
    <glyph glyph-name="questiondown.cap" unicode="&#xe444;" horiz-adv-x="415" 
d="M186 411v54h132v-71c0 -35 -15 -63 -44 -83l-66 -44c-31 -21 -48 -34 -52 -40c-4 -7 -6 -18 -6 -33v-22c0 -45 17 -64 77 -64l153 11v-119c-80 -7 -140 -11 -180 -11c-121 0 -181 42 -181 125v88c0 49 14 79 35 98c15 12 15 12 32 23c9 6 14 10 16 11l60 40
c16 10 24 22 24 37zM185 676h134v-144h-134v144z" />
    <glyph glyph-name="question.smcp" unicode="&#xe445;" horiz-adv-x="353" 
d="M209 177v-10h-129v38c0 33 10 47 39 67l46 31c33 23 35 23 39 43v17c0 25 -9 31 -41 31c-23 0 -71 -5 -99 -8l-22 -3v107c69 7 121 10 157 10c91 0 136 -33 136 -98v-56c0 -16 -1 -29 -6 -40c-4 -11 -4 -15 -15 -24c-9 -8 -7 -6 -23 -17c-7 -5 -12 -8 -14 -9l-51 -33
c-11 -7 -14 -13 -16 -22c-1 -5 -1 -16 -1 -24zM212 0h-134v110h134v-110z" />
    <glyph glyph-name="questiondown.smcp" unicode="&#xe446;" horiz-adv-x="353" 
d="M144 323v10h129v-38c0 -33 -10 -47 -39 -67l-46 -31c-33 -23 -35 -23 -39 -43v-17c0 -25 9 -31 41 -31c23 0 71 5 100 8l21 3v-107c-69 -7 -121 -10 -157 -10c-91 0 -136 33 -136 98v56c0 34 7 51 20 63c11 9 8 8 23 17c8 5 13 9 15 10l51 33c11 6 14 13 16 21
c1 6 1 17 1 25zM141 500h134v-110h-134v110z" />
    <glyph glyph-name="guilsinglleft.cap" unicode="&#xe451;" horiz-adv-x="346" 
d="M165 305v-10l131 -133l-74 -76l-194 196v36l194 196l74 -76z" />
    <glyph glyph-name="guilsinglright.cap" unicode="&#xe452;" horiz-adv-x="346" 
d="M181 295v10l-131 133l74 76l194 -196v-36l-194 -196l-74 76z" />
    <glyph glyph-name="guillemotleft.cap" unicode="&#xe453;" horiz-adv-x="562" 
d="M155 305v-10l136 -138l-69 -71l-194 196v36l194 196l69 -70zM376 305v-10l136 -138l-69 -71l-194 196v36l194 196l69 -70z" />
    <glyph glyph-name="guillemotright.cap" unicode="&#xe454;" horiz-adv-x="562" 
d="M407 295v10l-136 139l69 70l194 -196v-36l-194 -196l-69 71zM186 295v10l-136 139l69 70l194 -196v-36l-194 -196l-69 71z" />
    <glyph glyph-name="slash.cap" unicode="&#xe461;" horiz-adv-x="301" 
d="M340 696l-263 -720h-116l263 720h116z" />
    <glyph glyph-name="backslash.cap" unicode="&#xe462;" horiz-adv-x="301" 
d="M224 -24l-263 720h116l263 -720h-116z" />
    <glyph glyph-name="bar.cap" unicode="&#xe463;" horiz-adv-x="267" 
d="M194 -251h-121v1001h121v-1001z" />
    <glyph glyph-name="doublebar.cap" unicode="&#xe464;" horiz-adv-x="432" 
d="M175 -251h-116v1001h116v-1001zM373 -251h-116v1001h116v-1001z" />
    <glyph glyph-name="brokenbar.cap" unicode="&#xe465;" horiz-adv-x="278" 
d="M194 750v-435h-121v435h121zM194 -251h-121v435h121v-435z" />
    <glyph glyph-name="bullet.cap" unicode="&#xe466;" horiz-adv-x="391" 
d="M196 480c88 0 144 -43 144 -118v-58c0 -75 -56 -118 -144 -118c-91 0 -145 43 -145 118v58c0 75 54 118 145 118z" />
    <glyph glyph-name="slash.smcp" unicode="&#xe467;" horiz-adv-x="234" 
d="M273 513l-196 -537h-116l196 537h116z" />
    <glyph glyph-name="backslash.smcp" unicode="&#xe468;" horiz-adv-x="234" 
d="M157 -24l-196 537h116l196 -537h-116z" />
    <glyph glyph-name="bar.smcp" unicode="&#xe469;" horiz-adv-x="267" 
d="M194 -141h-121v741h121v-741z" />
    <glyph glyph-name="doublebar.smcp" unicode="&#xe46a;" horiz-adv-x="432" 
d="M175 -141h-116v741h116v-741zM373 -141h-116v741h116v-741z" />
    <glyph glyph-name="brokenbar.smcp" unicode="&#xe46b;" horiz-adv-x="297" 
d="M209 600v-285h-121v285h121zM209 -141h-121v325h121v-325z" />
    <glyph glyph-name="bullet.smcp" unicode="&#xe46c;" horiz-adv-x="391" 
d="M196 384c88 0 144 -43 144 -118v-58c0 -75 -56 -118 -144 -118c-91 0 -145 43 -145 118v58c0 75 54 118 145 118z" />
    <glyph glyph-name="onethirdemdash" unicode="&#xe471;" horiz-adv-x="333" 
d="M298 215h-263v119h263v-119z" />
    <glyph glyph-name="threequarteremdash" unicode="&#xe472;" horiz-adv-x="750" 
d="M715 215h-680v119h680v-119z" />
    <glyph glyph-name="periodcentered.cap" unicode="&#xe481;" horiz-adv-x="244" 
d="M194 277h-144v154h144v-154z" />
    <glyph glyph-name="hyphen.cap" unicode="&#xe482;" horiz-adv-x="352" 
d="M317 255h-282v119h282v-119z" />
    <glyph glyph-name="onethirdemdash.cap" unicode="&#xe483;" horiz-adv-x="333" 
d="M298 255h-263v119h263v-119z" />
    <glyph glyph-name="endash.cap" unicode="&#xe484;" horiz-adv-x="500" 
d="M465 255h-430v119h430v-119z" />
    <glyph glyph-name="threequarteremdash.cap" unicode="&#xe485;" horiz-adv-x="750" 
d="M715 255h-680v119h680v-119z" />
    <glyph glyph-name="emdash.cap" unicode="&#xe486;" horiz-adv-x="1000" 
d="M965 255h-930v119h930v-119z" />
    <glyph glyph-name="figuredash.cap" unicode="&#xe487;" horiz-adv-x="650" 
d="M615 255h-580v119h580v-119z" />
    <glyph glyph-name="parenleft.cap" unicode="&#xe491;" horiz-adv-x="324" 
d="M329 -106l-95 -63c-104 145 -156 306 -156 482s52 337 156 482l95 -63c-77 -131 -116 -271 -116 -419s39 -288 116 -419z" />
    <glyph glyph-name="parenright.cap" unicode="&#xe492;" horiz-adv-x="324" 
d="M-5 732l95 63c104 -145 156 -306 156 -482s-52 -337 -156 -482l-95 63c77 131 116 271 116 419s-39 288 -116 419z" />
    <glyph glyph-name="bracketleft.cap" unicode="&#xe493;" horiz-adv-x="296" 
d="M318 -160h-235v950h228v-117h-96v-716h103v-117z" />
    <glyph glyph-name="bracketright.cap" unicode="&#xe494;" horiz-adv-x="296" 
d="M213 -160h-235v117h103v716h-96v117h228v-950z" />
    <glyph glyph-name="braceleft.cap" unicode="&#xe495;" horiz-adv-x="355" 
d="M152 313l70 -48c23 -15 27 -41 27 -93v-111c0 -36 0 -39 3 -62c2 -11 5 -19 9 -23c9 -8 24 -18 49 -22v-122c-129 0 -193 60 -193 180v142c0 47 -4 65 -24 85l-72 69v10l72 69c20 20 24 38 24 85v142c0 120 64 180 193 180v-122c-38 -11 -51 -14 -58 -45
c-3 -23 -3 -26 -3 -62v-111c0 -52 -4 -78 -27 -93z" />
    <glyph glyph-name="braceright.cap" unicode="&#xe496;" horiz-adv-x="355" 
d="M133 265l70 48l-70 48c-23 15 -27 41 -27 93v111c0 36 0 39 -4 62c-1 11 -4 19 -9 23c-8 8 -23 18 -48 22v122c129 0 193 -60 193 -180v-142c0 -47 4 -65 24 -85l72 -69v-10l-72 -69c-20 -20 -24 -38 -24 -85v-142c0 -120 -64 -180 -193 -180v122c38 10 52 14 57 45
c4 23 4 26 4 62v111c0 52 4 78 27 93z" />
    <glyph glyph-name="anglebracketleft.cap" unicode="&#xe497;" horiz-adv-x="359" 
d="M261 -164l-250 472v10l250 472h142l-251 -475v-4l251 -475h-142z" />
    <glyph glyph-name="anglebracketright.cap" unicode="&#xe498;" horiz-adv-x="359" 
d="M348 308l-250 -472h-142l251 475v4l-251 475h142l250 -472v-10z" />
    <glyph glyph-name="at.cap" unicode="&#xe513;" horiz-adv-x="826" 
d="M470 219l-68 -66c-9 -3 -18 -5 -29 -5c-71 0 -114 43 -114 106v18c0 65 40 108 124 112l87 4v20c0 32 -12 36 -60 36l-124 -13v81c66 10 109 15 128 15c104 0 153 -29 153 -136v-163c67 -3 101 46 101 148c0 65 -24 118 -72 161c-47 43 -108 65 -183 65
c-76 0 -137 -24 -184 -71s-70 -113 -70 -200c0 -169 103 -256 263 -256c56 0 120 11 148 20l22 7v-85c-43 -21 -101 -32 -174 -32c-107 0 -194 32 -259 95c-65 64 -98 149 -98 255c0 107 33 193 98 258s150 97 254 97c108 0 194 -30 257 -90s95 -132 95 -215
c0 -155 -66 -233 -197 -233c-33 0 -65 4 -98 12v55zM470 269v47l-78 -5c-25 -2 -37 -13 -37 -33v-12c0 -13 12 -24 27 -24c5 0 18 3 39 9z" />
    <glyph glyph-name="Euro.LP" unicode="&#xe521;" horiz-adv-x="572" 
d="M10 374v89h89v13c0 141 86 211 258 211c29 0 88 -4 178 -11v-121c-70 8 -127 12 -172 12c-95 0 -123 -28 -130 -104h246l-15 -89h-233v-73h224l-16 -89h-207c3 -39 14 -66 31 -81s51 -23 100 -23c20 0 44 1 73 3s53 4 72 6l29 3v-120c-90 -7 -150 -11 -180 -11
c-172 0 -258 70 -258 211v12h-89v89h89v73h-89z" />
    <glyph glyph-name="dollar.LP" unicode="&#xe522;" horiz-adv-x="554" 
d="M356 -154h-100v143l-199 10v124c79 -8 143 -12 191 -12c103 0 129 22 129 74v15c0 40 -11 64 -66 71l-110 14c-88 11 -147 78 -147 174v58c0 104 67 160 202 169v136h100v-137c13 -1 53 -4 120 -9v-128c-79 9 -140 13 -183 13c-80 0 -107 -19 -107 -66v-17
c0 -40 12 -64 65 -71l114 -14c87 -11 144 -73 144 -164v-67c0 -93 -51 -148 -153 -165v-151z" />
    <glyph glyph-name="cent.LP" unicode="&#xe523;" horiz-adv-x="418" 
d="M300 -154h-100v146c-99 13 -149 68 -149 163v158c0 101 50 157 149 169v140h100v-140l84 -7v-105c-51 7 -90 10 -118 10c-55 0 -83 -19 -83 -88v-116c0 -36 6 -59 17 -68c12 -9 35 -14 70 -14c25 0 73 5 102 8l21 3v-103c-26 -5 -57 -9 -93 -11v-145z" />
    <glyph glyph-name="sterling.LP" unicode="&#xe524;" horiz-adv-x="572" 
d="M249 469l5 -102h189v-96h-180l2 -55c1 -24 0 -42 -3 -53c-2 -11 -7 -26 -15 -44h283v-119h-490v119h41c16 0 57 13 53 87l-3 65h-76v96h70l-8 133c-7 115 63 187 212 187c17 0 40 -1 69 -3c29 -1 54 -3 75 -5l31 -3v-125c-81 8 -138 12 -171 12c-69 0 -88 -23 -84 -94z
" />
    <glyph glyph-name="florin.LP" unicode="&#xe525;" horiz-adv-x="523" 
d="M-46 -228l13 117c0 -3 18 -4 54 -4c61 0 83 28 90 87l39 365h-104l10 102h104l12 116c9 87 69 131 180 131l152 -10l-7 -119c-57 7 -98 10 -121 10c-53 0 -75 -13 -82 -72l-6 -56h144l-10 -102h-144l-45 -417c-11 -101 -75 -152 -191 -152c-23 0 -52 1 -88 4z" />
    <glyph glyph-name="numbersign.LP" unicode="&#xe533;" horiz-adv-x="659" 
d="M602 165h-128l-37 -165h-117l37 165h-113l-38 -165h-117l37 165h-94v102h118l25 105h-116v102h138l32 140h117l-32 -140h113l33 140h116l-32 -140h85v-102h-107l-25 -105h105v-102zM380 267l25 105h-113l-25 -105h113z" />
    <glyph glyph-name="zero.LP" unicode="&#xe534;" horiz-adv-x="572" 
d="M511 476v-276c0 -141 -75 -211 -225 -211s-225 70 -225 211v276c0 141 75 211 225 211s225 -70 225 -211zM193 442v-207c0 -103 26 -132 93 -132s93 29 93 132v207c0 101 -26 131 -93 131s-93 -30 -93 -131z" />
    <glyph glyph-name="one.LP" unicode="&#xe536;" horiz-adv-x="330" 
d="M258 0h-132v526l-121 -22v132l253 50v-686z" />
    <glyph glyph-name="two.LP" unicode="&#xe537;" horiz-adv-x="467" 
d="M190 119h255v-119h-427v105l207 237c41 46 61 84 61 113v77c0 25 -9 38 -40 38l-194 -13v118c92 8 160 12 203 12c45 0 84 -10 115 -29c32 -19 48 -53 48 -101v-109c0 -53 -22 -94 -73 -151l-155 -174v-4z" />
    <glyph glyph-name="three.LP" unicode="&#xe538;" horiz-adv-x="469" 
d="M415 219v-40c0 -128 -63 -191 -224 -191c-18 0 -41 1 -70 3s-53 4 -73 7l-29 3v122c76 -9 128 -14 156 -14c48 0 71 1 92 22c11 11 17 26 17 47v35l-67 66h-141v117h142l63 62v35c0 59 -14 75 -74 75c-15 0 -37 -1 -66 -3c-28 -2 -52 -4 -73 -7l-31 -3v119
c77 9 139 13 186 13c143 0 189 -66 189 -183v-52c0 -13 -2 -22 -6 -29l-87 -86l90 -89c4 -7 6 -16 6 -29z" />
    <glyph glyph-name="four.LP" unicode="&#xe539;" horiz-adv-x="525" 
d="M526 176h-95v-176h-126v176h-301v110l301 390h126v-381h95v-119zM305 295v211l-163 -211h163z" />
    <glyph glyph-name="five.LP" unicode="&#xe53a;" horiz-adv-x="492" 
d="M450 249v-90c0 -113 -68 -170 -205 -170c-21 0 -49 1 -82 4c-33 2 -61 4 -84 6l-34 3v119c65 -9 120 -13 165 -13c40 0 54 1 77 10s31 30 31 66v39c0 61 -37 78 -96 78h-163v375h362v-118h-230v-140h80c120 0 179 -66 179 -169z" />
    <glyph glyph-name="six.LP" unicode="&#xe53b;" horiz-adv-x="539" 
d="M289 429c148 0 208 -62 208 -178v-100c0 -61 -28 -107 -73 -130c-44 -23 -91 -32 -146 -32s-102 9 -147 32c-44 23 -72 69 -72 130v332c0 152 81 204 221 204c9 0 73 -4 192 -13v-120c-89 10 -152 15 -189 15c-39 0 -65 -7 -76 -22c-11 -14 -16 -38 -16 -71v-56
c30 6 63 9 98 9zM295 310c-37 0 -76 -8 -92 -16l-12 -5v-97c0 -68 18 -91 87 -91s87 23 87 91v29c0 36 -4 60 -11 71c-7 12 -27 18 -59 18z" />
    <glyph glyph-name="seven.LP" unicode="&#xe53c;" horiz-adv-x="443" 
d="M175 0h-149l261 558h-287v118h437v-88z" />
    <glyph glyph-name="eight.LP" unicode="&#xe53d;" horiz-adv-x="562" 
d="M486 523v-40c0 -59 -32 -111 -91 -135c71 -25 106 -72 106 -140v-52c0 -128 -118 -167 -220 -167s-220 39 -220 167v52c0 68 35 115 105 140c-59 24 -90 76 -90 135v40c0 99 77 164 205 164s205 -65 205 -164zM369 177v23c0 63 -26 86 -77 86h-22c-52 0 -77 -23 -77 -86
v-23c0 -61 32 -81 88 -81s88 20 88 81zM208 498v-15c0 -60 19 -81 59 -81h19c45 0 68 20 68 81v15c0 63 -26 82 -73 82s-73 -19 -73 -82z" />
    <glyph glyph-name="nine.LP" unicode="&#xe53e;" horiz-adv-x="539" 
d="M245 246c-135 0 -203 59 -203 178v100c0 61 28 107 72 130c45 23 92 32 147 32s102 -9 146 -32c45 -23 73 -69 73 -130v-331c0 -77 -20 -131 -59 -160s-95 -44 -170 -44c-6 0 -67 4 -184 13v120c95 -10 154 -15 175 -15c46 0 75 6 87 19c13 13 19 37 19 74v55
c-30 -6 -64 -9 -103 -9zM247 365c35 0 72 9 89 16l12 5v97c0 68 -18 91 -87 91s-87 -23 -87 -91v-29c0 -37 4 -61 11 -72c8 -11 29 -17 62 -17z" />
    <glyph glyph-name="zero.LT" unicode="&#xe53f;" horiz-adv-x="572" 
d="M511 476v-276c0 -141 -75 -211 -225 -211s-225 70 -225 211v276c0 141 75 211 225 211s225 -70 225 -211zM193 442v-207c0 -103 26 -132 93 -132s93 29 93 132v207c0 101 -26 131 -93 131s-93 -30 -93 -131z" />
    <glyph glyph-name="one.LT" unicode="&#xe541;" horiz-adv-x="572" 
d="M380 0h-132v526l-121 -22v132l253 50v-686z" />
    <glyph glyph-name="two.LT" unicode="&#xe542;" horiz-adv-x="572" 
d="M254 119h255v-119h-427v105l207 237c41 46 61 84 61 113v77c0 25 -9 38 -40 38l-194 -13v118c92 8 160 12 203 12c45 0 84 -10 115 -29c32 -19 48 -53 48 -101v-109c0 -53 -22 -94 -73 -151l-155 -174v-4z" />
    <glyph glyph-name="three.LT" unicode="&#xe543;" horiz-adv-x="572" 
d="M477 219v-40c0 -128 -63 -191 -224 -191c-18 0 -41 1 -70 3s-53 4 -73 7l-29 3v122c76 -9 128 -14 156 -14c48 0 71 1 92 22c11 11 17 26 17 47v35l-67 66h-141v117h142l63 62v35c0 59 -14 75 -74 75c-15 0 -37 -1 -66 -3c-28 -2 -52 -4 -73 -7l-31 -3v119
c77 9 139 13 186 13c143 0 189 -66 189 -183v-52c0 -13 -2 -22 -6 -29l-87 -86l90 -89c4 -7 6 -16 6 -29z" />
    <glyph glyph-name="four.LT" unicode="&#xe544;" horiz-adv-x="572" 
d="M554 176h-95v-176h-126v176h-301v110l301 390h126v-381h95v-119zM333 295v211l-163 -211h163z" />
    <glyph glyph-name="five.LT" unicode="&#xe545;" horiz-adv-x="572" 
d="M498 249v-90c0 -113 -68 -170 -205 -170c-21 0 -49 1 -82 4c-33 2 -61 4 -84 6l-34 3v119c65 -9 120 -13 165 -13c40 0 54 1 77 10s31 30 31 66v39c0 61 -37 78 -96 78h-163v375h362v-118h-230v-140h80c120 0 179 -66 179 -169z" />
    <glyph glyph-name="six.LT" unicode="&#xe546;" horiz-adv-x="572" 
d="M313 429c148 0 208 -62 208 -178v-100c0 -61 -28 -107 -73 -130c-44 -23 -91 -32 -146 -32s-102 9 -147 32c-44 23 -72 69 -72 130v332c0 152 81 204 221 204c9 0 73 -4 192 -13v-120c-89 10 -152 15 -189 15c-39 0 -65 -7 -76 -22c-11 -14 -16 -38 -16 -71v-56
c30 6 63 9 98 9zM319 310c-37 0 -76 -8 -92 -16l-12 -5v-97c0 -68 18 -91 87 -91s87 23 87 91v29c0 36 -4 60 -11 71c-7 12 -27 18 -59 18z" />
    <glyph glyph-name="seven.LT" unicode="&#xe547;" horiz-adv-x="572" 
d="M255 0h-149l261 558h-287v118h437v-88z" />
    <glyph glyph-name="eight.LT" unicode="&#xe548;" horiz-adv-x="572" 
d="M491 523v-40c0 -59 -32 -111 -91 -135c71 -25 106 -72 106 -140v-52c0 -128 -118 -167 -220 -167s-220 39 -220 167v52c0 68 35 115 105 140c-59 24 -90 76 -90 135v40c0 99 77 164 205 164s205 -65 205 -164zM374 177v23c0 63 -26 86 -77 86h-22c-52 0 -77 -23 -77 -86
v-23c0 -61 32 -81 88 -81s88 20 88 81zM213 498v-15c0 -60 19 -81 59 -81h19c45 0 68 20 68 81v15c0 63 -26 82 -73 82s-73 -19 -73 -82z" />
    <glyph glyph-name="nine.LT" unicode="&#xe549;" horiz-adv-x="572" 
d="M254 246c-135 0 -203 59 -203 178v100c0 61 28 107 72 130c45 23 92 32 147 32s102 -9 146 -32c45 -23 73 -69 73 -130v-331c0 -77 -20 -131 -59 -160s-95 -44 -170 -44c-6 0 -67 4 -184 13v120c95 -10 154 -15 175 -15c46 0 75 6 87 19c13 13 19 37 19 74v55
c-30 -6 -64 -9 -103 -9zM256 365c35 0 72 9 88 16l13 5v97c0 68 -18 91 -87 91s-87 -23 -87 -91v-29c0 -37 4 -61 11 -72c8 -11 29 -17 62 -17z" />
    <glyph glyph-name="zero.OP" unicode="&#xe54a;" horiz-adv-x="572" 
d="M511 273v-73c0 -141 -75 -211 -225 -211s-225 70 -225 211v73c0 141 75 211 225 211s225 -70 225 -211zM193 254v-35c0 -42 6 -71 17 -88s37 -25 76 -25s65 8 76 25s17 46 17 88v35c0 42 -6 71 -17 88s-37 25 -76 25s-65 -8 -76 -25s-17 -46 -17 -88z" />
    <glyph glyph-name="one.OP" unicode="&#xe54c;" horiz-adv-x="330" 
d="M258 0h-132v323l-121 -22v133l253 50v-484z" />
    <glyph glyph-name="two.OP" unicode="&#xe54d;" horiz-adv-x="467" 
d="M224 119h222v-119h-428v105l201 130c30 19 48 33 54 42c9 11 13 28 13 49v9c0 24 -11 33 -40 33l-189 -12v117c91 8 159 12 202 12c91 0 159 -30 159 -106v-59c0 -57 -20 -84 -81 -124l-113 -73v-4z" />
    <glyph glyph-name="three.OP" unicode="&#xe54e;" horiz-adv-x="469" 
d="M415 18v-40c0 -128 -63 -191 -224 -191c-18 0 -41 1 -70 4c-29 2 -53 4 -73 6l-29 3v122c76 -9 128 -14 156 -14c48 0 71 1 92 22c11 11 17 26 17 47v35l-67 66h-141v117h142l63 62v34c0 59 -14 75 -74 75l-170 -13v119c77 9 139 13 186 13c143 0 189 -66 189 -183v-51
c0 -13 -2 -22 -6 -29l-87 -86l90 -89c4 -7 6 -16 6 -29z" />
    <glyph glyph-name="four.OP" unicode="&#xe54f;" horiz-adv-x="525" 
d="M526 0h-95v-202h-126v202h-300v116l312 358h114v-355h95v-119zM305 119v183l-153 -183h153z" />
    <glyph glyph-name="five.OP" unicode="&#xe550;" horiz-adv-x="492" 
d="M450 52v-95c0 -113 -68 -170 -205 -170c-21 0 -49 1 -82 4c-33 2 -61 4 -84 6l-34 3v119c65 -9 120 -13 165 -13c40 0 54 1 77 10s31 30 31 66v44c0 61 -37 78 -96 78h-163v370h362v-118h-230v-135h80c120 0 179 -66 179 -169z" />
    <glyph glyph-name="six.OP" unicode="&#xe551;" horiz-adv-x="539" 
d="M289 429c148 0 208 -62 208 -178v-100c0 -61 -28 -107 -73 -130c-44 -23 -91 -32 -146 -32s-102 9 -147 32c-44 23 -72 69 -72 130v332c0 152 81 204 221 204c9 0 73 -4 192 -13v-120c-89 10 -152 15 -189 15c-39 0 -65 -7 -76 -22c-11 -14 -16 -38 -16 -71v-56
c30 6 63 9 98 9zM295 310c-37 0 -76 -8 -92 -16l-12 -5v-97c0 -68 18 -91 87 -91s87 23 87 91v29c0 36 -4 60 -11 71c-7 12 -27 18 -59 18z" />
    <glyph glyph-name="seven.OP" unicode="&#xe552;" horiz-adv-x="443" 
d="M175 -202h-149l261 558h-287v118h437v-88z" />
    <glyph glyph-name="eight.OP" unicode="&#xe553;" horiz-adv-x="562" 
d="M486 523v-42c0 -59 -32 -111 -91 -135c71 -25 106 -72 106 -140v-50c0 -128 -118 -167 -220 -167s-220 39 -220 167v50c0 68 35 115 105 140c-59 24 -90 76 -90 135v42c0 99 77 164 205 164s205 -65 205 -164zM369 177v21c0 63 -26 86 -77 86h-22c-52 0 -77 -23 -77 -86
v-21c0 -61 32 -81 88 -81s88 20 88 81zM208 497v-13c0 -56 20 -84 59 -84h19c44 0 68 23 68 84v13c0 63 -26 83 -73 83s-73 -20 -73 -83z" />
    <glyph glyph-name="nine.OP" unicode="&#xe554;" horiz-adv-x="539" 
d="M245 46c-135 0 -203 59 -203 178v100c0 61 28 107 72 130c45 23 92 32 147 32s102 -9 146 -32c45 -23 73 -69 73 -130v-332c0 -77 -20 -131 -59 -160s-95 -44 -170 -44c-6 0 -67 4 -184 13v120c95 -10 154 -15 175 -15c46 0 75 6 87 19c13 13 19 37 19 74v56
c-30 -6 -64 -9 -103 -9zM247 165c35 0 72 9 89 16l12 5v97c0 68 -18 91 -87 91s-87 -23 -87 -91v-29c0 -37 4 -61 11 -72c8 -11 29 -17 62 -17z" />
    <glyph glyph-name="zero.OT" unicode="&#xe555;" horiz-adv-x="572" 
d="M511 273v-73c0 -141 -75 -211 -225 -211s-225 70 -225 211v73c0 141 75 211 225 211s225 -70 225 -211zM193 254v-35c0 -42 6 -71 17 -88s37 -25 76 -25s65 8 76 25s17 46 17 88v35c0 42 -6 71 -17 88s-37 25 -76 25s-65 -8 -76 -25s-17 -46 -17 -88z" />
    <glyph glyph-name="one.OT" unicode="&#xe557;" horiz-adv-x="572" 
d="M380 0h-132v323l-121 -22v133l253 50v-484z" />
    <glyph glyph-name="two.OT" unicode="&#xe558;" horiz-adv-x="572" 
d="M288 119h222v-119h-428v105l201 130c30 19 48 33 54 42c9 11 13 28 13 49v9c0 24 -11 33 -40 33l-189 -12v117c91 8 159 12 202 12c91 0 159 -30 159 -106v-59c0 -57 -20 -84 -81 -124l-113 -73v-4z" />
    <glyph glyph-name="three.OT" unicode="&#xe559;" horiz-adv-x="572" 
d="M477 18v-40c0 -128 -63 -191 -224 -191c-18 0 -41 1 -70 4c-29 2 -53 4 -73 6l-29 3v122c76 -9 128 -14 156 -14c48 0 71 1 92 22c11 11 17 26 17 47v35l-67 66h-141v117h142l63 62v34c0 59 -14 75 -74 75l-170 -13v119c77 9 139 13 186 13c143 0 189 -66 189 -183v-51
c0 -13 -2 -22 -6 -29l-87 -86l90 -89c4 -7 6 -16 6 -29z" />
    <glyph glyph-name="four.OT" unicode="&#xe55a;" horiz-adv-x="572" 
d="M554 0h-95v-202h-126v202h-300v116l312 358h114v-355h95v-119zM333 119v183l-153 -183h153z" />
    <glyph glyph-name="five.OT" unicode="&#xe55b;" horiz-adv-x="572" 
d="M498 52v-95c0 -113 -68 -170 -205 -170c-21 0 -49 1 -82 4c-33 2 -61 4 -84 6l-34 3v119c65 -9 120 -13 165 -13c40 0 54 1 77 10s31 30 31 66v44c0 61 -37 78 -96 78h-163v370h362v-118h-230v-135h80c120 0 179 -66 179 -169z" />
    <glyph glyph-name="six.OT" unicode="&#xe55c;" horiz-adv-x="572" 
d="M313 429c148 0 208 -62 208 -178v-100c0 -61 -28 -107 -73 -130c-44 -23 -91 -32 -146 -32s-102 9 -147 32c-44 23 -72 69 -72 130v332c0 152 81 204 221 204c9 0 73 -4 192 -13v-120c-89 10 -152 15 -189 15c-39 0 -65 -7 -76 -22c-11 -14 -16 -38 -16 -71v-56
c30 6 63 9 98 9zM319 310c-37 0 -76 -8 -92 -16l-12 -5v-97c0 -68 18 -91 87 -91s87 23 87 91v29c0 36 -4 60 -11 71c-7 12 -27 18 -59 18z" />
    <glyph glyph-name="seven.OT" unicode="&#xe55d;" horiz-adv-x="572" 
d="M255 -202h-149l261 558h-287v118h437v-88z" />
    <glyph glyph-name="eight.OT" unicode="&#xe55e;" horiz-adv-x="572" 
d="M491 523v-42c0 -59 -32 -111 -91 -135c71 -25 106 -72 106 -140v-50c0 -128 -118 -167 -220 -167s-220 39 -220 167v50c0 68 35 115 105 140c-59 24 -90 76 -90 135v42c0 99 77 164 205 164s205 -65 205 -164zM374 177v21c0 63 -26 86 -77 86h-22c-52 0 -77 -23 -77 -86
v-21c0 -61 32 -81 88 -81s88 20 88 81zM213 497v-13c0 -56 20 -84 59 -84h19c44 0 68 23 68 84v13c0 63 -26 83 -73 83s-73 -20 -73 -83z" />
    <glyph glyph-name="nine.OT" unicode="&#xe55f;" horiz-adv-x="572" 
d="M254 46c-135 0 -203 59 -203 178v100c0 61 28 107 72 130c45 23 92 32 147 32s102 -9 146 -32c45 -23 73 -69 73 -130v-332c0 -77 -20 -131 -59 -160s-95 -44 -170 -44c-6 0 -67 4 -184 13v120c95 -10 154 -15 175 -15c46 0 75 6 87 19c13 13 19 37 19 74v56
c-30 -6 -64 -9 -103 -9zM256 165c35 0 72 9 88 16l13 5v97c0 68 -18 91 -87 91s-87 -23 -87 -91v-29c0 -37 4 -61 11 -72c8 -11 29 -17 62 -17z" />
    <glyph glyph-name="plus.cap" unicode="&#xe591;" horiz-adv-x="510" 
d="M478 256h-161v-168h-124v168h-161v117h161v164h124v-164h161v-117z" />
    <glyph glyph-name="minus.cap" unicode="&#xe592;" horiz-adv-x="510" 
d="M468 256h-426v117h426v-117z" />
    <glyph glyph-name="multiply.cap" unicode="&#xe593;" horiz-adv-x="510" 
d="M259 397l139 137l84 -84l-139 -138l139 -138l-84 -84l-139 138l-139 -139l-84 84l139 139l-139 138l84 84z" />
    <glyph glyph-name="divide.cap" unicode="&#xe594;" horiz-adv-x="510" 
d="M318 419h-126v110h126v-110zM468 256h-426v117h426v-117zM318 95h-126v110h126v-110z" />
    <glyph glyph-name="equal.cap" unicode="&#xe595;" horiz-adv-x="510" 
d="M468 355h-426v119h426v-119zM468 154h-426v119h426v-119z" />
    <glyph glyph-name="less.cap" unicode="&#xe596;" horiz-adv-x="510" 
d="M460 204v-139l-410 196v103l410 196v-139l-256 -108z" />
    <glyph glyph-name="greater.cap" unicode="&#xe597;" horiz-adv-x="510" 
d="M50 65v139l256 109l-256 108v139l410 -196v-103z" />
    <glyph glyph-name="zero.smcp" unicode="&#xe598;" horiz-adv-x="572" 
d="M511 289v-89c0 -141 -75 -211 -225 -211s-225 70 -225 211v89c0 141 75 211 225 211s225 -70 225 -211zM193 270v-51c0 -42 6 -71 17 -88s37 -25 76 -25s65 8 76 25s17 46 17 88v51c0 42 -6 71 -17 88s-37 25 -76 25s-65 -8 -76 -25s-17 -46 -17 -88z" />
    <glyph glyph-name="one.smcp" unicode="&#xe599;" horiz-adv-x="330" 
d="M258 0h-129v346l-124 -22v128l253 50v-502z" />
    <glyph glyph-name="two.smcp" unicode="&#xe59a;" horiz-adv-x="467" 
d="M216 119h230v-119h-428v105l201 130c37 24 46 30 58 51c6 11 9 24 9 40v24c0 24 -11 33 -40 33l-189 -12v117c91 8 159 12 202 12c91 0 159 -30 159 -106v-74c0 -59 -20 -87 -81 -124l-121 -73v-4z" />
    <glyph glyph-name="three.smcp" unicode="&#xe59b;" horiz-adv-x="398" 
d="M360 156v-48c0 -77 -64 -119 -169 -119c-16 0 -38 1 -65 3s-49 4 -68 6l-29 3v119c57 -8 108 -12 154 -12c31 0 46 9 46 28v22l-31 33h-118v105h119l27 29v31c0 21 -9 28 -34 28l-150 -10v116c75 7 132 10 169 10c105 0 146 -50 146 -121v-46c0 -13 -2 -22 -6 -29
l-62 -61l65 -63c4 -7 6 -15 6 -24z" />
    <glyph glyph-name="four.smcp" unicode="&#xe59c;" horiz-adv-x="516" 
d="M492 87h-88v-87h-123v87h-255v111l259 292h119v-289h88v-114zM281 201v146l-130 -146h130z" />
    <glyph glyph-name="five.smcp" unicode="&#xe59d;" horiz-adv-x="469" 
d="M72 197v293h318v-115h-192v-71h57c112 0 159 -38 159 -135v-48c0 -88 -63 -132 -168 -132c-17 0 -41 1 -73 3c-31 2 -59 4 -82 6l-35 3v107c91 -7 149 -11 173 -11c43 0 53 9 53 40v16c0 35 -8 44 -48 44h-162z" />
    <glyph glyph-name="six.smcp" unicode="&#xe59e;" horiz-adv-x="472" 
d="M263 313c107 0 160 -40 160 -120v-74c0 -43 -18 -75 -54 -97c-35 -22 -78 -33 -128 -33c-104 0 -183 46 -183 130v237c0 39 14 72 42 101s71 43 128 43l165 -10v-111c-67 7 -114 10 -142 10c-34 1 -63 -5 -66 -53v-40c21 11 47 17 78 17zM185 206v-61
c0 -43 20 -55 56 -55c35 0 55 12 55 55v32c0 31 -13 46 -40 46c-23 0 -50 -8 -62 -13z" />
    <glyph glyph-name="seven.smcp" unicode="&#xe59f;" horiz-adv-x="403" 
d="M202 0h-132l184 376h-230v114h360v-111z" />
    <glyph glyph-name="eight.smcp" unicode="&#xe601;" horiz-adv-x="496" 
d="M248 500c113 0 175 -51 175 -132v-18c0 -47 -24 -81 -71 -102c55 -23 83 -60 83 -111v-12c0 -48 -18 -83 -54 -104s-80 -32 -133 -32s-97 11 -133 32s-54 56 -54 104v12c0 52 28 89 83 111c-47 21 -70 55 -70 102v18c0 81 62 132 174 132zM256 191h-16
c-37 0 -56 -16 -56 -48v-15c0 -27 21 -41 64 -41s64 14 64 41v15c0 32 -19 48 -56 48zM240 301h16c37 0 56 16 56 49v14c0 27 -21 41 -64 41s-64 -14 -64 -41v-14c0 -33 19 -49 56 -49z" />
    <glyph glyph-name="nine.smcp" unicode="&#xe602;" horiz-adv-x="472" 
d="M209 176c-107 0 -160 40 -160 120v74c0 43 18 75 53 97c36 22 79 33 129 33c104 0 183 -46 183 -130v-237c0 -39 -14 -72 -42 -101s-71 -43 -128 -43l-165 10v111c67 -7 114 -10 142 -10c34 -1 63 5 66 53v40c-21 -11 -47 -17 -78 -17zM287 283v61c0 43 -20 55 -56 55
c-35 0 -55 -12 -55 -55v-32c0 -31 13 -46 40 -46c23 0 50 7 62 12z" />
    <glyph glyph-name="guilsinglleft.smcp" unicode="&#xf610;" horiz-adv-x="346" 
d="M155 252v-10l107 -109l-70 -70l-164 166v36l164 166l70 -70z" />
    <glyph glyph-name="guillemotleft.smcp" unicode="&#xf611;" horiz-adv-x="532" 
d="M376 252v-10l107 -109l-70 -70l-164 166v36l164 166l70 -70zM155 252v-10l107 -109l-70 -70l-164 166v36l164 166l70 -70z" />
    <glyph glyph-name="guillemotright.smcp" unicode="&#xf612;" horiz-adv-x="532" 
d="M156 242v10l-107 109l70 70l164 -166v-36l-164 -166l-70 70zM377 242v10l-107 109l70 70l164 -166v-36l-164 -166l-70 70z" />
    <glyph glyph-name="guilsinglright.smcp" unicode="&#xf613;" horiz-adv-x="346" 
d="M176 242v10l-107 109l70 70l164 -166v-36l-164 -166l-70 70z" />
    <glyph glyph-name="copyright.cap" horiz-adv-x="826" 
d="M523 231v-91c-28 -5 -65 -7 -110 -7c-105 0 -158 42 -158 127v146c0 93 46 136 166 136c15 0 47 -2 95 -6v-90c-36 3 -64 5 -83 5c-55 0 -75 -11 -75 -67v-90c0 -56 17 -70 65 -70zM596 141c47 45 70 111 70 197s-23 151 -70 196c-46 45 -107 68 -183 68
s-137 -23 -184 -68c-46 -45 -69 -110 -69 -196s23 -152 69 -197c47 -45 108 -67 184 -67s137 22 183 67zM153 79c-61 61 -91 147 -91 259s30 198 91 258c61 61 147 91 260 91s199 -30 260 -91c61 -60 91 -146 91 -258s-30 -198 -91 -259c-61 -60 -147 -90 -260 -90
s-199 30 -260 90z" />
    <glyph glyph-name="registered.cap" horiz-adv-x="627" 
d="M126 237c-44 45 -66 109 -66 192s22 146 66 191c45 45 107 67 187 67s142 -22 187 -67s67 -108 67 -191s-22 -147 -67 -192s-107 -67 -187 -67s-142 22 -187 67zM501 429c0 128 -65 197 -188 197s-186 -69 -186 -197c0 -131 62 -197 186 -197c123 0 188 68 188 197z
M414 507v-35c0 -30 -14 -49 -43 -58l60 -114h-64l-59 111h-22v-111h-62v269h123c40 0 67 -26 67 -62zM353 486v8c0 17 -6 25 -30 25h-37v-58h37c24 0 30 8 30 25z" />
    <glyph glyph-name="Euro.OP" horiz-adv-x="503" 
d="M20 273v63h93v13c0 101 68 151 205 151c30 0 80 -3 151 -9v-115c-63 7 -106 10 -129 10c-65 0 -88 -10 -93 -50h174l-11 -63h-165v-54h156l-10 -63h-145c5 -43 29 -53 94 -53l139 11v-114c-90 -7 -144 -11 -161 -11c-137 0 -205 50 -205 151v16h-93v63h93v54h-93z" />
    <glyph glyph-name="dollar.OP" horiz-adv-x="449" 
d="M271 -154h-91v144l-137 10v111c4 0 103 -16 167 -16c51 0 73 11 73 44v17c0 19 -12 30 -35 33l-97 13c-64 9 -110 59 -110 126v41c0 74 46 117 139 128v135h91v-133l111 -9v-106c-64 7 -112 11 -144 11c-47 0 -70 -12 -70 -36v-21c0 -21 12 -33 35 -36l99 -14
c65 -9 108 -55 108 -120v-43c0 -79 -46 -123 -139 -133v-146z" />
    <glyph glyph-name="cent.OP" horiz-adv-x="418" 
d="M291 -154h-91v146c-99 13 -149 68 -149 163v158c0 101 50 157 149 169v150h91v-149l93 -8v-105c-51 7 -90 10 -118 10c-55 0 -83 -19 -83 -88v-116c0 -36 6 -59 17 -68c12 -9 35 -14 70 -14c25 0 73 5 102 8l21 3v-103c-29 -6 -63 -10 -102 -12v-144z" />
    <glyph glyph-name="sterling.OP" horiz-adv-x="570" 
d="M256 342l3 -58h143v-93h-137l1 -36c0 -23 -2 -37 -6 -43h211v-112h-387v112h46c15 0 21 13 20 38l-2 41h-51v93h45l-3 78c-3 84 49 138 173 138c29 0 80 -3 151 -8v-107c-65 5 -113 8 -142 8c-55 0 -68 -12 -65 -51z" />
    <glyph glyph-name="florin.OP" horiz-adv-x="483" 
d="M-40 -228l12 113c33 -3 55 -5 68 -5c37 0 56 20 61 69l24 247h-80l9 96h79l11 92c9 77 61 116 158 116l141 -9l-9 -113c-64 6 -104 9 -121 9c-35 0 -49 -11 -50 -40l-5 -55h133l-8 -96h-133l-31 -299c-8 -88 -72 -129 -165 -129z" />
    <glyph glyph-name="yen.OP" horiz-adv-x="456" 
d="M233 321l84 169h131l-159 -286h125v-97h-125v-107h-122v107h-125v97h124l-158 286h131l84 -169h10z" />
    <glyph glyph-name="numbersign.OP" horiz-adv-x="605" 
d="M564 110h-123l-24 -110h-116l24 110h-101l-24 -110h-117l25 110h-78v84h97l22 97h-108v85h126l24 98h116l-23 -98h101l22 98h116l-23 -98h75v-85h-94l-21 -97h104v-84zM344 194l21 97h-100l-22 -97h101z" />
    <glyph glyph-name="zero.denominator" horiz-adv-x="411" 
d="M380 245v-116c0 -87 -66 -136 -175 -136s-174 49 -174 136v116c0 87 65 136 174 136s175 -49 175 -136zM205 303c-26 0 -51 -6 -51 -57v-118c0 -45 20 -57 51 -57c25 0 52 6 52 57v118c0 45 -20 57 -52 57z" />
    <glyph glyph-name="one.denominator" horiz-adv-x="243" 
d="M205 0h-119v262l-86 -14v99l205 35v-382z" />
    <glyph glyph-name="two.denominator" horiz-adv-x="360" 
d="M168 93h156v-93h-297v90l122 95c37 29 55 51 55 65v15c0 13 -12 20 -36 20l-124 -8v98c62 5 108 7 139 7c85 0 127 -27 127 -82v-41c0 -43 -25 -81 -75 -115l-65 -44z" />
    <glyph glyph-name="three.denominator" horiz-adv-x="331" 
d="M303 279v-29c0 -9 -2 -15 -5 -20l-46 -45l48 -47c3 -5 4 -10 4 -17v-35c0 -56 -41 -93 -136 -93l-135 10v86c44 -5 74 -7 90 -7c49 0 69 6 69 31v20l-18 18h-104v70h105l16 15v27c0 20 -16 30 -49 30l-102 -6v88c55 5 101 7 136 7c51 0 84 -9 101 -28
c17 -18 26 -43 26 -75z" />
    <glyph glyph-name="four.denominator" horiz-adv-x="352" 
d="M354 88h-67v-88h-98v88h-174v80l159 208h113v-202h67v-86zM189 174v99l-79 -99h79z" />
    <glyph glyph-name="five.denominator" horiz-adv-x="322" 
d="M29 150v226h274v-85h-181v-58h65c89 0 134 -33 134 -99v-31c0 -65 -52 -110 -149 -110l-155 10v88c55 -6 97 -9 127 -9c41 0 62 11 62 34v7c0 23 -16 27 -56 27h-121z" />
    <glyph glyph-name="six.denominator" horiz-adv-x="375" 
d="M225 239c88 0 129 -42 129 -103v-30c0 -39 -15 -67 -45 -86c-30 -18 -66 -27 -109 -27c-75 0 -169 26 -169 123v146c0 30 12 57 35 82c24 25 58 38 103 38c48 0 109 -4 138 -8l22 -2v-87c-61 7 -102 11 -121 11c-37 0 -56 -15 -56 -45v-26c21 9 45 14 73 14zM204 178
c-19 0 -38 -7 -46 -12l-6 -3v-55c0 -27 14 -41 41 -41s40 14 40 41v32c0 25 -10 38 -29 38z" />
    <glyph glyph-name="seven.denominator" horiz-adv-x="308" 
d="M163 0h-121l147 280h-177v96h288v-94z" />
    <glyph glyph-name="eight.denominator" horiz-adv-x="352" 
d="M332 275v-7c0 -31 -26 -71 -65 -80c43 -7 75 -39 75 -82v-4c0 -73 -55 -109 -166 -109s-166 36 -166 109v4c0 43 33 75 76 82c-40 9 -66 48 -66 80v7c0 73 64 107 156 107s156 -34 156 -107zM169 217h14c20 0 33 14 33 33v29c0 21 -13 32 -40 32s-40 -11 -40 -32v-29
c0 -19 13 -33 33 -33zM183 156h-14c-20 0 -33 -14 -33 -33v-23c0 -21 13 -32 40 -32s40 11 40 32v23c0 19 -13 33 -33 33z" />
    <glyph glyph-name="nine.denominator" horiz-adv-x="375" 
d="M150 136c-88 0 -129 42 -129 103v30c0 39 15 67 45 85c30 19 66 28 109 28c75 0 169 -26 169 -123v-146c0 -30 -12 -58 -36 -83c-23 -25 -57 -37 -102 -37c-48 0 -109 4 -138 7l-22 3v87c61 -7 102 -11 121 -11c37 0 56 15 56 45v26c-21 -9 -45 -14 -73 -14zM171 197
c19 0 38 6 46 11l6 4v55c0 27 -14 41 -41 41s-40 -14 -40 -41v-32c0 -25 10 -38 29 -38z" />
    <glyph glyph-name="percent.LT" horiz-adv-x="859" 
d="M366 565v-152c0 -81 -68 -116 -161 -116c-92 0 -160 35 -160 116v152c0 81 68 116 160 116s161 -35 161 -116zM814 261v-152c0 -81 -68 -116 -161 -116c-92 0 -160 35 -160 116v152c0 81 68 116 160 116s161 -35 161 -116zM205 587c-29 0 -43 -14 -43 -42v-109
c0 -28 14 -42 43 -42s44 14 44 42v109c0 28 -15 42 -44 42zM653 283c-29 0 -43 -14 -43 -42v-109c0 -28 14 -42 43 -42s44 14 44 42v109c0 28 -15 42 -44 42zM644 676l-313 -676h-115l313 676h115z" />
    <glyph glyph-name="percent.LP" horiz-adv-x="859" 
d="M366 565v-152c0 -81 -68 -116 -161 -116c-92 0 -160 35 -160 116v152c0 81 68 116 160 116s161 -35 161 -116zM814 261v-152c0 -81 -68 -116 -161 -116c-92 0 -160 35 -160 116v152c0 81 68 116 160 116s161 -35 161 -116zM205 587c-29 0 -43 -14 -43 -42v-109
c0 -28 14 -42 43 -42s44 14 44 42v109c0 28 -15 42 -44 42zM653 283c-29 0 -43 -14 -43 -42v-109c0 -28 14 -42 43 -42s44 14 44 42v109c0 28 -15 42 -44 42zM644 676l-313 -676h-115l313 676h115z" />
    <glyph glyph-name="perthousand.LP" horiz-adv-x="1222" 
d="M1177 261v-152c0 -81 -68 -116 -161 -116c-92 0 -160 35 -160 116v152c0 81 68 116 160 116s161 -35 161 -116zM1016 283c-29 0 -43 -14 -43 -42v-109c0 -28 14 -42 43 -42s44 14 44 42v109c0 28 -15 42 -44 42zM366 565v-152c0 -81 -68 -116 -161 -116
c-92 0 -160 35 -160 116v152c0 81 68 116 160 116s161 -35 161 -116zM814 261v-152c0 -81 -68 -116 -161 -116c-92 0 -160 35 -160 116v152c0 81 68 116 160 116s161 -35 161 -116zM205 587c-29 0 -43 -14 -43 -42v-109c0 -28 14 -42 43 -42s44 14 44 42v109
c0 28 -15 42 -44 42zM653 283c-29 0 -43 -14 -43 -42v-109c0 -28 14 -42 43 -42s44 14 44 42v109c0 28 -15 42 -44 42zM644 676l-313 -676h-115l313 676h115z" />
    <glyph glyph-name="percent.OT" horiz-adv-x="816" 
d="M620 287c91 0 151 -35 151 -116v-62c0 -77 -50 -116 -151 -116c-100 0 -150 39 -150 116v62c0 81 61 116 150 116zM195 497c91 0 151 -35 151 -116v-62c0 -77 -50 -116 -151 -116c-100 0 -150 39 -150 116v62c0 81 61 116 150 116zM573 490l-227 -490h-103l227 490h103z
M195 412c-24 0 -33 -11 -33 -42v-38c0 -29 9 -41 33 -41c25 0 34 12 34 41v38c0 31 -9 42 -34 42zM620 202c-24 0 -33 -11 -33 -42v-38c0 -29 9 -41 33 -41c25 0 34 12 34 41v38c0 31 -9 42 -34 42z" />
    <glyph glyph-name="percent.OP" horiz-adv-x="816" 
d="M620 287c91 0 151 -35 151 -116v-62c0 -77 -50 -116 -151 -116c-100 0 -150 39 -150 116v62c0 81 61 116 150 116zM195 497c91 0 151 -35 151 -116v-62c0 -77 -50 -116 -151 -116c-100 0 -150 39 -150 116v62c0 81 61 116 150 116zM573 490l-227 -490h-103l227 490h103z
M195 412c-24 0 -33 -11 -33 -42v-38c0 -29 9 -41 33 -41c25 0 34 12 34 41v38c0 31 -9 42 -34 42zM620 202c-24 0 -33 -11 -33 -42v-38c0 -29 9 -41 33 -41c25 0 34 12 34 41v38c0 31 -9 42 -34 42z" />
    <glyph glyph-name="perthousand.OP" horiz-adv-x="1150" 
d="M954 287c91 0 151 -35 151 -116v-62c0 -77 -50 -116 -151 -116c-100 0 -150 39 -150 116v62c0 81 61 116 150 116zM954 202c-24 0 -33 -11 -33 -42v-38c0 -29 9 -41 33 -41c25 0 34 12 34 41v38c0 31 -9 42 -34 42zM620 287c91 0 151 -35 151 -116v-62
c0 -77 -50 -116 -151 -116c-100 0 -150 39 -150 116v62c0 81 61 116 150 116zM195 497c91 0 151 -35 151 -116v-62c0 -77 -50 -116 -151 -116c-100 0 -150 39 -150 116v62c0 81 61 116 150 116zM573 490l-227 -490h-103l227 490h103zM195 412c-24 0 -33 -11 -33 -42v-38
c0 -29 9 -41 33 -41c25 0 34 12 34 41v38c0 31 -9 42 -34 42zM620 202c-24 0 -33 -11 -33 -42v-38c0 -29 9 -41 33 -41c25 0 34 12 34 41v38c0 31 -9 42 -34 42z" />
    <glyph glyph-name="percent.smcp" horiz-adv-x="816" 
d="M620 287c91 0 151 -35 151 -116v-62c0 -77 -50 -116 -151 -116c-100 0 -150 39 -150 116v62c0 81 61 116 150 116zM195 497c91 0 151 -35 151 -116v-62c0 -77 -50 -116 -151 -116c-100 0 -150 39 -150 116v62c0 81 61 116 150 116zM573 490l-227 -490h-103l227 490h103z
M195 412c-24 0 -33 -11 -33 -42v-38c0 -29 9 -41 33 -41c25 0 34 12 34 41v38c0 31 -9 42 -34 42zM620 202c-24 0 -33 -11 -33 -42v-38c0 -29 9 -41 33 -41c25 0 34 12 34 41v38c0 31 -9 42 -34 42z" />
    <glyph glyph-name="perthousand.smcp" horiz-adv-x="1150" 
d="M954 287c91 0 151 -35 151 -116v-62c0 -77 -50 -116 -151 -116c-100 0 -150 39 -150 116v62c0 81 61 116 150 116zM954 202c-24 0 -33 -11 -33 -42v-38c0 -29 9 -41 33 -41c25 0 34 12 34 41v38c0 31 -9 42 -34 42zM620 287c91 0 151 -35 151 -116v-62
c0 -77 -50 -116 -151 -116c-100 0 -150 39 -150 116v62c0 81 61 116 150 116zM195 497c91 0 151 -35 151 -116v-62c0 -77 -50 -116 -151 -116c-100 0 -150 39 -150 116v62c0 81 61 116 150 116zM573 490l-227 -490h-103l227 490h103zM195 412c-24 0 -33 -11 -33 -42v-38
c0 -29 9 -41 33 -41c25 0 34 12 34 41v38c0 31 -9 42 -34 42zM620 202c-24 0 -33 -11 -33 -42v-38c0 -29 9 -41 33 -41c25 0 34 12 34 41v38c0 31 -9 42 -34 42z" />
    </font>
</defs>
</svg>
