<?xml version="1.0" standalone="no"?>
<!DOCTYPE svg PUBLIC "-//W3C//DTD SVG 1.1//EN" "http://www.w3.org/Graphics/SVG/1.1/DTD/svg11.dtd" >
<svg xmlns="http://www.w3.org/2000/svg" xmlns:xlink="http://www.w3.org/1999/xlink" version="1.1">
<metadata>
Created by FontForge 20201107 at Mon Feb 14 15:34:46 2022
 By 
Copyright 2021 The Anek Project Authors (https://github.com/EkType/Anek)
</metadata>
<defs>
<font id="AnekLatin-Thin" horiz-adv-x="0" >
  <font-face 
    font-family="Anek Latin Thin"
    font-weight="250"
    font-stretch="normal"
    units-per-em="2000"
    panose-1="0 0 0 0 0 0 0 0 0 0"
    ascent="1600"
    descent="-400"
    x-height="971"
    cap-height="1278"
    bbox="-314 -451 2631 1978"
    underline-thickness="50"
    underline-position="-125"
    unicode-range="U+000D-FB02"
  />
<missing-glyph horiz-adv-x="1160" 
d="M185 0v1278h790v-1278h-790zM224 35h712v1208h-712v-1208zM210 0l695 1266h40l-695 -1266h-40zM950 0h-40l-695 1266h40z" />
    <glyph glyph-name="fi" unicode="fi" horiz-adv-x="1118" 
d="M471 1350q72 0 125 -13.5t103 -34.5l5 -35q-57 22 -111 35.5t-122 13.5q-91 0 -146.5 -25.5t-80.5 -72.5t-25 -114v-6q0 -48 10 -89.5t21 -75.5l-33 -5v7q-10 30 -22.5 73.5t-12.5 92.5v5q0 112 68 178t221 66zM214 0v920h37v-920h-37zM28 910v32h200h12h456l-5 -32h-663
zM915 0v971h37v-971h-37zM934 1189q-21 0 -32 13.5t-11 41.5v9q0 27 11 40.5t32 13.5t31.5 -13.5t10.5 -40.5v-9q0 -28 -10.5 -41.5t-31.5 -13.5z" />
    <glyph glyph-name="fl" unicode="fl" horiz-adv-x="1126" 
d="M471 1350q72 0 125 -13.5t103 -34.5l5 -35q-57 22 -111 35.5t-122 13.5q-91 0 -146.5 -25.5t-80.5 -72.5t-25 -114v-6q0 -48 10 -89.5t21 -75.5l-33 -5v7q-10 30 -22.5 73.5t-12.5 92.5v5q0 112 68 178t221 66zM214 0v920h37v-920h-37zM28 910v32h200h12h456l-5 -32h-663
zM921 0v1329h37v-1329h-37z" />
    <glyph glyph-name="f_f" unicode="ff" horiz-adv-x="1406" 
d="M471 1350q72 0 125 -13.5t103 -34.5l5 -35q-57 22 -111 35.5t-122 13.5q-91 0 -146.5 -25.5t-80.5 -72.5t-25 -114v-6q0 -48 10 -89.5t21 -75.5l-33 -5v7q-10 30 -22.5 73.5t-12.5 92.5v5q0 112 68 178t221 66zM214 0v920h37v-920h-37zM28 910v32h200h12h456l-5 -32h-663
zM1124 1350q72 0 125 -13.5t103 -34.5l5 -35q-57 22 -111 35.5t-122 13.5q-91 0 -146.5 -25.5t-80.5 -72.5t-25 -114v-6q0 -48 10 -89.5t21 -75.5l-33 -5v7q-10 30 -22.5 73.5t-12.5 92.5v5q0 112 68 178t221 66zM867 0v920h37v-920h-37zM681 910v32h200h12h456l-5 -32h-663
z" />
    <glyph glyph-name="f_f_i" unicode="ffi" horiz-adv-x="1771" 
d="M471 1350q72 0 125 -13.5t103 -34.5l5 -35q-57 22 -111 35.5t-122 13.5q-91 0 -146.5 -25.5t-80.5 -72.5t-25 -114v-6q0 -48 10 -89.5t21 -75.5l-33 -5v7q-10 30 -22.5 73.5t-12.5 92.5v5q0 112 68 178t221 66zM214 0v920h37v-920h-37zM28 910v32h200h12h456l-5 -32h-663
zM1124 1350q72 0 125 -13.5t103 -34.5l5 -35q-57 22 -111 35.5t-122 13.5q-91 0 -146.5 -25.5t-80.5 -72.5t-25 -114v-6q0 -48 10 -89.5t21 -75.5l-33 -5v7q-10 30 -22.5 73.5t-12.5 92.5v5q0 112 68 178t221 66zM867 0v920h37v-920h-37zM681 910v32h200h12h456l-5 -32h-663
zM1568 0v971h37v-971h-37zM1587 1189q-21 0 -32 13.5t-11 41.5v9q0 27 11 40.5t32 13.5t31.5 -13.5t10.5 -40.5v-9q0 -28 -10.5 -41.5t-31.5 -13.5z" />
    <glyph glyph-name="f_f_l" unicode="ffl" horiz-adv-x="1779" 
d="M471 1350q72 0 125 -13.5t103 -34.5l5 -35q-57 22 -111 35.5t-122 13.5q-91 0 -146.5 -25.5t-80.5 -72.5t-25 -114v-6q0 -48 10 -89.5t21 -75.5l-33 -5v7q-10 30 -22.5 73.5t-12.5 92.5v5q0 112 68 178t221 66zM214 0v920h37v-920h-37zM28 910v32h200h12h456l-5 -32h-663
zM1124 1350q72 0 125 -13.5t103 -34.5l5 -35q-57 22 -111 35.5t-122 13.5q-91 0 -146.5 -25.5t-80.5 -72.5t-25 -114v-6q0 -48 10 -89.5t21 -75.5l-33 -5v7q-10 30 -22.5 73.5t-12.5 92.5v5q0 112 68 178t221 66zM867 0v920h37v-920h-37zM681 910v32h200h12h456l-5 -32h-663
zM1574 0v1329h37v-1329h-37z" />
    <glyph glyph-name=".notdef" horiz-adv-x="1160" 
d="M185 0v1278h790v-1278h-790zM224 35h712v1208h-712v-1208zM210 0l695 1266h40l-695 -1266h-40zM950 0h-40l-695 1266h40z" />
    <glyph glyph-name=".null" 
 />
    <glyph glyph-name="nonmarkingreturn" horiz-adv-x="666" 
 />
    <glyph glyph-name="CR" unicode="&#xd;" horiz-adv-x="1721" 
 />
    <glyph glyph-name="space" unicode=" " horiz-adv-x="440" 
 />
    <glyph glyph-name="exclam" unicode="!" horiz-adv-x="424" 
d="M227 362h-30l-6 916h41zM211 -12q-21 0 -32 14.5t-11 42.5v10q0 28 11 41.5t32 13.5q23 0 34 -13.5t11 -41.5v-10q0 -28 -11 -42.5t-34 -14.5z" />
    <glyph glyph-name="quotedbl" unicode="&#x22;" horiz-adv-x="592" 
d="M168 871h-31l-5 458h40zM456 871h-31l-5 458h40z" />
    <glyph glyph-name="numbersign" unicode="#" horiz-adv-x="1183" 
d="M274 0l152 1278h36l-152 -1278h-36zM83 384v32h959v-32h-959zM723 0l150 1278h36l-149 -1278h-37zM144 873v32h956v-32h-956z" />
    <glyph glyph-name="dollar" unicode="$" horiz-adv-x="1017" 
d="M520 1278h-36v222h36v-222zM520 -228h-36v228h36v-228zM505 -18q-93 0 -169 18t-132.5 44.5t-92.5 52.5l-6 45q74 -52 174.5 -88t227.5 -36q173 0 263 74.5t90 216.5v24q0 95 -33 155t-111.5 97t-215.5 62q-151 30 -235 73t-117.5 107t-33.5 156v6q0 145 90.5 225.5
t281.5 80.5q134 0 228 -33.5t146 -71.5l5 -42q-65 45 -158 78t-223 33q-115 0 -188 -32t-108 -92.5t-35 -145.5v-6q0 -84 31 -141t109.5 -95t222.5 -67q148 -29 231 -70.5t117.5 -107.5t34.5 -168v-25q0 -159 -100 -243t-294 -84z" />
    <glyph glyph-name="percent" unicode="%" horiz-adv-x="1357" 
d="M294 0l731 1278h38l-731 -1278h-38zM1015 -18q-110 0 -168.5 70t-58.5 186v102q0 117 59 186.5t168 69.5q110 0 168 -69.5t58 -186.5v-102q0 -116 -58.5 -186t-167.5 -70zM1015 14q92 0 141.5 58.5t49.5 164.5v104q0 106 -49.5 164.5t-141.5 58.5q-93 0 -142.5 -58.5
t-49.5 -164.5v-104q0 -106 50 -164.5t142 -58.5zM344 682q-110 0 -168.5 70t-58.5 186v102q0 117 58.5 186.5t168.5 69.5t168 -69.5t58 -186.5v-102q0 -116 -58.5 -186t-167.5 -70zM344 714q92 0 141.5 58.5t49.5 164.5v104q0 106 -49.5 164.5t-141.5 58.5
q-93 0 -142.5 -58.5t-49.5 -164.5v-104q0 -106 50 -164.5t142 -58.5z" />
    <glyph glyph-name="ampersand" unicode="&#x26;" horiz-adv-x="1169" 
d="M1113 0q-25 26 -55 56t-60.5 61t-58.5 59.5t-50 49.5l-9 11l-546 518l-6 6q-63 62 -95.5 122.5t-32.5 138.5v8q0 119 76 192t248 73q117 0 199 -30t127 -65l6 -42q-58 41 -139 71t-195 30q-151 0 -216.5 -63t-65.5 -165v-8q0 -73 33 -130.5t91 -113.5l535 -508l9 -10
l47 -47t51.5 -52t54 -54.5l54 -54l50.5 -50.5v-3h-52zM495 -18q-185 0 -282.5 95t-97.5 276v53q0 128 49 222t174 152l25 -29q-113 -49 -160.5 -131.5t-47.5 -210.5v-55q0 -166 88 -251t254 -85q133 0 225 62.5t160 176.5l8 15q49 98 81.5 226t48.5 284h40
q-18 -169 -53 -304t-88 -235l-6 -9q-48 -79 -108.5 -135.5t-136.5 -86.5t-173 -30z" />
    <glyph glyph-name="quotesingle" unicode="'" horiz-adv-x="304" 
d="M168 871h-31l-5 458h40z" />
    <glyph glyph-name="parenleft" unicode="(" horiz-adv-x="535" 
d="M213 644v-174q0 -154 25.5 -277t77 -227t129.5 -202h-45q-75 95 -125 197.5t-75 226t-25 279.5v180q0 157 25 280t75 225.5t125 197.5h45q-78 -97 -129.5 -201.5t-77 -227t-25.5 -277.5z" />
    <glyph glyph-name="parenright" unicode=")" horiz-adv-x="535" 
d="M322 644q0 155 -25.5 277.5t-76.5 227t-130 201.5h45q75 -95 125 -197.5t75 -225.5t25 -280v-180q0 -156 -25 -279.5t-75 -226t-125 -197.5h-45q79 98 130 202t76.5 227t25.5 277v174z" />
    <glyph glyph-name="asterisk" unicode="*" horiz-adv-x="749" 
d="M198 724l-30 24l190 236l3 -10l-281 76l9 36l278 -86l-6 -8l-5 286h38l-5 -286l-8 8l278 86l10 -36l-281 -76l3 10l190 -236l-31 -24l-179 242h7z" />
    <glyph glyph-name="plus" unicode="+" horiz-adv-x="992" 
d="M515 211h-37v829h37v-829zM120 609v33h752v-33h-752z" />
    <glyph glyph-name="comma" unicode="," horiz-adv-x="300" 
d="M174 223q2 -14 5.5 -44.5t3.5 -66.5q0 -112 -28.5 -206.5t-99.5 -184.5l-23 22q60 83 86.5 171.5t26.5 196.5q0 29 -2 57.5t-7 54.5h38z" />
    <glyph glyph-name="hyphen" unicode="-" horiz-adv-x="872" 
d="M155 517v34h563v-34h-563z" />
    <glyph glyph-name="period" unicode="." horiz-adv-x="308" 
d="M153 -12q-21 0 -32 14.5t-11 42.5v10q0 28 11 41.5t32 13.5q23 0 34 -13.5t11 -41.5v-10q0 -28 -11 -42.5t-34 -14.5z" />
    <glyph glyph-name="slash" unicode="/" horiz-adv-x="766" 
d="M72 -231l582 1566h40l-582 -1566h-40z" />
    <glyph glyph-name="zero" unicode="0" horiz-adv-x="1062" 
d="M531 -18q-199 0 -299.5 119t-100.5 339v396q0 221 100.5 340.5t299.5 119.5q200 0 300 -119.5t100 -340.5v-396q0 -220 -100 -339t-300 -119zM531 18q182 0 271.5 109.5t89.5 311.5v399q0 203 -89.5 312.5t-271.5 109.5q-181 0 -271 -109.5t-90 -312.5v-399
q0 -202 90 -311.5t271 -109.5z" />
    <glyph glyph-name="one" unicode="1" horiz-adv-x="624" 
d="M403 0v1244h-11l-327 -230l2 45l310 219h65v-1278h-39z" />
    <glyph glyph-name="two" unicode="2" horiz-adv-x="899" 
d="M86 0v50l324 350q98 106 172 193.5t115.5 173t41.5 183.5v12q0 96 -34 162.5t-101.5 100.5t-169.5 34q-106 0 -192 -35.5t-154 -85.5l6 43q35 26 84 52.5t113.5 44t143.5 17.5q170 0 256.5 -85t86.5 -248v-13q0 -106 -43 -195t-119.5 -179t-177.5 -199l-311 -334v-23
l-17 17h692v-36h-716z" />
    <glyph glyph-name="three" unicode="3" horiz-adv-x="953" 
d="M452 -18q-80 0 -148.5 15t-120 36.5t-82.5 40.5l-6 45q63 -41 157 -71t200 -30q119 0 195.5 37t113.5 105t37 162v41q0 91 -31 153t-100 94.5t-183 32.5l-219 1v31l227 2q110 1 174 35t92 94.5t28 139.5v30q0 137 -75 210t-244 73q-120 0 -210 -31.5t-155 -75.5l6 41
q50 38 142.5 70t217.5 32q188 0 272.5 -84.5t84.5 -234.5v-29q0 -81 -29 -145.5t-94.5 -103t-173.5 -41.5l-6 4l4 7q167 -5 239 -86t72 -218v-43q0 -156 -93.5 -247.5t-291.5 -91.5z" />
    <glyph glyph-name="four" unicode="4" horiz-adv-x="966" 
d="M702 0v994l1 251h-31l-570 -918v-33l-16 22h847v-35h-870v54l585 943h93v-1278h-39z" />
    <glyph glyph-name="five" unicode="5" horiz-adv-x="1003" 
d="M507 -18q-125 0 -209 30t-131 61l-7 45q42 -27 93.5 -49.5t114.5 -36.5t139 -14q112 0 187.5 38.5t114 112t38.5 178.5v92q0 149 -75 234.5t-230 85.5q-118 0 -205 -48t-146 -142l-30 9v700h703v-34h-666v-406l-3 -236l-8 5q49 80 137.5 133.5t220.5 53.5
q170 0 255.5 -92.5t85.5 -259.5v-96q0 -113 -42.5 -194.5t-126.5 -125.5t-210 -44z" />
    <glyph glyph-name="six" unicode="6" horiz-adv-x="1024" 
d="M536 -18q-129 0 -220.5 50t-139.5 148t-48 241v417q0 218 103 337.5t312 119.5q116 0 189.5 -27.5t122.5 -59.5l5 -42q-42 27 -87.5 48t-101 33t-128.5 12q-193 0 -284.5 -110t-91.5 -311v-417q0 -133 44.5 -222.5t127 -135t197.5 -45.5q170 0 252.5 93t82.5 238v90
q0 101 -34.5 173.5t-104 112t-175.5 39.5q-107 0 -186 -39.5t-130 -110t-77 -164.5l-21 27h12q19 89 69.5 162t135 116.5t201.5 43.5q173 0 261 -95t88 -263v-92q0 -163 -93 -265t-281 -102z" />
    <glyph glyph-name="seven" unicode="7" horiz-adv-x="869" 
d="M255 0l507 1244h-690v34h730v-33l-504 -1245h-43z" />
    <glyph glyph-name="eight" unicode="8" horiz-adv-x="1070" 
d="M535 -23q-102 0 -179.5 22t-129.5 65t-78 106.5t-26 146.5v32q0 97 40 165t113.5 106t173.5 45v-7q-93 4 -162.5 39t-108 99t-38.5 154v31q0 155 99.5 236t295.5 81t296 -81t100 -236v-31q0 -90 -38.5 -154t-108 -99t-163.5 -39v7q101 -7 174.5 -45t113 -106t39.5 -165
v-32q0 -83 -26 -146.5t-78 -106.5t-129 -65t-180 -22zM535 13q185 0 279.5 77.5t94.5 223.5v37q0 141 -91.5 216.5t-282.5 75.5t-282.5 -75.5t-91.5 -216.5v-37q0 -146 94.5 -223.5t279.5 -77.5zM535 678q184 0 270.5 70.5t86.5 200.5v34q0 137 -89 208t-268 71
q-178 0 -267 -71t-89 -208v-34q0 -86 38 -147t117 -92.5t201 -31.5z" />
    <glyph glyph-name="nine" unicode="9" horiz-adv-x="1020" 
d="M493 1295q197 0 297.5 -114.5t100.5 -329.5v-409q0 -221 -102 -340.5t-320 -119.5q-114 0 -187.5 25t-120.5 52l-6 44q64 -36 137.5 -60.5t176.5 -24.5q200 0 292 109.5t92 314.5v407q0 202 -90.5 306t-269.5 104q-173 0 -256.5 -94t-83.5 -239v-80q0 -154 78 -243.5
t248 -89.5q99 0 174 37.5t126 105.5t77 157l21 -27h-12q-18 -85 -68.5 -155t-131 -111.5t-190.5 -41.5q-184 0 -272.5 97.5t-88.5 266.5v83q0 164 94.5 267t284.5 103z" />
    <glyph glyph-name="colon" unicode=":" horiz-adv-x="334" 
d="M168 -12q-21 0 -32 14.5t-11 42.5v10q0 28 11 41.5t32 13.5q23 0 34 -13.5t11 -41.5v-10q0 -28 -11 -42.5t-34 -14.5zM168 769q-21 0 -32 14.5t-11 42.5v10q0 28 11 41.5t32 13.5q23 0 34 -13.5t11 -41.5v-10q0 -28 -11 -42.5t-34 -14.5z" />
    <glyph glyph-name="semicolon" unicode=";" horiz-adv-x="334" 
d="M190 223q2 -14 5.5 -44.5t3.5 -66.5q0 -112 -28.5 -206.5t-99.5 -184.5l-23 22q60 83 86.5 171.5t26.5 196.5q0 29 -2 57.5t-7 54.5h38zM168 769q-21 0 -32 14.5t-11 42.5v10q0 28 11 41.5t32 13.5q23 0 34 -13.5t11 -41.5v-10q0 -28 -11 -42.5t-34 -14.5z" />
    <glyph glyph-name="less" unicode="&#x3c;" horiz-adv-x="1041" 
d="M155 636v-21l717 -241v-38l-752 255v69l752 255v-38z" />
    <glyph glyph-name="equal" unicode="=" horiz-adv-x="1034" 
d="M141 403v34h752v-34h-752zM141 813v34h752v-34h-752z" />
    <glyph glyph-name="greater" unicode="&#x3e;" horiz-adv-x="1041" 
d="M886 636l-717 241v38l752 -255v-69l-752 -255v38l717 241v21z" />
    <glyph glyph-name="question" unicode="?" horiz-adv-x="860" 
d="M308 383v37l61 17q110 31 184.5 79t112.5 121.5t38 179.5v122q0 155 -67 237t-225 82q-103 0 -190.5 -34t-146.5 -78l6 42q32 25 81.5 49t113.5 40.5t137 16.5q176 0 252.5 -91t76.5 -263v-123q0 -114 -39.5 -194t-119.5 -133t-202 -87zM335 -12q-21 0 -32 14.5t-11 42.5
v10q0 28 11 41.5t32 13.5q23 0 34 -13.5t11 -41.5v-10q0 -28 -11 -42.5t-34 -14.5z" />
    <glyph glyph-name="at" unicode="@" horiz-adv-x="1598" 
d="M753 78q-114 0 -176.5 65.5t-62.5 184.5q0 16 1.5 37.5t4 49t6 62.5t7.5 78q11 114 46.5 191.5t98.5 116.5t156 39q115 0 180 -69.5t56 -191.5h11l-23 -33v12v12q0 79 -30 132t-81 79.5t-114 26.5q-124 0 -186.5 -82t-77.5 -230q-4 -43 -8 -78.5t-6 -62.5t-3.5 -48
t-1.5 -36q0 -108 54.5 -165t158.5 -57q68 0 123 30.5t93 85.5t56 128l12 -43h-10q-14 -69 -51.5 -121.5t-96 -82.5t-136.5 -30zM1004 93l25 208l-1 12l35 352l2 16l18 205v0h36l-80 -792zM1024 124q15 -4 30 -5.5t40 -1.5q145 0 225.5 81.5t100.5 285.5q5 49 9 93t7 77.5
t4 48.5q16 188 -51 318t-202.5 198t-327.5 68q-213 0 -353 -78.5t-214.5 -229t-91.5 -367.5q-3 -33 -6 -69t-6.5 -72t-6.5 -71.5t-6 -68t-5 -61.5q-19 -277 142.5 -430t458.5 -153q128 0 233 22.5t188 63t143 94.5l-8 -48q-63 -52 -146.5 -89t-187 -56.5t-226.5 -19.5
q-206 0 -352.5 72t-220 210t-60.5 336q2 29 5 62.5t6 69l6 71t6 69t6 63.5q20 230 98 389t225.5 241.5t375.5 82.5q200 0 342.5 -71.5t214 -209.5t56.5 -337q-1 -17 -4 -50t-6.5 -76.5t-8.5 -91.5q-14 -142 -57.5 -230t-118 -128.5t-183.5 -40.5q-33 0 -51 2t-42 6z" />
    <glyph glyph-name="A" unicode="A" horiz-adv-x="1097" 
d="M76 0l430 1278h83l432 -1278h-41l-419 1246h-27l-417 -1246h-41zM254 452v35h588v-35h-588z" />
    <glyph glyph-name="B" unicode="B" horiz-adv-x="1122" 
d="M203 0v35h470q161 0 227.5 76.5t66.5 203.5v51q0 129 -69 204t-242 75h-447v34h447q152 0 218 73t66 197v25q0 123 -63.5 196t-222.5 73h-451v35h451q177 0 251 -83.5t74 -220.5v-24q0 -127 -66 -205t-212 -86l-6 11q167 -5 239 -85.5t72 -216.5v-53q0 -140 -77 -227.5
t-256 -87.5h-470zM185 0v1278h39v-1278h-39z" />
    <glyph glyph-name="C" unicode="C" horiz-adv-x="995" 
d="M551 -18q-211 0 -317.5 123.5t-106.5 347.5v373q0 225 105 347.5t309 122.5q79 0 143.5 -18t112.5 -45.5t79 -54.5l6 -44q-60 50 -144 88t-197 38q-185 0 -280 -112.5t-95 -321.5v-373q0 -208 96.5 -321t288.5 -113q113 0 196.5 37t144.5 89l-5 -44q-31 -28 -79.5 -55.5
t-112.5 -45.5t-144 -18z" />
    <glyph glyph-name="D" unicode="D" horiz-adv-x="1137" 
d="M205 0v35h337q210 0 319 116t109 333v310q0 218 -109 333.5t-319 115.5h-339v35h340q226 0 346 -125t120 -358v-312q0 -232 -120 -357.5t-346 -125.5h-338zM185 0v1278h39v-1278h-39z" />
    <glyph glyph-name="E" unicode="E" horiz-adv-x="1014" 
d="M185 0v1278h39v-1278h-39zM198 0v35h700v-35h-700zM205 638v35h674v-35h-674zM196 1243v35h697v-35h-697z" />
    <glyph glyph-name="F" unicode="F" horiz-adv-x="974" 
d="M185 0v1278h39v-1278h-39zM205 612v35h657v-35h-657zM196 1243v35h680v-35h-680z" />
    <glyph glyph-name="G" unicode="G" horiz-adv-x="1123" 
d="M557 -18q-140 0 -236 55t-145 161t-49 258v350q0 235 111 362.5t326 127.5q90 0 161 -18.5t123.5 -47t86.5 -57.5l6 -42q-64 52 -157 90.5t-221 38.5q-195 0 -296 -118t-101 -336v-349q0 -211 100 -325t294 -114q105 0 179.5 37t120.5 98.5t64 135.5v377l16 -20h-363v34
h386v-433l-31 2q-16 -66 -61 -127.5t-122.5 -100.5t-191.5 -39zM928 265h35v-265h-39z" />
    <glyph glyph-name="H" unicode="H" horiz-adv-x="1189" 
d="M224 0h-39v1278h39v-1278zM1004 0h-39v1278h39v-1278zM207 681h780v-35h-780v35z" />
    <glyph glyph-name="I" unicode="I" horiz-adv-x="415" 
d="M227 0h-39v1278h39v-1278z" />
    <glyph glyph-name="J" unicode="J" horiz-adv-x="830" 
d="M328 -13q-67 0 -129.5 14t-112.5 37l-5 41q59 -28 121.5 -41.5t125.5 -13.5q160 0 223.5 74t63.5 224v956h39v-957q0 -163 -73 -248.5t-253 -85.5z" />
    <glyph glyph-name="K" unicode="K" horiz-adv-x="1076" 
d="M949 0l-541 635h-191v35h191l532 608h50l-553 -632l-1 20l566 -666h-53zM185 0v1278h39v-1278h-39z" />
    <glyph glyph-name="L" unicode="L" horiz-adv-x="956" 
d="M224 0h-39v1278h39v-1278zM198 35h687v-35h-687v35z" />
    <glyph glyph-name="M" unicode="M" horiz-adv-x="1433" 
d="M157 0l62 1278h84l405 -1100h17l405 1100h85l61 -1278h-39l-29 642l-28 603h-23l-404 -1100h-73l-404 1100h-22l-28 -604l-29 -641h-40z" />
    <glyph glyph-name="N" unicode="N" horiz-adv-x="1189" 
d="M260 1278l693 -1245h14l-2 578v667h39v-1278h-75l-693 1246h-14l2 -620v-626h-39v1278h75z" />
    <glyph glyph-name="O" unicode="O" horiz-adv-x="1133" 
d="M566 -18q-213 0 -326 125.5t-113 357.5v348q0 232 113 357.5t326 125.5t326.5 -125.5t113.5 -357.5v-348q0 -232 -113.5 -357.5t-326.5 -125.5zM566 18q197 0 299 116.5t102 330.5v349q0 214 -102 330t-299 116q-196 0 -298 -116t-102 -330v-349q0 -214 102 -330.5
t298 -116.5z" />
    <glyph glyph-name="P" unicode="P" horiz-adv-x="1073" 
d="M205 480v35h397q173 0 247.5 87.5t74.5 235.5v88q0 146 -73.5 232t-245.5 86h-402v34h404q188 0 272 -96t84 -254v-92q0 -160 -85 -258t-274 -98h-399zM185 0v1278h39v-773v-16v-489h-39z" />
    <glyph glyph-name="Q" unicode="Q" horiz-adv-x="1134" 
d="M1128 -25l-526 9q-238 4 -356.5 128t-118.5 353v348q0 234 112.5 358.5t326.5 124.5q143 0 241 -55.5t148.5 -163.5t50.5 -264v-350q0 -111 -27.5 -193t-75.5 -137t-110 -85.5t-131 -38.5l-18 4l484 2v-40zM602 18h15q73 13 136.5 43t111.5 82.5t75 131t27 188.5v351
q0 215 -102 330.5t-299 115.5q-196 0 -298 -115.5t-102 -330.5v-349q0 -213 113.5 -330t322.5 -117z" />
    <glyph glyph-name="R" unicode="R" horiz-adv-x="1107" 
d="M956 0l-43 274q-13 85 -41 154t-88.5 110.5t-173.5 41.5h-401v34l436 1q160 0 226.5 83.5t66.5 216.5v39q0 134 -69 211.5t-231 77.5h-435v35h437q178 0 257.5 -88.5t79.5 -234.5v-41q0 -137 -71 -227t-234 -95l-2 2l-21 10q109 -7 169 -49.5t88.5 -113t43.5 -162.5
l46 -279h-40zM185 0v1278h39v-670v-17v-591h-39z" />
    <glyph glyph-name="S" unicode="S" horiz-adv-x="1017" 
d="M505 -18q-93 0 -169 18t-132.5 44.5t-92.5 52.5l-6 45q74 -52 174.5 -88t227.5 -36q173 0 263 74.5t90 216.5v24q0 95 -33 155t-111.5 97t-215.5 62q-151 30 -235 73t-117.5 107t-33.5 156v6q0 145 90.5 225.5t281.5 80.5q134 0 228 -33.5t146 -71.5l5 -42
q-65 45 -158 78t-223 33q-115 0 -188 -32t-108 -92.5t-35 -145.5v-6q0 -84 31 -141t109.5 -95t222.5 -67q148 -29 231 -70.5t117.5 -107.5t34.5 -168v-25q0 -159 -100 -243t-294 -84z" />
    <glyph glyph-name="T" unicode="T" horiz-adv-x="1009" 
d="M485 0v1278h39v-1278h-39zM76 1244v34h857v-34h-857z" />
    <glyph glyph-name="U" unicode="U" horiz-adv-x="1170" 
d="M585 -18q-207 0 -309 118t-102 335v843h39v-843q0 -199 91 -308t281 -109q191 0 281.5 109t90.5 308v843h39v-843q0 -217 -102.5 -335t-308.5 -118z" />
    <glyph glyph-name="V" unicode="V" horiz-adv-x="1079" 
d="M498 0l-424 1278h41l412 -1245h25l412 1245h41l-423 -1278h-84z" />
    <glyph glyph-name="W" unicode="W" horiz-adv-x="1568" 
d="M392 0l-300 1278h41l278 -1202l10 -42h24l11 42l291 1164h74l293 -1165l10 -41h24l10 41l278 1203h40l-300 -1278h-80l-221 876l-83 332h-16l-83 -332l-219 -876h-82z" />
    <glyph glyph-name="X" unicode="X" horiz-adv-x="1079" 
d="M82 0l431 666v-14l-425 626h44l403 -595h10l402 595h45l-425 -626v14l430 -666h-44l-408 633h-10l-408 -633h-45z" />
    <glyph glyph-name="Y" unicode="Y" horiz-adv-x="1039" 
d="M502 427l-436 851h43l294 -576l111 -217h11l111 217l294 576h43l-436 -851h-35zM500 0v471h39v-471h-39z" />
    <glyph glyph-name="Z" unicode="Z" horiz-adv-x="1005" 
d="M896 35v-35h-787v31l736 1213h-733v34h779v-30l-737 -1213h742z" />
    <glyph glyph-name="bracketleft" unicode="[" horiz-adv-x="590" 
d="M186 -236v1586h344v-33h-307v-1520h307v-33h-344z" />
    <glyph glyph-name="backslash" unicode="\" horiz-adv-x="766" 
d="M694 -231h-40l-582 1566h40z" />
    <glyph glyph-name="bracketright" unicode="]" horiz-adv-x="590" 
d="M404 -236h-344v33h307v1520h-307v33h344v-1586z" />
    <glyph glyph-name="asciicircum" unicode="^" horiz-adv-x="792" 
d="M363 1278h66l278 -661h-41l-261 628h-18l-261 -628h-41z" />
    <glyph glyph-name="underscore" unicode="_" horiz-adv-x="933" 
d="M77 -147v32h779v-32h-779z" />
    <glyph glyph-name="grave" unicode="`" horiz-adv-x="472" 
d="M157 1360l212 -248v-1h-39l-221 247v2h48z" />
    <glyph glyph-name="a" unicode="a" horiz-adv-x="938" 
d="M754 0l4 256l-3 7v321v85q0 140 -70.5 213.5t-217.5 73.5q-109 0 -195 -35.5t-145 -80.5l5 42q31 24 78.5 49t112 42t144.5 17q83 0 144 -21.5t101.5 -62.5t60 -100.5t19.5 -135.5v-670h-38zM400 -19q-145 0 -223.5 67.5t-78.5 197.5v23q0 116 72 179.5t241 88.5l362 54
l1 -34l-356 -52q-150 -22 -216.5 -76t-66.5 -158v-23q0 -115 69.5 -174.5t200.5 -59.5q104 0 178.5 40.5t119.5 110t58 156.5l19 -37h-12q-8 -79 -52 -148.5t-123 -112t-193 -42.5z" />
    <glyph glyph-name="b" unicode="b" horiz-adv-x="1029" 
d="M540 -19q-100 0 -179.5 41t-126.5 115t-48 174h-12l22 33q6 -109 54.5 -182.5t125 -110.5t166.5 -37q160 0 246 97t86 281v185q0 185 -85.5 282.5t-249.5 97.5q-92 0 -165 -39t-120 -109t-62 -163l-18 37h11q10 85 55.5 154.5t122.5 111t180 41.5q179 0 273.5 -106.5
t94.5 -306.5v-185q0 -200 -95.5 -305.5t-275.5 -105.5zM162 0v1329h37v-340l-4 -277l1 -19v-417l-2 -15l5 -261h-37z" />
    <glyph glyph-name="c" unicode="c" horiz-adv-x="852" 
d="M481 -19q-180 0 -271.5 106t-91.5 305v189q0 198 91.5 303.5t271.5 105.5q70 0 123 -15t91.5 -36.5t62.5 -43.5l5 -43q-46 43 -114.5 73.5t-168.5 30.5q-160 0 -242.5 -96.5t-82.5 -278.5v-188q0 -182 82.5 -279.5t245.5 -97.5q104 0 173 31.5t115 73.5l-6 -44
q-39 -34 -107.5 -65t-176.5 -31z" />
    <glyph glyph-name="d" unicode="d" horiz-adv-x="1029" 
d="M486 -19q-178 0 -273 106.5t-95 306.5v185q0 200 95.5 305.5t275.5 105.5q100 0 180 -41t126.5 -115t47.5 -174h12l-22 -33q-6 110 -54.5 183t-124.5 110t-167 37q-160 0 -246 -96.5t-86 -281.5v-185q0 -185 86 -282.5t249 -97.5q93 0 166 39t120 109t61 163l18 -37h-11
q-9 -85 -55 -154.5t-123 -111t-180 -41.5zM830 0l5 261l-2 15v417l1 19l-4 277v340h37v-1329h-37z" />
    <glyph glyph-name="e" unicode="e" horiz-adv-x="950" 
d="M503 -19q-183 0 -284 99.5t-101 280.5v224q0 200 93.5 304.5t271.5 104.5q117 0 198.5 -47t123.5 -136.5t42 -217.5v-34q0 -22 -0.5 -44t-2.5 -49h-34v67v59q0 119 -37.5 201t-110.5 125t-179 43q-160 0 -244 -96t-84 -280v-98v-8v-117q0 -82 23.5 -146t68.5 -108.5
t110 -68t147 -23.5q95 0 175 29.5t150 84.5l-5 -44q-59 -48 -141 -76.5t-180 -28.5zM135 466v33h696v-33h-696z" />
    <glyph glyph-name="f" unicode="f" horiz-adv-x="753" 
d="M471 1350q72 0 125 -13.5t103 -34.5l5 -35q-57 22 -111 35.5t-122 13.5q-91 0 -146.5 -25.5t-80.5 -72.5t-25 -114v-6q0 -48 10 -89.5t21 -75.5l-33 -5v7q-10 30 -22.5 73.5t-12.5 92.5v5q0 112 68 178t221 66zM214 0v920h37v-920h-37zM28 910v32h200h12h456l-5 -32h-663
z" />
    <glyph glyph-name="g" unicode="g" horiz-adv-x="987" 
d="M496 276q-176 0 -270.5 83t-94.5 245v54q0 95 36 168t114.5 116t205.5 45l459 9v-35l-374 4l-1 5q109 -11 171.5 -53.5t89 -108.5t26.5 -148v-59q0 -162 -92 -243.5t-270 -81.5zM491 -336h17q108 0 191 17.5t130.5 58t47.5 109.5v4q0 76 -55.5 120.5t-185.5 54.5l-255 20
l33 1q-84 -10 -148.5 -32t-101 -62t-36.5 -103v-3q0 -71 46.5 -111.5t128.5 -57t188 -16.5zM491 -370q-118 0 -208 20t-141 67.5t-51 129.5v4q0 71 39 115t103 66.5t139 28.5l-2 -6q-116 9 -167.5 42t-51.5 90v1q0 36 18 61.5t58.5 39.5t105.5 14v13l111 -34h-77
q-102 -1 -141.5 -24t-39.5 -68v-1q0 -47 50 -73t174 -37l231 -20q146 -13 209.5 -65.5t63.5 -138.5v-4q0 -81 -51.5 -129.5t-143 -70t-211.5 -21.5h-17zM496 309q107 0 179 33t109 98.5t37 160.5v59q0 93 -36 159t-106.5 100.5t-174.5 34.5h-10q-116 0 -188 -38t-105 -105
t-33 -153v-54q0 -97 36.5 -162.5t109.5 -99t182 -33.5z" />
    <glyph glyph-name="h" unicode="h" horiz-adv-x="1016" 
d="M832 0v620q0 106 -28.5 181t-92.5 115.5t-171 40.5q-100 0 -173 -39.5t-117 -108.5t-58 -158l-22 37h15q9 82 52.5 150.5t120 110t184.5 41.5q121 0 192.5 -44.5t103 -127t31.5 -196.5v-622h-37zM162 0v1329h37v-338l-4 -277l4 -6v-708h-37z" />
    <glyph glyph-name="i" unicode="i" horiz-adv-x="369" 
d="M166 0v971h37v-971h-37zM185 1189q-21 0 -32 13.5t-11 41.5v9q0 27 11 40.5t32 13.5t31.5 -13.5t10.5 -40.5v-9q0 -28 -10.5 -41.5t-31.5 -13.5z" />
    <glyph glyph-name="j" unicode="j" horiz-adv-x="408" 
d="M205 0v971h37v-971h-37zM224 1189q-21 0 -32 13.5t-11 41.5v9q0 27 11 40.5t32 13.5t31.5 -13.5t10.5 -40.5v-9q0 -28 -10.5 -41.5t-31.5 -13.5zM14 -354q-41 0 -78.5 9t-63.5 22l-6 40q35 -18 73 -27t79 -9q104 0 145.5 57.5t41.5 170.5v407h37v-408q0 -85 -22.5 -143.5
t-72.5 -88.5t-133 -30z" />
    <glyph glyph-name="k" unicode="k" horiz-adv-x="906" 
d="M797 0l-488 505h-123v34h123l465 432h53l-495 -460v24l517 -535h-52zM162 0v1329h37v-1329h-37z" />
    <glyph glyph-name="l" unicode="l" horiz-adv-x="373" 
d="M168 0v1329h37v-1329h-37z" />
    <glyph glyph-name="m" unicode="m" horiz-adv-x="1578" 
d="M1394 0v620q0 106 -26 181t-84.5 115.5t-156.5 40.5q-89 0 -156.5 -38.5t-109 -105t-53.5 -150.5l-21 40h10q9 75 51 140.5t113 106t168 40.5q111 0 177 -44.5t95.5 -127t29.5 -196.5v-622h-37zM162 0v971h37l-4 -256h4v-715h-37zM778 0v619q0 106 -26 181.5t-84 116
t-155 40.5q-92 0 -159.5 -39.5t-108 -109t-53.5 -158.5l-21 38h14q9 82 49 150.5t111 110t170 41.5q133 0 204.5 -68.5t90.5 -205.5q3 -23 4 -44t1 -44v-628h-37z" />
    <glyph glyph-name="n" unicode="n" horiz-adv-x="1016" 
d="M832 0v620q0 106 -28.5 181t-92.5 115.5t-171 40.5q-99 0 -172.5 -39.5t-117.5 -109t-58 -158.5l-18 38h11q9 82 52.5 150.5t120.5 110t184 41.5q121 0 192.5 -44.5t103 -127t31.5 -196.5v-622h-37zM162 0v971h37l-4 -254h4v-717h-37z" />
    <glyph glyph-name="o" unicode="o" horiz-adv-x="998" 
d="M499 -23q-187 0 -284 108t-97 310v183q0 202 97.5 309t283.5 107t283.5 -107t97.5 -309v-183q0 -202 -97.5 -310t-283.5 -108zM499 10q167 0 255.5 99t88.5 286v183q0 186 -88 284.5t-256 98.5t-256 -98.5t-88 -284.5v-183q0 -187 88 -286t256 -99z" />
    <glyph glyph-name="p" unicode="p" horiz-adv-x="1029" 
d="M540 -19q-100 0 -179.5 41t-126.5 115t-48 174h-12l22 33q6 -109 54.5 -182.5t125 -110.5t166.5 -37q160 0 246 97t86 281v185q0 185 -85.5 282.5t-249.5 97.5q-92 0 -165 -39t-120 -109t-62 -163l-18 37h11q10 85 55.5 154.5t122.5 111t180 41.5q179 0 273.5 -106.5
t94.5 -306.5v-185q0 -200 -95.5 -305.5t-275.5 -105.5zM162 -344v1315h37l-4 -259l1 -19v-417l-2 -15l5 -261v-344h-37z" />
    <glyph glyph-name="q" unicode="q" horiz-adv-x="1029" 
d="M486 -19q-178 0 -273 106.5t-95 306.5v185q0 200 95.5 305.5t275.5 105.5q100 0 180 -41t126.5 -115t47.5 -174h12l-22 -33q-6 110 -54.5 183t-124.5 110t-167 37q-160 0 -246 -96.5t-86 -281.5v-185q0 -185 86 -282.5t249 -97.5q93 0 166 39t120 109t61 163l18 -37h-11
q-9 -85 -55 -154.5t-123 -111t-180 -41.5zM830 -344v344l5 266l-2 10v417l1 19l-4 259h37v-1315h-37z" />
    <glyph glyph-name="r" unicode="r" horiz-adv-x="719" 
d="M193 617l-19 24l11 9q33 154 129 244.5t236 90.5q42 0 74.5 -7t54.5 -17l3 -36q-26 11 -60 18t-75 7q-123 0 -217.5 -83.5t-136.5 -249.5zM162 0v971h37l-5 -301l5 -5v-665h-37z" />
    <glyph glyph-name="s" unicode="s" horiz-adv-x="846" 
d="M425 -19q-117 0 -200.5 30t-135.5 64l-6 43q70 -44 152.5 -73t191.5 -29q137 0 215 53.5t78 157.5v20q0 67 -25 111t-90 74.5t-186 53.5q-123 23 -194 54t-100.5 81t-29.5 128v10q0 110 78.5 170t235.5 60q112 0 191.5 -29t126.5 -65l6 -41q-61 44 -139.5 72.5
t-185.5 28.5q-94 0 -155 -23.5t-91 -67.5t-30 -105v-10q0 -70 26.5 -112.5t91.5 -68.5t178 -48q128 -24 199.5 -57.5t100.5 -85t29 -128.5v-22q0 -119 -87.5 -182.5t-244.5 -63.5z" />
    <glyph glyph-name="t" unicode="t" horiz-adv-x="791" 
d="M482 -18q-97 0 -158 28.5t-90 87.5t-29 148v679h37v-676q0 -118 55 -175t186 -57q62 0 122.5 15.5t116.5 47.5l-5 -40q-46 -26 -108.5 -42t-126.5 -16zM22 914v32h687l-5 -32h-682zM205 936v292l39 15l-3 -307h-36z" />
    <glyph glyph-name="u" unicode="u" horiz-adv-x="1016" 
d="M184 971v-620q0 -105 28.5 -180.5t92.5 -116t171 -40.5q100 0 173 39.5t117.5 109t57.5 158.5l18 -38h-11q-9 -81 -52.5 -150t-120 -110.5t-184.5 -41.5q-120 0 -192 44.5t-103.5 127t-31.5 196.5v622h37zM854 971v-971h-37l4 254h-4v717h37z" />
    <glyph glyph-name="v" unicode="v" horiz-adv-x="939" 
d="M482 33l347 938h41l-362 -971h-76l-363 971h41l348 -938h24z" />
    <glyph glyph-name="w" unicode="w" horiz-adv-x="1444" 
d="M362 0l-278 971h41l263 -938h24l278 909h64l278 -909h24l263 938h41l-278 -971h-76l-231 757l-48 155h-11l-48 -156l-230 -756h-76z" />
    <glyph glyph-name="x" unicode="x" horiz-adv-x="909" 
d="M82 0l348 509v-14l-342 476h44l318 -446h10l318 446h44l-342 -475v14l347 -510h-44l-323 477h-10l-323 -477h-45z" />
    <glyph glyph-name="y" unicode="y" horiz-adv-x="939" 
d="M493 71l-17 -9l353 909h41l-509 -1315h-41l153 397l10 -15h-51l-363 933h41l348 -900h35z" />
    <glyph glyph-name="z" unicode="z" horiz-adv-x="870" 
d="M772 33v-33h-675v31l627 908h-625v32h670v-30l-627 -908h630z" />
    <glyph glyph-name="braceleft" unicode="{" horiz-adv-x="665" 
d="M597 1325v-35q-26 11 -62 19t-81 8q-90 0 -130 -45t-40 -149q0 -46 3.5 -106t7.5 -122t4 -114q0 -63 -17 -109.5t-56.5 -74t-109.5 -35.5v-11l-2 10q71 -7 111 -35.5t57 -76t17 -112.5q0 -53 -4 -115.5t-7.5 -123t-3.5 -107.5q0 -104 40 -149.5t130 -45.5q45 0 81 8.5
t62 19.5v-34q-28 -12 -64.5 -19.5t-79.5 -7.5q-107 0 -157 55t-50 170q0 53 4 115.5t8 123.5t4 108q0 62 -15 105t-54 68.5t-113 32.5v40q74 7 113 31.5t54 67t15 102.5q0 48 -4 108.5t-8 122t-4 112.5q0 116 49.5 171t157.5 55q43 0 79.5 -7.5t64.5 -18.5z" />
    <glyph glyph-name="bar" unicode="|" horiz-adv-x="458" 
d="M247 -451h-36v1872h36v-1872z" />
    <glyph glyph-name="braceright" unicode="}" horiz-adv-x="665" 
d="M68 1325q28 11 64.5 18.5t79.5 7.5q108 0 157.5 -55t49.5 -171q0 -51 -4 -112.5t-8 -122t-4 -108.5q0 -60 15 -102.5t54.5 -67t112.5 -31.5v-40q-73 -7 -112.5 -32.5t-54.5 -68.5t-15 -105q0 -47 4 -108t8 -123.5t4 -115.5q0 -115 -50 -170t-157 -55q-43 0 -79.5 7.5
t-64.5 19.5v34q26 -11 62 -19.5t81 -8.5q90 0 130 45.5t40 149.5q0 47 -4 107.5t-7.5 123t-3.5 115.5q0 65 17 112.5t57.5 76t110.5 35.5l-2 -10v11q-69 8 -109 35.5t-57 74t-17 109.5q0 52 3.5 114t7.5 122t4 106q0 104 -40 149t-130 45q-45 0 -81 -8t-62 -19v35z" />
    <glyph glyph-name="asciitilde" unicode="~" horiz-adv-x="1065" 
d="M746 492q-57 0 -111.5 23t-108 52.5t-105 52.5t-102.5 23q-66 0 -98 -38.5t-32 -117.5v-20h-33v21q0 96 40 142t124 46q55 0 109.5 -22.5t107.5 -52.5t105.5 -52.5t103.5 -22.5q66 0 97.5 38t31.5 117v19h34v-22q0 -94 -40 -140t-123 -46z" />
    <glyph glyph-name="uni00A0" unicode="&#xa0;" horiz-adv-x="440" 
 />
    <glyph glyph-name="exclamdown" unicode="&#xa1;" horiz-adv-x="424" 
d="M227 609l5 -916h-41l6 916h30zM211 983q23 0 34 -14t11 -43v-10q0 -28 -11 -41.5t-34 -13.5q-21 0 -32 13.5t-11 41.5v10q0 29 11 43t32 14z" />
    <glyph glyph-name="cent" unicode="&#xa2;" horiz-adv-x="852" 
d="M492 971h-35v224h35v-224zM492 -228h-35v221h35v-221zM481 -19q-180 0 -271.5 106t-91.5 305v189q0 198 91.5 303.5t271.5 105.5q70 0 123 -15t91.5 -36.5t62.5 -43.5l5 -43q-46 43 -114.5 73.5t-168.5 30.5q-160 0 -242.5 -96.5t-82.5 -278.5v-188q0 -182 82.5 -279.5
t245.5 -97.5q104 0 173 31.5t115 73.5l-6 -44q-39 -34 -107.5 -65t-176.5 -31z" />
    <glyph glyph-name="sterling" unicode="&#xa3;" horiz-adv-x="1063" 
d="M96 634l7 34h772l-6 -34h-773zM168 35h814v-35h-881v30l27 8q61 18 101.5 59t61.5 106.5t21 156.5q0 77 -11 148t-26 141t-26.5 143.5t-11.5 155.5q0 175 93.5 261.5t279.5 86.5q83 0 161.5 -17.5t136.5 -43.5l5 -40q-73 33 -149 49t-156 16q-106 0 -180 -34t-113 -103
t-39 -174q0 -79 11.5 -151t26 -142.5t26 -142.5t11.5 -151q0 -131 -44 -212t-129 -122z" />
    <glyph glyph-name="currency" unicode="&#xa4;" horiz-adv-x="936" 
d="M468 269q-150 0 -231.5 83.5t-81.5 240.5v62q0 157 82 239.5t232 82.5t231.5 -82.5t81.5 -239.5v-62q0 -157 -82 -240.5t-232 -83.5zM469 303q132 0 204 74t72 216v62q0 141 -72 214.5t-204 73.5q-133 0 -205 -73.5t-72 -214.5v-62q0 -142 72 -216t205 -74zM688 363
l158 -191l-26 -21l-159 189zM275 341l-158 -190l-27 21l160 193zM247 884l-157 189l26 21l158 -189zM661 903l159 191l26 -21l-157 -191z" />
    <glyph glyph-name="yen" unicode="&#xa5;" horiz-adv-x="1081" 
d="M638 611l17 33h295l-7 -33h-305zM139 322h811l-7 -33h-811zM422 644l18 -33h-308l7 33h283zM519 427l-436 851h43l294 -576l111 -217h11l111 217l294 576h43l-436 -851h-35zM517 0v471h39v-471h-39z" />
    <glyph glyph-name="brokenbar" unicode="&#xa6;" horiz-adv-x="458" 
d="M247 595h-36v826h36v-826zM247 -451h-36v828h36v-828z" />
    <glyph glyph-name="section" unicode="&#xa7;" horiz-adv-x="930" 
d="M557 352q103 22 152.5 88t49.5 140v6q0 63 -25 107t-90 75t-187 55q-123 25 -193.5 57t-100 78t-29.5 110v7q0 108 78.5 164t235.5 56q112 0 191.5 -29t126.5 -65l6 -41q-61 44 -139.5 72.5t-185.5 28.5q-140 0 -208 -48t-68 -138v-7q0 -57 26.5 -95.5t91 -66
t177.5 -50.5q128 -25 199.5 -59.5t101 -84.5t29.5 -124v-8q0 -80 -50.5 -146.5t-143.5 -89.5v-18zM372 854q-102 -22 -151.5 -88t-49.5 -140v-6q0 -66 26.5 -111t91 -74.5t178.5 -51.5q128 -24 199.5 -57t100.5 -82.5t29 -124.5v-6q0 -118 -87 -179t-245 -61q-117 0 -201 30
t-136 64l-6 43q70 -44 153 -73t192 -29q139 0 216 51t77 154v6q0 63 -25 106t-90 72.5t-186 52.5q-123 24 -194 58t-100.5 85.5t-29.5 124.5v8q0 80 50.5 147t142.5 89v15z" />
    <glyph glyph-name="dieresis" unicode="&#xa8;" horiz-adv-x="564" 
d="M149 1182q-22 0 -32.5 13.5t-10.5 41.5v6q0 26 10.5 39.5t32.5 13.5t32.5 -13.5t10.5 -39.5v-6q0 -28 -10.5 -41.5t-32.5 -13.5zM416 1182q-22 0 -32.5 13.5t-10.5 41.5v6q0 26 10.5 39.5t32.5 13.5q21 0 31.5 -13.5t10.5 -39.5v-6q0 -28 -10.5 -41.5t-31.5 -13.5z" />
    <glyph glyph-name="copyright" unicode="&#xa9;" horiz-adv-x="1358" 
d="M679 -18q-176 0 -299.5 66.5t-188 191.5t-64.5 300v198q0 176 64.5 300.5t188 191t299.5 66.5t299.5 -66.5t188 -191t64.5 -300.5v-198q0 -175 -64.5 -300t-188 -191.5t-299.5 -66.5zM707 313q-124 0 -186 72.5t-62 208.5v92q0 136 62.5 208.5t186.5 72.5
q71 0 117.5 -21.5t71.5 -44.5l4 -40q-33 29 -79.5 50.5t-114.5 21.5q-106 0 -159 -63.5t-53 -182.5v-92q0 -119 53 -183.5t161 -64.5q71 0 117.5 22t79.5 51l-4 -40q-27 -25 -74 -46t-121 -21zM679 15q248 0 381.5 138.5t133.5 386.5v199q0 248 -133.5 386t-381.5 138
q-247 0 -381 -138t-134 -386v-199q0 -248 134 -386.5t381 -138.5z" />
    <glyph glyph-name="ordfeminine" unicode="&#xaa;" horiz-adv-x="664" 
d="M503 644l3 155l-3 4v213v57q0 90 -41.5 138.5t-132.5 48.5q-69 0 -125 -23t-93 -52l3 36q31 25 86 48t131 23q53 0 92 -14t64.5 -42t38 -69t12.5 -94v-429h-35zM285 632q-92 0 -142.5 44.5t-50.5 128.5v15q0 76 46 120t161 62l214 34l2 -31l-210 -32
q-101 -16 -139.5 -52.5t-38.5 -99.5v-14q0 -66 41.5 -104.5t123.5 -38.5q94 0 148.5 52t65.5 125l17 -26h-9q-7 -74 -65 -128.5t-164 -54.5z" />
    <glyph glyph-name="guillemotleft" unicode="&#xab;" horiz-adv-x="958" 
d="M547 484l328 -383h-46l-314 364v38l314 364h46zM139 484l328 -383h-46l-314 364v38l314 364h46z" />
    <glyph glyph-name="logicalnot" unicode="&#xac;" horiz-adv-x="1024" 
d="M872 211h-35v412h35v-412zM120 608v34h752v-34h-752z" />
    <glyph glyph-name="uni00AD" unicode="&#xad;" horiz-adv-x="872" 
d="M155 517v34h563v-34h-563z" />
    <glyph glyph-name="registered" unicode="&#xae;" horiz-adv-x="822" 
d="M411 572q-151 0 -234 82t-83 236v86q0 155 83 236.5t234 81.5q152 0 234.5 -81.5t82.5 -236.5v-86q0 -154 -82.5 -236t-234.5 -82zM411 603q137 0 210 72t73 215v86q0 143 -73 214.5t-210 71.5t-210 -71.5t-73 -214.5v-86q0 -143 73 -215t210 -72zM522 742l-13 77
q-8 49 -27.5 67t-58.5 18h-103v29h119q41 0 59.5 20.5t18.5 55.5v13q0 33 -17.5 54t-61.5 21h-120v29h121q57 0 84 -26t27 -76v-13q0 -37 -20.5 -63t-69.5 -29l-4 -4l-9 8q48 -3 66.5 -28.5t27.5 -73.5l15 -79h-34zM297 742v384h33v-202v-12v-170h-33z" />
    <glyph glyph-name="macron" unicode="&#xaf;" horiz-adv-x="730" 
d="M125 1212v32h480v-32h-480z" />
    <glyph glyph-name="degree" unicode="&#xb0;" horiz-adv-x="641" 
d="M320 824q-100 0 -155 63t-55 169v9q0 107 55 169t155 62q101 0 156 -62t55 -169v-9q0 -106 -55 -169t-156 -63zM320 857q84 0 129 53.5t45 144.5v11q0 92 -45 144.5t-129 52.5q-83 0 -128.5 -52.5t-45.5 -144.5v-11q0 -91 45.5 -144.5t128.5 -53.5z" />
    <glyph glyph-name="plusminus" unicode="&#xb1;" horiz-adv-x="1034" 
d="M141 203v33h752v-33h-752zM535 396h-36v679h36v-679zM141 719v33h752v-33h-752z" />
    <glyph glyph-name="uni00B2" unicode="&#xb2;" horiz-adv-x="585" 
d="M55 725v41l212 171q69 55 114 97.5t67.5 85t22.5 96.5v7q0 80 -47.5 119t-135.5 39q-61 0 -119 -20t-109 -53l4 35q37 26 97 48t127 22q106 0 162 -48.5t56 -141.5v-8q0 -58 -26.5 -106t-76 -95t-118.5 -102l-192 -152v-13l-14 10h443v-32h-467z" />
    <glyph glyph-name="uni00B3" unicode="&#xb3;" horiz-adv-x="612" 
d="M289 715q-81 0 -138.5 17.5t-86.5 32.5l-4 36q39 -20 100 -37t131 -17q112 0 162 44t50 113v13q0 36 -11 62.5t-35 44t-60.5 26.5t-87.5 9l-139 1v29l135 1q102 1 146.5 39.5t44.5 99.5v12q0 65 -48 102t-152 37q-77 0 -133.5 -17.5t-97.5 -40.5l4 35q32 20 90 37.5
t140 17.5q122 0 177.5 -44.5t55.5 -124.5v-14q0 -57 -39.5 -104.5t-137.5 -49.5h-6l6 3q100 -4 142 -48t42 -114v-15q0 -50 -25 -92.5t-79.5 -68t-145.5 -25.5z" />
    <glyph glyph-name="acute" unicode="&#xb4;" horiz-adv-x="472" 
d="M316 1360h48v-2l-221 -247h-39v1z" />
    <glyph glyph-name="uni00B5" unicode="&#xb5;" horiz-adv-x="1031" 
d="M869 971v-971h-37l4 254h-4v717h37zM199 341q0 -75 19.5 -135.5t58.5 -103.5t97 -65.5t135 -22.5q92 0 161.5 39.5t113 109t55.5 158.5l18 -38h-11q-8 -81 -51 -150t-116 -110.5t-172 -41.5q-103 0 -168 34t-100 87.5t-49 111.5l3 -1l6 -273v-284h-37v1315h37v-630z" />
    <glyph glyph-name="paragraph" unicode="&#xb6;" horiz-adv-x="647" 
d="M357 676q-126 0 -186.5 74t-60.5 195v66q0 121 60.5 194t185.5 73h83l1 -602h-83zM462 0h-39v1278h39v-1278z" />
    <glyph glyph-name="periodcentered" unicode="&#xb7;" horiz-adv-x="307" 
d="M153 476q-21 0 -32 13.5t-11 41.5v6q0 26 11 39.5t32 13.5q22 0 33 -13.5t11 -39.5v-6q0 -28 -11 -41.5t-33 -13.5z" />
    <glyph glyph-name="cedilla" unicode="&#xb8;" horiz-adv-x="535" 
d="M285 2l-16 -135l-22 19q6 -1 20.5 -1.5t24.5 -1.5q99 -7 144.5 -37.5t45.5 -95.5v-3q0 -61 -45.5 -92.5t-130.5 -31.5q-40 0 -77 7.5t-62 16.5l-8 37q31 -13 68 -20.5t78 -7.5q72 0 107 23t35 67v3q0 54 -39 76.5t-130 29.5q-9 1 -20 1.5t-23 1.5l17 144h33z" />
    <glyph glyph-name="uni00B9" unicode="&#xb9;" horiz-adv-x="407" 
d="M260 725v645h-6l-212 -138l1 37l203 134h48v-678h-34z" />
    <glyph glyph-name="ordmasculine" unicode="&#xba;" horiz-adv-x="687" 
d="M344 632q-121 0 -185.5 70.5t-64.5 206.5v109q0 136 64.5 206t185.5 70t185 -70t64 -206v-109q0 -136 -64 -206.5t-185 -70.5zM344 664q104 0 158.5 62.5t54.5 181.5v111q0 119 -54.5 181t-158.5 62t-159 -62t-55 -181v-111q0 -118 55 -181t159 -63z" />
    <glyph glyph-name="guillemotright" unicode="&#xbb;" horiz-adv-x="958" 
d="M491 101l328 383l-328 383h46l314 -364v-38l-314 -364h-46zM83 101l328 383l-328 383h46l314 -364v-38l-314 -364h-46z" />
    <glyph glyph-name="onequarter" unicode="&#xbc;" horiz-adv-x="1298" 
d="M260 600v645h-6l-212 -138l1 37l203 134h48v-678h-34zM188 0l829 1278h41l-829 -1278h-41zM1126 0v508l2 142h-22l-340 -472v-22l-16 17h526v-30h-546v40l356 495h74v-678h-34z" />
    <glyph glyph-name="onehalf" unicode="&#xbd;" horiz-adv-x="1424" 
d="M260 600v645h-6l-212 -138l1 37l203 134h48v-678h-34zM188 0l829 1278h41l-829 -1278h-41zM894 0v41l212 171q69 55 114 97.5t67.5 85t22.5 96.5v7q0 80 -47.5 119t-135.5 39q-61 0 -119 -20t-109 -53l4 35q37 26 97 48t127 22q106 0 162 -48.5t56 -141.5v-8
q0 -58 -26.5 -106t-76 -95t-118.5 -102l-192 -152v-13l-14 10h443v-32h-467z" />
    <glyph glyph-name="threequarters" unicode="&#xbe;" horiz-adv-x="1493" 
d="M289 590q-81 0 -138.5 17.5t-86.5 32.5l-4 36q39 -20 100 -37t131 -17q112 0 162 44t50 113v13q0 36 -11 62.5t-35 44t-60.5 26.5t-87.5 9l-139 1v29l135 1q102 1 146.5 39.5t44.5 99.5v12q0 65 -48 102t-152 37q-77 0 -133.5 -17.5t-97.5 -40.5l4 35q32 20 90 37.5
t140 17.5q122 0 177.5 -44.5t55.5 -124.5v-14q0 -57 -39.5 -104.5t-137.5 -49.5h-6l6 3q100 -4 142 -48t42 -114v-15q0 -50 -25 -92.5t-79.5 -68t-145.5 -25.5zM383 0l829 1278h41l-829 -1278h-41zM1321 0v508l2 142h-22l-340 -472v-22l-16 17h526v-30h-546v40l356 495h74
v-678h-34z" />
    <glyph glyph-name="questiondown" unicode="&#xbf;" horiz-adv-x="860" 
d="M552 588v-37l-61 -17q-110 -31 -184.5 -79t-112.5 -121t-38 -180v-122q0 -155 67 -237t225 -82q103 0 190.5 34t146.5 78l-6 -42q-31 -24 -81 -48.5t-114 -41t-137 -16.5q-175 0 -252 91t-77 263v123q0 114 39.5 194t120 133.5t201.5 86.5zM525 983q21 0 32 -14t11 -43
v-10q0 -28 -11 -41.5t-32 -13.5q-22 0 -33.5 13.5t-11.5 41.5v10q0 29 11.5 43t33.5 14z" />
    <glyph glyph-name="Agrave" unicode="&#xc0;" horiz-adv-x="1097" 
d="M76 0l430 1278h83l432 -1278h-41l-419 1246h-27l-417 -1246h-41zM254 452v35h588v-35h-588zM312 1647l260 -228v-1h-45l-267 227v2h52z" />
    <glyph glyph-name="Aacute" unicode="&#xc1;" horiz-adv-x="1097" 
d="M76 0l430 1278h83l432 -1278h-41l-419 1246h-27l-417 -1246h-41zM254 452v35h588v-35h-588zM791 1647h52v-2l-267 -227h-45v1z" />
    <glyph glyph-name="Acircumflex" unicode="&#xc2;" horiz-adv-x="1097" 
d="M76 0l430 1278h83l432 -1278h-41l-419 1246h-27l-417 -1246h-41zM254 452v35h588v-35h-588zM525 1647h48l240 -228v-1h-42l-219 198h-6l-219 -198h-42v1z" />
    <glyph glyph-name="Atilde" unicode="&#xc3;" horiz-adv-x="1097" 
d="M76 0l430 1278h83l432 -1278h-41l-419 1246h-27l-417 -1246h-41zM254 452v35h588v-35h-588zM690 1448q-41 0 -77.5 17t-70.5 39t-67.5 39t-68.5 17q-38 0 -54 -23t-16 -67v-31h-32v32q0 53 22 87.5t81 34.5q41 0 77 -17t70 -39t68 -39t69 -17q38 0 54 23.5t16 66.5v30h32
v-32q0 -52 -22 -86.5t-81 -34.5z" />
    <glyph glyph-name="Adieresis" unicode="&#xc4;" horiz-adv-x="1097" 
d="M76 0l430 1278h83l432 -1278h-41l-419 1246h-27l-417 -1246h-41zM254 452v35h588v-35h-588zM416 1477q-22 0 -32.5 13.5t-10.5 41.5v6q0 26 10.5 39.5t32.5 13.5t32.5 -13.5t10.5 -39.5v-6q0 -28 -10.5 -41.5t-32.5 -13.5zM683 1477q-22 0 -32.5 13.5t-10.5 41.5v6
q0 26 10.5 39.5t32.5 13.5q21 0 31.5 -13.5t10.5 -39.5v-6q0 -28 -10.5 -41.5t-31.5 -13.5z" />
    <glyph glyph-name="Aring" unicode="&#xc5;" horiz-adv-x="1097" 
d="M76 0l430 1278h83l432 -1278h-41l-419 1246h-27l-417 -1246h-41zM254 452v35h588v-35h-588zM396 1531v2q0 68 41 107t111 39t110.5 -39t40.5 -107v-2q0 -67 -40.5 -106t-110.5 -39t-111 39t-41 106zM429 1531q0 -54 31 -84t88 -30t88 30t31 84v2q0 55 -31 85.5t-88 30.5
t-88 -30.5t-31 -85.5v-2z" />
    <glyph glyph-name="AE" unicode="&#xc6;" horiz-adv-x="1670" 
d="M74 0l677 1278h101v-32h-75l-660 -1246h-43zM345 452v35h509v-35h-509zM854 0v35h700v-35h-700zM841 0v1278h39v-1278h-39zM861 638v35h674v-35h-674zM852 1243v35h697v-35h-697z" />
    <glyph glyph-name="Ccedilla" unicode="&#xc7;" horiz-adv-x="995" 
d="M551 -18q-211 0 -317.5 123.5t-106.5 347.5v373q0 225 105 347.5t309 122.5q79 0 143.5 -18t112.5 -45.5t79 -54.5l6 -44q-60 50 -144 88t-197 38q-185 0 -280 -112.5t-95 -321.5v-373q0 -208 96.5 -321t288.5 -113q113 0 196.5 37t144.5 89l-5 -44q-31 -28 -79.5 -55.5
t-112.5 -45.5t-144 -18zM537 2l-16 -135l-22 19q6 -1 20.5 -1.5t24.5 -1.5q99 -7 144.5 -37.5t45.5 -95.5v-3q0 -61 -45.5 -92.5t-130.5 -31.5q-40 0 -77 7.5t-62 16.5l-8 37q31 -13 68 -20.5t78 -7.5q72 0 107 23t35 67v3q0 54 -39 76.5t-130 29.5q-9 1 -20 1.5t-23 1.5
l17 144h33z" />
    <glyph glyph-name="Egrave" unicode="&#xc8;" horiz-adv-x="1014" 
d="M185 0v1278h39v-1278h-39zM198 0v35h700v-35h-700zM205 638v35h674v-35h-674zM196 1243v35h697v-35h-697zM311 1647l260 -228v-1h-45l-267 227v2h52z" />
    <glyph glyph-name="Eacute" unicode="&#xc9;" horiz-adv-x="1014" 
d="M185 0v1278h39v-1278h-39zM198 0v35h700v-35h-700zM205 638v35h674v-35h-674zM196 1243v35h697v-35h-697zM790 1647h52v-2l-267 -227h-45v1z" />
    <glyph glyph-name="Ecircumflex" unicode="&#xca;" horiz-adv-x="1014" 
d="M185 0v1278h39v-1278h-39zM198 0v35h700v-35h-700zM205 638v35h674v-35h-674zM196 1243v35h697v-35h-697zM524 1647h48l240 -228v-1h-42l-219 198h-6l-219 -198h-42v1z" />
    <glyph glyph-name="Edieresis" unicode="&#xcb;" horiz-adv-x="1014" 
d="M185 0v1278h39v-1278h-39zM198 0v35h700v-35h-700zM205 638v35h674v-35h-674zM196 1243v35h697v-35h-697zM415 1477q-22 0 -32.5 13.5t-10.5 41.5v6q0 26 10.5 39.5t32.5 13.5t32.5 -13.5t10.5 -39.5v-6q0 -28 -10.5 -41.5t-32.5 -13.5zM682 1477q-22 0 -32.5 13.5
t-10.5 41.5v6q0 26 10.5 39.5t32.5 13.5q21 0 31.5 -13.5t10.5 -39.5v-6q0 -28 -10.5 -41.5t-31.5 -13.5z" />
    <glyph glyph-name="Igrave" unicode="&#xcc;" horiz-adv-x="415" 
d="M227 0h-39v1278h39v-1278zM-29 1647l260 -228v-1h-45l-267 227v2h52z" />
    <glyph glyph-name="Iacute" unicode="&#xcd;" horiz-adv-x="415" 
d="M227 0h-39v1278h39v-1278zM450 1647h52v-2l-267 -227h-45v1z" />
    <glyph glyph-name="Icircumflex" unicode="&#xce;" horiz-adv-x="415" 
d="M227 0h-39v1278h39v-1278zM184 1647h48l240 -228v-1h-42l-219 198h-6l-219 -198h-42v1z" />
    <glyph glyph-name="Idieresis" unicode="&#xcf;" horiz-adv-x="415" 
d="M227 0h-39v1278h39v-1278zM75 1477q-22 0 -32.5 13.5t-10.5 41.5v6q0 26 10.5 39.5t32.5 13.5t32.5 -13.5t10.5 -39.5v-6q0 -28 -10.5 -41.5t-32.5 -13.5zM342 1477q-22 0 -32.5 13.5t-10.5 41.5v6q0 26 10.5 39.5t32.5 13.5q21 0 31.5 -13.5t10.5 -39.5v-6
q0 -28 -10.5 -41.5t-31.5 -13.5z" />
    <glyph glyph-name="Eth" unicode="&#xd0;" horiz-adv-x="1137" 
d="M14 648v34h595v-34h-595zM205 0v35h337q210 0 319 116t109 333v310q0 218 -109 333.5t-319 115.5h-339v35h340q226 0 346 -125t120 -358v-312q0 -232 -120 -357.5t-346 -125.5h-338zM185 0v1278h39v-1278h-39z" />
    <glyph glyph-name="Ntilde" unicode="&#xd1;" horiz-adv-x="1189" 
d="M260 1278l693 -1245h14l-2 578v667h39v-1278h-75l-693 1246h-14l2 -620v-626h-39v1278h75zM736 1448q-41 0 -77.5 17t-70.5 39t-67.5 39t-68.5 17q-38 0 -54 -23t-16 -67v-31h-32v32q0 53 22 87.5t81 34.5q41 0 77 -17t70 -39t68 -39t69 -17q38 0 54 23.5t16 66.5v30h32
v-32q0 -52 -22 -86.5t-81 -34.5z" />
    <glyph glyph-name="Ograve" unicode="&#xd2;" horiz-adv-x="1133" 
d="M566 -18q-213 0 -326 125.5t-113 357.5v348q0 232 113 357.5t326 125.5t326.5 -125.5t113.5 -357.5v-348q0 -232 -113.5 -357.5t-326.5 -125.5zM566 18q197 0 299 116.5t102 330.5v349q0 214 -102 330t-299 116q-196 0 -298 -116t-102 -330v-349q0 -214 102 -330.5
t298 -116.5zM330 1647l260 -228v-1h-45l-267 227v2h52z" />
    <glyph glyph-name="Oacute" unicode="&#xd3;" horiz-adv-x="1133" 
d="M566 -18q-213 0 -326 125.5t-113 357.5v348q0 232 113 357.5t326 125.5t326.5 -125.5t113.5 -357.5v-348q0 -232 -113.5 -357.5t-326.5 -125.5zM566 18q197 0 299 116.5t102 330.5v349q0 214 -102 330t-299 116q-196 0 -298 -116t-102 -330v-349q0 -214 102 -330.5
t298 -116.5zM809 1647h52v-2l-267 -227h-45v1z" />
    <glyph glyph-name="Ocircumflex" unicode="&#xd4;" horiz-adv-x="1133" 
d="M566 -18q-213 0 -326 125.5t-113 357.5v348q0 232 113 357.5t326 125.5t326.5 -125.5t113.5 -357.5v-348q0 -232 -113.5 -357.5t-326.5 -125.5zM566 18q197 0 299 116.5t102 330.5v349q0 214 -102 330t-299 116q-196 0 -298 -116t-102 -330v-349q0 -214 102 -330.5
t298 -116.5zM543 1647h48l240 -228v-1h-42l-219 198h-6l-219 -198h-42v1z" />
    <glyph glyph-name="Otilde" unicode="&#xd5;" horiz-adv-x="1133" 
d="M566 -18q-213 0 -326 125.5t-113 357.5v348q0 232 113 357.5t326 125.5t326.5 -125.5t113.5 -357.5v-348q0 -232 -113.5 -357.5t-326.5 -125.5zM566 18q197 0 299 116.5t102 330.5v349q0 214 -102 330t-299 116q-196 0 -298 -116t-102 -330v-349q0 -214 102 -330.5
t298 -116.5zM708 1448q-41 0 -77.5 17t-70.5 39t-67.5 39t-68.5 17q-38 0 -54 -23t-16 -67v-31h-32v32q0 53 22 87.5t81 34.5q41 0 77 -17t70 -39t68 -39t69 -17q38 0 54 23.5t16 66.5v30h32v-32q0 -52 -22 -86.5t-81 -34.5z" />
    <glyph glyph-name="Odieresis" unicode="&#xd6;" horiz-adv-x="1133" 
d="M566 -18q-213 0 -326 125.5t-113 357.5v348q0 232 113 357.5t326 125.5t326.5 -125.5t113.5 -357.5v-348q0 -232 -113.5 -357.5t-326.5 -125.5zM566 18q197 0 299 116.5t102 330.5v349q0 214 -102 330t-299 116q-196 0 -298 -116t-102 -330v-349q0 -214 102 -330.5
t298 -116.5zM434 1477q-22 0 -32.5 13.5t-10.5 41.5v6q0 26 10.5 39.5t32.5 13.5t32.5 -13.5t10.5 -39.5v-6q0 -28 -10.5 -41.5t-32.5 -13.5zM701 1477q-22 0 -32.5 13.5t-10.5 41.5v6q0 26 10.5 39.5t32.5 13.5q21 0 31.5 -13.5t10.5 -39.5v-6q0 -28 -10.5 -41.5
t-31.5 -13.5z" />
    <glyph glyph-name="multiply" unicode="&#xd7;" horiz-adv-x="969" 
d="M821 290l-27 -22l-639 692l26 22zM148 290l640 692l26 -22l-639 -692z" />
    <glyph glyph-name="Oslash" unicode="&#xd8;" horiz-adv-x="1133" 
d="M566 -18q-142 0 -240 56.5t-148.5 164.5t-50.5 262v348q0 232 113 357.5t326 125.5q142 0 240 -56.5t149 -164t51 -262.5v-348q0 -232 -113.5 -357.5t-326.5 -125.5zM157 -65l97 176l7 13l582 1056l10 18l79 144h44l-96 -173l-9 -16l-582 -1056l-8 -15l-81 -147h-43z
M566 18q197 0 299 116.5t102 330.5v349q0 214 -102 330t-299 116q-196 0 -298 -116t-102 -330v-349q0 -214 102 -330.5t298 -116.5z" />
    <glyph glyph-name="Ugrave" unicode="&#xd9;" horiz-adv-x="1170" 
d="M585 -18q-207 0 -309 118t-102 335v843h39v-843q0 -199 91 -308t281 -109q191 0 281.5 109t90.5 308v843h39v-843q0 -217 -102.5 -335t-308.5 -118zM348 1647l260 -228v-1h-45l-267 227v2h52z" />
    <glyph glyph-name="Uacute" unicode="&#xda;" horiz-adv-x="1170" 
d="M585 -18q-207 0 -309 118t-102 335v843h39v-843q0 -199 91 -308t281 -109q191 0 281.5 109t90.5 308v843h39v-843q0 -217 -102.5 -335t-308.5 -118zM827 1647h52v-2l-267 -227h-45v1z" />
    <glyph glyph-name="Ucircumflex" unicode="&#xdb;" horiz-adv-x="1170" 
d="M585 -18q-207 0 -309 118t-102 335v843h39v-843q0 -199 91 -308t281 -109q191 0 281.5 109t90.5 308v843h39v-843q0 -217 -102.5 -335t-308.5 -118zM561 1647h48l240 -228v-1h-42l-219 198h-6l-219 -198h-42v1z" />
    <glyph glyph-name="Udieresis" unicode="&#xdc;" horiz-adv-x="1170" 
d="M585 -18q-207 0 -309 118t-102 335v843h39v-843q0 -199 91 -308t281 -109q191 0 281.5 109t90.5 308v843h39v-843q0 -217 -102.5 -335t-308.5 -118zM452 1477q-22 0 -32.5 13.5t-10.5 41.5v6q0 26 10.5 39.5t32.5 13.5t32.5 -13.5t10.5 -39.5v-6q0 -28 -10.5 -41.5
t-32.5 -13.5zM719 1477q-22 0 -32.5 13.5t-10.5 41.5v6q0 26 10.5 39.5t32.5 13.5q21 0 31.5 -13.5t10.5 -39.5v-6q0 -28 -10.5 -41.5t-31.5 -13.5z" />
    <glyph glyph-name="Yacute" unicode="&#xdd;" horiz-adv-x="1039" 
d="M502 427l-436 851h43l294 -576l111 -217h11l111 217l294 576h43l-436 -851h-35zM500 0v471h39v-471h-39zM762 1647h52v-2l-267 -227h-45v1z" />
    <glyph glyph-name="Thorn" unicode="&#xde;" horiz-adv-x="1073" 
d="M205 242v35h397q173 0 247.5 87.5t74.5 235.5v88q0 146 -73.5 232t-245.5 86h-402v34h404q188 0 272 -96t84 -254v-92q0 -160 -85 -258t-274 -98h-399zM185 0v1278h39v-248v-14v-748v-14v-254h-39z" />
    <glyph glyph-name="germandbls" unicode="&#xdf;" horiz-adv-x="1075" 
d="M162 1009q0 106 32 182.5t104 117.5t192 41q102 0 169.5 -30t101 -81.5t33.5 -117.5q0 -61 -28.5 -105t-70.5 -80t-84 -70t-70.5 -73.5t-28.5 -92.5v-7q0 -76 48.5 -112t166.5 -74q89 -28 142.5 -61.5t77.5 -82.5t24 -125v-13q0 -78 -31.5 -132.5t-92 -83t-149.5 -28.5
q-85 0 -142.5 17t-102.5 38l-6 42q60 -29 116 -45.5t135 -16.5q116 0 176 53.5t60 154.5v13q0 66 -20 109t-67.5 72.5t-129.5 54.5q-89 27 -142 55t-76 67t-23 99v6q0 59 28.5 102t70.5 77.5t83.5 69t70 75.5t28.5 97q0 55 -28 99t-87 70t-152 26q-110 0 -173.5 -36.5
t-90.5 -105.5t-27 -167v-1007h-37v1009z" />
    <glyph glyph-name="agrave" unicode="&#xe0;" horiz-adv-x="938" 
d="M754 0l4 256l-3 7v321v85q0 140 -70.5 213.5t-217.5 73.5q-109 0 -195 -35.5t-145 -80.5l5 42q31 24 78.5 49t112 42t144.5 17q83 0 144 -21.5t101.5 -62.5t60 -100.5t19.5 -135.5v-670h-38zM400 -19q-145 0 -223.5 67.5t-78.5 197.5v23q0 116 72 179.5t241 88.5l362 54
l1 -34l-356 -52q-150 -22 -216.5 -76t-66.5 -158v-23q0 -115 69.5 -174.5t200.5 -59.5q104 0 178.5 40.5t119.5 110t58 156.5l19 -37h-12q-8 -79 -52 -148.5t-123 -112t-193 -42.5zM263 1360l212 -248v-1h-39l-221 247v2h48z" />
    <glyph glyph-name="aacute" unicode="&#xe1;" horiz-adv-x="938" 
d="M754 0l4 256l-3 7v321v85q0 140 -70.5 213.5t-217.5 73.5q-109 0 -195 -35.5t-145 -80.5l5 42q31 24 78.5 49t112 42t144.5 17q83 0 144 -21.5t101.5 -62.5t60 -100.5t19.5 -135.5v-670h-38zM400 -19q-145 0 -223.5 67.5t-78.5 197.5v23q0 116 72 179.5t241 88.5l362 54
l1 -34l-356 -52q-150 -22 -216.5 -76t-66.5 -158v-23q0 -115 69.5 -174.5t200.5 -59.5q104 0 178.5 40.5t119.5 110t58 156.5l19 -37h-12q-8 -79 -52 -148.5t-123 -112t-193 -42.5zM652 1360h48v-2l-221 -247h-39v1z" />
    <glyph glyph-name="acircumflex" unicode="&#xe2;" horiz-adv-x="938" 
d="M754 0l4 256l-3 7v321v85q0 140 -70.5 213.5t-217.5 73.5q-109 0 -195 -35.5t-145 -80.5l5 42q31 24 78.5 49t112 42t144.5 17q83 0 144 -21.5t101.5 -62.5t60 -100.5t19.5 -135.5v-670h-38zM400 -19q-145 0 -223.5 67.5t-78.5 197.5v23q0 116 72 179.5t241 88.5l362 54
l1 -34l-356 -52q-150 -22 -216.5 -76t-66.5 -158v-23q0 -115 69.5 -174.5t200.5 -59.5q104 0 178.5 40.5t119.5 110t58 156.5l19 -37h-12q-8 -79 -52 -148.5t-123 -112t-193 -42.5zM432 1360h50l204 -248v-1h-39l-187 217h-6l-187 -217h-39v1z" />
    <glyph glyph-name="atilde" unicode="&#xe3;" horiz-adv-x="938" 
d="M754 0l4 256l-3 7v321v85q0 140 -70.5 213.5t-217.5 73.5q-109 0 -195 -35.5t-145 -80.5l5 42q31 24 78.5 49t112 42t144.5 17q83 0 144 -21.5t101.5 -62.5t60 -100.5t19.5 -135.5v-670h-38zM400 -19q-145 0 -223.5 67.5t-78.5 197.5v23q0 116 72 179.5t241 88.5l362 54
l1 -34l-356 -52q-150 -22 -216.5 -76t-66.5 -158v-23q0 -115 69.5 -174.5t200.5 -59.5q104 0 178.5 40.5t119.5 110t58 156.5l19 -37h-12q-8 -79 -52 -148.5t-123 -112t-193 -42.5zM589 1151q-37 0 -70 17.5t-64 40t-61 40t-60 17.5q-36 0 -52.5 -23t-16.5 -73v-28h-31v29
q0 64 24 96t76 32q36 0 69 -17.5t64 -40t61.5 -40t60.5 -17.5q36 0 52 23t16 73v27h32v-29q0 -64 -24 -95.5t-76 -31.5z" />
    <glyph glyph-name="adieresis" unicode="&#xe4;" horiz-adv-x="938" 
d="M754 0l4 256l-3 7v321v85q0 140 -70.5 213.5t-217.5 73.5q-109 0 -195 -35.5t-145 -80.5l5 42q31 24 78.5 49t112 42t144.5 17q83 0 144 -21.5t101.5 -62.5t60 -100.5t19.5 -135.5v-670h-38zM400 -19q-145 0 -223.5 67.5t-78.5 197.5v23q0 116 72 179.5t241 88.5l362 54
l1 -34l-356 -52q-150 -22 -216.5 -76t-66.5 -158v-23q0 -115 69.5 -174.5t200.5 -59.5q104 0 178.5 40.5t119.5 110t58 156.5l19 -37h-12q-8 -79 -52 -148.5t-123 -112t-193 -42.5zM324 1182q-22 0 -32.5 13.5t-10.5 41.5v6q0 26 10.5 39.5t32.5 13.5t32.5 -13.5t10.5 -39.5
v-6q0 -28 -10.5 -41.5t-32.5 -13.5zM591 1182q-22 0 -32.5 13.5t-10.5 41.5v6q0 26 10.5 39.5t32.5 13.5q21 0 31.5 -13.5t10.5 -39.5v-6q0 -28 -10.5 -41.5t-31.5 -13.5z" />
    <glyph glyph-name="aring" unicode="&#xe5;" horiz-adv-x="938" 
d="M754 0l4 256l-3 7v321v85q0 140 -70.5 213.5t-217.5 73.5q-109 0 -195 -35.5t-145 -80.5l5 42q31 24 78.5 49t112 42t144.5 17q83 0 144 -21.5t101.5 -62.5t60 -100.5t19.5 -135.5v-670h-38zM400 -19q-145 0 -223.5 67.5t-78.5 197.5v23q0 116 72 179.5t241 88.5l362 54
l1 -34l-356 -52q-150 -22 -216.5 -76t-66.5 -158v-23q0 -115 69.5 -174.5t200.5 -59.5q104 0 178.5 40.5t119.5 110t58 156.5l19 -37h-12q-8 -79 -52 -148.5t-123 -112t-193 -42.5zM306 1253v2q0 68 41 107t111 39t110.5 -39t40.5 -107v-2q0 -67 -40.5 -106t-110.5 -39
t-111 39t-41 106zM339 1253q0 -54 31 -84t88 -30t88 30t31 84v2q0 55 -31 85.5t-88 30.5t-88 -30.5t-31 -85.5v-2z" />
    <glyph glyph-name="ae" unicode="&#xe6;" horiz-adv-x="1587" 
d="M1140 -19q-161 0 -256.5 77.5t-119.5 210.5l-3 9q-4 32 -5 62t-1 57v236q0 157 -71 240t-219 83q-109 0 -194 -35.5t-144 -80.5l5 42q31 24 78.5 49t111 42t143.5 17q149 0 226.5 -77.5t89.5 -216.5h-10q21 144 112.5 221t238.5 77q117 0 197.5 -47t122.5 -136.5
t42 -217.5v-34q0 -22 -0.5 -44t-2.5 -49h-34v67v59q0 119 -37.5 201t-109.5 125t-178 43q-161 0 -245.5 -96t-84.5 -281v-104v-8v-110q0 -82 23.5 -146t68.5 -108.5t110 -68t147 -23.5q95 0 175 29.5t150 84.5l-5 -44q-59 -48 -141 -76.5t-180 -28.5zM402 -19
q-146 0 -225 67.5t-79 197.5v23q0 116 72 179.5t241 88.5l362 54l1 -34l-356 -52q-150 -22 -216.5 -76t-66.5 -158v-23q0 -115 70 -174.5t202 -59.5q104 0 178.5 40.5t119.5 110t58 156.5l23 -37h-11q-12 -83 -57 -152t-123.5 -110t-192.5 -41zM772 466v33h695v-33h-695z
" />
    <glyph glyph-name="ccedilla" unicode="&#xe7;" horiz-adv-x="852" 
d="M481 -19q-180 0 -271.5 106t-91.5 305v189q0 198 91.5 303.5t271.5 105.5q70 0 123 -15t91.5 -36.5t62.5 -43.5l5 -43q-46 43 -114.5 73.5t-168.5 30.5q-160 0 -242.5 -96.5t-82.5 -278.5v-188q0 -182 82.5 -279.5t245.5 -97.5q104 0 173 31.5t115 73.5l-6 -44
q-39 -34 -107.5 -65t-176.5 -31zM484 2l-16 -135l-22 19q6 -1 20.5 -1.5t24.5 -1.5q99 -7 144.5 -37.5t45.5 -95.5v-3q0 -61 -45.5 -92.5t-130.5 -31.5q-40 0 -77 7.5t-62 16.5l-8 37q31 -13 68 -20.5t78 -7.5q72 0 107 23t35 67v3q0 54 -39 76.5t-130 29.5q-9 1 -20 1.5
t-23 1.5l17 144h33z" />
    <glyph glyph-name="egrave" unicode="&#xe8;" horiz-adv-x="950" 
d="M503 -19q-183 0 -284 99.5t-101 280.5v224q0 200 93.5 304.5t271.5 104.5q117 0 198.5 -47t123.5 -136.5t42 -217.5v-34q0 -22 -0.5 -44t-2.5 -49h-34v67v59q0 119 -37.5 201t-110.5 125t-179 43q-160 0 -244 -96t-84 -280v-98v-8v-117q0 -82 23.5 -146t68.5 -108.5
t110 -68t147 -23.5q95 0 175 29.5t150 84.5l-5 -44q-59 -48 -141 -76.5t-180 -28.5zM135 466v33h696v-33h-696zM288 1360l212 -248v-1h-39l-221 247v2h48z" />
    <glyph glyph-name="eacute" unicode="&#xe9;" horiz-adv-x="950" 
d="M503 -19q-183 0 -284 99.5t-101 280.5v224q0 200 93.5 304.5t271.5 104.5q117 0 198.5 -47t123.5 -136.5t42 -217.5v-34q0 -22 -0.5 -44t-2.5 -49h-34v67v59q0 119 -37.5 201t-110.5 125t-179 43q-160 0 -244 -96t-84 -280v-98v-8v-117q0 -82 23.5 -146t68.5 -108.5
t110 -68t147 -23.5q95 0 175 29.5t150 84.5l-5 -44q-59 -48 -141 -76.5t-180 -28.5zM135 466v33h696v-33h-696zM677 1360h48v-2l-221 -247h-39v1z" />
    <glyph glyph-name="ecircumflex" unicode="&#xea;" horiz-adv-x="950" 
d="M503 -19q-183 0 -284 99.5t-101 280.5v224q0 200 93.5 304.5t271.5 104.5q117 0 198.5 -47t123.5 -136.5t42 -217.5v-34q0 -22 -0.5 -44t-2.5 -49h-34v67v59q0 119 -37.5 201t-110.5 125t-179 43q-160 0 -244 -96t-84 -280v-98v-8v-117q0 -82 23.5 -146t68.5 -108.5
t110 -68t147 -23.5q95 0 175 29.5t150 84.5l-5 -44q-59 -48 -141 -76.5t-180 -28.5zM135 466v33h696v-33h-696zM457 1360h50l204 -248v-1h-39l-187 217h-6l-187 -217h-39v1z" />
    <glyph glyph-name="edieresis" unicode="&#xeb;" horiz-adv-x="950" 
d="M503 -19q-183 0 -284 99.5t-101 280.5v224q0 200 93.5 304.5t271.5 104.5q117 0 198.5 -47t123.5 -136.5t42 -217.5v-34q0 -22 -0.5 -44t-2.5 -49h-34v67v59q0 119 -37.5 201t-110.5 125t-179 43q-160 0 -244 -96t-84 -280v-98v-8v-117q0 -82 23.5 -146t68.5 -108.5
t110 -68t147 -23.5q95 0 175 29.5t150 84.5l-5 -44q-59 -48 -141 -76.5t-180 -28.5zM135 466v33h696v-33h-696zM349 1182q-22 0 -32.5 13.5t-10.5 41.5v6q0 26 10.5 39.5t32.5 13.5t32.5 -13.5t10.5 -39.5v-6q0 -28 -10.5 -41.5t-32.5 -13.5zM616 1182q-22 0 -32.5 13.5
t-10.5 41.5v6q0 26 10.5 39.5t32.5 13.5q21 0 31.5 -13.5t10.5 -39.5v-6q0 -28 -10.5 -41.5t-31.5 -13.5z" />
    <glyph glyph-name="igrave" unicode="&#xec;" horiz-adv-x="372" 
d="M167 0v971h38v-971h-38zM69 1360l129 -249v0h-33l-138 249v0h42z" />
    <glyph glyph-name="iacute" unicode="&#xed;" horiz-adv-x="372" 
d="M167 0v971h38v-971h-38zM303 1360h42v0l-138 -249h-33v0z" />
    <glyph glyph-name="icircumflex" unicode="&#xee;" horiz-adv-x="372" 
d="M167 0v971h38v-971h-38zM162 1360h48l163 -249v0h-36l-148 217h-6l-148 -217h-36v0z" />
    <glyph glyph-name="idieresis" unicode="&#xef;" horiz-adv-x="372" 
d="M167 0v971h38v-971h-38zM81 1182q-22 0 -32.5 13.5t-10.5 41.5v6q0 26 10.5 39.5t32.5 13.5q21 0 32 -13.5t11 -39.5v-6q0 -28 -11 -41.5t-32 -13.5zM292 1182q-22 0 -32.5 13.5t-10.5 41.5v6q0 26 10.5 39.5t32.5 13.5t32.5 -13.5t10.5 -39.5v-6q0 -28 -10.5 -41.5
t-32.5 -13.5z" />
    <glyph glyph-name="eth" unicode="&#xf0;" horiz-adv-x="998" 
d="M499 -23q-187 0 -284 108t-97 310v121q0 200 97 307t276 107q101 0 182.5 -42t129 -118.5t47.5 -180.5l13 -6l-21 -26q-4 85 -33.5 148.5t-78 106t-109.5 64t-129 21.5q-164 0 -250.5 -98.5t-86.5 -283.5v-120q0 -187 88 -286t256 -99q167 0 255 99t88 286v119.5v119.5
q-1 7 -1 14t2 14q-12 102 -52 183.5t-110.5 156t-173 153t-239.5 174.5v0h57q142 -103 246.5 -186.5t173 -165.5t102 -181.5t33.5 -235.5v-164q0 -203 -97.5 -311t-283.5 -108zM223 1041v35l609 184v-35z" />
    <glyph glyph-name="ntilde" unicode="&#xf1;" horiz-adv-x="1016" 
d="M832 0v620q0 106 -28.5 181t-92.5 115.5t-171 40.5q-99 0 -172.5 -39.5t-117.5 -109t-58 -158.5l-18 38h11q9 82 52.5 150.5t120.5 110t184 41.5q121 0 192.5 -44.5t103 -127t31.5 -196.5v-622h-37zM162 0v971h37l-4 -254h4v-717h-37zM641 1151q-37 0 -70 17.5t-64 40
t-61 40t-60 17.5q-36 0 -52.5 -23t-16.5 -73v-28h-31v29q0 64 24 96t76 32q36 0 69 -17.5t64 -40t61.5 -40t60.5 -17.5q36 0 52 23t16 73v27h32v-29q0 -64 -24 -95.5t-76 -31.5z" />
    <glyph glyph-name="ograve" unicode="&#xf2;" horiz-adv-x="998" 
d="M499 -23q-187 0 -284 108t-97 310v183q0 202 97.5 309t283.5 107t283.5 -107t97.5 -309v-183q0 -202 -97.5 -310t-283.5 -108zM499 10q167 0 255.5 99t88.5 286v183q0 186 -88 284.5t-256 98.5t-256 -98.5t-88 -284.5v-183q0 -187 88 -286t256 -99zM305 1360l212 -248v-1
h-39l-221 247v2h48z" />
    <glyph glyph-name="oacute" unicode="&#xf3;" horiz-adv-x="998" 
d="M499 -23q-187 0 -284 108t-97 310v183q0 202 97.5 309t283.5 107t283.5 -107t97.5 -309v-183q0 -202 -97.5 -310t-283.5 -108zM499 10q167 0 255.5 99t88.5 286v183q0 186 -88 284.5t-256 98.5t-256 -98.5t-88 -284.5v-183q0 -187 88 -286t256 -99zM694 1360h48v-2
l-221 -247h-39v1z" />
    <glyph glyph-name="ocircumflex" unicode="&#xf4;" horiz-adv-x="998" 
d="M499 -23q-187 0 -284 108t-97 310v183q0 202 97.5 309t283.5 107t283.5 -107t97.5 -309v-183q0 -202 -97.5 -310t-283.5 -108zM499 10q167 0 255.5 99t88.5 286v183q0 186 -88 284.5t-256 98.5t-256 -98.5t-88 -284.5v-183q0 -187 88 -286t256 -99zM474 1360h50l204 -248
v-1h-39l-187 217h-6l-187 -217h-39v1z" />
    <glyph glyph-name="otilde" unicode="&#xf5;" horiz-adv-x="998" 
d="M499 -23q-187 0 -284 108t-97 310v183q0 202 97.5 309t283.5 107t283.5 -107t97.5 -309v-183q0 -202 -97.5 -310t-283.5 -108zM499 10q167 0 255.5 99t88.5 286v183q0 186 -88 284.5t-256 98.5t-256 -98.5t-88 -284.5v-183q0 -187 88 -286t256 -99zM631 1151
q-37 0 -70 17.5t-64 40t-61 40t-60 17.5q-36 0 -52.5 -23t-16.5 -73v-28h-31v29q0 64 24 96t76 32q36 0 69 -17.5t64 -40t61.5 -40t60.5 -17.5q36 0 52 23t16 73v27h32v-29q0 -64 -24 -95.5t-76 -31.5z" />
    <glyph glyph-name="odieresis" unicode="&#xf6;" horiz-adv-x="998" 
d="M499 -23q-187 0 -284 108t-97 310v183q0 202 97.5 309t283.5 107t283.5 -107t97.5 -309v-183q0 -202 -97.5 -310t-283.5 -108zM499 10q167 0 255.5 99t88.5 286v183q0 186 -88 284.5t-256 98.5t-256 -98.5t-88 -284.5v-183q0 -187 88 -286t256 -99zM366 1182
q-22 0 -32.5 13.5t-10.5 41.5v6q0 26 10.5 39.5t32.5 13.5t32.5 -13.5t10.5 -39.5v-6q0 -28 -10.5 -41.5t-32.5 -13.5zM633 1182q-22 0 -32.5 13.5t-10.5 41.5v6q0 26 10.5 39.5t32.5 13.5q21 0 31.5 -13.5t10.5 -39.5v-6q0 -28 -10.5 -41.5t-31.5 -13.5z" />
    <glyph glyph-name="divide" unicode="&#xf7;" horiz-adv-x="992" 
d="M120 609v33h752v-33h-752zM498 227q-21 0 -32 14.5t-11 42.5v10q0 28 11 41.5t32 13.5q23 0 34 -13.5t11 -41.5v-10q0 -28 -11 -42.5t-34 -14.5zM498 902q-21 0 -32 14.5t-11 42.5v10q0 28 11 41.5t32 13.5q23 0 34 -13.5t11 -41.5v-10q0 -28 -11 -42.5t-34 -14.5z" />
    <glyph glyph-name="oslash" unicode="&#xf8;" horiz-adv-x="998" 
d="M499 -23q-124 0 -209 48.5t-128.5 142t-43.5 227.5v183q0 202 97.5 309t283.5 107q124 0 209 -48t128.5 -140.5t43.5 -227.5v-183q0 -202 -97.5 -310t-283.5 -108zM154 -65l84 142l9 15l480 814l7 11l70 119h40l-83 -140l-8 -14l-480 -814l-9 -16l-69 -117h-41zM499 10
q167 0 255.5 99t88.5 286v183q0 186 -88 284.5t-256 98.5t-256 -98.5t-88 -284.5v-183q0 -187 88 -286t256 -99z" />
    <glyph glyph-name="ugrave" unicode="&#xf9;" horiz-adv-x="1016" 
d="M184 971v-620q0 -105 28.5 -180.5t92.5 -116t171 -40.5q100 0 173 39.5t117.5 109t57.5 158.5l18 -38h-11q-9 -81 -52.5 -150t-120 -110.5t-184.5 -41.5q-120 0 -192 44.5t-103.5 127t-31.5 196.5v622h37zM854 971v-971h-37l4 254h-4v717h37zM309 1360l212 -248v-1h-39
l-221 247v2h48z" />
    <glyph glyph-name="uacute" unicode="&#xfa;" horiz-adv-x="1016" 
d="M184 971v-620q0 -105 28.5 -180.5t92.5 -116t171 -40.5q100 0 173 39.5t117.5 109t57.5 158.5l18 -38h-11q-9 -81 -52.5 -150t-120 -110.5t-184.5 -41.5q-120 0 -192 44.5t-103.5 127t-31.5 196.5v622h37zM854 971v-971h-37l4 254h-4v717h37zM698 1360h48v-2l-221 -247
h-39v1z" />
    <glyph glyph-name="ucircumflex" unicode="&#xfb;" horiz-adv-x="1016" 
d="M184 971v-620q0 -105 28.5 -180.5t92.5 -116t171 -40.5q100 0 173 39.5t117.5 109t57.5 158.5l18 -38h-11q-9 -81 -52.5 -150t-120 -110.5t-184.5 -41.5q-120 0 -192 44.5t-103.5 127t-31.5 196.5v622h37zM854 971v-971h-37l4 254h-4v717h37zM478 1360h50l204 -248v-1
h-39l-187 217h-6l-187 -217h-39v1z" />
    <glyph glyph-name="udieresis" unicode="&#xfc;" horiz-adv-x="1016" 
d="M184 971v-620q0 -105 28.5 -180.5t92.5 -116t171 -40.5q100 0 173 39.5t117.5 109t57.5 158.5l18 -38h-11q-9 -81 -52.5 -150t-120 -110.5t-184.5 -41.5q-120 0 -192 44.5t-103.5 127t-31.5 196.5v622h37zM854 971v-971h-37l4 254h-4v717h37zM370 1182q-22 0 -32.5 13.5
t-10.5 41.5v6q0 26 10.5 39.5t32.5 13.5t32.5 -13.5t10.5 -39.5v-6q0 -28 -10.5 -41.5t-32.5 -13.5zM637 1182q-22 0 -32.5 13.5t-10.5 41.5v6q0 26 10.5 39.5t32.5 13.5q21 0 31.5 -13.5t10.5 -39.5v-6q0 -28 -10.5 -41.5t-31.5 -13.5z" />
    <glyph glyph-name="yacute" unicode="&#xfd;" horiz-adv-x="939" 
d="M493 71l-17 -9l353 909h41l-509 -1315h-41l153 397l10 -15h-51l-363 933h41l348 -900h35zM664 1360h48v-2l-221 -247h-39v1z" />
    <glyph glyph-name="thorn" unicode="&#xfe;" horiz-adv-x="1029" 
d="M540 -19q-100 0 -179.5 41t-126.5 115t-48 174h-12l22 33q6 -109 54.5 -182.5t125 -110.5t166.5 -37q160 0 246 97t86 281v185q0 185 -85.5 282.5t-249.5 97.5q-92 0 -165 -39t-120 -109t-62 -163l-18 37h11q10 85 55.5 154.5t122.5 111t180 41.5q179 0 273.5 -106.5
t94.5 -306.5v-185q0 -200 -95.5 -305.5t-275.5 -105.5zM162 -344v1673h37v-338l-4 -279l1 -19v-417l-2 -15l5 -261v-344h-37z" />
    <glyph glyph-name="ydieresis" unicode="&#xff;" horiz-adv-x="939" 
d="M493 71l-17 -9l353 909h41l-509 -1315h-41l153 397l10 -15h-51l-363 933h41l348 -900h35zM336 1182q-22 0 -32.5 13.5t-10.5 41.5v6q0 26 10.5 39.5t32.5 13.5t32.5 -13.5t10.5 -39.5v-6q0 -28 -10.5 -41.5t-32.5 -13.5zM603 1182q-22 0 -32.5 13.5t-10.5 41.5v6
q0 26 10.5 39.5t32.5 13.5q21 0 31.5 -13.5t10.5 -39.5v-6q0 -28 -10.5 -41.5t-31.5 -13.5z" />
    <glyph glyph-name="Amacron" unicode="&#x100;" horiz-adv-x="1097" 
d="M76 0l430 1278h83l432 -1278h-41l-419 1246h-27l-417 -1246h-41zM254 452v35h588v-35h-588zM308 1512v32h480v-32h-480z" />
    <glyph glyph-name="amacron" unicode="&#x101;" horiz-adv-x="938" 
d="M754 0l4 256l-3 7v321v85q0 140 -70.5 213.5t-217.5 73.5q-109 0 -195 -35.5t-145 -80.5l5 42q31 24 78.5 49t112 42t144.5 17q83 0 144 -21.5t101.5 -62.5t60 -100.5t19.5 -135.5v-670h-38zM400 -19q-145 0 -223.5 67.5t-78.5 197.5v23q0 116 72 179.5t241 88.5l362 54
l1 -34l-356 -52q-150 -22 -216.5 -76t-66.5 -158v-23q0 -115 69.5 -174.5t200.5 -59.5q104 0 178.5 40.5t119.5 110t58 156.5l19 -37h-12q-8 -79 -52 -148.5t-123 -112t-193 -42.5zM217 1212v32h480v-32h-480z" />
    <glyph glyph-name="Abreve" unicode="&#x102;" horiz-adv-x="1097" 
d="M76 0l430 1278h83l432 -1278h-41l-419 1246h-27l-417 -1246h-41zM254 452v35h588v-35h-588zM548 1410q-109 0 -162 59.5t-55 177.5h33q2 -106 48 -156t136 -50q91 0 137.5 50t47.5 156h33q-2 -118 -55 -177.5t-163 -59.5z" />
    <glyph glyph-name="abreve" unicode="&#x103;" horiz-adv-x="938" 
d="M754 0l4 256l-3 7v321v85q0 140 -70.5 213.5t-217.5 73.5q-109 0 -195 -35.5t-145 -80.5l5 42q31 24 78.5 49t112 42t144.5 17q83 0 144 -21.5t101.5 -62.5t60 -100.5t19.5 -135.5v-670h-38zM400 -19q-145 0 -223.5 67.5t-78.5 197.5v23q0 116 72 179.5t241 88.5l362 54
l1 -34l-356 -52q-150 -22 -216.5 -76t-66.5 -158v-23q0 -115 69.5 -174.5t200.5 -59.5q104 0 178.5 40.5t119.5 110t58 156.5l19 -37h-12q-8 -79 -52 -148.5t-123 -112t-193 -42.5zM457 1105q-104 0 -156 62.5t-55 192.5h33q2 -117 47.5 -170.5t130.5 -53.5q86 0 131.5 53.5
t47.5 170.5h33q-3 -130 -55 -192.5t-157 -62.5z" />
    <glyph glyph-name="Aogonek" unicode="&#x104;" horiz-adv-x="1097" 
d="M76 0l430 1278h83l432 -1278h-41l-419 1246h-27l-417 -1246h-41zM254 452v35h588v-35h-588zM986 -365q-70 0 -108 36.5t-38 103.5v1q0 71 41.5 127.5t102.5 102.5v0l35 -2v-4q-64 -47 -103.5 -101t-39.5 -119v-2q0 -56 32 -82.5t84 -26.5q23 0 45.5 4.5t46.5 15.5l-7 -34
q-15 -9 -41 -14.5t-50 -5.5z" />
    <glyph glyph-name="aogonek" unicode="&#x105;" horiz-adv-x="938" 
d="M754 0l4 256l-3 7v321v85q0 140 -70.5 213.5t-217.5 73.5q-109 0 -195 -35.5t-145 -80.5l5 42q31 24 78.5 49t112 42t144.5 17q83 0 144 -21.5t101.5 -62.5t60 -100.5t19.5 -135.5v-670h-38zM400 -19q-145 0 -223.5 67.5t-78.5 197.5v23q0 116 72 179.5t241 88.5l362 54
l1 -34l-356 -52q-150 -22 -216.5 -76t-66.5 -158v-23q0 -115 69.5 -174.5t200.5 -59.5q104 0 178.5 40.5t119.5 110t58 156.5l19 -37h-12q-8 -79 -52 -148.5t-123 -112t-193 -42.5zM760 -365q-69 0 -108 36.5t-39 104.5v1q0 69 41.5 126t103.5 103v0l34 1v-7
q-64 -47 -103.5 -101t-39.5 -119v-2q0 -55 32 -82t84 -27q23 0 45.5 4.5t46.5 15.5l-7 -34q-15 -9 -41 -14.5t-49 -5.5z" />
    <glyph glyph-name="Cacute" unicode="&#x106;" horiz-adv-x="995" 
d="M551 -18q-211 0 -317.5 123.5t-106.5 347.5v373q0 225 105 347.5t309 122.5q79 0 143.5 -18t112.5 -45.5t79 -54.5l6 -44q-60 50 -144 88t-197 38q-185 0 -280 -112.5t-95 -321.5v-373q0 -208 96.5 -321t288.5 -113q113 0 196.5 37t144.5 89l-5 -44q-31 -28 -79.5 -55.5
t-112.5 -45.5t-144 -18zM762 1647h52v-2l-267 -227h-45v1z" />
    <glyph glyph-name="cacute" unicode="&#x107;" horiz-adv-x="852" 
d="M481 -19q-180 0 -271.5 106t-91.5 305v189q0 198 91.5 303.5t271.5 105.5q70 0 123 -15t91.5 -36.5t62.5 -43.5l5 -43q-46 43 -114.5 73.5t-168.5 30.5q-160 0 -242.5 -96.5t-82.5 -278.5v-188q0 -182 82.5 -279.5t245.5 -97.5q104 0 173 31.5t115 73.5l-6 -44
q-39 -34 -107.5 -65t-176.5 -31zM662 1360h48v-2l-221 -247h-39v1z" />
    <glyph glyph-name="Ccircumflex" unicode="&#x108;" horiz-adv-x="995" 
d="M551 -18q-211 0 -317.5 123.5t-106.5 347.5v373q0 225 105 347.5t309 122.5q79 0 143.5 -18t112.5 -45.5t79 -54.5l6 -44q-60 50 -144 88t-197 38q-185 0 -280 -112.5t-95 -321.5v-373q0 -208 96.5 -321t288.5 -113q113 0 196.5 37t144.5 89l-5 -44q-31 -28 -79.5 -55.5
t-112.5 -45.5t-144 -18zM496 1647h48l240 -228v-1h-42l-219 198h-6l-219 -198h-42v1z" />
    <glyph glyph-name="ccircumflex" unicode="&#x109;" horiz-adv-x="852" 
d="M481 -19q-180 0 -271.5 106t-91.5 305v189q0 198 91.5 303.5t271.5 105.5q70 0 123 -15t91.5 -36.5t62.5 -43.5l5 -43q-46 43 -114.5 73.5t-168.5 30.5q-160 0 -242.5 -96.5t-82.5 -278.5v-188q0 -182 82.5 -279.5t245.5 -97.5q104 0 173 31.5t115 73.5l-6 -44
q-39 -34 -107.5 -65t-176.5 -31zM442 1360h50l204 -248v-1h-39l-187 217h-6l-187 -217h-39v1z" />
    <glyph glyph-name="Cdotaccent" unicode="&#x10a;" horiz-adv-x="995" 
d="M551 -18q-211 0 -317.5 123.5t-106.5 347.5v373q0 225 105 347.5t309 122.5q79 0 143.5 -18t112.5 -45.5t79 -54.5l6 -44q-60 50 -144 88t-197 38q-185 0 -280 -112.5t-95 -321.5v-373q0 -208 96.5 -321t288.5 -113q113 0 196.5 37t144.5 89l-5 -44q-31 -28 -79.5 -55.5
t-112.5 -45.5t-144 -18zM519 1473q-21 0 -32 13.5t-11 41.5v4q0 26 11 39.5t32 13.5q22 0 33 -13.5t11 -39.5v-4q0 -28 -11 -41.5t-33 -13.5z" />
    <glyph glyph-name="cdotaccent" unicode="&#x10b;" horiz-adv-x="852" 
d="M481 -19q-180 0 -271.5 106t-91.5 305v189q0 198 91.5 303.5t271.5 105.5q70 0 123 -15t91.5 -36.5t62.5 -43.5l5 -43q-46 43 -114.5 73.5t-168.5 30.5q-160 0 -242.5 -96.5t-82.5 -278.5v-188q0 -182 82.5 -279.5t245.5 -97.5q104 0 173 31.5t115 73.5l-6 -44
q-39 -34 -107.5 -65t-176.5 -31zM466 1182q-21 0 -32 13.5t-11 41.5v6q0 26 11 39.5t32 13.5q22 0 33 -13.5t11 -39.5v-6q0 -28 -11 -41.5t-33 -13.5z" />
    <glyph glyph-name="Ccaron" unicode="&#x10c;" horiz-adv-x="995" 
d="M551 -18q-211 0 -317.5 123.5t-106.5 347.5v373q0 225 105 347.5t309 122.5q79 0 143.5 -18t112.5 -45.5t79 -54.5l6 -44q-60 50 -144 88t-197 38q-185 0 -280 -112.5t-95 -321.5v-373q0 -208 96.5 -321t288.5 -113q113 0 196.5 37t144.5 89l-5 -44q-31 -28 -79.5 -55.5
t-112.5 -45.5t-144 -18zM496 1418l-240 228v1h42l219 -198h6l219 198h42v-1l-240 -228h-48z" />
    <glyph glyph-name="ccaron" unicode="&#x10d;" horiz-adv-x="852" 
d="M481 -19q-180 0 -271.5 106t-91.5 305v189q0 198 91.5 303.5t271.5 105.5q70 0 123 -15t91.5 -36.5t62.5 -43.5l5 -43q-46 43 -114.5 73.5t-168.5 30.5q-160 0 -242.5 -96.5t-82.5 -278.5v-188q0 -182 82.5 -279.5t245.5 -97.5q104 0 173 31.5t115 73.5l-6 -44
q-39 -34 -107.5 -65t-176.5 -31zM442 1111l-203 248v1h38l187 -217h6l187 217h38v-1l-203 -248h-50z" />
    <glyph glyph-name="Dcaron" unicode="&#x10e;" horiz-adv-x="1137" 
d="M205 0v35h337q210 0 319 116t109 333v310q0 218 -109 333.5t-319 115.5h-339v35h340q226 0 346 -125t120 -358v-312q0 -232 -120 -357.5t-346 -125.5h-338zM185 0v1278h39v-1278h-39zM540 1418l-240 228v1h42l219 -198h6l219 198h42v-1l-240 -228h-48z" />
    <glyph glyph-name="dcaron" unicode="&#x10f;" horiz-adv-x="1129" 
d="M486 -19q-178 0 -273 106.5t-95 306.5v185q0 200 95.5 305.5t275.5 105.5q100 0 180 -41t126.5 -115t47.5 -174h12l-22 -33q-6 110 -54.5 183t-124.5 110t-167 37q-160 0 -246 -96.5t-86 -281.5v-185q0 -185 86 -282.5t249 -97.5q93 0 166 39t120 109t61 163l18 -37h-11
q-9 -85 -55 -154.5t-123 -111t-180 -41.5zM830 0l5 261l-2 15v417l1 19l-4 277v340h37v-1329h-37zM1105 1329q2 -16 5 -43t3 -60q0 -94 -23.5 -173t-81.5 -151l-22 18q50 67 71.5 140.5t21.5 164.5q0 27 -2 53t-6 51h34z" />
    <glyph glyph-name="Dcroat" unicode="&#x110;" horiz-adv-x="1137" 
d="M14 648v34h595v-34h-595zM205 0v35h337q210 0 319 116t109 333v310q0 218 -109 333.5t-319 115.5h-339v35h340q226 0 346 -125t120 -358v-312q0 -232 -120 -357.5t-346 -125.5h-338zM185 0v1278h39v-1278h-39z" />
    <glyph glyph-name="dcroat" unicode="&#x111;" horiz-adv-x="1029" 
d="M450 1135v31h570v-31h-570zM486 -19q-178 0 -273 106.5t-95 306.5v185q0 200 95.5 305.5t275.5 105.5q100 0 180 -41t126.5 -115t47.5 -174h12l-22 -33q-6 110 -54.5 183t-124.5 110t-167 37q-160 0 -246 -96.5t-86 -281.5v-185q0 -185 86 -282.5t249 -97.5q93 0 166 39
t120 109t61 163l18 -37h-11q-9 -85 -55 -154.5t-123 -111t-180 -41.5zM830 0l5 261l-2 15v417l1 19l-4 277v340h37v-1329h-37z" />
    <glyph glyph-name="Emacron" unicode="&#x112;" horiz-adv-x="1014" 
d="M185 0v1278h39v-1278h-39zM198 0v35h700v-35h-700zM205 638v35h674v-35h-674zM196 1243v35h697v-35h-697zM307 1512v32h480v-32h-480z" />
    <glyph glyph-name="emacron" unicode="&#x113;" horiz-adv-x="950" 
d="M503 -19q-183 0 -284 99.5t-101 280.5v224q0 200 93.5 304.5t271.5 104.5q117 0 198.5 -47t123.5 -136.5t42 -217.5v-34q0 -22 -0.5 -44t-2.5 -49h-34v67v59q0 119 -37.5 201t-110.5 125t-179 43q-160 0 -244 -96t-84 -280v-98v-8v-117q0 -82 23.5 -146t68.5 -108.5
t110 -68t147 -23.5q95 0 175 29.5t150 84.5l-5 -44q-59 -48 -141 -76.5t-180 -28.5zM135 466v33h696v-33h-696zM242 1212v32h480v-32h-480z" />
    <glyph glyph-name="Ebreve" unicode="&#x114;" horiz-adv-x="1014" 
d="M185 0v1278h39v-1278h-39zM198 0v35h700v-35h-700zM205 638v35h674v-35h-674zM196 1243v35h697v-35h-697zM547 1410q-109 0 -162 59.5t-55 177.5h33q2 -106 48 -156t136 -50q91 0 137.5 50t47.5 156h33q-2 -118 -55 -177.5t-163 -59.5z" />
    <glyph glyph-name="ebreve" unicode="&#x115;" horiz-adv-x="950" 
d="M503 -19q-183 0 -284 99.5t-101 280.5v224q0 200 93.5 304.5t271.5 104.5q117 0 198.5 -47t123.5 -136.5t42 -217.5v-34q0 -22 -0.5 -44t-2.5 -49h-34v67v59q0 119 -37.5 201t-110.5 125t-179 43q-160 0 -244 -96t-84 -280v-98v-8v-117q0 -82 23.5 -146t68.5 -108.5
t110 -68t147 -23.5q95 0 175 29.5t150 84.5l-5 -44q-59 -48 -141 -76.5t-180 -28.5zM135 466v33h696v-33h-696zM482 1105q-104 0 -156 62.5t-55 192.5h33q2 -117 47.5 -170.5t130.5 -53.5q86 0 131.5 53.5t47.5 170.5h33q-3 -130 -55 -192.5t-157 -62.5z" />
    <glyph glyph-name="Edotaccent" unicode="&#x116;" horiz-adv-x="1014" 
d="M185 0v1278h39v-1278h-39zM198 0v35h700v-35h-700zM205 638v35h674v-35h-674zM196 1243v35h697v-35h-697zM547 1473q-21 0 -32 13.5t-11 41.5v4q0 26 11 39.5t32 13.5q22 0 33 -13.5t11 -39.5v-4q0 -28 -11 -41.5t-33 -13.5z" />
    <glyph glyph-name="edotaccent" unicode="&#x117;" horiz-adv-x="950" 
d="M503 -19q-183 0 -284 99.5t-101 280.5v224q0 200 93.5 304.5t271.5 104.5q117 0 198.5 -47t123.5 -136.5t42 -217.5v-34q0 -22 -0.5 -44t-2.5 -49h-34v67v59q0 119 -37.5 201t-110.5 125t-179 43q-160 0 -244 -96t-84 -280v-98v-8v-117q0 -82 23.5 -146t68.5 -108.5
t110 -68t147 -23.5q95 0 175 29.5t150 84.5l-5 -44q-59 -48 -141 -76.5t-180 -28.5zM135 466v33h696v-33h-696zM481 1182q-21 0 -32 13.5t-11 41.5v6q0 26 11 39.5t32 13.5q22 0 33 -13.5t11 -39.5v-6q0 -28 -11 -41.5t-33 -13.5z" />
    <glyph glyph-name="Eogonek" unicode="&#x118;" horiz-adv-x="1014" 
d="M185 0v1278h39v-1278h-39zM198 0v35h700v-35h-700zM205 638v35h674v-35h-674zM196 1243v35h697v-35h-697zM865 -365q-70 0 -108 36.5t-38 103.5v1q0 71 41.5 127.5t102.5 102.5v0l35 -2v-4q-64 -47 -103.5 -101t-39.5 -119v-2q0 -56 32 -82.5t84 -26.5q23 0 45.5 4.5
t46.5 15.5l-7 -34q-15 -9 -41 -14.5t-50 -5.5z" />
    <glyph glyph-name="eogonek" unicode="&#x119;" horiz-adv-x="950" 
d="M700 -365q-78 0 -121 40t-43 109v1q0 75 43 134t104 103v0l43 12v-7q-69 -52 -111.5 -110.5t-42.5 -127.5v-1q0 -61 36.5 -90t97.5 -29q29 0 56 5.5t55 19.5l-7 -35q-18 -10 -49 -17t-61 -7zM503 -19q-183 0 -284 99.5t-101 280.5v224q0 200 93.5 304.5t271.5 104.5
q117 0 198.5 -47t123.5 -136.5t42 -217.5v-34q0 -22 -0.5 -44t-2.5 -49h-34v67v59q0 119 -37.5 201t-110.5 125t-179 43q-160 0 -244 -96t-84 -280v-98v-8v-117q0 -82 23.5 -146t68.5 -108.5t110 -68t147 -23.5q95 0 175 29.5t150 84.5l-5 -44q-59 -48 -141 -76.5
t-180 -28.5zM135 466v33h696v-33h-696z" />
    <glyph glyph-name="Ecaron" unicode="&#x11a;" horiz-adv-x="1014" 
d="M185 0v1278h39v-1278h-39zM198 0v35h700v-35h-700zM205 638v35h674v-35h-674zM196 1243v35h697v-35h-697zM524 1418l-240 228v1h42l219 -198h6l219 198h42v-1l-240 -228h-48z" />
    <glyph glyph-name="ecaron" unicode="&#x11b;" horiz-adv-x="950" 
d="M503 -19q-183 0 -284 99.5t-101 280.5v224q0 200 93.5 304.5t271.5 104.5q117 0 198.5 -47t123.5 -136.5t42 -217.5v-34q0 -22 -0.5 -44t-2.5 -49h-34v67v59q0 119 -37.5 201t-110.5 125t-179 43q-160 0 -244 -96t-84 -280v-98v-8v-117q0 -82 23.5 -146t68.5 -108.5
t110 -68t147 -23.5q95 0 175 29.5t150 84.5l-5 -44q-59 -48 -141 -76.5t-180 -28.5zM135 466v33h696v-33h-696zM457 1111l-203 248v1h38l187 -217h6l187 217h38v-1l-203 -248h-50z" />
    <glyph glyph-name="Gcircumflex" unicode="&#x11c;" horiz-adv-x="1123" 
d="M557 -18q-140 0 -236 55t-145 161t-49 258v350q0 235 111 362.5t326 127.5q90 0 161 -18.5t123.5 -47t86.5 -57.5l6 -42q-64 52 -157 90.5t-221 38.5q-195 0 -296 -118t-101 -336v-349q0 -211 100 -325t294 -114q105 0 179.5 37t120.5 98.5t64 135.5v377l16 -20h-363v34
h386v-433l-31 2q-16 -66 -61 -127.5t-122.5 -100.5t-191.5 -39zM928 265h35v-265h-39zM530 1647h48l240 -228v-1h-42l-219 198h-6l-219 -198h-42v1z" />
    <glyph glyph-name="gcircumflex" unicode="&#x11d;" horiz-adv-x="987" 
d="M496 276q-176 0 -270.5 83t-94.5 245v54q0 95 36 168t114.5 116t205.5 45l459 9v-35l-374 4l-1 5q109 -11 171.5 -53.5t89 -108.5t26.5 -148v-59q0 -162 -92 -243.5t-270 -81.5zM491 -336h17q108 0 191 17.5t130.5 58t47.5 109.5v4q0 76 -55.5 120.5t-185.5 54.5l-255 20
l33 1q-84 -10 -148.5 -32t-101 -62t-36.5 -103v-3q0 -71 46.5 -111.5t128.5 -57t188 -16.5zM491 -370q-118 0 -208 20t-141 67.5t-51 129.5v4q0 71 39 115t103 66.5t139 28.5l-2 -6q-116 9 -167.5 42t-51.5 90v1q0 36 18 61.5t58.5 39.5t105.5 14v13l111 -34h-77
q-102 -1 -141.5 -24t-39.5 -68v-1q0 -47 50 -73t174 -37l231 -20q146 -13 209.5 -65.5t63.5 -138.5v-4q0 -81 -51.5 -129.5t-143 -70t-211.5 -21.5h-17zM496 309q107 0 179 33t109 98.5t37 160.5v59q0 93 -36 159t-106.5 100.5t-174.5 34.5h-10q-116 0 -188 -38t-105 -105
t-33 -153v-54q0 -97 36.5 -162.5t109.5 -99t182 -33.5zM472 1360h50l204 -248v-1h-39l-187 217h-6l-187 -217h-39v1z" />
    <glyph glyph-name="Gbreve" unicode="&#x11e;" horiz-adv-x="1123" 
d="M557 -18q-140 0 -236 55t-145 161t-49 258v350q0 235 111 362.5t326 127.5q90 0 161 -18.5t123.5 -47t86.5 -57.5l6 -42q-64 52 -157 90.5t-221 38.5q-195 0 -296 -118t-101 -336v-349q0 -211 100 -325t294 -114q105 0 179.5 37t120.5 98.5t64 135.5v377l16 -20h-363v34
h386v-433l-31 2q-16 -66 -61 -127.5t-122.5 -100.5t-191.5 -39zM928 265h35v-265h-39zM553 1410q-109 0 -162 59.5t-55 177.5h33q2 -106 48 -156t136 -50q91 0 137.5 50t47.5 156h33q-2 -118 -55 -177.5t-163 -59.5z" />
    <glyph glyph-name="gbreve" unicode="&#x11f;" horiz-adv-x="987" 
d="M496 276q-176 0 -270.5 83t-94.5 245v54q0 95 36 168t114.5 116t205.5 45l459 9v-35l-374 4l-1 5q109 -11 171.5 -53.5t89 -108.5t26.5 -148v-59q0 -162 -92 -243.5t-270 -81.5zM491 -336h17q108 0 191 17.5t130.5 58t47.5 109.5v4q0 76 -55.5 120.5t-185.5 54.5l-255 20
l33 1q-84 -10 -148.5 -32t-101 -62t-36.5 -103v-3q0 -71 46.5 -111.5t128.5 -57t188 -16.5zM491 -370q-118 0 -208 20t-141 67.5t-51 129.5v4q0 71 39 115t103 66.5t139 28.5l-2 -6q-116 9 -167.5 42t-51.5 90v1q0 36 18 61.5t58.5 39.5t105.5 14v13l111 -34h-77
q-102 -1 -141.5 -24t-39.5 -68v-1q0 -47 50 -73t174 -37l231 -20q146 -13 209.5 -65.5t63.5 -138.5v-4q0 -81 -51.5 -129.5t-143 -70t-211.5 -21.5h-17zM496 309q107 0 179 33t109 98.5t37 160.5v59q0 93 -36 159t-106.5 100.5t-174.5 34.5h-10q-116 0 -188 -38t-105 -105
t-33 -153v-54q0 -97 36.5 -162.5t109.5 -99t182 -33.5zM497 1105q-104 0 -156 62.5t-55 192.5h33q2 -117 47.5 -170.5t130.5 -53.5q86 0 131.5 53.5t47.5 170.5h33q-3 -130 -55 -192.5t-157 -62.5z" />
    <glyph glyph-name="Gdotaccent" unicode="&#x120;" horiz-adv-x="1123" 
d="M557 -18q-140 0 -236 55t-145 161t-49 258v350q0 235 111 362.5t326 127.5q90 0 161 -18.5t123.5 -47t86.5 -57.5l6 -42q-64 52 -157 90.5t-221 38.5q-195 0 -296 -118t-101 -336v-349q0 -211 100 -325t294 -114q105 0 179.5 37t120.5 98.5t64 135.5v377l16 -20h-363v34
h386v-433l-31 2q-16 -66 -61 -127.5t-122.5 -100.5t-191.5 -39zM928 265h35v-265h-39zM553 1473q-21 0 -32 13.5t-11 41.5v4q0 26 11 39.5t32 13.5q22 0 33 -13.5t11 -39.5v-4q0 -28 -11 -41.5t-33 -13.5z" />
    <glyph glyph-name="gdotaccent" unicode="&#x121;" horiz-adv-x="987" 
d="M496 276q-176 0 -270.5 83t-94.5 245v54q0 95 36 168t114.5 116t205.5 45l459 9v-35l-374 4l-1 5q109 -11 171.5 -53.5t89 -108.5t26.5 -148v-59q0 -162 -92 -243.5t-270 -81.5zM491 -336h17q108 0 191 17.5t130.5 58t47.5 109.5v4q0 76 -55.5 120.5t-185.5 54.5l-255 20
l33 1q-84 -10 -148.5 -32t-101 -62t-36.5 -103v-3q0 -71 46.5 -111.5t128.5 -57t188 -16.5zM491 -370q-118 0 -208 20t-141 67.5t-51 129.5v4q0 71 39 115t103 66.5t139 28.5l-2 -6q-116 9 -167.5 42t-51.5 90v1q0 36 18 61.5t58.5 39.5t105.5 14v13l111 -34h-77
q-102 -1 -141.5 -24t-39.5 -68v-1q0 -47 50 -73t174 -37l231 -20q146 -13 209.5 -65.5t63.5 -138.5v-4q0 -81 -51.5 -129.5t-143 -70t-211.5 -21.5h-17zM496 309q107 0 179 33t109 98.5t37 160.5v59q0 93 -36 159t-106.5 100.5t-174.5 34.5h-10q-116 0 -188 -38t-105 -105
t-33 -153v-54q0 -97 36.5 -162.5t109.5 -99t182 -33.5zM496 1182q-21 0 -32 13.5t-11 41.5v6q0 26 11 39.5t32 13.5q22 0 33 -13.5t11 -39.5v-6q0 -28 -11 -41.5t-33 -13.5z" />
    <glyph glyph-name="uni0122" unicode="&#x122;" horiz-adv-x="1123" 
d="M557 -18q-140 0 -236 55t-145 161t-49 258v350q0 235 111 362.5t326 127.5q90 0 161 -18.5t123.5 -47t86.5 -57.5l6 -42q-64 52 -157 90.5t-221 38.5q-195 0 -296 -118t-101 -336v-349q0 -211 100 -325t294 -114q105 0 179.5 37t120.5 98.5t64 135.5v377l16 -20h-363v34
h386v-433l-31 2q-16 -66 -61 -127.5t-122.5 -100.5t-191.5 -39zM928 265h35v-265h-39zM577 -140q1 -10 2 -26t1 -36q0 -71 -18 -130.5t-65 -117.5l-20 22q36 50 52 105t16 120q0 17 -1 32.5t-3 30.5h36z" />
    <glyph glyph-name="uni0123" unicode="&#x123;" horiz-adv-x="987" 
d="M496 276q-176 0 -270.5 83t-94.5 245v54q0 95 36 168t114.5 116t205.5 45l459 9v-35l-374 4l-1 5q109 -11 171.5 -53.5t89 -108.5t26.5 -148v-59q0 -162 -92 -243.5t-270 -81.5zM491 -336h17q108 0 191 17.5t130.5 58t47.5 109.5v4q0 76 -55.5 120.5t-185.5 54.5l-255 20
l33 1q-84 -10 -148.5 -32t-101 -62t-36.5 -103v-3q0 -71 46.5 -111.5t128.5 -57t188 -16.5zM491 -370q-118 0 -208 20t-141 67.5t-51 129.5v4q0 71 39 115t103 66.5t139 28.5l-2 -6q-116 9 -167.5 42t-51.5 90v1q0 36 18 61.5t58.5 39.5t105.5 14v13l111 -34h-77
q-102 -1 -141.5 -24t-39.5 -68v-1q0 -47 50 -73t174 -37l231 -20q146 -13 209.5 -65.5t63.5 -138.5v-4q0 -81 -51.5 -129.5t-143 -70t-211.5 -21.5h-17zM496 309q107 0 179 33t109 98.5t37 160.5v59q0 93 -36 159t-106.5 100.5t-174.5 34.5h-10q-116 0 -188 -38t-105 -105
t-33 -153v-54q0 -97 36.5 -162.5t109.5 -99t182 -33.5zM466 1121q-1 11 -2 27t-1 35q0 71 18.5 130.5t64.5 117.5l20 -22q-36 -50 -52 -105t-16 -120q0 -16 1.5 -32t2.5 -31h-36z" />
    <glyph glyph-name="Hcircumflex" unicode="&#x124;" horiz-adv-x="1189" 
d="M224 0h-39v1278h39v-1278zM1004 0h-39v1278h39v-1278zM207 681h780v-35h-780v35zM571 1647h48l240 -228v-1h-42l-219 198h-6l-219 -198h-42v1z" />
    <glyph glyph-name="hcircumflex" unicode="&#x125;" horiz-adv-x="1016" 
d="M832 0v620q0 106 -28.5 181t-92.5 115.5t-171 40.5q-100 0 -173 -39.5t-117 -108.5t-58 -158l-22 37h15q9 82 52.5 150.5t120 110t184.5 41.5q121 0 192.5 -44.5t103 -127t31.5 -196.5v-622h-37zM162 0v1329h37v-338l-4 -277l4 -6v-708h-37zM157 1698h48l240 -228v-1h-42
l-219 198h-6l-219 -198h-42v1z" />
    <glyph glyph-name="Hbar" unicode="&#x126;" horiz-adv-x="1189" 
d="M33 964v33h1124v-33h-1124zM224 0h-39v1278h39v-1278zM1004 0h-39v1278h39v-1278zM207 681h780v-35h-780v35z" />
    <glyph glyph-name="hbar" unicode="&#x127;" horiz-adv-x="1016" 
d="M9 1135v31h557v-31h-557zM832 0v620q0 106 -28.5 181t-92.5 115.5t-171 40.5q-100 0 -173 -39.5t-117 -108.5t-58 -158l-22 37h15q9 82 52.5 150.5t120 110t184.5 41.5q121 0 192.5 -44.5t103 -127t31.5 -196.5v-622h-37zM162 0v1329h37v-338l-4 -277l4 -6v-708h-37z" />
    <glyph glyph-name="Itilde" unicode="&#x128;" horiz-adv-x="415" 
d="M227 0h-39v1278h39v-1278zM349 1448q-41 0 -77.5 17t-70.5 39t-67.5 39t-68.5 17q-38 0 -54 -23t-16 -67v-31h-32v32q0 53 22 87.5t81 34.5q41 0 77 -17t70 -39t68 -39t69 -17q38 0 54 23.5t16 66.5v30h32v-32q0 -52 -22 -86.5t-81 -34.5z" />
    <glyph glyph-name="itilde" unicode="&#x129;" horiz-adv-x="372" 
d="M167 0v971h38v-971h-38zM300 1151q-35 0 -64 17.5t-54.5 40t-51 40t-54.5 17.5q-61 0 -61 -95v-29h-31v32q0 62 22.5 93.5t69.5 31.5q34 0 62.5 -17.5t54.5 -40t52 -40t55 -17.5q59 0 59 95v28h32v-32q0 -62 -22 -93t-69 -31z" />
    <glyph glyph-name="Imacron" unicode="&#x12a;" horiz-adv-x="415" 
d="M227 0h-39v1278h39v-1278zM-33 1512v32h480v-32h-480z" />
    <glyph glyph-name="imacron" unicode="&#x12b;" horiz-adv-x="372" 
d="M167 0v971h38v-971h-38zM-10 1212v32h393v-32h-393z" />
    <glyph glyph-name="Ibreve" unicode="&#x12c;" horiz-adv-x="415" 
d="M227 0h-39v1278h39v-1278zM207 1410q-109 0 -162 59.5t-55 177.5h33q2 -106 48 -156t136 -50q91 0 137.5 50t47.5 156h33q-2 -118 -55 -177.5t-163 -59.5z" />
    <glyph glyph-name="ibreve" unicode="&#x12d;" horiz-adv-x="372" 
d="M167 0v971h38v-971h-38zM186 1105q-99 0 -138 64.5t-39 190.5h33q0 -113 32 -168.5t112 -55.5t112.5 55.5t32.5 168.5h33q0 -126 -39.5 -190.5t-138.5 -64.5z" />
    <glyph glyph-name="Iogonek" unicode="&#x12e;" horiz-adv-x="415" 
d="M227 0h-39v1278h39v-1278zM194 -365q-70 0 -108 36.5t-38 103.5v1q0 71 41.5 127.5t102.5 102.5v0l35 -2v-4q-64 -47 -103.5 -101t-39.5 -119v-2q0 -56 32 -82.5t84 -26.5q23 0 45.5 4.5t46.5 15.5l-7 -34q-15 -9 -41 -14.5t-50 -5.5z" />
    <glyph glyph-name="iogonek" unicode="&#x12f;" horiz-adv-x="369" 
d="M166 0v971h37v-971h-37zM185 1189q-21 0 -32 13.5t-11 41.5v9q0 27 11 40.5t32 13.5t31.5 -13.5t10.5 -40.5v-9q0 -28 -10.5 -41.5t-31.5 -13.5zM171 -365q-69 0 -108 36.5t-39 104.5v1q0 69 41.5 126t103.5 103v0l34 1v-7q-64 -47 -103.5 -101t-39.5 -119v-2
q0 -55 32 -82t84 -27q23 0 45.5 4.5t46.5 15.5l-7 -34q-15 -9 -41 -14.5t-49 -5.5z" />
    <glyph glyph-name="Idotaccent" unicode="&#x130;" horiz-adv-x="415" 
d="M227 0h-39v1278h39v-1278zM207 1473q-21 0 -32 13.5t-11 41.5v4q0 26 11 39.5t32 13.5q22 0 33 -13.5t11 -39.5v-4q0 -28 -11 -41.5t-33 -13.5z" />
    <glyph glyph-name="dotlessi" unicode="&#x131;" horiz-adv-x="372" 
d="M167 0v971h38v-971h-38z" />
    <glyph glyph-name="Jcircumflex" unicode="&#x134;" horiz-adv-x="830" 
d="M328 -13q-67 0 -129.5 14t-112.5 37l-5 41q59 -28 121.5 -41.5t125.5 -13.5q160 0 223.5 74t63.5 224v956h39v-957q0 -163 -73 -248.5t-253 -85.5zM610 1647h48l240 -228v-1h-42l-219 198h-6l-219 -198h-42v1z" />
    <glyph glyph-name="jcircumflex" unicode="&#x135;" horiz-adv-x="410" 
d="M205 203v768h38v-768h-38zM14 -354q-41 0 -78.5 9t-63.5 22l-6 40q35 -18 73 -27t79 -9q104 0 145.5 57.5t41.5 170.5v407h37v-408q0 -85 -22.5 -143.5t-72.5 -88.5t-133 -30zM181 1360h48l163 -249v0h-36l-148 217h-6l-148 -217h-36v0z" />
    <glyph glyph-name="uni0136" unicode="&#x136;" horiz-adv-x="1076" 
d="M949 0l-541 635h-191v35h191l532 608h50l-553 -632l-1 20l566 -666h-53zM185 0v1278h39v-1278h-39zM571 -140q1 -10 2 -26t1 -36q0 -71 -18 -130.5t-65 -117.5l-20 22q36 50 52 105t16 120q0 17 -1 32.5t-3 30.5h36z" />
    <glyph glyph-name="uni0137" unicode="&#x137;" horiz-adv-x="906" 
d="M797 0l-488 505h-123v34h123l465 432h53l-495 -460v24l517 -535h-52zM162 0v1329h37v-1329h-37zM502 -140q1 -10 2 -26t1 -36q0 -71 -18 -130.5t-65 -117.5l-20 22q36 50 52 105t16 120q0 17 -1 32.5t-3 30.5h36z" />
    <glyph glyph-name="kgreenlandic" unicode="&#x138;" horiz-adv-x="907" 
d="M797 0l-474 480h-136v34h136l451 457h54l-481 -485v24l503 -510h-53zM162 0v971h38v-971h-38z" />
    <glyph glyph-name="Lacute" unicode="&#x139;" horiz-adv-x="956" 
d="M224 0h-39v1278h39v-1278zM198 35h687v-35h-687v35zM447 1647h52v-2l-267 -227h-45v1z" />
    <glyph glyph-name="lacute" unicode="&#x13a;" horiz-adv-x="373" 
d="M168 0v1329h37v-1329h-37zM429 1698h52v-2l-267 -227h-45v1z" />
    <glyph glyph-name="uni013B" unicode="&#x13b;" horiz-adv-x="956" 
d="M224 0h-39v1278h39v-1278zM198 35h687v-35h-687v35zM552 -140q1 -10 2 -26t1 -36q0 -71 -18 -130.5t-65 -117.5l-20 22q36 50 52 105t16 120q0 17 -1 32.5t-3 30.5h36z" />
    <glyph glyph-name="uni013C" unicode="&#x13c;" horiz-adv-x="373" 
d="M168 0v1329h37v-1329h-37zM210 -140q1 -10 2 -26t1 -36q0 -71 -18 -130.5t-65 -117.5l-20 22q36 50 52 105t16 120q0 17 -1 32.5t-3 30.5h36z" />
    <glyph glyph-name="Lcaron" unicode="&#x13d;" horiz-adv-x="956" 
d="M224 0h-39v1278h39v-1278zM198 35h687v-35h-687v35zM716 1278q2 -16 5 -43t3 -60q0 -94 -23.5 -173t-81.5 -151l-22 18q50 67 71.5 140.5t21.5 164.5q0 27 -2 53t-6 51h34z" />
    <glyph glyph-name="lcaron" unicode="&#x13e;" horiz-adv-x="467" 
d="M168 0v1329h37v-1329h-37zM443 1329q2 -16 5 -43t3 -60q0 -94 -23.5 -173t-81.5 -151l-22 18q50 67 71.5 140.5t21.5 164.5q0 27 -2 53t-6 51h34z" />
    <glyph glyph-name="Ldot" unicode="&#x13f;" horiz-adv-x="956" 
d="M224 0h-39v1278h39v-1278zM198 35h687v-35h-687v35zM673 635q-22 0 -32.5 13.5t-10.5 41.5v6q0 26 10.5 39.5t32.5 13.5t33 -13.5t11 -39.5v-6q0 -28 -11 -41.5t-33 -13.5z" />
    <glyph glyph-name="ldot" unicode="&#x140;" horiz-adv-x="396" 
d="M168 0v1329h37v-1329h-37zM378 635q-22 0 -32.5 13.5t-10.5 41.5v6q0 26 10.5 39.5t32.5 13.5t33 -13.5t11 -39.5v-6q0 -28 -11 -41.5t-33 -13.5z" />
    <glyph glyph-name="Lslash" unicode="&#x141;" horiz-adv-x="972" 
d="M657 914v-35l-624 -243v35zM240 0h-39v1278h39v-1278zM214 35h687v-35h-687v35z" />
    <glyph glyph-name="lslash" unicode="&#x142;" horiz-adv-x="422" 
d="M0 605v42l422 319v-42zM194 0v1329h37v-1329h-37z" />
    <glyph glyph-name="Nacute" unicode="&#x143;" horiz-adv-x="1189" 
d="M260 1278l693 -1245h14l-2 578v667h39v-1278h-75l-693 1246h-14l2 -620v-626h-39v1278h75zM837 1647h52v-2l-267 -227h-45v1z" />
    <glyph glyph-name="nacute" unicode="&#x144;" horiz-adv-x="1016" 
d="M832 0v620q0 106 -28.5 181t-92.5 115.5t-171 40.5q-99 0 -172.5 -39.5t-117.5 -109t-58 -158.5l-18 38h11q9 82 52.5 150.5t120.5 110t184 41.5q121 0 192.5 -44.5t103 -127t31.5 -196.5v-622h-37zM162 0v971h37l-4 -254h4v-717h-37zM704 1360h48v-2l-221 -247h-39v1z
" />
    <glyph glyph-name="uni0145" unicode="&#x145;" horiz-adv-x="1189" 
d="M260 1278l693 -1245h14l-2 578v667h39v-1278h-75l-693 1246h-14l2 -620v-626h-39v1278h75zM618 -140q1 -10 2 -26t1 -36q0 -71 -18 -130.5t-65 -117.5l-20 22q36 50 52 105t16 120q0 17 -1 32.5t-3 30.5h36z" />
    <glyph glyph-name="uni0146" unicode="&#x146;" horiz-adv-x="1016" 
d="M832 0v620q0 106 -28.5 181t-92.5 115.5t-171 40.5q-99 0 -172.5 -39.5t-117.5 -109t-58 -158.5l-18 38h11q9 82 52.5 150.5t120.5 110t184 41.5q121 0 192.5 -44.5t103 -127t31.5 -196.5v-622h-37zM162 0v971h37l-4 -254h4v-717h-37zM532 -140q1 -10 2 -26t1 -36
q0 -71 -18 -130.5t-65 -117.5l-20 22q36 50 52 105t16 120q0 17 -1 32.5t-3 30.5h36z" />
    <glyph glyph-name="Ncaron" unicode="&#x147;" horiz-adv-x="1189" 
d="M260 1278l693 -1245h14l-2 578v667h39v-1278h-75l-693 1246h-14l2 -620v-626h-39v1278h75zM571 1418l-240 228v1h42l219 -198h6l219 198h42v-1l-240 -228h-48z" />
    <glyph glyph-name="ncaron" unicode="&#x148;" horiz-adv-x="1016" 
d="M832 0v620q0 106 -28.5 181t-92.5 115.5t-171 40.5q-99 0 -172.5 -39.5t-117.5 -109t-58 -158.5l-18 38h11q9 82 52.5 150.5t120.5 110t184 41.5q121 0 192.5 -44.5t103 -127t31.5 -196.5v-622h-37zM162 0v971h37l-4 -254h4v-717h-37zM484 1111l-203 248v1h38l187 -217h6
l187 217h38v-1l-203 -248h-50z" />
    <glyph glyph-name="Eng" unicode="&#x14a;" horiz-adv-x="1189" 
d="M185 0v1278h75l693 -1245h14l-2 578v667h39v-1278h-15h-60l-693 1246h-14l2 -620v-626h-39zM766 -354q-44 0 -84 9t-68 22l-6 40q38 -18 78 -27t84 -9q110 0 153.5 57.5t43.5 170.5v117h37v-118q0 -85 -23.5 -143.5t-75.5 -88.5t-139 -30z" />
    <glyph glyph-name="eng" unicode="&#x14b;" horiz-adv-x="1016" 
d="M832 0v620q0 106 -28.5 181t-92.5 115.5t-171 40.5q-99 0 -172.5 -39.5t-117.5 -109t-58 -158.5l-18 38h11q9 82 52.5 150.5t120.5 110t184 41.5q121 0 192.5 -44.5t103 -127t31.5 -196.5v-622h-37zM162 0v971h37l-4 -254h4v-717h-37zM641 -354q-41 0 -78.5 9t-63.5 22
l-6 40q35 -18 73 -27t79 -9q104 0 145.5 57.5t41.5 170.5v407h37v-408q0 -85 -22.5 -143.5t-72.5 -88.5t-133 -30z" />
    <glyph glyph-name="Omacron" unicode="&#x14c;" horiz-adv-x="1133" 
d="M566 -18q-213 0 -326 125.5t-113 357.5v348q0 232 113 357.5t326 125.5t326.5 -125.5t113.5 -357.5v-348q0 -232 -113.5 -357.5t-326.5 -125.5zM566 18q197 0 299 116.5t102 330.5v349q0 214 -102 330t-299 116q-196 0 -298 -116t-102 -330v-349q0 -214 102 -330.5
t298 -116.5zM326 1512v32h480v-32h-480z" />
    <glyph glyph-name="omacron" unicode="&#x14d;" horiz-adv-x="998" 
d="M499 -23q-187 0 -284 108t-97 310v183q0 202 97.5 309t283.5 107t283.5 -107t97.5 -309v-183q0 -202 -97.5 -310t-283.5 -108zM499 10q167 0 255.5 99t88.5 286v183q0 186 -88 284.5t-256 98.5t-256 -98.5t-88 -284.5v-183q0 -187 88 -286t256 -99zM259 1212v32h480v-32
h-480z" />
    <glyph glyph-name="Obreve" unicode="&#x14e;" horiz-adv-x="1133" 
d="M566 -18q-213 0 -326 125.5t-113 357.5v348q0 232 113 357.5t326 125.5t326.5 -125.5t113.5 -357.5v-348q0 -232 -113.5 -357.5t-326.5 -125.5zM566 18q197 0 299 116.5t102 330.5v349q0 214 -102 330t-299 116q-196 0 -298 -116t-102 -330v-349q0 -214 102 -330.5
t298 -116.5zM566 1410q-109 0 -162 59.5t-55 177.5h33q2 -106 48 -156t136 -50q91 0 137.5 50t47.5 156h33q-2 -118 -55 -177.5t-163 -59.5z" />
    <glyph glyph-name="obreve" unicode="&#x14f;" horiz-adv-x="998" 
d="M499 -23q-187 0 -284 108t-97 310v183q0 202 97.5 309t283.5 107t283.5 -107t97.5 -309v-183q0 -202 -97.5 -310t-283.5 -108zM499 10q167 0 255.5 99t88.5 286v183q0 186 -88 284.5t-256 98.5t-256 -98.5t-88 -284.5v-183q0 -187 88 -286t256 -99zM499 1105
q-104 0 -156 62.5t-55 192.5h33q2 -117 47.5 -170.5t130.5 -53.5q86 0 131.5 53.5t47.5 170.5h33q-3 -130 -55 -192.5t-157 -62.5z" />
    <glyph glyph-name="Ohungarumlaut" unicode="&#x150;" horiz-adv-x="1133" 
d="M566 -18q-213 0 -326 125.5t-113 357.5v348q0 232 113 357.5t326 125.5t326.5 -125.5t113.5 -357.5v-348q0 -232 -113.5 -357.5t-326.5 -125.5zM566 18q197 0 299 116.5t102 330.5v349q0 214 -102 330t-299 116q-196 0 -298 -116t-102 -330v-349q0 -214 102 -330.5
t298 -116.5zM863 1647h46v0l-197 -229h-38v1zM609 1647h46v0l-197 -229h-38v1z" />
    <glyph glyph-name="ohungarumlaut" unicode="&#x151;" horiz-adv-x="998" 
d="M499 -23q-187 0 -284 108t-97 310v183q0 202 97.5 309t283.5 107t283.5 -107t97.5 -309v-183q0 -202 -97.5 -310t-283.5 -108zM499 10q167 0 255.5 99t88.5 286v183q0 186 -88 284.5t-256 98.5t-256 -98.5t-88 -284.5v-183q0 -187 88 -286t256 -99zM768 1360h46v0
l-172 -249h-38v0zM515 1360h46v0l-172 -249h-38v0z" />
    <glyph glyph-name="OE" unicode="&#x152;" horiz-adv-x="1626" 
d="M566 -18q-213 0 -326 125.5t-113 357.5v348q0 232 113 357.5t326 125.5t326.5 -125.5t113.5 -357.5v-348q0 -232 -113.5 -357.5t-326.5 -125.5zM566 18q197 0 299 116.5t102 330.5v349q0 214 -102 330t-299 116q-196 0 -298 -116t-102 -330v-349q0 -214 102 -330.5
t298 -116.5zM707 0v35h803v-35h-803zM987 638v35h504v-35h-504zM705 1243v35h800v-35h-800z" />
    <glyph glyph-name="oe" unicode="&#x153;" horiz-adv-x="1675" 
d="M497 -23q-186 0 -282.5 108t-96.5 310v183q0 202 97 309t282 107q155 0 248 -76.5t118 -221.5h-4q21 144 112.5 221t238.5 77q117 0 197.5 -47t122.5 -136.5t42 -217.5v-34q0 -22 -0.5 -44t-2.5 -49h-34v67v59q0 119 -37.5 201t-109.5 125t-178 43q-161 0 -245.5 -96
t-84.5 -280v-105v-8v-86q0 -181 90.5 -275.5t263.5 -94.5q92 0 172 29.5t148 84.5l-5 -44q-59 -48 -140 -76.5t-176 -28.5q-160 0 -254.5 75t-120.5 222h6q-27 -148 -119.5 -224.5t-247.5 -76.5zM860 466v33h696v-33h-696zM497 10q168 0 257 99t89 286v181q0 187 -89 286
t-257 99q-167 0 -254.5 -98.5t-87.5 -284.5v-183q0 -187 87.5 -286t254.5 -99z" />
    <glyph glyph-name="Racute" unicode="&#x154;" horiz-adv-x="1107" 
d="M956 0l-43 274q-13 85 -41 154t-88.5 110.5t-173.5 41.5h-401v34l436 1q160 0 226.5 83.5t66.5 216.5v39q0 134 -69 211.5t-231 77.5h-435v35h437q178 0 257.5 -88.5t79.5 -234.5v-41q0 -137 -71 -227t-234 -95l-2 2l-21 10q109 -7 169 -49.5t88.5 -113t43.5 -162.5
l46 -279h-40zM185 0v1278h39v-670v-17v-591h-39zM796 1647h52v-2l-267 -227h-45v1z" />
    <glyph glyph-name="racute" unicode="&#x155;" horiz-adv-x="719" 
d="M193 617l-19 24l11 9q33 154 129 244.5t236 90.5q42 0 74.5 -7t54.5 -17l3 -36q-26 11 -60 18t-75 7q-123 0 -217.5 -83.5t-136.5 -249.5zM162 0v971h37l-5 -301l5 -5v-665h-37zM593 1360h48v-2l-221 -247h-39v1z" />
    <glyph glyph-name="uni0156" unicode="&#x156;" horiz-adv-x="1107" 
d="M956 0l-43 274q-13 85 -41 154t-88.5 110.5t-173.5 41.5h-401v34l436 1q160 0 226.5 83.5t66.5 216.5v39q0 134 -69 211.5t-231 77.5h-435v35h437q178 0 257.5 -88.5t79.5 -234.5v-41q0 -137 -71 -227t-234 -95l-2 2l-21 10q109 -7 169 -49.5t88.5 -113t43.5 -162.5
l46 -279h-40zM185 0v1278h39v-670v-17v-591h-39zM588 -140q1 -10 2 -26t1 -36q0 -71 -18 -130.5t-65 -117.5l-20 22q36 50 52 105t16 120q0 17 -1 32.5t-3 30.5h36z" />
    <glyph glyph-name="uni0157" unicode="&#x157;" horiz-adv-x="719" 
d="M193 617l-19 24l11 9q33 154 129 244.5t236 90.5q42 0 74.5 -7t54.5 -17l3 -36q-26 11 -60 18t-75 7q-123 0 -217.5 -83.5t-136.5 -249.5zM162 0v971h37l-5 -301l5 -5v-665h-37zM204 -140q1 -10 2 -26t1 -36q0 -71 -18 -130.5t-65 -117.5l-20 22q36 50 52 105t16 120
q0 17 -1 32.5t-3 30.5h36z" />
    <glyph glyph-name="Rcaron" unicode="&#x158;" horiz-adv-x="1107" 
d="M956 0l-43 274q-13 85 -41 154t-88.5 110.5t-173.5 41.5h-401v34l436 1q160 0 226.5 83.5t66.5 216.5v39q0 134 -69 211.5t-231 77.5h-435v35h437q178 0 257.5 -88.5t79.5 -234.5v-41q0 -137 -71 -227t-234 -95l-2 2l-21 10q109 -7 169 -49.5t88.5 -113t43.5 -162.5
l46 -279h-40zM185 0v1278h39v-670v-17v-591h-39zM530 1418l-240 228v1h42l219 -198h6l219 198h42v-1l-240 -228h-48z" />
    <glyph glyph-name="rcaron" unicode="&#x159;" horiz-adv-x="719" 
d="M193 617l-19 24l11 9q33 154 129 244.5t236 90.5q42 0 74.5 -7t54.5 -17l3 -36q-26 11 -60 18t-75 7q-123 0 -217.5 -83.5t-136.5 -249.5zM162 0v971h37l-5 -301l5 -5v-665h-37zM373 1111l-203 248v1h38l187 -217h6l187 217h38v-1l-203 -248h-50z" />
    <glyph glyph-name="Sacute" unicode="&#x15a;" horiz-adv-x="1017" 
d="M505 -18q-93 0 -169 18t-132.5 44.5t-92.5 52.5l-6 45q74 -52 174.5 -88t227.5 -36q173 0 263 74.5t90 216.5v24q0 95 -33 155t-111.5 97t-215.5 62q-151 30 -235 73t-117.5 107t-33.5 156v6q0 145 90.5 225.5t281.5 80.5q134 0 228 -33.5t146 -71.5l5 -42
q-65 45 -158 78t-223 33q-115 0 -188 -32t-108 -92.5t-35 -145.5v-6q0 -84 31 -141t109.5 -95t222.5 -67q148 -29 231 -70.5t117.5 -107.5t34.5 -168v-25q0 -159 -100 -243t-294 -84zM742 1647h52v-2l-267 -227h-45v1z" />
    <glyph glyph-name="sacute" unicode="&#x15b;" horiz-adv-x="846" 
d="M425 -19q-117 0 -200.5 30t-135.5 64l-6 43q70 -44 152.5 -73t191.5 -29q137 0 215 53.5t78 157.5v20q0 67 -25 111t-90 74.5t-186 53.5q-123 23 -194 54t-100.5 81t-29.5 128v10q0 110 78.5 170t235.5 60q112 0 191.5 -29t126.5 -65l6 -41q-61 44 -139.5 72.5
t-185.5 28.5q-94 0 -155 -23.5t-91 -67.5t-30 -105v-10q0 -70 26.5 -112.5t91.5 -68.5t178 -48q128 -24 199.5 -57.5t100.5 -85t29 -128.5v-22q0 -119 -87.5 -182.5t-244.5 -63.5zM616 1360h48v-2l-221 -247h-39v1z" />
    <glyph glyph-name="Scircumflex" unicode="&#x15c;" horiz-adv-x="1017" 
d="M505 -18q-93 0 -169 18t-132.5 44.5t-92.5 52.5l-6 45q74 -52 174.5 -88t227.5 -36q173 0 263 74.5t90 216.5v24q0 95 -33 155t-111.5 97t-215.5 62q-151 30 -235 73t-117.5 107t-33.5 156v6q0 145 90.5 225.5t281.5 80.5q134 0 228 -33.5t146 -71.5l5 -42
q-65 45 -158 78t-223 33q-115 0 -188 -32t-108 -92.5t-35 -145.5v-6q0 -84 31 -141t109.5 -95t222.5 -67q148 -29 231 -70.5t117.5 -107.5t34.5 -168v-25q0 -159 -100 -243t-294 -84zM476 1647h48l240 -228v-1h-42l-219 198h-6l-219 -198h-42v1z" />
    <glyph glyph-name="scircumflex" unicode="&#x15d;" horiz-adv-x="846" 
d="M425 -19q-117 0 -200.5 30t-135.5 64l-6 43q70 -44 152.5 -73t191.5 -29q137 0 215 53.5t78 157.5v20q0 67 -25 111t-90 74.5t-186 53.5q-123 23 -194 54t-100.5 81t-29.5 128v10q0 110 78.5 170t235.5 60q112 0 191.5 -29t126.5 -65l6 -41q-61 44 -139.5 72.5
t-185.5 28.5q-94 0 -155 -23.5t-91 -67.5t-30 -105v-10q0 -70 26.5 -112.5t91.5 -68.5t178 -48q128 -24 199.5 -57.5t100.5 -85t29 -128.5v-22q0 -119 -87.5 -182.5t-244.5 -63.5zM396 1360h50l204 -248v-1h-39l-187 217h-6l-187 -217h-39v1z" />
    <glyph glyph-name="Scedilla" unicode="&#x15e;" horiz-adv-x="1017" 
d="M505 -18q-93 0 -169 18t-132.5 44.5t-92.5 52.5l-6 45q74 -52 174.5 -88t227.5 -36q173 0 263 74.5t90 216.5v24q0 95 -33 155t-111.5 97t-215.5 62q-151 30 -235 73t-117.5 107t-33.5 156v6q0 145 90.5 225.5t281.5 80.5q134 0 228 -33.5t146 -71.5l5 -42
q-65 45 -158 78t-223 33q-115 0 -188 -32t-108 -92.5t-35 -145.5v-6q0 -84 31 -141t109.5 -95t222.5 -67q148 -29 231 -70.5t117.5 -107.5t34.5 -168v-25q0 -159 -100 -243t-294 -84zM517 2l-16 -135l-22 19q6 -1 20.5 -1.5t24.5 -1.5q99 -7 144.5 -37.5t45.5 -95.5v-3
q0 -61 -45.5 -92.5t-130.5 -31.5q-40 0 -77 7.5t-62 16.5l-8 37q31 -13 68 -20.5t78 -7.5q72 0 107 23t35 67v3q0 54 -39 76.5t-130 29.5q-9 1 -20 1.5t-23 1.5l17 144h33z" />
    <glyph glyph-name="scedilla" unicode="&#x15f;" horiz-adv-x="846" 
d="M425 -19q-117 0 -200.5 30t-135.5 64l-6 43q70 -44 152.5 -73t191.5 -29q137 0 215 53.5t78 157.5v20q0 67 -25 111t-90 74.5t-186 53.5q-123 23 -194 54t-100.5 81t-29.5 128v10q0 110 78.5 170t235.5 60q112 0 191.5 -29t126.5 -65l6 -41q-61 44 -139.5 72.5
t-185.5 28.5q-94 0 -155 -23.5t-91 -67.5t-30 -105v-10q0 -70 26.5 -112.5t91.5 -68.5t178 -48q128 -24 199.5 -57.5t100.5 -85t29 -128.5v-22q0 -119 -87.5 -182.5t-244.5 -63.5zM438 2l-16 -135l-22 19q6 -1 20.5 -1.5t24.5 -1.5q99 -7 144.5 -37.5t45.5 -95.5v-3
q0 -61 -45.5 -92.5t-130.5 -31.5q-40 0 -77 7.5t-62 16.5l-8 37q31 -13 68 -20.5t78 -7.5q72 0 107 23t35 67v3q0 54 -39 76.5t-130 29.5q-9 1 -20 1.5t-23 1.5l17 144h33z" />
    <glyph glyph-name="Scaron" unicode="&#x160;" horiz-adv-x="1017" 
d="M505 -18q-93 0 -169 18t-132.5 44.5t-92.5 52.5l-6 45q74 -52 174.5 -88t227.5 -36q173 0 263 74.5t90 216.5v24q0 95 -33 155t-111.5 97t-215.5 62q-151 30 -235 73t-117.5 107t-33.5 156v6q0 145 90.5 225.5t281.5 80.5q134 0 228 -33.5t146 -71.5l5 -42
q-65 45 -158 78t-223 33q-115 0 -188 -32t-108 -92.5t-35 -145.5v-6q0 -84 31 -141t109.5 -95t222.5 -67q148 -29 231 -70.5t117.5 -107.5t34.5 -168v-25q0 -159 -100 -243t-294 -84zM476 1418l-240 228v1h42l219 -198h6l219 198h42v-1l-240 -228h-48z" />
    <glyph glyph-name="scaron" unicode="&#x161;" horiz-adv-x="846" 
d="M425 -19q-117 0 -200.5 30t-135.5 64l-6 43q70 -44 152.5 -73t191.5 -29q137 0 215 53.5t78 157.5v20q0 67 -25 111t-90 74.5t-186 53.5q-123 23 -194 54t-100.5 81t-29.5 128v10q0 110 78.5 170t235.5 60q112 0 191.5 -29t126.5 -65l6 -41q-61 44 -139.5 72.5
t-185.5 28.5q-94 0 -155 -23.5t-91 -67.5t-30 -105v-10q0 -70 26.5 -112.5t91.5 -68.5t178 -48q128 -24 199.5 -57.5t100.5 -85t29 -128.5v-22q0 -119 -87.5 -182.5t-244.5 -63.5zM396 1111l-203 248v1h38l187 -217h6l187 217h38v-1l-203 -248h-50z" />
    <glyph glyph-name="uni0162" unicode="&#x162;" horiz-adv-x="1009" 
d="M485 0v1278h39v-1278h-39zM76 1244v34h857v-34h-857zM522 2l-16 -135l-22 19q6 -1 20.5 -1.5t24.5 -1.5q99 -7 144.5 -37.5t45.5 -95.5v-3q0 -61 -45.5 -92.5t-130.5 -31.5q-40 0 -77 7.5t-62 16.5l-8 37q31 -13 68 -20.5t78 -7.5q72 0 107 23t35 67v3q0 54 -39 76.5
t-130 29.5q-9 1 -20 1.5t-23 1.5l17 144h33z" />
    <glyph glyph-name="uni0163" unicode="&#x163;" horiz-adv-x="791" 
d="M482 -18q-97 0 -158 28.5t-90 87.5t-29 148v679h37v-676q0 -118 55 -175t186 -57q62 0 122.5 15.5t116.5 47.5l-5 -40q-46 -26 -108.5 -42t-126.5 -16zM22 914v32h687l-5 -32h-682zM205 936v292l39 15l-3 -307h-36zM472 2l-16 -135l-22 19q6 -1 20.5 -1.5t24.5 -1.5
q99 -7 144.5 -37.5t45.5 -95.5v-3q0 -61 -45.5 -92.5t-130.5 -31.5q-40 0 -77 7.5t-62 16.5l-8 37q31 -13 68 -20.5t78 -7.5q72 0 107 23t35 67v3q0 54 -39 76.5t-130 29.5q-9 1 -20 1.5t-23 1.5l17 144h33z" />
    <glyph glyph-name="Tcaron" unicode="&#x164;" horiz-adv-x="1009" 
d="M485 0v1278h39v-1278h-39zM76 1244v34h857v-34h-857zM481 1418l-240 228v1h42l219 -198h6l219 198h42v-1l-240 -228h-48z" />
    <glyph glyph-name="tcaron" unicode="&#x165;" horiz-adv-x="791" 
d="M654 1402q2 -14 5 -36t3 -50q0 -78 -23.5 -143.5t-81.5 -125.5l-22 15q50 56 71.5 117t21.5 136q0 23 -2 44.5t-6 42.5h34zM482 -18q-97 0 -158 28.5t-90 87.5t-29 148v679h37v-676q0 -118 55 -175t186 -57q62 0 122.5 15.5t116.5 47.5l-5 -40q-46 -26 -108.5 -42
t-126.5 -16zM22 914v32h687l-5 -32h-682zM205 936v292l39 15l-3 -307h-36z" />
    <glyph glyph-name="Tbar" unicode="&#x166;" horiz-adv-x="1009" 
d="M175 642v34h664v-34h-664zM485 0v1278h39v-1278h-39zM76 1244v34h857v-34h-857z" />
    <glyph glyph-name="tbar" unicode="&#x167;" horiz-adv-x="791" 
d="M482 -18q-97 0 -158 28.5t-90 87.5t-29 148v679h37v-676q0 -118 55 -175t186 -57q62 0 122.5 15.5t116.5 47.5l-5 -40q-46 -26 -108.5 -42t-126.5 -16zM34 497v32h651v-32h-651zM22 914v32h687l-5 -32h-682zM205 936v292l39 15l-3 -307h-36z" />
    <glyph glyph-name="Utilde" unicode="&#x168;" horiz-adv-x="1170" 
d="M585 -18q-207 0 -309 118t-102 335v843h39v-843q0 -199 91 -308t281 -109q191 0 281.5 109t90.5 308v843h39v-843q0 -217 -102.5 -335t-308.5 -118zM726 1448q-41 0 -77.5 17t-70.5 39t-67.5 39t-68.5 17q-38 0 -54 -23t-16 -67v-31h-32v32q0 53 22 87.5t81 34.5
q41 0 77 -17t70 -39t68 -39t69 -17q38 0 54 23.5t16 66.5v30h32v-32q0 -52 -22 -86.5t-81 -34.5z" />
    <glyph glyph-name="utilde" unicode="&#x169;" horiz-adv-x="1016" 
d="M184 971v-620q0 -105 28.5 -180.5t92.5 -116t171 -40.5q100 0 173 39.5t117.5 109t57.5 158.5l18 -38h-11q-9 -81 -52.5 -150t-120 -110.5t-184.5 -41.5q-120 0 -192 44.5t-103.5 127t-31.5 196.5v622h37zM854 971v-971h-37l4 254h-4v717h37zM635 1151q-37 0 -70 17.5
t-64 40t-61 40t-60 17.5q-36 0 -52.5 -23t-16.5 -73v-28h-31v29q0 64 24 96t76 32q36 0 69 -17.5t64 -40t61.5 -40t60.5 -17.5q36 0 52 23t16 73v27h32v-29q0 -64 -24 -95.5t-76 -31.5z" />
    <glyph glyph-name="Umacron" unicode="&#x16a;" horiz-adv-x="1170" 
d="M585 -18q-207 0 -309 118t-102 335v843h39v-843q0 -199 91 -308t281 -109q191 0 281.5 109t90.5 308v843h39v-843q0 -217 -102.5 -335t-308.5 -118zM344 1512v32h480v-32h-480z" />
    <glyph glyph-name="umacron" unicode="&#x16b;" horiz-adv-x="1016" 
d="M184 971v-620q0 -105 28.5 -180.5t92.5 -116t171 -40.5q100 0 173 39.5t117.5 109t57.5 158.5l18 -38h-11q-9 -81 -52.5 -150t-120 -110.5t-184.5 -41.5q-120 0 -192 44.5t-103.5 127t-31.5 196.5v622h37zM854 971v-971h-37l4 254h-4v717h37zM263 1212v32h480v-32h-480z
" />
    <glyph glyph-name="Ubreve" unicode="&#x16c;" horiz-adv-x="1170" 
d="M585 -18q-207 0 -309 118t-102 335v843h39v-843q0 -199 91 -308t281 -109q191 0 281.5 109t90.5 308v843h39v-843q0 -217 -102.5 -335t-308.5 -118zM584 1410q-109 0 -162 59.5t-55 177.5h33q2 -106 48 -156t136 -50q91 0 137.5 50t47.5 156h33q-2 -118 -55 -177.5
t-163 -59.5z" />
    <glyph glyph-name="ubreve" unicode="&#x16d;" horiz-adv-x="1016" 
d="M184 971v-620q0 -105 28.5 -180.5t92.5 -116t171 -40.5q100 0 173 39.5t117.5 109t57.5 158.5l18 -38h-11q-9 -81 -52.5 -150t-120 -110.5t-184.5 -41.5q-120 0 -192 44.5t-103.5 127t-31.5 196.5v622h37zM854 971v-971h-37l4 254h-4v717h37zM503 1105q-104 0 -156 62.5
t-55 192.5h33q2 -117 47.5 -170.5t130.5 -53.5q86 0 131.5 53.5t47.5 170.5h33q-3 -130 -55 -192.5t-157 -62.5z" />
    <glyph glyph-name="Uring" unicode="&#x16e;" horiz-adv-x="1170" 
d="M585 -18q-207 0 -309 118t-102 335v843h39v-843q0 -199 91 -308t281 -109q191 0 281.5 109t90.5 308v843h39v-843q0 -217 -102.5 -335t-308.5 -118zM432 1531v2q0 68 41 107t111 39t110.5 -39t40.5 -107v-2q0 -67 -40.5 -106t-110.5 -39t-111 39t-41 106zM465 1531
q0 -54 31 -84t88 -30t88 30t31 84v2q0 55 -31 85.5t-88 30.5t-88 -30.5t-31 -85.5v-2z" />
    <glyph glyph-name="uring" unicode="&#x16f;" horiz-adv-x="1016" 
d="M184 971v-620q0 -105 28.5 -180.5t92.5 -116t171 -40.5q100 0 173 39.5t117.5 109t57.5 158.5l18 -38h-11q-9 -81 -52.5 -150t-120 -110.5t-184.5 -41.5q-120 0 -192 44.5t-103.5 127t-31.5 196.5v622h37zM854 971v-971h-37l4 254h-4v717h37zM352 1253v2q0 68 41 107
t111 39t110.5 -39t40.5 -107v-2q0 -67 -40.5 -106t-110.5 -39t-111 39t-41 106zM385 1253q0 -54 31 -84t88 -30t88 30t31 84v2q0 55 -31 85.5t-88 30.5t-88 -30.5t-31 -85.5v-2z" />
    <glyph glyph-name="Uhungarumlaut" unicode="&#x170;" horiz-adv-x="1170" 
d="M585 -18q-207 0 -309 118t-102 335v843h39v-843q0 -199 91 -308t281 -109q191 0 281.5 109t90.5 308v843h39v-843q0 -217 -102.5 -335t-308.5 -118zM881 1647h46v0l-197 -229h-38v1zM627 1647h46v0l-197 -229h-38v1z" />
    <glyph glyph-name="uhungarumlaut" unicode="&#x171;" horiz-adv-x="1016" 
d="M184 971v-620q0 -105 28.5 -180.5t92.5 -116t171 -40.5q100 0 173 39.5t117.5 109t57.5 158.5l18 -38h-11q-9 -81 -52.5 -150t-120 -110.5t-184.5 -41.5q-120 0 -192 44.5t-103.5 127t-31.5 196.5v622h37zM854 971v-971h-37l4 254h-4v717h37zM772 1360h46v0l-172 -249
h-38v0zM519 1360h46v0l-172 -249h-38v0z" />
    <glyph glyph-name="Uogonek" unicode="&#x172;" horiz-adv-x="1170" 
d="M691 -365q-73 0 -113.5 37t-40.5 103v1q0 71 41.5 126t101.5 98v0l41 7v-7q-66 -48 -107 -102t-41 -118v-1q0 -57 34 -83.5t89 -26.5q28 0 54 5.5t54 19.5l-7 -35q-17 -10 -47 -17t-59 -7zM585 -18q-207 0 -309 118t-102 335v843h39v-843q0 -199 91 -308t281 -109
q191 0 281.5 109t90.5 308v843h39v-843q0 -217 -102.5 -335t-308.5 -118z" />
    <glyph glyph-name="uogonek" unicode="&#x173;" horiz-adv-x="1016" 
d="M184 971v-620q0 -105 28.5 -180.5t92.5 -116t171 -40.5q100 0 173 39.5t117.5 109t57.5 158.5l18 -38h-11q-9 -81 -52.5 -150t-120 -110.5t-184.5 -41.5q-120 0 -192 44.5t-103.5 127t-31.5 196.5v622h37zM854 971v-971h-37l4 254h-4v717h37zM816 -365q-69 0 -108 36.5
t-39 104.5v1q0 69 41.5 126t103.5 103v0l34 1v-7q-64 -47 -103.5 -101t-39.5 -119v-2q0 -55 32 -82t84 -27q23 0 45.5 4.5t46.5 15.5l-7 -34q-15 -9 -41 -14.5t-49 -5.5z" />
    <glyph glyph-name="Wcircumflex" unicode="&#x174;" horiz-adv-x="1568" 
d="M392 0l-300 1278h41l278 -1202l10 -42h24l11 42l291 1164h74l293 -1165l10 -41h24l10 41l278 1203h40l-300 -1278h-80l-221 876l-83 332h-16l-83 -332l-219 -876h-82zM761 1647h48l240 -228v-1h-42l-219 198h-6l-219 -198h-42v1z" />
    <glyph glyph-name="wcircumflex" unicode="&#x175;" horiz-adv-x="1444" 
d="M362 0l-278 971h41l263 -938h24l278 909h64l278 -909h24l263 938h41l-278 -971h-76l-231 757l-48 155h-11l-48 -156l-230 -756h-76zM697 1360h50l204 -248v-1h-39l-187 217h-6l-187 -217h-39v1z" />
    <glyph glyph-name="Ycircumflex" unicode="&#x176;" horiz-adv-x="1039" 
d="M502 427l-436 851h43l294 -576l111 -217h11l111 217l294 576h43l-436 -851h-35zM500 0v471h39v-471h-39zM496 1647h48l240 -228v-1h-42l-219 198h-6l-219 -198h-42v1z" />
    <glyph glyph-name="ycircumflex" unicode="&#x177;" horiz-adv-x="939" 
d="M493 71l-17 -9l353 909h41l-509 -1315h-41l153 397l10 -15h-51l-363 933h41l348 -900h35zM444 1360h50l204 -248v-1h-39l-187 217h-6l-187 -217h-39v1z" />
    <glyph glyph-name="Ydieresis" unicode="&#x178;" horiz-adv-x="1039" 
d="M502 427l-436 851h43l294 -576l111 -217h11l111 217l294 576h43l-436 -851h-35zM500 0v471h39v-471h-39zM387 1477q-22 0 -32.5 13.5t-10.5 41.5v6q0 26 10.5 39.5t32.5 13.5t32.5 -13.5t10.5 -39.5v-6q0 -28 -10.5 -41.5t-32.5 -13.5zM654 1477q-22 0 -32.5 13.5
t-10.5 41.5v6q0 26 10.5 39.5t32.5 13.5q21 0 31.5 -13.5t10.5 -39.5v-6q0 -28 -10.5 -41.5t-31.5 -13.5z" />
    <glyph glyph-name="Zacute" unicode="&#x179;" horiz-adv-x="1005" 
d="M896 35v-35h-787v31l736 1213h-733v34h779v-30l-737 -1213h742zM745 1647h52v-2l-267 -227h-45v1z" />
    <glyph glyph-name="zacute" unicode="&#x17a;" horiz-adv-x="870" 
d="M772 33v-33h-675v31l627 908h-625v32h670v-30l-627 -908h630zM630 1360h48v-2l-221 -247h-39v1z" />
    <glyph glyph-name="Zdotaccent" unicode="&#x17b;" horiz-adv-x="1005" 
d="M896 35v-35h-787v31l736 1213h-733v34h779v-30l-737 -1213h742zM502 1473q-21 0 -32 13.5t-11 41.5v4q0 26 11 39.5t32 13.5q22 0 33 -13.5t11 -39.5v-4q0 -28 -11 -41.5t-33 -13.5z" />
    <glyph glyph-name="zdotaccent" unicode="&#x17c;" horiz-adv-x="870" 
d="M772 33v-33h-675v31l627 908h-625v32h670v-30l-627 -908h630zM434 1182q-21 0 -32 13.5t-11 41.5v6q0 26 11 39.5t32 13.5q22 0 33 -13.5t11 -39.5v-6q0 -28 -11 -41.5t-33 -13.5z" />
    <glyph glyph-name="Zcaron" unicode="&#x17d;" horiz-adv-x="1005" 
d="M896 35v-35h-787v31l736 1213h-733v34h779v-30l-737 -1213h742zM479 1418l-240 228v1h42l219 -198h6l219 198h42v-1l-240 -228h-48z" />
    <glyph glyph-name="zcaron" unicode="&#x17e;" horiz-adv-x="870" 
d="M772 33v-33h-675v31l627 908h-625v32h670v-30l-627 -908h630zM410 1111l-203 248v1h38l187 -217h6l187 217h38v-1l-203 -248h-50z" />
    <glyph glyph-name="uni018F" unicode="&#x18f;" horiz-adv-x="1110" 
d="M546 -18q-211 0 -323.5 125.5t-112.5 357.5v77q0 32 0.5 63.5t2.5 69.5h845v-34h-827l18 14v-190q0 -214 101 -330.5t296 -116.5q196 0 297 116.5t101 330.5v349q0 213 -100.5 329t-304.5 116q-130 0 -232.5 -41t-173.5 -92l5 43q38 29 96.5 58t135 48.5t169.5 19.5
q223 0 333.5 -125.5t110.5 -355.5v-349q0 -154 -50.5 -262t-148 -164.5t-238.5 -56.5z" />
    <glyph glyph-name="florin" unicode="&#x192;" horiz-adv-x="811" 
d="M61 910l2 32h638l-2 -32h-638zM780 1262q-52 23 -119 38.5t-137 15.5q-124 0 -182.5 -55.5t-67.5 -182.5l-101 -1422h-39l102 1426q7 98 40.5 157t95 85t151.5 26q77 0 143 -16.5t112 -36.5z" />
    <glyph glyph-name="Ohorn" unicode="&#x1a0;" horiz-adv-x="1133" 
d="M566 -18q-213 0 -326 125.5t-113 357.5v348q0 232 113 357.5t326 125.5t326.5 -125.5t113.5 -357.5v-348q0 -232 -113.5 -357.5t-326.5 -125.5zM566 18q197 0 299 116.5t102 330.5v349q0 214 -102 330t-299 116q-196 0 -298 -116t-102 -330v-349q0 -214 102 -330.5
t298 -116.5zM787 1229l-10 25q102 17 159 54.5t57 114.5q0 32 -8.5 60t-19.5 54h36q11 -25 19.5 -51.5t8.5 -61.5q0 -82 -59 -130t-183 -65z" />
    <glyph glyph-name="ohorn" unicode="&#x1a1;" horiz-adv-x="998" 
d="M499 -23q-187 0 -284 108t-97 310v183q0 202 97.5 309t283.5 107t283.5 -107t97.5 -309v-183q0 -202 -97.5 -310t-283.5 -108zM499 10q167 0 255.5 99t88.5 286v183q0 186 -88 284.5t-256 98.5t-256 -98.5t-88 -284.5v-183q0 -187 88 -286t256 -99zM689 934l-11 25
q111 8 172 48.5t61 112.5q0 33 -8.5 62t-19.5 57h36q11 -27 19.5 -54.5t8.5 -63.5q0 -76 -62 -127.5t-196 -59.5z" />
    <glyph glyph-name="Uhorn" unicode="&#x1af;" horiz-adv-x="1170" 
d="M585 -18q-207 0 -309 118t-102 335v843h39v-843q0 -199 91 -308t281 -109q191 0 281.5 109t90.5 308v843h39v-843q0 -217 -102.5 -335t-308.5 -118zM971 1247l-11 25q94 15 145.5 48t51.5 102q0 32 -8 60t-20 55h37q11 -26 19 -52.5t8 -61.5q0 -75 -54 -118t-168 -58z
" />
    <glyph glyph-name="uhorn" unicode="&#x1b0;" horiz-adv-x="1016" 
d="M184 971v-620q0 -105 28.5 -180.5t92.5 -116t171 -40.5q100 0 173 39.5t117.5 109t57.5 158.5l18 -38h-11q-9 -81 -52.5 -150t-120 -110.5t-184.5 -41.5q-120 0 -192 44.5t-103.5 127t-31.5 196.5v622h37zM854 971v-971h-37l4 254h-4v717h37zM826 944l-10 25
q93 16 145 50t52 105q0 32 -8.5 60t-19.5 55h36q11 -26 19.5 -52.5t8.5 -61.5q0 -76 -55 -121t-168 -60z" />
    <glyph glyph-name="uni01C4" unicode="&#x1c4;" horiz-adv-x="2089" 
d="M205 0v35h337q210 0 319 116t109 333v310q0 218 -109 333.5t-319 115.5h-339v35h340q226 0 346 -125t120 -358v-312q0 -232 -120 -357.5t-346 -125.5h-338zM185 0v1278h39v-1278h-39zM1980 35v-35h-787v31l736 1213h-733v34h779v-30l-737 -1213h742zM1563 1418l-240 228
v1h42l219 -198h6l219 198h42v-1l-240 -228h-48z" />
    <glyph glyph-name="uni01C5" unicode="&#x1c5;" horiz-adv-x="2001" 
d="M205 0v35h337q210 0 319 116t109 333v310q0 218 -109 333.5t-319 115.5h-339v35h340q226 0 346 -125t120 -358v-312q0 -232 -120 -357.5t-346 -125.5h-338zM185 0v1278h39v-1278h-39zM1903 33v-33h-675v31l627 908h-625v32h670v-30l-627 -908h630zM1541 1111l-203 248v1
h38l187 -217h6l187 217h38v-1l-203 -248h-50z" />
    <glyph glyph-name="uni01C6" unicode="&#x1c6;" horiz-adv-x="1899" 
d="M486 -19q-178 0 -273 106.5t-95 306.5v185q0 200 95.5 305.5t275.5 105.5q100 0 180 -41t126.5 -115t47.5 -174h12l-22 -33q-6 110 -54.5 183t-124.5 110t-167 37q-160 0 -246 -96.5t-86 -281.5v-185q0 -185 86 -282.5t249 -97.5q93 0 166 39t120 109t61 163l18 -37h-11
q-9 -85 -55 -154.5t-123 -111t-180 -41.5zM830 0l5 261l-2 15v417l1 19l-4 277v340h37v-1329h-37zM1801 33v-33h-675v31l627 908h-625v32h670v-30l-627 -908h630zM1439 1111l-203 248v1h38l187 -217h6l187 217h38v-1l-203 -248h-50z" />
    <glyph glyph-name="uni01C7" unicode="&#x1c7;" horiz-adv-x="1786" 
d="M224 0h-39v1278h39v-1278zM198 35h687v-35h-687v35zM1284 -13q-67 0 -129.5 14t-112.5 37l-5 41q59 -28 121.5 -41.5t125.5 -13.5q160 0 223.5 74t63.5 224v956h39v-957q0 -163 -73 -248.5t-253 -85.5z" />
    <glyph glyph-name="uni01C8" unicode="&#x1c8;" horiz-adv-x="1364" 
d="M224 0h-39v1278h39v-1278zM198 35h687v-35h-687v35zM1161 0v971h37v-971h-37zM1180 1189q-21 0 -32 13.5t-11 41.5v9q0 27 11 40.5t32 13.5t31.5 -13.5t10.5 -40.5v-9q0 -28 -10.5 -41.5t-31.5 -13.5zM970 -354q-41 0 -78.5 9t-63.5 22l-6 40q35 -18 73 -27t79 -9
q104 0 145.5 57.5t41.5 170.5v407h37v-408q0 -85 -22.5 -143.5t-72.5 -88.5t-133 -30z" />
    <glyph glyph-name="uni01C9" unicode="&#x1c9;" horiz-adv-x="781" 
d="M168 0v1329h37v-1329h-37zM578 0v971h37v-971h-37zM597 1189q-21 0 -32 13.5t-11 41.5v9q0 27 11 40.5t32 13.5t31.5 -13.5t10.5 -40.5v-9q0 -28 -10.5 -41.5t-31.5 -13.5zM387 -354q-41 0 -78.5 9t-63.5 22l-6 40q35 -18 73 -27t79 -9q104 0 145.5 57.5t41.5 170.5v407
h37v-408q0 -85 -22.5 -143.5t-72.5 -88.5t-133 -30z" />
    <glyph glyph-name="uni01CA" unicode="&#x1ca;" horiz-adv-x="2019" 
d="M260 1278l693 -1245h14l-2 578v667h39v-1278h-75l-693 1246h-14l2 -620v-626h-39v1278h75zM1517 -13q-67 0 -129.5 14t-112.5 37l-5 41q59 -28 121.5 -41.5t125.5 -13.5q160 0 223.5 74t63.5 224v956h39v-957q0 -163 -73 -248.5t-253 -85.5z" />
    <glyph glyph-name="uni01CB" unicode="&#x1cb;" horiz-adv-x="1597" 
d="M260 1278l693 -1245h14l-2 578v667h39v-1278h-75l-693 1246h-14l2 -620v-626h-39v1278h75zM1394 0v971h37v-971h-37zM1413 1189q-21 0 -32 13.5t-11 41.5v9q0 27 11 40.5t32 13.5t31.5 -13.5t10.5 -40.5v-9q0 -28 -10.5 -41.5t-31.5 -13.5zM1203 -354q-41 0 -78.5 9
t-63.5 22l-6 40q35 -18 73 -27t79 -9q104 0 145.5 57.5t41.5 170.5v407h37v-408q0 -85 -22.5 -143.5t-72.5 -88.5t-133 -30z" />
    <glyph glyph-name="uni01CC" unicode="&#x1cc;" horiz-adv-x="1424" 
d="M832 0v620q0 106 -28.5 181t-92.5 115.5t-171 40.5q-99 0 -172.5 -39.5t-117.5 -109t-58 -158.5l-18 38h11q9 82 52.5 150.5t120.5 110t184 41.5q121 0 192.5 -44.5t103 -127t31.5 -196.5v-622h-37zM162 0v971h37l-4 -254h4v-717h-37zM1221 0v971h37v-971h-37zM1240 1189
q-21 0 -32 13.5t-11 41.5v9q0 27 11 40.5t32 13.5t31.5 -13.5t10.5 -40.5v-9q0 -28 -10.5 -41.5t-31.5 -13.5zM1030 -354q-41 0 -78.5 9t-63.5 22l-6 40q35 -18 73 -27t79 -9q104 0 145.5 57.5t41.5 170.5v407h37v-408q0 -85 -22.5 -143.5t-72.5 -88.5t-133 -30z" />
    <glyph glyph-name="Gcaron" unicode="&#x1e6;" horiz-adv-x="1123" 
d="M557 -18q-140 0 -236 55t-145 161t-49 258v350q0 235 111 362.5t326 127.5q90 0 161 -18.5t123.5 -47t86.5 -57.5l6 -42q-64 52 -157 90.5t-221 38.5q-195 0 -296 -118t-101 -336v-349q0 -211 100 -325t294 -114q105 0 179.5 37t120.5 98.5t64 135.5v377l16 -20h-363v34
h386v-433l-31 2q-16 -66 -61 -127.5t-122.5 -100.5t-191.5 -39zM928 265h35v-265h-39zM530 1418l-240 228v1h42l219 -198h6l219 198h42v-1l-240 -228h-48z" />
    <glyph glyph-name="gcaron" unicode="&#x1e7;" horiz-adv-x="987" 
d="M496 276q-176 0 -270.5 83t-94.5 245v54q0 95 36 168t114.5 116t205.5 45l459 9v-35l-374 4l-1 5q109 -11 171.5 -53.5t89 -108.5t26.5 -148v-59q0 -162 -92 -243.5t-270 -81.5zM491 -336h17q108 0 191 17.5t130.5 58t47.5 109.5v4q0 76 -55.5 120.5t-185.5 54.5l-255 20
l33 1q-84 -10 -148.5 -32t-101 -62t-36.5 -103v-3q0 -71 46.5 -111.5t128.5 -57t188 -16.5zM491 -370q-118 0 -208 20t-141 67.5t-51 129.5v4q0 71 39 115t103 66.5t139 28.5l-2 -6q-116 9 -167.5 42t-51.5 90v1q0 36 18 61.5t58.5 39.5t105.5 14v13l111 -34h-77
q-102 -1 -141.5 -24t-39.5 -68v-1q0 -47 50 -73t174 -37l231 -20q146 -13 209.5 -65.5t63.5 -138.5v-4q0 -81 -51.5 -129.5t-143 -70t-211.5 -21.5h-17zM496 309q107 0 179 33t109 98.5t37 160.5v59q0 93 -36 159t-106.5 100.5t-174.5 34.5h-10q-116 0 -188 -38t-105 -105
t-33 -153v-54q0 -97 36.5 -162.5t109.5 -99t182 -33.5zM472 1111l-203 248v1h38l187 -217h6l187 217h38v-1l-203 -248h-50z" />
    <glyph glyph-name="uni01EA" unicode="&#x1ea;" horiz-adv-x="1171" 
d="M677 -365q-73 0 -113.5 37t-40.5 103v1q0 71 41.5 126t101.5 98v0l41 7v-7q-66 -48 -107 -102t-41 -118v-1q0 -57 34 -83.5t89 -26.5q28 0 54 5.5t54 19.5l-7 -35q-17 -10 -47 -17t-59 -7zM566 -18q-213 0 -326 125.5t-113 357.5v348q0 232 113 357.5t326 125.5
t326.5 -125.5t113.5 -357.5v-348q0 -232 -113.5 -357.5t-326.5 -125.5zM566 18q197 0 299 116.5t102 330.5v349q0 214 -102 330t-299 116q-196 0 -298 -116t-102 -330v-349q0 -214 102 -330.5t298 -116.5z" />
    <glyph glyph-name="uni01EB" unicode="&#x1eb;" horiz-adv-x="1007" 
d="M618 -365q-73 0 -113 37t-40 103v1q0 71 41 126t102 98v0l40 7v-7q-65 -48 -106 -102t-41 -118v-1q0 -57 33.5 -83.5t89.5 -26.5q28 0 53.5 5.5t53.5 19.5l-7 -35q-17 -10 -47 -17t-59 -7zM499 -23q-187 0 -284 108t-97 310v183q0 202 97.5 309t283.5 107t283.5 -107
t97.5 -309v-183q0 -202 -97.5 -310t-283.5 -108zM499 10q167 0 255.5 99t88.5 286v183q0 186 -88 284.5t-256 98.5t-256 -98.5t-88 -284.5v-183q0 -187 88 -286t256 -99z" />
    <glyph glyph-name="uni01F1" unicode="&#x1f1;" horiz-adv-x="2089" 
d="M205 0v35h337q210 0 319 116t109 333v310q0 218 -109 333.5t-319 115.5h-339v35h340q226 0 346 -125t120 -358v-312q0 -232 -120 -357.5t-346 -125.5h-338zM185 0v1278h39v-1278h-39zM1980 35v-35h-787v31l736 1213h-733v34h779v-30l-737 -1213h742z" />
    <glyph glyph-name="uni01F2" unicode="&#x1f2;" horiz-adv-x="2001" 
d="M205 0v35h337q210 0 319 116t109 333v310q0 218 -109 333.5t-319 115.5h-339v35h340q226 0 346 -125t120 -358v-312q0 -232 -120 -357.5t-346 -125.5h-338zM185 0v1278h39v-1278h-39zM1903 33v-33h-675v31l627 908h-625v32h670v-30l-627 -908h630z" />
    <glyph glyph-name="uni01F3" unicode="&#x1f3;" horiz-adv-x="1899" 
d="M486 -19q-178 0 -273 106.5t-95 306.5v185q0 200 95.5 305.5t275.5 105.5q100 0 180 -41t126.5 -115t47.5 -174h12l-22 -33q-6 110 -54.5 183t-124.5 110t-167 37q-160 0 -246 -96.5t-86 -281.5v-185q0 -185 86 -282.5t249 -97.5q93 0 166 39t120 109t61 163l18 -37h-11
q-9 -85 -55 -154.5t-123 -111t-180 -41.5zM830 0l5 261l-2 15v417l1 19l-4 277v340h37v-1329h-37zM1801 33v-33h-675v31l627 908h-625v32h670v-30l-627 -908h630z" />
    <glyph glyph-name="Aringacute" unicode="&#x1fa;" horiz-adv-x="1097" 
d="M704 1978h43v-1l-176 -202h-36v1zM76 0l430 1278h83l432 -1278h-41l-419 1246h-27l-417 -1246h-41zM254 452v35h588v-35h-588zM396 1531v2q0 68 41 107t111 39t110.5 -39t40.5 -107v-2q0 -67 -40.5 -106t-110.5 -39t-111 39t-41 106zM429 1531q0 -54 31 -84t88 -30t88 30
t31 84v2q0 55 -31 85.5t-88 30.5t-88 -30.5t-31 -85.5v-2z" />
    <glyph glyph-name="aringacute" unicode="&#x1fb;" horiz-adv-x="938" 
d="M614 1727h44v-1l-176 -225h-36v1zM754 0l4 256l-3 7v321v85q0 140 -70.5 213.5t-217.5 73.5q-109 0 -195 -35.5t-145 -80.5l5 42q31 24 78.5 49t112 42t144.5 17q83 0 144 -21.5t101.5 -62.5t60 -100.5t19.5 -135.5v-670h-38zM400 -19q-145 0 -223.5 67.5t-78.5 197.5v23
q0 116 72 179.5t241 88.5l362 54l1 -34l-356 -52q-150 -22 -216.5 -76t-66.5 -158v-23q0 -115 69.5 -174.5t200.5 -59.5q104 0 178.5 40.5t119.5 110t58 156.5l19 -37h-12q-8 -79 -52 -148.5t-123 -112t-193 -42.5zM306 1253v2q0 68 41 107t111 39t110.5 -39t40.5 -107v-2
q0 -67 -40.5 -106t-110.5 -39t-111 39t-41 106zM339 1253q0 -54 31 -84t88 -30t88 30t31 84v2q0 55 -31 85.5t-88 30.5t-88 -30.5t-31 -85.5v-2z" />
    <glyph glyph-name="AEacute" unicode="&#x1fc;" horiz-adv-x="1670" 
d="M74 0l677 1278h101v-32h-75l-660 -1246h-43zM345 452v35h509v-35h-509zM854 0v35h700v-35h-700zM841 0v1278h39v-1278h-39zM861 638v35h674v-35h-674zM852 1243v35h697v-35h-697zM1074 1647h52v-2l-267 -227h-45v1z" />
    <glyph glyph-name="aeacute" unicode="&#x1fd;" horiz-adv-x="1587" 
d="M1140 -19q-161 0 -256.5 77.5t-119.5 210.5l-3 9q-4 32 -5 62t-1 57v236q0 157 -71 240t-219 83q-109 0 -194 -35.5t-144 -80.5l5 42q31 24 78.5 49t111 42t143.5 17q149 0 226.5 -77.5t89.5 -216.5h-10q21 144 112.5 221t238.5 77q117 0 197.5 -47t122.5 -136.5
t42 -217.5v-34q0 -22 -0.5 -44t-2.5 -49h-34v67v59q0 119 -37.5 201t-109.5 125t-178 43q-161 0 -245.5 -96t-84.5 -281v-104v-8v-110q0 -82 23.5 -146t68.5 -108.5t110 -68t147 -23.5q95 0 175 29.5t150 84.5l-5 -44q-59 -48 -141 -76.5t-180 -28.5zM402 -19
q-146 0 -225 67.5t-79 197.5v23q0 116 72 179.5t241 88.5l362 54l1 -34l-356 -52q-150 -22 -216.5 -76t-66.5 -158v-23q0 -115 70 -174.5t202 -59.5q104 0 178.5 40.5t119.5 110t58 156.5l23 -37h-11q-12 -83 -57 -152t-123.5 -110t-192.5 -41zM772 466v33h695v-33h-695z
M989 1360h48v-2l-221 -247h-39v1z" />
    <glyph glyph-name="Oslashacute" unicode="&#x1fe;" horiz-adv-x="1133" 
d="M566 -18q-142 0 -240 56.5t-148.5 164.5t-50.5 262v348q0 232 113 357.5t326 125.5q142 0 240 -56.5t149 -164t51 -262.5v-348q0 -232 -113.5 -357.5t-326.5 -125.5zM157 -65l97 176l7 13l582 1056l10 18l79 144h44l-96 -173l-9 -16l-582 -1056l-8 -15l-81 -147h-43z
M566 18q197 0 299 116.5t102 330.5v349q0 214 -102 330t-299 116q-196 0 -298 -116t-102 -330v-349q0 -214 102 -330.5t298 -116.5zM809 1647h52v-2l-267 -227h-45v1z" />
    <glyph glyph-name="oslashacute" unicode="&#x1ff;" horiz-adv-x="998" 
d="M499 -23q-124 0 -209 48.5t-128.5 142t-43.5 227.5v183q0 202 97.5 309t283.5 107q124 0 209 -48t128.5 -140.5t43.5 -227.5v-183q0 -202 -97.5 -310t-283.5 -108zM154 -65l84 142l9 15l480 814l7 11l70 119h40l-83 -140l-8 -14l-480 -814l-9 -16l-69 -117h-41zM499 10
q167 0 255.5 99t88.5 286v183q0 186 -88 284.5t-256 98.5t-256 -98.5t-88 -284.5v-183q0 -187 88 -286t256 -99zM694 1360h48v-2l-221 -247h-39v1z" />
    <glyph glyph-name="uni0200" unicode="&#x200;" horiz-adv-x="1097" 
d="M76 0l430 1278h83l432 -1278h-41l-419 1246h-27l-417 -1246h-41zM254 452v35h588v-35h-588zM253 1647l189 -228v-1h-38l-197 229v0h46zM507 1647l189 -228v-1h-38l-197 229v0h46z" />
    <glyph glyph-name="uni0201" unicode="&#x201;" horiz-adv-x="938" 
d="M754 0l4 256l-3 7v321v85q0 140 -70.5 213.5t-217.5 73.5q-109 0 -195 -35.5t-145 -80.5l5 42q31 24 78.5 49t112 42t144.5 17q83 0 144 -21.5t101.5 -62.5t60 -100.5t19.5 -135.5v-670h-38zM400 -19q-145 0 -223.5 67.5t-78.5 197.5v23q0 116 72 179.5t241 88.5l362 54
l1 -34l-356 -52q-150 -22 -216.5 -76t-66.5 -158v-23q0 -115 69.5 -174.5t200.5 -59.5q104 0 178.5 40.5t119.5 110t58 156.5l19 -37h-12q-8 -79 -52 -148.5t-123 -112t-193 -42.5zM186 1360l164 -249v0h-38l-172 249v0h46zM439 1360l164 -249v0h-38l-172 249v0h46z" />
    <glyph glyph-name="uni0202" unicode="&#x202;" horiz-adv-x="1097" 
d="M76 0l430 1278h83l432 -1278h-41l-419 1246h-27l-417 -1246h-41zM254 452v35h588v-35h-588zM548 1655q110 0 163 -59.5t55 -177.5h-33q-1 106 -47.5 156t-137.5 50q-90 0 -136 -50t-48 -156h-33q2 118 55 177.5t162 59.5z" />
    <glyph glyph-name="uni0203" unicode="&#x203;" horiz-adv-x="938" 
d="M754 0l4 256l-3 7v321v85q0 140 -70.5 213.5t-217.5 73.5q-109 0 -195 -35.5t-145 -80.5l5 42q31 24 78.5 49t112 42t144.5 17q83 0 144 -21.5t101.5 -62.5t60 -100.5t19.5 -135.5v-670h-38zM400 -19q-145 0 -223.5 67.5t-78.5 197.5v23q0 116 72 179.5t241 88.5l362 54
l1 -34l-356 -52q-150 -22 -216.5 -76t-66.5 -158v-23q0 -115 69.5 -174.5t200.5 -59.5q104 0 178.5 40.5t119.5 110t58 156.5l19 -37h-12q-8 -79 -52 -148.5t-123 -112t-193 -42.5zM457 1366q105 0 157 -62.5t55 -192.5h-33q-2 117 -47.5 170.5t-131.5 53.5
q-85 0 -130.5 -53.5t-47.5 -170.5h-33q3 130 55 192.5t156 62.5z" />
    <glyph glyph-name="uni0204" unicode="&#x204;" horiz-adv-x="1014" 
d="M185 0v1278h39v-1278h-39zM198 0v35h700v-35h-700zM205 638v35h674v-35h-674zM196 1243v35h697v-35h-697zM252 1647l189 -228v-1h-38l-197 229v0h46zM506 1647l189 -228v-1h-38l-197 229v0h46z" />
    <glyph glyph-name="uni0205" unicode="&#x205;" horiz-adv-x="950" 
d="M503 -19q-183 0 -284 99.5t-101 280.5v224q0 200 93.5 304.5t271.5 104.5q117 0 198.5 -47t123.5 -136.5t42 -217.5v-34q0 -22 -0.5 -44t-2.5 -49h-34v67v59q0 119 -37.5 201t-110.5 125t-179 43q-160 0 -244 -96t-84 -280v-98v-8v-117q0 -82 23.5 -146t68.5 -108.5
t110 -68t147 -23.5q95 0 175 29.5t150 84.5l-5 -44q-59 -48 -141 -76.5t-180 -28.5zM135 466v33h696v-33h-696zM211 1360l164 -249v0h-38l-172 249v0h46zM464 1360l164 -249v0h-38l-172 249v0h46z" />
    <glyph glyph-name="uni0206" unicode="&#x206;" horiz-adv-x="1014" 
d="M185 0v1278h39v-1278h-39zM198 0v35h700v-35h-700zM205 638v35h674v-35h-674zM196 1243v35h697v-35h-697zM547 1655q110 0 163 -59.5t55 -177.5h-33q-1 106 -47.5 156t-137.5 50q-90 0 -136 -50t-48 -156h-33q2 118 55 177.5t162 59.5z" />
    <glyph glyph-name="uni0207" unicode="&#x207;" horiz-adv-x="950" 
d="M503 -19q-183 0 -284 99.5t-101 280.5v224q0 200 93.5 304.5t271.5 104.5q117 0 198.5 -47t123.5 -136.5t42 -217.5v-34q0 -22 -0.5 -44t-2.5 -49h-34v67v59q0 119 -37.5 201t-110.5 125t-179 43q-160 0 -244 -96t-84 -280v-98v-8v-117q0 -82 23.5 -146t68.5 -108.5
t110 -68t147 -23.5q95 0 175 29.5t150 84.5l-5 -44q-59 -48 -141 -76.5t-180 -28.5zM135 466v33h696v-33h-696zM482 1366q105 0 157 -62.5t55 -192.5h-33q-2 117 -47.5 170.5t-131.5 53.5q-85 0 -130.5 -53.5t-47.5 -170.5h-33q3 130 55 192.5t156 62.5z" />
    <glyph glyph-name="uni0208" unicode="&#x208;" horiz-adv-x="415" 
d="M227 0h-39v1278h39v-1278zM-88 1647l189 -228v-1h-38l-197 229v0h46zM166 1647l189 -228v-1h-38l-197 229v0h46z" />
    <glyph glyph-name="uni0209" unicode="&#x209;" horiz-adv-x="372" 
d="M167 0v971h38v-971h-38zM-23 1360l120 -249v0h-35l-128 249v0h43zM193 1360l119 -249v0h-35l-128 249v0h44z" />
    <glyph glyph-name="uni020A" unicode="&#x20a;" horiz-adv-x="415" 
d="M227 0h-39v1278h39v-1278zM207 1655q110 0 163 -59.5t55 -177.5h-33q-1 106 -47.5 156t-137.5 50q-90 0 -136 -50t-48 -156h-33q2 118 55 177.5t162 59.5z" />
    <glyph glyph-name="uni020B" unicode="&#x20b;" horiz-adv-x="372" 
d="M167 0v971h38v-971h-38zM186 1366q99 0 138.5 -64.5t39.5 -190.5h-33q0 113 -32.5 168.5t-112.5 55.5t-112 -55.5t-32 -168.5h-33q0 126 39 190.5t138 64.5z" />
    <glyph glyph-name="uni020C" unicode="&#x20c;" horiz-adv-x="1133" 
d="M566 -18q-213 0 -326 125.5t-113 357.5v348q0 232 113 357.5t326 125.5t326.5 -125.5t113.5 -357.5v-348q0 -232 -113.5 -357.5t-326.5 -125.5zM566 18q197 0 299 116.5t102 330.5v349q0 214 -102 330t-299 116q-196 0 -298 -116t-102 -330v-349q0 -214 102 -330.5
t298 -116.5zM271 1647l189 -228v-1h-38l-197 229v0h46zM525 1647l189 -228v-1h-38l-197 229v0h46z" />
    <glyph glyph-name="uni020D" unicode="&#x20d;" horiz-adv-x="998" 
d="M499 -23q-187 0 -284 108t-97 310v183q0 202 97.5 309t283.5 107t283.5 -107t97.5 -309v-183q0 -202 -97.5 -310t-283.5 -108zM499 10q167 0 255.5 99t88.5 286v183q0 186 -88 284.5t-256 98.5t-256 -98.5t-88 -284.5v-183q0 -187 88 -286t256 -99zM228 1360l164 -249v0
h-38l-172 249v0h46zM481 1360l164 -249v0h-38l-172 249v0h46z" />
    <glyph glyph-name="uni020E" unicode="&#x20e;" horiz-adv-x="1133" 
d="M566 -18q-213 0 -326 125.5t-113 357.5v348q0 232 113 357.5t326 125.5t326.5 -125.5t113.5 -357.5v-348q0 -232 -113.5 -357.5t-326.5 -125.5zM566 18q197 0 299 116.5t102 330.5v349q0 214 -102 330t-299 116q-196 0 -298 -116t-102 -330v-349q0 -214 102 -330.5
t298 -116.5zM566 1655q110 0 163 -59.5t55 -177.5h-33q-1 106 -47.5 156t-137.5 50q-90 0 -136 -50t-48 -156h-33q2 118 55 177.5t162 59.5z" />
    <glyph glyph-name="uni020F" unicode="&#x20f;" horiz-adv-x="998" 
d="M499 -23q-187 0 -284 108t-97 310v183q0 202 97.5 309t283.5 107t283.5 -107t97.5 -309v-183q0 -202 -97.5 -310t-283.5 -108zM499 10q167 0 255.5 99t88.5 286v183q0 186 -88 284.5t-256 98.5t-256 -98.5t-88 -284.5v-183q0 -187 88 -286t256 -99zM499 1366
q105 0 157 -62.5t55 -192.5h-33q-2 117 -47.5 170.5t-131.5 53.5q-85 0 -130.5 -53.5t-47.5 -170.5h-33q3 130 55 192.5t156 62.5z" />
    <glyph glyph-name="uni0210" unicode="&#x210;" horiz-adv-x="1107" 
d="M956 0l-43 274q-13 85 -41 154t-88.5 110.5t-173.5 41.5h-401v34l436 1q160 0 226.5 83.5t66.5 216.5v39q0 134 -69 211.5t-231 77.5h-435v35h437q178 0 257.5 -88.5t79.5 -234.5v-41q0 -137 -71 -227t-234 -95l-2 2l-21 10q109 -7 169 -49.5t88.5 -113t43.5 -162.5
l46 -279h-40zM185 0v1278h39v-670v-17v-591h-39zM258 1647l189 -228v-1h-38l-197 229v0h46zM512 1647l189 -228v-1h-38l-197 229v0h46z" />
    <glyph glyph-name="uni0211" unicode="&#x211;" horiz-adv-x="719" 
d="M193 617l-19 24l11 9q33 154 129 244.5t236 90.5q42 0 74.5 -7t54.5 -17l3 -36q-26 11 -60 18t-75 7q-123 0 -217.5 -83.5t-136.5 -249.5zM162 0v971h37l-5 -301l5 -5v-665h-37zM127 1360l164 -249v0h-38l-172 249v0h46zM380 1360l164 -249v0h-38l-172 249v0h46z" />
    <glyph glyph-name="uni0212" unicode="&#x212;" horiz-adv-x="1107" 
d="M956 0l-43 274q-13 85 -41 154t-88.5 110.5t-173.5 41.5h-401v34l436 1q160 0 226.5 83.5t66.5 216.5v39q0 134 -69 211.5t-231 77.5h-435v35h437q178 0 257.5 -88.5t79.5 -234.5v-41q0 -137 -71 -227t-234 -95l-2 2l-21 10q109 -7 169 -49.5t88.5 -113t43.5 -162.5
l46 -279h-40zM185 0v1278h39v-670v-17v-591h-39zM553 1655q110 0 163 -59.5t55 -177.5h-33q-1 106 -47.5 156t-137.5 50q-90 0 -136 -50t-48 -156h-33q2 118 55 177.5t162 59.5z" />
    <glyph glyph-name="uni0213" unicode="&#x213;" horiz-adv-x="719" 
d="M193 617l-19 24l11 9q33 154 129 244.5t236 90.5q42 0 74.5 -7t54.5 -17l3 -36q-26 11 -60 18t-75 7q-123 0 -217.5 -83.5t-136.5 -249.5zM162 0v971h37l-5 -301l5 -5v-665h-37zM398 1366q105 0 157 -62.5t55 -192.5h-33q-2 117 -47.5 170.5t-131.5 53.5
q-85 0 -130.5 -53.5t-47.5 -170.5h-33q3 130 55 192.5t156 62.5z" />
    <glyph glyph-name="uni0214" unicode="&#x214;" horiz-adv-x="1170" 
d="M585 -18q-207 0 -309 118t-102 335v843h39v-843q0 -199 91 -308t281 -109q191 0 281.5 109t90.5 308v843h39v-843q0 -217 -102.5 -335t-308.5 -118zM289 1647l189 -228v-1h-38l-197 229v0h46zM543 1647l189 -228v-1h-38l-197 229v0h46z" />
    <glyph glyph-name="uni0215" unicode="&#x215;" horiz-adv-x="1016" 
d="M184 971v-620q0 -105 28.5 -180.5t92.5 -116t171 -40.5q100 0 173 39.5t117.5 109t57.5 158.5l18 -38h-11q-9 -81 -52.5 -150t-120 -110.5t-184.5 -41.5q-120 0 -192 44.5t-103.5 127t-31.5 196.5v622h37zM854 971v-971h-37l4 254h-4v717h37zM232 1360l164 -249v0h-38
l-172 249v0h46zM485 1360l164 -249v0h-38l-172 249v0h46z" />
    <glyph glyph-name="uni0216" unicode="&#x216;" horiz-adv-x="1170" 
d="M585 -18q-207 0 -309 118t-102 335v843h39v-843q0 -199 91 -308t281 -109q191 0 281.5 109t90.5 308v843h39v-843q0 -217 -102.5 -335t-308.5 -118zM584 1655q110 0 163 -59.5t55 -177.5h-33q-1 106 -47.5 156t-137.5 50q-90 0 -136 -50t-48 -156h-33q2 118 55 177.5
t162 59.5z" />
    <glyph glyph-name="uni0217" unicode="&#x217;" horiz-adv-x="1016" 
d="M184 971v-620q0 -105 28.5 -180.5t92.5 -116t171 -40.5q100 0 173 39.5t117.5 109t57.5 158.5l18 -38h-11q-9 -81 -52.5 -150t-120 -110.5t-184.5 -41.5q-120 0 -192 44.5t-103.5 127t-31.5 196.5v622h37zM854 971v-971h-37l4 254h-4v717h37zM503 1366q105 0 157 -62.5
t55 -192.5h-33q-2 117 -47.5 170.5t-131.5 53.5q-85 0 -130.5 -53.5t-47.5 -170.5h-33q3 130 55 192.5t156 62.5z" />
    <glyph glyph-name="uni0218" unicode="&#x218;" horiz-adv-x="1017" 
d="M505 -18q-93 0 -169 18t-132.5 44.5t-92.5 52.5l-6 45q74 -52 174.5 -88t227.5 -36q173 0 263 74.5t90 216.5v24q0 95 -33 155t-111.5 97t-215.5 62q-151 30 -235 73t-117.5 107t-33.5 156v6q0 145 90.5 225.5t281.5 80.5q134 0 228 -33.5t146 -71.5l5 -42
q-65 45 -158 78t-223 33q-115 0 -188 -32t-108 -92.5t-35 -145.5v-6q0 -84 31 -141t109.5 -95t222.5 -67q148 -29 231 -70.5t117.5 -107.5t34.5 -168v-25q0 -159 -100 -243t-294 -84zM523 -140q1 -10 2 -26t1 -36q0 -71 -18 -130.5t-65 -117.5l-20 22q36 50 52 105t16 120
q0 17 -1 32.5t-3 30.5h36z" />
    <glyph glyph-name="uni0219" unicode="&#x219;" horiz-adv-x="846" 
d="M425 -19q-117 0 -200.5 30t-135.5 64l-6 43q70 -44 152.5 -73t191.5 -29q137 0 215 53.5t78 157.5v20q0 67 -25 111t-90 74.5t-186 53.5q-123 23 -194 54t-100.5 81t-29.5 128v10q0 110 78.5 170t235.5 60q112 0 191.5 -29t126.5 -65l6 -41q-61 44 -139.5 72.5
t-185.5 28.5q-94 0 -155 -23.5t-91 -67.5t-30 -105v-10q0 -70 26.5 -112.5t91.5 -68.5t178 -48q128 -24 199.5 -57.5t100.5 -85t29 -128.5v-22q0 -119 -87.5 -182.5t-244.5 -63.5zM444 -140q1 -10 2 -26t1 -36q0 -71 -18 -130.5t-65 -117.5l-20 22q36 50 52 105t16 120
q0 17 -1 32.5t-3 30.5h36z" />
    <glyph glyph-name="uni021A" unicode="&#x21a;" horiz-adv-x="1009" 
d="M485 0v1278h39v-1278h-39zM76 1244v34h857v-34h-857zM528 -140q1 -10 2 -26t1 -36q0 -71 -18 -130.5t-65 -117.5l-20 22q36 50 52 105t16 120q0 17 -1 32.5t-3 30.5h36z" />
    <glyph glyph-name="uni021B" unicode="&#x21b;" horiz-adv-x="791" 
d="M482 -18q-97 0 -158 28.5t-90 87.5t-29 148v679h37v-676q0 -118 55 -175t186 -57q62 0 122.5 15.5t116.5 47.5l-5 -40q-46 -26 -108.5 -42t-126.5 -16zM22 914v32h687l-5 -32h-682zM205 936v292l39 15l-3 -307h-36zM478 -140q1 -10 2 -26t1 -36q0 -71 -18 -130.5
t-65 -117.5l-20 22q36 50 52 105t16 120q0 17 -1 32.5t-3 30.5h36z" />
    <glyph glyph-name="uni022A" unicode="&#x22a;" horiz-adv-x="1133" 
d="M326 1804v32h480v-32h-480zM566 -18q-213 0 -326 125.5t-113 357.5v348q0 232 113 357.5t326 125.5t326.5 -125.5t113.5 -357.5v-348q0 -232 -113.5 -357.5t-326.5 -125.5zM566 18q197 0 299 116.5t102 330.5v349q0 214 -102 330t-299 116q-196 0 -298 -116t-102 -330
v-349q0 -214 102 -330.5t298 -116.5zM434 1477q-22 0 -32.5 13.5t-10.5 41.5v6q0 26 10.5 39.5t32.5 13.5t32.5 -13.5t10.5 -39.5v-6q0 -28 -10.5 -41.5t-32.5 -13.5zM701 1477q-22 0 -32.5 13.5t-10.5 41.5v6q0 26 10.5 39.5t32.5 13.5q21 0 31.5 -13.5t10.5 -39.5v-6
q0 -28 -10.5 -41.5t-31.5 -13.5z" />
    <glyph glyph-name="uni022B" unicode="&#x22b;" horiz-adv-x="998" 
d="M259 1541v32h480v-32h-480zM499 -23q-187 0 -284 108t-97 310v183q0 202 97.5 309t283.5 107t283.5 -107t97.5 -309v-183q0 -202 -97.5 -310t-283.5 -108zM499 10q167 0 255.5 99t88.5 286v183q0 186 -88 284.5t-256 98.5t-256 -98.5t-88 -284.5v-183q0 -187 88 -286
t256 -99zM366 1182q-22 0 -32.5 13.5t-10.5 41.5v6q0 26 10.5 39.5t32.5 13.5t32.5 -13.5t10.5 -39.5v-6q0 -28 -10.5 -41.5t-32.5 -13.5zM633 1182q-22 0 -32.5 13.5t-10.5 41.5v6q0 26 10.5 39.5t32.5 13.5q21 0 31.5 -13.5t10.5 -39.5v-6q0 -28 -10.5 -41.5t-31.5 -13.5z
" />
    <glyph glyph-name="uni022C" unicode="&#x22c;" horiz-adv-x="1133" 
d="M326 1816v32h480v-32h-480zM566 -18q-213 0 -326 125.5t-113 357.5v348q0 232 113 357.5t326 125.5t326.5 -125.5t113.5 -357.5v-348q0 -232 -113.5 -357.5t-326.5 -125.5zM566 18q197 0 299 116.5t102 330.5v349q0 214 -102 330t-299 116q-196 0 -298 -116t-102 -330
v-349q0 -214 102 -330.5t298 -116.5zM708 1448q-41 0 -77.5 17t-70.5 39t-67.5 39t-68.5 17q-38 0 -54 -23t-16 -67v-31h-32v32q0 53 22 87.5t81 34.5q41 0 77 -17t70 -39t68 -39t69 -17q38 0 54 23.5t16 66.5v30h32v-32q0 -52 -22 -86.5t-81 -34.5z" />
    <glyph glyph-name="uni022D" unicode="&#x22d;" horiz-adv-x="998" 
d="M259 1531v32h480v-32h-480zM499 -23q-187 0 -284 108t-97 310v183q0 202 97.5 309t283.5 107t283.5 -107t97.5 -309v-183q0 -202 -97.5 -310t-283.5 -108zM499 10q167 0 255.5 99t88.5 286v183q0 186 -88 284.5t-256 98.5t-256 -98.5t-88 -284.5v-183q0 -187 88 -286
t256 -99zM631 1151q-37 0 -70 17.5t-64 40t-61 40t-60 17.5q-36 0 -52.5 -23t-16.5 -73v-28h-31v29q0 64 24 96t76 32q36 0 69 -17.5t64 -40t61.5 -40t60.5 -17.5q36 0 52 23t16 73v27h32v-29q0 -64 -24 -95.5t-76 -31.5z" />
    <glyph glyph-name="uni0230" unicode="&#x230;" horiz-adv-x="1133" 
d="M326 1804v32h480v-32h-480zM566 -18q-213 0 -326 125.5t-113 357.5v348q0 232 113 357.5t326 125.5t326.5 -125.5t113.5 -357.5v-348q0 -232 -113.5 -357.5t-326.5 -125.5zM566 18q197 0 299 116.5t102 330.5v349q0 214 -102 330t-299 116q-196 0 -298 -116t-102 -330
v-349q0 -214 102 -330.5t298 -116.5zM566 1473q-21 0 -32 13.5t-11 41.5v4q0 26 11 39.5t32 13.5q22 0 33 -13.5t11 -39.5v-4q0 -28 -11 -41.5t-33 -13.5z" />
    <glyph glyph-name="uni0231" unicode="&#x231;" horiz-adv-x="998" 
d="M258 1541v32h480v-32h-480zM499 -23q-187 0 -284 108t-97 310v183q0 202 97.5 309t283.5 107t283.5 -107t97.5 -309v-183q0 -202 -97.5 -310t-283.5 -108zM499 10q167 0 255.5 99t88.5 286v183q0 186 -88 284.5t-256 98.5t-256 -98.5t-88 -284.5v-183q0 -187 88 -286
t256 -99zM498 1182q-21 0 -32 13.5t-11 41.5v6q0 26 11 39.5t32 13.5q22 0 33 -13.5t11 -39.5v-6q0 -28 -11 -41.5t-33 -13.5z" />
    <glyph glyph-name="uni0232" unicode="&#x232;" horiz-adv-x="1039" 
d="M502 427l-436 851h43l294 -576l111 -217h11l111 217l294 576h43l-436 -851h-35zM500 0v471h39v-471h-39zM279 1512v32h480v-32h-480z" />
    <glyph glyph-name="uni0233" unicode="&#x233;" horiz-adv-x="939" 
d="M493 71l-17 -9l353 909h41l-509 -1315h-41l153 397l10 -15h-51l-363 933h41l348 -900h35zM229 1212v32h480v-32h-480z" />
    <glyph glyph-name="uni0237" unicode="&#x237;" horiz-adv-x="410" 
d="M205 203v768h38v-768h-38zM14 -354q-41 0 -78.5 9t-63.5 22l-6 40q35 -18 73 -27t79 -9q104 0 145.5 57.5t41.5 170.5v407h37v-408q0 -85 -22.5 -143.5t-72.5 -88.5t-133 -30z" />
    <glyph glyph-name="uni0259" unicode="&#x259;" horiz-adv-x="952" 
d="M469 -23q-117 0 -198 47t-123.5 137t-42.5 217v34q0 23 0.5 44.5t2.5 48.5h34v-67v-59q0 -118 37.5 -200.5t110.5 -125.5t179 -43q161 0 244.5 96t83.5 280v98v8v117q0 85 -21 149.5t-63.5 108.5t-105 66t-145.5 22q-101 0 -182 -30t-159 -86l5 44q68 49 150.5 78
t186.5 29q184 0 277.5 -96t93.5 -284v-224q0 -199 -93 -304t-272 -105zM121 472v33h696v-33h-696z" />
    <glyph glyph-name="uni02B9" unicode="&#x2b9;" horiz-adv-x="302" 
d="M166 907h-29l-5 422h38z" />
    <glyph glyph-name="uni02BA" unicode="&#x2ba;" horiz-adv-x="578" 
d="M413 907l-5 422h38l-4 -422h-29zM137 907l-5 422h38l-4 -422h-29z" />
    <glyph glyph-name="uni02BB" unicode="&#x2bb;" horiz-adv-x="316" 
d="M127 1121q-1 11 -2 27t-1 35q0 71 18.5 130.5t64.5 117.5l20 -22q-36 -50 -52 -105t-16 -120q0 -16 1.5 -32t2.5 -31h-36z" />
    <glyph glyph-name="uni02BC" unicode="&#x2bc;" horiz-adv-x="338" 
d="M225 1278q2 -16 5 -43t3 -60q0 -94 -23.5 -173t-81.5 -151l-22 18q50 67 71.5 140.5t21.5 164.5q0 27 -2 53t-6 51h34z" />
    <glyph glyph-name="uni02BE" unicode="&#x2be;" horiz-adv-x="370" 
d="M107 1371v30q71 0 111.5 -39t40.5 -107v-2q0 -67 -40.5 -106t-111.5 -39v31q57 0 88 30t31 84v2q0 55 -31 85.5t-88 30.5z" />
    <glyph glyph-name="uni02BF" unicode="&#x2bf;" horiz-adv-x="370" 
d="M263 1371q-57 0 -88 -30.5t-31 -85.5v-2q0 -54 31 -84t88 -30v-31q-70 0 -111 39t-41 106v2q0 68 41 107t111 39v-30z" />
    <glyph glyph-name="circumflex" unicode="&#x2c6;" horiz-adv-x="668" 
d="M309 1360h50l204 -248v-1h-39l-187 217h-6l-187 -217h-39v1z" />
    <glyph glyph-name="caron" unicode="&#x2c7;" horiz-adv-x="668" 
d="M309 1111l-203 248v1h38l187 -217h6l187 217h38v-1l-203 -248h-50z" />
    <glyph glyph-name="uni02C8" unicode="&#x2c8;" horiz-adv-x="245" 
d="M106 1111v310h33v-310h-33z" />
    <glyph glyph-name="uni02C9" unicode="&#x2c9;" horiz-adv-x="730" 
d="M125 1212v32h480v-32h-480z" />
    <glyph glyph-name="uni02CA" unicode="&#x2ca;" horiz-adv-x="472" 
d="M316 1360h48v-2l-221 -247h-39v1z" />
    <glyph glyph-name="uni02CB" unicode="&#x2cb;" horiz-adv-x="472" 
d="M157 1360l212 -248v-1h-39l-221 247v2h48z" />
    <glyph glyph-name="uni02CC" unicode="&#x2cc;" horiz-adv-x="245" 
d="M106 -441v310h33v-310h-33z" />
    <glyph glyph-name="breve" unicode="&#x2d8;" horiz-adv-x="637" 
d="M318 1105q-104 0 -156 62.5t-55 192.5h33q2 -117 47.5 -170.5t130.5 -53.5q86 0 131.5 53.5t47.5 170.5h33q-3 -130 -55 -192.5t-157 -62.5z" />
    <glyph glyph-name="dotaccent" unicode="&#x2d9;" horiz-adv-x="299" 
d="M149 1182q-21 0 -32 13.5t-11 41.5v6q0 26 11 39.5t32 13.5q22 0 33 -13.5t11 -39.5v-6q0 -28 -11 -41.5t-33 -13.5z" />
    <glyph glyph-name="ring" unicode="&#x2da;" horiz-adv-x="525" 
d="M111 1253v2q0 68 41 107t111 39t110.5 -39t40.5 -107v-2q0 -67 -40.5 -106t-110.5 -39t-111 39t-41 106zM144 1253q0 -54 31 -84t88 -30t88 30t31 84v2q0 55 -31 85.5t-88 30.5t-88 -30.5t-31 -85.5v-2z" />
    <glyph glyph-name="ogonek" unicode="&#x2db;" horiz-adv-x="416" 
d="M241 -365q-69 0 -108 36.5t-39 104.5v1q0 69 41.5 126t103.5 103v0l34 1v-7q-64 -47 -103.5 -101t-39.5 -119v-2q0 -55 32 -82t84 -27q23 0 45.5 4.5t46.5 15.5l-7 -34q-15 -9 -41 -14.5t-49 -5.5z" />
    <glyph glyph-name="tilde" unicode="&#x2dc;" horiz-adv-x="678" 
d="M471 1151q-37 0 -70 17.5t-64 40t-61 40t-60 17.5q-36 0 -52.5 -23t-16.5 -73v-28h-31v29q0 64 24 96t76 32q36 0 69 -17.5t64 -40t61.5 -40t60.5 -17.5q36 0 52 23t16 73v27h32v-29q0 -64 -24 -95.5t-76 -31.5z" />
    <glyph glyph-name="hungarumlaut" unicode="&#x2dd;" horiz-adv-x="678" 
d="M522 1360h46v0l-172 -249h-38v0zM269 1360h46v0l-172 -249h-38v0z" />
    <glyph glyph-name="gravecomb" unicode="&#x300;" 
d="M157 1360l212 -248v-1h-39l-221 247v2h48z" />
    <glyph glyph-name="acutecomb" unicode="&#x301;" 
d="M316 1360h48v-2l-221 -247h-39v1z" />
    <glyph glyph-name="uni0302" unicode="&#x302;" 
d="M309 1360h50l204 -248v-1h-39l-187 217h-6l-187 -217h-39v1z" />
    <glyph glyph-name="tildecomb" unicode="&#x303;" 
d="M471 1151q-37 0 -70 17.5t-64 40t-61 40t-60 17.5q-36 0 -52.5 -23t-16.5 -73v-28h-31v29q0 64 24 96t76 32q36 0 69 -17.5t64 -40t61.5 -40t60.5 -17.5q36 0 52 23t16 73v27h32v-29q0 -64 -24 -95.5t-76 -31.5z" />
    <glyph glyph-name="uni0304" unicode="&#x304;" 
d="M125 1212v32h480v-32h-480z" />
    <glyph glyph-name="uni0306" unicode="&#x306;" 
d="M318 1105q-104 0 -156 62.5t-55 192.5h33q2 -117 47.5 -170.5t130.5 -53.5q86 0 131.5 53.5t47.5 170.5h33q-3 -130 -55 -192.5t-157 -62.5z" />
    <glyph glyph-name="uni0307" unicode="&#x307;" 
d="M149 1182q-21 0 -32 13.5t-11 41.5v6q0 26 11 39.5t32 13.5q22 0 33 -13.5t11 -39.5v-6q0 -28 -11 -41.5t-33 -13.5z" />
    <glyph glyph-name="uni0308" unicode="&#x308;" 
d="M149 1182q-22 0 -32.5 13.5t-10.5 41.5v6q0 26 10.5 39.5t32.5 13.5t32.5 -13.5t10.5 -39.5v-6q0 -28 -10.5 -41.5t-32.5 -13.5zM416 1182q-22 0 -32.5 13.5t-10.5 41.5v6q0 26 10.5 39.5t32.5 13.5q21 0 31.5 -13.5t10.5 -39.5v-6q0 -28 -10.5 -41.5t-31.5 -13.5z" />
    <glyph glyph-name="hookabovecomb" unicode="&#x309;" 
d="M226 1105q101 26 152 68t51 113q0 62 -39 95.5t-111 33.5q-38 0 -73.5 -10.5t-60.5 -25.5l-5 -34q31 17 66 27.5t69 10.5q119 0 119 -98q0 -60 -44 -92.5t-131 -57.5z" />
    <glyph glyph-name="uni030A" unicode="&#x30a;" 
d="M111 1253v2q0 68 41 107t111 39t110.5 -39t40.5 -107v-2q0 -67 -40.5 -106t-110.5 -39t-111 39t-41 106zM144 1253q0 -54 31 -84t88 -30t88 30t31 84v2q0 55 -31 85.5t-88 30.5t-88 -30.5t-31 -85.5v-2z" />
    <glyph glyph-name="uni030B" unicode="&#x30b;" 
d="M522 1360h46v0l-172 -249h-38v0zM269 1360h46v0l-172 -249h-38v0z" />
    <glyph glyph-name="uni030C" unicode="&#x30c;" 
d="M309 1111l-203 248v1h38l187 -217h6l187 217h38v-1l-203 -248h-50z" />
    <glyph glyph-name="uni030F" unicode="&#x30f;" 
d="M156 1360l164 -249v0h-38l-172 249v0h46zM409 1360l164 -249v0h-38l-172 249v0h46z" />
    <glyph glyph-name="uni0311" unicode="&#x311;" 
d="M318 1366q105 0 157 -62.5t55 -192.5h-33q-2 117 -47.5 170.5t-131.5 53.5q-85 0 -130.5 -53.5t-47.5 -170.5h-33q3 130 55 192.5t156 62.5z" />
    <glyph glyph-name="uni0312" unicode="&#x312;" 
d="M127 1121q-1 11 -2 27t-1 35q0 71 18.5 130.5t64.5 117.5l20 -22q-36 -50 -52 -105t-16 -120q0 -16 1.5 -32t2.5 -31h-36z" />
    <glyph glyph-name="uni031B" unicode="&#x31b;" 
d="M115 944l-10 25q93 16 145 50t52 105q0 32 -8.5 60t-19.5 55h36q11 -26 19.5 -52.5t8.5 -61.5q0 -76 -55 -121t-168 -60z" />
    <glyph glyph-name="dotbelowcomb" unicode="&#x323;" 
d="M149 -325q-21 0 -32 13.5t-11 41.5v6q0 26 11 39.5t32 13.5q22 0 33 -13.5t11 -39.5v-6q0 -28 -11 -41.5t-33 -13.5z" />
    <glyph glyph-name="uni0324" unicode="&#x324;" 
d="M149 -335q-22 0 -32.5 13.5t-10.5 41.5v6q0 26 10.5 39.5t32.5 13.5t32.5 -13.5t10.5 -39.5v-6q0 -28 -10.5 -41.5t-32.5 -13.5zM416 -335q-22 0 -32.5 13.5t-10.5 41.5v6q0 26 10.5 39.5t32.5 13.5q21 0 31.5 -13.5t10.5 -39.5v-6q0 -28 -10.5 -41.5t-31.5 -13.5z" />
    <glyph glyph-name="uni0326" unicode="&#x326;" 
d="M179 -140q1 -10 2 -26t1 -36q0 -71 -18 -130.5t-65 -117.5l-20 22q36 50 52 105t16 120q0 17 -1 32.5t-3 30.5h36z" />
    <glyph glyph-name="uni0327" unicode="&#x327;" 
d="M285 2l-16 -135l-22 19q6 -1 20.5 -1.5t24.5 -1.5q99 -7 144.5 -37.5t45.5 -95.5v-3q0 -61 -45.5 -92.5t-130.5 -31.5q-40 0 -77 7.5t-62 16.5l-8 37q31 -13 68 -20.5t78 -7.5q72 0 107 23t35 67v3q0 54 -39 76.5t-130 29.5q-9 1 -20 1.5t-23 1.5l17 144h33z" />
    <glyph glyph-name="uni0328" unicode="&#x328;" 
d="M241 -365q-69 0 -108 36.5t-39 104.5v1q0 69 41.5 126t103.5 103v0l34 1v-7q-64 -47 -103.5 -101t-39.5 -119v-2q0 -55 32 -82t84 -27q23 0 45.5 4.5t46.5 15.5l-7 -34q-15 -9 -41 -14.5t-49 -5.5z" />
    <glyph glyph-name="uni032E" unicode="&#x32e;" 
d="M318 -383q-104 0 -156 62.5t-55 192.5h33q2 -117 47.5 -170.5t130.5 -53.5q86 0 131.5 53.5t47.5 170.5h33q-3 -130 -55 -192.5t-157 -62.5z" />
    <glyph glyph-name="uni0331" unicode="&#x331;" 
d="M125 -273v32h480v-32h-480z" />
    <glyph glyph-name="uni0335" unicode="&#x335;" 
d="M117 645v34h595v-34h-595z" />
    <glyph glyph-name="uni0394" unicode="&#x394;" horiz-adv-x="1173" 
d="M1060 14l-488 1264h37l488 -1249zM76 29l20 6h575v-35h-595v29zM113 14l-37 15l489 1249h37zM1097 29v-29h-595v35h574z" />
    <glyph glyph-name="uni03A9" unicode="&#x3a9;" horiz-adv-x="1178" 
d="M565 1296q142 0 240 -56.5t149 -164t51 -262.5v-338q0 -185 -81 -300t-220 -149l-8 6l358 3v-35h-385v35q137 38 217 149t80 292v338q0 143 -45.5 242.5t-134.5 151.5t-221 52q-131 0 -220 -52t-134.5 -151.5t-45.5 -242.5v-338q0 -181 80 -292t216 -149v-35h-385v35
l358 -3l-8 -6q-139 34 -219.5 149t-80.5 300v338q0 155 50.5 262.5t148.5 164t240 56.5z" />
    <glyph glyph-name="uni03BC" unicode="&#x3bc;" horiz-adv-x="1032" 
d="M869 971v-971h-37l4 254h-4v717h37zM199 341q0 -75 19.5 -135.5t58.5 -103.5t97 -65.5t135 -22.5q92 0 161.5 39.5t113 109t55.5 158.5l18 -38h-11q-8 -81 -51 -150t-116 -110.5t-172 -41.5q-103 0 -168 34t-100 87.5t-49 111.5l3 -1l6 -273v-284h-37v1315h37v-630z" />
    <glyph glyph-name="pi" unicode="&#x3c0;" horiz-adv-x="1043" 
d="M76 914v32h891l-5 -32h-886zM279 0v925h37v-925h-37zM714 0v925h37v-925h-37z" />
    <glyph glyph-name="uni1E08" unicode="&#x1e08;" horiz-adv-x="995" 
d="M551 -18q-211 0 -317.5 123.5t-106.5 347.5v373q0 225 105 347.5t309 122.5q79 0 143.5 -18t112.5 -45.5t79 -54.5l6 -44q-60 50 -144 88t-197 38q-185 0 -280 -112.5t-95 -321.5v-373q0 -208 96.5 -321t288.5 -113q113 0 196.5 37t144.5 89l-5 -44q-31 -28 -79.5 -55.5
t-112.5 -45.5t-144 -18zM537 2l-16 -135l-22 19q6 -1 20.5 -1.5t24.5 -1.5q99 -7 144.5 -37.5t45.5 -95.5v-3q0 -61 -45.5 -92.5t-130.5 -31.5q-40 0 -77 7.5t-62 16.5l-8 37q31 -13 68 -20.5t78 -7.5q72 0 107 23t35 67v3q0 54 -39 76.5t-130 29.5q-9 1 -20 1.5t-23 1.5
l17 144h33zM762 1647h52v-2l-267 -227h-45v1z" />
    <glyph glyph-name="uni1E09" unicode="&#x1e09;" horiz-adv-x="852" 
d="M481 -19q-180 0 -271.5 106t-91.5 305v189q0 198 91.5 303.5t271.5 105.5q70 0 123 -15t91.5 -36.5t62.5 -43.5l5 -43q-46 43 -114.5 73.5t-168.5 30.5q-160 0 -242.5 -96.5t-82.5 -278.5v-188q0 -182 82.5 -279.5t245.5 -97.5q104 0 173 31.5t115 73.5l-6 -44
q-39 -34 -107.5 -65t-176.5 -31zM484 2l-16 -135l-22 19q6 -1 20.5 -1.5t24.5 -1.5q99 -7 144.5 -37.5t45.5 -95.5v-3q0 -61 -45.5 -92.5t-130.5 -31.5q-40 0 -77 7.5t-62 16.5l-8 37q31 -13 68 -20.5t78 -7.5q72 0 107 23t35 67v3q0 54 -39 76.5t-130 29.5q-9 1 -20 1.5
t-23 1.5l17 144h33zM662 1360h48v-2l-221 -247h-39v1z" />
    <glyph glyph-name="uni1E0C" unicode="&#x1e0c;" horiz-adv-x="1137" 
d="M205 0v35h337q210 0 319 116t109 333v310q0 218 -109 333.5t-319 115.5h-339v35h340q226 0 346 -125t120 -358v-312q0 -232 -120 -357.5t-346 -125.5h-338zM185 0v1278h39v-1278h-39zM563 -323q-21 0 -32 13.5t-11 41.5v4q0 26 11 39.5t32 13.5q22 0 33 -13.5t11 -39.5
v-4q0 -28 -11 -41.5t-33 -13.5z" />
    <glyph glyph-name="uni1E0D" unicode="&#x1e0d;" horiz-adv-x="1029" 
d="M486 -19q-178 0 -273 106.5t-95 306.5v185q0 200 95.5 305.5t275.5 105.5q100 0 180 -41t126.5 -115t47.5 -174h12l-22 -33q-6 110 -54.5 183t-124.5 110t-167 37q-160 0 -246 -96.5t-86 -281.5v-185q0 -185 86 -282.5t249 -97.5q93 0 166 39t120 109t61 163l18 -37h-11
q-9 -85 -55 -154.5t-123 -111t-180 -41.5zM830 0l5 261l-2 15v417l1 19l-4 277v340h37v-1329h-37zM509 -325q-21 0 -32 13.5t-11 41.5v6q0 26 11 39.5t32 13.5q22 0 33 -13.5t11 -39.5v-6q0 -28 -11 -41.5t-33 -13.5z" />
    <glyph glyph-name="uni1E0E" unicode="&#x1e0e;" horiz-adv-x="1137" 
d="M205 0v35h337q210 0 319 116t109 333v310q0 218 -109 333.5t-319 115.5h-339v35h340q226 0 346 -125t120 -358v-312q0 -232 -120 -357.5t-346 -125.5h-338zM185 0v1278h39v-1278h-39zM323 -264v32h480v-32h-480z" />
    <glyph glyph-name="uni1E0F" unicode="&#x1e0f;" horiz-adv-x="1029" 
d="M486 -19q-178 0 -273 106.5t-95 306.5v185q0 200 95.5 305.5t275.5 105.5q100 0 180 -41t126.5 -115t47.5 -174h12l-22 -33q-6 110 -54.5 183t-124.5 110t-167 37q-160 0 -246 -96.5t-86 -281.5v-185q0 -185 86 -282.5t249 -97.5q93 0 166 39t120 109t61 163l18 -37h-11
q-9 -85 -55 -154.5t-123 -111t-180 -41.5zM830 0l5 261l-2 15v417l1 19l-4 277v340h37v-1329h-37zM269 -273v32h480v-32h-480z" />
    <glyph glyph-name="uni1E14" unicode="&#x1e14;" horiz-adv-x="1014" 
d="M185 0v1278h39v-1278h-39zM198 0v35h700v-35h-700zM205 638v35h674v-35h-674zM196 1243v35h697v-35h-697zM307 1512v32h480v-32h-480zM311 1948l260 -228v-1h-45l-267 227v2h52z" />
    <glyph glyph-name="uni1E15" unicode="&#x1e15;" horiz-adv-x="950" 
d="M503 -19q-183 0 -284 99.5t-101 280.5v224q0 200 93.5 304.5t271.5 104.5q117 0 198.5 -47t123.5 -136.5t42 -217.5v-34q0 -22 -0.5 -44t-2.5 -49h-34v67v59q0 119 -37.5 201t-110.5 125t-179 43q-160 0 -244 -96t-84 -280v-98v-8v-117q0 -82 23.5 -146t68.5 -108.5
t110 -68t147 -23.5q95 0 175 29.5t150 84.5l-5 -44q-59 -48 -141 -76.5t-180 -28.5zM135 466v33h696v-33h-696zM242 1212v32h480v-32h-480zM289 1664l212 -248v-1h-39l-221 247v2h48z" />
    <glyph glyph-name="uni1E16" unicode="&#x1e16;" horiz-adv-x="1014" 
d="M185 0v1278h39v-1278h-39zM198 0v35h700v-35h-700zM205 638v35h674v-35h-674zM196 1243v35h697v-35h-697zM307 1512v32h480v-32h-480zM790 1948h52v-2l-267 -227h-45v1z" />
    <glyph glyph-name="uni1E17" unicode="&#x1e17;" horiz-adv-x="950" 
d="M503 -19q-183 0 -284 99.5t-101 280.5v224q0 200 93.5 304.5t271.5 104.5q117 0 198.5 -47t123.5 -136.5t42 -217.5v-34q0 -22 -0.5 -44t-2.5 -49h-34v67v59q0 119 -37.5 201t-110.5 125t-179 43q-160 0 -244 -96t-84 -280v-98v-8v-117q0 -82 23.5 -146t68.5 -108.5
t110 -68t147 -23.5q95 0 175 29.5t150 84.5l-5 -44q-59 -48 -141 -76.5t-180 -28.5zM135 466v33h696v-33h-696zM242 1212v32h480v-32h-480zM678 1664h48v-2l-221 -247h-39v1z" />
    <glyph glyph-name="uni1E1C" unicode="&#x1e1c;" horiz-adv-x="1014" 
d="M185 0v1278h39v-1278h-39zM198 0v35h700v-35h-700zM205 638v35h674v-35h-674zM196 1243v35h697v-35h-697zM565 2l-16 -135l-22 19q6 -1 20.5 -1.5t24.5 -1.5q99 -7 144.5 -37.5t45.5 -95.5v-3q0 -61 -45.5 -92.5t-130.5 -31.5q-40 0 -77 7.5t-62 16.5l-8 37
q31 -13 68 -20.5t78 -7.5q72 0 107 23t35 67v3q0 54 -39 76.5t-130 29.5q-9 1 -20 1.5t-23 1.5l17 144h33zM547 1410q-109 0 -162 59.5t-55 177.5h33q2 -106 48 -156t136 -50q91 0 137.5 50t47.5 156h33q-2 -118 -55 -177.5t-163 -59.5z" />
    <glyph glyph-name="uni1E1D" unicode="&#x1e1d;" horiz-adv-x="950" 
d="M503 -19q-183 0 -284 99.5t-101 280.5v224q0 200 93.5 304.5t271.5 104.5q117 0 198.5 -47t123.5 -136.5t42 -217.5v-34q0 -22 -0.5 -44t-2.5 -49h-34v67v59q0 119 -37.5 201t-110.5 125t-179 43q-160 0 -244 -96t-84 -280v-98v-8v-117q0 -82 23.5 -146t68.5 -108.5
t110 -68t147 -23.5q95 0 175 29.5t150 84.5l-5 -44q-59 -48 -141 -76.5t-180 -28.5zM135 466v33h696v-33h-696zM506 2l-16 -135l-22 19q6 -1 20.5 -1.5t24.5 -1.5q99 -7 144.5 -37.5t45.5 -95.5v-3q0 -61 -45.5 -92.5t-130.5 -31.5q-40 0 -77 7.5t-62 16.5l-8 37
q31 -13 68 -20.5t78 -7.5q72 0 107 23t35 67v3q0 54 -39 76.5t-130 29.5q-9 1 -20 1.5t-23 1.5l17 144h33zM482 1105q-104 0 -156 62.5t-55 192.5h33q2 -117 47.5 -170.5t130.5 -53.5q86 0 131.5 53.5t47.5 170.5h33q-3 -130 -55 -192.5t-157 -62.5z" />
    <glyph glyph-name="uni1E20" unicode="&#x1e20;" horiz-adv-x="1123" 
d="M557 -18q-140 0 -236 55t-145 161t-49 258v350q0 235 111 362.5t326 127.5q90 0 161 -18.5t123.5 -47t86.5 -57.5l6 -42q-64 52 -157 90.5t-221 38.5q-195 0 -296 -118t-101 -336v-349q0 -211 100 -325t294 -114q105 0 179.5 37t120.5 98.5t64 135.5v377l16 -20h-363v34
h386v-433l-31 2q-16 -66 -61 -127.5t-122.5 -100.5t-191.5 -39zM928 265h35v-265h-39zM313 1512v32h480v-32h-480z" />
    <glyph glyph-name="uni1E21" unicode="&#x1e21;" horiz-adv-x="987" 
d="M496 276q-176 0 -270.5 83t-94.5 245v54q0 95 36 168t114.5 116t205.5 45l459 9v-35l-374 4l-1 5q109 -11 171.5 -53.5t89 -108.5t26.5 -148v-59q0 -162 -92 -243.5t-270 -81.5zM491 -336h17q108 0 191 17.5t130.5 58t47.5 109.5v4q0 76 -55.5 120.5t-185.5 54.5l-255 20
l33 1q-84 -10 -148.5 -32t-101 -62t-36.5 -103v-3q0 -71 46.5 -111.5t128.5 -57t188 -16.5zM491 -370q-118 0 -208 20t-141 67.5t-51 129.5v4q0 71 39 115t103 66.5t139 28.5l-2 -6q-116 9 -167.5 42t-51.5 90v1q0 36 18 61.5t58.5 39.5t105.5 14v13l111 -34h-77
q-102 -1 -141.5 -24t-39.5 -68v-1q0 -47 50 -73t174 -37l231 -20q146 -13 209.5 -65.5t63.5 -138.5v-4q0 -81 -51.5 -129.5t-143 -70t-211.5 -21.5h-17zM496 309q107 0 179 33t109 98.5t37 160.5v59q0 93 -36 159t-106.5 100.5t-174.5 34.5h-10q-116 0 -188 -38t-105 -105
t-33 -153v-54q0 -97 36.5 -162.5t109.5 -99t182 -33.5zM257 1212v32h480v-32h-480z" />
    <glyph glyph-name="uni1E24" unicode="&#x1e24;" horiz-adv-x="1189" 
d="M224 0h-39v1278h39v-1278zM1004 0h-39v1278h39v-1278zM207 681h780v-35h-780v35zM594 -323q-21 0 -32 13.5t-11 41.5v4q0 26 11 39.5t32 13.5q22 0 33 -13.5t11 -39.5v-4q0 -28 -11 -41.5t-33 -13.5z" />
    <glyph glyph-name="uni1E25" unicode="&#x1e25;" horiz-adv-x="1016" 
d="M832 0v620q0 106 -28.5 181t-92.5 115.5t-171 40.5q-100 0 -173 -39.5t-117 -108.5t-58 -158l-22 37h15q9 82 52.5 150.5t120 110t184.5 41.5q121 0 192.5 -44.5t103 -127t31.5 -196.5v-622h-37zM162 0v1329h37v-338l-4 -277l4 -6v-708h-37zM509 -325q-21 0 -32 13.5
t-11 41.5v6q0 26 11 39.5t32 13.5q22 0 33 -13.5t11 -39.5v-6q0 -28 -11 -41.5t-33 -13.5z" />
    <glyph glyph-name="uni1E2A" unicode="&#x1e2a;" horiz-adv-x="1189" 
d="M224 0h-39v1278h39v-1278zM1004 0h-39v1278h39v-1278zM207 681h780v-35h-780v35zM594 -388q-104 0 -156 62.5t-55 192.5h33q2 -117 47.5 -170.5t130.5 -53.5q86 0 131.5 53.5t47.5 170.5h33q-3 -130 -55 -192.5t-157 -62.5z" />
    <glyph glyph-name="uni1E2B" unicode="&#x1e2b;" horiz-adv-x="1016" 
d="M832 0v620q0 106 -28.5 181t-92.5 115.5t-171 40.5q-100 0 -173 -39.5t-117 -108.5t-58 -158l-22 37h15q9 82 52.5 150.5t120 110t184.5 41.5q121 0 192.5 -44.5t103 -127t31.5 -196.5v-622h-37zM162 0v1329h37v-338l-4 -277l4 -6v-708h-37zM509 -383q-104 0 -156 62.5
t-55 192.5h33q2 -117 47.5 -170.5t130.5 -53.5q86 0 131.5 53.5t47.5 170.5h33q-3 -130 -55 -192.5t-157 -62.5z" />
    <glyph glyph-name="uni1E2E" unicode="&#x1e2e;" horiz-adv-x="415" 
d="M364 1940h44v-1l-176 -225h-36v1zM227 0h-39v1278h39v-1278zM75 1477q-22 0 -32.5 13.5t-10.5 41.5v6q0 26 10.5 39.5t32.5 13.5t32.5 -13.5t10.5 -39.5v-6q0 -28 -10.5 -41.5t-32.5 -13.5zM342 1477q-22 0 -32.5 13.5t-10.5 41.5v6q0 26 10.5 39.5t32.5 13.5
q21 0 31.5 -13.5t10.5 -39.5v-6q0 -28 -10.5 -41.5t-31.5 -13.5z" />
    <glyph glyph-name="uni1E2F" unicode="&#x1e2f;" horiz-adv-x="372" 
d="M342 1670h44v-1l-176 -225h-36v1zM167 0v971h38v-971h-38zM81 1182q-22 0 -32.5 13.5t-10.5 41.5v6q0 26 10.5 39.5t32.5 13.5q21 0 32 -13.5t11 -39.5v-6q0 -28 -11 -41.5t-32 -13.5zM292 1182q-22 0 -32.5 13.5t-10.5 41.5v6q0 26 10.5 39.5t32.5 13.5t32.5 -13.5
t10.5 -39.5v-6q0 -28 -10.5 -41.5t-32.5 -13.5z" />
    <glyph glyph-name="uni1E36" unicode="&#x1e36;" horiz-adv-x="956" 
d="M224 0h-39v1278h39v-1278zM198 35h687v-35h-687v35zM528 -323q-21 0 -32 13.5t-11 41.5v4q0 26 11 39.5t32 13.5q22 0 33 -13.5t11 -39.5v-4q0 -28 -11 -41.5t-33 -13.5z" />
    <glyph glyph-name="uni1E37" unicode="&#x1e37;" horiz-adv-x="373" 
d="M168 0v1329h37v-1329h-37zM187 -325q-21 0 -32 13.5t-11 41.5v6q0 26 11 39.5t32 13.5q22 0 33 -13.5t11 -39.5v-6q0 -28 -11 -41.5t-33 -13.5z" />
    <glyph glyph-name="uni1E3A" unicode="&#x1e3a;" horiz-adv-x="956" 
d="M224 0h-39v1278h39v-1278zM198 35h687v-35h-687v35zM288 -264v32h480v-32h-480z" />
    <glyph glyph-name="uni1E3B" unicode="&#x1e3b;" horiz-adv-x="373" 
d="M-30 -273v32h433v-32h-433zM168 0v1329h37v-1329h-37z" />
    <glyph glyph-name="uni1E42" unicode="&#x1e42;" horiz-adv-x="1433" 
d="M157 0l62 1278h84l405 -1100h17l405 1100h85l61 -1278h-39l-29 642l-28 603h-23l-404 -1100h-73l-404 1100h-22l-28 -604l-29 -641h-40zM716 -323q-21 0 -32 13.5t-11 41.5v4q0 26 11 39.5t32 13.5q22 0 33 -13.5t11 -39.5v-4q0 -28 -11 -41.5t-33 -13.5z" />
    <glyph glyph-name="uni1E43" unicode="&#x1e43;" horiz-adv-x="1578" 
d="M1394 0v620q0 106 -26 181t-84.5 115.5t-156.5 40.5q-89 0 -156.5 -38.5t-109 -105t-53.5 -150.5l-21 40h10q9 75 51 140.5t113 106t168 40.5q111 0 177 -44.5t95.5 -127t29.5 -196.5v-622h-37zM162 0v971h37l-4 -256h4v-715h-37zM778 0v619q0 106 -26 181.5t-84 116
t-155 40.5q-92 0 -159.5 -39.5t-108 -109t-53.5 -158.5l-21 38h14q9 82 49 150.5t111 110t170 41.5q133 0 204.5 -68.5t90.5 -205.5q3 -23 4 -44t1 -44v-628h-37zM789 -325q-21 0 -32 13.5t-11 41.5v6q0 26 11 39.5t32 13.5q22 0 33 -13.5t11 -39.5v-6q0 -28 -11 -41.5
t-33 -13.5z" />
    <glyph glyph-name="uni1E44" unicode="&#x1e44;" horiz-adv-x="1189" 
d="M260 1278l693 -1245h14l-2 578v667h39v-1278h-75l-693 1246h-14l2 -620v-626h-39v1278h75zM594 1473q-21 0 -32 13.5t-11 41.5v4q0 26 11 39.5t32 13.5q22 0 33 -13.5t11 -39.5v-4q0 -28 -11 -41.5t-33 -13.5z" />
    <glyph glyph-name="uni1E45" unicode="&#x1e45;" horiz-adv-x="1016" 
d="M832 0v620q0 106 -28.5 181t-92.5 115.5t-171 40.5q-99 0 -172.5 -39.5t-117.5 -109t-58 -158.5l-18 38h11q9 82 52.5 150.5t120.5 110t184 41.5q121 0 192.5 -44.5t103 -127t31.5 -196.5v-622h-37zM162 0v971h37l-4 -254h4v-717h-37zM508 1182q-21 0 -32 13.5t-11 41.5
v6q0 26 11 39.5t32 13.5q22 0 33 -13.5t11 -39.5v-6q0 -28 -11 -41.5t-33 -13.5z" />
    <glyph glyph-name="uni1E46" unicode="&#x1e46;" horiz-adv-x="1189" 
d="M260 1278l693 -1245h14l-2 578v667h39v-1278h-75l-693 1246h-14l2 -620v-626h-39v1278h75zM594 -323q-21 0 -32 13.5t-11 41.5v4q0 26 11 39.5t32 13.5q22 0 33 -13.5t11 -39.5v-4q0 -28 -11 -41.5t-33 -13.5z" />
    <glyph glyph-name="uni1E47" unicode="&#x1e47;" horiz-adv-x="1016" 
d="M832 0v620q0 106 -28.5 181t-92.5 115.5t-171 40.5q-99 0 -172.5 -39.5t-117.5 -109t-58 -158.5l-18 38h11q9 82 52.5 150.5t120.5 110t184 41.5q121 0 192.5 -44.5t103 -127t31.5 -196.5v-622h-37zM162 0v971h37l-4 -254h4v-717h-37zM509 -325q-21 0 -32 13.5t-11 41.5
v6q0 26 11 39.5t32 13.5q22 0 33 -13.5t11 -39.5v-6q0 -28 -11 -41.5t-33 -13.5z" />
    <glyph glyph-name="uni1E48" unicode="&#x1e48;" horiz-adv-x="1189" 
d="M260 1278l693 -1245h14l-2 578v667h39v-1278h-75l-693 1246h-14l2 -620v-626h-39v1278h75zM354 -264v32h480v-32h-480z" />
    <glyph glyph-name="uni1E49" unicode="&#x1e49;" horiz-adv-x="1016" 
d="M832 0v620q0 106 -28.5 181t-92.5 115.5t-171 40.5q-99 0 -172.5 -39.5t-117.5 -109t-58 -158.5l-18 38h11q9 82 52.5 150.5t120.5 110t184 41.5q121 0 192.5 -44.5t103 -127t31.5 -196.5v-622h-37zM162 0v971h37l-4 -254h4v-717h-37zM269 -273v32h480v-32h-480z" />
    <glyph glyph-name="uni1E4C" unicode="&#x1e4c;" horiz-adv-x="1133" 
d="M722 1919h43v-1l-176 -202h-36v1zM566 -18q-213 0 -326 125.5t-113 357.5v348q0 232 113 357.5t326 125.5t326.5 -125.5t113.5 -357.5v-348q0 -232 -113.5 -357.5t-326.5 -125.5zM566 18q197 0 299 116.5t102 330.5v349q0 214 -102 330t-299 116q-196 0 -298 -116
t-102 -330v-349q0 -214 102 -330.5t298 -116.5zM708 1448q-41 0 -77.5 17t-70.5 39t-67.5 39t-68.5 17q-38 0 -54 -23t-16 -67v-31h-32v32q0 53 22 87.5t81 34.5q41 0 77 -17t70 -39t68 -39t69 -17q38 0 54 23.5t16 66.5v30h32v-32q0 -52 -22 -86.5t-81 -34.5z" />
    <glyph glyph-name="uni1E4D" unicode="&#x1e4d;" horiz-adv-x="998" 
d="M655 1660h44v-1l-176 -225h-36v1zM499 -23q-187 0 -284 108t-97 310v183q0 202 97.5 309t283.5 107t283.5 -107t97.5 -309v-183q0 -202 -97.5 -310t-283.5 -108zM499 10q167 0 255.5 99t88.5 286v183q0 186 -88 284.5t-256 98.5t-256 -98.5t-88 -284.5v-183
q0 -187 88 -286t256 -99zM631 1151q-37 0 -70 17.5t-64 40t-61 40t-60 17.5q-36 0 -52.5 -23t-16.5 -73v-28h-31v29q0 64 24 96t76 32q36 0 69 -17.5t64 -40t61.5 -40t60.5 -17.5q36 0 52 23t16 73v27h32v-29q0 -64 -24 -95.5t-76 -31.5z" />
    <glyph glyph-name="uni1E4E" unicode="&#x1e4e;" horiz-adv-x="1133" 
d="M434 1781q-22 0 -32.5 13.5t-10.5 41.5v6q0 26 10.5 39.5t32.5 13.5t32.5 -13.5t10.5 -39.5v-6q0 -28 -10.5 -41.5t-32.5 -13.5zM701 1781q-22 0 -32.5 13.5t-10.5 41.5v6q0 26 10.5 39.5t32.5 13.5q21 0 31.5 -13.5t10.5 -39.5v-6q0 -28 -10.5 -41.5t-31.5 -13.5z
M566 -18q-213 0 -326 125.5t-113 357.5v348q0 232 113 357.5t326 125.5t326.5 -125.5t113.5 -357.5v-348q0 -232 -113.5 -357.5t-326.5 -125.5zM566 18q197 0 299 116.5t102 330.5v349q0 214 -102 330t-299 116q-196 0 -298 -116t-102 -330v-349q0 -214 102 -330.5
t298 -116.5zM708 1448q-41 0 -77.5 17t-70.5 39t-67.5 39t-68.5 17q-38 0 -54 -23t-16 -67v-31h-32v32q0 53 22 87.5t81 34.5q41 0 77 -17t70 -39t68 -39t69 -17q38 0 54 23.5t16 66.5v30h32v-32q0 -52 -22 -86.5t-81 -34.5z" />
    <glyph glyph-name="uni1E4F" unicode="&#x1e4f;" horiz-adv-x="998" 
d="M366 1501q-22 0 -32.5 13.5t-10.5 41.5v6q0 26 10.5 39.5t32.5 13.5t32.5 -13.5t10.5 -39.5v-6q0 -28 -10.5 -41.5t-32.5 -13.5zM633 1501q-22 0 -32.5 13.5t-10.5 41.5v6q0 26 10.5 39.5t32.5 13.5q21 0 31.5 -13.5t10.5 -39.5v-6q0 -28 -10.5 -41.5t-31.5 -13.5z
M499 -23q-187 0 -284 108t-97 310v183q0 202 97.5 309t283.5 107t283.5 -107t97.5 -309v-183q0 -202 -97.5 -310t-283.5 -108zM499 10q167 0 255.5 99t88.5 286v183q0 186 -88 284.5t-256 98.5t-256 -98.5t-88 -284.5v-183q0 -187 88 -286t256 -99zM631 1151q-37 0 -70 17.5
t-64 40t-61 40t-60 17.5q-36 0 -52.5 -23t-16.5 -73v-28h-31v29q0 64 24 96t76 32q36 0 69 -17.5t64 -40t61.5 -40t60.5 -17.5q36 0 52 23t16 73v27h32v-29q0 -64 -24 -95.5t-76 -31.5z" />
    <glyph glyph-name="uni1E50" unicode="&#x1e50;" horiz-adv-x="1133" 
d="M566 -18q-213 0 -326 125.5t-113 357.5v348q0 232 113 357.5t326 125.5t326.5 -125.5t113.5 -357.5v-348q0 -232 -113.5 -357.5t-326.5 -125.5zM566 18q197 0 299 116.5t102 330.5v349q0 214 -102 330t-299 116q-196 0 -298 -116t-102 -330v-349q0 -214 102 -330.5
t298 -116.5zM326 1512v32h480v-32h-480zM330 1948l260 -228v-1h-45l-267 227v2h52z" />
    <glyph glyph-name="uni1E51" unicode="&#x1e51;" horiz-adv-x="998" 
d="M499 -23q-187 0 -284 108t-97 310v183q0 202 97.5 309t283.5 107t283.5 -107t97.5 -309v-183q0 -202 -97.5 -310t-283.5 -108zM499 10q167 0 255.5 99t88.5 286v183q0 186 -88 284.5t-256 98.5t-256 -98.5t-88 -284.5v-183q0 -187 88 -286t256 -99zM259 1212v32h480v-32
h-480zM306 1664l212 -248v-1h-39l-221 247v2h48z" />
    <glyph glyph-name="uni1E52" unicode="&#x1e52;" horiz-adv-x="1133" 
d="M566 -18q-213 0 -326 125.5t-113 357.5v348q0 232 113 357.5t326 125.5t326.5 -125.5t113.5 -357.5v-348q0 -232 -113.5 -357.5t-326.5 -125.5zM566 18q197 0 299 116.5t102 330.5v349q0 214 -102 330t-299 116q-196 0 -298 -116t-102 -330v-349q0 -214 102 -330.5
t298 -116.5zM326 1512v32h480v-32h-480zM809 1948h52v-2l-267 -227h-45v1z" />
    <glyph glyph-name="uni1E53" unicode="&#x1e53;" horiz-adv-x="998" 
d="M499 -23q-187 0 -284 108t-97 310v183q0 202 97.5 309t283.5 107t283.5 -107t97.5 -309v-183q0 -202 -97.5 -310t-283.5 -108zM499 10q167 0 255.5 99t88.5 286v183q0 186 -88 284.5t-256 98.5t-256 -98.5t-88 -284.5v-183q0 -187 88 -286t256 -99zM259 1212v32h480v-32
h-480zM695 1664h48v-2l-221 -247h-39v1z" />
    <glyph glyph-name="uni1E5A" unicode="&#x1e5a;" horiz-adv-x="1107" 
d="M956 0l-43 274q-13 85 -41 154t-88.5 110.5t-173.5 41.5h-401v34l436 1q160 0 226.5 83.5t66.5 216.5v39q0 134 -69 211.5t-231 77.5h-435v35h437q178 0 257.5 -88.5t79.5 -234.5v-41q0 -137 -71 -227t-234 -95l-2 2l-21 10q109 -7 169 -49.5t88.5 -113t43.5 -162.5
l46 -279h-40zM185 0v1278h39v-670v-17v-591h-39zM564 -323q-21 0 -32 13.5t-11 41.5v4q0 26 11 39.5t32 13.5q22 0 33 -13.5t11 -39.5v-4q0 -28 -11 -41.5t-33 -13.5z" />
    <glyph glyph-name="uni1E5B" unicode="&#x1e5b;" horiz-adv-x="719" 
d="M193 617l-19 24l11 9q33 154 129 244.5t236 90.5q42 0 74.5 -7t54.5 -17l3 -36q-26 11 -60 18t-75 7q-123 0 -217.5 -83.5t-136.5 -249.5zM162 0v971h37l-5 -301l5 -5v-665h-37zM181 -325q-21 0 -32 13.5t-11 41.5v6q0 26 11 39.5t32 13.5q22 0 33 -13.5t11 -39.5v-6
q0 -28 -11 -41.5t-33 -13.5z" />
    <glyph glyph-name="uni1E5E" unicode="&#x1e5e;" horiz-adv-x="1107" 
d="M956 0l-43 274q-13 85 -41 154t-88.5 110.5t-173.5 41.5h-401v34l436 1q160 0 226.5 83.5t66.5 216.5v39q0 134 -69 211.5t-231 77.5h-435v35h437q178 0 257.5 -88.5t79.5 -234.5v-41q0 -137 -71 -227t-234 -95l-2 2l-21 10q109 -7 169 -49.5t88.5 -113t43.5 -162.5
l46 -279h-40zM185 0v1278h39v-670v-17v-591h-39zM324 -264v32h480v-32h-480z" />
    <glyph glyph-name="uni1E5F" unicode="&#x1e5f;" horiz-adv-x="719" 
d="M193 617l-19 24l11 9q33 154 129 244.5t236 90.5q42 0 74.5 -7t54.5 -17l3 -36q-26 11 -60 18t-75 7q-123 0 -217.5 -83.5t-136.5 -249.5zM162 0v971h37l-5 -301l5 -5v-665h-37zM-59 -273v32h480v-32h-480z" />
    <glyph glyph-name="uni1E60" unicode="&#x1e60;" horiz-adv-x="1017" 
d="M505 -18q-93 0 -169 18t-132.5 44.5t-92.5 52.5l-6 45q74 -52 174.5 -88t227.5 -36q173 0 263 74.5t90 216.5v24q0 95 -33 155t-111.5 97t-215.5 62q-151 30 -235 73t-117.5 107t-33.5 156v6q0 145 90.5 225.5t281.5 80.5q134 0 228 -33.5t146 -71.5l5 -42
q-65 45 -158 78t-223 33q-115 0 -188 -32t-108 -92.5t-35 -145.5v-6q0 -84 31 -141t109.5 -95t222.5 -67q148 -29 231 -70.5t117.5 -107.5t34.5 -168v-25q0 -159 -100 -243t-294 -84zM499 1473q-21 0 -32 13.5t-11 41.5v4q0 26 11 39.5t32 13.5q22 0 33 -13.5t11 -39.5v-4
q0 -28 -11 -41.5t-33 -13.5z" />
    <glyph glyph-name="uni1E61" unicode="&#x1e61;" horiz-adv-x="846" 
d="M425 -19q-117 0 -200.5 30t-135.5 64l-6 43q70 -44 152.5 -73t191.5 -29q137 0 215 53.5t78 157.5v20q0 67 -25 111t-90 74.5t-186 53.5q-123 23 -194 54t-100.5 81t-29.5 128v10q0 110 78.5 170t235.5 60q112 0 191.5 -29t126.5 -65l6 -41q-61 44 -139.5 72.5
t-185.5 28.5q-94 0 -155 -23.5t-91 -67.5t-30 -105v-10q0 -70 26.5 -112.5t91.5 -68.5t178 -48q128 -24 199.5 -57.5t100.5 -85t29 -128.5v-22q0 -119 -87.5 -182.5t-244.5 -63.5zM420 1182q-21 0 -32 13.5t-11 41.5v6q0 26 11 39.5t32 13.5q22 0 33 -13.5t11 -39.5v-6
q0 -28 -11 -41.5t-33 -13.5z" />
    <glyph glyph-name="uni1E62" unicode="&#x1e62;" horiz-adv-x="1017" 
d="M505 -18q-93 0 -169 18t-132.5 44.5t-92.5 52.5l-6 45q74 -52 174.5 -88t227.5 -36q173 0 263 74.5t90 216.5v24q0 95 -33 155t-111.5 97t-215.5 62q-151 30 -235 73t-117.5 107t-33.5 156v6q0 145 90.5 225.5t281.5 80.5q134 0 228 -33.5t146 -71.5l5 -42
q-65 45 -158 78t-223 33q-115 0 -188 -32t-108 -92.5t-35 -145.5v-6q0 -84 31 -141t109.5 -95t222.5 -67q148 -29 231 -70.5t117.5 -107.5t34.5 -168v-25q0 -159 -100 -243t-294 -84zM499 -323q-21 0 -32 13.5t-11 41.5v4q0 26 11 39.5t32 13.5q22 0 33 -13.5t11 -39.5v-4
q0 -28 -11 -41.5t-33 -13.5z" />
    <glyph glyph-name="uni1E63" unicode="&#x1e63;" horiz-adv-x="846" 
d="M425 -19q-117 0 -200.5 30t-135.5 64l-6 43q70 -44 152.5 -73t191.5 -29q137 0 215 53.5t78 157.5v20q0 67 -25 111t-90 74.5t-186 53.5q-123 23 -194 54t-100.5 81t-29.5 128v10q0 110 78.5 170t235.5 60q112 0 191.5 -29t126.5 -65l6 -41q-61 44 -139.5 72.5
t-185.5 28.5q-94 0 -155 -23.5t-91 -67.5t-30 -105v-10q0 -70 26.5 -112.5t91.5 -68.5t178 -48q128 -24 199.5 -57.5t100.5 -85t29 -128.5v-22q0 -119 -87.5 -182.5t-244.5 -63.5zM421 -325q-21 0 -32 13.5t-11 41.5v6q0 26 11 39.5t32 13.5q22 0 33 -13.5t11 -39.5v-6
q0 -28 -11 -41.5t-33 -13.5z" />
    <glyph glyph-name="uni1E64" unicode="&#x1e64;" horiz-adv-x="1017" 
d="M499 1780q-21 0 -32 13.5t-11 41.5v4q0 26 11 39.5t32 13.5q22 0 33 -13.5t11 -39.5v-4q0 -28 -11 -41.5t-33 -13.5zM505 -18q-93 0 -169 18t-132.5 44.5t-92.5 52.5l-6 45q74 -52 174.5 -88t227.5 -36q173 0 263 74.5t90 216.5v24q0 95 -33 155t-111.5 97t-215.5 62
q-151 30 -235 73t-117.5 107t-33.5 156v6q0 145 90.5 225.5t281.5 80.5q134 0 228 -33.5t146 -71.5l5 -42q-65 45 -158 78t-223 33q-115 0 -188 -32t-108 -92.5t-35 -145.5v-6q0 -84 31 -141t109.5 -95t222.5 -67q148 -29 231 -70.5t117.5 -107.5t34.5 -168v-25
q0 -159 -100 -243t-294 -84zM742 1647h52v-2l-267 -227h-45v1z" />
    <glyph glyph-name="uni1E65" unicode="&#x1e65;" horiz-adv-x="846" 
d="M425 1506q-21 0 -32 13.5t-11 41.5v6q0 26 11 39.5t32 13.5q22 0 33 -13.5t11 -39.5v-6q0 -28 -11 -41.5t-33 -13.5zM425 -19q-117 0 -200.5 30t-135.5 64l-6 43q70 -44 152.5 -73t191.5 -29q137 0 215 53.5t78 157.5v20q0 67 -25 111t-90 74.5t-186 53.5
q-123 23 -194 54t-100.5 81t-29.5 128v10q0 110 78.5 170t235.5 60q112 0 191.5 -29t126.5 -65l6 -41q-61 44 -139.5 72.5t-185.5 28.5q-94 0 -155 -23.5t-91 -67.5t-30 -105v-10q0 -70 26.5 -112.5t91.5 -68.5t178 -48q128 -24 199.5 -57.5t100.5 -85t29 -128.5v-22
q0 -119 -87.5 -182.5t-244.5 -63.5zM616 1360h48v-2l-221 -247h-39v1z" />
    <glyph glyph-name="uni1E66" unicode="&#x1e66;" horiz-adv-x="1017" 
d="M499 1780q-21 0 -32 13.5t-11 41.5v4q0 26 11 39.5t32 13.5q22 0 33 -13.5t11 -39.5v-4q0 -28 -11 -41.5t-33 -13.5zM505 -18q-93 0 -169 18t-132.5 44.5t-92.5 52.5l-6 45q74 -52 174.5 -88t227.5 -36q173 0 263 74.5t90 216.5v24q0 95 -33 155t-111.5 97t-215.5 62
q-151 30 -235 73t-117.5 107t-33.5 156v6q0 145 90.5 225.5t281.5 80.5q134 0 228 -33.5t146 -71.5l5 -42q-65 45 -158 78t-223 33q-115 0 -188 -32t-108 -92.5t-35 -145.5v-6q0 -84 31 -141t109.5 -95t222.5 -67q148 -29 231 -70.5t117.5 -107.5t34.5 -168v-25
q0 -159 -100 -243t-294 -84zM476 1418l-240 228v1h42l219 -198h6l219 198h42v-1l-240 -228h-48z" />
    <glyph glyph-name="uni1E67" unicode="&#x1e67;" horiz-adv-x="846" 
d="M420 1506q-21 0 -32 13.5t-11 41.5v6q0 26 11 39.5t32 13.5q22 0 33 -13.5t11 -39.5v-6q0 -28 -11 -41.5t-33 -13.5zM425 -19q-117 0 -200.5 30t-135.5 64l-6 43q70 -44 152.5 -73t191.5 -29q137 0 215 53.5t78 157.5v20q0 67 -25 111t-90 74.5t-186 53.5
q-123 23 -194 54t-100.5 81t-29.5 128v10q0 110 78.5 170t235.5 60q112 0 191.5 -29t126.5 -65l6 -41q-61 44 -139.5 72.5t-185.5 28.5q-94 0 -155 -23.5t-91 -67.5t-30 -105v-10q0 -70 26.5 -112.5t91.5 -68.5t178 -48q128 -24 199.5 -57.5t100.5 -85t29 -128.5v-22
q0 -119 -87.5 -182.5t-244.5 -63.5zM396 1111l-203 248v1h38l187 -217h6l187 217h38v-1l-203 -248h-50z" />
    <glyph glyph-name="uni1E68" unicode="&#x1e68;" horiz-adv-x="1017" 
d="M505 -18q-93 0 -169 18t-132.5 44.5t-92.5 52.5l-6 45q74 -52 174.5 -88t227.5 -36q173 0 263 74.5t90 216.5v24q0 95 -33 155t-111.5 97t-215.5 62q-151 30 -235 73t-117.5 107t-33.5 156v6q0 145 90.5 225.5t281.5 80.5q134 0 228 -33.5t146 -71.5l5 -42
q-65 45 -158 78t-223 33q-115 0 -188 -32t-108 -92.5t-35 -145.5v-6q0 -84 31 -141t109.5 -95t222.5 -67q148 -29 231 -70.5t117.5 -107.5t34.5 -168v-25q0 -159 -100 -243t-294 -84zM499 -323q-21 0 -32 13.5t-11 41.5v4q0 26 11 39.5t32 13.5q22 0 33 -13.5t11 -39.5v-4
q0 -28 -11 -41.5t-33 -13.5zM499 1473q-21 0 -32 13.5t-11 41.5v4q0 26 11 39.5t32 13.5q22 0 33 -13.5t11 -39.5v-4q0 -28 -11 -41.5t-33 -13.5z" />
    <glyph glyph-name="uni1E69" unicode="&#x1e69;" horiz-adv-x="846" 
d="M425 -19q-117 0 -200.5 30t-135.5 64l-6 43q70 -44 152.5 -73t191.5 -29q137 0 215 53.5t78 157.5v20q0 67 -25 111t-90 74.5t-186 53.5q-123 23 -194 54t-100.5 81t-29.5 128v10q0 110 78.5 170t235.5 60q112 0 191.5 -29t126.5 -65l6 -41q-61 44 -139.5 72.5
t-185.5 28.5q-94 0 -155 -23.5t-91 -67.5t-30 -105v-10q0 -70 26.5 -112.5t91.5 -68.5t178 -48q128 -24 199.5 -57.5t100.5 -85t29 -128.5v-22q0 -119 -87.5 -182.5t-244.5 -63.5zM421 -325q-21 0 -32 13.5t-11 41.5v6q0 26 11 39.5t32 13.5q22 0 33 -13.5t11 -39.5v-6
q0 -28 -11 -41.5t-33 -13.5zM420 1182q-21 0 -32 13.5t-11 41.5v6q0 26 11 39.5t32 13.5q22 0 33 -13.5t11 -39.5v-6q0 -28 -11 -41.5t-33 -13.5z" />
    <glyph glyph-name="uni1E6C" unicode="&#x1e6c;" horiz-adv-x="1009" 
d="M485 0v1278h39v-1278h-39zM76 1244v34h857v-34h-857zM504 -323q-21 0 -32 13.5t-11 41.5v4q0 26 11 39.5t32 13.5q22 0 33 -13.5t11 -39.5v-4q0 -28 -11 -41.5t-33 -13.5z" />
    <glyph glyph-name="uni1E6D" unicode="&#x1e6d;" horiz-adv-x="791" 
d="M482 -18q-97 0 -158 28.5t-90 87.5t-29 148v679h37v-676q0 -118 55 -175t186 -57q62 0 122.5 15.5t116.5 47.5l-5 -40q-46 -26 -108.5 -42t-126.5 -16zM22 914v32h687l-5 -32h-682zM205 936v292l39 15l-3 -307h-36zM455 -325q-21 0 -32 13.5t-11 41.5v6q0 26 11 39.5
t32 13.5q22 0 33 -13.5t11 -39.5v-6q0 -28 -11 -41.5t-33 -13.5z" />
    <glyph glyph-name="uni1E6E" unicode="&#x1e6e;" horiz-adv-x="1009" 
d="M485 0v1278h39v-1278h-39zM76 1244v34h857v-34h-857zM264 -264v32h480v-32h-480z" />
    <glyph glyph-name="uni1E6F" unicode="&#x1e6f;" horiz-adv-x="791" 
d="M482 -18q-97 0 -158 28.5t-90 87.5t-29 148v679h37v-676q0 -118 55 -175t186 -57q62 0 122.5 15.5t116.5 47.5l-5 -40q-46 -26 -108.5 -42t-126.5 -16zM22 914v32h687l-5 -32h-682zM205 936v292l39 15l-3 -307h-36zM215 -273v32h480v-32h-480z" />
    <glyph glyph-name="uni1E78" unicode="&#x1e78;" horiz-adv-x="1170" 
d="M740 1919h43v-1l-176 -202h-36v1zM585 -18q-207 0 -309 118t-102 335v843h39v-843q0 -199 91 -308t281 -109q191 0 281.5 109t90.5 308v843h39v-843q0 -217 -102.5 -335t-308.5 -118zM726 1448q-41 0 -77.5 17t-70.5 39t-67.5 39t-68.5 17q-38 0 -54 -23t-16 -67v-31h-32
v32q0 53 22 87.5t81 34.5q41 0 77 -17t70 -39t68 -39t69 -17q38 0 54 23.5t16 66.5v30h32v-32q0 -52 -22 -86.5t-81 -34.5z" />
    <glyph glyph-name="uni1E79" unicode="&#x1e79;" horiz-adv-x="1016" 
d="M659 1660h44v-1l-176 -225h-36v1zM184 971v-620q0 -105 28.5 -180.5t92.5 -116t171 -40.5q100 0 173 39.5t117.5 109t57.5 158.5l18 -38h-11q-9 -81 -52.5 -150t-120 -110.5t-184.5 -41.5q-120 0 -192 44.5t-103.5 127t-31.5 196.5v622h37zM854 971v-971h-37l4 254h-4
v717h37zM635 1151q-37 0 -70 17.5t-64 40t-61 40t-60 17.5q-36 0 -52.5 -23t-16.5 -73v-28h-31v29q0 64 24 96t76 32q36 0 69 -17.5t64 -40t61.5 -40t60.5 -17.5q36 0 52 23t16 73v27h32v-29q0 -64 -24 -95.5t-76 -31.5z" />
    <glyph glyph-name="uni1E7A" unicode="&#x1e7a;" horiz-adv-x="1170" 
d="M585 -18q-207 0 -309 118t-102 335v843h39v-843q0 -199 91 -308t281 -109q191 0 281.5 109t90.5 308v843h39v-843q0 -217 -102.5 -335t-308.5 -118zM344 1512v32h480v-32h-480zM452 1778q-22 0 -32.5 13.5t-10.5 41.5v6q0 26 10.5 39.5t32.5 13.5t32.5 -13.5t10.5 -39.5
v-6q0 -28 -10.5 -41.5t-32.5 -13.5zM719 1778q-22 0 -32.5 13.5t-10.5 41.5v6q0 26 10.5 39.5t32.5 13.5q21 0 31.5 -13.5t10.5 -39.5v-6q0 -28 -10.5 -41.5t-31.5 -13.5z" />
    <glyph glyph-name="uni1E7B" unicode="&#x1e7b;" horiz-adv-x="1016" 
d="M184 971v-620q0 -105 28.5 -180.5t92.5 -116t171 -40.5q100 0 173 39.5t117.5 109t57.5 158.5l18 -38h-11q-9 -81 -52.5 -150t-120 -110.5t-184.5 -41.5q-120 0 -192 44.5t-103.5 127t-31.5 196.5v622h37zM854 971v-971h-37l4 254h-4v717h37zM263 1212v32h480v-32h-480z
M371 1486q-22 0 -32.5 13.5t-10.5 41.5v6q0 26 10.5 39.5t32.5 13.5t32.5 -13.5t10.5 -39.5v-6q0 -28 -10.5 -41.5t-32.5 -13.5zM638 1486q-22 0 -32.5 13.5t-10.5 41.5v6q0 26 10.5 39.5t32.5 13.5q21 0 31.5 -13.5t10.5 -39.5v-6q0 -28 -10.5 -41.5t-31.5 -13.5z" />
    <glyph glyph-name="Wgrave" unicode="&#x1e80;" horiz-adv-x="1568" 
d="M392 0l-300 1278h41l278 -1202l10 -42h24l11 42l291 1164h74l293 -1165l10 -41h24l10 41l278 1203h40l-300 -1278h-80l-221 876l-83 332h-16l-83 -332l-219 -876h-82zM548 1647l260 -228v-1h-45l-267 227v2h52z" />
    <glyph glyph-name="wgrave" unicode="&#x1e81;" horiz-adv-x="1444" 
d="M362 0l-278 971h41l263 -938h24l278 909h64l278 -909h24l263 938h41l-278 -971h-76l-231 757l-48 155h-11l-48 -156l-230 -756h-76zM528 1360l212 -248v-1h-39l-221 247v2h48z" />
    <glyph glyph-name="Wacute" unicode="&#x1e82;" horiz-adv-x="1568" 
d="M392 0l-300 1278h41l278 -1202l10 -42h24l11 42l291 1164h74l293 -1165l10 -41h24l10 41l278 1203h40l-300 -1278h-80l-221 876l-83 332h-16l-83 -332l-219 -876h-82zM1027 1647h52v-2l-267 -227h-45v1z" />
    <glyph glyph-name="wacute" unicode="&#x1e83;" horiz-adv-x="1444" 
d="M362 0l-278 971h41l263 -938h24l278 909h64l278 -909h24l263 938h41l-278 -971h-76l-231 757l-48 155h-11l-48 -156l-230 -756h-76zM917 1360h48v-2l-221 -247h-39v1z" />
    <glyph glyph-name="Wdieresis" unicode="&#x1e84;" horiz-adv-x="1568" 
d="M392 0l-300 1278h41l278 -1202l10 -42h24l11 42l291 1164h74l293 -1165l10 -41h24l10 41l278 1203h40l-300 -1278h-80l-221 876l-83 332h-16l-83 -332l-219 -876h-82zM652 1477q-22 0 -32.5 13.5t-10.5 41.5v6q0 26 10.5 39.5t32.5 13.5t32.5 -13.5t10.5 -39.5v-6
q0 -28 -10.5 -41.5t-32.5 -13.5zM919 1477q-22 0 -32.5 13.5t-10.5 41.5v6q0 26 10.5 39.5t32.5 13.5q21 0 31.5 -13.5t10.5 -39.5v-6q0 -28 -10.5 -41.5t-31.5 -13.5z" />
    <glyph glyph-name="wdieresis" unicode="&#x1e85;" horiz-adv-x="1444" 
d="M362 0l-278 971h41l263 -938h24l278 909h64l278 -909h24l263 938h41l-278 -971h-76l-231 757l-48 155h-11l-48 -156l-230 -756h-76zM589 1182q-22 0 -32.5 13.5t-10.5 41.5v6q0 26 10.5 39.5t32.5 13.5t32.5 -13.5t10.5 -39.5v-6q0 -28 -10.5 -41.5t-32.5 -13.5z
M856 1182q-22 0 -32.5 13.5t-10.5 41.5v6q0 26 10.5 39.5t32.5 13.5q21 0 31.5 -13.5t10.5 -39.5v-6q0 -28 -10.5 -41.5t-31.5 -13.5z" />
    <glyph glyph-name="uni1E8E" unicode="&#x1e8e;" horiz-adv-x="1039" 
d="M502 427l-436 851h43l294 -576l111 -217h11l111 217l294 576h43l-436 -851h-35zM500 0v471h39v-471h-39zM519 1473q-21 0 -32 13.5t-11 41.5v4q0 26 11 39.5t32 13.5q22 0 33 -13.5t11 -39.5v-4q0 -28 -11 -41.5t-33 -13.5z" />
    <glyph glyph-name="uni1E8F" unicode="&#x1e8f;" horiz-adv-x="939" 
d="M493 71l-17 -9l353 909h41l-509 -1315h-41l153 397l10 -15h-51l-363 933h41l348 -900h35zM468 1182q-21 0 -32 13.5t-11 41.5v6q0 26 11 39.5t32 13.5q22 0 33 -13.5t11 -39.5v-6q0 -28 -11 -41.5t-33 -13.5z" />
    <glyph glyph-name="uni1E92" unicode="&#x1e92;" horiz-adv-x="1005" 
d="M896 35v-35h-787v31l736 1213h-733v34h779v-30l-737 -1213h742zM502 -323q-21 0 -32 13.5t-11 41.5v4q0 26 11 39.5t32 13.5q22 0 33 -13.5t11 -39.5v-4q0 -28 -11 -41.5t-33 -13.5z" />
    <glyph glyph-name="uni1E93" unicode="&#x1e93;" horiz-adv-x="870" 
d="M772 33v-33h-675v31l627 908h-625v32h670v-30l-627 -908h630zM435 -325q-21 0 -32 13.5t-11 41.5v6q0 26 11 39.5t32 13.5q22 0 33 -13.5t11 -39.5v-6q0 -28 -11 -41.5t-33 -13.5z" />
    <glyph glyph-name="uni1E97" unicode="&#x1e97;" horiz-adv-x="791" 
d="M482 -18q-97 0 -158 28.5t-90 87.5t-29 148v679h37v-676q0 -118 55 -175t186 -57q62 0 122.5 15.5t116.5 47.5l-5 -40q-46 -26 -108.5 -42t-126.5 -16zM22 914v32h687l-5 -32h-682zM205 936v292l39 15l-3 -307h-36zM92 1434q-22 0 -32.5 13.5t-10.5 41.5v6
q0 26 10.5 39.5t32.5 13.5t32.5 -13.5t10.5 -39.5v-6q0 -28 -10.5 -41.5t-32.5 -13.5zM359 1434q-22 0 -32.5 13.5t-10.5 41.5v6q0 26 10.5 39.5t32.5 13.5q21 0 31.5 -13.5t10.5 -39.5v-6q0 -28 -10.5 -41.5t-31.5 -13.5z" />
    <glyph glyph-name="uni1E9E" unicode="&#x1e9e;" horiz-adv-x="1215" 
d="M213 0h-39v859q0 204 100.5 311.5t317.5 107.5h464v-31l-464 -563l-7 10q31 8 72 12t81 4q182 0 270 -83.5t88 -251.5v-43q0 -167 -89 -258.5t-268 -91.5q-109 0 -185.5 24t-118.5 48l-6 45q57 -34 135 -57.5t177 -23.5q158 0 237 81.5t79 232.5v43q0 155 -79 227.5
t-245 72.5q-41 0 -85.5 -3t-89.5 -11v36l454 554l3 -7h-423q-202 0 -290.5 -99.5t-88.5 -285.5v-859z" />
    <glyph glyph-name="uni1EA0" unicode="&#x1ea0;" horiz-adv-x="1097" 
d="M76 0l430 1278h83l432 -1278h-41l-419 1246h-27l-417 -1246h-41zM254 452v35h588v-35h-588zM548 -323q-21 0 -32 13.5t-11 41.5v4q0 26 11 39.5t32 13.5q22 0 33 -13.5t11 -39.5v-4q0 -28 -11 -41.5t-33 -13.5z" />
    <glyph glyph-name="uni1EA1" unicode="&#x1ea1;" horiz-adv-x="938" 
d="M754 0l4 256l-3 7v321v85q0 140 -70.5 213.5t-217.5 73.5q-109 0 -195 -35.5t-145 -80.5l5 42q31 24 78.5 49t112 42t144.5 17q83 0 144 -21.5t101.5 -62.5t60 -100.5t19.5 -135.5v-670h-38zM400 -19q-145 0 -223.5 67.5t-78.5 197.5v23q0 116 72 179.5t241 88.5l362 54
l1 -34l-356 -52q-150 -22 -216.5 -76t-66.5 -158v-23q0 -115 69.5 -174.5t200.5 -59.5q104 0 178.5 40.5t119.5 110t58 156.5l19 -37h-12q-8 -79 -52 -148.5t-123 -112t-193 -42.5zM457 -325q-21 0 -32 13.5t-11 41.5v6q0 26 11 39.5t32 13.5q22 0 33 -13.5t11 -39.5v-6
q0 -28 -11 -41.5t-33 -13.5z" />
    <glyph glyph-name="uni1EA2" unicode="&#x1ea2;" horiz-adv-x="1097" 
d="M76 0l430 1278h83l432 -1278h-41l-419 1246h-27l-417 -1246h-41zM254 452v35h588v-35h-588zM524 1405q101 26 152 68t51 113q0 62 -39 95.5t-111 33.5q-38 0 -73.5 -10.5t-60.5 -25.5l-5 -34q31 17 66 27.5t69 10.5q119 0 119 -98q0 -60 -44 -92.5t-131 -57.5z" />
    <glyph glyph-name="uni1EA3" unicode="&#x1ea3;" horiz-adv-x="938" 
d="M754 0l4 256l-3 7v321v85q0 140 -70.5 213.5t-217.5 73.5q-109 0 -195 -35.5t-145 -80.5l5 42q31 24 78.5 49t112 42t144.5 17q83 0 144 -21.5t101.5 -62.5t60 -100.5t19.5 -135.5v-670h-38zM400 -19q-145 0 -223.5 67.5t-78.5 197.5v23q0 116 72 179.5t241 88.5l362 54
l1 -34l-356 -52q-150 -22 -216.5 -76t-66.5 -158v-23q0 -115 69.5 -174.5t200.5 -59.5q104 0 178.5 40.5t119.5 110t58 156.5l19 -37h-12q-8 -79 -52 -148.5t-123 -112t-193 -42.5zM432 1105q101 26 152 68t51 113q0 62 -39 95.5t-111 33.5q-38 0 -73.5 -10.5t-60.5 -25.5
l-5 -34q31 17 66 27.5t69 10.5q119 0 119 -98q0 -60 -44 -92.5t-131 -57.5z" />
    <glyph glyph-name="uni1EA4" unicode="&#x1ea4;" horiz-adv-x="1097" 
d="M76 0l430 1278h83l432 -1278h-41l-419 1246h-27l-417 -1246h-41zM254 452v35h588v-35h-588zM908 1844h43v-1l-176 -202h-36v1zM525 1647h48l240 -228v-1h-42l-219 198h-6l-219 -198h-42v1z" />
    <glyph glyph-name="uni1EA5" unicode="&#x1ea5;" horiz-adv-x="938" 
d="M754 0l4 256l-3 7v321v85q0 140 -70.5 213.5t-217.5 73.5q-109 0 -195 -35.5t-145 -80.5l5 42q31 24 78.5 49t112 42t144.5 17q83 0 144 -21.5t101.5 -62.5t60 -100.5t19.5 -135.5v-670h-38zM400 -19q-145 0 -223.5 67.5t-78.5 197.5v23q0 116 72 179.5t241 88.5l362 54
l1 -34l-356 -52q-150 -22 -216.5 -76t-66.5 -158v-23q0 -115 69.5 -174.5t200.5 -59.5q104 0 178.5 40.5t119.5 110t58 156.5l19 -37h-12q-8 -79 -52 -148.5t-123 -112t-193 -42.5zM823 1566h44v-1l-176 -225h-36v1zM432 1355h50l204 -248v-1h-39l-187 217h-6l-187 -217h-39
v1z" />
    <glyph glyph-name="uni1EA6" unicode="&#x1ea6;" horiz-adv-x="1097" 
d="M76 0l430 1278h83l432 -1278h-41l-419 1246h-27l-417 -1246h-41zM254 452v35h588v-35h-588zM704 1844l169 -202v-1h-36l-176 202v1h43zM525 1647h48l240 -228v-1h-42l-219 198h-6l-219 -198h-42v1z" />
    <glyph glyph-name="uni1EA7" unicode="&#x1ea7;" horiz-adv-x="938" 
d="M754 0l4 256l-3 7v321v85q0 140 -70.5 213.5t-217.5 73.5q-109 0 -195 -35.5t-145 -80.5l5 42q31 24 78.5 49t112 42t144.5 17q83 0 144 -21.5t101.5 -62.5t60 -100.5t19.5 -135.5v-670h-38zM400 -19q-145 0 -223.5 67.5t-78.5 197.5v23q0 116 72 179.5t241 88.5l362 54
l1 -34l-356 -52q-150 -22 -216.5 -76t-66.5 -158v-23q0 -115 69.5 -174.5t200.5 -59.5q104 0 178.5 40.5t119.5 110t58 156.5l19 -37h-12q-8 -79 -52 -148.5t-123 -112t-193 -42.5zM628 1571l168 -225v-1h-36l-176 225v1h44zM432 1360h50l204 -248v-1h-39l-187 217h-6
l-187 -217h-39v1z" />
    <glyph glyph-name="uni1EA8" unicode="&#x1ea8;" horiz-adv-x="1097" 
d="M76 0l430 1278h83l432 -1278h-41l-419 1246h-27l-417 -1246h-41zM254 452v35h588v-35h-588zM750 1636q79 20 121 55.5t42 90.5q0 53 -31 81.5t-89 28.5q-34 0 -64.5 -8.5t-50.5 -18.5l-5 -32q26 11 55.5 19.5t60.5 8.5q90 0 90 -80q0 -45 -34.5 -71.5t-100.5 -44.5z
M525 1647h48l240 -228v-1h-42l-219 198h-6l-219 -198h-42v1z" />
    <glyph glyph-name="uni1EA9" unicode="&#x1ea9;" horiz-adv-x="938" 
d="M754 0l4 256l-3 7v321v85q0 140 -70.5 213.5t-217.5 73.5q-109 0 -195 -35.5t-145 -80.5l5 42q31 24 78.5 49t112 42t144.5 17q83 0 144 -21.5t101.5 -62.5t60 -100.5t19.5 -135.5v-670h-38zM400 -19q-145 0 -223.5 67.5t-78.5 197.5v23q0 116 72 179.5t241 88.5l362 54
l1 -34l-356 -52q-150 -22 -216.5 -76t-66.5 -158v-23q0 -115 69.5 -174.5t200.5 -59.5q104 0 178.5 40.5t119.5 110t58 156.5l19 -37h-12q-8 -79 -52 -148.5t-123 -112t-193 -42.5zM693 1323q80 22 121.5 58t41.5 96q0 59 -31.5 88.5t-90.5 29.5q-32 0 -62.5 -8.5
t-50.5 -18.5l-5 -32q26 11 55.5 19.5t58.5 8.5q92 0 92 -88q0 -49 -34.5 -76.5t-100.5 -47.5zM432 1360h50l204 -248v-1h-39l-187 217h-6l-187 -217h-39v1z" />
    <glyph glyph-name="uni1EAA" unicode="&#x1eaa;" horiz-adv-x="1097" 
d="M76 0l430 1278h83l432 -1278h-41l-419 1246h-27l-417 -1246h-41zM254 452v35h588v-35h-588zM674 1769q-36 0 -68 15.5t-61.5 35.5t-58.5 35.5t-60 15.5q-37 0 -52.5 -23.5t-15.5 -66.5v-18h-30v21q0 50 20.5 84t79.5 34q35 0 66.5 -15.5t61.5 -35.5t59.5 -35.5
t60.5 -15.5q38 0 52 23.5t14 66.5v19h32v-23q0 -51 -20.5 -84t-79.5 -33zM525 1647h48l240 -228v-1h-42l-219 198h-6l-219 -198h-42v1z" />
    <glyph glyph-name="uni1EAB" unicode="&#x1eab;" horiz-adv-x="938" 
d="M754 0l4 256l-3 7v321v85q0 140 -70.5 213.5t-217.5 73.5q-109 0 -195 -35.5t-145 -80.5l5 42q31 24 78.5 49t112 42t144.5 17q83 0 144 -21.5t101.5 -62.5t60 -100.5t19.5 -135.5v-670h-38zM400 -19q-145 0 -223.5 67.5t-78.5 197.5v23q0 116 72 179.5t241 88.5l362 54
l1 -34l-356 -52q-150 -22 -216.5 -76t-66.5 -158v-23q0 -115 69.5 -174.5t200.5 -59.5q104 0 178.5 40.5t119.5 110t58 156.5l19 -37h-12q-8 -79 -52 -148.5t-123 -112t-193 -42.5zM583 1493q-36 0 -69 15t-63.5 35t-60.5 35t-61 15q-35 0 -50 -23t-15 -67v-25h-30v28
q0 51 20 85t77 34q35 0 67.5 -15.5t63.5 -35t61.5 -35t61.5 -15.5q35 0 49 23t14 66v28h32v-32q0 -50 -20.5 -83t-76.5 -33zM432 1360h50l204 -248v-1h-39l-187 217h-6l-187 -217h-39v1z" />
    <glyph glyph-name="uni1EAC" unicode="&#x1eac;" horiz-adv-x="1097" 
d="M76 0l430 1278h83l432 -1278h-41l-419 1246h-27l-417 -1246h-41zM254 452v35h588v-35h-588zM548 -323q-21 0 -32 13.5t-11 41.5v4q0 26 11 39.5t32 13.5q22 0 33 -13.5t11 -39.5v-4q0 -28 -11 -41.5t-33 -13.5zM525 1647h48l240 -228v-1h-42l-219 198h-6l-219 -198h-42v1
z" />
    <glyph glyph-name="uni1EAD" unicode="&#x1ead;" horiz-adv-x="938" 
d="M754 0l4 256l-3 7v321v85q0 140 -70.5 213.5t-217.5 73.5q-109 0 -195 -35.5t-145 -80.5l5 42q31 24 78.5 49t112 42t144.5 17q83 0 144 -21.5t101.5 -62.5t60 -100.5t19.5 -135.5v-670h-38zM400 -19q-145 0 -223.5 67.5t-78.5 197.5v23q0 116 72 179.5t241 88.5l362 54
l1 -34l-356 -52q-150 -22 -216.5 -76t-66.5 -158v-23q0 -115 69.5 -174.5t200.5 -59.5q104 0 178.5 40.5t119.5 110t58 156.5l19 -37h-12q-8 -79 -52 -148.5t-123 -112t-193 -42.5zM457 -325q-21 0 -32 13.5t-11 41.5v6q0 26 11 39.5t32 13.5q22 0 33 -13.5t11 -39.5v-6
q0 -28 -11 -41.5t-33 -13.5zM432 1360h50l204 -248v-1h-39l-187 217h-6l-187 -217h-39v1z" />
    <glyph glyph-name="uni1EAE" unicode="&#x1eae;" horiz-adv-x="1097" 
d="M76 0l430 1278h83l432 -1278h-41l-419 1246h-27l-417 -1246h-41zM254 452v35h588v-35h-588zM704 1922h43v-1l-176 -202h-36v1zM548 1410q-109 0 -162 59.5t-55 177.5h33q2 -106 48 -156t136 -50q91 0 137.5 50t47.5 156h33q-2 -118 -55 -177.5t-163 -59.5z" />
    <glyph glyph-name="uni1EAF" unicode="&#x1eaf;" horiz-adv-x="938" 
d="M754 0l4 256l-3 7v321v85q0 140 -70.5 213.5t-217.5 73.5q-109 0 -195 -35.5t-145 -80.5l5 42q31 24 78.5 49t112 42t144.5 17q83 0 144 -21.5t101.5 -62.5t60 -100.5t19.5 -135.5v-670h-38zM400 -19q-145 0 -223.5 67.5t-78.5 197.5v23q0 116 72 179.5t241 88.5l362 54
l1 -34l-356 -52q-150 -22 -216.5 -76t-66.5 -158v-23q0 -115 69.5 -174.5t200.5 -59.5q104 0 178.5 40.5t119.5 110t58 156.5l19 -37h-12q-8 -79 -52 -148.5t-123 -112t-193 -42.5zM614 1666h44v-1l-176 -225h-36v1zM457 1105q-104 0 -156 62.5t-55 192.5h33
q2 -117 47.5 -170.5t130.5 -53.5q86 0 131.5 53.5t47.5 170.5h33q-3 -130 -55 -192.5t-157 -62.5z" />
    <glyph glyph-name="uni1EB0" unicode="&#x1eb0;" horiz-adv-x="1097" 
d="M76 0l430 1278h83l432 -1278h-41l-419 1246h-27l-417 -1246h-41zM254 452v35h588v-35h-588zM397 1922l169 -202v-1h-36l-176 202v1h43zM548 1410q-109 0 -162 59.5t-55 177.5h33q2 -106 48 -156t136 -50q91 0 137.5 50t47.5 156h33q-2 -118 -55 -177.5t-163 -59.5z" />
    <glyph glyph-name="uni1EB1" unicode="&#x1eb1;" horiz-adv-x="938" 
d="M754 0l4 256l-3 7v321v85q0 140 -70.5 213.5t-217.5 73.5q-109 0 -195 -35.5t-145 -80.5l5 42q31 24 78.5 49t112 42t144.5 17q83 0 144 -21.5t101.5 -62.5t60 -100.5t19.5 -135.5v-670h-38zM400 -19q-145 0 -223.5 67.5t-78.5 197.5v23q0 116 72 179.5t241 88.5l362 54
l1 -34l-356 -52q-150 -22 -216.5 -76t-66.5 -158v-23q0 -115 69.5 -174.5t200.5 -59.5q104 0 178.5 40.5t119.5 110t58 156.5l19 -37h-12q-8 -79 -52 -148.5t-123 -112t-193 -42.5zM302 1666l168 -225v-1h-36l-176 225v1h44zM457 1105q-104 0 -156 62.5t-55 192.5h33
q2 -117 47.5 -170.5t130.5 -53.5q86 0 131.5 53.5t47.5 170.5h33q-3 -130 -55 -192.5t-157 -62.5z" />
    <glyph glyph-name="uni1EB2" unicode="&#x1eb2;" horiz-adv-x="1097" 
d="M76 0l430 1278h83l432 -1278h-41l-419 1246h-27l-417 -1246h-41zM254 452v35h588v-35h-588zM535 1707q79 20 121 55.5t42 90.5q0 53 -31 81.5t-89 28.5q-34 0 -64.5 -8.5t-50.5 -18.5l-5 -32q26 11 55.5 19.5t60.5 8.5q90 0 90 -80q0 -45 -34.5 -71.5t-100.5 -44.5z
M548 1410q-109 0 -162 59.5t-55 177.5h33q2 -106 48 -156t136 -50q91 0 137.5 50t47.5 156h33q-2 -118 -55 -177.5t-163 -59.5z" />
    <glyph glyph-name="uni1EB3" unicode="&#x1eb3;" horiz-adv-x="938" 
d="M754 0l4 256l-3 7v321v85q0 140 -70.5 213.5t-217.5 73.5q-109 0 -195 -35.5t-145 -80.5l5 42q31 24 78.5 49t112 42t144.5 17q83 0 144 -21.5t101.5 -62.5t60 -100.5t19.5 -135.5v-670h-38zM400 -19q-145 0 -223.5 67.5t-78.5 197.5v23q0 116 72 179.5t241 88.5l362 54
l1 -34l-356 -52q-150 -22 -216.5 -76t-66.5 -158v-23q0 -115 69.5 -174.5t200.5 -59.5q104 0 178.5 40.5t119.5 110t58 156.5l19 -37h-12q-8 -79 -52 -148.5t-123 -112t-193 -42.5zM444 1422q80 22 121.5 58t41.5 96q0 59 -31.5 88.5t-90.5 29.5q-32 0 -62.5 -8.5
t-50.5 -18.5l-5 -32q26 11 55.5 19.5t58.5 8.5q92 0 92 -88q0 -49 -34.5 -76.5t-100.5 -47.5zM457 1105q-104 0 -156 62.5t-55 192.5h33q2 -117 47.5 -170.5t130.5 -53.5q86 0 131.5 53.5t47.5 170.5h33q-3 -130 -55 -192.5t-157 -62.5z" />
    <glyph glyph-name="uni1EB4" unicode="&#x1eb4;" horiz-adv-x="1097" 
d="M76 0l430 1278h83l432 -1278h-41l-419 1246h-27l-417 -1246h-41zM254 452v35h588v-35h-588zM672 1769q-36 0 -68 15.5t-61.5 35.5t-58.5 35.5t-60 15.5q-37 0 -52.5 -23.5t-15.5 -66.5v-18h-30v21q0 50 20.5 84t79.5 34q35 0 66.5 -15.5t61.5 -35.5t59.5 -35.5
t60.5 -15.5q38 0 52 23.5t14 66.5v19h32v-23q0 -51 -20.5 -84t-79.5 -33zM548 1410q-109 0 -162 59.5t-55 177.5h33q2 -106 48 -156t136 -50q91 0 137.5 50t47.5 156h33q-2 -118 -55 -177.5t-163 -59.5z" />
    <glyph glyph-name="uni1EB5" unicode="&#x1eb5;" horiz-adv-x="938" 
d="M754 0l4 256l-3 7v321v85q0 140 -70.5 213.5t-217.5 73.5q-109 0 -195 -35.5t-145 -80.5l5 42q31 24 78.5 49t112 42t144.5 17q83 0 144 -21.5t101.5 -62.5t60 -100.5t19.5 -135.5v-670h-38zM400 -19q-145 0 -223.5 67.5t-78.5 197.5v23q0 116 72 179.5t241 88.5l362 54
l1 -34l-356 -52q-150 -22 -216.5 -76t-66.5 -158v-23q0 -115 69.5 -174.5t200.5 -59.5q104 0 178.5 40.5t119.5 110t58 156.5l19 -37h-12q-8 -79 -52 -148.5t-123 -112t-193 -42.5zM584 1493q-36 0 -69 15t-63.5 35t-60.5 35t-61 15q-35 0 -50 -23t-15 -67v-25h-30v28
q0 51 20 85t77 34q35 0 67.5 -15.5t63.5 -35t61.5 -35t61.5 -15.5q35 0 49 23t14 66v28h32v-32q0 -50 -20.5 -83t-76.5 -33zM457 1105q-104 0 -156 62.5t-55 192.5h33q2 -117 47.5 -170.5t130.5 -53.5q86 0 131.5 53.5t47.5 170.5h33q-3 -130 -55 -192.5t-157 -62.5z" />
    <glyph glyph-name="uni1EB6" unicode="&#x1eb6;" horiz-adv-x="1097" 
d="M76 0l430 1278h83l432 -1278h-41l-419 1246h-27l-417 -1246h-41zM254 452v35h588v-35h-588zM548 -323q-21 0 -32 13.5t-11 41.5v4q0 26 11 39.5t32 13.5q22 0 33 -13.5t11 -39.5v-4q0 -28 -11 -41.5t-33 -13.5zM548 1410q-109 0 -162 59.5t-55 177.5h33q2 -106 48 -156
t136 -50q91 0 137.5 50t47.5 156h33q-2 -118 -55 -177.5t-163 -59.5z" />
    <glyph glyph-name="uni1EB7" unicode="&#x1eb7;" horiz-adv-x="938" 
d="M754 0l4 256l-3 7v321v85q0 140 -70.5 213.5t-217.5 73.5q-109 0 -195 -35.5t-145 -80.5l5 42q31 24 78.5 49t112 42t144.5 17q83 0 144 -21.5t101.5 -62.5t60 -100.5t19.5 -135.5v-670h-38zM400 -19q-145 0 -223.5 67.5t-78.5 197.5v23q0 116 72 179.5t241 88.5l362 54
l1 -34l-356 -52q-150 -22 -216.5 -76t-66.5 -158v-23q0 -115 69.5 -174.5t200.5 -59.5q104 0 178.5 40.5t119.5 110t58 156.5l19 -37h-12q-8 -79 -52 -148.5t-123 -112t-193 -42.5zM457 -325q-21 0 -32 13.5t-11 41.5v6q0 26 11 39.5t32 13.5q22 0 33 -13.5t11 -39.5v-6
q0 -28 -11 -41.5t-33 -13.5zM457 1105q-104 0 -156 62.5t-55 192.5h33q2 -117 47.5 -170.5t130.5 -53.5q86 0 131.5 53.5t47.5 170.5h33q-3 -130 -55 -192.5t-157 -62.5z" />
    <glyph glyph-name="uni1EB8" unicode="&#x1eb8;" horiz-adv-x="1014" 
d="M185 0v1278h39v-1278h-39zM198 0v35h700v-35h-700zM205 638v35h674v-35h-674zM196 1243v35h697v-35h-697zM547 -323q-21 0 -32 13.5t-11 41.5v4q0 26 11 39.5t32 13.5q22 0 33 -13.5t11 -39.5v-4q0 -28 -11 -41.5t-33 -13.5z" />
    <glyph glyph-name="uni1EB9" unicode="&#x1eb9;" horiz-adv-x="950" 
d="M503 -19q-183 0 -284 99.5t-101 280.5v224q0 200 93.5 304.5t271.5 104.5q117 0 198.5 -47t123.5 -136.5t42 -217.5v-34q0 -22 -0.5 -44t-2.5 -49h-34v67v59q0 119 -37.5 201t-110.5 125t-179 43q-160 0 -244 -96t-84 -280v-98v-8v-117q0 -82 23.5 -146t68.5 -108.5
t110 -68t147 -23.5q95 0 175 29.5t150 84.5l-5 -44q-59 -48 -141 -76.5t-180 -28.5zM135 466v33h696v-33h-696zM489 -325q-21 0 -32 13.5t-11 41.5v6q0 26 11 39.5t32 13.5q22 0 33 -13.5t11 -39.5v-6q0 -28 -11 -41.5t-33 -13.5z" />
    <glyph glyph-name="uni1EBA" unicode="&#x1eba;" horiz-adv-x="1014" 
d="M185 0v1278h39v-1278h-39zM198 0v35h700v-35h-700zM205 638v35h674v-35h-674zM196 1243v35h697v-35h-697zM523 1405q101 26 152 68t51 113q0 62 -39 95.5t-111 33.5q-38 0 -73.5 -10.5t-60.5 -25.5l-5 -34q31 17 66 27.5t69 10.5q119 0 119 -98q0 -60 -44 -92.5
t-131 -57.5z" />
    <glyph glyph-name="uni1EBB" unicode="&#x1ebb;" horiz-adv-x="950" 
d="M503 -19q-183 0 -284 99.5t-101 280.5v224q0 200 93.5 304.5t271.5 104.5q117 0 198.5 -47t123.5 -136.5t42 -217.5v-34q0 -22 -0.5 -44t-2.5 -49h-34v67v59q0 119 -37.5 201t-110.5 125t-179 43q-160 0 -244 -96t-84 -280v-98v-8v-117q0 -82 23.5 -146t68.5 -108.5
t110 -68t147 -23.5q95 0 175 29.5t150 84.5l-5 -44q-59 -48 -141 -76.5t-180 -28.5zM135 466v33h696v-33h-696zM457 1105q101 26 152 68t51 113q0 62 -39 95.5t-111 33.5q-38 0 -73.5 -10.5t-60.5 -25.5l-5 -34q31 17 66 27.5t69 10.5q119 0 119 -98q0 -60 -44 -92.5
t-131 -57.5z" />
    <glyph glyph-name="uni1EBC" unicode="&#x1ebc;" horiz-adv-x="1014" 
d="M185 0v1278h39v-1278h-39zM198 0v35h700v-35h-700zM205 638v35h674v-35h-674zM196 1243v35h697v-35h-697zM689 1448q-41 0 -77.5 17t-70.5 39t-67.5 39t-68.5 17q-38 0 -54 -23t-16 -67v-31h-32v32q0 53 22 87.5t81 34.5q41 0 77 -17t70 -39t68 -39t69 -17q38 0 54 23.5
t16 66.5v30h32v-32q0 -52 -22 -86.5t-81 -34.5z" />
    <glyph glyph-name="uni1EBD" unicode="&#x1ebd;" horiz-adv-x="950" 
d="M503 -19q-183 0 -284 99.5t-101 280.5v224q0 200 93.5 304.5t271.5 104.5q117 0 198.5 -47t123.5 -136.5t42 -217.5v-34q0 -22 -0.5 -44t-2.5 -49h-34v67v59q0 119 -37.5 201t-110.5 125t-179 43q-160 0 -244 -96t-84 -280v-98v-8v-117q0 -82 23.5 -146t68.5 -108.5
t110 -68t147 -23.5q95 0 175 29.5t150 84.5l-5 -44q-59 -48 -141 -76.5t-180 -28.5zM135 466v33h696v-33h-696zM614 1151q-37 0 -70 17.5t-64 40t-61 40t-60 17.5q-36 0 -52.5 -23t-16.5 -73v-28h-31v29q0 64 24 96t76 32q36 0 69 -17.5t64 -40t61.5 -40t60.5 -17.5
q36 0 52 23t16 73v27h32v-29q0 -64 -24 -95.5t-76 -31.5z" />
    <glyph glyph-name="uni1EBE" unicode="&#x1ebe;" horiz-adv-x="1014" 
d="M185 0v1278h39v-1278h-39zM198 0v35h700v-35h-700zM205 638v35h674v-35h-674zM196 1243v35h697v-35h-697zM907 1844h43v-1l-176 -202h-36v1zM524 1647h48l240 -228v-1h-42l-219 198h-6l-219 -198h-42v1z" />
    <glyph glyph-name="uni1EBF" unicode="&#x1ebf;" horiz-adv-x="950" 
d="M503 -19q-183 0 -284 99.5t-101 280.5v224q0 200 93.5 304.5t271.5 104.5q117 0 198.5 -47t123.5 -136.5t42 -217.5v-34q0 -22 -0.5 -44t-2.5 -49h-34v67v59q0 119 -37.5 201t-110.5 125t-179 43q-160 0 -244 -96t-84 -280v-98v-8v-117q0 -82 23.5 -146t68.5 -108.5
t110 -68t147 -23.5q95 0 175 29.5t150 84.5l-5 -44q-59 -48 -141 -76.5t-180 -28.5zM135 466v33h696v-33h-696zM848 1566h44v-1l-176 -225h-36v1zM457 1355h50l204 -248v-1h-39l-187 217h-6l-187 -217h-39v1z" />
    <glyph glyph-name="uni1EC0" unicode="&#x1ec0;" horiz-adv-x="1014" 
d="M185 0v1278h39v-1278h-39zM198 0v35h700v-35h-700zM205 638v35h674v-35h-674zM196 1243v35h697v-35h-697zM703 1844l169 -202v-1h-36l-176 202v1h43zM524 1647h48l240 -228v-1h-42l-219 198h-6l-219 -198h-42v1z" />
    <glyph glyph-name="uni1EC1" unicode="&#x1ec1;" horiz-adv-x="950" 
d="M503 -19q-183 0 -284 99.5t-101 280.5v224q0 200 93.5 304.5t271.5 104.5q117 0 198.5 -47t123.5 -136.5t42 -217.5v-34q0 -22 -0.5 -44t-2.5 -49h-34v67v59q0 119 -37.5 201t-110.5 125t-179 43q-160 0 -244 -96t-84 -280v-98v-8v-117q0 -82 23.5 -146t68.5 -108.5
t110 -68t147 -23.5q95 0 175 29.5t150 84.5l-5 -44q-59 -48 -141 -76.5t-180 -28.5zM135 466v33h696v-33h-696zM653 1571l168 -225v-1h-36l-176 225v1h44zM457 1360h50l204 -248v-1h-39l-187 217h-6l-187 -217h-39v1z" />
    <glyph glyph-name="uni1EC2" unicode="&#x1ec2;" horiz-adv-x="1014" 
d="M185 0v1278h39v-1278h-39zM198 0v35h700v-35h-700zM205 638v35h674v-35h-674zM196 1243v35h697v-35h-697zM749 1636q79 20 121 55.5t42 90.5q0 53 -31 81.5t-89 28.5q-34 0 -64.5 -8.5t-50.5 -18.5l-5 -32q26 11 55.5 19.5t60.5 8.5q90 0 90 -80q0 -45 -34.5 -71.5
t-100.5 -44.5zM524 1647h48l240 -228v-1h-42l-219 198h-6l-219 -198h-42v1z" />
    <glyph glyph-name="uni1EC3" unicode="&#x1ec3;" horiz-adv-x="950" 
d="M503 -19q-183 0 -284 99.5t-101 280.5v224q0 200 93.5 304.5t271.5 104.5q117 0 198.5 -47t123.5 -136.5t42 -217.5v-34q0 -22 -0.5 -44t-2.5 -49h-34v67v59q0 119 -37.5 201t-110.5 125t-179 43q-160 0 -244 -96t-84 -280v-98v-8v-117q0 -82 23.5 -146t68.5 -108.5
t110 -68t147 -23.5q95 0 175 29.5t150 84.5l-5 -44q-59 -48 -141 -76.5t-180 -28.5zM135 466v33h696v-33h-696zM718 1323q80 22 121.5 58t41.5 96q0 59 -31.5 88.5t-90.5 29.5q-32 0 -62.5 -8.5t-50.5 -18.5l-5 -32q26 11 55.5 19.5t58.5 8.5q92 0 92 -88q0 -49 -34.5 -76.5
t-100.5 -47.5zM457 1360h50l204 -248v-1h-39l-187 217h-6l-187 -217h-39v1z" />
    <glyph glyph-name="uni1EC4" unicode="&#x1ec4;" horiz-adv-x="1014" 
d="M185 0v1278h39v-1278h-39zM198 0v35h700v-35h-700zM205 638v35h674v-35h-674zM196 1243v35h697v-35h-697zM673 1769q-36 0 -68 15.5t-61.5 35.5t-58.5 35.5t-60 15.5q-37 0 -52.5 -23.5t-15.5 -66.5v-18h-30v21q0 50 20.5 84t79.5 34q35 0 66.5 -15.5t61.5 -35.5
t59.5 -35.5t60.5 -15.5q38 0 52 23.5t14 66.5v19h32v-23q0 -51 -20.5 -84t-79.5 -33zM524 1647h48l240 -228v-1h-42l-219 198h-6l-219 -198h-42v1z" />
    <glyph glyph-name="uni1EC5" unicode="&#x1ec5;" horiz-adv-x="950" 
d="M503 -19q-183 0 -284 99.5t-101 280.5v224q0 200 93.5 304.5t271.5 104.5q117 0 198.5 -47t123.5 -136.5t42 -217.5v-34q0 -22 -0.5 -44t-2.5 -49h-34v67v59q0 119 -37.5 201t-110.5 125t-179 43q-160 0 -244 -96t-84 -280v-98v-8v-117q0 -82 23.5 -146t68.5 -108.5
t110 -68t147 -23.5q95 0 175 29.5t150 84.5l-5 -44q-59 -48 -141 -76.5t-180 -28.5zM135 466v33h696v-33h-696zM608 1493q-36 0 -69 15t-63.5 35t-60.5 35t-61 15q-35 0 -50 -23t-15 -67v-25h-30v28q0 51 20 85t77 34q35 0 67.5 -15.5t63.5 -35t61.5 -35t61.5 -15.5
q35 0 49 23t14 66v28h32v-32q0 -50 -20.5 -83t-76.5 -33zM457 1360h50l204 -248v-1h-39l-187 217h-6l-187 -217h-39v1z" />
    <glyph glyph-name="uni1EC6" unicode="&#x1ec6;" horiz-adv-x="1014" 
d="M185 0v1278h39v-1278h-39zM198 0v35h700v-35h-700zM205 638v35h674v-35h-674zM196 1243v35h697v-35h-697zM547 -323q-21 0 -32 13.5t-11 41.5v4q0 26 11 39.5t32 13.5q22 0 33 -13.5t11 -39.5v-4q0 -28 -11 -41.5t-33 -13.5zM524 1647h48l240 -228v-1h-42l-219 198h-6
l-219 -198h-42v1z" />
    <glyph glyph-name="uni1EC7" unicode="&#x1ec7;" horiz-adv-x="950" 
d="M503 -19q-183 0 -284 99.5t-101 280.5v224q0 200 93.5 304.5t271.5 104.5q117 0 198.5 -47t123.5 -136.5t42 -217.5v-34q0 -22 -0.5 -44t-2.5 -49h-34v67v59q0 119 -37.5 201t-110.5 125t-179 43q-160 0 -244 -96t-84 -280v-98v-8v-117q0 -82 23.5 -146t68.5 -108.5
t110 -68t147 -23.5q95 0 175 29.5t150 84.5l-5 -44q-59 -48 -141 -76.5t-180 -28.5zM135 466v33h696v-33h-696zM489 -325q-21 0 -32 13.5t-11 41.5v6q0 26 11 39.5t32 13.5q22 0 33 -13.5t11 -39.5v-6q0 -28 -11 -41.5t-33 -13.5zM457 1360h50l204 -248v-1h-39l-187 217h-6
l-187 -217h-39v1z" />
    <glyph glyph-name="uni1EC8" unicode="&#x1ec8;" horiz-adv-x="415" 
d="M227 0h-39v1278h39v-1278zM183 1405q101 26 152 68t51 113q0 62 -39 95.5t-111 33.5q-38 0 -73.5 -10.5t-60.5 -25.5l-5 -34q31 17 66 27.5t69 10.5q119 0 119 -98q0 -60 -44 -92.5t-131 -57.5z" />
    <glyph glyph-name="uni1EC9" unicode="&#x1ec9;" horiz-adv-x="372" 
d="M167 0v971h38v-971h-38zM161 1105q101 26 152 68t51 113q0 62 -39 95.5t-111 33.5q-38 0 -73.5 -10.5t-60.5 -25.5l-5 -34q31 17 66 27.5t69 10.5q119 0 119 -98q0 -60 -44 -92.5t-131 -57.5z" />
    <glyph glyph-name="uni1ECA" unicode="&#x1eca;" horiz-adv-x="415" 
d="M227 0h-39v1278h39v-1278zM207 -323q-21 0 -32 13.5t-11 41.5v4q0 26 11 39.5t32 13.5q22 0 33 -13.5t11 -39.5v-4q0 -28 -11 -41.5t-33 -13.5z" />
    <glyph glyph-name="uni1ECB" unicode="&#x1ecb;" horiz-adv-x="369" 
d="M166 0v971h37v-971h-37zM185 1189q-21 0 -32 13.5t-11 41.5v9q0 27 11 40.5t32 13.5t31.5 -13.5t10.5 -40.5v-9q0 -28 -10.5 -41.5t-31.5 -13.5zM185 -325q-21 0 -32 13.5t-11 41.5v6q0 26 11 39.5t32 13.5q22 0 33 -13.5t11 -39.5v-6q0 -28 -11 -41.5t-33 -13.5z" />
    <glyph glyph-name="uni1ECC" unicode="&#x1ecc;" horiz-adv-x="1133" 
d="M566 -18q-213 0 -326 125.5t-113 357.5v348q0 232 113 357.5t326 125.5t326.5 -125.5t113.5 -357.5v-348q0 -232 -113.5 -357.5t-326.5 -125.5zM566 18q197 0 299 116.5t102 330.5v349q0 214 -102 330t-299 116q-196 0 -298 -116t-102 -330v-349q0 -214 102 -330.5
t298 -116.5zM566 -323q-21 0 -32 13.5t-11 41.5v4q0 26 11 39.5t32 13.5q22 0 33 -13.5t11 -39.5v-4q0 -28 -11 -41.5t-33 -13.5z" />
    </font>
</defs>
</svg>
