<?xml version="1.0" standalone="no"?>
<!DOCTYPE svg PUBLIC "-//W3C//DTD SVG 1.1//EN" "http://www.w3.org/Graphics/SVG/1.1/DTD/svg11.dtd" >
<svg xmlns="http://www.w3.org/2000/svg" xmlns:xlink="http://www.w3.org/1999/xlink" version="1.1">
<metadata>
Created by FontForge 20190801 at Mon Feb 14 12:33:15 2022
 By root
Copyright 2021 The Anek Project Authors (https://github.com/EkType/Anek)
</metadata>
<defs>
<font id="AnekGurmukhi-Light" horiz-adv-x="0" >
  <font-face 
    font-family="Anek Gurmukhi Light"
    font-weight="300"
    font-stretch="normal"
    units-per-em="2000"
    panose-1="0 0 0 0 0 0 0 0 0 0"
    ascent="1600"
    descent="-400"
    x-height="975"
    cap-height="1278"
    bbox="-413 -1062 2502 2021"
    underline-thickness="50"
    underline-position="-125"
    unicode-range="U+000D-FB02"
  />
<missing-glyph horiz-adv-x="1160" 
d="M185 0v1278h790v-1278h-790zM224 35h712v1208h-712v-1208zM210 0l695 1266h40l-695 -1266h-40zM950 0h-40l-695 1266h40z" />
    <glyph glyph-name="fi" unicode="fi" horiz-adv-x="1160" 
d="M464 1351q74 0 131.5 -13t107.5 -34l12 -97q-52 19 -103 30.5t-114 11.5q-81 0 -129.5 -21.5t-70 -60.5t-21.5 -95v-5q0 -39 9.5 -74t20.5 -63l-85 -5v16q-24 26 -43.5 69t-19.5 98v5q0 108 73 173t232 65zM191 0v899h121v-899h-121zM22 842v98l216 -1l48 1h423l-11 -98
h-676zM893 0v975h122v-975h-122zM954 1153q-40 0 -60.5 22t-20.5 63v7q0 40 20.5 62t60.5 22q41 0 61 -22t20 -62v-7q0 -41 -20 -63t-61 -22z" />
    <glyph glyph-name="fl" unicode="fl" horiz-adv-x="1166" 
d="M464 1351q74 0 131.5 -13t107.5 -34l12 -97q-52 19 -103 30.5t-114 11.5q-81 0 -129.5 -21.5t-70 -60.5t-21.5 -95v-5q0 -39 9.5 -74t20.5 -63l-85 -5v16q-24 26 -43.5 69t-19.5 98v5q0 108 73 173t232 65zM191 0v899h121v-899h-121zM22 842v98l216 -1l48 1h423l-11 -98
h-676zM898 0v1326h121v-1326h-121z" />
    <glyph glyph-name="f_f" unicode="ff" horiz-adv-x="1395" 
d="M464 1351q74 0 131.5 -13t107.5 -34l12 -97q-52 19 -103 30.5t-114 11.5q-81 0 -129.5 -21.5t-70 -60.5t-21.5 -95v-5q0 -39 9.5 -74t20.5 -63l-85 -5v16q-24 26 -43.5 69t-19.5 98v5q0 108 73 173t232 65zM191 0v899h121v-899h-121zM22 842v98l216 -1l48 1h423l-11 -98
h-676zM1108 1351q74 0 131.5 -13t107.5 -34l12 -97q-52 19 -103 30.5t-114 11.5q-81 0 -129.5 -21.5t-70 -60.5t-21.5 -95v-5q0 -39 9.5 -74t20.5 -63l-85 -5v16q-24 26 -43.5 69t-19.5 98v5q0 108 73 173t232 65zM835 0v899h121v-899h-121zM666 842v98l216 -1l48 1h423
l-11 -98h-676z" />
    <glyph glyph-name="f_f_i" unicode="ffi" horiz-adv-x="1804" 
d="M464 1351q74 0 131.5 -13t107.5 -34l12 -97q-52 19 -103 30.5t-114 11.5q-81 0 -129.5 -21.5t-70 -60.5t-21.5 -95v-5q0 -39 9.5 -74t20.5 -63l-85 -5v16q-24 26 -43.5 69t-19.5 98v5q0 108 73 173t232 65zM191 0v899h121v-899h-121zM22 842v98l216 -1l48 1h423l-11 -98
h-676zM1108 1351q74 0 131.5 -13t107.5 -34l12 -97q-52 19 -103 30.5t-114 11.5q-81 0 -129.5 -21.5t-70 -60.5t-21.5 -95v-5q0 -39 9.5 -74t20.5 -63l-85 -5v16q-24 26 -43.5 69t-19.5 98v5q0 108 73 173t232 65zM835 0v899h121v-899h-121zM666 842v98l216 -1l48 1h423
l-11 -98h-676zM1537 0v975h122v-975h-122zM1598 1153q-40 0 -60.5 22t-20.5 63v7q0 40 20.5 62t60.5 22q41 0 61 -22t20 -62v-7q0 -41 -20 -63t-61 -22z" />
    <glyph glyph-name="f_f_l" unicode="ffl" horiz-adv-x="1810" 
d="M464 1351q74 0 131.5 -13t107.5 -34l12 -97q-52 19 -103 30.5t-114 11.5q-81 0 -129.5 -21.5t-70 -60.5t-21.5 -95v-5q0 -39 9.5 -74t20.5 -63l-85 -5v16q-24 26 -43.5 69t-19.5 98v5q0 108 73 173t232 65zM191 0v899h121v-899h-121zM22 842v98l216 -1l48 1h423l-11 -98
h-676zM1108 1351q74 0 131.5 -13t107.5 -34l12 -97q-52 19 -103 30.5t-114 11.5q-81 0 -129.5 -21.5t-70 -60.5t-21.5 -95v-5q0 -39 9.5 -74t20.5 -63l-85 -5v16q-24 26 -43.5 69t-19.5 98v5q0 108 73 173t232 65zM835 0v899h121v-899h-121zM666 842v98l216 -1l48 1h423
l-11 -98h-676zM1542 0v1326h121v-1326h-121z" />
    <glyph glyph-name=".notdef" horiz-adv-x="1160" 
d="M185 0v1278h790v-1278h-790zM224 35h712v1208h-712v-1208zM210 0l695 1266h40l-695 -1266h-40zM950 0h-40l-695 1266h40z" />
    <glyph glyph-name="NULL" horiz-adv-x="479" 
 />
    <glyph glyph-name="CR" unicode="&#xd;" horiz-adv-x="2006" 
 />
    <glyph glyph-name="space" unicode=" " horiz-adv-x="560" 
 />
    <glyph glyph-name="exclam" unicode="!" horiz-adv-x="451" 
d="M276 383h-101l-15 895h130zM225 -17q-42 0 -62 24t-20 68v10q0 44 20 67.5t62 23.5t62.5 -23.5t20.5 -67.5v-10q0 -44 -20.5 -68t-62.5 -24z" />
    <glyph glyph-name="quotedbl" unicode="&#x22;" horiz-adv-x="658" 
d="M218 850h-96l-12 476h121zM535 850h-96l-12 476h121z" />
    <glyph glyph-name="numbersign" unicode="#" horiz-adv-x="1181" 
d="M237 0l157 1278h101l-157 -1278h-101zM71 350v90h982v-90h-982zM690 0l154 1278h102l-154 -1278h-102zM132 844v91h979v-91h-979z" />
    <glyph glyph-name="percent" unicode="%" horiz-adv-x="1441" 
d="M283 0l761 1278h117l-762 -1278h-116zM1087 -22q-125 0 -191 73t-66 199v95q0 127 66.5 199.5t190.5 72.5q125 0 191 -72t66 -200v-95q0 -126 -66.5 -199t-190.5 -73zM1087 64q76 0 116 47.5t40 136.5v99q0 89 -40 136.5t-116 47.5t-116 -47.5t-40 -136.5v-99
q0 -89 40.5 -136.5t115.5 -47.5zM354 662q-125 0 -191.5 72.5t-66.5 198.5v96q0 126 66.5 198.5t191.5 72.5q124 0 190.5 -72.5t66.5 -198.5v-96q0 -126 -66.5 -198.5t-190.5 -72.5zM354 748q75 0 115 47t40 136v100q0 88 -40 135.5t-115 47.5q-76 0 -116 -47.5t-40 -135.5
v-100q0 -89 40.5 -136t115.5 -47z" />
    <glyph glyph-name="ampersand" unicode="&#x26;" horiz-adv-x="1228" 
d="M1089 0q-21 21 -51.5 51t-63 62.5t-62 61.5t-47.5 46l-17 20l-504 475l-19 21q-64 65 -96 125.5t-32 140.5v7q0 133 84.5 211t264.5 78q118 0 201 -26t134 -58l13 -115q-62 36 -144 63t-186 27q-128 0 -183.5 -49.5t-55.5 -132.5v-7q0 -62 31 -113t89 -107l477 -454
l29 -32q27 -26 55 -53.5t56.5 -56.5t58 -58.5t58.5 -59t56 -57.5v-10h-146zM508 -21q-202 0 -305 97.5t-103 280.5v42q0 134 51.5 225.5t179.5 155.5l67 -87q-92 -41 -131.5 -109t-39.5 -176v-41q0 -140 74.5 -211.5t217.5 -71.5q117 0 198.5 51.5t140.5 146.5l31 41
q50 93 80 210t43 256h121q-18 -167 -56.5 -304.5t-102.5 -241.5l-32 -34q-50 -73 -112 -124t-141 -78.5t-181 -27.5z" />
    <glyph glyph-name="quotesingle" unicode="'" horiz-adv-x="341" 
d="M218 850h-96l-12 476h121z" />
    <glyph glyph-name="parenleft" unicode="(" horiz-adv-x="568" 
d="M269 625v-139q0 -150 25.5 -276.5t77.5 -236.5t132 -213h-129q-76 97 -125.5 204.5t-74 234.5t-24.5 283v147q0 155 24.5 281.5t74.5 234.5t126 206h128q-80 -102 -132 -212.5t-77.5 -236.5t-25.5 -277z" />
    <glyph glyph-name="parenright" unicode=")" horiz-adv-x="569" 
d="M300 625q0 151 -25.5 277t-77 236.5t-132.5 212.5h128q76 -98 126 -206t74.5 -234.5t24.5 -281.5v-147q0 -156 -24.5 -283t-74 -234.5t-125.5 -204.5h-129q81 103 132.5 213t77 236.5t25.5 276.5v139z" />
    <glyph glyph-name="asterisk" unicode="*" horiz-adv-x="760" 
d="M222 682l-85 60l179 208l1 -3l-254 61l25 99l252 -88l-1 -3l-14 262h110l-14 -262l-2 3l252 88l26 -99l-255 -61l1 3l179 -208l-85 -60l-158 221h1z" />
    <glyph glyph-name="plus" unicode="+" horiz-adv-x="998" 
d="M553 204h-107v838h107v-838zM109 573v100h780v-100h-780z" />
    <glyph glyph-name="comma" unicode="," horiz-adv-x="351" 
d="M238 255q3 -17 6.5 -47.5t3.5 -65.5q0 -118 -32 -217.5t-110 -192.5l-83 31q55 83 80.5 173.5t25.5 200.5q0 31 -2 60.5t-6 57.5h117z" />
    <glyph glyph-name="hyphen" unicode="-" horiz-adv-x="833" 
d="M133 477v101h567v-101h-567z" />
    <glyph glyph-name="period" unicode="." horiz-adv-x="358" 
d="M178 -17q-41 0 -61.5 24t-20.5 68v10q0 44 20.5 67.5t61.5 23.5q43 0 63.5 -23.5t20.5 -67.5v-10q0 -44 -20.5 -68t-63.5 -24z" />
    <glyph glyph-name="slash" unicode="/" horiz-adv-x="811" 
d="M45 -237l606 1576h115l-606 -1576h-115z" />
    <glyph glyph-name="zero" unicode="0" horiz-adv-x="1109" 
d="M554 -22q-218 0 -328.5 125t-110.5 359v353q0 235 110.5 360t328.5 125q219 0 330 -125t111 -360v-353q0 -234 -111 -359t-330 -125zM554 83q160 0 237 97t77 277v363q0 181 -77 278t-237 97q-158 0 -235.5 -97t-77.5 -278v-363q0 -180 77.5 -277t235.5 -97z" />
    <glyph glyph-name="one" unicode="1" horiz-adv-x="656" 
d="M373 0v1152h-13l-306 -193l4 124l307 195h132v-1278h-124z" />
    <glyph glyph-name="two" unicode="2" horiz-adv-x="926" 
d="M75 0v123l321 325q92 95 159 171t103.5 149.5t36.5 157.5v11q0 81 -30 137.5t-90.5 86t-154.5 29.5q-102 0 -188 -33.5t-152 -77.5l12 115q37 25 88 49t116.5 39.5t145.5 15.5q190 0 284.5 -89.5t94.5 -258.5v-13q0 -102 -38.5 -186.5t-109.5 -169t-170 -184.5l-276 -282
v-34l-51 26h666v-107h-767z" />
    <glyph glyph-name="three" unicode="3" horiz-adv-x="973" 
d="M449 -21q-81 0 -149.5 13.5t-120.5 33t-85 36.5l-13 124q66 -39 158.5 -67.5t200.5 -28.5q109 0 176.5 30t99.5 86t32 135v29q0 78 -28.5 129.5t-91 78t-167.5 27.5l-214 3v99l218 3q101 2 161 30t86 78.5t26 117.5v22q0 114 -66 173.5t-219 59.5q-113 0 -205 -30
t-159 -70l12 112q56 36 149.5 65.5t220.5 29.5q204 0 298.5 -85t94.5 -239v-24q0 -78 -26.5 -138.5t-84.5 -98t-151 -46.5l-3 -14l-1 14q147 -15 212 -89.5t65 -206.5v-38q0 -164 -103.5 -259t-322.5 -95z" />
    <glyph glyph-name="four" unicode="4" horiz-adv-x="1018" 
d="M690 0v917l5 272h-29l-484 -812v-62l-48 49h853v-106h-929v129l533 891h219v-1278h-120z" />
    <glyph glyph-name="five" unicode="5" horiz-adv-x="1030" 
d="M503 -21q-125 0 -213.5 28.5t-138.5 57.5l-14 122q43 -26 97.5 -47.5t119 -35.5t140.5 -14q107 0 176 32.5t102 95t33 151.5v72q0 125 -62 195.5t-194 70.5q-103 0 -177 -43t-124 -122l-107 20v716h757v-106h-637v-339l-3 -200l1 3q43 75 123.5 124.5t205.5 49.5
q172 0 256.5 -96.5t84.5 -267.5v-79q0 -119 -45.5 -206t-140 -134.5t-240.5 -47.5z" />
    <glyph glyph-name="six" unicode="6" horiz-adv-x="1062" 
d="M552 -22q-140 0 -239 54.5t-150.5 161.5t-51.5 266v341q0 237 115 367t344 130q117 0 196 -25.5t132 -56.5l13 -115q-42 26 -89 46t-104 31.5t-131 11.5q-179 0 -266 -100.5t-87 -291.5v-350q0 -121 38.5 -202t109.5 -122t172 -41q146 0 216 79t70 201v70q0 86 -27.5 148
t-86.5 95.5t-153 33.5q-90 0 -159 -33t-116 -93.5t-70 -142.5l-17 104h23q20 75 66.5 135t123 95.5t182.5 35.5q178 0 268 -99t90 -276v-74q0 -173 -103.5 -278.5t-308.5 -105.5z" />
    <glyph glyph-name="seven" unicode="7" horiz-adv-x="903" 
d="M225 0l487 1172h-649v106h779v-108l-480 -1170h-137z" />
    <glyph glyph-name="eight" unicode="8" horiz-adv-x="1098" 
d="M548 -25q-115 0 -199 24t-139 69t-81 109.5t-26 145.5v29q0 92 34 157.5t97.5 104.5t150.5 52v2q-84 9 -143.5 44.5t-91.5 95.5t-32 141v28q0 154 106 239t324 85q220 0 326 -85t106 -239v-28q0 -81 -31.5 -141t-91.5 -95.5t-144 -44.5v-2q88 -14 151 -53t97 -104
t34 -157v-29q0 -80 -25.5 -144.5t-80 -109.5t-139 -69.5t-202.5 -24.5zM550 80q163 0 241 67.5t78 184.5v30q0 114 -80 179t-243 73q-159 -8 -238 -73.5t-79 -178.5v-30q0 -117 79 -184.5t242 -67.5zM551 706q145 3 225 63.5t80 173.5v24q0 109 -75 169.5t-233 60.5
q-155 0 -230.5 -60.5t-75.5 -169.5v-24q0 -75 36 -127.5t105 -80t168 -29.5z" />
    <glyph glyph-name="nine" unicode="9" horiz-adv-x="1060" 
d="M513 1300q216 0 326 -122t110 -356v-352q0 -236 -116.5 -364t-356.5 -128q-112 0 -188.5 23.5t-127.5 49.5l-14 121q64 -36 138 -60t180 -24q187 0 274.5 98t87.5 287v359q0 179 -78 270.5t-237 91.5q-147 0 -218 -78.5t-71 -202.5v-68q0 -128 66 -204t213 -76
q84 0 150 32.5t112 91.5t69 139l17 -104h-23q-19 -73 -65 -132t-119 -93.5t-175 -34.5q-186 0 -277 100t-91 276v74q0 174 104 280t310 106z" />
    <glyph glyph-name="colon" unicode=":" horiz-adv-x="379" 
d="M189 -17q-41 0 -61.5 24t-20.5 68v10q0 44 20.5 67.5t61.5 23.5q43 0 63.5 -23.5t20.5 -67.5v-10q0 -44 -20.5 -68t-63.5 -24zM189 716q-41 0 -61.5 24t-20.5 68v10q0 44 20.5 67.5t61.5 23.5q43 0 63.5 -23.5t20.5 -67.5v-10q0 -44 -20.5 -68t-63.5 -24z" />
    <glyph glyph-name="semicolon" unicode=";" horiz-adv-x="377" 
d="M250 255q3 -17 6.5 -47.5t3.5 -65.5q0 -118 -32 -217.5t-110 -192.5l-83 31q55 83 80.5 173.5t25.5 200.5q0 31 -2 60.5t-6 57.5h117zM189 716q-41 0 -61.5 24t-20.5 68v10q0 44 20.5 67.5t61.5 23.5q43 0 63.5 -23.5t20.5 -67.5v-10q0 -44 -20.5 -68t-63.5 -24z" />
    <glyph glyph-name="less" unicode="&#x3c;" horiz-adv-x="1035" 
d="M201 632v-19l688 -201v-108l-780 233v171l780 234v-108z" />
    <glyph glyph-name="equal" unicode="=" horiz-adv-x="1032" 
d="M126 368v99h780v-99h-780zM126 779v99h780v-99h-780z" />
    <glyph glyph-name="greater" unicode="&#x3e;" horiz-adv-x="1035" 
d="M834 632l-689 202v108l781 -234v-171l-781 -233v108l689 201v19z" />
    <glyph glyph-name="question" unicode="?" horiz-adv-x="882" 
d="M287 387v109l74 18q103 26 169 67t98.5 103.5t32.5 152.5v91q0 128 -59.5 195.5t-201.5 67.5q-99 0 -187 -30.5t-153 -71.5l14 113q34 23 85 44.5t116.5 36.5t141.5 15q192 0 279.5 -93t87.5 -267v-100q0 -123 -44.5 -206.5t-133.5 -136.5t-223 -85zM345 -17
q-42 0 -62 24t-20 68v10q0 44 20 67.5t62 23.5t62.5 -23.5t20.5 -67.5v-10q0 -44 -20.5 -68t-62.5 -24z" />
    <glyph glyph-name="at" unicode="@" horiz-adv-x="1647" 
d="M743 73q-114 0 -176.5 67.5t-62.5 193.5q0 13 1 29t2.5 38.5t5 56t8.5 80.5q12 118 47.5 200.5t99.5 126t161 43.5q107 0 164 -57.5t60 -157.5h30l-39 -106v12.5v12.5q0 66 -23.5 111t-65.5 67.5t-96 22.5q-104 0 -156 -69t-65 -191q-5 -48 -8.5 -81t-5 -55.5t-2 -37.5
t-0.5 -25q0 -90 43.5 -136.5t128.5 -46.5q55 0 100 24.5t77.5 68t47.5 102.5l17 -91h-27q-17 -59 -51 -104.5t-87 -71.5t-128 -26zM987 87l27 211l-2 22l38 346l3 22l17 197l1 6h111l-87 -792zM1069 175q17 -3 31.5 -4t39.5 -1q124 0 189 70.5t85 232.5q7 53 11.5 97.5
t7.5 77.5t4 50q12 172 -50 292.5t-190 184t-316 63.5q-205 0 -340 -77t-208 -221t-92 -347q-4 -43 -7.5 -80.5t-6.5 -70t-5.5 -62.5t-4.5 -56.5t-2 -51.5q-9 -253 141.5 -390.5t441.5 -137.5q128 0 234.5 20.5t191.5 56.5t149 83l-17 -106q-67 -43 -150.5 -75.5t-187 -50
t-228.5 -17.5q-222 0 -375.5 70.5t-231.5 207.5t-72 336q1 27 2.5 55t3.5 58t5 63t6.5 68.5t7.5 74.5q24 238 110.5 403t244.5 250.5t395 85.5q214 0 364.5 -72t226.5 -212t64 -344q-1 -20 -4 -52t-7.5 -76t-11.5 -101q-16 -136 -63.5 -222.5t-132 -127t-214.5 -41.5
q-36 -1 -64 1t-57 7z" />
    <glyph glyph-name="bracketleft" unicode="[" horiz-adv-x="605" 
d="M163 -240v1591h384v-94h-270v-1403h270v-94h-384z" />
    <glyph glyph-name="backslash" unicode="\" horiz-adv-x="811" 
d="M766 -237h-116l-605 1576h115z" />
    <glyph glyph-name="bracketright" unicode="]" horiz-adv-x="605" 
d="M442 -240h-385v94h271v1403h-271v94h385v-1591z" />
    <glyph glyph-name="asciicircum" unicode="^" horiz-adv-x="826" 
d="M329 1278h168l264 -664h-109l-231 586h-16l-230 -586h-110z" />
    <glyph glyph-name="underscore" unicode="_" horiz-adv-x="915" 
d="M63 -187v95h789v-95h-789z" />
    <glyph glyph-name="braceleft" unicode="{" horiz-adv-x="672" 
d="M612 1328v-93q-24 9 -55 15.5t-70 6.5q-79 0 -114 -39t-35 -128q0 -40 3.5 -95t7 -112t3.5 -102q0 -62 -15.5 -108t-53.5 -74t-106 -38v-15l-5 10q70 -7 109 -36t55 -76.5t16 -111.5q0 -45 -3.5 -102.5t-7 -113t-3.5 -96.5q0 -89 35 -128.5t115 -39.5q38 0 69 7t55 16
v-93q-31 -11 -69.5 -18t-82.5 -7q-122 0 -180.5 60.5t-58.5 190.5q0 47 4 105t7.5 115t3.5 98q0 55 -14 92.5t-49.5 59.5t-102.5 27v106q67 6 102.5 26.5t49.5 58t14 91.5q0 42 -3.5 98t-7.5 114t-4 102q0 131 58 191.5t181 60.5q44 0 82.5 -7t69.5 -18z" />
    <glyph glyph-name="bar" unicode="|" horiz-adv-x="477" 
d="M291 -441h-105v1862h105v-1862z" />
    <glyph glyph-name="braceright" unicode="}" horiz-adv-x="672" 
d="M60 1328q31 11 69.5 18t81.5 7q124 0 182 -60.5t58 -191.5q0 -44 -4 -102t-7.5 -114t-3.5 -98q0 -54 14 -91.5t50 -58t101 -26.5v-106q-65 -5 -101 -27t-50 -59.5t-14 -92.5q0 -41 3.5 -98t7.5 -115t4 -105q0 -130 -58.5 -190.5t-181.5 -60.5q-43 0 -81.5 7t-69.5 18v93
q24 -9 55 -16t68 -7q81 0 116 39.5t35 128.5q0 41 -3.5 96.5t-7 113t-3.5 102.5q0 64 16 111.5t55.5 76.5t108.5 36l-5 -10v15q-67 10 -105.5 38t-54 74t-15.5 108q0 45 3.5 102t7 112t3.5 95q0 89 -35 128t-115 39q-37 0 -68.5 -6.5t-55.5 -15.5v93z" />
    <glyph glyph-name="asciitilde" unicode="~" horiz-adv-x="1075" 
d="M747 484q-57 0 -111 19.5t-106 44.5t-100.5 44.5t-94.5 19.5q-57 0 -82.5 -34t-25.5 -99v-18h-92v30q0 108 45 165.5t149 57.5q56 0 110 -19t105.5 -44.5t100.5 -45t95 -19.5q57 0 82 33t25 99v18h93v-31q0 -107 -45.5 -164t-147.5 -57z" />
    <glyph glyph-name="ellipsis" unicode="&#x2026;" horiz-adv-x="1110" 
d="M930 -17q-41 0 -61.5 24t-20.5 68v10q0 44 20.5 67.5t61.5 23.5q43 0 63.5 -23.5t20.5 -67.5v-10q0 -44 -20.5 -68t-63.5 -24zM554 -17q-41 0 -61.5 24t-20.5 68v10q0 44 20.5 67.5t61.5 23.5q43 0 63.5 -23.5t20.5 -67.5v-10q0 -44 -20.5 -68t-63.5 -24zM178 -17
q-41 0 -61.5 24t-20.5 68v10q0 44 20.5 67.5t61.5 23.5q43 0 63.5 -23.5t20.5 -67.5v-10q0 -44 -20.5 -68t-63.5 -24z" />
    <glyph glyph-name="endash" unicode="&#x2013;" horiz-adv-x="1055" 
d="M133 477v101h789v-101h-789z" />
    <glyph glyph-name="emdash" unicode="&#x2014;" horiz-adv-x="1834" 
d="M133 477v101h1568v-101h-1568z" />
    <glyph glyph-name="quoteleft" unicode="&#x2018;" horiz-adv-x="371" 
d="M107 844q-3 19 -6 48t-3 64q0 111 29 204t98 177l85 -30q-50 -74 -72.5 -158t-22.5 -187q0 -30 2 -59t5 -59h-115z" />
    <glyph glyph-name="quoteright" unicode="&#x2019;" horiz-adv-x="371" 
d="M265 1326q3 -18 6 -47.5t3 -64.5q0 -110 -29 -203.5t-98 -177.5l-85 30q49 75 72 159t23 186q0 31 -2.5 59.5t-5.5 58.5h116z" />
    <glyph glyph-name="divide" unicode="&#xf7;" horiz-adv-x="998" 
d="M109 573v100h780v-100h-780zM503 191q-39 0 -57.5 22.5t-18.5 63.5v9q0 41 18.5 62.5t57.5 21.5t58 -21.5t19 -62.5v-9q0 -41 -19 -63.5t-58 -22.5zM503 877q-39 0 -57.5 22t-18.5 63v10q0 40 18.5 62t57.5 22t58 -22t19 -62v-10q0 -41 -19 -63t-58 -22z" />
    <glyph glyph-name="minus" unicode="&#x2212;" horiz-adv-x="976" 
d="M109 572v101h758v-101h-758z" />
    <glyph glyph-name="multiply" unicode="&#xd7;" horiz-adv-x="963" 
d="M846 312l-73 -65l-650 685l72 65zM117 312l651 685l72 -65l-650 -685z" />
    <glyph glyph-name="dollar" unicode="$" horiz-adv-x="1034" 
d="M566 1234h-109v259h109v-259zM566 -221h-109v281h109v-281zM506 -21q-92 0 -168.5 16t-135 39.5t-97.5 46.5l-13 126q75 -48 178.5 -83t228.5 -35q155 0 232.5 59.5t77.5 176.5v19q0 77 -30 126t-100 81.5t-192 58.5q-146 33 -232 78t-123 113t-37 168v8q0 154 99.5 238
t302.5 84q136 0 231.5 -30t153.5 -65l12 -117q-69 43 -163 74t-218 31q-104 0 -168 -26t-93.5 -75t-29.5 -117v-5q0 -69 28 -117t98.5 -82t199.5 -64q144 -32 228 -74.5t121.5 -110.5t37.5 -176v-22q0 -169 -108 -256.5t-321 -87.5z" />
    <glyph glyph-name="A" unicode="A" horiz-adv-x="1140" 
d="M58 0l410 1278h204l410 -1278h-126l-373 1192h-26l-372 -1192h-127zM277 402v104h585v-104h-585z" />
    <glyph glyph-name="B" unicode="B" horiz-adv-x="1149" 
d="M244 0v104h424q141 0 199 62.5t58 169.5v41q0 109 -60 170.5t-209 61.5h-409v100h408q132 0 189 60t57 164v20q0 103 -55 162.5t-193 59.5h-411v103h422q195 0 278.5 -82t83.5 -226v-21q0 -120 -59.5 -190.5t-186.5 -82.5h-3q146 -15 210.5 -91t64.5 -210v-45
q0 -152 -87.5 -241t-285.5 -89h-435zM162 0v1278h123v-1278h-123z" />
    <glyph glyph-name="C" unicode="C" horiz-adv-x="1009" 
d="M570 -22q-229 0 -343.5 130.5t-114.5 368.5v326q0 238 113.5 367.5t339.5 129.5q77 0 140 -15.5t111.5 -39.5t81.5 -49l12 -118q-60 45 -141 78.5t-190 33.5q-168 0 -254.5 -101t-86.5 -288v-320q0 -186 87.5 -288t261.5 -102q108 0 190 33t143 80l-11 -120
q-33 -26 -83 -50t-114 -40t-142 -16z" />
    <glyph glyph-name="D" unicode="D" horiz-adv-x="1168" 
d="M244 0v106h319q183 0 276 100t93 287v293q0 188 -93 287.5t-276 99.5h-320v105h324q241 0 366 -127t125 -364v-295q0 -237 -125 -364.5t-366 -127.5h-323zM162 0v1278h123v-1278h-123z" />
    <glyph glyph-name="E" unicode="E" horiz-adv-x="1036" 
d="M162 0v1278h123v-1278h-123zM200 0v105h732v-105h-732zM232 601v104h679v-104h-679zM198 1173v105h728v-105h-728z" />
    <glyph glyph-name="F" unicode="F" horiz-adv-x="993" 
d="M162 0v1278h125v-1278h-125zM232 560v106h659v-106h-659zM198 1173v105h707v-105h-707z" />
    <glyph glyph-name="G" unicode="G" horiz-adv-x="1162" 
d="M548 -22q-143 0 -240.5 57.5t-146.5 167t-49 266.5v318q0 247 123.5 380t362.5 133q90 0 162.5 -16.5t128 -41.5t94.5 -52l12 -114q-67 46 -160.5 81t-217.5 35q-190 0 -284.5 -105t-94.5 -302v-315q0 -184 87 -284t259 -100q89 0 153 30.5t104 81.5t57 113v335l23 -47
h-320v104h419v-481l-120 2q-16 -64 -57 -120.5t-113 -91t-182 -34.5zM905 264h115v-264h-122z" />
    <glyph glyph-name="H" unicode="H" horiz-adv-x="1223" 
d="M287 0h-125v1278h125v-1278zM1061 0h-125v1278h125v-1278zM234 713h754v-105h-754v105z" />
    <glyph glyph-name="I" unicode="I" horiz-adv-x="453" 
d="M289 0h-125v1278h125v-1278z" />
    <glyph glyph-name="J" unicode="J" horiz-adv-x="826" 
d="M317 -15q-66 0 -127.5 12t-111.5 33l-11 114q54 -25 111.5 -37.5t116.5 -12.5q142 0 197.5 66t55.5 200v918h125v-925q0 -180 -81 -274t-275 -94z" />
    <glyph glyph-name="K" unicode="K" horiz-adv-x="1115" 
d="M914 0l-478 603h-161v100h161l471 575h144l-522 -636l-1 35l535 -677h-149zM162 0v1278h124v-1278h-124z" />
    <glyph glyph-name="L" unicode="L" horiz-adv-x="968" 
d="M287 0h-125v1278h125v-1278zM227 107h678v-107h-678v107z" />
    <glyph glyph-name="M" unicode="M" horiz-adv-x="1473" 
d="M138 0l54 1278h201l336 -981h15l336 981h202l53 -1278h-122l-21 573l-21 578h-19l-345 -1004h-141l-344 1004h-19l-21 -579l-21 -572h-123z" />
    <glyph glyph-name="N" unicode="N" horiz-adv-x="1223" 
d="M356 1278l576 -1147h13l-5 564v583h121v-1278h-190l-579 1154h-13l5 -596v-558h-122v1278h194z" />
    <glyph glyph-name="O" unicode="O" horiz-adv-x="1176" 
d="M588 -22q-233 0 -354.5 131t-121.5 374v313q0 242 121.5 373t354.5 131q232 0 354 -131t122 -373v-313q0 -243 -122 -374t-354 -131zM588 83q173 0 261.5 103.5t88.5 292.5v321q0 190 -88.5 292.5t-261.5 102.5t-261.5 -102.5t-88.5 -292.5v-321q0 -189 88.5 -292.5
t261.5 -103.5z" />
    <glyph glyph-name="P" unicode="P" horiz-adv-x="1105" 
d="M242 443v104h373q145 0 209 73t64 198v88q0 126 -63 197.5t-207 71.5h-378v103h381q205 0 298 -99t93 -270v-94q0 -172 -94 -272t-299 -100h-377zM162 0v1278h123v-761v-56v-461h-123z" />
    <glyph glyph-name="Q" unicode="Q" horiz-adv-x="1177" 
d="M1176 -34l-536 13q-271 6 -399.5 134.5t-128.5 369.5v313q0 243 121.5 373.5t354.5 130.5q155 0 261 -58.5t160.5 -171t54.5 -274.5v-297q0 -102 -23.5 -178t-66 -127t-99.5 -80.5t-123 -38.5l-8 -4l432 7v-112zM621 84l20 -1q61 12 115 39.5t95 74.5t64 116.5t23 164.5
v322q0 190 -88.5 292.5t-261.5 102.5t-261.5 -102.5t-88.5 -292.5v-321q0 -189 100 -290.5t283 -104.5z" />
    <glyph glyph-name="R" unicode="R" horiz-adv-x="1137" 
d="M915 0l-38 266q-11 78 -36 137t-78.5 93.5t-150.5 34.5h-365v100l392 1q141 0 200 70.5t59 188.5v33q0 118 -61 184t-203 66h-392v104h408q196 0 285 -90t89 -245v-36q0 -128 -62.5 -211.5t-208.5 -96.5l-1 -12l-54 20q110 -8 170 -49t88.5 -111.5t43.5 -166.5l44 -280
h-129zM162 0v1278h123v-679v-48v-551h-123z" />
    <glyph glyph-name="S" unicode="S" horiz-adv-x="1034" 
d="M506 -21q-92 0 -168.5 16t-135 39.5t-97.5 46.5l-13 126q75 -48 178.5 -83t228.5 -35q155 0 232.5 59.5t77.5 176.5v19q0 77 -30 126t-100 81.5t-192 58.5q-146 33 -232 78t-123 113t-37 168v8q0 154 99.5 238t302.5 84q136 0 231.5 -30t153.5 -65l12 -117
q-69 43 -163 74t-218 31q-104 0 -168 -26t-93.5 -75t-29.5 -117v-5q0 -69 28 -117t98.5 -82t199.5 -64q144 -32 228 -74.5t121.5 -110.5t37.5 -176v-22q0 -169 -108 -256.5t-321 -87.5z" />
    <glyph glyph-name="T" unicode="T" horiz-adv-x="1045" 
d="M460 0v1259h125v-1259h-125zM69 1173v105h907v-105h-907z" />
    <glyph glyph-name="U" unicode="U" horiz-adv-x="1204" 
d="M602 -22q-229 0 -339.5 122t-110.5 351v827h125v-830q0 -175 78 -269t247 -94q170 0 247.5 94t77.5 269v830h125v-827q0 -229 -110.5 -351t-339.5 -122z" />
    <glyph glyph-name="V" unicode="V" horiz-adv-x="1120" 
d="M458 0l-401 1278h131l360 -1182h24l361 1182h130l-399 -1278h-206z" />
    <glyph glyph-name="W" unicode="W" horiz-adv-x="1613" 
d="M350 0l-276 1278h128l216 -1035l27 -138h20l26 138l221 1000h190l221 -1001l26 -137h20l27 137l216 1036h127l-275 -1278h-203l-172 781l-74 359h-16l-75 -359l-170 -781h-204z" />
    <glyph glyph-name="X" unicode="X" horiz-adv-x="1115" 
d="M62 0l407 676v-30l-398 632h136l345 -552h12l345 552h137l-399 -632v30l406 -676h-139l-350 588h-12l-351 -588h-139z" />
    <glyph glyph-name="Y" unicode="Y" horiz-adv-x="1078" 
d="M485 398l-438 880h132l254 -517l100 -214h12l100 214l253 517h133l-438 -880h-108zM478 0v517h122v-517h-122z" />
    <glyph glyph-name="Z" unicode="Z" horiz-adv-x="1026" 
d="M933 106v-106h-839v98l687 1076h-683v104h828v-97l-688 -1075h695z" />
    <glyph glyph-name="grave" unicode="`" horiz-adv-x="537" 
d="M239 1364l200 -260v-3h-110l-227 261v2h137z" />
    <glyph glyph-name="a" unicode="a" horiz-adv-x="972" 
d="M725 0l6 243l-5 19v315v65q0 126 -63.5 188.5t-199.5 62.5q-106 0 -193 -32t-153 -73l12 107q36 23 87 46.5t117.5 39t146.5 15.5q98 0 167.5 -24t113.5 -70t64.5 -111t20.5 -146v-645h-121zM383 -21q-145 0 -222.5 70t-77.5 201v26q0 129 79.5 194.5t257.5 91.5l326 48
l6 -92l-317 -45q-124 -18 -178 -61.5t-54 -128.5v-18q0 -90 55 -137t161 -47q91 0 155.5 33t104 88.5t52.5 124.5l24 -86h-25q-12 -69 -52.5 -129t-113 -96.5t-181.5 -36.5z" />
    <glyph glyph-name="b" unicode="b" horiz-adv-x="1059" 
d="M589 -21q-93 0 -163.5 34t-113.5 95.5t-53 144.5h-40l40 113q5 -94 45.5 -157.5t106.5 -95.5t147 -32q134 0 206 80.5t72 235.5v184q0 154 -72 234.5t-209 80.5q-79 0 -141.5 -32.5t-103 -89t-54.5 -130.5l-32 89h35q14 73 54.5 132t111 94.5t170.5 35.5q177 0 270 -108
t93 -314v-169q0 -207 -94.5 -316t-274.5 -109zM142 0v1326h121v-325l-5 -279l1 -27v-411l-2 -40l6 -244h-121z" />
    <glyph glyph-name="c" unicode="c" horiz-adv-x="863" 
d="M499 -21q-200 0 -299 111t-99 316v164q0 205 99 315.5t299 110.5q65 0 116.5 -12.5t91.5 -32t66 -40.5l12 -109q-47 38 -112.5 65t-157.5 27q-146 0 -219 -84t-73 -242v-159q0 -157 73 -241.5t220 -84.5q94 0 161 27.5t116 65.5l-12 -111q-42 -32 -112 -59t-170 -27z" />
    <glyph glyph-name="d" unicode="d" horiz-adv-x="1059" 
d="M464 -21q-176 0 -269 108.5t-93 314.5v169q0 207 93.5 315.5t274.5 108.5q93 0 163.5 -33.5t113.5 -95t53 -144.5h40l-40 -111q-4 94 -44 157t-105.5 95.5t-147.5 32.5q-135 0 -207.5 -80t-72.5 -235v-186q0 -153 72 -233.5t209 -80.5q81 0 143 32.5t102.5 89t54.5 129.5
l32 -90h-35q-13 -72 -54.5 -132t-111.5 -95.5t-171 -35.5zM796 0l7 244l-3 40v411l1 29l-4 277v325h120v-1326h-121z" />
    <glyph glyph-name="e" unicode="e" horiz-adv-x="983" 
d="M530 -21q-211 0 -320 106t-109 302v190q0 204 101.5 313t295.5 109q130 0 218 -49t132.5 -141t44.5 -221v-35q0 -29 -2 -58t-5 -58h-112q2 44 2 83.5v72.5q0 98 -31.5 166.5t-93 104.5t-153.5 36q-137 0 -207 -80.5t-70 -232.5v-95l1 -16v-101q0 -67 19.5 -121t60 -92.5
t102 -58.5t143.5 -20q95 0 176.5 26.5t152.5 73.5l-12 -109q-62 -43 -147 -69t-187 -26zM164 437v93h695v-93h-695z" />
    <glyph glyph-name="f" unicode="f" horiz-adv-x="751" 
d="M464 1351q74 0 131.5 -13t107.5 -34l12 -97q-52 19 -103 30.5t-114 11.5q-81 0 -129.5 -21.5t-70 -60.5t-21.5 -95v-5q0 -39 9.5 -74t20.5 -63l-85 -5v16q-24 26 -43.5 69t-19.5 98v5q0 108 73 173t232 65zM191 0v899h121v-899h-121zM22 842v98l216 -1l48 1h423l-11 -98
h-676z" />
    <glyph glyph-name="g" unicode="g" horiz-adv-x="1012" 
d="M507 287q-192 0 -294.5 85.5t-102.5 247.5v34q0 100 39.5 174t126.5 117t228 46l485 13v-97l-320 8v-3q81 -13 131 -50t73 -93t23 -128v-34q0 -157 -98.5 -238.5t-290.5 -81.5zM501 -275h21q96 0 166 14.5t109 47.5t39 88v3q0 63 -45 97.5t-153 43.5l-270 24l42 1
q-65 -9 -114.5 -28t-78 -52t-28.5 -83v-2q0 -58 39 -92t109 -48t164 -14zM494 -374q-127 0 -221 22t-145.5 71.5t-51.5 133.5v4q0 63 31.5 104.5t85.5 64.5t118 30l-1 3q-93 12 -136 45.5t-43 89.5v1q0 37 17.5 64t54.5 42t96 18v18l161 -43l-76 2q-79 -1 -109.5 -19.5
t-30.5 -53.5v-1q0 -38 41 -57.5t142 -29.5l235 -24q152 -15 220.5 -71.5t68.5 -161.5v-4q0 -88 -53 -142.5t-150 -80t-228 -25.5h-26zM506 378q91 0 152 27.5t92 82.5t31 134v35q0 78 -30.5 132.5t-90 82.5t-149.5 28h-7q-99 0 -160.5 -30.5t-89.5 -85.5t-28 -128v-33
q0 -80 31 -134.5t93 -82.5t156 -28z" />
    <glyph glyph-name="h" unicode="h" horiz-adv-x="1050" 
d="M800 0v612q0 87 -23.5 150t-77.5 97t-145 34q-84 0 -146 -32t-99.5 -88t-51.5 -127l-31 89h33q13 72 54.5 130.5t111.5 94t171 35.5q118 0 189 -44t103.5 -126.5t32.5 -200.5v-624h-121zM142 0v1326h121v-324l-5 -280l5 -10v-712h-121z" />
    <glyph glyph-name="i" unicode="i" horiz-adv-x="412" 
d="M145 0v975h122v-975h-122zM206 1153q-40 0 -60.5 22t-20.5 63v7q0 40 20.5 62t60.5 22q41 0 61 -22t20 -62v-7q0 -41 -20 -63t-61 -22z" />
    <glyph glyph-name="j" unicode="j" horiz-adv-x="438" 
d="M171 90v885h122v-885h-122zM232 1153q-40 0 -60.5 22t-20.5 63v7q0 40 20.5 62t60.5 22q41 0 61 -22t20 -62v-7q0 -41 -20 -63t-61 -22zM34 -356q-42 0 -80 8t-65 19l-11 103q30 -14 63 -21.5t69 -7.5q95 0 131 51.5t36 149.5v341h121v-347q0 -93 -25.5 -159.5
t-83.5 -101.5t-155 -35z" />
    <glyph glyph-name="k" unicode="k" horiz-adv-x="962" 
d="M776 0l-419 471h-110v97h110l401 407h146l-459 -468v34l479 -541h-148zM142 0v1326h121v-1326h-121z" />
    <glyph glyph-name="l" unicode="l" horiz-adv-x="415" 
d="M147 0v1326h121v-1326h-121z" />
    <glyph glyph-name="m" unicode="m" horiz-adv-x="1615" 
d="M1365 0v614q0 87 -21.5 149.5t-70.5 96t-132 33.5q-76 0 -133.5 -31.5t-92.5 -86.5t-48 -124l-23 91h17q13 67 52.5 124.5t106.5 93t163 35.5q109 0 176 -43.5t97 -126t30 -198.5v-627h-121zM142 0v975h121l-6 -242l6 -6v-727h-121zM754 0v614q0 86 -21.5 149t-70.5 96.5
t-131 33.5q-78 0 -135.5 -32t-92 -88t-47.5 -128l-27 90h29q13 72 51 130.5t104 94t159 35.5q135 0 205.5 -69t89.5 -205q4 -21 5.5 -43.5t1.5 -45.5v-632h-120z" />
    <glyph glyph-name="n" unicode="n" horiz-adv-x="1050" 
d="M800 0v612q0 87 -23.5 150t-77.5 97t-145 34q-84 0 -146 -32t-100 -88t-52 -128l-25 90h27q13 72 54.5 130.5t112 94t171.5 35.5q118 0 189 -44t103.5 -126.5t32.5 -200.5v-624h-121zM142 0v975h121l-6 -241l6 -6v-728h-121z" />
    <glyph glyph-name="o" unicode="o" horiz-adv-x="1026" 
d="M513 -24q-202 0 -307 111.5t-105 321.5v159q0 209 105 320t307 111t307 -111t105 -320v-159q0 -210 -105 -321.5t-307 -111.5zM513 76q142 0 216.5 84t74.5 242v173q0 157 -74.5 241t-216.5 84t-216 -84t-74 -241v-173q0 -158 74 -242t216 -84z" />
    <glyph glyph-name="p" unicode="p" horiz-adv-x="1059" 
d="M589 -21q-93 0 -163.5 34t-113 95.5t-52.5 144.5h-40l39 113q4 -94 44 -157.5t106 -95.5t147 -32q135 0 207.5 80.5t72.5 234.5v186q0 153 -72 233.5t-209 80.5q-79 0 -141.5 -32.5t-103 -89t-54.5 -130.5l-33 89h35q14 73 55 132t111.5 94.5t170.5 35.5q177 0 270 -108
t93 -314v-169q0 -207 -94 -316t-275 -109zM142 -344v1319h121l-6 -243l2 -40v-413l-1 -28l5 -269v-326h-121z" />
    <glyph glyph-name="q" unicode="q" horiz-adv-x="1059" 
d="M464 -21q-176 0 -269 108.5t-93 314.5v169q0 207 94 315.5t274 108.5q94 0 164.5 -33.5t113.5 -95t53 -144.5h40l-41 -111q-4 95 -44.5 158t-106.5 95t-148 32q-134 0 -206 -80.5t-72 -235.5v-184q0 -154 72 -234.5t209 -80.5q80 0 142.5 32.5t103 89t54.5 129.5l31 -90
h-35q-13 -72 -54 -132t-111 -95.5t-171 -35.5zM797 -344v326l5 274l-2 25v411l2 40l-6 243h121v-1319h-120z" />
    <glyph glyph-name="r" unicode="r" horiz-adv-x="738" 
d="M256 603l-31 93l30 4q32 134 116 211.5t217 77.5q35 0 63 -5.5t48 -13.5l8 -118q-25 9 -57 15t-70 6q-114 0 -200 -68.5t-124 -201.5zM142 0v975h118l-7 -293l10 -10v-672h-121z" />
    <glyph glyph-name="s" unicode="s" horiz-adv-x="870" 
d="M433 -21q-118 0 -204 27t-143 58l-12 115q72 -40 158 -68t196 -28q121 0 185 41.5t64 123.5v14q0 53 -23 87.5t-82 60t-167 47.5q-123 26 -194 60.5t-101 87.5t-30 131v10q0 121 85.5 185.5t256.5 64.5q114 0 197 -27t135 -61l12 -105q-64 39 -146 65.5t-188 26.5
q-81 0 -132.5 -18t-76 -52t-24.5 -80v-9q0 -52 23 -86.5t81 -58.5t160 -44q126 -26 199 -60t104 -87t31 -135v-18q0 -132 -93 -200t-271 -68z" />
    <glyph glyph-name="t" unicode="t" horiz-adv-x="791" 
d="M485 -19q-107 0 -173.5 32t-97 98t-30.5 164v636h120v-622q0 -103 47.5 -152.5t160.5 -49.5q60 0 116.5 14t106.5 40l-11 -106q-47 -25 -110 -39.5t-129 -14.5zM17 859v98h707l-11 -98h-696zM185 943l-1 280l123 19l-6 -299h-116z" />
    <glyph glyph-name="u" unicode="u" horiz-adv-x="1050" 
d="M250 975v-612q0 -86 23.5 -149.5t77.5 -98t145 -34.5q85 0 146.5 32.5t100 89t51.5 126.5l25 -89h-27q-13 -71 -54.5 -130.5t-112 -95t-171.5 -35.5q-117 0 -188.5 44t-104.5 127t-33 201v624h122zM908 975v-975h-121l6 241l-6 6v728h121z" />
    <glyph glyph-name="v" unicode="v" horiz-adv-x="972" 
d="M498 85l295 890h127l-331 -975h-205l-332 975h127l295 -890h24z" />
    <glyph glyph-name="w" unicode="w" horiz-adv-x="1480" 
d="M317 0l-252 975h126l216 -885h20l225 857h176l225 -857h20l216 885h126l-253 -975h-192l-186 715l-37 143h-14l-37 -144l-186 -714h-193z" />
    <glyph glyph-name="x" unicode="x" horiz-adv-x="954" 
d="M61 0l329 524v-36l-323 487h134l270 -413h13l269 413h134l-323 -486v35l329 -524h-134l-275 441h-13l-276 -441h-134z" />
    <glyph glyph-name="y" unicode="y" horiz-adv-x="972" 
d="M546 125l-63 -28l312 878h125l-475 -1319h-124l154 430l51 -46h-141l-333 935h127l293 -850h74z" />
    <glyph glyph-name="z" unicode="z" horiz-adv-x="892" 
d="M806 101v-101h-720v92l570 782h-568v101h714v-92l-570 -782h574z" />
    <glyph glyph-name="quotesinglbase" unicode="&#x201a;" horiz-adv-x="343" 
d="M238 255q3 -17 6.5 -47.5t3.5 -65.5q0 -118 -32 -217.5t-110 -192.5l-83 31q55 83 80.5 173.5t25.5 200.5q0 31 -2 60.5t-6 57.5h117z" />
    <glyph glyph-name="quotedblbase" unicode="&#x201e;" horiz-adv-x="661" 
d="M556 255q3 -17 6.5 -47.5t3.5 -65.5q0 -118 -32 -217.5t-110 -192.5l-83 31q55 83 80.5 173.5t25.5 200.5q0 31 -2 60.5t-6 57.5h117zM238 255q3 -17 6.5 -47.5t3.5 -65.5q0 -118 -32 -217.5t-110 -192.5l-83 31q55 83 80.5 173.5t25.5 200.5q0 31 -2 60.5t-6 57.5h117z
" />
    <glyph glyph-name="circumflex" unicode="&#x2c6;" horiz-adv-x="729" 
d="M297 1364h135l195 -260v-3h-100l-159 191h-7l-159 -191h-100v3z" />
    <glyph glyph-name="guilsinglleft" unicode="&#x2039;" horiz-adv-x="561" 
d="M196 487l304 -393h-124l-291 373v41l291 369h124z" />
    <glyph glyph-name="OE" unicode="&#x152;" horiz-adv-x="1683" 
d="M588 -22q-233 0 -354.5 131t-121.5 374v313q0 242 121.5 373t354.5 131q232 0 354 -131t122 -373v-313q0 -243 -122 -374t-354 -131zM588 83q173 0 261.5 103.5t88.5 292.5v321q0 190 -88.5 292.5t-261.5 102.5t-261.5 -102.5t-88.5 -292.5v-321q0 -189 88.5 -292.5
t261.5 -103.5zM740 0v105h839v-105h-839zM959 601v104h600v-104h-600zM739 1173v105h834v-105h-834z" />
    <glyph glyph-name="quotedblleft" unicode="&#x201c;" horiz-adv-x="688" 
d="M107 844q-3 19 -6 48t-3 64q0 111 29 204t98 177l85 -30q-50 -74 -72.5 -158t-22.5 -187q0 -30 2 -59t5 -59h-115zM423 844q-3 19 -6 48t-3 64q0 111 29 204t98 177l85 -30q-49 -74 -72 -158t-23 -187q0 -30 2 -59t6 -59h-116z" />
    <glyph glyph-name="quotedblright" unicode="&#x201d;" horiz-adv-x="688" 
d="M582 1326q3 -18 6 -47.5t3 -64.5q0 -110 -29 -203.5t-98 -177.5l-85 30q49 75 72 159t23 186q0 31 -2.5 59.5t-5.5 58.5h116zM265 1326q3 -18 6 -47.5t3 -64.5q0 -110 -29 -203.5t-98 -177.5l-85 30q49 75 72 159t23 186q0 31 -2.5 59.5t-5.5 58.5h116z" />
    <glyph glyph-name="bullet" unicode="&#x2022;" horiz-adv-x="505" 
d="M252 455q-72 0 -107.5 41.5t-35.5 118.5v18q0 76 35.5 116.5t107.5 40.5t107.5 -40.5t35.5 -116.5v-18q0 -77 -35.5 -118.5t-107.5 -41.5z" />
    <glyph glyph-name="tilde" unicode="&#x2dc;" horiz-adv-x="729" 
d="M497 1133q-36 0 -70 14t-65 32t-60 32t-56 14q-31 0 -45 -20t-14 -62v-20h-79v32q0 76 30 117.5t99 41.5q37 0 70.5 -14t64.5 -32t60 -32t55 -14q32 0 45.5 20t13.5 61v20h80v-32q0 -76 -30 -117t-99 -41z" />
    <glyph glyph-name="guilsinglright" unicode="&#x203a;" horiz-adv-x="561" 
d="M365 487l-304 390h123l292 -369v-41l-292 -373h-123z" />
    <glyph glyph-name="oe" unicode="&#x153;" horiz-adv-x="1686" 
d="M498 -24q-192 0 -294.5 111.5t-102.5 321.5v159q0 209 103 320t294 111q150 0 241 -66.5t124 -190.5h1q31 123 120 190t229 67q126 0 211 -49t128.5 -141t43.5 -221v-35q0 -29 -1.5 -58t-5.5 -58h-111q1 44 1 83.5v72.5q0 98 -31 166.5t-92.5 104.5t-153.5 36
q-137 0 -207 -80.5t-70 -232.5v-100v-16v-79q0 -148 81.5 -228.5t247.5 -80.5q92 0 173.5 26.5t151.5 73.5l-11 -109q-62 -43 -145 -69t-183 -26q-151 0 -246.5 65t-129.5 193h-1q-32 -128 -123.5 -194.5t-241.5 -66.5zM867 437v94h695v-94h-695zM511 76q143 0 218 84
t75 242v172q0 158 -75 242t-218 84q-141 0 -214.5 -84t-73.5 -241v-173q0 -158 73.5 -242t214.5 -84z" />
    <glyph glyph-name="exclamdown" unicode="&#xa1;" horiz-adv-x="451" 
d="M276 592l14 -895h-130l15 895h101zM225 991q42 0 62.5 -23.5t20.5 -68.5v-10q0 -43 -20.5 -66.5t-62.5 -23.5t-62 23.5t-20 66.5v10q0 45 20 68.5t62 23.5z" />
    <glyph glyph-name="cent" unicode="&#xa2;" horiz-adv-x="863" 
d="M544 947h-105v244h105v-244zM544 -221h-105v262h105v-262zM499 -21q-200 0 -299 111t-99 316v164q0 205 99 315.5t299 110.5q65 0 116.5 -12.5t91.5 -32t66 -40.5l12 -109q-47 38 -112.5 65t-157.5 27q-146 0 -219 -84t-73 -242v-159q0 -157 73 -241.5t220 -84.5
q94 0 161 27.5t116 65.5l-12 -111q-42 -32 -112 -59t-170 -27z" />
    <glyph glyph-name="sterling" unicode="&#xa3;" horiz-adv-x="1070" 
d="M86 605l10 97h801l-8 -97h-803zM246 107h753v-107h-907v103l29 8q58 16 95.5 54.5t55.5 99.5t18 145q0 67 -11 132t-25.5 130t-25.5 132t-11 138q0 179 100 268t305 89q83 0 162 -16.5t140 -42.5l11 -108q-71 30 -143 45t-147 15q-101 0 -167 -29t-99 -87.5t-33 -146.5
q0 -65 10.5 -128.5t24.5 -126.5t25 -126.5t11 -128.5q0 -127 -42.5 -200t-123.5 -110z" />
    <glyph glyph-name="currency" unicode="&#xa4;" horiz-adv-x="988" 
d="M494 252q-165 0 -253.5 88.5t-88.5 254.5v52q0 165 89 253t254 88t253.5 -88t88.5 -253v-52q0 -166 -89 -254.5t-254 -88.5zM495 346q112 0 172 63t60 184l-1 55q0 120 -59.5 182.5t-171.5 62.5t-172.5 -62.5t-60.5 -182.5v-55q0 -121 60.5 -184t172.5 -63zM736 395
l174 -202l-71 -59l-173 199zM323 333l-173 -199l-71 59l176 204zM248 847l-169 197l70 60l172 -197zM666 903l173 201l71 -60l-174 -203z" />
    <glyph glyph-name="yen" unicode="&#xa5;" horiz-adv-x="1109" 
d="M642 571l27 93h321l-11 -93h-337zM132 355h858l-11 -92h-858zM436 664l27 -93h-342l11 93h304zM498 398l-438 880h132l254 -517l100 -214h12l100 214l253 517h133l-438 -880h-108zM490 0v517h123v-517h-123z" />
    <glyph glyph-name="brokenbar" unicode="&#xa6;" horiz-adv-x="477" 
d="M291 591h-105v830h105v-830zM291 -441h-105v834h105v-834z" />
    <glyph glyph-name="section" unicode="&#xa7;" horiz-adv-x="942" 
d="M554 389q79 20 118 72t39 113v6q0 57 -23.5 94.5t-82.5 63t-169 47.5q-122 26 -192.5 61t-100.5 85t-30 117v10q0 118 85.5 179t255.5 61q114 0 196.5 -27t134.5 -60l12 -106q-64 40 -145.5 66t-187.5 26q-121 0 -176 -36.5t-55 -105.5v-8q0 -44 23 -75t80 -54t159 -46
q125 -27 197.5 -60.5t103.5 -83.5t31 -128v-7q0 -81 -48.5 -141.5t-136.5 -78.5l1 -26zM384 810q-76 -20 -115 -70t-39 -112v-7q0 -57 23 -95t81 -64t161 -49q125 -27 198 -62t103.5 -85.5t30.5 -127.5v-11q0 -126 -92.5 -191.5t-269.5 -65.5q-117 0 -203.5 27.5
t-141.5 58.5l-13 115q72 -40 158 -68.5t195 -28.5q121 0 184.5 39t63.5 116v9q0 49 -23 82t-81.5 57.5t-166.5 48.5q-121 27 -192 62t-101.5 85.5t-30.5 121.5v8q0 81 48 139.5t137 79.5l-1 23z" />
    <glyph glyph-name="dieresis" unicode="&#xa8;" horiz-adv-x="644" 
d="M176 1150q-37 0 -55 21t-18 61v6q0 39 18 59.5t55 20.5t55 -20.5t18 -59.5v-6q0 -40 -18 -61t-55 -21zM468 1150q-36 0 -54 21t-18 61v6q0 39 18 59.5t54 20.5q37 0 55 -20.5t18 -59.5v-6q0 -40 -18 -61t-55 -21z" />
    <glyph glyph-name="copyright" unicode="&#xa9;" horiz-adv-x="1379" 
d="M690 -22q-184 0 -313.5 68t-197 196.5t-67.5 310.5v175q0 182 67.5 309.5t197 195t313.5 67.5t313 -67.5t197 -195t68 -309.5v-175q0 -182 -68 -310.5t-197 -196.5t-313 -68zM724 312q-133 0 -198 74t-65 211v88q0 137 65.5 210.5t197.5 73.5q67 0 113.5 -18.5
t73.5 -39.5l7 -80q-33 26 -76.5 44.5t-105.5 18.5q-95 0 -141 -53.5t-46 -153.5v-89q0 -101 47 -155t143 -54q63 0 107 19t77 44l-7 -80q-28 -23 -75.5 -41.5t-116.5 -18.5zM690 52q231 0 360.5 130t129.5 365v187q0 235 -129.5 363.5t-360.5 128.5t-361 -128.5t-130 -363.5
v-187q0 -235 130 -365t361 -130z" />
    <glyph glyph-name="ordfeminine" unicode="&#xaa;" horiz-adv-x="665" 
d="M470 643l4 151l-2 8v206v56q0 73 -36.5 112t-120.5 39q-66 0 -121 -21t-96 -48l8 81q36 24 92 44.5t130 20.5q63 0 107 -16t72 -46t40.5 -73t12.5 -95v-419h-90zM266 630q-92 0 -141.5 47t-49.5 134v15q0 82 49 126.5t162 62.5l199 31l6 -68l-185 -28
q-78 -13 -109.5 -40.5t-31.5 -78.5v-12q0 -52 32.5 -82t97.5 -30q74 0 121 41t59 100l16 -63h-17q-13 -64 -62 -109.5t-146 -45.5z" />
    <glyph glyph-name="registered" unicode="&#xae;" horiz-adv-x="828" 
d="M414 552q-161 0 -249 86.5t-88 244.5v82q0 159 88 245t249 86q162 0 249.5 -86t87.5 -245v-82q0 -158 -87.5 -244.5t-249.5 -86.5zM414 607q135 0 205 69t70 205v87q0 135 -70 204t-205 69t-205 -69t-70 -204v-87q0 -136 70 -205t205 -69zM509 737l-12 70q-7 44 -24 60
t-53 16h-92v47h107q36 0 52 17.5t16 48.5v11q0 29 -15.5 47t-52.5 18h-108v48h114q62 0 91.5 -26.5t29.5 -79.5v-10q0 -37 -20.5 -61.5t-66.5 -28.5l-2 -7l-12 9q48 -4 66.5 -28.5t27.5 -73.5l14 -77h-60zM289 737v383h58v-206v-19v-158h-58z" />
    <glyph glyph-name="degree" unicode="&#xb0;" horiz-adv-x="650" 
d="M325 799q-112 0 -173 65.5t-61 179.5v11q0 114 61 179.5t173 65.5t173 -65.5t61 -179.5v-11q0 -114 -61 -179.5t-173 -65.5zM325 882q68 0 103.5 43t35.5 118v13q0 75 -35.5 118t-103.5 43q-67 0 -103 -43t-36 -118v-13q0 -75 36 -118t103 -43z" />
    <glyph glyph-name="plusminus" unicode="&#xb1;" horiz-adv-x="1032" 
d="M126 164v99h780v-99h-780zM569 401h-106v686h106v-686zM126 695v98h780v-98h-780z" />
    <glyph glyph-name="acute" unicode="&#xb4;" horiz-adv-x="537" 
d="M299 1364h137v-2l-228 -261h-109v3z" />
    <glyph glyph-name="paragraph" unicode="&#xb6;" horiz-adv-x="701" 
d="M363 665q-139 0 -205 75t-66 204v56q0 129 66 203.5t205 74.5h87l1 -613h-88zM538 0h-121v1278h121v-1278z" />
    <glyph glyph-name="cedilla" unicode="&#xb8;" horiz-adv-x="563" 
d="M328 12l-19 -146l-54 38h28t30 -1q99 -5 146 -39t47 -102v-4q0 -71 -51.5 -105.5t-147.5 -34.5q-41 0 -79 6.5t-65 14.5l-15 81q31 -11 67.5 -18t77.5 -7q60 0 90 18t30 52v2q0 41 -36.5 58.5t-123.5 23.5q-10 1 -17.5 1t-12.5 1l19 161h86z" />
    <glyph glyph-name="ordmasculine" unicode="&#xba;" horiz-adv-x="691" 
d="M346 630q-131 0 -200 73.5t-69 212.5v92q0 140 69 212.5t200 72.5t199.5 -72.5t68.5 -212.5v-92q0 -139 -69 -212.5t-199 -73.5zM346 708q85 0 129 52t44 152v101q0 100 -44 151.5t-129 51.5q-86 0 -130.5 -51.5t-44.5 -151.5v-101q0 -99 44.5 -151.5t130.5 -52.5z" />
    <glyph glyph-name="questiondown" unicode="&#xbf;" horiz-adv-x="882" 
d="M595 587v-108l-74 -18q-102 -26 -168.5 -67t-98.5 -103t-32 -153v-92q0 -127 59.5 -195t200.5 -68q100 0 187.5 31t153.5 71l-15 -113q-33 -21 -84.5 -43.5t-116.5 -37t-141 -14.5q-191 0 -279.5 93t-88.5 267v100q0 123 44.5 206t134 136.5t222.5 85.5zM537 991
q42 0 62 -23.5t20 -68.5v-10q0 -43 -20 -66.5t-62 -23.5q-41 0 -62 23.5t-21 66.5v10q0 45 21 68.5t62 23.5z" />
    <glyph glyph-name="Agrave" unicode="&#xc0;" horiz-adv-x="1140" 
d="M58 0l410 1278h204l410 -1278h-126l-373 1192h-26l-372 -1192h-127zM277 402v104h585v-104h-585zM381 1649l248 -241v-2h-120l-271 241v2h143z" />
    <glyph glyph-name="Aacute" unicode="&#xc1;" horiz-adv-x="1140" 
d="M58 0l410 1278h204l410 -1278h-126l-373 1192h-26l-372 -1192h-127zM277 402v104h585v-104h-585zM762 1649h143v-2l-271 -241h-120v2z" />
    <glyph glyph-name="Acircumflex" unicode="&#xc2;" horiz-adv-x="1140" 
d="M58 0l410 1278h204l410 -1278h-126l-373 1192h-26l-372 -1192h-127zM277 402v104h585v-104h-585zM505 1649h131l228 -241v-2h-107l-183 172h-7l-183 -172h-107v2z" />
    <glyph glyph-name="Atilde" unicode="&#xc3;" horiz-adv-x="1140" 
d="M58 0l410 1278h204l410 -1278h-126l-373 1192h-26l-372 -1192h-127zM277 402v104h585v-104h-585zM711 1431q-39 0 -75.5 13t-69.5 29.5t-64.5 30t-61.5 13.5q-33 0 -47 -20t-14 -57v-20h-80v31q0 70 29 112.5t102 42.5q40 0 76 -13t69.5 -30.5t65 -30.5t61.5 -13
q33 0 46.5 20t13.5 57v19h80v-31q0 -70 -29 -111.5t-102 -41.5z" />
    <glyph glyph-name="Aring" unicode="&#xc5;" horiz-adv-x="1140" 
d="M58 0l410 1278h204l410 -1278h-126l-373 1192h-26l-372 -1192h-127zM277 402v104h585v-104h-585zM393 1527v3q0 73 45.5 116t131.5 43q85 0 130.5 -43t45.5 -116v-3q0 -71 -45.5 -114t-130.5 -43q-86 0 -131.5 43t-45.5 114zM470 1528q0 -44 26 -68t74 -24q49 0 74.5 24
t25.5 68v2q0 45 -25.5 69.5t-74.5 24.5q-48 0 -74 -24.5t-26 -69.5v-2z" />
    <glyph glyph-name="Adieresis" unicode="&#xc4;" horiz-adv-x="1140" 
d="M58 0l410 1278h204l410 -1278h-126l-373 1192h-26l-372 -1192h-127zM277 402v104h585v-104h-585zM425 1446q-37 0 -55 21t-18 61v6q0 39 18 59.5t55 20.5t55 -20.5t18 -59.5v-6q0 -40 -18 -61t-55 -21zM717 1446q-36 0 -54 21t-18 61v6q0 39 18 59.5t54 20.5
q37 0 55 -20.5t18 -59.5v-6q0 -40 -18 -61t-55 -21z" />
    <glyph glyph-name="AE" unicode="&#xc6;" horiz-adv-x="1722" 
d="M56 0l652 1278h164v-86h-80l-603 -1192h-133zM346 402v104h547v-104h-547zM886 0v105h733v-105h-733zM849 0v1278h123v-1278h-123zM919 601v104h679v-104h-679zM885 1173v105h728v-105h-728z" />
    <glyph glyph-name="Ccedilla" unicode="&#xc7;" horiz-adv-x="1009" 
d="M570 -22q-229 0 -343.5 130.5t-114.5 368.5v326q0 238 113.5 367.5t339.5 129.5q77 0 140 -15.5t111.5 -39.5t81.5 -49l12 -118q-60 45 -141 78.5t-190 33.5q-168 0 -254.5 -101t-86.5 -288v-320q0 -186 87.5 -288t261.5 -102q108 0 190 33t143 80l-11 -120
q-33 -26 -83 -50t-114 -40t-142 -16zM588 10l-19 -146l-54 38h28t30 -1q99 -5 146 -39t47 -102v-4q0 -71 -51.5 -105.5t-147.5 -34.5q-41 0 -79 6.5t-65 14.5l-15 81q31 -11 67.5 -18t77.5 -7q60 0 90 18t30 52v2q0 41 -36.5 58.5t-123.5 23.5q-10 1 -17.5 1t-12.5 1l19 161
h86z" />
    <glyph glyph-name="Egrave" unicode="&#xc8;" horiz-adv-x="1036" 
d="M162 0v1278h123v-1278h-123zM200 0v105h732v-105h-732zM232 601v104h679v-104h-679zM198 1173v105h728v-105h-728zM362 1649l248 -241v-2h-120l-271 241v2h143z" />
    <glyph glyph-name="Eacute" unicode="&#xc9;" horiz-adv-x="1036" 
d="M162 0v1278h123v-1278h-123zM200 0v105h732v-105h-732zM232 601v104h679v-104h-679zM198 1173v105h728v-105h-728zM744 1649h143v-2l-271 -241h-120v2z" />
    <glyph glyph-name="Ecircumflex" unicode="&#xca;" horiz-adv-x="1036" 
d="M162 0v1278h123v-1278h-123zM200 0v105h732v-105h-732zM232 601v104h679v-104h-679zM198 1173v105h728v-105h-728zM487 1649h131l228 -241v-2h-107l-183 172h-7l-183 -172h-107v2z" />
    <glyph glyph-name="Edieresis" unicode="&#xcb;" horiz-adv-x="1036" 
d="M162 0v1278h123v-1278h-123zM200 0v105h732v-105h-732zM232 601v104h679v-104h-679zM198 1173v105h728v-105h-728zM406 1446q-37 0 -55 21t-18 61v6q0 39 18 59.5t55 20.5t55 -20.5t18 -59.5v-6q0 -40 -18 -61t-55 -21zM698 1446q-36 0 -54 21t-18 61v6q0 39 18 59.5
t54 20.5q37 0 55 -20.5t18 -59.5v-6q0 -40 -18 -61t-55 -21z" />
    <glyph glyph-name="Igrave" unicode="&#xcc;" horiz-adv-x="453" 
d="M289 0h-125v1278h125v-1278zM36 1649l248 -241v-2h-120l-271 241v2h143z" />
    <glyph glyph-name="Iacute" unicode="&#xcd;" horiz-adv-x="453" 
d="M289 0h-125v1278h125v-1278zM418 1649h143v-2l-271 -241h-120v2z" />
    <glyph glyph-name="Icircumflex" unicode="&#xce;" horiz-adv-x="453" 
d="M289 0h-125v1278h125v-1278zM161 1649h131l228 -241v-2h-107l-183 172h-7l-183 -172h-107v2z" />
    <glyph glyph-name="Idieresis" unicode="&#xcf;" horiz-adv-x="453" 
d="M289 0h-125v1278h125v-1278zM81 1446q-37 0 -55 21t-18 61v6q0 39 18 59.5t55 20.5t55 -20.5t18 -59.5v-6q0 -40 -18 -61t-55 -21zM373 1446q-36 0 -54 21t-18 61v6q0 39 18 59.5t54 20.5q37 0 55 -20.5t18 -59.5v-6q0 -40 -18 -61t-55 -21z" />
    <glyph glyph-name="Eth" unicode="&#xd0;" horiz-adv-x="1168" 
d="M9 612v96h613v-96h-613zM244 0v106h319q183 0 276 100t93 287v293q0 188 -93 287.5t-276 99.5h-320v105h324q241 0 366 -127t125 -364v-295q0 -237 -125 -364.5t-366 -127.5h-323zM162 0v1278h123v-1278h-123z" />
    <glyph glyph-name="Ntilde" unicode="&#xd1;" horiz-adv-x="1223" 
d="M356 1278l576 -1147h13l-5 564v583h121v-1278h-190l-579 1154h-13l5 -596v-558h-122v1278h194zM754 1431q-39 0 -75.5 13t-69.5 29.5t-64.5 30t-61.5 13.5q-33 0 -47 -20t-14 -57v-20h-80v31q0 70 29 112.5t102 42.5q40 0 76 -13t69.5 -30.5t65 -30.5t61.5 -13
q33 0 46.5 20t13.5 57v19h80v-31q0 -70 -29 -111.5t-102 -41.5z" />
    <glyph glyph-name="Ograve" unicode="&#xd2;" horiz-adv-x="1176" 
d="M588 -22q-233 0 -354.5 131t-121.5 374v313q0 242 121.5 373t354.5 131q232 0 354 -131t122 -373v-313q0 -243 -122 -374t-354 -131zM588 83q173 0 261.5 103.5t88.5 292.5v321q0 190 -88.5 292.5t-261.5 102.5t-261.5 -102.5t-88.5 -292.5v-321q0 -189 88.5 -292.5
t261.5 -103.5zM398 1649l248 -241v-2h-120l-271 241v2h143z" />
    <glyph glyph-name="Oacute" unicode="&#xd3;" horiz-adv-x="1176" 
d="M588 -22q-233 0 -354.5 131t-121.5 374v313q0 242 121.5 373t354.5 131q232 0 354 -131t122 -373v-313q0 -243 -122 -374t-354 -131zM588 83q173 0 261.5 103.5t88.5 292.5v321q0 190 -88.5 292.5t-261.5 102.5t-261.5 -102.5t-88.5 -292.5v-321q0 -189 88.5 -292.5
t261.5 -103.5zM780 1649h143v-2l-271 -241h-120v2z" />
    <glyph glyph-name="Ocircumflex" unicode="&#xd4;" horiz-adv-x="1176" 
d="M588 -22q-233 0 -354.5 131t-121.5 374v313q0 242 121.5 373t354.5 131q232 0 354 -131t122 -373v-313q0 -243 -122 -374t-354 -131zM588 83q173 0 261.5 103.5t88.5 292.5v321q0 190 -88.5 292.5t-261.5 102.5t-261.5 -102.5t-88.5 -292.5v-321q0 -189 88.5 -292.5
t261.5 -103.5zM523 1649h131l228 -241v-2h-107l-183 172h-7l-183 -172h-107v2z" />
    <glyph glyph-name="Otilde" unicode="&#xd5;" horiz-adv-x="1176" 
d="M588 -22q-233 0 -354.5 131t-121.5 374v313q0 242 121.5 373t354.5 131q232 0 354 -131t122 -373v-313q0 -243 -122 -374t-354 -131zM588 83q173 0 261.5 103.5t88.5 292.5v321q0 190 -88.5 292.5t-261.5 102.5t-261.5 -102.5t-88.5 -292.5v-321q0 -189 88.5 -292.5
t261.5 -103.5zM728 1431q-39 0 -75.5 13t-69.5 29.5t-64.5 30t-61.5 13.5q-33 0 -47 -20t-14 -57v-20h-80v31q0 70 29 112.5t102 42.5q40 0 76 -13t69.5 -30.5t65 -30.5t61.5 -13q33 0 46.5 20t13.5 57v19h80v-31q0 -70 -29 -111.5t-102 -41.5z" />
    <glyph glyph-name="Odieresis" unicode="&#xd6;" horiz-adv-x="1176" 
d="M588 -22q-233 0 -354.5 131t-121.5 374v313q0 242 121.5 373t354.5 131q232 0 354 -131t122 -373v-313q0 -243 -122 -374t-354 -131zM588 83q173 0 261.5 103.5t88.5 292.5v321q0 190 -88.5 292.5t-261.5 102.5t-261.5 -102.5t-88.5 -292.5v-321q0 -189 88.5 -292.5
t261.5 -103.5zM442 1446q-37 0 -55 21t-18 61v6q0 39 18 59.5t55 20.5t55 -20.5t18 -59.5v-6q0 -40 -18 -61t-55 -21zM734 1446q-36 0 -54 21t-18 61v6q0 39 18 59.5t54 20.5q37 0 55 -20.5t18 -59.5v-6q0 -40 -18 -61t-55 -21z" />
    <glyph glyph-name="Oslash" unicode="&#xd8;" horiz-adv-x="1176" 
d="M588 -22q-153 0 -259 60t-161.5 173t-55.5 272v313q0 242 121.5 373t354.5 131q152 0 258.5 -60t162 -172.5t55.5 -271.5v-313q0 -243 -122 -374t-354 -131zM130 -67l124 206l27 37l551 998l15 30l82 141h117l-123 -201l-26 -40l-549 -993l-11 -22l-90 -156h-117zM588 83
q173 0 261.5 103.5t88.5 292.5v321q0 190 -86.5 292.5t-263.5 102.5q-173 0 -261.5 -102.5t-88.5 -292.5v-321q0 -189 86.5 -292.5t263.5 -103.5z" />
    <glyph glyph-name="Ugrave" unicode="&#xd9;" horiz-adv-x="1204" 
d="M602 -22q-229 0 -339.5 122t-110.5 351v827h125v-830q0 -175 78 -269t247 -94q170 0 247.5 94t77.5 269v830h125v-827q0 -229 -110.5 -351t-339.5 -122zM412 1649l248 -241v-2h-120l-271 241v2h143z" />
    <glyph glyph-name="Uacute" unicode="&#xda;" horiz-adv-x="1204" 
d="M602 -22q-229 0 -339.5 122t-110.5 351v827h125v-830q0 -175 78 -269t247 -94q170 0 247.5 94t77.5 269v830h125v-827q0 -229 -110.5 -351t-339.5 -122zM793 1649h143v-2l-271 -241h-120v2z" />
    <glyph glyph-name="Ucircumflex" unicode="&#xdb;" horiz-adv-x="1204" 
d="M602 -22q-229 0 -339.5 122t-110.5 351v827h125v-830q0 -175 78 -269t247 -94q170 0 247.5 94t77.5 269v830h125v-827q0 -229 -110.5 -351t-339.5 -122zM536 1649h131l228 -241v-2h-107l-183 172h-7l-183 -172h-107v2z" />
    <glyph glyph-name="Udieresis" unicode="&#xdc;" horiz-adv-x="1204" 
d="M602 -22q-229 0 -339.5 122t-110.5 351v827h125v-830q0 -175 78 -269t247 -94q170 0 247.5 94t77.5 269v830h125v-827q0 -229 -110.5 -351t-339.5 -122zM456 1446q-37 0 -55 21t-18 61v6q0 39 18 59.5t55 20.5t55 -20.5t18 -59.5v-6q0 -40 -18 -61t-55 -21zM748 1446
q-36 0 -54 21t-18 61v6q0 39 18 59.5t54 20.5q37 0 55 -20.5t18 -59.5v-6q0 -40 -18 -61t-55 -21z" />
    <glyph glyph-name="Yacute" unicode="&#xdd;" horiz-adv-x="1078" 
d="M485 398l-438 880h132l254 -517l100 -214h12l100 214l253 517h133l-438 -880h-108zM478 0v517h122v-517h-122zM730 1649h143v-2l-271 -241h-120v2z" />
    <glyph glyph-name="Thorn" unicode="&#xde;" horiz-adv-x="1105" 
d="M242 225v104h373q145 0 209 72.5t64 198.5v87q0 127 -63 198t-207 71h-378v104h381q205 0 298 -99t93 -270v-95q0 -171 -94 -271t-299 -100h-377zM162 0v1278h123v-244v-47v-695v-34v-258h-123z" />
    <glyph glyph-name="germandbls" unicode="&#xdf;" horiz-adv-x="1116" 
d="M142 993q0 115 36 194.5t116.5 121.5t213.5 42q109 0 186 -31t117.5 -87t40.5 -134q0 -60 -25.5 -103.5t-63 -79t-75 -67.5t-62.5 -66.5t-25 -78.5v-6q0 -61 41.5 -93t142.5 -67q86 -30 140 -63.5t79 -83.5t25 -129v-14q0 -87 -37 -146.5t-107 -90t-170 -30.5
q-80 0 -138 15t-103 34l-12 113q58 -27 115 -43t128 -16q102 0 153.5 42.5t51.5 122.5v11q0 52 -17.5 86.5t-59 60t-114.5 50.5q-86 30 -138.5 60t-76 71t-23.5 104v6q0 57 25.5 100.5t62.5 78.5t74 68t62.5 69t25.5 82q0 45 -23.5 80.5t-73 55.5t-127.5 20
q-93 0 -146.5 -30.5t-76 -89.5t-22.5 -144v-988h-120v993z" />
    <glyph glyph-name="agrave" unicode="&#xe0;" horiz-adv-x="972" 
d="M725 0l6 243l-5 19v315v65q0 126 -63.5 188.5t-199.5 62.5q-106 0 -193 -32t-153 -73l12 107q36 23 87 46.5t117.5 39t146.5 15.5q98 0 167.5 -24t113.5 -70t64.5 -111t20.5 -146v-645h-121zM383 -21q-145 0 -222.5 70t-77.5 201v26q0 129 79.5 194.5t257.5 91.5l326 48
l6 -92l-317 -45q-124 -18 -178 -61.5t-54 -128.5v-18q0 -90 55 -137t161 -47q91 0 155.5 33t104 88.5t52.5 124.5l24 -86h-25q-12 -69 -52.5 -129t-113 -96.5t-181.5 -36.5zM330 1364l200 -260v-3h-110l-227 261v2h137z" />
    <glyph glyph-name="aacute" unicode="&#xe1;" horiz-adv-x="972" 
d="M725 0l6 243l-5 19v315v65q0 126 -63.5 188.5t-199.5 62.5q-106 0 -193 -32t-153 -73l12 107q36 23 87 46.5t117.5 39t146.5 15.5q98 0 167.5 -24t113.5 -70t64.5 -111t20.5 -146v-645h-121zM383 -21q-145 0 -222.5 70t-77.5 201v26q0 129 79.5 194.5t257.5 91.5l326 48
l6 -92l-317 -45q-124 -18 -178 -61.5t-54 -128.5v-18q0 -90 55 -137t161 -47q91 0 155.5 33t104 88.5t52.5 124.5l24 -86h-25q-12 -69 -52.5 -129t-113 -96.5t-181.5 -36.5zM624 1364h137v-2l-228 -261h-109v3z" />
    <glyph glyph-name="acircumflex" unicode="&#xe2;" horiz-adv-x="972" 
d="M725 0l6 243l-5 19v315v65q0 126 -63.5 188.5t-199.5 62.5q-106 0 -193 -32t-153 -73l12 107q36 23 87 46.5t117.5 39t146.5 15.5q98 0 167.5 -24t113.5 -70t64.5 -111t20.5 -146v-645h-121zM383 -21q-145 0 -222.5 70t-77.5 201v26q0 129 79.5 194.5t257.5 91.5l326 48
l6 -92l-317 -45q-124 -18 -178 -61.5t-54 -128.5v-18q0 -90 55 -137t161 -47q91 0 155.5 33t104 88.5t52.5 124.5l24 -86h-25q-12 -69 -52.5 -129t-113 -96.5t-181.5 -36.5zM409 1364h135l195 -260v-3h-100l-159 191h-7l-159 -191h-100v3z" />
    <glyph glyph-name="atilde" unicode="&#xe3;" horiz-adv-x="972" 
d="M725 0l6 243l-5 19v315v65q0 126 -63.5 188.5t-199.5 62.5q-106 0 -193 -32t-153 -73l12 107q36 23 87 46.5t117.5 39t146.5 15.5q98 0 167.5 -24t113.5 -70t64.5 -111t20.5 -146v-645h-121zM383 -21q-145 0 -222.5 70t-77.5 201v26q0 129 79.5 194.5t257.5 91.5l326 48
l6 -92l-317 -45q-124 -18 -178 -61.5t-54 -128.5v-18q0 -90 55 -137t161 -47q91 0 155.5 33t104 88.5t52.5 124.5l24 -86h-25q-12 -69 -52.5 -129t-113 -96.5t-181.5 -36.5zM608 1133q-36 0 -70 14t-65 32t-60 32t-56 14q-31 0 -45 -20t-14 -62v-20h-79v32q0 76 30 117.5
t99 41.5q37 0 70.5 -14t64.5 -32t60 -32t55 -14q32 0 45.5 20t13.5 61v20h80v-32q0 -76 -30 -117t-99 -41z" />
    <glyph glyph-name="adieresis" unicode="&#xe4;" horiz-adv-x="972" 
d="M725 0l6 243l-5 19v315v65q0 126 -63.5 188.5t-199.5 62.5q-106 0 -193 -32t-153 -73l12 107q36 23 87 46.5t117.5 39t146.5 15.5q98 0 167.5 -24t113.5 -70t64.5 -111t20.5 -146v-645h-121zM383 -21q-145 0 -222.5 70t-77.5 201v26q0 129 79.5 194.5t257.5 91.5l326 48
l6 -92l-317 -45q-124 -18 -178 -61.5t-54 -128.5v-18q0 -90 55 -137t161 -47q91 0 155.5 33t104 88.5t52.5 124.5l24 -86h-25q-12 -69 -52.5 -129t-113 -96.5t-181.5 -36.5zM331 1150q-37 0 -55 21t-18 61v6q0 39 18 59.5t55 20.5t55 -20.5t18 -59.5v-6q0 -40 -18 -61
t-55 -21zM623 1150q-36 0 -54 21t-18 61v6q0 39 18 59.5t54 20.5q37 0 55 -20.5t18 -59.5v-6q0 -40 -18 -61t-55 -21z" />
    <glyph glyph-name="aring" unicode="&#xe5;" horiz-adv-x="972" 
d="M725 0l6 243l-5 19v315v65q0 126 -63.5 188.5t-199.5 62.5q-106 0 -193 -32t-153 -73l12 107q36 23 87 46.5t117.5 39t146.5 15.5q98 0 167.5 -24t113.5 -70t64.5 -111t20.5 -146v-645h-121zM383 -21q-145 0 -222.5 70t-77.5 201v26q0 129 79.5 194.5t257.5 91.5l326 48
l6 -92l-317 -45q-124 -18 -178 -61.5t-54 -128.5v-18q0 -90 55 -137t161 -47q91 0 155.5 33t104 88.5t52.5 124.5l24 -86h-25q-12 -69 -52.5 -129t-113 -96.5t-181.5 -36.5zM300 1249v3q0 73 45.5 116t131.5 43q85 0 130.5 -43t45.5 -116v-3q0 -71 -45.5 -114t-130.5 -43
q-86 0 -131.5 43t-45.5 114zM377 1250q0 -44 26 -68t74 -24q49 0 74.5 24t25.5 68v2q0 45 -25.5 69.5t-74.5 24.5q-48 0 -74 -24.5t-26 -69.5v-2z" />
    <glyph glyph-name="ae" unicode="&#xe6;" horiz-adv-x="1608" 
d="M1154 -21q-175 0 -278 76t-132 209l-12 26q-4 44 -5.5 87.5t-0.5 88.5v160q0 133 -66 200t-198 67q-107 0 -193.5 -32t-151.5 -73l12 107q35 23 84.5 46.5t113.5 39t142 15.5q144 0 221 -68t96 -186h-1q26 120 116 188.5t236 68.5q125 0 209.5 -49t128 -141t43.5 -221
v-35q0 -29 -2 -58t-5 -58h-112q1 44 1.5 83t0.5 73q0 98 -31.5 166.5t-92.5 104.5t-152 36q-138 0 -208 -81.5t-70 -231.5v-99v-15v-92q0 -69 19.5 -124t60 -94t102 -59.5t143.5 -20.5q95 0 176 26.5t153 73.5l-12 -109q-63 -43 -147.5 -69t-187.5 -26zM389 -21
q-149 0 -227.5 70.5t-78.5 200.5v26q0 129 80 194.5t257 91.5l326 48l6 -92l-317 -45q-124 -18 -178 -61.5t-54 -128.5v-18q0 -90 55 -137t162 -47q91 0 156 32.5t105 88t54 124.5l43 -83h-23q-17 -73 -61 -133t-119 -95.5t-186 -35.5zM789 437v94h694v-94h-694z" />
    <glyph glyph-name="ccedilla" unicode="&#xe7;" horiz-adv-x="863" 
d="M499 -21q-200 0 -299 111t-99 316v164q0 205 99 315.5t299 110.5q65 0 116.5 -12.5t91.5 -32t66 -40.5l12 -109q-47 38 -112.5 65t-157.5 27q-146 0 -219 -84t-73 -242v-159q0 -157 73 -241.5t220 -84.5q94 0 161 27.5t116 65.5l-12 -111q-42 -32 -112 -59t-170 -27z
M523 12l-19 -146l-54 38h28t30 -1q99 -5 146 -39t47 -102v-4q0 -71 -51.5 -105.5t-147.5 -34.5q-41 0 -79 6.5t-65 14.5l-15 81q31 -11 67.5 -18t77.5 -7q60 0 90 18t30 52v2q0 41 -36.5 58.5t-123.5 23.5q-10 1 -17.5 1t-12.5 1l19 161h86z" />
    <glyph glyph-name="egrave" unicode="&#xe8;" horiz-adv-x="983" 
d="M530 -21q-211 0 -320 106t-109 302v190q0 204 101.5 313t295.5 109q130 0 218 -49t132.5 -141t44.5 -221v-35q0 -29 -2 -58t-5 -58h-112q2 44 2 83.5v72.5q0 98 -31.5 166.5t-93 104.5t-153.5 36q-137 0 -207 -80.5t-70 -232.5v-95l1 -16v-101q0 -67 19.5 -121t60 -92.5
t102 -58.5t143.5 -20q95 0 176.5 26.5t152.5 73.5l-12 -109q-62 -43 -147 -69t-187 -26zM164 437v93h695v-93h-695zM354 1364l200 -260v-3h-110l-227 261v2h137z" />
    <glyph glyph-name="eacute" unicode="&#xe9;" horiz-adv-x="983" 
d="M530 -21q-211 0 -320 106t-109 302v190q0 204 101.5 313t295.5 109q130 0 218 -49t132.5 -141t44.5 -221v-35q0 -29 -2 -58t-5 -58h-112q2 44 2 83.5v72.5q0 98 -31.5 166.5t-93 104.5t-153.5 36q-137 0 -207 -80.5t-70 -232.5v-95l1 -16v-101q0 -67 19.5 -121t60 -92.5
t102 -58.5t143.5 -20q95 0 176.5 26.5t152.5 73.5l-12 -109q-62 -43 -147 -69t-187 -26zM164 437v93h695v-93h-695zM647 1364h137v-2l-228 -261h-109v3z" />
    <glyph glyph-name="ecircumflex" unicode="&#xea;" horiz-adv-x="983" 
d="M530 -21q-211 0 -320 106t-109 302v190q0 204 101.5 313t295.5 109q130 0 218 -49t132.5 -141t44.5 -221v-35q0 -29 -2 -58t-5 -58h-112q2 44 2 83.5v72.5q0 98 -31.5 166.5t-93 104.5t-153.5 36q-137 0 -207 -80.5t-70 -232.5v-95l1 -16v-101q0 -67 19.5 -121t60 -92.5
t102 -58.5t143.5 -20q95 0 176.5 26.5t152.5 73.5l-12 -109q-62 -43 -147 -69t-187 -26zM164 437v93h695v-93h-695zM432 1364h135l195 -260v-3h-100l-159 191h-7l-159 -191h-100v3z" />
    <glyph glyph-name="edieresis" unicode="&#xeb;" horiz-adv-x="983" 
d="M530 -21q-211 0 -320 106t-109 302v190q0 204 101.5 313t295.5 109q130 0 218 -49t132.5 -141t44.5 -221v-35q0 -29 -2 -58t-5 -58h-112q2 44 2 83.5v72.5q0 98 -31.5 166.5t-93 104.5t-153.5 36q-137 0 -207 -80.5t-70 -232.5v-95l1 -16v-101q0 -67 19.5 -121t60 -92.5
t102 -58.5t143.5 -20q95 0 176.5 26.5t152.5 73.5l-12 -109q-62 -43 -147 -69t-187 -26zM164 437v93h695v-93h-695zM354 1150q-37 0 -55 21t-18 61v6q0 39 18 59.5t55 20.5t55 -20.5t18 -59.5v-6q0 -40 -18 -61t-55 -21zM646 1150q-36 0 -54 21t-18 61v6q0 39 18 59.5
t54 20.5q37 0 55 -20.5t18 -59.5v-6q0 -40 -18 -61t-55 -21z" />
    <glyph glyph-name="igrave" unicode="&#xec;" horiz-adv-x="413" 
d="M146 0v975h122v-975h-122zM137 1364l116 -261v-2h-100l-142 262v1h126z" />
    <glyph glyph-name="iacute" unicode="&#xed;" horiz-adv-x="413" 
d="M146 0v975h122v-975h-122zM277 1364h125v-1l-141 -262h-101v2z" />
    <glyph glyph-name="icircumflex" unicode="&#xee;" horiz-adv-x="413" 
d="M146 0v975h122v-975h-122zM141 1364h131l156 -261v-2h-95l-123 190h-7l-123 -190h-95v2z" />
    <glyph glyph-name="idieresis" unicode="&#xef;" horiz-adv-x="413" 
d="M146 0v975h122v-975h-122zM86 1150q-35 0 -52.5 21t-17.5 60v7q0 39 17.5 59.5t52.5 20.5t53 -20.5t18 -59.5v-7q0 -39 -18 -60t-53 -21zM328 1150q-36 0 -53 21t-17 60v7q0 39 17 59.5t53 20.5q35 0 52.5 -20.5t17.5 -59.5v-7q0 -39 -17.5 -60t-52.5 -21z" />
    <glyph glyph-name="eth" unicode="&#xf0;" horiz-adv-x="1026" 
d="M513 -24q-202 0 -307 111.5t-105 321.5v89q0 202 100 313t276 111q85 0 151 -29.5t107 -83t53 -127.5l33 5l-18 -168q-2 75 -24 132t-61.5 95.5t-92.5 58t-117 19.5q-140 0 -212.5 -83.5t-72.5 -240.5v-98q0 -158 74 -242t216 -84t216 84t74 242v87.5v90.5q-1 29 -1 49
t1 47q-12 88 -51.5 163.5t-108.5 150t-167.5 156t-227.5 180.5v0h157q127 -102 224 -188.5t163 -174t99.5 -189t33.5 -234.5v-131q0 -210 -105 -321.5t-307 -111.5zM210 1010v83l664 178v-83z" />
    <glyph glyph-name="ntilde" unicode="&#xf1;" horiz-adv-x="1050" 
d="M800 0v612q0 87 -23.5 150t-77.5 97t-145 34q-84 0 -146 -32t-100 -88t-52 -128l-25 90h27q13 72 54.5 130.5t112 94t171.5 35.5q118 0 189 -44t103.5 -126.5t32.5 -200.5v-624h-121zM142 0v975h121l-6 -241l6 -6v-728h-121zM657 1133q-36 0 -70 14t-65 32t-60 32t-56 14
q-31 0 -45 -20t-14 -62v-20h-79v32q0 76 30 117.5t99 41.5q37 0 70.5 -14t64.5 -32t60 -32t55 -14q32 0 45.5 20t13.5 61v20h80v-32q0 -76 -30 -117t-99 -41z" />
    <glyph glyph-name="ograve" unicode="&#xf2;" horiz-adv-x="1026" 
d="M513 -24q-202 0 -307 111.5t-105 321.5v159q0 209 105 320t307 111t307 -111t105 -320v-159q0 -210 -105 -321.5t-307 -111.5zM513 76q142 0 216.5 84t74.5 242v173q0 157 -74.5 241t-216.5 84t-216 -84t-74 -241v-173q0 -158 74 -242t216 -84zM367 1364l200 -260v-3
h-110l-227 261v2h137z" />
    <glyph glyph-name="oacute" unicode="&#xf3;" horiz-adv-x="1026" 
d="M513 -24q-202 0 -307 111.5t-105 321.5v159q0 209 105 320t307 111t307 -111t105 -320v-159q0 -210 -105 -321.5t-307 -111.5zM513 76q142 0 216.5 84t74.5 242v173q0 157 -74.5 241t-216.5 84t-216 -84t-74 -241v-173q0 -158 74 -242t216 -84zM661 1364h137v-2
l-228 -261h-109v3z" />
    <glyph glyph-name="ocircumflex" unicode="&#xf4;" horiz-adv-x="1026" 
d="M513 -24q-202 0 -307 111.5t-105 321.5v159q0 209 105 320t307 111t307 -111t105 -320v-159q0 -210 -105 -321.5t-307 -111.5zM513 76q142 0 216.5 84t74.5 242v173q0 157 -74.5 241t-216.5 84t-216 -84t-74 -241v-173q0 -158 74 -242t216 -84zM446 1364h135l195 -260v-3
h-100l-159 191h-7l-159 -191h-100v3z" />
    <glyph glyph-name="otilde" unicode="&#xf5;" horiz-adv-x="1026" 
d="M513 -24q-202 0 -307 111.5t-105 321.5v159q0 209 105 320t307 111t307 -111t105 -320v-159q0 -210 -105 -321.5t-307 -111.5zM513 76q142 0 216.5 84t74.5 242v173q0 157 -74.5 241t-216.5 84t-216 -84t-74 -241v-173q0 -158 74 -242t216 -84zM645 1133q-36 0 -70 14
t-65 32t-60 32t-56 14q-31 0 -45 -20t-14 -62v-20h-79v32q0 76 30 117.5t99 41.5q37 0 70.5 -14t64.5 -32t60 -32t55 -14q32 0 45.5 20t13.5 61v20h80v-32q0 -76 -30 -117t-99 -41z" />
    <glyph glyph-name="odieresis" unicode="&#xf6;" horiz-adv-x="1026" 
d="M513 -24q-202 0 -307 111.5t-105 321.5v159q0 209 105 320t307 111t307 -111t105 -320v-159q0 -210 -105 -321.5t-307 -111.5zM513 76q142 0 216.5 84t74.5 242v173q0 157 -74.5 241t-216.5 84t-216 -84t-74 -241v-173q0 -158 74 -242t216 -84zM368 1150q-37 0 -55 21
t-18 61v6q0 39 18 59.5t55 20.5t55 -20.5t18 -59.5v-6q0 -40 -18 -61t-55 -21zM660 1150q-36 0 -54 21t-18 61v6q0 39 18 59.5t54 20.5q37 0 55 -20.5t18 -59.5v-6q0 -40 -18 -61t-55 -21z" />
    <glyph glyph-name="oslash" unicode="&#xf8;" horiz-adv-x="1026" 
d="M513 -24q-134 0 -226 50t-139 147t-47 236v159q0 209 105 320t307 111q135 0 227 -49.5t138.5 -145.5t46.5 -236v-159q0 -210 -105 -321.5t-307 -111.5zM126 -67l109 173l27 37l443 753l17 29l70 117h108l-104 -163l-27 -38l-440 -752l-19 -33l-75 -123h-109zM513 76
q142 0 216.5 84t74.5 242v173q0 157 -74.5 241t-216.5 84t-216 -84t-74 -241v-173q0 -158 74 -242t216 -84z" />
    <glyph glyph-name="ugrave" unicode="&#xf9;" horiz-adv-x="1050" 
d="M250 975v-612q0 -86 23.5 -149.5t77.5 -98t145 -34.5q85 0 146.5 32.5t100 89t51.5 126.5l25 -89h-27q-13 -71 -54.5 -130.5t-112 -95t-171.5 -35.5q-117 0 -188.5 44t-104.5 127t-33 201v624h122zM908 975v-975h-121l6 241l-6 6v728h121zM377 1364l200 -260v-3h-110
l-227 261v2h137z" />
    <glyph glyph-name="uacute" unicode="&#xfa;" horiz-adv-x="1050" 
d="M250 975v-612q0 -86 23.5 -149.5t77.5 -98t145 -34.5q85 0 146.5 32.5t100 89t51.5 126.5l25 -89h-27q-13 -71 -54.5 -130.5t-112 -95t-171.5 -35.5q-117 0 -188.5 44t-104.5 127t-33 201v624h122zM908 975v-975h-121l6 241l-6 6v728h121zM670 1364h137v-2l-228 -261
h-109v3z" />
    <glyph glyph-name="ucircumflex" unicode="&#xfb;" horiz-adv-x="1050" 
d="M250 975v-612q0 -86 23.5 -149.5t77.5 -98t145 -34.5q85 0 146.5 32.5t100 89t51.5 126.5l25 -89h-27q-13 -71 -54.5 -130.5t-112 -95t-171.5 -35.5q-117 0 -188.5 44t-104.5 127t-33 201v624h122zM908 975v-975h-121l6 241l-6 6v728h121zM455 1364h135l195 -260v-3h-100
l-159 191h-7l-159 -191h-100v3z" />
    <glyph glyph-name="udieresis" unicode="&#xfc;" horiz-adv-x="1050" 
d="M250 975v-612q0 -86 23.5 -149.5t77.5 -98t145 -34.5q85 0 146.5 32.5t100 89t51.5 126.5l25 -89h-27q-13 -71 -54.5 -130.5t-112 -95t-171.5 -35.5q-117 0 -188.5 44t-104.5 127t-33 201v624h122zM908 975v-975h-121l6 241l-6 6v728h121zM377 1150q-37 0 -55 21t-18 61
v6q0 39 18 59.5t55 20.5t55 -20.5t18 -59.5v-6q0 -40 -18 -61t-55 -21zM669 1150q-36 0 -54 21t-18 61v6q0 39 18 59.5t54 20.5q37 0 55 -20.5t18 -59.5v-6q0 -40 -18 -61t-55 -21z" />
    <glyph glyph-name="yacute" unicode="&#xfd;" horiz-adv-x="972" 
d="M546 125l-63 -28l312 878h125l-475 -1319h-124l154 430l51 -46h-141l-333 935h127l293 -850h74zM634 1364h137v-2l-228 -261h-109v3z" />
    <glyph glyph-name="thorn" unicode="&#xfe;" horiz-adv-x="1059" 
d="M589 -21q-93 0 -163.5 34t-113 95.5t-52.5 144.5h-40l39 113q4 -94 44 -157.5t106 -95.5t147 -32q135 0 207.5 80.5t72.5 234.5v186q0 153 -72 233.5t-209 80.5q-79 0 -141.5 -32.5t-103 -89t-54.5 -130.5l-33 89h36q14 73 54.5 132t111 94.5t170.5 35.5q177 0 270 -108
t93 -314v-169q0 -207 -94 -316t-275 -109zM142 -344v1670h121v-342l-5 -252l1 -43v-409l-1 -29l5 -269v-326h-121z" />
    <glyph glyph-name="ydieresis" unicode="&#xff;" horiz-adv-x="972" 
d="M546 125l-63 -28l312 878h125l-475 -1319h-124l154 430l51 -46h-141l-333 935h127l293 -850h74zM341 1150q-37 0 -55 21t-18 61v6q0 39 18 59.5t55 20.5t55 -20.5t18 -59.5v-6q0 -40 -18 -61t-55 -21zM633 1150q-36 0 -54 21t-18 61v6q0 39 18 59.5t54 20.5
q37 0 55 -20.5t18 -59.5v-6q0 -40 -18 -61t-55 -21z" />
    <glyph glyph-name="logicalnot" unicode="&#xac;" horiz-adv-x="1021" 
d="M889 204h-104v428h104v-428zM109 574v99h780v-99h-780z" />
    <glyph glyph-name="macron" unicode="&#xaf;" horiz-adv-x="755" 
d="M114 1178v85h527v-85h-527z" />
    <glyph glyph-name="ring" unicode="&#x2da;" horiz-adv-x="563" 
d="M105 1249v3q0 73 45.5 116t131.5 43q85 0 130.5 -43t45.5 -116v-3q0 -71 -45.5 -114t-130.5 -43q-86 0 -131.5 43t-45.5 114zM182 1250q0 -44 26 -68t74 -24q49 0 74.5 24t25.5 68v2q0 45 -25.5 69.5t-74.5 24.5q-48 0 -74 -24.5t-26 -69.5v-2z" />
    <glyph glyph-name="periodcentered" unicode="&#xb7;" horiz-adv-x="349" 
d="M174 446q-39 0 -58.5 21.5t-19.5 61.5v6q0 38 19.5 60t58.5 22q40 0 59.5 -22t19.5 -60v-6q0 -40 -19.5 -61.5t-59.5 -21.5z" />
    <glyph glyph-name="fraction" unicode="&#x2044;" horiz-adv-x="423" 
d="M-258 0l848 1278h102l-847 -1278h-103z" />
    <glyph glyph-name="uni00B9" unicode="&#xb9;" horiz-adv-x="419" 
d="M232 726v584h-7l-191 -115l3 90l193 119h94v-678h-92z" />
    <glyph glyph-name="uni00B2" unicode="&#xb2;" horiz-adv-x="589" 
d="M45 726v85l208 164q56 45 95.5 81.5t60 73t20.5 78.5v7q0 60 -38.5 90.5t-117.5 30.5q-62 0 -117.5 -18t-103.5 -44l8 82q39 24 99.5 42t125.5 18q117 0 178.5 -50t61.5 -142v-10q0 -56 -24 -101.5t-69 -89t-108 -93.5l-154 -120v-22l-41 17h408v-79h-492z" />
    <glyph glyph-name="uni00B3" unicode="&#xb3;" horiz-adv-x="615" 
d="M284 712q-75 0 -134.5 16t-91.5 31l-9 83q41 -19 100 -34.5t125 -15.5q101 0 141.5 34.5t40.5 88.5v8q0 28 -9 49t-29 35t-51.5 21.5t-77.5 7.5l-135 2v70l133 2q88 2 126 31t38 79v9q0 51 -38.5 80t-131.5 29q-73 0 -129.5 -16.5t-97.5 -36.5l9 78q35 20 93.5 36
t136.5 16q130 0 192 -45.5t62 -129.5v-10q0 -59 -35.5 -101t-116.5 -49l-3 -8v7q85 -9 123 -50t38 -111v-12q0 -54 -27.5 -98t-87 -70t-154.5 -26z" />
    <glyph glyph-name="onequarter" unicode="&#xbc;" horiz-adv-x="1350" 
d="M232 600v584h-7l-191 -115l3 90l193 119h94v-678h-92zM161 0l848 1278h102l-847 -1278h-103zM1139 0v455l4 157h-18l-277 -403v-36l-43 29h526v-75h-579v86l322 465h153v-678h-88z" />
    <glyph glyph-name="onehalf" unicode="&#xbd;" horiz-adv-x="1443" 
d="M232 600v584h-7l-191 -115l3 90l193 119h94v-678h-92zM161 0l848 1278h102l-847 -1278h-103zM899 0v85l208 164q56 45 95.5 81.5t60 73t20.5 78.5v7q0 60 -38.5 90.5t-117.5 30.5q-62 0 -117.5 -18t-103.5 -44l8 82q39 24 99.5 42t125.5 18q117 0 178.5 -50t61.5 -142
v-10q0 -56 -24 -101.5t-69 -89t-108 -93.5l-154 -120v-22l-41 17h408v-79h-492z" />
    <glyph glyph-name="threequarters" unicode="&#xbe;" horiz-adv-x="1539" 
d="M284 586q-75 0 -134.5 16t-91.5 31l-9 83q41 -19 100 -34.5t125 -15.5q101 0 141.5 34.5t40.5 88.5v8q0 28 -9 49t-29 35t-51.5 21.5t-77.5 7.5l-135 2v70l133 2q88 2 126 31t38 79v9q0 51 -38.5 80t-131.5 29q-73 0 -129.5 -16.5t-97.5 -36.5l9 78q35 20 93.5 36
t136.5 16q130 0 192 -45.5t62 -129.5v-10q0 -59 -35.5 -101t-116.5 -49l-3 -8v7q85 -9 123 -50t38 -111v-12q0 -54 -27.5 -98t-87 -70t-154.5 -26zM349 0l848 1278h102l-847 -1278h-103zM1328 0v455l4 157h-18l-277 -403v-36l-43 29h526v-75h-579v86l322 465h153v-678h-88z
" />
    <glyph glyph-name="r_t" horiz-adv-x="1434" 
d="M1124 -19q-107 0 -173.5 32t-97 97.5t-30.5 164.5v636h120v-621q0 -104 48.5 -153.5t165.5 -49.5q59 0 115.5 14.5t105.5 41.5l-11 -108q-47 -25 -110.5 -39.5t-132.5 -14.5zM142 0v975h118l-7 -293l10 -10v-672h-121zM256 603l-31 93l30 4q31 134 113 211.5t209 77.5
q35 0 62 -5.5t48 -13.5l7 -118q-24 9 -55.5 15t-68.5 6q-110 0 -193.5 -68.5t-120.5 -201.5zM823 859v98h544l-11 -98h-533zM823 943v280l122 19l-5 -299h-117z" />
    <glyph glyph-name="uni1E9E" unicode="&#x1e9e;" horiz-adv-x="1243" 
d="M274 0h-122v834q0 218 108 331t336 113h501v-96l-420 -509l-56 27q36 12 82.5 17t84.5 5q179 0 266.5 -83.5t87.5 -248.5v-55q0 -171 -95 -263t-289 -92q-100 0 -173.5 22t-113.5 44l-13 118q55 -31 128 -53t162 -22q138 0 204 65.5t66 187.5v45q0 126 -67 185.5
t-215 59.5q-42 0 -83.5 -3.5t-82.5 -10.5v92l404 495l19 -28h-384q-176 0 -255.5 -87.5t-79.5 -257.5v-832z" />
    <glyph glyph-name="dotlessi" unicode="&#x131;" horiz-adv-x="413" 
d="M146 0v975h122v-975h-122z" />
    <glyph glyph-name="zero.zero" horiz-adv-x="1109" 
d="M182 328l694 706l41 -87l-696 -707zM554 -22q-218 0 -328.5 125t-110.5 359v353q0 235 110.5 360t328.5 125q219 0 330 -125t111 -360v-353q0 -234 -111 -359t-330 -125zM554 83q160 0 237 97t77 277v363q0 181 -77 278t-237 97q-158 0 -235.5 -97t-77.5 -278v-363
q0 -180 77.5 -277t235.5 -97z" />
    <glyph glyph-name="zero.tf" horiz-adv-x="1064" 
d="M538 -22q-218 0 -328.5 125t-110.5 359v353q0 235 110.5 360t328.5 125q219 0 330 -125t111 -360v-353q0 -234 -111 -359t-330 -125zM538 83q160 0 237 97t77 277v363q0 181 -77 278t-237 97q-158 0 -235.5 -97t-77.5 -278v-363q0 -180 77.5 -277t235.5 -97z" />
    <glyph glyph-name="one.tf" horiz-adv-x="1064" 
d="M518 0v1152h-13l-354 -212l4 123l355 215h132v-1278h-124zM117 0v107h852v-107h-852z" />
    <glyph glyph-name="two.tf" horiz-adv-x="1064" 
d="M140 0v123l332 325q96 94 163.5 170.5t104.5 150.5t37 158v11q0 80 -30 136.5t-91 86t-156 29.5q-104 0 -192.5 -33.5t-156.5 -77.5l12 115q38 25 90.5 49t119.5 39.5t150 15.5q189 0 285 -89.5t96 -257.5v-14q0 -102 -39 -187t-111.5 -169t-174.5 -184l-286 -282v-34
l-52 26h685v-107h-786z" />
    <glyph glyph-name="three.tf" horiz-adv-x="1064" 
d="M495 -21q-82 0 -152 13.5t-123 33t-86 36.5l-13 124q67 -39 161 -67.5t204 -28.5q111 0 180 30t101 86t32 135v31q0 78 -28 129.5t-92 78t-170 27.5l-222 3v99l226 3q103 2 163.5 30t87 78t26.5 118v20q0 76 -29 127.5t-93.5 78.5t-168.5 27q-115 0 -208.5 -30
t-161.5 -70l12 112q58 36 152.5 65.5t223.5 29.5q208 0 303.5 -85t95.5 -239v-22q0 -78 -27 -138.5t-85.5 -98t-153.5 -46.5l-3 -14l-1 14q150 -15 215.5 -89.5t65.5 -206.5v-40q0 -164 -105 -259t-327 -95z" />
    <glyph glyph-name="four.tf" horiz-adv-x="1064" 
d="M713 0v917l5 272h-29l-484 -812v-62l-48 49h853v-106h-929v129l533 891h219v-1278h-120z" />
    <glyph glyph-name="five.tf" horiz-adv-x="1064" 
d="M535 -21q-125 0 -213.5 28.5t-138.5 57.5l-14 122q43 -26 97.5 -47.5t119 -35.5t140.5 -14q107 0 176 32.5t102 95t33 151.5v72q0 125 -62 195.5t-194 70.5q-103 0 -177 -43t-124 -122l-107 20v716h757v-106h-637v-339l-3 -200l1 3q43 75 123.5 124.5t205.5 49.5
q172 0 256.5 -96.5t84.5 -267.5v-79q0 -119 -45.5 -206t-140 -134.5t-240.5 -47.5z" />
    <glyph glyph-name="six.tf" horiz-adv-x="1064" 
d="M560 -22q-140 0 -239 54.5t-150.5 161.5t-51.5 266v341q0 237 115 367t344 130q117 0 196 -25.5t132 -56.5l13 -115q-42 26 -89 46t-104 31.5t-131 11.5q-179 0 -266 -100.5t-87 -291.5v-350q0 -121 38.5 -202t109.5 -122t172 -41q146 0 216 79t70 201v70q0 86 -27.5 148
t-86.5 95.5t-153 33.5q-90 0 -159 -33t-116 -93.5t-70 -142.5l-17 104h23q20 75 66.5 135t123 95.5t182.5 35.5q178 0 268 -99t90 -276v-74q0 -173 -103.5 -278.5t-308.5 -105.5z" />
    <glyph glyph-name="seven.tf" horiz-adv-x="1064" 
d="M154 1278h116v-392h-116v392zM369 0l486 1172h-648v106h778v-108l-480 -1170h-136z" />
    <glyph glyph-name="eight.tf" horiz-adv-x="1064" 
d="M534 -25q-115 0 -199 24t-139 69t-81 109.5t-26 145.5v29q0 92 34 157.5t97.5 104.5t150.5 52v2q-84 9 -143.5 44.5t-91.5 95.5t-32 141v28q0 154 106 239t324 85q220 0 326 -85t106 -239v-28q0 -81 -31.5 -141t-91.5 -95.5t-144 -44.5v-2q88 -14 151 -53t97 -104
t34 -157v-29q0 -80 -25.5 -144.5t-80 -109.5t-139 -69.5t-202.5 -24.5zM536 80q163 0 241 67.5t78 184.5v30q0 114 -80 179t-243 73q-159 -8 -238 -73.5t-79 -178.5v-30q0 -117 79 -184.5t242 -67.5zM537 706q145 3 225 63.5t80 173.5v24q0 109 -75 169.5t-233 60.5
q-155 0 -230.5 -60.5t-75.5 -169.5v-24q0 -75 36 -127.5t105 -80t168 -29.5z" />
    <glyph glyph-name="nine.tf" horiz-adv-x="1064" 
d="M521 1300q216 0 326 -122t110 -356v-352q0 -236 -116.5 -364t-356.5 -128q-112 0 -188.5 23.5t-127.5 49.5l-14 121q64 -36 138 -60t180 -24q187 0 274.5 98t87.5 287v359q0 179 -78 270.5t-237 91.5q-147 0 -218 -78.5t-71 -202.5v-68q0 -128 66 -204t213 -76
q84 0 150 32.5t112 91.5t69 139l17 -104h-23q-19 -73 -65 -132t-119 -93.5t-175 -34.5q-186 0 -277 100t-91 276v74q0 174 104 280t310 106z" />
    <glyph glyph-name="zero.tf.zero" horiz-adv-x="1064" 
d="M166 328l695 706l41 -87l-697 -707zM539 -22q-218 0 -329 125t-111 359v353q0 235 110.5 360t329.5 125t329.5 -125t110.5 -360v-353q0 -234 -110.5 -359t-329.5 -125zM539 83q159 0 236.5 97t77.5 277v363q0 181 -77.5 278t-236.5 97t-236.5 -97t-77.5 -278v-363
q0 -180 78 -277t236 -97z" />
    <glyph glyph-name="zero.dnom" horiz-adv-x="700" 
d="M349 -15q-138 0 -209.5 77t-71.5 218v115q0 139 71 217t210 78q140 0 211.5 -78t71.5 -217v-115q0 -141 -71.5 -218t-211.5 -77zM349 65q94 0 140.5 55t46.5 155v124q0 101 -46.5 156t-140.5 55q-95 0 -140 -56.5t-45 -154.5v-124q0 -100 46.5 -155t138.5 -55z" />
    <glyph glyph-name="one.dnom" horiz-adv-x="419" 
d="M232 0v584h-7l-191 -115l3 90l193 119h94v-678h-92z" />
    <glyph glyph-name="two.dnom" horiz-adv-x="589" 
d="M45 0v85l208 164q56 45 95.5 81.5t60 73t20.5 78.5v7q0 60 -38.5 90.5t-117.5 30.5q-62 0 -117.5 -18t-103.5 -44l8 82q39 24 99.5 42t125.5 18q117 0 178.5 -50t61.5 -142v-10q0 -56 -24 -101.5t-69 -89t-108 -93.5l-154 -120v-22l-41 17h408v-79h-492z" />
    <glyph glyph-name="three.dnom" horiz-adv-x="615" 
d="M284 -14q-75 0 -134.5 16t-91.5 31l-9 83q41 -19 100 -34.5t125 -15.5q101 0 141.5 34.5t40.5 88.5v8q0 28 -9 49t-29 35t-51.5 21.5t-77.5 7.5l-135 2v70l133 2q88 2 126 31t38 79v9q0 51 -38.5 80t-131.5 29q-73 0 -129.5 -16.5t-97.5 -36.5l9 78q35 20 93.5 36
t136.5 16q130 0 192 -45.5t62 -129.5v-10q0 -59 -35.5 -101t-116.5 -49l-3 -8v7q85 -9 123 -50t38 -111v-12q0 -54 -27.5 -98t-87 -70t-154.5 -26z" />
    <glyph glyph-name="four.dnom" horiz-adv-x="633" 
d="M422 0v455l4 157h-18l-277 -403v-36l-43 29h526v-75h-579v86l322 465h153v-678h-88z" />
    <glyph glyph-name="five.dnom" horiz-adv-x="646" 
d="M312 -14q-79 0 -136.5 17t-88.5 31l-9 84q40 -20 99 -36t130 -16q100 0 142 39t42 105v15q0 64 -34 99.5t-112 35.5q-60 0 -105.5 -22.5t-75.5 -60.5l-81 12v389h479v-78h-392v-158l-2 -106l1 2q27 41 79 67.5t129 26.5q104 0 156.5 -54t52.5 -151v-21
q0 -65 -28.5 -114.5t-89 -77.5t-156.5 -28z" />
    <glyph glyph-name="six.dnom" horiz-adv-x="669" 
d="M352 -15q-142 0 -214 77t-72 216v123q0 131 73.5 209.5t220.5 78.5q69 0 120 -13.5t86 -30.5l10 -80q-40 19 -86 32.5t-112 13.5q-76 0 -124 -27t-70.5 -74.5t-22.5 -110.5v-133q0 -95 47.5 -148.5t144.5 -53.5q79 0 122 38.5t43 105.5v13q0 68 -37.5 103.5t-116.5 35.5
t-129.5 -36t-77.5 -96l-15 58h17q14 38 43.5 71.5t76 53.5t110.5 20q108 0 164.5 -52.5t56.5 -152.5v-19q0 -104 -68 -163t-190 -59z" />
    <glyph glyph-name="seven.dnom" horiz-adv-x="569" 
d="M138 0l295 599h-395v79h494v-80l-290 -598h-104z" />
    <glyph glyph-name="eight.dnom" horiz-adv-x="685" 
d="M343 -18q-98 0 -160 23t-91.5 66t-29.5 102v10q0 49 18.5 83.5t54 55.5t83.5 30v2q-49 7 -82 27.5t-49 51.5t-16 67v10q0 85 67 133t205 48q137 0 204 -47t67 -134v-9q0 -63 -38.5 -99.5t-108.5 -47.5v-2q79 -12 118 -55.5t39 -113.5v-10q0 -58 -28.5 -100.5t-90.5 -66.5
t-162 -24zM344 61q94 0 138.5 31.5t44.5 90.5v10q0 57 -46 88.5t-140 33.5q-92 -2 -137 -33.5t-45 -88.5v-11q0 -57 44.5 -89t140.5 -32zM344 380q87 3 131 32.5t44 81.5v7q0 55 -43 84.5t-133 29.5q-92 0 -134 -30.5t-42 -83.5v-7q0 -52 44 -81.5t133 -32.5z" />
    <glyph glyph-name="nine.dnom" horiz-adv-x="669" 
d="M322 690q140 0 210 -77t70 -217v-124q0 -87 -33.5 -152t-100 -100t-167.5 -35q-68 0 -118.5 13t-84.5 28l-11 83q40 -18 87 -31.5t115 -13.5q114 0 166.5 58t52.5 151v137q0 94 -46 147t-141 53q-83 0 -127 -37.5t-44 -104.5v-13q0 -69 40 -105t122 -36q78 0 126 35
t72 95l17 -59h-18q-13 -37 -41 -69.5t-72.5 -52.5t-108.5 -20q-112 0 -170.5 53.5t-58.5 152.5v20q0 102 69 161.5t195 59.5z" />
    <glyph glyph-name="uni2080" unicode="&#x2080;" horiz-adv-x="700" 
d="M349 -215q-138 0 -209.5 77t-71.5 218v115q0 139 71 217t210 78q140 0 211.5 -78t71.5 -217v-115q0 -141 -71.5 -218t-211.5 -77zM349 -135q94 0 140.5 55t46.5 155v124q0 101 -46.5 156t-140.5 55q-95 0 -140 -56.5t-45 -154.5v-124q0 -100 46.5 -155t138.5 -55z" />
    <glyph glyph-name="uni2081" unicode="&#x2081;" horiz-adv-x="419" 
d="M232 -200v584h-7l-191 -115l3 90l193 119h94v-678h-92z" />
    <glyph glyph-name="uni2082" unicode="&#x2082;" horiz-adv-x="589" 
d="M45 -200v85l208 164q56 45 95.5 81.5t60 73t20.5 78.5v7q0 60 -38.5 90.5t-117.5 30.5q-62 0 -117.5 -18t-103.5 -44l8 82q39 24 99.5 42t125.5 18q117 0 178.5 -50t61.5 -142v-10q0 -56 -24 -101.5t-69 -89t-108 -93.5l-154 -120v-22l-41 17h408v-79h-492z" />
    <glyph glyph-name="uni2083" unicode="&#x2083;" horiz-adv-x="615" 
d="M284 -214q-75 0 -134.5 16t-91.5 31l-9 83q41 -19 100 -34.5t125 -15.5q101 0 141.5 34.5t40.5 88.5v8q0 28 -9 49t-29 35t-51.5 21.5t-77.5 7.5l-135 2v70l133 2q88 2 126 31t38 79v9q0 51 -38.5 80t-131.5 29q-73 0 -129.5 -16.5t-97.5 -36.5l9 78q35 20 93.5 36
t136.5 16q130 0 192 -45.5t62 -129.5v-10q0 -59 -35.5 -101t-116.5 -49l-3 -8v7q85 -9 123 -50t38 -111v-12q0 -54 -27.5 -98t-87 -70t-154.5 -26z" />
    <glyph glyph-name="uni2084" unicode="&#x2084;" horiz-adv-x="633" 
d="M422 -200v455l4 157h-18l-277 -403v-36l-43 29h526v-75h-579v86l322 465h153v-678h-88z" />
    <glyph glyph-name="uni2085" unicode="&#x2085;" horiz-adv-x="646" 
d="M312 -214q-79 0 -136.5 17t-88.5 31l-9 84q40 -20 99 -36t130 -16q100 0 142 39t42 105v15q0 64 -34 99.5t-112 35.5q-60 0 -105.5 -22.5t-75.5 -60.5l-81 12v389h479v-78h-392v-158l-2 -106l1 2q27 41 79 67.5t129 26.5q104 0 156.5 -54t52.5 -151v-21
q0 -65 -28.5 -114.5t-89 -77.5t-156.5 -28z" />
    <glyph glyph-name="uni2086" unicode="&#x2086;" horiz-adv-x="669" 
d="M352 -215q-142 0 -214 77t-72 216v123q0 131 73.5 209.5t220.5 78.5q69 0 120 -13.5t86 -30.5l10 -80q-40 19 -86 32.5t-112 13.5q-76 0 -124 -27t-70.5 -74.5t-22.5 -110.5v-133q0 -95 47.5 -148.5t144.5 -53.5q79 0 122 38.5t43 105.5v13q0 68 -37.5 103.5t-116.5 35.5
t-129.5 -36t-77.5 -96l-15 58h17q14 38 43.5 71.5t76 53.5t110.5 20q108 0 164.5 -52.5t56.5 -152.5v-19q0 -104 -68 -163t-190 -59z" />
    <glyph glyph-name="uni2087" unicode="&#x2087;" horiz-adv-x="569" 
d="M138 -200l295 599h-395v79h494v-80l-290 -598h-104z" />
    <glyph glyph-name="uni2088" unicode="&#x2088;" horiz-adv-x="685" 
d="M343 -218q-98 0 -160 23t-91.5 66t-29.5 102v10q0 49 18.5 83.5t54 55.5t83.5 30v2q-49 7 -82 27.5t-49 51.5t-16 67v10q0 85 67 133t205 48q137 0 204 -47t67 -134v-9q0 -63 -38.5 -99.5t-108.5 -47.5v-2q79 -12 118 -55.5t39 -113.5v-10q0 -58 -28.5 -100.5
t-90.5 -66.5t-162 -24zM344 -139q94 0 138.5 31.5t44.5 90.5v10q0 57 -46 88.5t-140 33.5q-92 -2 -137 -33.5t-45 -88.5v-11q0 -57 44.5 -89t140.5 -32zM344 180q87 3 131 32.5t44 81.5v7q0 55 -43 84.5t-133 29.5q-92 0 -134 -30.5t-42 -83.5v-7q0 -52 44 -81.5t133 -32.5z
" />
    <glyph glyph-name="uni2089" unicode="&#x2089;" horiz-adv-x="669" 
d="M322 490q140 0 210 -77t70 -217v-124q0 -87 -33.5 -152t-100 -100t-167.5 -35q-68 0 -118.5 13t-84.5 28l-11 83q40 -18 87 -31.5t115 -13.5q114 0 166.5 58t52.5 151v137q0 94 -46 147t-141 53q-83 0 -127 -37.5t-44 -104.5v-13q0 -69 40 -105t122 -36q78 0 126 35
t72 95l17 -59h-18q-13 -37 -41 -69.5t-72.5 -52.5t-108.5 -20q-112 0 -170.5 53.5t-58.5 152.5v20q0 102 69 161.5t195 59.5z" />
    <glyph glyph-name="zero.numr" horiz-adv-x="700" 
d="M349 585q-138 0 -209.5 77t-71.5 218v115q0 139 71 217t210 78q140 0 211.5 -78t71.5 -217v-115q0 -141 -71.5 -218t-211.5 -77zM349 665q94 0 140.5 55t46.5 155v124q0 101 -46.5 156t-140.5 55q-95 0 -140 -56.5t-45 -154.5v-124q0 -100 46.5 -155t138.5 -55z" />
    <glyph glyph-name="one.numr" horiz-adv-x="419" 
d="M232 600v584h-7l-191 -115l3 90l193 119h94v-678h-92z" />
    <glyph glyph-name="two.numr" horiz-adv-x="589" 
d="M45 600v85l208 164q56 45 95.5 81.5t60 73t20.5 78.5v7q0 60 -38.5 90.5t-117.5 30.5q-62 0 -117.5 -18t-103.5 -44l8 82q39 24 99.5 42t125.5 18q117 0 178.5 -50t61.5 -142v-10q0 -56 -24 -101.5t-69 -89t-108 -93.5l-154 -120v-22l-41 17h408v-79h-492z" />
    <glyph glyph-name="three.numr" horiz-adv-x="615" 
d="M284 586q-75 0 -134.5 16t-91.5 31l-9 83q41 -19 100 -34.5t125 -15.5q101 0 141.5 34.5t40.5 88.5v8q0 28 -9 49t-29 35t-51.5 21.5t-77.5 7.5l-135 2v70l133 2q88 2 126 31t38 79v9q0 51 -38.5 80t-131.5 29q-73 0 -129.5 -16.5t-97.5 -36.5l9 78q35 20 93.5 36
t136.5 16q130 0 192 -45.5t62 -129.5v-10q0 -59 -35.5 -101t-116.5 -49l-3 -8v7q85 -9 123 -50t38 -111v-12q0 -54 -27.5 -98t-87 -70t-154.5 -26z" />
    <glyph glyph-name="four.numr" horiz-adv-x="633" 
d="M422 600v455l4 157h-18l-277 -403v-36l-43 29h526v-75h-579v86l322 465h153v-678h-88z" />
    <glyph glyph-name="five.numr" horiz-adv-x="646" 
d="M312 586q-79 0 -136.5 17t-88.5 31l-9 84q40 -20 99 -36t130 -16q100 0 142 39t42 105v15q0 64 -34 99.5t-112 35.5q-60 0 -105.5 -22.5t-75.5 -60.5l-81 12v389h479v-78h-392v-158l-2 -106l1 2q27 41 79 67.5t129 26.5q104 0 156.5 -54t52.5 -151v-21
q0 -65 -28.5 -114.5t-89 -77.5t-156.5 -28z" />
    <glyph glyph-name="six.numr" horiz-adv-x="669" 
d="M352 585q-142 0 -214 77t-72 216v123q0 131 73.5 209.5t220.5 78.5q69 0 120 -13.5t86 -30.5l10 -80q-40 19 -86 32.5t-112 13.5q-76 0 -124 -27t-70.5 -74.5t-22.5 -110.5v-133q0 -95 47.5 -148.5t144.5 -53.5q79 0 122 38.5t43 105.5v13q0 68 -37.5 103.5t-116.5 35.5
t-129.5 -36t-77.5 -96l-15 58h17q14 38 43.5 71.5t76 53.5t110.5 20q108 0 164.5 -52.5t56.5 -152.5v-19q0 -104 -68 -163t-190 -59z" />
    <glyph glyph-name="seven.numr" horiz-adv-x="569" 
d="M138 600l295 599h-395v79h494v-80l-290 -598h-104z" />
    <glyph glyph-name="eight.numr" horiz-adv-x="685" 
d="M343 582q-98 0 -160 23t-91.5 66t-29.5 102v10q0 49 18.5 83.5t54 55.5t83.5 30v2q-49 7 -82 27.5t-49 51.5t-16 67v10q0 85 67 133t205 48q137 0 204 -47t67 -134v-9q0 -63 -38.5 -99.5t-108.5 -47.5v-2q79 -12 118 -55.5t39 -113.5v-10q0 -58 -28.5 -100.5t-90.5 -66.5
t-162 -24zM344 661q94 0 138.5 31.5t44.5 90.5v10q0 57 -46 88.5t-140 33.5q-92 -2 -137 -33.5t-45 -88.5v-11q0 -57 44.5 -89t140.5 -32zM344 980q87 3 131 32.5t44 81.5v7q0 55 -43 84.5t-133 29.5q-92 0 -134 -30.5t-42 -83.5v-7q0 -52 44 -81.5t133 -32.5z" />
    <glyph glyph-name="nine.numr" horiz-adv-x="669" 
d="M322 1290q140 0 210 -77t70 -217v-124q0 -87 -33.5 -152t-100 -100t-167.5 -35q-68 0 -118.5 13t-84.5 28l-11 83q40 -18 87 -31.5t115 -13.5q114 0 166.5 58t52.5 151v137q0 94 -46 147t-141 53q-83 0 -127 -37.5t-44 -104.5v-13q0 -69 40 -105t122 -36q78 0 126 35
t72 95l17 -59h-18q-13 -37 -41 -69.5t-72.5 -52.5t-108.5 -20q-112 0 -170.5 53.5t-58.5 152.5v20q0 102 69 161.5t195 59.5z" />
    <glyph glyph-name="uni2070" unicode="&#x2070;" horiz-adv-x="700" 
d="M349 711q-138 0 -209.5 77t-71.5 218v115q0 139 71 217t210 78q140 0 211.5 -78t71.5 -217v-115q0 -141 -71.5 -218t-211.5 -77zM349 791q94 0 140.5 55t46.5 155v124q0 101 -46.5 156t-140.5 55q-95 0 -140 -56.5t-45 -154.5v-124q0 -100 46.5 -155t138.5 -55z" />
    <glyph glyph-name="uni2074" unicode="&#x2074;" horiz-adv-x="633" 
d="M422 726v455l4 157h-18l-277 -403v-36l-43 29h526v-75h-579v86l322 465h153v-678h-88z" />
    <glyph glyph-name="uni2075" unicode="&#x2075;" horiz-adv-x="646" 
d="M312 712q-79 0 -136.5 17t-88.5 31l-9 84q40 -20 99 -36t130 -16q100 0 142 39t42 105v15q0 64 -34 99.5t-112 35.5q-60 0 -105.5 -22.5t-75.5 -60.5l-81 12v389h479v-78h-392v-158l-2 -106l1 2q27 41 79 67.5t129 26.5q104 0 156.5 -54t52.5 -151v-21
q0 -65 -28.5 -114.5t-89 -77.5t-156.5 -28z" />
    <glyph glyph-name="uni2076" unicode="&#x2076;" horiz-adv-x="669" 
d="M352 711q-142 0 -214 77t-72 216v123q0 131 73.5 209.5t220.5 78.5q69 0 120 -13.5t86 -30.5l10 -80q-40 19 -86 32.5t-112 13.5q-76 0 -124 -27t-70.5 -74.5t-22.5 -110.5v-133q0 -95 47.5 -148.5t144.5 -53.5q79 0 122 38.5t43 105.5v13q0 68 -37.5 103.5t-116.5 35.5
t-129.5 -36t-77.5 -96l-15 58h17q14 38 43.5 71.5t76 53.5t110.5 20q108 0 164.5 -52.5t56.5 -152.5v-19q0 -104 -68 -163t-190 -59z" />
    <glyph glyph-name="uni2077" unicode="&#x2077;" horiz-adv-x="569" 
d="M138 726l295 599h-395v79h494v-80l-290 -598h-104z" />
    <glyph glyph-name="uni2078" unicode="&#x2078;" horiz-adv-x="685" 
d="M343 708q-98 0 -160 23t-91.5 66t-29.5 102v10q0 49 18.5 83.5t54 55.5t83.5 30v2q-49 7 -82 27.5t-49 51.5t-16 67v10q0 85 67 133t205 48q137 0 204 -47t67 -134v-9q0 -63 -38.5 -99.5t-108.5 -47.5v-2q79 -12 118 -55.5t39 -113.5v-10q0 -58 -28.5 -100.5t-90.5 -66.5
t-162 -24zM344 787q94 0 138.5 31.5t44.5 90.5v10q0 57 -46 88.5t-140 33.5q-92 -2 -137 -33.5t-45 -88.5v-11q0 -57 44.5 -89t140.5 -32zM344 1106q87 3 131 32.5t44 81.5v7q0 55 -43 84.5t-133 29.5q-92 0 -134 -30.5t-42 -83.5v-7q0 -52 44 -81.5t133 -32.5z" />
    <glyph glyph-name="uni2079" unicode="&#x2079;" horiz-adv-x="669" 
d="M322 1416q140 0 210 -77t70 -217v-124q0 -87 -33.5 -152t-100 -100t-167.5 -35q-68 0 -118.5 13t-84.5 28l-11 83q40 -18 87 -31.5t115 -13.5q114 0 166.5 58t52.5 151v137q0 94 -46 147t-141 53q-83 0 -127 -37.5t-44 -104.5v-13q0 -69 40 -105t122 -36q78 0 126 35
t72 95l17 -59h-18q-13 -37 -41 -69.5t-72.5 -52.5t-108.5 -20q-112 0 -170.5 53.5t-58.5 152.5v20q0 102 69 161.5t195 59.5z" />
    <glyph glyph-name="uni2007" unicode="&#x2007;" horiz-adv-x="1109" 
 />
    <glyph glyph-name="uni200A" unicode="&#x200a;" horiz-adv-x="292" 
 />
    <glyph glyph-name="uni2008" unicode="&#x2008;" horiz-adv-x="358" 
 />
    <glyph glyph-name="uni00A0" unicode="&#xa0;" horiz-adv-x="560" 
 />
    <glyph glyph-name="uni2009" unicode="&#x2009;" horiz-adv-x="406" 
 />
    <glyph glyph-name="uni200B" unicode="&#x200b;" horiz-adv-x="6" 
 />
    <glyph glyph-name="question_alt" horiz-adv-x="880" 
d="M263 328v296l113 7q155 15 219 80t64 179v76q0 112 -59.5 169t-202.5 57q-102 0 -187 -29t-150 -69l14 107q34 23 84.5 45t116.5 36.5t144 14.5q189 0 275.5 -82t86.5 -236v-85q0 -103 -37 -175t-117.5 -113.5t-210.5 -55.5l-103 -6l61 42v-258h-111zM318 -17
q-41 0 -61 23.5t-20 67.5v9q0 43 20 66.5t61 23.5q42 0 62.5 -23.5t20.5 -66.5v-9q0 -44 -20.5 -67.5t-62.5 -23.5z" />
    <glyph glyph-name="uni00AD" unicode="&#xad;" horiz-adv-x="833" 
d="M133 477v101h567v-101h-567z" />
    <glyph glyph-name="guillemotleft" unicode="&#xab;" horiz-adv-x="980" 
d="M615 487l304 -393h-124l-291 373v41l291 369h124zM196 487l304 -393h-124l-291 373v41l291 369h124z" />
    <glyph glyph-name="guillemotright" unicode="&#xbb;" horiz-adv-x="980" 
d="M365 487l-304 390h123l292 -369v-41l-292 -373h-123zM784 487l-304 390h123l292 -369v-41l-292 -373h-123z" />
    <glyph glyph-name="Euro" unicode="&#x20ac;" horiz-adv-x="1069" 
d="M672 -22q-242 0 -361 129t-119 366v336q0 235 118.5 363t353.5 128q100 0 176.5 -23.5t121.5 -49.5l11 -112q-53 31 -126.5 53.5t-168.5 22.5q-180 0 -269.5 -100.5t-89.5 -285.5v-329q0 -184 91.5 -285.5t279.5 -101.5q95 0 167 23t123 57l-11 -116q-43 -27 -119 -51
t-178 -24zM33 441l11 94h831l-11 -94h-831zM33 760l11 93h831l-11 -93h-831z" />
    <glyph glyph-name="uni20B9" unicode="&#x20b9;" horiz-adv-x="1014" 
d="M942 1278h-852l9 -92h852zM745 6l-265 315q-28 35 -56 66t-59 61.5t-69 64.5l8 29l-201 31v-92l107 -8l389 -473h146v6zM494 1212q64 -54 94.5 -128t30.5 -171v-34q0 -155 -81.5 -230.5t-259.5 -75.5h-175l111 -92l97 1q217 3 322 99.5t105 292.5v35q0 99 -31.5 176
t-88.5 127h-124zM942 934h-852l9 -91h852z" />
    <glyph glyph-name="uni2219" unicode="&#x2219;" horiz-adv-x="358" 
d="M178 412q-41 0 -61.5 24t-20.5 68v10q0 44 20.5 67.5t61.5 23.5q43 0 63.5 -23.5t20.5 -67.5v-10q0 -44 -20.5 -68t-63.5 -24z" />
    <glyph glyph-name="uni2215" unicode="&#x2215;" horiz-adv-x="811" 
d="M45 -237l606 1576h115l-606 -1576h-115z" />
    <glyph glyph-name="uni00B5" unicode="&#xb5;" horiz-adv-x="1064" 
d="M922 975v-975h-121l6 241l-6 6v728h121zM263 364q0 -65 16 -117.5t48.5 -89.5t82 -56t115.5 -19q78 0 137 32.5t96 89t49 127.5l26 -94h-27q-11 -73 -47.5 -131.5t-96.5 -92t-143 -33.5q-79 0 -132.5 24.5t-85 66.5t-46.5 94l-3 -1l9 -308v-200h-119v1319h121v-611z" />
    <glyph glyph-name="uni0308" unicode="&#x308;" 
d="M176 1150q-37 0 -55 21t-18 61v6q0 39 18 59.5t55 20.5t55 -20.5t18 -59.5v-6q0 -40 -18 -61t-55 -21zM468 1150q-36 0 -54 21t-18 61v6q0 39 18 59.5t54 20.5q37 0 55 -20.5t18 -59.5v-6q0 -40 -18 -61t-55 -21z" />
    <glyph glyph-name="uni0307" unicode="&#x307;" 
d="M181 1150q-39 0 -58.5 21.5t-19.5 61.5v6q0 38 19.5 60t58.5 22q40 0 59.5 -22t19.5 -60v-6q0 -40 -19.5 -61.5t-59.5 -21.5z" />
    <glyph glyph-name="gravecomb" unicode="&#x300;" 
d="M239 1364l200 -260v-3h-110l-227 261v2h137z" />
    <glyph glyph-name="acutecomb" unicode="&#x301;" 
d="M299 1364h137v-2l-228 -261h-109v3z" />
    <glyph glyph-name="uni0302" unicode="&#x302;" 
d="M297 1364h135l195 -260v-3h-100l-159 191h-7l-159 -191h-100v3z" />
    <glyph glyph-name="uni030A" unicode="&#x30a;" 
d="M105 1249v3q0 73 45.5 116t131.5 43q85 0 130.5 -43t45.5 -116v-3q0 -71 -45.5 -114t-130.5 -43q-86 0 -131.5 43t-45.5 114zM182 1250q0 -44 26 -68t74 -24q49 0 74.5 24t25.5 68v2q0 45 -25.5 69.5t-74.5 24.5q-48 0 -74 -24.5t-26 -69.5v-2z" />
    <glyph glyph-name="tildecomb" unicode="&#x303;" 
d="M497 1133q-36 0 -70 14t-65 32t-60 32t-56 14q-31 0 -45 -20t-14 -62v-20h-79v32q0 76 30 117.5t99 41.5q37 0 70.5 -14t64.5 -32t60 -32t55 -14q32 0 45.5 20t13.5 61v20h80v-32q0 -76 -30 -117t-99 -41z" />
    <glyph glyph-name="uni0304" unicode="&#x304;" 
d="M114 1178v85h527v-85h-527z" />
    <glyph glyph-name="uni0327" unicode="&#x327;" 
d="M328 12l-19 -146l-54 38h28t30 -1q99 -5 146 -39t47 -102v-4q0 -71 -51.5 -105.5t-147.5 -34.5q-41 0 -79 6.5t-65 14.5l-15 81q31 -11 67.5 -18t77.5 -7q60 0 90 18t30 52v2q0 41 -36.5 58.5t-123.5 23.5q-10 1 -17.5 1t-12.5 1l19 161h86z" />
    <glyph glyph-name="uni0308.case" 
d="M176 1446q-37 0 -55 21t-18 61v6q0 39 18 59.5t55 20.5t55 -20.5t18 -59.5v-6q0 -40 -18 -61t-55 -21zM468 1446q-36 0 -54 21t-18 61v6q0 39 18 59.5t54 20.5q37 0 55 -20.5t18 -59.5v-6q0 -40 -18 -61t-55 -21z" />
    <glyph glyph-name="gravecomb.case" 
d="M248 1649l248 -241v-2h-120l-271 241v2h143z" />
    <glyph glyph-name="acutecomb.case" 
d="M347 1649h143v-2l-271 -241h-120v2z" />
    <glyph glyph-name="uni0302.case" 
d="M331 1649h131l228 -241v-2h-107l-183 172h-7l-183 -172h-107v2z" />
    <glyph glyph-name="uni030A.case" 
d="M105 1527v3q0 73 45.5 116t131.5 43q85 0 130.5 -43t45.5 -116v-3q0 -71 -45.5 -114t-130.5 -43q-86 0 -131.5 43t-45.5 114zM182 1528q0 -44 26 -68t74 -24q49 0 74.5 24t25.5 68v2q0 45 -25.5 69.5t-74.5 24.5q-48 0 -74 -24.5t-26 -69.5v-2z" />
    <glyph glyph-name="tildecomb.case" 
d="M515 1431q-39 0 -75.5 13t-69.5 29.5t-64.5 30t-61.5 13.5q-33 0 -47 -20t-14 -57v-20h-80v31q0 70 29 112.5t102 42.5q40 0 76 -13t69.5 -30.5t65 -30.5t61.5 -13q33 0 46.5 20t13.5 57v19h80v-31q0 -70 -29 -111.5t-102 -41.5z" />
    <glyph glyph-name="uni0304.case" 
d="M114 1476v85h527v-85h-527z" />
    <glyph glyph-name="uni0327.case" 
d="M328 10l-19 -146l-54 38h28t30 -1q99 -5 146 -39t47 -102v-4q0 -71 -51.5 -105.5t-147.5 -34.5q-41 0 -79 6.5t-65 14.5l-15 81q31 -11 67.5 -18t77.5 -7q60 0 90 18t30 52v2q0 41 -36.5 58.5t-123.5 23.5q-10 1 -17.5 1t-12.5 1l19 161h86z" />
    <glyph glyph-name="uni0308.narrow" 
d="M201 1150q-35 0 -52.5 21t-17.5 60v7q0 39 17.5 59.5t52.5 20.5t53 -20.5t18 -59.5v-7q0 -39 -18 -60t-53 -21zM443 1150q-36 0 -53 21t-17 60v7q0 39 17 59.5t53 20.5q35 0 52.5 -20.5t17.5 -59.5v-7q0 -39 -17.5 -60t-52.5 -21z" />
    <glyph glyph-name="gravecomb.narrow" 
d="M316 1364l116 -261v-2h-100l-142 262v1h126z" />
    <glyph glyph-name="acutecomb.narrow" 
d="M222 1364h125v-1l-141 -262h-101v2z" />
    <glyph glyph-name="uni0302.narrow" 
d="M299 1364h131l156 -261v-2h-95l-123 190h-7l-123 -190h-95v2z" />
    <glyph glyph-name="MatraAa.gm" unicode="&#xa3e;" horiz-adv-x="478" 
d="M180 459v709h118v-709h-118zM-27 1113l11 93h520l-11 -93h-520z" />
    <glyph glyph-name="MatraI.gm" unicode="&#xa3f;" horiz-adv-x="478" 
d="M180 1190v175q0 161 76 245t223 84q145 0 220.5 -83.5t75.5 -241.5v-55h-118v55q0 111 -44.5 169t-133.5 58q-92 0 -137 -58t-45 -173v-176zM180 0v1136l118 -1v-1135h-118zM-27 1113l11 93h557l-11 -93h-557z" />
    <glyph glyph-name="MatraIi.gm" unicode="&#xa40;" horiz-adv-x="478" 
d="M181 1189v176q0 115 -45 173t-137 58q-89 0 -133.5 -58t-45.5 -169v-55h-118v55q0 158 75.5 241.5t220.5 83.5q148 0 224 -84t76 -245v-175zM180 0v1133h118v-1133h-118zM-65 1113l10 93h560l-12 -93h-558z" />
    <glyph glyph-name="MatraIiBindi.gm" horiz-adv-x="478" 
d="M357 1608q-39 0 -56 20.5t-17 55.5v8q0 35 17 55.5t56 20.5q38 0 56 -20.5t18 -55.5v-8q0 -35 -17.5 -55.5t-56.5 -20.5zM181 1189v176q0 115 -45 173t-137 58q-89 0 -133.5 -58t-45.5 -169v-55h-118v55q0 158 75.5 241.5t220.5 83.5q148 0 224 -84t76 -245v-175zM180 0
v1133h118v-1133h-118zM-65 1113l10 93h560l-12 -93h-558z" />
    <glyph glyph-name="Danda.gm" unicode="&#x964;" horiz-adv-x="527" 
d="M205 0v1206h117v-1206h-117z" />
    <glyph glyph-name="Doubledanda.gm" unicode="&#x965;" horiz-adv-x="955" 
d="M635 0v1207h118v-1207h-118zM202 0v1207h118v-1207h-118z" />
    <glyph glyph-name="VowelA.gm" unicode="&#xa05;" horiz-adv-x="1573" 
d="M711 124q19 111 28.5 248t9.5 276q0 62 -3 137t-10 157l39 -4l-526 -360l-9 116l511 354h98q6 -72 10 -146.5t6 -143.5t2 -128q0 -140 -9.5 -271.5t-25.5 -234.5h-121zM157 302q19 113 28 248.5t9 275.5q0 63 -3 137t-9 150h-165l-3 93h282q6 -67 10 -137t6 -136.5
t2 -125.5q0 -140 -10 -270.5t-26 -234.5h-121zM799 399v125l516 340v-124zM-27 1113l11 93h91v-93h-102zM1507 1113v93h94l-10 -93h-84zM1276 0v1206h273v-93h-156v-1113h-117z" />
    <glyph glyph-name="VowelAa.gm" unicode="&#xa06;" horiz-adv-x="2051" 
d="M1753 459v709h118v-709h-118zM1547 1113l10 93h521l-12 -93h-519zM711 124q19 111 28.5 248t9.5 276q0 62 -3 137t-10 157l39 -4l-526 -360l-9 116l511 354h98q6 -72 10 -146.5t6 -143.5t2 -128q0 -140 -9.5 -271.5t-25.5 -234.5h-121zM157 302q19 113 28 248.5t9 275.5
q0 63 -3 137t-9 150h-165l-3 93h282q6 -67 10 -137t6 -136.5t2 -125.5q0 -140 -10 -270.5t-26 -234.5h-121zM799 399v125l516 340v-124zM-27 1113l11 93h91v-93h-102zM1507 1113v93h94l-10 -93h-84zM1276 0v1206h273v-93h-156v-1113h-117z" />
    <glyph glyph-name="VowelI.gm" unicode="&#xa07;" horiz-adv-x="1624" 
d="M180 1190v175q0 161 76 245t223 84q145 0 220.5 -83.5t75.5 -241.5v-55h-118v55q0 111 -44.5 169t-133.5 58q-92 0 -137 -58t-45 -173v-176zM180 0v1136l118 -1v-1135h-118zM-27 1113l11 93h557l-11 -93h-557zM1138 -19q-160 0 -276 52.5t-178 150.5t-62 237v108
q86 35 177 63.5t194 50.5l14 4q79 15 164.5 32.5t168.5 27.5v449h118v-532q-135 -15 -269 -40t-258 -59.5t-231 -79.5l41 59v-93q0 -104 51.5 -176.5t142.5 -110t210 -37.5q109 0 202.5 27t163.5 66l-12 -118q-62 -34 -152 -57.5t-209 -23.5zM979 626l-2 9
q-110 11 -188 53.5t-119 115t-41 172.5v180h122v-170q0 -95 43 -165.5t127.5 -110t208.5 -43.5l-91 -40zM505 1113v93h1105v-93h-204l-8 5h-698l-8 -5h-187zM452 1113l10 93h91v-93h-101zM1558 1113v93h94l-11 -93h-83z" />
    <glyph glyph-name="VowelIi.gm" unicode="&#xa08;" horiz-adv-x="1624" 
d="M1327 1189v176q0 115 -45 173t-137 58q-89 0 -133.5 -58t-45.5 -169v-55h-118v55q0 158 76 241.5t221 83.5q147 0 223 -84t76 -245v-175zM1326 0v1133h118v-1133h-118zM1081 1113l10 93h560l-12 -93h-558zM660 -19q-160 0 -276 52.5t-178 150.5t-62 237v108
q86 35 177 63.5t194 50.5l14 4q78 15 164 32.5t169 27.5v449h118v-532q-135 -15 -269.5 -40t-258.5 -59.5t-230 -79.5l41 59v-93q0 -104 51 -176.5t142.5 -110t210.5 -37.5q109 0 202.5 27t162.5 66l-11 -118q-62 -34 -152 -57.5t-209 -23.5zM501 626l-3 9
q-110 11 -187.5 53.5t-118.5 115t-41 172.5v180h122v-170q0 -95 43 -165.5t127.5 -110t208.5 -43.5l-91 -40zM27 1113v93h1104v-93h-203l-8 5h-699l-7 -5h-187zM-27 1113l11 93h91v-93h-102zM1079 1113v93h94l-10 -93h-84z" />
    <glyph glyph-name="VowelU.gm" unicode="&#xa09;" horiz-adv-x="1244" 
d="M677 -25q-270 0 -395.5 150.5t-125.5 442.5v578q0 188 59.5 308t170.5 178t266 58q150 0 254.5 -48.5t159 -137.5t54.5 -211v-59l-88 -26l-1 -4l-29 -7v78q0 96 -39.5 165.5t-117 107t-193.5 37.5q-121 0 -205.5 -44t-129 -139.5t-44.5 -248.5v-586q0 -160 41 -268.5
t129 -164t230 -55.5q148 0 217.5 67t69.5 191v4q0 77 -31.5 132t-93.5 85t-154 30h-460v104h454q102 0 174.5 40t111.5 119t39 195v113h119v-108q0 -98 -24.5 -174.5t-68.5 -129t-104 -80t-131 -27.5v-37l-53 40q87 0 151.5 -22.5t107.5 -64t64 -99t21 -126.5v-3
q0 -113 -44.5 -192t-134.5 -120t-226 -41zM23 1113v93h1209v-93h-164l-9 2h-830l-7 -2h-199zM-27 1113l11 93h91v-93h-102zM1180 1113v93h94l-10 -93h-84zM653 -324q-100 0 -195 20.5t-162 58.5l-7 99q72 -37 170 -58t200 -21t197 21t165 58l-7 -99q-69 -38 -165 -58.5
t-196 -20.5z" />
    <glyph glyph-name="VowelUu.gm" unicode="&#xa0a;" horiz-adv-x="1244" 
d="M677 -25q-270 0 -395.5 150.5t-125.5 442.5v578q0 188 59.5 308t170.5 178t266 58q150 0 254.5 -48.5t159 -137.5t54.5 -211v-59l-88 -26l-1 -4l-29 -7v78q0 96 -39.5 165.5t-117 107t-193.5 37.5q-121 0 -205.5 -44t-129 -139.5t-44.5 -248.5v-586q0 -160 41 -268.5
t129 -164t230 -55.5q148 0 217.5 67t69.5 191v4q0 77 -31.5 132t-93.5 85t-154 30h-460v104h454q102 0 174.5 40t111.5 119t39 195v113h119v-108q0 -98 -24.5 -174.5t-68.5 -129t-104 -80t-131 -27.5v-37l-53 40q87 0 151.5 -22.5t107.5 -64t64 -99t21 -126.5v-3
q0 -113 -44.5 -192t-134.5 -120t-226 -41zM23 1113v93h1209v-93h-164l-9 2h-830l-7 -2h-199zM-27 1113l11 93h91v-93h-102zM1180 1113v93h94l-10 -93h-84zM648 -282q-102 1 -197 20.5t-161 55.5l-7 91q70 -36 168.5 -56t201.5 -20q105 0 200 20.5t163 55.5l-7 -91
q-67 -35 -163.5 -55t-197.5 -21zM647 -518q-101 0 -196 19.5t-162 55.5l-6 91q69 -35 167.5 -56t202.5 -21t199 21t163 56l-6 -91q-68 -36 -164 -55.5t-198 -19.5z" />
    <glyph glyph-name="VowelEe.gm" unicode="&#xa0f;" horiz-adv-x="1146" 
d="M660 -19q-160 0 -276 52.5t-178 150.5t-62 237v108q86 35 177 63.5t194 50.5l14 4q78 15 164 32.5t169 27.5v449h118v-532q-135 -15 -269.5 -40t-258.5 -59.5t-230 -79.5l41 59v-93q0 -104 51 -176.5t142.5 -110t210.5 -37.5q109 0 202.5 27t162.5 66l-11 -118
q-62 -34 -152 -57.5t-209 -23.5zM501 626l-3 9q-110 11 -187.5 53.5t-118.5 115t-41 172.5v180h122v-170q0 -95 43 -165.5t127.5 -110t208.5 -43.5l-91 -40zM27 1113v93h1104v-93h-203l-8 5h-699l-7 -5h-187zM911 1188l-3 12q-20 101 -56 173t-94 119t-143.5 69.5
t-204.5 22.5q-26 0 -55 -1.5t-59.5 -3.5t-61.5 -6l11 109q45 5 84 7.5t83 2.5q178 0 294.5 -49.5t183 -160.5t90.5 -294h-69zM-27 1113l11 93h91v-93h-102zM1079 1113v93h94l-10 -93h-84z" />
    <glyph glyph-name="VowelAi.gm" unicode="&#xa10;" horiz-adv-x="1573" 
d="M711 124q19 111 28.5 248t9.5 276q0 62 -3 137t-10 157l39 -4l-526 -360l-9 116l511 354h98q6 -72 10 -146.5t6 -143.5t2 -128q0 -140 -9.5 -271.5t-25.5 -234.5h-121zM157 302q19 113 28 248.5t9 275.5q0 63 -3 137t-9 150h-165l-3 93h282q6 -67 10 -137t6 -136.5
t2 -125.5q0 -140 -10 -270.5t-26 -234.5h-121zM799 399v125l516 340v-124zM-27 1113l11 93h91v-93h-102zM1507 1113v93h94l-10 -93h-84zM1276 0v1206h273v-93h-156v-1113h-117zM1331 1192l-12 134l10 3q-12 92 -43 162.5t-87 118.5t-143 72.5t-211 24.5q-53 0 -120.5 -6
t-139.5 -17l10 104q75 11 135 16.5t110 5.5q190 0 308.5 -54.5t175.5 -167.5t62 -286l3 -110h-58zM1313 1192l-1 17q-4 64 -46 112.5t-129.5 76t-227.5 27.5q-34 0 -71.5 -2t-79.5 -6t-91 -10l11 104q63 8 120 13t98 5q153 0 250.5 -38.5t147 -108t57.5 -161.5l3 -29h-41z
" />
    <glyph glyph-name="VowelOo.gm" unicode="&#xa13;" horiz-adv-x="1254" 
d="M685 -25q-127 0 -224 35t-163 107t-100 184t-34 267v530q0 205 67 335.5t196 192.5t313 62q66 0 129 -10t117 -28l10 -98q-58 17 -119 26.5t-128 9.5q-150 0 -254 -49.5t-158.5 -157.5t-54.5 -283v-531q0 -130 26 -223.5t76 -152.5t125 -87t172 -28q155 0 221 69.5
t66 183.5v7q0 76 -31.5 132.5t-93 88.5t-153.5 32h-462v96h455q101 0 174 41.5t112 122t39 196.5v101h119v-95q0 -98 -25 -174t-69 -128.5t-101.5 -80.5t-121.5 -30v-36l-53 40q84 -2 147 -25.5t104 -64.5t62 -97.5t21 -125.5v-8q0 -103 -42.5 -181t-132 -121.5
t-231.5 -43.5zM21 1113v93h1221v-93h-162l-3 3h-847l-2 -3h-207zM-27 1113l11 93h91v-93h-102zM1190 1113v93h94l-10 -93h-84z" />
    <glyph glyph-name="VowelAu.gm" unicode="&#xa14;" horiz-adv-x="1573" 
d="M711 124q19 111 28.5 248t9.5 276q0 62 -3 137t-10 157l39 -4l-526 -360l-9 116l511 354h98q6 -72 10 -146.5t6 -143.5t2 -128q0 -140 -9.5 -271.5t-25.5 -234.5h-121zM157 302q19 113 28 248.5t9 275.5q0 63 -3 137t-9 150h-165l-3 93h282q6 -67 10 -137t6 -136.5
t2 -125.5q0 -140 -10 -270.5t-26 -234.5h-121zM799 399v125l516 340v-124zM-27 1113l11 93h91v-93h-102zM1507 1113v93h94l-10 -93h-84zM1276 0v1206h273v-93h-156v-1113h-117zM1137 1329q-22 29 -34.5 61t-12.5 68q0 56 31.5 99t85.5 62l-2 15q26 18 59.5 26.5t71.5 8.5
q116 0 181 -55.5t65 -147.5q0 -40 -12 -74t-35 -63h-80q14 24 22.5 50.5t8.5 56.5q0 62 -40.5 97t-109.5 35q-67 0 -108.5 -36t-41.5 -96q0 -30 8.5 -56.5t21.5 -50.5h-79zM1014 1569q-64 0 -114 20.5t-79 67.5t-30 126l-2 52h74q2 -67 28 -103.5t71.5 -50t107.5 -13.5
l266 1l-31 -77l-135 -1l-4 5q-29 -12 -65.5 -19.5t-86.5 -7.5z" />
    <glyph glyph-name="Ka.gm" unicode="&#xa15;" horiz-adv-x="1229" 
d="M20 1113v93h1201v-93h-1201zM973 0l-20 132q-17 115 -47.5 213t-72.5 167l-5 16q-25 52 -60.5 100.5t-79.5 87t-99 61.5t-120 23q-121 0 -183 -62.5t-62 -171.5v-11q0 -108 63.5 -168.5t181.5 -60.5q60 0 113.5 22t99 60.5t82.5 88.5t65 106l3 18q30 63 53.5 127.5
t41 134t26.5 146.5l16 129l125 1l-18 -137q-16 -120 -57.5 -246t-113.5 -247l-13 -19q-33 -60 -76 -112.5t-96.5 -91.5t-118.5 -61t-144 -22q-167 0 -260 87t-93 244v11q0 159 90.5 248t255.5 89q81 0 146.5 -22t118 -60.5t95 -89t77.5 -107.5l13 -18q45 -62 78.5 -134.5
t57.5 -156.5t39 -182l20 -132h-122zM-27 1113l11 93h91v-93h-102zM1161 1113v93h94l-10 -93h-84z" />
    <glyph glyph-name="Kha.gm" unicode="&#xa16;" horiz-adv-x="1250" 
d="M611 204q-160 0 -284 50.5t-205 140.5q27 63 45 141t27.5 173t9.5 208q0 47 -1 96.5t-5 99.5h-165v93h281q6 -72 8.5 -139.5t2.5 -128.5q0 -119 -9 -216t-26 -174t-42 -138l-14 43q34 -38 89.5 -71.5t129.5 -53.5t162 -20q105 0 196.5 28t149.5 72l4 -40h-15l-33 -96
q-49 -26 -129 -47t-177 -21zM252 710v102l760 1v-103h-760zM1184 1113v93h94l-10 -93h-84zM953 0v1206h273v-93h-156v-1113h-117zM-27 1113l11 93h91v-93h-102z" />
    <glyph glyph-name="Ga.gm" unicode="&#xa17;" horiz-adv-x="1560" 
d="M561 -22q-144 0 -242 57t-148 156t-50 226v23q0 161 86.5 251t273.5 90h357v-100h-345q-132 0 -191.5 -64.5t-59.5 -182.5v-21q0 -98 36.5 -173t107.5 -116.5t175 -41.5q111 0 170 58.5t59 161.5v425l-1 6v403h118v-837q0 -153 -90.5 -237t-255.5 -84zM21 1113v93h1343
v-93h-1343zM1494 1113v93h94l-10 -93h-84zM1263 0v1206h274v-93h-157v-1113h-117zM-27 1113l11 93h91v-93h-102z" />
    <glyph glyph-name="Gha.gm" unicode="&#xa18;" horiz-adv-x="1522" 
d="M490 230q-119 0 -213 44.5t-157 129.5q28 64 46 139t26.5 167.5t8.5 206.5q0 47 -1.5 96.5t-5.5 99.5h-162l-2 93h280q6 -72 8.5 -139.5t2.5 -128.5q0 -119 -9.5 -213.5t-27 -169t-43.5 -135.5l-5 43q32 -57 103.5 -93.5t164.5 -36.5q86 0 148 33t93 85l34 -52l-41 -5
l-33 -100q-29 -22 -85 -43t-130 -21zM1022 229q-89 0 -151.5 25t-99 67.5t-48.5 91.5l105 24q22 -45 74 -75t138 -30q72 0 121 21.5t74 44.5l6 -42h-15l-31 -84q-17 -11 -63 -27t-110 -16zM834 1196v-259v-168t-0.5 -180.5t-0.5 -187.5l-116 -6q0 60 -1 129.5t-1 142
t-0.5 141.5t-0.5 127v237zM1456 1113v93h94l-11 -93h-83zM1224 0v1206h274v-93h-156v-1113h-118zM-27 1113l11 93h91v-93h-102z" />
    <glyph glyph-name="Nga.gm" unicode="&#xa19;" horiz-adv-x="1200" 
d="M26 1113v93h1144v-93l-914 2l-4 -2h-226zM500 7q-182 0 -274.5 68.5t-92.5 184.5v6q0 56 18 102t55.5 79.5t95 51.5t135.5 18q107 0 195.5 -30t159.5 -93t122 -162l-67 -57q-71 123 -168.5 183t-220.5 60q-102 0 -153.5 -39t-51.5 -113v-4q0 -49 28 -84t84.5 -53.5
t139.5 -18.5q134 0 216.5 38t128.5 90l3 23q47 50 71.5 116.5t24.5 143.5v8q0 117 -71 177.5t-221 60.5h-476v403h118v-302h378q199 0 295 -87t96 -246v-17q0 -108 -40.5 -200t-116.5 -158l-7 -14q-59 -52 -156 -93.5t-248 -41.5zM964 -94l-116 257l75 72l167 -329h-126z
M-27 1113l11 93h91v-93h-102zM1135 1113v93h94l-11 -93h-83z" />
    <glyph glyph-name="Ca.gm" unicode="&#xa1a;" horiz-adv-x="1254" 
d="M664 -22q-162 0 -276 66t-175 191.5t-61 303.5v381l118 27v-409q0 -219 103 -337t290 -118q151 0 226 72t75 212v301l-3 5v488h118v-795q0 -191 -103.5 -289.5t-311.5 -98.5zM212 616v103h812v-103h-812zM22 1113v93h1208v-93h-1208zM-27 1113l11 93h91v-93h-102z
M1187 1113v93h94l-11 -93h-83z" />
    <glyph glyph-name="Cha.gm" unicode="&#xa1b;" horiz-adv-x="1255" 
d="M643 -18v92h176q94 0 148 46t54 130v5q0 80 -48 126.5t-150 46.5h-349l-73 41v9q-78 1 -135.5 24t-89 67.5t-31.5 107.5q0 100 69.5 157t194.5 57h525v275h119v-367h-605q-88 0 -133.5 -36.5t-45.5 -103.5q0 -49 26 -80t69.5 -45t91.5 -14h377q73 0 129.5 -17t95.5 -50.5
t59 -82.5t20 -113v-6q0 -85 -36.5 -145.5t-108 -92t-177.5 -31.5h-172zM484 -18q-112 0 -189 29.5t-116.5 88t-39.5 142.5v5q0 76 33 128.5t91 80t133 27.5h128v-55h-74q-91 0 -143 -46.5t-52 -126.5v-5q0 -87 57.5 -131.5t155.5 -44.5h181v-92h-165zM591 24v452h103v-452
h-103zM36 1113l-1 93h1192v-93h-233l-4 3zM-27 1113l11 93h91v-93h-102zM1187 1113v93h94l-10 -93h-84z" />
    <glyph glyph-name="Ja.gm" unicode="&#xa1c;" horiz-adv-x="1215" 
d="M154 0q16 129 23.5 274t7.5 283q0 95 -5.5 186t-14.5 167l118 26q11 -83 16.5 -182.5t5.5 -200.5q0 -137 -8 -281.5t-23 -271.5h-120zM247 580v103h732v-103h-732zM30 1113v93h992v-93h-992zM1149 1113v93h94l-10 -93h-84zM918 0v1206h274v-93h-157v-1113h-117zM-27 1113
l11 93h91v-93h-102z" />
    <glyph glyph-name="Jha.gm" unicode="&#xa1d;" horiz-adv-x="1193" 
d="M588 44q-75 0 -149 9.5t-144 27t-137 42.5l-11 110q54 -21 107 -37t107.5 -26.5t110.5 -16t116 -5.5q127 0 203.5 24t111.5 74.5t35 128.5v2q0 67 -32 119t-109.5 82t-213.5 30q-66 0 -124 -4.5t-111 -12t-105 -18t-106 -23.5l12 103q53 15 126.5 26.5t143.5 12.5v19h176
h152v-27q155 -13 233.5 -94.5t78.5 -213.5v-4q0 -165 -111 -246.5t-360 -81.5zM567 -191l-328 300l180 -8l-8 -38q95 -70 178 -134t146 -121zM493 688q-107 2 -189.5 41t-129 109.5t-47.5 166.5l-1 153h132v-160q0 -89 42.5 -153.5t117 -99t169.5 -34.5zM13 1113v93h1150
v-93h-165l-6 5h-796l-4 -5h-179zM1056 1007q-1 -75 -25.5 -134.5t-71.5 -101.5t-114 -65t-152 -23l-94 28q98 0 171 33t114.5 97t41.5 157v160h131zM-27 1113l11 93h91v-93h-102zM1125 1113v93h94l-10 -93h-84z" />
    <glyph glyph-name="Nya.gm" unicode="&#xa1e;" horiz-adv-x="1197" 
d="M393 370q-133 0 -210 58t-77 182q0 114 76 171.5t214 57.5h518v318h117v-415h-624q-86 0 -132 -31.5t-46 -100.5q0 -78 47 -109t128 -31h599v-100h-610zM887 -21q-132 0 -236 41.5t-173 136.5t-98 256l126 -2q18 -125 71.5 -197t136 -102t185.5 -30q36 0 81 5t88 15
l-11 -102q-41 -10 -87 -15.5t-83 -5.5zM361 774q-67 76 -119.5 180t-78.5 221l127 -1q26 -116 75 -214t111 -163zM37 1113v93h1121v-93h-178l-12 4h-721l-11 -4h-199zM-27 1113l11 93h91v-93h-102zM1129 1113v93h94l-10 -93h-84z" />
    <glyph glyph-name="Tta.gm" unicode="&#xa1f;" horiz-adv-x="1108" 
d="M643 -14q-162 0 -276 54t-173 156t-59 246v161q81 40 167 72.5t178 58t191 44.5t205 31l-51 -44v393h118v-446q-134 -14 -260 -38.5t-243.5 -64t-226.5 -95.5l41 51v-137q0 -110 48.5 -185t138.5 -113.5t215 -38.5q99 0 189 26.5t158 64.5l-11 -116q-60 -34 -148.5 -57
t-200.5 -23zM19 1113v93h1056v-93h-1056zM-27 1113l11 93h91v-93h-102zM1051 1113v93h94l-10 -93h-84z" />
    <glyph glyph-name="Ttha.gm" unicode="&#xa20;" horiz-adv-x="1214" 
d="M609 -27q-238 0 -362 108.5t-124 312.5v26q0 116 53 205t161 149.5t273 89.5q167 -29 274 -89t159 -149t52 -206v-25q0 -205 -124 -313.5t-362 -108.5zM609 78q178 0 271.5 80.5t93.5 236.5v23q0 135 -90 221t-274 122q-181 -37 -273.5 -123t-92.5 -220v-24
q0 -155 94 -235.5t271 -80.5zM551 808v356h120v-356h-120zM24 1113v93h1165v-93h-1165zM-27 1113l11 93h91v-93h-102zM1147 1113v93h94l-10 -93h-84z" />
    <glyph glyph-name="Dda.gm" unicode="&#xa21;" horiz-adv-x="1145" 
d="M509 -23q-135 0 -227 29.5t-139 84.5t-47 128v7q0 74 36 126.5t109 81t182 28.5q104 0 182.5 -18.5t133.5 -56t88 -94t45 -131.5l-32 -13q-29 70 -84.5 117t-131 71t-167.5 24q-82 0 -136 -16.5t-80.5 -47t-26.5 -73.5v-4q0 -44 33.5 -76t98.5 -49t159 -17
q137 0 224 32.5t129.5 97t42.5 159.5v16q0 83 -30.5 150.5t-90.5 107t-150 39.5h-424v101h423q134 0 192.5 72.5t58.5 186.5v123h121v-121q0 -95 -32 -164t-88.5 -106.5t-127.5 -41.5v-33l-52 37q101 0 172 -46t109 -126t38 -183v-17q0 -184 -129 -284.5t-382 -100.5z
M34 1113l-3 93h1107l-2 -93h-206l-5 2zM-27 1113l11 93h91v-93h-102zM1081 1113v93h94l-11 -93h-83z" />
    <glyph glyph-name="Ddha.gm" unicode="&#xa22;" horiz-adv-x="1197" 
d="M720 -25q-182 0 -309.5 66t-195.5 196.5t-68 321.5v405l120 27v-448q0 -153 51.5 -257.5t152 -157.5t248.5 -53q121 0 184 37.5t63 104.5v4q0 69 -56 105.5t-170 36.5q-82 0 -151 -23.5t-117.5 -71.5t-72.5 -120l-39 25q19 98 70.5 162t137 96t205.5 32q106 0 175 -28
t103 -82t34 -131v-6q0 -112 -93 -176.5t-272 -64.5zM208 692v98h690v374h120v-472h-810zM34 1113v93h1141v-93h-1141zM-27 1113l11 93h91v-93h-102zM1129 1113v93h94l-10 -93h-84z" />
    <glyph glyph-name="Nna.gm" unicode="&#xa23;" horiz-adv-x="1144" 
d="M646 -21q-170 0 -288 45.5t-179 131t-61 205.5v89q81 23 163 42t167.5 35t176.5 28v186l117 -5v-265q-97 -10 -188.5 -25.5t-181 -36t-179.5 -46.5l43 61v-65q0 -88 48.5 -149.5t142 -94t228.5 -32.5q103 0 203.5 24.5t184.5 69.5l-11 -116q-73 -39 -173.5 -60.5
t-212.5 -21.5zM907 673q-181 0 -310.5 29t-212.5 84t-123 133.5t-40 176.5v72h125v-75q0 -105 57 -176.5t181 -108.5t323 -37h115v-98h-115zM13 1113v93h1107l-2 -93h-1105zM-27 1113l11 93h91v-93h-102zM1077 1113v93h94l-10 -93h-84z" />
    <glyph glyph-name="Ta.gm" unicode="&#xa24;" horiz-adv-x="1078" 
d="M31 1113v93h1023v-93h-1023zM496 -16q-76 0 -148.5 10t-137 29t-117.5 45l-10 120q61 -30 127.5 -52.5t137 -34t141.5 -11.5q169 0 256 65t87 190v11q0 74 -28.5 130.5t-86.5 88.5t-148 32h-395v105h390q94 0 149 36.5t79 99.5t24 143v170h123v-174q0 -101 -31 -172.5
t-87 -111t-131 -43.5v-32l-36 36q146 -7 222.5 -90.5t76.5 -226.5v-13q0 -169 -115 -259.5t-342 -90.5zM-27 1113l11 93h91v-93h-102zM1015 1113v93h94l-11 -93h-83z" />
    <glyph glyph-name="Tha.gm" unicode="&#xa25;" horiz-adv-x="1264" 
d="M258 685l-3 100h769v-100h-766zM195 1113v93h883v-93h-48l-6 5h-760l-5 -5h-64zM609 204q-160 0 -284.5 50.5t-204.5 140.5q26 63 44.5 141t28 173t9.5 208q0 47 -1.5 96.5t-4.5 99.5h-166v93h282q6 -72 8.5 -139.5t2.5 -128.5q0 -119 -9 -216t-26 -174t-42 -138l-14 43
q34 -39 89 -72t129.5 -53t162.5 -20q110 0 206.5 28.5t154.5 72.5l4 -40h-14l-34 -96q-52 -26 -136 -47.5t-185 -21.5zM1198 1113v93h94l-11 -93h-83zM966 0v1206h274v-93h-156v-1113h-118zM-27 1113l11 93h91v-93h-102z" />
    <glyph glyph-name="Da.gm" unicode="&#xa26;" horiz-adv-x="1175" 
d="M706 -19q-272 0 -412 129.5t-140 383.5v410l119 25v-282l1 -9v-153q0 -199 112 -298.5t327 -99.5q100 0 193.5 27.5t159.5 72.5l-11 -118q-42 -28 -97 -47.5t-118.5 -30t-133.5 -10.5zM217 582v100h683v482h118v-582h-801zM21 1113v93h1128v-93h-1128zM-27 1113l11 93h91
v-93h-102zM1108 1113v93h94l-11 -93h-83z" />
    <glyph glyph-name="Dha.gm" unicode="&#xa27;" horiz-adv-x="1210" 
d="M181 1113l-2 93h882v-93h-880zM601 204q-157 0 -278.5 50.5t-200.5 140.5q27 63 45.5 141t28 173t9.5 208q0 47 -1.5 96.5t-5.5 99.5h-165v93h281q6 -72 8.5 -139.5t2.5 -128.5q0 -119 -9 -216t-26 -174t-42 -138l-14 43q33 -39 87 -72t126 -53t158 -20q97 0 179 27.5
t138 69.5l4 -40h-14l-34 -96q-48 -25 -118.5 -45t-158.5 -20zM1144 1113v93h94l-10 -93h-84zM913 0v1206h273v-93h-156v-1113h-117zM-27 1113l11 93h91v-93h-102z" />
    <glyph glyph-name="Na.gm" unicode="&#xa28;" horiz-adv-x="1189" 
d="M247 0q-64 70 -96 159.5t-32 206.5v4q0 133 57 229t164.5 160.5t258.5 100.5q150 -36 257.5 -100.5t165 -160.5t57.5 -229v-6q0 -113 -32 -202.5t-97 -161.5h-140l5 9q73 76 108 162.5t35 192.5v7q0 104 -44.5 178t-125.5 124.5t-189 84.5q-110 -34 -190.5 -84.5
t-124.5 -124.5t-44 -178v-7q0 -105 34.5 -192.5t109.5 -163.5l4 -8h-141zM541 797v360h118v-360h-118zM31 1113v93h1128v-93h-1128zM-27 1113l11 93h91v-93h-102zM1122 1113v93h94l-11 -93h-83z" />
    <glyph glyph-name="Pa.gm" unicode="&#xa2a;" horiz-adv-x="1206" 
d="M596 208q-155 0 -275.5 50.5t-198.5 140.5q27 63 45.5 140.5t28 171.5t9.5 206q0 47 -1.5 96.5t-5.5 99.5h-165v93h281q6 -72 8.5 -139.5t2.5 -128.5q0 -119 -9 -216.5t-26 -174.5t-42 -137l-14 47q32 -39 85.5 -72t124.5 -53t156 -20q96 0 178 27.5t137 69.5l5 -40h-15
l-34 -96q-46 -25 -117 -45t-158 -20zM1140 1113v93h94l-10 -93h-84zM909 0v1206h273v-93h-156v-1113h-117zM-27 1113l11 93h91v-93h-102z" />
    <glyph glyph-name="Pha.gm" unicode="&#xa2b;" horiz-adv-x="1154" 
d="M672 -23q-163 0 -287 55.5t-193 166.5t-69 277v10q0 177 104 276t295 99h333v300h119v-398h-422q-150 0 -229 -71.5t-79 -208.5v-6q0 -98 29 -172.5t84.5 -125.5t135 -76.5t180.5 -25.5q136 0 200 39t64 113v5q0 74 -57.5 111t-169.5 37q-131 0 -222.5 -61t-123.5 -174
l-38 30q12 95 61 163.5t136.5 105.5t214.5 37q159 0 238.5 -67t79.5 -181v-6q0 -120 -95.5 -186t-288.5 -66zM31 1113v93h1116v-93h-245l-4 2zM-27 1113l11 93h91v-93h-102zM1094 1113v93h94l-11 -93h-83z" />
    <glyph glyph-name="Ba.gm" unicode="&#xa2c;" horiz-adv-x="1257" 
d="M609 158q-152 0 -259 47.5t-163 133t-56 198.5v94q85 26 190 50t205 41l4 4q107 20 223 38.5t250 34.5v-101q-139 -19 -274.5 -40.5t-262 -47t-241.5 -58.5l26 46v-67q0 -77 42 -138t127 -96t212 -35q103 0 191 26t144 66l6 -40h-16l-31 -89q-52 -26 -133.5 -46.5
t-183.5 -20.5zM599 715q-114 3 -198.5 28t-139.5 69.5t-82.5 105t-27.5 134.5v111h131v-120q0 -64 25.5 -117t76 -92.5t124 -61.5t170.5 -24zM31 1113l-2 93h1015l1 -93h-28l-10 5h-781l-6 -5h-189zM1191 1113v93h94l-10 -93h-84zM960 0v1206h273v-93h-156v-1113h-117z
M-27 1113l11 93h91v-93h-102z" />
    <glyph glyph-name="Bha.gm" unicode="&#xa2d;" horiz-adv-x="1138" 
d="M505 -18q-118 0 -223 22.5t-186 58.5l-10 116q87 -44 193 -68.5t218 -24.5q202 0 298 78.5t96 220.5v5q0 75 -27.5 132.5t-57.5 93.5l-1 16q-40 57 -94 96.5t-116.5 60.5t-131.5 21q-107 0 -166.5 -40.5t-59.5 -122.5v-2q0 -80 59.5 -119.5t166.5 -39.5q78 0 143 24
t114.5 67t79.5 100l11 20q18 36 34.5 84.5t27 112.5t10.5 145v122h124v-126q0 -100 -19 -176t-47 -132.5t-56 -96.5l-6 -20l-17 -8q-53 -95 -162 -154t-247 -59q-160 0 -245 67t-85 190v4q0 124 85 191t244 67q90 0 167.5 -27t138 -73.5t98.5 -105.5l23 -20
q37 -32 67.5 -77.5t48.5 -103t18 -127.5v-6q0 -183 -126 -284.5t-382 -101.5zM42 1113v93h1076v-93h-1076zM-27 1113l11 93h91v-93h-102zM1071 1113v93h94l-11 -93h-83z" />
    <glyph glyph-name="Ma.gm" unicode="&#xa2e;" horiz-adv-x="1173" 
d="M160 95q17 110 26 229t9 233q0 123 -7 264t-23 292h-130l-1 93h241q20 -173 29.5 -339.5t9.5 -313.5q0 -116 -8.5 -232.5t-23.5 -225.5h-122zM250 440v103h683v-103h-683zM1108 1113v93h94l-11 -93h-83zM876 0v1206h274v-93h-157v-1113h-117zM-27 1113l11 93h91v-93h-102
z" />
    <glyph glyph-name="Ya.gm" unicode="&#xa2f;" horiz-adv-x="1500" 
d="M552 181q-294 0 -428 186q39 95 59.5 234t20.5 317q0 52 -1.5 110.5t-6.5 123.5h121q4 -66 5.5 -125.5t1.5 -112.5q0 -168 -18 -299t-53 -221q98 -113 295 -113q51 0 100.5 8.5t86.5 23.5l-39 -42v493h553v-100h-437v-439q-54 -22 -122.5 -33t-137.5 -11zM30 1113v93
h1208v-93h-1208zM1434 1113v93h94l-11 -93h-83zM1202 0v1206h274v-93h-156v-1113h-118zM-27 1113l11 93h91v-93h-102z" />
    <glyph glyph-name="Ra.gm" unicode="&#xa30;" horiz-adv-x="1207" 
d="M624 -22q-155 0 -266.5 58.5t-170.5 159.5t-59 228v13q0 161 92 255.5t288 94.5h467v-99h-455q-142 0 -206 -67t-64 -185v-13q0 -100 46 -178t130 -122t198 -44q151 0 222.5 70t71.5 203v378l-1 13v393h118v-787q0 -181 -103.5 -276t-307.5 -95zM28 1113v93h1150v-93
h-1150zM-27 1113l11 93h91v-93h-102zM1141 1113v93h94l-11 -93h-83z" />
    <glyph glyph-name="La.gm" unicode="&#xa32;" horiz-adv-x="1358" 
d="M683 426q-85 57 -156.5 131.5t-127.5 165t-95 195.5t-59 222l-5 22h121l6 -32q37 -182 114 -324.5t202 -251.5q77 73 137 159.5t104 190t72 226.5l7 32h120l-4 -22q-22 -118 -63.5 -223t-98.5 -195t-126.5 -164.5t-147.5 -131.5zM250 0q-59 73 -91.5 165t-32.5 206v7
q0 162 71.5 271.5t200.5 159.5l41 -99q-90 -43 -141.5 -127.5t-51.5 -210.5v-6q0 -73 15.5 -136.5t46 -119.5t73.5 -107l-8 -3h-123zM1106 0h-123l-8 3q45 50 75 105t45 119t15 139v7q0 123 -50.5 208.5t-142.5 128.5l42 99q131 -52 201.5 -162t70.5 -271v-9
q0 -114 -33 -204.5t-92 -162.5zM26 1113v93h1292v-93h-1292zM-27 1113l11 93h91v-93h-102zM1291 1113v93h94l-11 -93h-83z" />
    <glyph glyph-name="Lla.gm" unicode="&#xa33;" horiz-adv-x="1358" 
d="M683 426q-85 57 -156.5 131.5t-127.5 165t-95 195.5t-59 222l-5 22h121l6 -32q37 -182 114 -324.5t202 -251.5q77 73 137 159.5t104 190t72 226.5l7 32h120l-4 -22q-22 -118 -63.5 -223t-98.5 -195t-126.5 -164.5t-147.5 -131.5zM250 0q-59 73 -91.5 165t-32.5 206v7
q0 162 71.5 271.5t200.5 159.5l41 -99q-90 -43 -141.5 -127.5t-51.5 -210.5v-6q0 -73 15.5 -136.5t46 -119.5t73.5 -107l-8 -3h-123zM1106 0h-123l-8 3q45 50 75 105t45 119t15 139v7q0 123 -50.5 208.5t-142.5 128.5l42 99q131 -52 201.5 -162t70.5 -271v-9
q0 -114 -33 -204.5t-92 -162.5zM26 1113v93h1292v-93h-1292zM-27 1113l11 93h91v-93h-102zM1291 1113v93h94l-11 -93h-83zM179 -255q-39 0 -59.5 22.5t-20.5 64.5v10q0 42 20.5 64t59.5 22q41 0 61.5 -22t20.5 -64v-10q0 -42 -20.5 -64.5t-61.5 -22.5z" />
    <glyph glyph-name="Va.gm" unicode="&#xa35;" horiz-adv-x="1183" 
d="M387 379q-140 2 -215.5 64.5t-75.5 181.5q0 115 75.5 175t217.5 60h522v300h118v-398h-629q-89 0 -135 -33.5t-46 -103.5q0 -72 45.5 -108t132.5 -38h604v-100h-614zM874 -21q-128 0 -229 41.5t-168.5 137.5t-96.5 258h126q17 -127 69.5 -200t132.5 -104t179 -31
q41 0 85.5 5.5t85.5 14.5l-11 -101q-40 -10 -84 -15.5t-89 -5.5zM42 1113v93h1125v-93h-207l-9 3zM-27 1113l11 93h91v-93h-102zM1115 1113v93h94l-10 -93h-84z" />
    <glyph glyph-name="Sha.gm" unicode="&#xa36;" horiz-adv-x="1188" 
d="M160 95q17 110 26 229t9 233q0 123 -7.5 263t-22.5 293h-140l-1 93h250q20 -172 30 -339t10 -314q0 -116 -8.5 -233t-23.5 -225h-122zM264 438v103h700v-103h-700zM901 0v487l-1 11v708h259v-93h-142v-1113h-116zM215 1113l-2 93h743l3 -93h-744zM606 76q-40 0 -61 23.5
t-21 66.5v11q0 43 21 66t61 23q42 0 63 -23t21 -66v-11q0 -43 -21 -66.5t-63 -23.5zM1122 1113v93h95l-11 -93h-84zM-27 1113l11 93h91v-93h-102z" />
    <glyph glyph-name="Sa.gm" unicode="&#xa38;" horiz-adv-x="1185" 
d="M160 95q17 110 26 229t9 233q0 123 -8.5 264t-25.5 292h-126l-1 93h237q22 -173 32.5 -339.5t10.5 -312.5q0 -117 -8.5 -233t-23.5 -226h-122zM256 437v103h685v-103h-685zM135 1113v93h893v-93h-893zM-27 1113l11 93h91v-93h-102zM1119 1113v93h94l-10 -93h-84zM887 0
v1206h274v-93h-156v-1113h-118z" />
    <glyph glyph-name="Ha.gm" unicode="&#xa39;" horiz-adv-x="1200" 
d="M616 -22q-156 0 -266.5 59t-168 160.5t-57.5 228.5v18q0 166 94 252t273 86h175l-20 -100h-142q-128 0 -193.5 -61.5t-65.5 -180.5v-17q0 -98 46.5 -175t130 -121.5t194.5 -44.5q153 0 223.5 73t70.5 208v800h118v-803q0 -182 -102.5 -282t-309.5 -100zM25 1113v93h1144
v-93h-1144zM-27 1113l11 93h91v-93h-102zM1133 1113v93h94l-11 -93h-83z" />
    <glyph glyph-name="Khha.gm" unicode="&#xa59;" horiz-adv-x="1250" 
d="M611 204q-160 0 -284 50.5t-205 140.5q27 63 45 141t27.5 173t9.5 208q0 47 -1 96.5t-5 99.5h-165v93h281q6 -72 8.5 -139.5t2.5 -128.5q0 -119 -9 -216t-26 -174t-42 -138l-14 43q34 -38 89.5 -71.5t129.5 -53.5t162 -20q105 0 196.5 28t149.5 72l4 -40h-15l-33 -96
q-49 -26 -129 -47t-177 -21zM252 710v102l760 1v-103h-760zM1184 1113v93h94l-10 -93h-84zM953 0v1206h273v-93h-156v-1113h-117zM-27 1113l11 93h91v-93h-102zM260 -81q-39 0 -59.5 22.5t-20.5 64.5v10q0 42 20.5 64t59.5 22q41 0 61.5 -22t20.5 -64v-10q0 -42 -20.5 -64.5
t-61.5 -22.5z" />
    <glyph glyph-name="Ghha.gm" unicode="&#xa5a;" horiz-adv-x="1560" 
d="M561 -22q-144 0 -242 57t-148 156t-50 226v23q0 161 86.5 251t273.5 90h357v-100h-345q-132 0 -191.5 -64.5t-59.5 -182.5v-21q0 -98 36.5 -173t107.5 -116.5t175 -41.5q111 0 170 58.5t59 161.5v425l-1 6v403h118v-837q0 -153 -90.5 -237t-255.5 -84zM21 1113v93h1343
v-93h-1343zM1494 1113v93h94l-10 -93h-84zM1263 0v1206h274v-93h-157v-1113h-117zM-27 1113l11 93h91v-93h-102zM184 -252q-39 0 -59.5 22.5t-20.5 64.5v10q0 42 20.5 64t59.5 22q41 0 61.5 -22t20.5 -64v-10q0 -42 -20.5 -64.5t-61.5 -22.5z" />
    <glyph glyph-name="Za.gm" unicode="&#xa5b;" horiz-adv-x="1236" 
d="M160 0q15 129 23.5 273.5t8.5 282.5q0 95 -5.5 186t-15.5 167l119 25q11 -82 16.5 -181.5t5.5 -200.5q0 -137 -8.5 -281t-23.5 -271h-120zM250 584v102h747v-102h-747zM23 1113v93h997v-93h-997zM630 120q-40 0 -61 23t-21 66v11q0 44 21 67t61 23q42 0 63 -23t21 -67
v-11q0 -43 -21 -66t-63 -23zM1170 1113v93h94l-10 -93h-84zM939 0v1206h274v-93h-157v-1113h-117zM-27 1113l11 93h91v-93h-102z" />
    <glyph glyph-name="Rra.gm" unicode="&#xa5c;" horiz-adv-x="1045" 
d="M476 50q-115 0 -214.5 24.5t-173.5 62.5l-11 104q53 -28 116 -48.5t131 -32t138 -11.5q115 0 189 27.5t109.5 81.5t35.5 132v8q0 67 -26.5 119t-82.5 82.5t-145 30.5h-395v101h390q90 0 143.5 39t77 104.5t23.5 146.5v140h123v-145q0 -147 -70.5 -240t-201.5 -93v-32
l-35 37q111 -1 182 -38.5t104.5 -103.5t33.5 -151v-19q0 -154 -107 -240t-334 -86zM315 -191l-227 328l115 3l244 -331h-132zM875 -191l-233 303l113 21l253 -324h-133zM24 1113v93h998l2 -93h-1000zM-27 1113l11 93h91v-93h-102zM981 1113v93h94l-10 -93h-84z" />
    <glyph glyph-name="Fa.gm" unicode="&#xa5e;" horiz-adv-x="1154" 
d="M672 -23q-163 0 -287 55.5t-193 166.5t-69 277v10q0 177 104 276t295 99h333v300h119v-398h-422q-150 0 -229 -71.5t-79 -208.5v-6q0 -98 29 -172.5t84.5 -125.5t135 -76.5t180.5 -25.5q136 0 200 39t64 113v5q0 74 -57.5 111t-169.5 37q-131 0 -222.5 -61t-123.5 -174
l-38 30q12 95 61 163.5t136.5 105.5t214.5 37q159 0 238.5 -67t79.5 -181v-6q0 -120 -95.5 -186t-288.5 -66zM31 1113v93h1116v-93h-245l-4 2zM-27 1113l11 93h91v-93h-102zM1094 1113v93h94l-11 -93h-83zM189 -221q-39 0 -59.5 22.5t-20.5 64.5v10q0 42 20.5 64t59.5 22
q41 0 61.5 -22t20.5 -64v-10q0 -42 -20.5 -64.5t-61.5 -22.5z" />
    <glyph glyph-name="Iri.gm" unicode="&#xa72;" horiz-adv-x="1146" 
d="M660 -19q-160 0 -276 52.5t-178 150.5t-62 237v108q86 35 177 63.5t194 50.5l14 4q78 15 164 32.5t169 27.5v449h118v-532q-135 -15 -269.5 -40t-258.5 -59.5t-230 -79.5l41 59v-93q0 -104 51 -176.5t142.5 -110t210.5 -37.5q109 0 202.5 27t162.5 66l-11 -118
q-62 -34 -152 -57.5t-209 -23.5zM501 626l-3 9q-110 11 -187.5 53.5t-118.5 115t-41 172.5v180h122v-170q0 -95 43 -165.5t127.5 -110t208.5 -43.5l-91 -40zM27 1113v93h1104v-93h-203l-8 5h-699l-7 -5h-187zM-27 1113l11 93h91v-93h-102zM1079 1113v93h94l-10 -93h-84z" />
    <glyph glyph-name="Ura.gm" unicode="&#xa73;" horiz-adv-x="1244" 
d="M677 -25q-270 0 -395.5 150.5t-125.5 442.5v578q0 188 59.5 308t170.5 178t266 58q150 0 254.5 -48.5t159 -137.5t54.5 -211v-59l-88 -26l-1 -4l-29 -7v78q0 96 -39.5 165.5t-117 107t-193.5 37.5q-121 0 -205.5 -44t-129 -139.5t-44.5 -248.5v-586q0 -160 41 -268.5
t129 -164t230 -55.5q148 0 217.5 67t69.5 191v4q0 77 -31.5 132t-93.5 85t-154 30h-460v104h454q102 0 174.5 40t111.5 119t39 195v113h119v-108q0 -98 -24.5 -174.5t-68.5 -129t-104 -80t-131 -27.5v-37l-53 40q87 0 151.5 -22.5t107.5 -64t64 -99t21 -126.5v-3
q0 -113 -44.5 -192t-134.5 -120t-226 -41zM23 1113v93h1209v-93h-164l-9 2h-830l-7 -2h-199zM-27 1113l11 93h91v-93h-102zM1180 1113v93h94l-10 -93h-84z" />
    <glyph glyph-name="EkOnkar.gm" unicode="&#xa74;" horiz-adv-x="2220" 
d="M1645 -25q-127 0 -224 35t-163 107.5t-100 184.5t-34 267v538q0 201 66.5 329t194 190t307.5 62q69 0 134 -10.5t120 -28.5l9 -101q-58 17 -120 26.5t-130 9.5q-151 0 -254.5 -49t-156 -156.5t-52.5 -280.5v-530q0 -130 25.5 -223.5t76 -152.5t125.5 -87.5t172 -28.5
q155 0 220.5 70t65.5 184v7q0 75 -31.5 132t-93 88.5t-153.5 31.5h-459v97h453q101 0 173.5 39.5t112 117t39.5 189.5v116h119v-111q0 -95 -25 -168.5t-69.5 -124t-102 -77.5t-121.5 -29v-36l-53 40q85 -2 147.5 -25t104 -64.5t62 -98t20.5 -125.5v-8q0 -103 -42.5 -180.5
t-132 -121.5t-230.5 -44zM1181 1113l5 93h999v-93h-152l-6 2h-820l-6 -2h-20zM1955 1548l-111 49v16q0 123 54 214.5t155 142.5t243 51q49 0 99.5 -7.5t96.5 -21.5l10 -102q-44 13 -91.5 20t-96.5 7q-117 0 -197 -41.5t-121 -115t-41 -169.5v-43zM2152 1113v93h94l-10 -93
h-84zM786 0v850q0 130 -73.5 202.5t-209.5 72.5q-134 0 -205 -69t-71 -200v-18q0 -124 72 -190.5t206 -66.5q102 0 173.5 28t108.5 60l10 -28h-14l-32 -101q-29 -15 -69 -29t-89.5 -23t-109.5 -9q-119 0 -203.5 40.5t-129 120t-44.5 196.5v16q0 179 103 277t294 98
q127 0 217 -45.5t137 -131t47 -205.5v-845h-118z" />
    <glyph glyph-name="Visarga.gm" unicode="&#xa03;" horiz-adv-x="548" 
d="M273 726q-41 0 -62.5 23.5t-21.5 66.5v11q0 44 21.5 66.5t62.5 22.5q42 0 63.5 -22.5t21.5 -66.5v-11q0 -43 -21.5 -66.5t-63.5 -23.5zM273 155q-41 0 -62.5 23t-21.5 66v11q0 44 21.5 67t62.5 23q42 0 63.5 -23t21.5 -67v-11q0 -43 -21.5 -66t-63.5 -23z" />
    <glyph glyph-name="AddhaMa.gm" horiz-adv-x="1123" 
d="M58 477v99h805v-99h-805zM1057 1113v93h94l-11 -93h-83zM825 0v1206h274v-93h-156v-1113h-118z" />
    <glyph glyph-name="AddhaTha.gm" horiz-adv-x="1111" 
d="M446 234q-101 0 -202 15.5t-189 46.5v103q87 -31 188.5 -48t202.5 -17q104 0 206 16.5t188 47.5v-100q-86 -32 -188 -48t-206 -16zM23 1113v93h881v-93h-881zM1045 1113v93h94l-11 -93h-83zM813 0v1206h274v-93h-156v-1113h-118zM-27 1113l11 93h91v-93h-102z" />
    <glyph glyph-name="AddhaYa.gm" horiz-adv-x="1276" 
d="M360 181q-86 0 -165.5 17t-143.5 51v106q62 -38 139.5 -55.5t159.5 -17.5q55 0 105 7.5t85 22.5l-38 -38v489h526v-100h-411v-438q-53 -21 -121 -32.5t-136 -11.5zM5 1113v93h1074v-93h-1074zM1210 1113v93h94l-10 -93h-84zM978 0v1206h274v-93h-156v-1113h-118z
M-27 1113l11 93h91v-93h-102z" />
    <glyph glyph-name="Rha.gm" horiz-adv-x="1078" 
d="M24 1113v93h1038l2 -93h-1040zM328 -193l-246 334l110 3l265 -337h-129zM825 -376q-73 0 -132 23t-93 66t-34 102q0 64 43 103t115 47l43 -67q-47 -4 -76 -25.5t-29 -59.5q0 -33 22.5 -57t59.5 -37t79 -13q59 0 96 26t37 76q0 27 -12 53t-31 53l-150 219l74 56l158 -237
q26 -39 41.5 -74.5t15.5 -70.5q0 -55 -28 -96t-78.5 -64t-120.5 -23zM487 48q-136 0 -238.5 27t-166.5 66l-11 105q48 -28 110 -50.5t136 -35t156 -12.5q114 0 189.5 24t113 74.5t37.5 129.5v18q0 66 -25.5 119.5t-81.5 84.5t-150 31h-402v100h398q88 0 142 36.5t78 101
t24 147.5v127h123v-131q0 -106 -32 -177.5t-90.5 -108.5t-138.5 -41v-32l-25 36q149 -4 225 -83.5t76 -215.5v-23q0 -158 -112.5 -237.5t-334.5 -79.5zM-27 1113l11 93h91v-93h-102zM1019 1113v93h94l-11 -93h-83z" />
    <glyph glyph-name="KaVirama.gm" horiz-adv-x="1229" 
d="M20 1113v93h1201v-93h-1201zM973 0l-20 132q-17 115 -47.5 213t-72.5 167l-5 16q-25 52 -60.5 100.5t-79.5 87t-99 61.5t-120 23q-121 0 -183 -62.5t-62 -171.5v-11q0 -108 63.5 -168.5t181.5 -60.5q60 0 113.5 22t99 60.5t82.5 88.5t65 106l3 18q30 63 53.5 127.5
t41 134t26.5 146.5l16 129l125 1l-18 -137q-16 -120 -57.5 -246t-113.5 -247l-13 -19q-33 -60 -76 -112.5t-96.5 -91.5t-118.5 -61t-144 -22q-167 0 -260 87t-93 244v11q0 159 90.5 248t255.5 89q81 0 146.5 -22t118 -60.5t95 -89t77.5 -107.5l13 -18q45 -62 78.5 -134.5
t57.5 -156.5t39 -182l20 -132h-122zM-27 1113l11 93h91v-93h-102zM1161 1113v93h94l-10 -93h-84zM1235 -472l-257 338h129l244 -339z" />
    <glyph glyph-name="KaViramaRa.gm" horiz-adv-x="1209" 
d="M599 -287l4 105h372l-25 -29q6 28 10 74t4 103v55q0 113 -18 204t-46.5 162t-60.5 125l-8 28q-36 67 -86 127t-117.5 97.5t-155.5 37.5q-123 0 -184.5 -59t-61.5 -166v-31q0 -107 61.5 -165t184.5 -58q62 0 115 21.5t97.5 58.5t81 85.5t65.5 104.5v28q30 62 53.5 124.5
t41 131.5t27.5 152l17 129l124 1l-18 -137q-16 -120 -57.5 -245.5t-113.5 -244.5l-13 -23q-33 -60 -76 -112t-96.5 -91t-119 -61t-143.5 -22q-170 0 -261.5 83t-91.5 239v32q0 156 88.5 240.5t257.5 84.5q81 0 146 -22t118 -60.5t95.5 -88.5t76.5 -107l15 -22
q53 -73 94 -155.5t64.5 -186t23.5 -240.5v-57q0 -55 -5 -109t-18 -100l-64 -41h-397zM1382 -565q-41 35 -94 74.5t-112.5 80t-118 76.5t-109.5 64l53 77q60 -34 128 -77t130.5 -87.5t107.5 -82.5zM20 1113v93h1201v-93h-1201zM-27 1113l11 93h91v-93h-102zM1166 1113v93h94
l-11 -93h-83z" />
    <glyph glyph-name="NaViramaRa.gm" horiz-adv-x="1189" 
d="M247 0q-64 70 -96 159.5t-32 206.5v4q0 133 57 229t164.5 160.5t258.5 100.5q150 -36 257.5 -100.5t165 -160.5t57.5 -229v-6q0 -113 -33 -202t-98 -162h-120v24q46 49 74.5 101.5t42 111.5t13.5 127v7q0 104 -44.5 178t-125.5 124.5t-189 84.5q-110 -34 -190.5 -84.5
t-124.5 -124.5t-44 -178v-7q0 -105 34.5 -192.5t109.5 -163.5l4 -8h-141zM541 797v360h118v-360h-118zM31 1113v93h1128v-93h-1128zM1235 -578q-42 34 -95.5 73t-112.5 79t-117.5 76t-110.5 63l54 77q67 -37 133 -78t126 -83.5t108 -82.5zM451 -295l5 105h372l-32 -35
q15 32 23.5 83t8.5 115v31l120 -1v-35q0 -68 -13.5 -125.5t-38.5 -96.5l-56 -41h-389zM-27 1113l11 93h91v-93h-102zM1122 1113v93h94l-11 -93h-83z" />
    <glyph glyph-name="KhaVirama.gm" horiz-adv-x="1250" 
d="M611 204q-160 0 -284 50.5t-205 140.5q27 63 45 141t27.5 173t9.5 208q0 47 -1 96.5t-5 99.5h-165v93h281q6 -72 8.5 -139.5t2.5 -128.5q0 -119 -9 -216t-26 -174t-42 -138l-14 43q34 -38 89.5 -71.5t129.5 -53.5t162 -20q105 0 196.5 28t149.5 72l4 -40h-15l-33 -96
q-49 -26 -129 -47t-177 -21zM252 710v102l760 1v-103h-760zM1184 1113v93h94l-10 -93h-84zM953 0v1206h273v-93h-156v-1113h-117zM-27 1113l11 93h91v-93h-102zM1217 -472l-257 338h129l244 -339z" />
    <glyph glyph-name="GaVirama.gm" horiz-adv-x="1560" 
d="M561 -22q-144 0 -242 57t-148 156t-50 226v23q0 161 86.5 251t273.5 90h357v-100h-345q-132 0 -191.5 -64.5t-59.5 -182.5v-21q0 -98 36.5 -173t107.5 -116.5t175 -41.5q111 0 170 58.5t59 161.5v425l-1 6v403h118v-837q0 -153 -90.5 -237t-255.5 -84zM21 1113v93h1343
v-93h-1343zM1494 1113v93h94l-10 -93h-84zM1263 0v1206h274v-93h-157v-1113h-117zM-27 1113l11 93h91v-93h-102zM1527 -472l-257 338h129l244 -339z" />
    <glyph glyph-name="GhaVirama.gm" horiz-adv-x="1522" 
d="M490 230q-119 0 -213 44.5t-157 129.5q28 64 46 139t26.5 167.5t8.5 206.5q0 47 -1.5 96.5t-5.5 99.5h-162l-2 93h280q6 -72 8.5 -139.5t2.5 -128.5q0 -119 -9.5 -213.5t-27 -169t-43.5 -135.5l-5 43q32 -57 103.5 -93.5t164.5 -36.5q86 0 148 33t93 85l34 -52l-41 -5
l-33 -100q-29 -22 -85 -43t-130 -21zM1022 229q-89 0 -151.5 25t-99 67.5t-48.5 91.5l105 24q22 -45 74 -75t138 -30q72 0 121 21.5t74 44.5l6 -42h-15l-31 -84q-17 -11 -63 -27t-110 -16zM834 1196v-259v-168t-0.5 -180.5t-0.5 -187.5l-116 -6q0 60 -1 129.5t-1 142
t-0.5 141.5t-0.5 127v237zM1456 1113v93h94l-11 -93h-83zM1224 0v1206h274v-93h-156v-1113h-118zM-27 1113l11 93h91v-93h-102zM1489 -472l-257 338h129l244 -339z" />
    <glyph glyph-name="NgaVirama.gm" horiz-adv-x="1200" 
d="M26 1113v93h1144v-93l-914 2l-4 -2h-226zM500 7q-182 0 -274.5 68.5t-92.5 184.5v6q0 56 18 102t55.5 79.5t95 51.5t135.5 18q107 0 195.5 -30t159.5 -93t122 -162l-67 -57q-71 123 -168.5 183t-220.5 60q-102 0 -153.5 -39t-51.5 -113v-4q0 -49 28 -84t84.5 -53.5
t139.5 -18.5q134 0 216.5 38t128.5 90l3 23q47 50 71.5 116.5t24.5 143.5v8q0 117 -71 177.5t-221 60.5h-476v403h118v-302h378q199 0 295 -87t96 -246v-17q0 -108 -40.5 -200t-116.5 -158l-7 -14q-59 -52 -156 -93.5t-248 -41.5zM964 -94l-116 257l75 72l167 -329h-126z
M-27 1113l11 93h91v-93h-102zM1135 1113v93h94l-11 -93h-83zM996 -485l-257 338h129l244 -339z" />
    <glyph glyph-name="CaVirama.gm" horiz-adv-x="1254" 
d="M664 -22q-162 0 -276 66t-175 191.5t-61 303.5v381l118 27v-409q0 -219 103 -337t290 -118q151 0 226 72t75 212v301l-3 5v488h118v-795q0 -191 -103.5 -289.5t-311.5 -98.5zM212 616v103h812v-103h-812zM22 1113v93h1208v-93h-1208zM-27 1113l11 93h91v-93h-102z
M1187 1113v93h94l-11 -93h-83zM1078 -472l-257 338h129l244 -339z" />
    <glyph glyph-name="ChaVirama.gm" horiz-adv-x="1255" 
d="M643 -18v92h176q94 0 148 46t54 130v5q0 80 -48 126.5t-150 46.5h-349l-73 41v9q-78 1 -135.5 24t-89 67.5t-31.5 107.5q0 100 69.5 157t194.5 57h525v275h119v-367h-605q-88 0 -133.5 -36.5t-45.5 -103.5q0 -49 26 -80t69.5 -45t91.5 -14h377q73 0 129.5 -17t95.5 -50.5
t59 -82.5t20 -113v-6q0 -85 -36.5 -145.5t-108 -92t-177.5 -31.5h-172zM484 -18q-112 0 -189 29.5t-116.5 88t-39.5 142.5v5q0 76 33 128.5t91 80t133 27.5h128v-55h-74q-91 0 -143 -46.5t-52 -126.5v-5q0 -87 57.5 -131.5t155.5 -44.5h181v-92h-165zM591 24v452h103v-452
h-103zM36 1113l-1 93h1192v-93h-233l-4 3zM-27 1113l11 93h91v-93h-102zM1187 1113v93h94l-10 -93h-84zM1055 -472l-257 338h129l244 -339z" />
    <glyph glyph-name="JaVirama.gm" horiz-adv-x="1215" 
d="M154 0q16 129 23.5 274t7.5 283q0 95 -5.5 186t-14.5 167l118 26q11 -83 16.5 -182.5t5.5 -200.5q0 -137 -8 -281.5t-23 -271.5h-120zM247 580v103h732v-103h-732zM30 1113v93h992v-93h-992zM1149 1113v93h94l-10 -93h-84zM918 0v1206h274v-93h-157v-1113h-117zM-27 1113
l11 93h91v-93h-102zM1182 -472l-257 338h129l244 -339z" />
    <glyph glyph-name="JhaVirama.gm" horiz-adv-x="1193" 
d="M588 44q-75 0 -149 9.5t-144 27t-137 42.5l-11 110q54 -21 107 -37t107.5 -26.5t110.5 -16t116 -5.5q127 0 203.5 24t111.5 74.5t35 128.5v2q0 67 -32 119t-109.5 82t-213.5 30q-66 0 -124 -4.5t-111 -12t-105 -18t-106 -23.5l12 103q53 15 126.5 26.5t143.5 12.5v19h176
h152v-27q155 -13 233.5 -94.5t78.5 -213.5v-4q0 -165 -111 -246.5t-360 -81.5zM567 -191l-328 300l180 -8l-8 -38q95 -70 178 -134t146 -121zM493 688q-107 2 -189.5 41t-129 109.5t-47.5 166.5l-1 153h132v-160q0 -89 42.5 -153.5t117 -99t169.5 -34.5zM13 1113v93h1150
v-93h-165l-6 5h-796l-4 -5h-179zM1056 1007q-1 -75 -25.5 -134.5t-71.5 -101.5t-114 -65t-152 -23l-94 28q98 0 171 33t114.5 97t41.5 157v160h131zM-27 1113l11 93h91v-93h-102zM1125 1113v93h94l-10 -93h-84zM858 -572l-257 338h129l244 -339z" />
    <glyph glyph-name="NyaVirama.gm" horiz-adv-x="1197" 
d="M393 370q-133 0 -210 58t-77 182q0 114 76 171.5t214 57.5h518v318h117v-415h-624q-86 0 -132 -31.5t-46 -100.5q0 -78 47 -109t128 -31h599v-100h-610zM887 -21q-132 0 -236 41.5t-173 136.5t-98 256l126 -2q18 -125 71.5 -197t136 -102t185.5 -30q36 0 81 5t88 15
l-11 -102q-41 -10 -87 -15.5t-83 -5.5zM361 774q-67 76 -119.5 180t-78.5 221l127 -1q26 -116 75 -214t111 -163zM37 1113v93h1121v-93h-178l-12 4h-721l-11 -4h-199zM-27 1113l11 93h91v-93h-102zM1129 1113v93h94l-10 -93h-84zM1042 -483l-257 338h129l244 -339z" />
    <glyph glyph-name="TtaVirama.gm" horiz-adv-x="1108" 
d="M643 -14q-162 0 -276 54t-173 156t-59 246v161q81 40 167 72.5t178 58t191 44.5t205 31l-51 -44v393h118v-446q-134 -14 -260 -38.5t-243.5 -64t-226.5 -95.5l41 51v-137q0 -110 48.5 -185t138.5 -113.5t215 -38.5q99 0 189 26.5t158 64.5l-11 -116q-60 -34 -148.5 -57
t-200.5 -23zM19 1113v93h1056v-93h-1056zM-27 1113l11 93h91v-93h-102zM1051 1113v93h94l-10 -93h-84zM1004 -472l-257 338h129l244 -339z" />
    <glyph glyph-name="TthaVirama.gm" horiz-adv-x="1214" 
d="M609 -27q-238 0 -362 108.5t-124 312.5v26q0 116 53 205t161 149.5t273 89.5q167 -29 274 -89t159 -149t52 -206v-25q0 -205 -124 -313.5t-362 -108.5zM609 78q178 0 271.5 80.5t93.5 236.5v23q0 135 -90 221t-274 122q-181 -37 -273.5 -123t-92.5 -220v-24
q0 -155 94 -235.5t271 -80.5zM551 808v356h120v-356h-120zM24 1113v93h1165v-93h-1165zM-27 1113l11 93h91v-93h-102zM1147 1113v93h94l-10 -93h-84zM1010 -472l-257 338h129l244 -339z" />
    <glyph glyph-name="DdaVirama.gm" horiz-adv-x="1145" 
d="M509 -23q-135 0 -227 29.5t-139 84.5t-47 128v7q0 74 36 126.5t109 81t182 28.5q104 0 182.5 -18.5t133.5 -56t88 -94t45 -131.5l-32 -13q-29 70 -84.5 117t-131 71t-167.5 24q-82 0 -136 -16.5t-80.5 -47t-26.5 -73.5v-4q0 -44 33.5 -76t98.5 -49t159 -17
q137 0 224 32.5t129.5 97t42.5 159.5v16q0 83 -30.5 150.5t-90.5 107t-150 39.5h-424v101h423q134 0 192.5 72.5t58.5 186.5v123h121v-121q0 -95 -32 -164t-88.5 -106.5t-127.5 -41.5v-33l-52 37q101 0 172 -46t109 -126t38 -183v-17q0 -184 -129 -284.5t-382 -100.5z
M34 1113l-3 93h1107l-2 -93h-206l-5 2zM-27 1113l11 93h91v-93h-102zM1081 1113v93h94l-11 -93h-83zM956 -472l-257 338h129l244 -339z" />
    <glyph glyph-name="DdhaVirama.gm" horiz-adv-x="1197" 
d="M720 -25q-182 0 -309.5 66t-195.5 196.5t-68 321.5v405l120 27v-448q0 -153 51.5 -257.5t152 -157.5t248.5 -53q121 0 184 37.5t63 104.5v4q0 69 -56 105.5t-170 36.5q-82 0 -151 -23.5t-117.5 -71.5t-72.5 -120l-39 25q19 98 70.5 162t137 96t205.5 32q106 0 175 -28
t103 -82t34 -131v-6q0 -112 -93 -176.5t-272 -64.5zM208 692v98h690v374h120v-472h-810zM34 1113v93h1141v-93h-1141zM-27 1113l11 93h91v-93h-102zM1129 1113v93h94l-10 -93h-84zM1046 -480l-257 338h129l244 -339z" />
    <glyph glyph-name="NnaVirama.gm" horiz-adv-x="1144" 
d="M646 -21q-170 0 -288 45.5t-179 131t-61 205.5v89q81 23 163 42t167.5 35t176.5 28v186l117 -5v-265q-97 -10 -188.5 -25.5t-181 -36t-179.5 -46.5l43 61v-65q0 -88 48.5 -149.5t142 -94t228.5 -32.5q103 0 203.5 24.5t184.5 69.5l-11 -116q-73 -39 -173.5 -60.5
t-212.5 -21.5zM907 673q-181 0 -310.5 29t-212.5 84t-123 133.5t-40 176.5v72h125v-75q0 -105 57 -176.5t181 -108.5t323 -37h115v-98h-115zM13 1113v93h1107l-2 -93h-1105zM-27 1113l11 93h91v-93h-102zM1077 1113v93h94l-10 -93h-84zM1036 -472l-257 338h129l244 -339z
" />
    <glyph glyph-name="TaVirama.gm" horiz-adv-x="1078" 
d="M31 1113v93h1023v-93h-1023zM496 -16q-76 0 -148.5 10t-137 29t-117.5 45l-10 120q61 -30 127.5 -52.5t137 -34t141.5 -11.5q169 0 256 65t87 190v11q0 74 -28.5 130.5t-86.5 88.5t-148 32h-395v105h390q94 0 149 36.5t79 99.5t24 143v170h123v-174q0 -101 -31 -172.5
t-87 -111t-131 -43.5v-32l-36 36q146 -7 222.5 -90.5t76.5 -226.5v-13q0 -169 -115 -259.5t-342 -90.5zM-27 1113l11 93h91v-93h-102zM1015 1113v93h94l-11 -93h-83zM883 -472l-257 338h129l244 -339z" />
    <glyph glyph-name="ThaVirama.gm" horiz-adv-x="1264" 
d="M258 685l-3 100h769v-100h-766zM195 1113v93h883v-93h-48l-6 5h-760l-5 -5h-64zM609 204q-160 0 -284.5 50.5t-204.5 140.5q26 63 44.5 141t28 173t9.5 208q0 47 -1.5 96.5t-4.5 99.5h-166v93h282q6 -72 8.5 -139.5t2.5 -128.5q0 -119 -9 -216t-26 -174t-42 -138l-14 43
q34 -39 89 -72t129.5 -53t162.5 -20q110 0 206.5 28.5t154.5 72.5l4 -40h-14l-34 -96q-52 -26 -136 -47.5t-185 -21.5zM1198 1113v93h94l-11 -93h-83zM966 0v1206h274v-93h-156v-1113h-118zM-27 1113l11 93h91v-93h-102zM1231 -472l-257 338h129l244 -339z" />
    <glyph glyph-name="DaVirama.gm" horiz-adv-x="1175" 
d="M706 -19q-272 0 -412 129.5t-140 383.5v410l119 25v-282l1 -9v-153q0 -199 112 -298.5t327 -99.5q100 0 193.5 27.5t159.5 72.5l-11 -118q-42 -28 -97 -47.5t-118.5 -30t-133.5 -10.5zM217 582v100h683v482h118v-582h-801zM21 1113v93h1128v-93h-1128zM-27 1113l11 93h91
v-93h-102zM1108 1113v93h94l-11 -93h-83zM1018 -479l-257 338h129l244 -339z" />
    <glyph glyph-name="DhaVirama.gm" horiz-adv-x="1210" 
d="M181 1113l-2 93h882v-93h-880zM601 204q-157 0 -278.5 50.5t-200.5 140.5q27 63 45.5 141t28 173t9.5 208q0 47 -1.5 96.5t-5.5 99.5h-165v93h281q6 -72 8.5 -139.5t2.5 -128.5q0 -119 -9 -216t-26 -174t-42 -138l-14 43q33 -39 87 -72t126 -53t158 -20q97 0 179 27.5
t138 69.5l4 -40h-14l-34 -96q-48 -25 -118.5 -45t-158.5 -20zM1144 1113v93h94l-10 -93h-84zM913 0v1206h273v-93h-156v-1113h-117zM-27 1113l11 93h91v-93h-102zM1177 -472l-257 338h129l244 -339z" />
    <glyph glyph-name="NaVirama.gm" horiz-adv-x="1189" 
d="M247 0q-64 70 -96 159.5t-32 206.5v4q0 133 57 229t164.5 160.5t258.5 100.5q150 -36 257.5 -100.5t165 -160.5t57.5 -229v-6q0 -113 -32 -202.5t-97 -161.5h-140l5 9q73 76 108 162.5t35 192.5v7q0 104 -44.5 178t-125.5 124.5t-189 84.5q-110 -34 -190.5 -84.5
t-124.5 -124.5t-44 -178v-7q0 -105 34.5 -192.5t109.5 -163.5l4 -8h-141zM541 797v360h118v-360h-118zM31 1113v93h1128v-93h-1128zM-27 1113l11 93h91v-93h-102zM1122 1113v93h94l-11 -93h-83zM1095 -478l-257 338h129l244 -339z" />
    <glyph glyph-name="PaVirama.gm" horiz-adv-x="1206" 
d="M596 208q-155 0 -275.5 50.5t-198.5 140.5q27 63 45.5 140.5t28 171.5t9.5 206q0 47 -1.5 96.5t-5.5 99.5h-165v93h281q6 -72 8.5 -139.5t2.5 -128.5q0 -119 -9 -216.5t-26 -174.5t-42 -137l-14 47q32 -39 85.5 -72t124.5 -53t156 -20q96 0 178 27.5t137 69.5l5 -40h-15
l-34 -96q-46 -25 -117 -45t-158 -20zM1140 1113v93h94l-10 -93h-84zM909 0v1206h273v-93h-156v-1113h-117zM-27 1113l11 93h91v-93h-102zM1173 -472l-257 338h129l244 -339z" />
    <glyph glyph-name="PhaVirama.gm" horiz-adv-x="1154" 
d="M672 -23q-163 0 -287 55.5t-193 166.5t-69 277v10q0 177 104 276t295 99h333v300h119v-398h-422q-150 0 -229 -71.5t-79 -208.5v-6q0 -98 29 -172.5t84.5 -125.5t135 -76.5t180.5 -25.5q136 0 200 39t64 113v5q0 74 -57.5 111t-169.5 37q-131 0 -222.5 -61t-123.5 -174
l-38 30q12 95 61 163.5t136.5 105.5t214.5 37q159 0 238.5 -67t79.5 -181v-6q0 -120 -95.5 -186t-288.5 -66zM31 1113v93h1116v-93h-245l-4 2zM-27 1113l11 93h91v-93h-102zM1094 1113v93h94l-11 -93h-83zM1022 -481l-257 338h129l244 -339z" />
    <glyph glyph-name="BaVirama.gm" horiz-adv-x="1257" 
d="M609 158q-152 0 -259 47.5t-163 133t-56 198.5v94q85 26 190 50t205 41l4 4q107 20 223 38.5t250 34.5v-101q-139 -19 -274.5 -40.5t-262 -47t-241.5 -58.5l26 46v-67q0 -77 42 -138t127 -96t212 -35q103 0 191 26t144 66l6 -40h-16l-31 -89q-52 -26 -133.5 -46.5
t-183.5 -20.5zM599 715q-114 3 -198.5 28t-139.5 69.5t-82.5 105t-27.5 134.5v111h131v-120q0 -64 25.5 -117t76 -92.5t124 -61.5t170.5 -24zM31 1113l-2 93h1015l1 -93h-28l-10 5h-781l-6 -5h-189zM1191 1113v93h94l-10 -93h-84zM960 0v1206h273v-93h-156v-1113h-117z
M-27 1113l11 93h91v-93h-102zM1224 -472l-257 338h129l244 -339z" />
    <glyph glyph-name="BhaVirama.gm" horiz-adv-x="1138" 
d="M505 -18q-118 0 -223 22.5t-186 58.5l-10 116q87 -44 193 -68.5t218 -24.5q202 0 298 78.5t96 220.5v5q0 75 -27.5 132.5t-57.5 93.5l-1 16q-40 57 -94 96.5t-116.5 60.5t-131.5 21q-107 0 -166.5 -40.5t-59.5 -122.5v-2q0 -80 59.5 -119.5t166.5 -39.5q78 0 143 24
t114.5 67t79.5 100l11 20q18 36 34.5 84.5t27 112.5t10.5 145v122h124v-126q0 -100 -19 -176t-47 -132.5t-56 -96.5l-6 -20l-17 -8q-53 -95 -162 -154t-247 -59q-160 0 -245 67t-85 190v4q0 124 85 191t244 67q90 0 167.5 -27t138 -73.5t98.5 -105.5l23 -20
q37 -32 67.5 -77.5t48.5 -103t18 -127.5v-6q0 -183 -126 -284.5t-382 -101.5zM42 1113v93h1076v-93h-1076zM-27 1113l11 93h91v-93h-102zM1071 1113v93h94l-11 -93h-83zM925 -472l-257 338h129l244 -339z" />
    <glyph glyph-name="MaVirama.gm" horiz-adv-x="1173" 
d="M160 95q17 110 26 229t9 233q0 123 -7 264t-23 292h-130l-1 93h241q20 -173 29.5 -339.5t9.5 -313.5q0 -116 -8.5 -232.5t-23.5 -225.5h-122zM250 440v103h683v-103h-683zM1108 1113v93h94l-11 -93h-83zM876 0v1206h274v-93h-157v-1113h-117zM-27 1113l11 93h91v-93h-102
zM1140 -472l-257 338h129l244 -339z" />
    <glyph glyph-name="YaVirama.gm" horiz-adv-x="1500" 
d="M552 181q-294 0 -428 186q39 95 59.5 234t20.5 317q0 52 -1.5 110.5t-6.5 123.5h121q4 -66 5.5 -125.5t1.5 -112.5q0 -168 -18 -299t-53 -221q98 -113 295 -113q51 0 100.5 8.5t86.5 23.5l-39 -42v493h553v-100h-437v-439q-54 -22 -122.5 -33t-137.5 -11zM30 1113v93
h1208v-93h-1208zM1434 1113v93h94l-11 -93h-83zM1202 0v1206h274v-93h-156v-1113h-118zM-27 1113l11 93h91v-93h-102zM1467 -472l-257 338h129l244 -339z" />
    <glyph glyph-name="RaVirama.gm" horiz-adv-x="1207" 
d="M624 -22q-155 0 -266.5 58.5t-170.5 159.5t-59 228v13q0 161 92 255.5t288 94.5h467v-99h-455q-142 0 -206 -67t-64 -185v-13q0 -100 46 -178t130 -122t198 -44q151 0 222.5 70t71.5 203v378l-1 13v393h118v-787q0 -181 -103.5 -276t-307.5 -95zM28 1113v93h1150v-93
h-1150zM-27 1113l11 93h91v-93h-102zM1141 1113v93h94l-11 -93h-83zM1018 -472l-257 338h129l244 -339z" />
    <glyph glyph-name="LaVirama.gm" horiz-adv-x="1358" 
d="M683 426q-85 57 -156.5 131.5t-127.5 165t-95 195.5t-59 222l-5 22h121l6 -32q37 -182 114 -324.5t202 -251.5q77 73 137 159.5t104 190t72 226.5l7 32h120l-4 -22q-22 -118 -63.5 -223t-98.5 -195t-126.5 -164.5t-147.5 -131.5zM250 0q-59 73 -91.5 165t-32.5 206v7
q0 162 71.5 271.5t200.5 159.5l41 -99q-90 -43 -141.5 -127.5t-51.5 -210.5v-6q0 -73 15.5 -136.5t46 -119.5t73.5 -107l-8 -3h-123zM1106 0h-123l-8 3q45 50 75 105t45 119t15 139v7q0 123 -50.5 208.5t-142.5 128.5l42 99q131 -52 201.5 -162t70.5 -271v-9
q0 -114 -33 -204.5t-92 -162.5zM26 1113v93h1292v-93h-1292zM-27 1113l11 93h91v-93h-102zM1291 1113v93h94l-11 -93h-83zM1267 -472l-257 338h129l244 -339z" />
    <glyph glyph-name="LlaVirama.gm" horiz-adv-x="1358" 
d="M683 426q-85 57 -156.5 131.5t-127.5 165t-95 195.5t-59 222l-5 22h121l6 -32q37 -182 114 -324.5t202 -251.5q77 73 137 159.5t104 190t72 226.5l7 32h120l-4 -22q-22 -118 -63.5 -223t-98.5 -195t-126.5 -164.5t-147.5 -131.5zM250 0q-59 73 -91.5 165t-32.5 206v7
q0 162 71.5 271.5t200.5 159.5l41 -99q-90 -43 -141.5 -127.5t-51.5 -210.5v-6q0 -73 15.5 -136.5t46 -119.5t73.5 -107l-8 -3h-123zM1106 0h-123l-8 3q45 50 75 105t45 119t15 139v7q0 123 -50.5 208.5t-142.5 128.5l42 99q131 -52 201.5 -162t70.5 -271v-9
q0 -114 -33 -204.5t-92 -162.5zM26 1113v93h1292v-93h-1292zM-27 1113l11 93h91v-93h-102zM1291 1113v93h94l-11 -93h-83zM179 -255q-39 0 -59.5 22.5t-20.5 64.5v10q0 42 20.5 64t59.5 22q41 0 61.5 -22t20.5 -64v-10q0 -42 -20.5 -64.5t-61.5 -22.5zM1234 -472l-257 338
h129l244 -339z" />
    <glyph glyph-name="VaVirama.gm" horiz-adv-x="1183" 
d="M387 379q-140 2 -215.5 64.5t-75.5 181.5q0 115 75.5 175t217.5 60h522v300h118v-398h-629q-89 0 -135 -33.5t-46 -103.5q0 -72 45.5 -108t132.5 -38h604v-100h-614zM874 -21q-128 0 -229 41.5t-168.5 137.5t-96.5 258h126q17 -127 69.5 -200t132.5 -104t179 -31
q41 0 85.5 5.5t85.5 14.5l-11 -101q-40 -10 -84 -15.5t-89 -5.5zM42 1113v93h1125v-93h-207l-9 3zM-27 1113l11 93h91v-93h-102zM1115 1113v93h94l-10 -93h-84zM1017 -481l-257 338h129l244 -339z" />
    <glyph glyph-name="ShaVirama.gm" horiz-adv-x="1188" 
d="M160 95q17 110 26 229t9 233q0 123 -7.5 263t-22.5 293h-140l-1 93h250q20 -172 30 -339t10 -314q0 -116 -8.5 -233t-23.5 -225h-122zM264 438v103h700v-103h-700zM901 0v487l-1 11v708h259v-93h-142v-1113h-116zM215 1113l-2 93h743l3 -93h-744zM606 76q-40 0 -61 23.5
t-21 66.5v11q0 43 21 66t61 23q42 0 63 -23t21 -66v-11q0 -43 -21 -66.5t-63 -23.5zM1122 1113v93h95l-11 -93h-84zM-27 1113l11 93h91v-93h-102zM1164 -472l-257 338h129l244 -339z" />
    <glyph glyph-name="SaVirama.gm" horiz-adv-x="1185" 
d="M160 95q17 110 26 229t9 233q0 123 -8.5 264t-25.5 292h-126l-1 93h237q22 -173 32.5 -339.5t10.5 -312.5q0 -117 -8.5 -233t-23.5 -226h-122zM256 437v103h685v-103h-685zM135 1113v93h893v-93h-893zM-27 1113l11 93h91v-93h-102zM1119 1113v93h94l-10 -93h-84zM887 0
v1206h274v-93h-156v-1113h-118zM1152 -472l-257 338h129l244 -339z" />
    <glyph glyph-name="HaVirama.gm" horiz-adv-x="1200" 
d="M616 -22q-156 0 -266.5 59t-168 160.5t-57.5 228.5v18q0 166 94 252t273 86h175l-20 -100h-142q-128 0 -193.5 -61.5t-65.5 -180.5v-17q0 -98 46.5 -175t130 -121.5t194.5 -44.5q153 0 223.5 73t70.5 208v800h118v-803q0 -182 -102.5 -282t-309.5 -100zM25 1113v93h1144
v-93h-1144zM-27 1113l11 93h91v-93h-102zM1133 1113v93h94l-11 -93h-83zM1002 -472l-257 338h129l244 -339z" />
    <glyph glyph-name="KhhaVirama.gm" horiz-adv-x="1250" 
d="M611 204q-160 0 -284 50.5t-205 140.5q27 63 45 141t27.5 173t9.5 208q0 47 -1 96.5t-5 99.5h-165v93h281q6 -72 8.5 -139.5t2.5 -128.5q0 -119 -9 -216t-26 -174t-42 -138l-14 43q34 -38 89.5 -71.5t129.5 -53.5t162 -20q105 0 196.5 28t149.5 72l4 -40h-15l-33 -96
q-49 -26 -129 -47t-177 -21zM252 710v102l760 1v-103h-760zM1184 1113v93h94l-10 -93h-84zM953 0v1206h273v-93h-156v-1113h-117zM-27 1113l11 93h91v-93h-102zM260 -81q-39 0 -59.5 22.5t-20.5 64.5v10q0 42 20.5 64t59.5 22q41 0 61.5 -22t20.5 -64v-10q0 -42 -20.5 -64.5
t-61.5 -22.5zM1217 -472l-257 338h129l244 -339z" />
    <glyph glyph-name="GhhaVirama.gm" horiz-adv-x="1560" 
d="M561 -22q-144 0 -242 57t-148 156t-50 226v23q0 161 86.5 251t273.5 90h357v-100h-345q-132 0 -191.5 -64.5t-59.5 -182.5v-21q0 -98 36.5 -173t107.5 -116.5t175 -41.5q111 0 170 58.5t59 161.5v425l-1 6v403h118v-837q0 -153 -90.5 -237t-255.5 -84zM21 1113v93h1343
v-93h-1343zM1494 1113v93h94l-10 -93h-84zM1263 0v1206h274v-93h-157v-1113h-117zM-27 1113l11 93h91v-93h-102zM184 -252q-39 0 -59.5 22.5t-20.5 64.5v10q0 42 20.5 64t59.5 22q41 0 61.5 -22t20.5 -64v-10q0 -42 -20.5 -64.5t-61.5 -22.5zM1527 -472l-257 338h129
l244 -339z" />
    <glyph glyph-name="ZaVirama.gm" horiz-adv-x="1236" 
d="M160 0q15 129 23.5 273.5t8.5 282.5q0 95 -5.5 186t-15.5 167l119 25q11 -82 16.5 -181.5t5.5 -200.5q0 -137 -8.5 -281t-23.5 -271h-120zM250 584v102h747v-102h-747zM23 1113v93h997v-93h-997zM630 120q-40 0 -61 23t-21 66v11q0 44 21 67t61 23q42 0 63 -23t21 -67
v-11q0 -43 -21 -66t-63 -23zM1170 1113v93h94l-10 -93h-84zM939 0v1206h274v-93h-157v-1113h-117zM-27 1113l11 93h91v-93h-102zM1203 -472l-257 338h129l244 -339z" />
    <glyph glyph-name="RraVirama.gm" horiz-adv-x="1045" 
d="M476 50q-115 0 -214.5 24.5t-173.5 62.5l-11 104q53 -28 116 -48.5t131 -32t138 -11.5q115 0 189 27.5t109.5 81.5t35.5 132v8q0 67 -26.5 119t-82.5 82.5t-145 30.5h-395v101h390q90 0 143.5 39t77 104.5t23.5 146.5v140h123v-145q0 -147 -70.5 -240t-201.5 -93v-32
l-35 37q111 -1 182 -38.5t104.5 -103.5t33.5 -151v-19q0 -154 -107 -240t-334 -86zM315 -191l-227 328l115 3l244 -331h-132zM875 -191l-233 303l113 21l253 -324h-133zM24 1113v93h998l2 -93h-1000zM-27 1113l11 93h91v-93h-102zM981 1113v93h94l-10 -93h-84zM824 -560
l-257 338h129l244 -339z" />
    <glyph glyph-name="FaVirama.gm" horiz-adv-x="1154" 
d="M672 -23q-163 0 -287 55.5t-193 166.5t-69 277v10q0 177 104 276t295 99h333v300h119v-398h-422q-150 0 -229 -71.5t-79 -208.5v-6q0 -98 29 -172.5t84.5 -125.5t135 -76.5t180.5 -25.5q136 0 200 39t64 113v5q0 74 -57.5 111t-169.5 37q-131 0 -222.5 -61t-123.5 -174
l-38 30q12 95 61 163.5t136.5 105.5t214.5 37q159 0 238.5 -67t79.5 -181v-6q0 -120 -95.5 -186t-288.5 -66zM31 1113v93h1116v-93h-245l-4 2zM-27 1113l11 93h91v-93h-102zM1094 1113v93h94l-11 -93h-83zM189 -221q-39 0 -59.5 22.5t-20.5 64.5v10q0 42 20.5 64t59.5 22
q41 0 61.5 -22t20.5 -64v-10q0 -42 -20.5 -64.5t-61.5 -22.5zM1006 -483l-257 338h129l244 -339z" />
    <glyph glyph-name="LaHa.gm" horiz-adv-x="1358" 
d="M683 426q-85 57 -156.5 131.5t-127.5 165t-95 195.5t-59 222l-5 22h121l6 -32q37 -182 114 -324.5t202 -251.5q77 73 137 159.5t104 190t72 226.5l7 32h120l-4 -22q-22 -118 -63.5 -223t-98.5 -195t-126.5 -164.5t-147.5 -131.5zM250 0q-59 73 -91.5 165t-32.5 206v7
q0 162 71.5 271.5t200.5 159.5l41 -99q-90 -43 -141.5 -127.5t-51.5 -210.5v-6q0 -73 15.5 -136.5t46 -119.5t73.5 -107l-8 -3h-123zM1101 0h-118v17q44 49 72 101t41.5 112.5t13.5 135.5v7q0 123 -50.5 208.5t-142.5 128.5l42 99q131 -52 201.5 -162t70.5 -271v-9
q0 -114 -34 -205t-96 -162zM26 1113v93h1292v-93h-1292zM775 -639q-117 0 -199.5 38.5t-125.5 105.5t-43 151v5q0 108 69.5 167t193.5 59h154v-96h-145q-72 0 -112.5 -35t-40.5 -96v-5q0 -89 66 -143t180 -54q105 0 158 46t53 137v359h118v-355q0 -88 -36 -152t-108 -98
t-182 -34zM-27 1113l11 93h91v-93h-102zM1291 1113v93h94l-11 -93h-83z" />
    <glyph glyph-name="NaHa.gm" horiz-adv-x="1189" 
d="M247 0q-64 70 -96 158t-32 208v10q0 131 57 225.5t164.5 158.5t258.5 100q150 -36 257.5 -100t165 -158.5t57.5 -225.5v-12q0 -117 -32 -205t-106 -159h-117v11q71 76 102.5 158.5t31.5 190.5v11q0 104 -44.5 178t-125.5 124.5t-189 84.5q-110 -34 -190.5 -84.5
t-124.5 -124.5t-44 -178v-11q0 -105 31.5 -189.5t104.5 -162.5l4 -8h-133zM541 797v360h118v-360h-118zM31 1113v93h1128v-93h-1128zM616 -639q-117 0 -199.5 38.5t-125.5 105.5t-43 151v5q0 108 69.5 167t192.5 59h155v-96h-145q-73 0 -113 -35t-40 -96v-5q0 -89 66 -143
t180 -54q105 0 158 46t53 137v359h117v-355q0 -88 -35.5 -152t-107.5 -98t-182 -34zM-27 1113l11 93h91v-93h-102zM1122 1113v93h94l-11 -93h-83z" />
    <glyph glyph-name="zero.gm" unicode="&#xa66;" horiz-adv-x="987" 
d="M497 154q-122 0 -211 48t-137 135.5t-48 205.5v144q0 121 47.5 208t136.5 134t212 47q124 0 212.5 -47t136 -134t47.5 -208v-144q0 -118 -47.5 -205.5t-136 -135.5t-212.5 -48zM497 257q84 0 145.5 35t94.5 100t33 154v140q0 91 -33 155t-94 98t-146 34t-146.5 -34
t-94.5 -98t-33 -155v-140q0 -89 33 -154t94.5 -100t146.5 -35z" />
    <glyph glyph-name="one.gm" unicode="&#xa67;" horiz-adv-x="1041" 
d="M786 0v850q0 130 -73.5 202.5t-209.5 72.5q-134 0 -205 -69t-71 -200v-18q0 -124 72 -190.5t206 -66.5q102 0 173.5 28t108.5 60l10 -28h-14l-32 -101q-29 -15 -69 -29t-89.5 -23t-109.5 -9q-119 0 -203.5 40.5t-129 120t-44.5 196.5v16q0 179 103 277t294 98
q127 0 217 -45.5t137 -131t47 -205.5v-845h-118z" />
    <glyph glyph-name="two.gm" unicode="&#xa68;" horiz-adv-x="1002" 
d="M437 371q-100 0 -180 18.5t-152 46.5l-11 111q74 -35 155 -53.5t171 -18.5q120 0 198.5 35t117.5 104.5t39 171.5v18q0 158 -81 239.5t-234 81.5q-100 0 -192 -31.5t-159 -80.5v113q66 45 161 73t200 28q208 0 317.5 -108t109.5 -319v-18q0 -133 -50.5 -225t-152.5 -139
t-257 -47zM639 -33l-453 455l164 13l-2 -55q73 -57 147.5 -123t151.5 -138.5t155 -151.5h-163z" />
    <glyph glyph-name="three.gm" unicode="&#xa69;" horiz-adv-x="1019" 
d="M487 69q-65 0 -134 10.5t-134 30t-121 43.5l-11 119q59 -29 122 -51.5t131 -35t139 -12.5q151 0 231 55.5t80 157.5v7q0 92 -58.5 148.5t-183.5 56.5h-358v103h356q125 0 175.5 56.5t50.5 138.5v2q0 111 -79.5 167t-227.5 56q-59 0 -121 -11t-121.5 -32.5t-115.5 -53.5
v111q52 29 113 49.5t125 31.5t126 11q137 0 231.5 -38t143.5 -109t49 -171v-4q0 -110 -61 -179.5t-170 -73.5v-34l-58 39q102 0 170 -36t102 -98t34 -140v-8q0 -144 -107 -225t-318 -81zM515 -173l-322 309h172l2 -54q79 -58 152.5 -117t165.5 -138h-170z" />
    <glyph glyph-name="four.gm" unicode="&#xa6a;" horiz-adv-x="1110" 
d="M555 -15q-137 0 -233 37.5t-146 112.5t-50 185v9q0 139 68 214t194 93v3q-137 18 -206 93t-69 198q0 71 9 142t26 134h121q-17 -65 -26 -134.5t-9 -140.5q0 -112 76.5 -174t244.5 -62q169 0 244 62t75 174q0 71 -8.5 140.5t-25.5 134.5h121q17 -63 26 -133t9 -143
q0 -122 -69 -197t-212 -93v-3q129 -18 198 -94t69 -213v-10q0 -110 -49.5 -185t-144.5 -112.5t-233 -37.5zM555 89q152 0 228 61.5t76 182.5v7q0 73 -27.5 129.5t-94 88.5t-183.5 32q-115 1 -182 -31.5t-95.5 -89t-28.5 -128.5v-8q0 -121 79 -182.5t228 -61.5z" />
    <glyph glyph-name="five.gm" unicode="&#xa6b;" horiz-adv-x="1131" 
d="M543 208q-145 0 -260.5 48.5t-191.5 142.5q29 92 47 188t26.5 198t8.5 213q0 53 -2 105t-7 103h121q5 -50 7 -102t2 -106q0 -98 -8 -196.5t-23.5 -191.5t-38.5 -177q54 -52 143 -86.5t199 -34.5q91 0 175.5 24t139.5 63l5 -38h-13l-34 -92q-52 -25 -131.5 -43t-164.5 -18
zM875 0v1206h118v-1206h-118z" />
    <glyph glyph-name="six.gm" unicode="&#xa6c;" horiz-adv-x="1012" 
d="M550 -15q-144 0 -242.5 38.5t-149.5 111t-51 176.5v13q0 81 34.5 144.5t104.5 100t177 37.5l-50 -30v25q-122 4 -187 78t-65 194v5q0 99 47.5 169t140.5 107.5t227 37.5q101 0 189 -23t160 -61l4 -110q-44 26 -102 46.5t-121 32t-123 11.5q-143 0 -221.5 -56t-78.5 -162
v-5q0 -62 22.5 -110t74 -75.5t137.5 -27.5h355v-103h-357q-125 0 -185.5 -60t-60.5 -158v-11q0 -72 37.5 -123t111.5 -78t184 -27q72 0 134.5 12.5t117.5 34t106 48.5l-10 -118q-45 -24 -101 -43t-121 -30t-138 -11zM919 1422q-28 6 -57.5 9t-57.5 3q-77 0 -117 -31.5
t-40 -83.5q0 -56 39.5 -97.5t98.5 -70.5l-113 -22l-2 45q-57 25 -95.5 66t-38.5 112q0 84 64 132t184 48q33 0 64 -2.5t61 -9.5z" />
    <glyph glyph-name="seven.gm" unicode="&#xa6d;" horiz-adv-x="1101" 
d="M127 0l-12 111h153q191 0 324 55.5t203 166.5t70 278v158q0 167 -77.5 260t-240.5 93q-96 0 -167.5 -40t-110.5 -116.5t-39 -188.5v-130h-121v127q0 146 54 246.5t152 153t232 52.5q143 0 241 -55t148 -157.5t50 -247.5v-155q0 -200 -84 -336.5t-243 -205.5t-384 -69
h-148z" />
    <glyph glyph-name="eight.gm" unicode="&#xa6e;" horiz-adv-x="1067" 
d="M659 -19q-170 0 -286.5 59t-176 175.5t-59.5 288.5v686l119 27v-714q0 -206 106.5 -310t311.5 -104q96 0 181 28.5t142 66.5l-12 -122q-49 -31 -136 -56t-190 -25zM200 855v99l767 1v-99z" />
    <glyph glyph-name="nine.gm" unicode="&#xa6f;" horiz-adv-x="1067" 
d="M659 -19q-171 0 -287 59t-175.5 175.5t-59.5 288.5v686l119 27v-714q0 -206 106.5 -310t311.5 -104q96 0 181 28.5t142 66.5l-12 -122q-49 -31 -136 -56t-190 -25zM200 855v99l768 1v-99zM801 908l-2 49q-44 20 -80 47.5t-57.5 67t-21.5 92.5q0 90 65 144.5t192 54.5
q33 0 64.5 -2.5t59.5 -9.5l11 -97q-26 6 -54.5 8.5t-60.5 2.5q-82 0 -123.5 -36.5t-41.5 -95.5q0 -63 47.5 -107.5t121.5 -71.5z" />
    <glyph glyph-name="Khanda.gm" unicode="&#x262c;" horiz-adv-x="1763" 
d="M793 -4l45 198l-176 -142l-111 97l247 103q-65 0 -147 21t-164 64.5t-151.5 110.5t-112 159.5t-42.5 211.5q0 106 39 188t108 131.5t156 56.5q-42 -51 -71.5 -129t-29.5 -193q0 -143 46 -242t117.5 -161.5t150.5 -94t145 -38.5v68l-102 67q36 96 53.5 196.5t17.5 201.5
q0 108 -21 216.5t-62 213.5l160 148l153 -148q-39 -105 -58.5 -212.5t-19.5 -214.5q0 -101 17 -202t53 -199l-116 -72v-63q67 7 146.5 38.5t151.5 94t118.5 161.5t46.5 242q0 115 -29.5 193t-71.5 129q88 -7 156 -56.5t107.5 -131.5t39.5 -188q0 -119 -43 -211.5
t-113 -159.5t-153 -110.5t-164.5 -64.5t-147.5 -21l249 -103l-112 -97l-177 142l47 -198h-175zM886 531q-180 0 -285.5 96t-105.5 262q0 167 105.5 261.5t285.5 94.5q178 0 283.5 -94.5t105.5 -261.5q0 -166 -105.5 -262t-283.5 -96zM886 575q123 0 181 80.5t58 233.5
t-58 233t-181 80q-125 0 -183 -80t-58 -233t58 -233.5t183 -80.5z" />
    <glyph glyph-name="AddakBindi.gm" unicode="&#xa01;" 
d="M335 1577q-40 0 -58 21t-18 57v8q0 36 18 57t58 21q39 0 57 -21t18 -57v-8q0 -36 -17.5 -57t-57.5 -21zM335 1372q-131 0 -196.5 74t-66.5 224h76q5 -95 51.5 -146t134.5 -51q86 0 132.5 51t52.5 146h75q0 -150 -65 -224t-194 -74z" />
    <glyph glyph-name="Bindi.gm" unicode="&#xa02;" 
d="M339 1449q-46 0 -66.5 24t-20.5 65v9q0 41 20.5 65t66.5 24q45 0 65.5 -24t20.5 -65v-9q0 -42 -20.5 -65.5t-65.5 -23.5z" />
    <glyph glyph-name="Nukta.gm" unicode="&#xa3c;" 
d="M-302 -235q-39 0 -59.5 22.5t-20.5 64.5v10q0 42 20.5 64t59.5 22q41 0 61.5 -22t20.5 -64v-10q0 -42 -20.5 -64.5t-61.5 -22.5z" />
    <glyph glyph-name="MatraU.gm" unicode="&#xa41;" 
d="M130 -325q-100 0 -195 20.5t-162 58.5l-7 99q72 -37 170 -58t200 -21t197 21t165 58l-7 -99q-69 -38 -165 -58.5t-196 -20.5z" />
    <glyph glyph-name="MatraUu.gm" unicode="&#xa42;" 
d="M130 -275q-102 1 -197 20.5t-161 55.5l-7 91q70 -36 168.5 -56t201.5 -20q105 0 200 20.5t163 55.5l-7 -91q-67 -35 -163.5 -55t-197.5 -21zM129 -511q-101 0 -196 19.5t-162 55.5l-6 91q69 -35 167.5 -56t202.5 -21t199 21t163 56l-6 -91q-68 -36 -164 -55.5t-198 -19.5
z" />
    <glyph glyph-name="MatraEe.gm" unicode="&#xa47;" 
d="M321 1188l-2 12q-20 101 -56 173t-94 119t-143.5 69.5t-205.5 22.5q-25 0 -54 -1.5t-59.5 -3.5t-61.5 -6l11 109q45 5 83.5 7.5t82.5 2.5q179 0 295.5 -49.5t182.5 -160.5t91 -294h-70z" />
    <glyph glyph-name="MatraAi.gm" unicode="&#xa48;" 
d="M333 1192l-12 134l10 3q-12 92 -43 162.5t-87 118.5t-143 72.5t-211 24.5q-53 0 -120.5 -6t-139.5 -17l10 104q75 11 135 16.5t110 5.5q190 0 308.5 -54.5t175.5 -167.5t62 -286l3 -110h-58zM315 1192l-1 17q-4 64 -46 112.5t-129.5 76t-227.5 27.5q-34 0 -71.5 -2
t-79.5 -6t-91 -10l11 104q63 8 120 13t98 5q153 0 250.5 -38.5t147 -108t57.5 -161.5l3 -29h-41z" />
    <glyph glyph-name="MatraOo.gm" unicode="&#xa4b;" 
d="M318 1195q-2 88 -25 138t-72.5 74t-129.5 31l-157 14q-90 7 -151 35t-91.5 83t-30.5 141v60h67q2 -78 27.5 -122t73 -64.5t113.5 -26.5l156 -14q101 -9 166 -38t96.5 -88.5t31.5 -159.5q0 -14 -1 -30t-2 -33h-71z" />
    <glyph glyph-name="MatraAu.gm" unicode="&#xa4c;" 
d="M141 1329q-22 29 -34.5 61t-12.5 68q0 56 31.5 99t85.5 62l-2 15q26 18 59.5 26.5t71.5 8.5q116 0 181 -55.5t65 -147.5q0 -40 -12 -74t-35 -63h-80q14 24 22.5 50.5t8.5 56.5q0 62 -40.5 97t-109.5 35q-67 0 -108.5 -36t-41.5 -96q0 -30 8.5 -56.5t21.5 -50.5h-79z
M18 1569q-64 0 -114 20.5t-79 67.5t-30 126l-2 52h74q2 -67 28 -103.5t71.5 -50t107.5 -13.5l266 1l-31 -77l-135 -1l-4 5q-29 -12 -65.5 -19.5t-86.5 -7.5z" />
    <glyph glyph-name="Virama.gm" unicode="&#xa4d;" 
d="M567 -472l-257 338h129l244 -339z" />
    <glyph glyph-name="Virama.gm.alt" 
d="M396 -988l-202 266h114l191 -266h-103z" />
    <glyph glyph-name="Udaat.gm" unicode="&#xa51;" 
d="M681 -477q-117 0 -202.5 39t-131.5 115.5t-46 188.5h118q0 -81 32.5 -135t91 -81.5t138.5 -27.5v-99z" />
    <glyph glyph-name="Tippi.gm" unicode="&#xa70;" 
d="M147 1351q-22 29 -35.5 65.5t-13.5 73.5q0 93 66.5 148t179.5 55q114 0 179.5 -55t65.5 -148q-1 -37 -14 -73.5t-34 -65.5h-77q14 25 22.5 53.5t8.5 55.5q0 64 -39.5 101.5t-111.5 37.5q-71 0 -111.5 -37.5t-40.5 -101.5q0 -26 8.5 -55t22.5 -54h-76z" />
    <glyph glyph-name="Addak.gm" unicode="&#xa71;" 
d="M335 1372q-131 0 -196.5 74t-66.5 224h76q5 -95 51.5 -146t134.5 -51q86 0 132.5 51t52.5 146h75q0 -150 -65 -224t-194 -74z" />
    <glyph glyph-name="Yakash.gm" unicode="&#xa75;" 
d="M585 -466q-142 0 -212.5 68.5t-70.5 198.5v222h118v-222q0 -82 44 -124t124 -42q77 0 119.5 42.5t42.5 125.5h106q0 -132 -68 -200.5t-203 -68.5z" />
    <glyph glyph-name="AddakBindi.gm.alt" 
d="M180 1398q-93 0 -140 53t-47 158h65q5 -52 34 -84t88 -32q58 0 87 32t34 84h66q0 -105 -47 -158t-140 -53zM180 1556q-29 0 -41 14t-12 40v6q0 25 12 39t41 14q28 0 40 -14t12 -39v-6q0 -26 -12 -40t-40 -14z" />
    <glyph glyph-name="Addak.gm.alt" 
d="M183 1393q-95 0 -143 54.5t-48 162.5h64q5 -58 36 -90t90 -32t89.5 32t35.5 90h64q-1 -108 -48.5 -162.5t-139.5 -54.5z" />
    <glyph glyph-name="Bindi.gm.alt" 
d="M115 1447q-41 0 -59.5 22t-18.5 59v8q0 37 18.5 59t59.5 22q40 0 59.5 -21.5t19.5 -59.5v-8q0 -37 -19 -59t-60 -22z" />
    <glyph glyph-name="MatraAi.gm.alt" 
d="M344 1193l-9 128l9 2q-15 123 -56 209.5t-120.5 133t-213.5 46.5q-44 0 -93 -6t-102 -18l5 99q55 12 99.5 17.5t87.5 5.5q154 0 249 -55t140.5 -167.5t51.5 -285.5l4 -109h-52zM321 1193l-1 14q-5 98 -79 159.5t-236 61.5q-47 0 -88 -5t-93 -13l5 98q44 8 84.5 13t81.5 5
q123 0 200 -37t116 -103.5t45 -158.5l3 -34h-38z" />
    <glyph glyph-name="MatraAiAddak.gm" 
d="M333 1192l-12 134l10 3q-12 92 -43 162.5t-87 118.5t-143 72.5t-211 24.5q-53 0 -120.5 -6t-139.5 -17l10 104q75 11 135 16.5t110 5.5q190 0 308.5 -54.5t175.5 -167.5t62 -286l3 -110h-58zM315 1192l-1 17q-4 64 -46 112.5t-129.5 76t-227.5 27.5q-34 0 -71.5 -2
t-79.5 -6t-91 -10l11 104q63 8 120 13t98 5q153 0 250.5 -38.5t147 -108t57.5 -161.5l3 -29h-41zM511 1579q-95 0 -143 54.5t-48 162.5h64q5 -58 36 -90t90 -32t89.5 32t35.5 90h64q-1 -108 -48.5 -162.5t-139.5 -54.5z" />
    <glyph glyph-name="MatraAiAddak.gm.alt" 
d="M344 1193l-9 128l9 2q-15 123 -56 209.5t-120.5 133t-213.5 46.5q-44 0 -93 -6t-102 -18l5 99q55 12 99.5 17.5t87.5 5.5q154 0 249 -55t140.5 -167.5t51.5 -285.5l4 -109h-52zM321 1193l-1 14q-5 98 -79 159.5t-236 61.5q-47 0 -88 -5t-93 -13l5 98q44 8 84.5 13t81.5 5
q123 0 200 -37t116 -103.5t45 -158.5l3 -34h-38zM529 1579q-95 0 -143 54.5t-48 162.5h64q5 -58 36 -90t90 -32t89.5 32t35.5 90h64q-1 -108 -48.5 -162.5t-139.5 -54.5z" />
    <glyph glyph-name="MatraAiAddakBindi.gm" 
d="M333 1192l-12 134l10 3q-12 92 -43 162.5t-87 118.5t-143 72.5t-211 24.5q-53 0 -120.5 -6t-139.5 -17l10 104q75 11 135 16.5t110 5.5q190 0 308.5 -54.5t175.5 -167.5t62 -286l3 -110h-58zM315 1192l-1 17q-4 64 -46 112.5t-129.5 76t-227.5 27.5q-34 0 -71.5 -2
t-79.5 -6t-91 -10l11 104q63 8 120 13t98 5q153 0 250.5 -38.5t147 -108t57.5 -161.5l3 -29h-41zM508 1584q-93 0 -140 53t-47 158h65q5 -52 34 -84t88 -32q58 0 87 32t34 84h66q0 -105 -47 -158t-140 -53zM508 1742q-29 0 -41 14t-12 40v6q0 25 12 39t41 14q28 0 40 -14
t12 -39v-6q0 -26 -12 -40t-40 -14z" />
    <glyph glyph-name="MatraAiAddakBindi.gm.alt" 
d="M344 1193l-9 128l9 2q-15 123 -56 209.5t-120.5 133t-213.5 46.5q-44 0 -93 -6t-102 -18l5 99q55 12 99.5 17.5t87.5 5.5q154 0 249 -55t140.5 -167.5t51.5 -285.5l4 -109h-52zM321 1193l-1 14q-5 98 -79 159.5t-236 61.5q-47 0 -88 -5t-93 -13l5 98q44 8 84.5 13t81.5 5
q123 0 200 -37t116 -103.5t45 -158.5l3 -34h-38zM526 1584q-93 0 -140 53t-47 158h65q5 -52 34 -84t88 -32q58 0 87 32t34 84h66q0 -105 -47 -158t-140 -53zM526 1742q-29 0 -41 14t-12 40v6q0 25 12 39t41 14q28 0 40 -14t12 -39v-6q0 -26 -12 -40t-40 -14z" />
    <glyph glyph-name="MatraAiBindi.gm" 
d="M333 1192l-12 134l10 3q-12 92 -43 162.5t-87 118.5t-143 72.5t-211 24.5q-53 0 -120.5 -6t-139.5 -17l10 104q75 11 135 16.5t110 5.5q190 0 308.5 -54.5t175.5 -167.5t62 -286l3 -110h-58zM315 1192l-1 17q-4 64 -46 112.5t-129.5 76t-227.5 27.5q-34 0 -71.5 -2
t-79.5 -6t-91 -10l11 104q63 8 120 13t98 5q153 0 250.5 -38.5t147 -108t57.5 -161.5l3 -29h-41zM420 1644q-41 0 -59.5 22t-18.5 59v8q0 37 18.5 59t59.5 22q40 0 59.5 -21.5t19.5 -59.5v-8q0 -37 -19 -59t-60 -22z" />
    <glyph glyph-name="MatraAiBindi.gm.alt" 
d="M344 1193l-9 128l9 2q-15 123 -56 209.5t-120.5 133t-213.5 46.5q-44 0 -93 -6t-102 -18l5 99q55 12 99.5 17.5t87.5 5.5q154 0 249 -55t140.5 -167.5t51.5 -285.5l4 -109h-52zM321 1193l-1 14q-5 98 -79 159.5t-236 61.5q-47 0 -88 -5t-93 -13l5 98q44 8 84.5 13t81.5 5
q123 0 200 -37t116 -103.5t45 -158.5l3 -34h-38zM437 1644q-41 0 -59.5 22t-18.5 59v8q0 37 18.5 59t59.5 22q40 0 59.5 -21.5t19.5 -59.5v-8q0 -37 -19 -59t-60 -22z" />
    <glyph glyph-name="MatraAu.gm.alt" 
d="M159 1351q-21 28 -32.5 59.5t-11.5 67.5q0 56 30 98.5t80 61.5l-1 14q25 18 56.5 26t62.5 8q108 0 169 -54.5t61 -146.5q0 -38 -11.5 -72t-34.5 -62h-77q14 23 21.5 49.5t7.5 55.5q0 61 -35 95.5t-100 34.5q-61 0 -99 -35.5t-38 -94.5q0 -29 8.5 -55.5t21.5 -49.5h-78z
M75 1590q-89 0 -142.5 47t-60.5 158l-3 57h75q4 -67 28 -103.5t66 -50t99 -13.5l206 1l-27 -78l-117 3l-6 2q-21 -10 -49.5 -16.5t-68.5 -6.5z" />
    <glyph glyph-name="MatraAuAddak.gm" 
d="M141 1329q-22 29 -34.5 61t-12.5 68q0 56 31.5 99t85.5 62l-2 15q26 18 59.5 26.5t71.5 8.5q116 0 181 -55.5t65 -147.5q0 -40 -12 -74t-35 -63h-80q14 24 22.5 50.5t8.5 56.5q0 62 -40.5 97t-109.5 35q-67 0 -108.5 -36t-41.5 -96q0 -30 8.5 -56.5t21.5 -50.5h-79z
M18 1569q-64 0 -114 20.5t-79 67.5t-30 126l-2 52h74q2 -67 28 -103.5t71.5 -50t107.5 -13.5l266 1l-31 -77l-135 -1l-4 5q-29 -12 -65.5 -19.5t-86.5 -7.5zM675 1645q-95 0 -143 54.5t-48 162.5h64q5 -58 36 -90t90 -32t89.5 32t35.5 90h64q-1 -108 -48.5 -162.5
t-139.5 -54.5z" />
    <glyph glyph-name="MatraAuAddak.gm.alt" 
d="M159 1351q-21 28 -32.5 59.5t-11.5 67.5q0 56 30 98.5t80 61.5l-1 14q25 18 56.5 26t62.5 8q108 0 169 -54.5t61 -146.5q0 -38 -11.5 -72t-34.5 -62h-77q14 23 21.5 49.5t7.5 55.5q0 61 -35 95.5t-100 34.5q-61 0 -99 -35.5t-38 -94.5q0 -29 8.5 -55.5t21.5 -49.5h-78z
M75 1590q-89 0 -142.5 47t-60.5 158l-3 57h75q4 -67 28 -103.5t66 -50t99 -13.5l206 1l-27 -78l-117 3l-6 2q-21 -10 -49.5 -16.5t-68.5 -6.5zM671 1645q-95 0 -143 54.5t-48 162.5h64q5 -58 36 -90t90 -32t89.5 32t35.5 90h64q-1 -108 -48.5 -162.5t-139.5 -54.5z" />
    <glyph glyph-name="MatraAuAddakBindi.gm" 
d="M141 1329q-22 29 -34.5 61t-12.5 68q0 56 31.5 99t85.5 62l-2 15q26 18 59.5 26.5t71.5 8.5q116 0 181 -55.5t65 -147.5q0 -40 -12 -74t-35 -63h-80q14 24 22.5 50.5t8.5 56.5q0 62 -40.5 97t-109.5 35q-67 0 -108.5 -36t-41.5 -96q0 -30 8.5 -56.5t21.5 -50.5h-79z
M18 1569q-64 0 -114 20.5t-79 67.5t-30 126l-2 52h74q2 -67 28 -103.5t71.5 -50t107.5 -13.5l266 1l-31 -77l-135 -1l-4 5q-29 -12 -65.5 -19.5t-86.5 -7.5zM672 1650q-93 0 -140 53t-47 158h65q5 -52 34 -84t88 -32q58 0 87 32t34 84h66q0 -105 -47 -158t-140 -53z
M672 1808q-29 0 -41 14t-12 40v6q0 25 12 39t41 14q28 0 40 -14t12 -39v-6q0 -26 -12 -40t-40 -14z" />
    <glyph glyph-name="MatraAuAddakBindi.gm.alt" 
d="M159 1351q-21 28 -32.5 59.5t-11.5 67.5q0 56 30 98.5t80 61.5l-1 14q25 18 56.5 26t62.5 8q108 0 169 -54.5t61 -146.5q0 -38 -11.5 -72t-34.5 -62h-77q14 23 21.5 49.5t7.5 55.5q0 61 -35 95.5t-100 34.5q-61 0 -99 -35.5t-38 -94.5q0 -29 8.5 -55.5t21.5 -49.5h-78z
M75 1590q-89 0 -142.5 47t-60.5 158l-3 57h75q4 -67 28 -103.5t66 -50t99 -13.5l206 1l-27 -78l-117 3l-6 2q-21 -10 -49.5 -16.5t-68.5 -6.5zM668 1650q-93 0 -140 53t-47 158h65q5 -52 34 -84t88 -32q58 0 87 32t34 84h66q0 -105 -47 -158t-140 -53zM668 1808
q-29 0 -41 14t-12 40v6q0 25 12 39t41 14q28 0 40 -14t12 -39v-6q0 -26 -12 -40t-40 -14z" />
    <glyph glyph-name="MatraAuBindi.gm" 
d="M141 1329q-22 29 -34.5 61t-12.5 68q0 56 31.5 99t85.5 62l-2 15q26 18 59.5 26.5t71.5 8.5q116 0 181 -55.5t65 -147.5q0 -40 -12 -74t-35 -63h-80q14 24 22.5 50.5t8.5 56.5q0 62 -40.5 97t-109.5 35q-67 0 -108.5 -36t-41.5 -96q0 -30 8.5 -56.5t21.5 -50.5h-79z
M18 1569q-64 0 -114 20.5t-79 67.5t-30 126l-2 52h74q2 -67 28 -103.5t71.5 -50t107.5 -13.5l266 1l-31 -77l-135 -1l-4 5q-29 -12 -65.5 -19.5t-86.5 -7.5zM584 1709q-41 0 -59.5 22t-18.5 59v8q0 37 18.5 59t59.5 22q40 0 59.5 -21.5t19.5 -59.5v-8q0 -37 -19 -59t-60 -22
z" />
    <glyph glyph-name="MatraAuBindi.gm.alt" 
d="M159 1351q-21 28 -32.5 59.5t-11.5 67.5q0 56 30 98.5t80 61.5l-1 14q25 18 56.5 26t62.5 8q108 0 169 -54.5t61 -146.5q0 -38 -11.5 -72t-34.5 -62h-77q14 23 21.5 49.5t7.5 55.5q0 61 -35 95.5t-100 34.5q-61 0 -99 -35.5t-38 -94.5q0 -29 8.5 -55.5t21.5 -49.5h-78z
M75 1590q-89 0 -142.5 47t-60.5 158l-3 57h75q4 -67 28 -103.5t66 -50t99 -13.5l206 1l-27 -78l-117 3l-6 2q-21 -10 -49.5 -16.5t-68.5 -6.5zM579 1709q-41 0 -59.5 22t-18.5 59v8q0 37 18.5 59t59.5 22q40 0 59.5 -21.5t19.5 -59.5v-8q0 -37 -19 -59t-60 -22z" />
    <glyph glyph-name="MatraEe.gm.alt" 
d="M321 1188l-2 12q-26 135 -66 221t-109.5 127.5t-186.5 41.5q-19 0 -41.5 -1t-46 -3.5t-47.5 -6.5l8 103q36 6 65.5 8.5t63.5 2.5q101 0 174 -26.5t123.5 -86t83 -156t52.5 -236.5h-71z" />
    <glyph glyph-name="MatraEeAddak.gm" 
d="M321 1188l-2 12q-20 101 -56 173t-94 119t-143.5 69.5t-205.5 22.5q-25 0 -54 -1.5t-59.5 -3.5t-61.5 -6l11 109q45 5 83.5 7.5t82.5 2.5q179 0 295.5 -49.5t182.5 -160.5t91 -294h-70zM430 1554q-95 0 -143 54.5t-48 162.5h64q5 -58 36 -90t90 -32t89.5 32t35.5 90h64
q-1 -108 -48.5 -162.5t-139.5 -54.5z" />
    <glyph glyph-name="MatraEeAddak.gm.alt" 
d="M321 1188l-2 12q-26 135 -66 221t-109.5 127.5t-186.5 41.5q-19 0 -41.5 -1t-46 -3.5t-47.5 -6.5l8 103q36 6 65.5 8.5t63.5 2.5q101 0 174 -26.5t123.5 -86t83 -156t52.5 -236.5h-71zM440 1554q-95 0 -143 54.5t-48 162.5h64q5 -58 36 -90t90 -32t89.5 32t35.5 90h64
q-1 -108 -48.5 -162.5t-139.5 -54.5z" />
    <glyph glyph-name="MatraEeAddakBindi.gm" 
d="M321 1188l-2 12q-20 101 -56 173t-94 119t-143.5 69.5t-205.5 22.5q-25 0 -54 -1.5t-59.5 -3.5t-61.5 -6l11 109q45 5 83.5 7.5t82.5 2.5q179 0 295.5 -49.5t182.5 -160.5t91 -294h-70zM427 1559q-93 0 -140 53t-47 158h65q5 -52 34 -84t88 -32q58 0 87 32t34 84h66
q0 -105 -47 -158t-140 -53zM427 1717q-29 0 -41 14t-12 40v6q0 25 12 39t41 14q28 0 40 -14t12 -39v-6q0 -26 -12 -40t-40 -14z" />
    <glyph glyph-name="MatraEeAddakBindi.gm.alt" 
d="M321 1188l-2 12q-26 135 -66 221t-109.5 127.5t-186.5 41.5q-19 0 -41.5 -1t-46 -3.5t-47.5 -6.5l8 103q36 6 65.5 8.5t63.5 2.5q101 0 174 -26.5t123.5 -86t83 -156t52.5 -236.5h-71zM437 1559q-93 0 -140 53t-47 158h65q5 -52 34 -84t88 -32q58 0 87 32t34 84h66
q0 -105 -47 -158t-140 -53zM437 1717q-29 0 -41 14t-12 40v6q0 25 12 39t41 14q28 0 40 -14t12 -39v-6q0 -26 -12 -40t-40 -14z" />
    <glyph glyph-name="MatraEeBindi.gm" 
d="M321 1188l-2 12q-20 101 -56 173t-94 119t-143.5 69.5t-205.5 22.5q-25 0 -54 -1.5t-59.5 -3.5t-61.5 -6l11 109q45 5 83.5 7.5t82.5 2.5q179 0 295.5 -49.5t182.5 -160.5t91 -294h-70zM338 1618q-41 0 -59.5 22t-18.5 59v8q0 37 18.5 59t59.5 22q40 0 59.5 -21.5
t19.5 -59.5v-8q0 -37 -19 -59t-60 -22z" />
    <glyph glyph-name="MatraEeBindi.gm.alt" 
d="M321 1188l-2 12q-26 135 -66 221t-109.5 127.5t-186.5 41.5q-19 0 -41.5 -1t-46 -3.5t-47.5 -6.5l8 103q36 6 65.5 8.5t63.5 2.5q101 0 174 -26.5t123.5 -86t83 -156t52.5 -236.5h-71zM348 1618q-41 0 -59.5 22t-18.5 59v8q0 37 18.5 59t59.5 22q40 0 59.5 -21.5
t19.5 -59.5v-8q0 -37 -19 -59t-60 -22z" />
    <glyph glyph-name="MatraOo.gm.alt" 
d="M323 1198q-2 86 -22 135t-61.5 73t-110.5 32l-62 7q-84 10 -140 39t-84.5 83.5t-28.5 141.5v60h67q1 -78 24.5 -123t65.5 -66t101 -29l62 -6q94 -12 151.5 -43.5t84.5 -92t27 -160.5q0 -11 -1 -23.5t-3 -27.5h-70z" />
    <glyph glyph-name="MatraOoAddak.gm" 
d="M318 1195q-2 88 -25 138t-72.5 74t-129.5 31l-157 14q-90 7 -151 35t-91.5 83t-30.5 141v60h67q2 -78 27.5 -122t73 -64.5t113.5 -26.5l156 -14q101 -9 166 -38t96.5 -88.5t31.5 -159.5q0 -14 -1 -30t-2 -33h-71zM459 1558q-95 0 -143 54.5t-48 162.5h64q5 -58 36 -90
t90 -32t89.5 32t35.5 90h64q-1 -108 -48.5 -162.5t-139.5 -54.5z" />
    <glyph glyph-name="MatraOoAddak.gm.alt" 
d="M323 1198q-2 86 -22 135t-61.5 73t-110.5 32l-62 7q-84 10 -140 39t-84.5 83.5t-28.5 141.5v60h67q1 -78 24.5 -123t65.5 -66t101 -29l62 -6q94 -12 151.5 -43.5t84.5 -92t27 -160.5q0 -11 -1 -23.5t-3 -27.5h-70zM459 1558q-95 0 -143 54.5t-48 162.5h64q5 -58 36 -90
t90 -32t89.5 32t35.5 90h64q-1 -108 -48.5 -162.5t-139.5 -54.5z" />
    <glyph glyph-name="MatraOoAddakBindi.gm" 
d="M318 1195q-2 88 -25 138t-72.5 74t-129.5 31l-157 14q-90 7 -151 35t-91.5 83t-30.5 141v60h67q2 -78 27.5 -122t73 -64.5t113.5 -26.5l156 -14q101 -9 166 -38t96.5 -88.5t31.5 -159.5q0 -14 -1 -30t-2 -33h-71zM456 1563q-93 0 -140 53t-47 158h65q5 -52 34 -84t88 -32
q58 0 87 32t34 84h66q0 -105 -47 -158t-140 -53zM456 1721q-29 0 -41 14t-12 40v6q0 25 12 39t41 14q28 0 40 -14t12 -39v-6q0 -26 -12 -40t-40 -14z" />
    <glyph glyph-name="MatraOoAddakBindi.gm.alt" 
d="M323 1198q-2 86 -22 135t-61.5 73t-110.5 32l-62 7q-84 10 -140 39t-84.5 83.5t-28.5 141.5v60h67q1 -78 24.5 -123t65.5 -66t101 -29l62 -6q94 -12 151.5 -43.5t84.5 -92t27 -160.5q0 -11 -1 -23.5t-3 -27.5h-70zM456 1563q-93 0 -140 53t-47 158h65q5 -52 34 -84
t88 -32q58 0 87 32t34 84h66q0 -105 -47 -158t-140 -53zM456 1721q-29 0 -41 14t-12 40v6q0 25 12 39t41 14q28 0 40 -14t12 -39v-6q0 -26 -12 -40t-40 -14z" />
    <glyph glyph-name="MatraOoBindi.gm" 
d="M318 1195q-2 88 -25 138t-72.5 74t-129.5 31l-157 14q-90 7 -151 35t-91.5 83t-30.5 141v60h67q2 -78 27.5 -122t73 -64.5t113.5 -26.5l156 -14q101 -9 166 -38t96.5 -88.5t31.5 -159.5q0 -14 -1 -30t-2 -33h-71zM367 1622q-41 0 -59.5 22t-18.5 59v8q0 37 18.5 59
t59.5 22q40 0 59.5 -21.5t19.5 -59.5v-8q0 -37 -19 -59t-60 -22z" />
    <glyph glyph-name="MatraOoBindi.gm.alt" 
d="M323 1198q-2 86 -22 135t-61.5 73t-110.5 32l-62 7q-84 10 -140 39t-84.5 83.5t-28.5 141.5v60h67q1 -78 24.5 -123t65.5 -66t101 -29l62 -6q94 -12 151.5 -43.5t84.5 -92t27 -160.5q0 -11 -1 -23.5t-3 -27.5h-70zM367 1622q-41 0 -59.5 22t-18.5 59v8q0 37 18.5 59
t59.5 22q40 0 59.5 -21.5t19.5 -59.5v-8q0 -37 -19 -59t-60 -22z" />
    <glyph glyph-name="MatraU.gm.alt" 
d="M90 -897q-81 0 -158.5 16t-134.5 45l-5 92q57 -28 138.5 -45t164.5 -17t161 17t135 45l-5 -92q-57 -28 -134.5 -44.5t-161.5 -16.5z" />
    <glyph glyph-name="MatraUu.gm.alt" 
d="M83 -851q-81 0 -158.5 16.5t-134.5 45.5l-5 80q56 -29 138 -45.5t164 -16.5q84 0 162 16.5t135 45.5l-6 -80q-56 -28 -134 -45t-161 -17zM82 -1048q-80 0 -158 16.5t-134 45.5l-5 80q56 -28 137.5 -45t164.5 -17t161.5 17t134.5 45l-5 -80q-57 -29 -134.5 -45.5
t-161.5 -16.5z" />
    <glyph glyph-name="AddakBindiDist.gm" 
d="M335 1577q-40 0 -58 21t-18 57v8q0 36 18 57t58 21q39 0 57 -21t18 -57v-8q0 -36 -17.5 -57t-57.5 -21zM335 1372q-131 0 -196.5 74t-66.5 224h76q5 -95 51.5 -146t134.5 -51q86 0 132.5 51t52.5 146h75q0 -150 -65 -224t-194 -74z" />
    <glyph glyph-name="AddakDist.gm" 
d="M335 1372q-131 0 -196.5 74t-66.5 224h76q5 -95 51.5 -146t134.5 -51q86 0 132.5 51t52.5 146h75q0 -150 -65 -224t-194 -74z" />
    <glyph glyph-name="TippiDist.gm" 
d="M142 1351q-22 29 -35 65.5t-13 73.5q0 93 66 148t180 55t179 -55t65 -148q-1 -37 -13.5 -73.5t-34.5 -65.5h-77q14 25 22.5 53.5t8.5 55.5q0 64 -39.5 101.5t-110.5 37.5t-112 -37.5t-41 -101.5q0 -26 8.5 -55t22.5 -54h-76z" />
    <glyph glyph-name="PairinHa.gm" 
d="M94 -639q-116 0 -198.5 38.5t-126 105.5t-43.5 151v5q0 108 70 167t193 59h155v-96h-146q-72 0 -112.5 -35t-40.5 -96v-5q0 -89 66.5 -143t179.5 -54q106 0 158.5 46t52.5 137v415l118 3v-414q0 -88 -35.5 -152t-107.5 -98t-183 -34z" />
    <glyph glyph-name="PairinHaMatraU.gm" 
d="M94 -639q-116 0 -198.5 38.5t-126 105.5t-43.5 151v5q0 108 70 167t193 59h155v-96h-146q-72 0 -112.5 -35t-40.5 -96v-5q0 -89 66.5 -143t179.5 -54q106 0 158.5 46t52.5 137v415l118 3v-414q0 -88 -35.5 -152t-107.5 -98t-183 -34zM104 -911q-81 0 -158.5 16t-134.5 45
l-5 92q57 -28 138.5 -45t164.5 -17t161 17t135 45l-5 -92q-57 -28 -134.5 -44.5t-161.5 -16.5z" />
    <glyph glyph-name="PairinHaMatraUu.gm" 
d="M94 -639q-116 0 -198.5 38.5t-126 105.5t-43.5 151v5q0 108 70 167t193 59h155v-96h-146q-72 0 -112.5 -35t-40.5 -96v-5q0 -89 66.5 -143t179.5 -54q106 0 158.5 46t52.5 137v415l118 3v-414q0 -88 -35.5 -152t-107.5 -98t-183 -34zM97 -865q-81 0 -158.5 16.5
t-134.5 45.5l-5 80q56 -29 138 -45.5t164 -16.5q84 0 162 16.5t135 45.5l-6 -80q-56 -28 -134 -45t-161 -17zM96 -1062q-80 0 -158 16.5t-134 45.5l-5 80q56 -28 137.5 -45t164.5 -17t161.5 17t134.5 45l-5 -80q-57 -29 -134.5 -45.5t-161.5 -16.5z" />
    <glyph glyph-name="PairinHaVirama.gm" 
d="M94 -639q-116 0 -198.5 38.5t-126 105.5t-43.5 151v5q0 108 70 167t193 59h155v-96h-146q-72 0 -112.5 -35t-40.5 -96v-5q0 -89 66.5 -143t179.5 -54q106 0 158.5 46t52.5 137v415l118 3v-414q0 -88 -35.5 -152t-107.5 -98t-183 -34zM310 -1002l-202 266h114l191 -266
h-103z" />
    <glyph glyph-name="PairinRa.gm" 
d="M708 -578q-41 34 -94.5 73t-113 79t-118 76t-110.5 63l54 77q67 -37 133 -78t126 -83.5t109 -82.5zM-76 -295l5 105h372l-32 -35q16 32 24.5 83t8.5 115v58l118 3v-66q0 -68 -12.5 -125.5t-37.5 -96.5l-57 -41h-389z" />
    <glyph glyph-name="PairinRaMatraU.gm" 
d="M708 -578q-41 34 -94.5 73t-113 79t-118 76t-110.5 63l54 77q67 -37 133 -78t126 -83.5t109 -82.5zM-76 -295l5 105h372l-32 -35q16 32 24.5 83t8.5 115v58l118 3v-66q0 -68 -12.5 -125.5t-37.5 -96.5l-57 -41h-389zM104 -625q-81 0 -158.5 16t-134.5 45l-5 92
q57 -28 138.5 -45t164.5 -17t161 17t135 45l-5 -92q-57 -28 -134.5 -44.5t-161.5 -16.5z" />
    <glyph glyph-name="PairinRaMatraUu.gm" 
d="M708 -578q-41 34 -94.5 73t-113 79t-118 76t-110.5 63l54 77q67 -37 133 -78t126 -83.5t109 -82.5zM-76 -295l5 105h372l-32 -35q16 32 24.5 83t8.5 115v58l118 3v-66q0 -68 -12.5 -125.5t-37.5 -96.5l-57 -41h-389zM97 -579q-81 0 -158.5 16.5t-134.5 45.5l-5 80
q56 -29 138 -45.5t164 -16.5q84 0 162 16.5t135 45.5l-6 -80q-56 -28 -134 -45t-161 -17zM96 -776q-80 0 -158 16.5t-134 45.5l-5 80q56 -28 137.5 -45t164.5 -17t161.5 17t134.5 45l-5 -80q-57 -29 -134.5 -45.5t-161.5 -16.5z" />
    <glyph glyph-name="PairinRaVirama.gm" 
d="M708 -578q-41 34 -94.5 73t-113 79t-118 76t-110.5 63l54 77q67 -37 133 -78t126 -83.5t109 -82.5zM-76 -295l5 105h372l-32 -35q16 32 24.5 83t8.5 115v58l118 3v-66q0 -68 -12.5 -125.5t-37.5 -96.5l-57 -41h-389zM310 -716l-202 266h114l191 -266h-103z" />
    <glyph glyph-name="UdaatMatraU.gm" 
d="M681 -477q-117 0 -202.5 39t-131.5 115.5t-46 188.5h118q0 -81 32.5 -135t91 -81.5t138.5 -27.5v-99zM104 -715q-81 0 -158.5 16t-134.5 45l-5 92q57 -28 138.5 -45t164.5 -17t161 17t135 45l-5 -92q-57 -28 -134.5 -44.5t-161.5 -16.5z" />
    <glyph glyph-name="UdaatMatraUu.gm" 
d="M681 -477q-117 0 -202.5 39t-131.5 115.5t-46 188.5h118q0 -81 32.5 -135t91 -81.5t138.5 -27.5v-99zM97 -669q-81 0 -158.5 16.5t-134.5 45.5l-5 80q56 -29 138 -45.5t164 -16.5q84 0 162 16.5t135 45.5l-6 -80q-56 -28 -134 -45t-161 -17zM96 -866q-80 0 -158 16.5
t-134 45.5l-5 80q56 -28 137.5 -45t164.5 -17t161.5 17t134.5 45l-5 -80q-57 -29 -134.5 -45.5t-161.5 -16.5z" />
    <glyph glyph-name="UdaatVirama.gm" 
d="M681 -477q-117 0 -202.5 39t-131.5 115.5t-46 188.5h118q0 -81 32.5 -135t91 -81.5t138.5 -27.5v-99zM310 -806l-202 266h114l191 -266h-103z" />
    <glyph glyph-name="YakashMatraU.gm" 
d="M585 -466q-142 0 -212.5 68.5t-70.5 198.5v222h118v-222q0 -82 44 -124t124 -42q77 0 119.5 42.5t42.5 125.5h106q0 -132 -68 -200.5t-203 -68.5zM104 -715q-81 0 -158.5 16t-134.5 45l-5 92q57 -28 138.5 -45t164.5 -17t161 17t135 45l-5 -92q-57 -28 -134.5 -44.5
t-161.5 -16.5z" />
    <glyph glyph-name="YakashMatraUu.gm" 
d="M585 -466q-142 0 -212.5 68.5t-70.5 198.5v222h118v-222q0 -82 44 -124t124 -42q77 0 119.5 42.5t42.5 125.5h106q0 -132 -68 -200.5t-203 -68.5zM97 -669q-81 0 -158.5 16.5t-134.5 45.5l-5 80q56 -29 138 -45.5t164 -16.5q84 0 162 16.5t135 45.5l-6 -80
q-56 -28 -134 -45t-161 -17zM96 -866q-80 0 -158 16.5t-134 45.5l-5 80q56 -28 137.5 -45t164.5 -17t161.5 17t134.5 45l-5 -80q-57 -29 -134.5 -45.5t-161.5 -16.5z" />
    <glyph glyph-name="YakashVirama.gm" 
d="M585 -466q-142 0 -212.5 68.5t-70.5 198.5v222h118v-222q0 -82 44 -124t124 -42q77 0 119.5 42.5t42.5 125.5h106q0 -132 -68 -200.5t-203 -68.5zM310 -806l-202 266h114l191 -266h-103z" />
    <glyph glyph-name="PairinVa.gm" 
d="M4 -401q-96 0 -148 44t-52 123q0 81 50.5 120.5t144.5 39.5h303v135l118 8v-228h-407q-51 0 -78 -19t-27 -58q0 -40 28 -59.5t79 -19.5h387v-86h-398zM324 -653q-78 0 -142 25.5t-111 88.5t-72 175l108 -4q14 -77 46 -120.5t78 -61t100 -17.5q23 0 50.5 3t56.5 11
l-10 -86q-25 -7 -50 -10.5t-54 -3.5z" />
    <glyph glyph-name="PairinVaMatraU.gm" 
d="M4 -401q-96 0 -148 44t-52 123q0 81 50.5 120.5t144.5 39.5h303v135l118 8v-228h-407q-51 0 -78 -19t-27 -58q0 -40 28 -59.5t79 -19.5h387v-86h-398zM324 -653q-78 0 -142 25.5t-111 88.5t-72 175l108 -4q14 -77 46 -120.5t78 -61t100 -17.5q23 0 50.5 3t56.5 11
l-10 -86q-25 -7 -50 -10.5t-54 -3.5zM104 -911q-81 0 -158.5 16t-134.5 45l-5 92q57 -28 138.5 -45t164.5 -17t161 17t135 45l-5 -92q-57 -28 -134.5 -44.5t-161.5 -16.5z" />
    <glyph glyph-name="PairinVaMatraUu.gm" 
d="M4 -401q-96 0 -148 44t-52 123q0 81 50.5 120.5t144.5 39.5h303v135l118 8v-228h-407q-51 0 -78 -19t-27 -58q0 -40 28 -59.5t79 -19.5h387v-86h-398zM324 -653q-78 0 -142 25.5t-111 88.5t-72 175l108 -4q14 -77 46 -120.5t78 -61t100 -17.5q23 0 50.5 3t56.5 11
l-10 -86q-25 -7 -50 -10.5t-54 -3.5zM97 -865q-81 0 -158.5 16.5t-134.5 45.5l-5 80q56 -29 138 -45.5t164 -16.5q84 0 162 16.5t135 45.5l-6 -80q-56 -28 -134 -45t-161 -17zM96 -1062q-80 0 -158 16.5t-134 45.5l-5 80q56 -28 137.5 -45t164.5 -17t161.5 17t134.5 45
l-5 -80q-57 -29 -134.5 -45.5t-161.5 -16.5z" />
    <glyph glyph-name="PairinVaVirama.gm" 
d="M4 -401q-96 0 -148 44t-52 123q0 81 50.5 120.5t144.5 39.5h303v135l118 8v-228h-407q-51 0 -78 -19t-27 -58q0 -40 28 -59.5t79 -19.5h387v-86h-398zM324 -653q-78 0 -142 25.5t-111 88.5t-72 175l108 -4q14 -77 46 -120.5t78 -61t100 -17.5q23 0 50.5 3t56.5 11
l-10 -86q-25 -7 -50 -10.5t-54 -3.5zM310 -1002l-202 266h114l191 -266h-103z" />
    <glyph glyph-name="MatraEeTa.gm" 
d="M321 1188l-2 12q-20 100 -54.5 172.5t-88 119.5t-133.5 69.5t-193 22.5q-25 0 -54 -1.5t-59.5 -3.5t-61.5 -6l11 109q45 5 83.5 7.5t82.5 2.5q169 0 279.5 -49.5t173 -160.5t86.5 -294h-70z" />
    <glyph glyph-name="ZWJ" unicode="&#x200d;" horiz-adv-x="600" 
 />
    <glyph glyph-name="ZWNJ" unicode="&#x200c;" horiz-adv-x="600" 
 />
    <glyph glyph-name="uni25CC" unicode="&#x25cc;" horiz-adv-x="1154" 
d="M634 947q0 -25 -16 -42t-42 -17q-57 0 -57 59q0 25 16 42.5t41 17.5q26 0 42 -17.5t16 -42.5zM348 805q0 -25 -16 -41.5t-42 -16.5q-58 0 -58 58q0 26 16.5 42.5t41.5 16.5q26 0 42 -16.5t16 -42.5zM920 803q0 -25 -16 -41t-42 -16q-57 0 -57 57q0 26 16 42.5t41 16.5
q26 0 42 -16.5t16 -42.5zM223 512q0 -25 -15.5 -41.5t-41.5 -16.5q-25 0 -41.5 16.5t-16.5 41.5q0 26 16.5 42.5t41.5 16.5q26 0 41.5 -16.5t15.5 -42.5zM1046 512q0 -25 -17 -41.5t-43 -16.5q-24 0 -40.5 16.5t-16.5 41.5q0 26 16.5 42.5t40.5 16.5q26 0 43 -16.5t17 -42.5
zM348 221q0 -25 -16 -41t-42 -16q-58 0 -58 57q0 26 16.5 43t41.5 17q26 0 42 -17t16 -43zM920 221q0 -25 -16 -41t-42 -16q-57 0 -57 57q0 26 16 43t41 17q26 0 42 -17t16 -43zM634 79q0 -27 -16 -43t-42 -16q-57 0 -57 59q0 25 16 41.5t41 16.5q26 0 42 -16.5t16 -41.5z
" />
    </font>
</defs>
</svg>
