<?xml version="1.0" standalone="no"?>
<!DOCTYPE svg PUBLIC "-//W3C//DTD SVG 1.1//EN" "http://www.w3.org/Graphics/SVG/1.1/DTD/svg11.dtd" >
<svg xmlns="http://www.w3.org/2000/svg" xmlns:xlink="http://www.w3.org/1999/xlink" version="1.1">
<metadata>
Created by FontForge 20201107 at Mon Feb 14 15:34:46 2022
 By 
Copyright 2021 The Anek Project Authors (https://github.com/EkType/Anek)
</metadata>
<defs>
<font id="AnekLatin-SemiBold" horiz-adv-x="0" >
  <font-face 
    font-family="Anek Latin SemiBold"
    font-weight="600"
    font-stretch="normal"
    units-per-em="2000"
    panose-1="0 0 0 0 0 0 0 0 0 0"
    ascent="1600"
    descent="-400"
    x-height="981"
    cap-height="1278"
    bbox="-365 -479 2856 2018"
    underline-thickness="50"
    underline-position="-125"
    unicode-range="U+000D-FB02"
  />
<missing-glyph horiz-adv-x="1160" 
d="M185 0v1278h790v-1278h-790zM224 35h712v1208h-712v-1208zM210 0l695 1266h40l-695 -1266h-40zM950 0h-40l-695 1266h40z" />
    <glyph glyph-name="fi" unicode="fi" horiz-adv-x="1242" 
d="M457 1353q78 0 144 -13t117 -32l23 -192q-43 13 -89.5 21.5t-102.5 8.5q-67 0 -105.5 -15t-54.5 -43t-16 -66v-3q0 -27 8 -51t19 -43l-167 -6v27q-46 22 -78 65t-32 107v5q0 106 81.5 168t252.5 62zM157 0v866h255v-866h-255zM15 736v203l248 -2l100 2h376l-22 -203h-702
zM872 0v981h256v-981h-256zM1000 1097q-73 0 -107.5 34.5t-34.5 95.5v5q0 61 34.5 96t107.5 35q72 0 107 -35t35 -96v-5q0 -62 -35 -96t-107 -34z" />
    <glyph glyph-name="fl" unicode="fl" horiz-adv-x="1245" 
d="M457 1353q78 0 144 -13t117 -32l23 -192q-43 13 -89.5 21.5t-102.5 8.5q-67 0 -105.5 -15t-54.5 -43t-16 -66v-3q0 -27 8 -51t19 -43l-167 -6v27q-46 22 -78 65t-32 107v5q0 106 81.5 168t252.5 62zM157 0v866h255v-866h-255zM15 736v203l248 -2l100 2h376l-22 -203h-702
zM874 0v1322h257v-1322h-257z" />
    <glyph glyph-name="f_f" unicode="ff" horiz-adv-x="1401" 
d="M457 1353q78 0 144 -13t117 -32l23 -192q-43 13 -89.5 21.5t-102.5 8.5q-67 0 -105.5 -15t-54.5 -43t-16 -66v-3q0 -27 8 -51t19 -43l-167 -6v27q-46 22 -78 65t-32 107v5q0 106 81.5 168t252.5 62zM157 0v866h255v-866h-255zM15 736v203l248 -2l100 2h376l-22 -203h-702
zM1099 1353q78 0 144 -13t117 -32l23 -192q-43 13 -89.5 21.5t-102.5 8.5q-67 0 -105.5 -15t-54.5 -43t-16 -66v-3q0 -27 8 -51t19 -43l-167 -6v27q-46 22 -78 65t-32 107v5q0 106 81.5 168t252.5 62zM799 0v866h255v-866h-255zM657 736v203l248 -2l100 2h376l-22 -203h-702
z" />
    <glyph glyph-name="f_f_i" unicode="ffi" horiz-adv-x="1883" 
d="M457 1353q78 0 144 -13t117 -32l23 -192q-43 13 -89.5 21.5t-102.5 8.5q-67 0 -105.5 -15t-54.5 -43t-16 -66v-3q0 -27 8 -51t19 -43l-167 -6v27q-46 22 -78 65t-32 107v5q0 106 81.5 168t252.5 62zM157 0v866h255v-866h-255zM15 736v203l248 -2l100 2h376l-22 -203h-702
zM1099 1353q78 0 144 -13t117 -32l23 -192q-43 13 -89.5 21.5t-102.5 8.5q-67 0 -105.5 -15t-54.5 -43t-16 -66v-3q0 -27 8 -51t19 -43l-167 -6v27q-46 22 -78 65t-32 107v5q0 106 81.5 168t252.5 62zM799 0v866h255v-866h-255zM657 736v203l248 -2l100 2h376l-22 -203h-702
zM1514 0v981h256v-981h-256zM1642 1097q-73 0 -107.5 34.5t-34.5 95.5v5q0 61 34.5 96t107.5 35q72 0 107 -35t35 -96v-5q0 -62 -35 -96t-107 -34z" />
    <glyph glyph-name="f_f_l" unicode="ffl" horiz-adv-x="1886" 
d="M457 1353q78 0 144 -13t117 -32l23 -192q-43 13 -89.5 21.5t-102.5 8.5q-67 0 -105.5 -15t-54.5 -43t-16 -66v-3q0 -27 8 -51t19 -43l-167 -6v27q-46 22 -78 65t-32 107v5q0 106 81.5 168t252.5 62zM157 0v866h255v-866h-255zM15 736v203l248 -2l100 2h376l-22 -203h-702
zM1099 1353q78 0 144 -13t117 -32l23 -192q-43 13 -89.5 21.5t-102.5 8.5q-67 0 -105.5 -15t-54.5 -43t-16 -66v-3q0 -27 8 -51t19 -43l-167 -6v27q-46 22 -78 65t-32 107v5q0 106 81.5 168t252.5 62zM799 0v866h255v-866h-255zM657 736v203l248 -2l100 2h376l-22 -203h-702
zM1515 0v1322h257v-1322h-257z" />
    <glyph glyph-name=".notdef" horiz-adv-x="1160" 
d="M185 0v1278h790v-1278h-790zM224 35h712v1208h-712v-1208zM210 0l695 1266h40l-695 -1266h-40zM950 0h-40l-695 1266h40z" />
    <glyph glyph-name=".null" 
 />
    <glyph glyph-name="nonmarkingreturn" horiz-adv-x="666" 
 />
    <glyph glyph-name="CR" unicode="&#xd;" horiz-adv-x="2459" 
 />
    <glyph glyph-name="space" unicode=" " horiz-adv-x="411" 
 />
    <glyph glyph-name="exclam" unicode="!" horiz-adv-x="498" 
d="M357 414h-215l-31 864h275zM250 -24q-74 0 -108.5 38.5t-34.5 107.5v10q0 69 34.5 107.5t108.5 38.5q72 0 107.5 -38.5t35.5 -107.5v-10q0 -69 -35.5 -107.5t-107.5 -38.5z" />
    <glyph glyph-name="quotedbl" unicode="&#x22;" horiz-adv-x="772" 
d="M297 816h-196l-25 506h247zM670 816h-196l-25 506h247z" />
    <glyph glyph-name="numbersign" unicode="#" horiz-adv-x="1183" 
d="M181 0l166 1278h203l-167 -1278h-202zM54 296v182h1018v-182h-1018zM640 0l162 1278h203l-162 -1278h-203zM114 800v183h1016v-183h-1016z" />
    <glyph glyph-name="dollar" unicode="$" horiz-adv-x="1066" 
d="M638 1167h-221v315h221v-315zM638 -209h-221v341h221v-341zM510 -26q-89 0 -166.5 13t-140 32.5t-107.5 39.5l-23 248q78 -41 185 -73.5t228 -32.5q128 0 185 37t57 114v11q0 50 -24.5 82.5t-81.5 57.5t-155 51q-138 38 -226.5 86.5t-130.5 121t-42 182.5v12
q0 168 113.5 258t335.5 90q138 0 237 -25t166 -58l23 -231q-75 40 -171.5 66.5t-210.5 26.5q-85 0 -134.5 -16t-71 -47t-21.5 -75v-3q0 -45 22.5 -78t80.5 -60.5t165 -56.5q136 -38 222.5 -82t128.5 -114t42 -185v-18q0 -185 -120.5 -279.5t-364.5 -94.5z" />
    <glyph glyph-name="percent" unicode="%" horiz-adv-x="1546" 
d="M269 0l790 1278h221l-788 -1278h-223zM1180 -29q-144 0 -219.5 77t-75.5 220v79q0 141 76 218t219 77t219.5 -76t76.5 -219v-79q0 -142 -76.5 -219.5t-219.5 -77.5zM1180 127q54 0 81 33.5t27 99.5v94q0 65 -27.5 98.5t-80.5 33.5q-54 0 -81.5 -33.5t-27.5 -98.5v-94
q0 -66 28 -99.5t81 -33.5zM365 636q-144 0 -220 76.5t-76 219.5v79q0 142 76 218.5t220 76.5q143 0 219.5 -76.5t76.5 -218.5v-79q0 -142 -76.5 -219t-219.5 -77zM365 791q53 0 80.5 33.5t27.5 98.5v95q0 65 -27.5 99t-80.5 34q-54 0 -81.5 -34t-27.5 -99v-95
q0 -65 28 -98.5t81 -33.5z" />
    <glyph glyph-name="ampersand" unicode="&#x26;" horiz-adv-x="1317" 
d="M1054 0l-47 47t-61 61.5t-60.5 60.5t-43.5 43l-35 40l-446 417l-41 45q-68 68 -100 129t-32 143v7q0 145 96.5 228t289.5 83q120 0 207 -21t147 -48l24 -218q-67 29 -150.5 49.5t-172.5 20.5q-92 0 -131 -30.5t-39 -84.5v-4q0 -43 25.5 -81t77.5 -88l395 -379l62 -66
q33 -33 65 -65.5t64 -64.5t64 -65t64 -67.5t65 -70.5v-21h-287zM528 -27q-229 0 -341 104t-112 292v26q0 137 56 228t185 159l138 -161q-63 -30 -91 -78t-28 -127v-23q0 -101 55.5 -154t165.5 -53q91 0 155.5 34.5t110.5 97.5l69 83q48 85 74 186t36 214h249
q-18 -162 -64 -300t-130 -250l-78 -77q-53 -63 -117 -108t-145.5 -69t-187.5 -24z" />
    <glyph glyph-name="quotesingle" unicode="'" horiz-adv-x="399" 
d="M297 816h-196l-25 506h247z" />
    <glyph glyph-name="parenleft" unicode="(" horiz-adv-x="627" 
d="M361 593v-81q0 -151 25.5 -282.5t79 -248.5t135.5 -228h-261q-74 99 -124.5 212t-75.5 246t-25 292v98q0 159 25.5 291.5t76.5 246t126 212.5h258q-82 -110 -135.5 -227.5t-79 -248.5t-25.5 -282z" />
    <glyph glyph-name="parenright" unicode=")" horiz-adv-x="628" 
d="M267 593q0 151 -25.5 282t-78.5 248.5t-136 227.5h258q75 -99 126 -212.5t76.5 -246t25.5 -291.5v-98q0 -159 -25 -292t-75 -246t-125 -212h-261q83 111 136 228t78.5 248.5t25.5 282.5v81z" />
    <glyph glyph-name="asterisk" unicode="*" horiz-adv-x="782" 
d="M261 616l-166 115l164 169l-2 5l-217 38l49 194l217 -88l4 3l-27 226h216l-27 -226l4 -3l218 88l48 -194l-218 -38l-1 -5l163 -169l-164 -115l-129 198h-5z" />
    <glyph glyph-name="plus" unicode="+" horiz-adv-x="1013" 
d="M616 193h-218v854h218v-854zM93 517v205h827v-205h-827z" />
    <glyph glyph-name="comma" unicode="," horiz-adv-x="433" 
d="M338 307q3 -22 6.5 -52.5t3.5 -65.5q0 -126 -37.5 -233t-123.5 -206l-177 45q47 83 70.5 176t23.5 208q0 34 -1.5 64.5t-4.5 63.5h240z" />
    <glyph glyph-name="hyphen" unicode="-" horiz-adv-x="774" 
d="M101 414v206h572v-206h-572z" />
    <glyph glyph-name="period" unicode="." horiz-adv-x="442" 
d="M221 -24q-74 0 -109 39t-35 108v10q0 70 35 109t109 39q73 0 109 -39t36 -109v-10q0 -69 -36 -108t-109 -39z" />
    <glyph glyph-name="slash" unicode="/" horiz-adv-x="886" 
d="M4 -246l649 1592h230l-649 -1592h-230z" />
    <glyph glyph-name="zero" unicode="0" horiz-adv-x="1189" 
d="M594 -27q-249 0 -376.5 134.5t-127.5 392.5v278q0 257 127 392t377 135t377.5 -135t127.5 -392v-278q0 -258 -127.5 -392.5t-377.5 -134.5zM594 190q122 0 179.5 76.5t57.5 221.5v301q0 146 -57.5 222.5t-179.5 76.5q-123 0 -180 -76.5t-57 -222.5v-301q0 -145 58 -221.5
t179 -76.5z" />
    <glyph glyph-name="one" unicode="1" horiz-adv-x="713" 
d="M326 0v1012h-13l-274 -139l7 249l304 156h237v-1278h-261z" />
    <glyph glyph-name="two" unicode="2" horiz-adv-x="974" 
d="M59 0v239l316 287q83 75 138.5 133.5t84 113t28.5 114.5v10q0 56 -22.5 96t-72.5 62t-132 22q-96 0 -181 -29t-150 -65l23 229q41 24 96 44.5t123.5 33.5t150.5 13q216 0 324.5 -97.5t108.5 -274.5v-14q0 -96 -32 -173.5t-95 -152t-158 -161.5l-215 -198v-52l-111 41h626
v-221h-850z" />
    <glyph glyph-name="three" unicode="3" horiz-adv-x="1010" 
d="M451 -25q-82 0 -151.5 11t-123.5 27t-92 32l-23 238q70 -34 161 -59t197 -25q95 0 149.5 20t77.5 57.5t23 91.5v15q0 55 -22 90t-72 52t-134 19l-221 5v205l221 6q82 2 131 20.5t70.5 52.5t21.5 83v11q0 78 -51.5 117t-180.5 39q-106 0 -199.5 -25.5t-162.5 -56.5l22 218
q66 34 162 59t225 25q229 0 340 -87t111 -246v-20q0 -78 -26 -135t-79 -92.5t-138 -48.5v-37l-12 28q142 -23 203 -93t61 -198v-30q0 -172 -119.5 -270.5t-368.5 -98.5z" />
    <glyph glyph-name="four" unicode="4" horiz-adv-x="1108" 
d="M674 0v784l10 314h-25l-351 -642v-108l-100 92h867v-216h-1023v247l452 807h419v-1278h-249z" />
    <glyph glyph-name="five" unicode="5" horiz-adv-x="1076" 
d="M505 -25q-128 0 -225 25t-152 51l-24 240q45 -23 104 -43.5t128 -33.5t144 -13q99 0 157 24t83 69.5t25 109.5v40q0 88 -43.5 135t-138.5 47q-81 0 -136 -35t-91 -91l-226 36v742h849v-218h-603v-237l-3 -165h10q34 77 106.5 125.5t196.5 48.5q172 0 254 -100.5
t82 -280.5v-51q0 -130 -50 -225.5t-159 -147.5t-288 -52z" />
    <glyph glyph-name="six" unicode="6" horiz-adv-x="1131" 
d="M583 -26q-159 0 -270.5 59.5t-169.5 176.5t-58 289v246q0 267 134.5 412.5t397.5 145.5q119 0 207.5 -22.5t149.5 -51.5l25 -224q-44 22 -93.5 39t-108 27.5t-130.5 10.5q-163 0 -242.5 -85.5t-79.5 -258.5v-255q0 -99 27.5 -163.5t82 -97t134.5 -32.5q108 0 159 55
t51 146v37q0 62 -19 106.5t-62.5 69t-117.5 24.5q-63 0 -115.5 -22t-90 -63t-57.5 -98l-25 167h43q19 61 60.5 110t110 78t166.5 29q182 0 272.5 -103.5t90.5 -292.5v-45q0 -194 -119 -304t-353 -110z" />
    <glyph glyph-name="seven" unicode="7" horiz-adv-x="962" 
d="M181 0l451 1057h-581v221h856v-226l-442 -1052h-284z" />
    <glyph glyph-name="eight" unicode="8" horiz-adv-x="1147" 
d="M572 -30q-136 0 -231 25.5t-154 73.5t-86 114.5t-27 147.5v25q0 87 29 149.5t84.5 102t135.5 57.5v10q-77 14 -129.5 49.5t-79.5 91.5t-27 131v25q0 154 116.5 244t368.5 90q255 0 371.5 -90t116.5 -244v-25q0 -76 -27 -132t-80 -90.5t-130 -49.5v-10q81 -19 136.5 -58
t84.5 -101t29 -150v-25q0 -78 -25.5 -144t-83.5 -114.5t-154 -75.5t-238 -27zM576 180q128 0 181.5 49t53.5 128v16q0 79 -59.5 126.5t-185.5 64.5q-118 -17 -174 -66t-56 -125v-16q0 -79 55.5 -128t184.5 -49zM580 747q101 9 162.5 54.5t61.5 127.5v11q0 74 -54.5 118
t-177.5 44q-120 0 -174.5 -44t-54.5 -117v-12q0 -54 28 -92.5t80.5 -60.5t128.5 -29z" />
    <glyph glyph-name="nine" unicode="9" horiz-adv-x="1131" 
d="M549 1304q246 0 371.5 -133.5t125.5 -392.5v-267q0 -258 -139.5 -398t-417.5 -140q-113 0 -194.5 20t-135.5 45l-26 234q62 -31 137 -53.5t178 -22.5q174 0 256 80.5t82 244.5v282q0 143 -58 213.5t-183 70.5q-109 0 -161 -55.5t-52 -146.5v-39q0 -93 49.5 -146
t160.5 -53q60 0 109.5 21.5t86 62.5t55.5 97l40 -164h-57q-18 -64 -59.5 -113t-107.5 -76.5t-162 -27.5q-185 0 -278 101.5t-93 282.5v59q0 193 120 303.5t353 110.5z" />
    <glyph glyph-name="colon" unicode=":" horiz-adv-x="456" 
d="M228 -24q-74 0 -109 39t-35 108v10q0 70 35 109t109 39q73 0 108.5 -39t35.5 -109v-10q0 -69 -35.5 -108t-108.5 -39zM228 632q-74 0 -109 39t-35 109v10q0 69 35 108t109 39q73 0 108.5 -39t35.5 -108v-10q0 -70 -35.5 -109t-108.5 -39z" />
    <glyph glyph-name="semicolon" unicode=";" horiz-adv-x="455" 
d="M349 307q3 -22 6.5 -52.5t3.5 -65.5q0 -126 -37.5 -233t-123.5 -206l-177 45q47 83 71 176t24 208q0 34 -1.5 64.5t-5.5 63.5h240zM228 632q-74 0 -109 39t-35 109v10q0 69 35 108t109 39q73 0 108.5 -39t35.5 -108v-10q0 -70 -35.5 -109t-108.5 -39z" />
    <glyph glyph-name="less" unicode="&#x3c;" horiz-adv-x="1029" 
d="M271 627v-18l649 -139v-218l-827 199v334l827 199v-218z" />
    <glyph glyph-name="equal" unicode="=" horiz-adv-x="1034" 
d="M104 313v201h826v-201h-826zM104 726v201h826v-201h-826z" />
    <glyph glyph-name="greater" unicode="&#x3e;" horiz-adv-x="1029" 
d="M758 627l-649 139v218l826 -199v-334l-826 -199v218l649 139v18z" />
    <glyph glyph-name="question" unicode="?" horiz-adv-x="914" 
d="M253 399v222l91 18q89 19 141 48t75 72.5t23 104.5v43q0 86 -47.5 131.5t-163.5 45.5q-90 0 -175 -23.5t-159 -57.5l28 222q37 19 90.5 37t120.5 29.5t143 11.5q216 0 320.5 -96.5t104.5 -278.5v-58q0 -134 -52 -222t-154.5 -141t-256.5 -83zM356 -24q-73 0 -108 38.5
t-35 107.5v10q0 69 35 107.5t108 38.5t108.5 -38.5t35.5 -107.5v-10q0 -69 -35.5 -107.5t-108.5 -38.5z" />
    <glyph glyph-name="at" unicode="@" horiz-adv-x="1702" 
d="M720 66q-113 0 -174 70t-61 205q0 10 0.5 22.5t1.5 31.5t4 49t9 76q13 120 47.5 209t98 138t162.5 49q101 0 147 -49.5t58 -131.5h60l-67 -171q1 7 1 14v13q0 44 -13.5 75t-40.5 47.5t-68 16.5q-72 0 -105.5 -49.5t-43.5 -135.5q-5 -45 -8 -74t-4 -46t-1.5 -27.5
t-0.5 -18.5q0 -60 28 -90.5t83 -30.5q35 0 64.5 15t51.5 42t34 64l34 -131h-54q-18 -52 -47 -93.5t-76.5 -65t-119.5 -23.5zM951 77l27 217l-3 35l40 337l4 32l17 192l1 7h223l-90 -790zM1123 253q19 -3 34 -4t40 -1q94 0 141 57t63 173q9 56 14 98.5t8 74t4 51.5
q6 145 -49 249t-172.5 160t-296.5 56q-195 0 -320 -70.5t-191.5 -195t-88.5 -288.5q-7 -48 -11.5 -86.5t-7.5 -70.5t-5 -58.5t-3 -48.5t-2 -41q-5 -237 132.5 -359t425.5 -122q129 0 236 17.5t194.5 47t157.5 64.5l-32 -187q-71 -32 -154 -58t-185 -41t-231 -15
q-247 0 -415.5 72t-252.5 215t-79 357q0 21 1 45.5t3 52.5t5 60.5t7 70t9 79.5q27 233 124 396.5t269 249t423 85.5q231 0 393 -73t244.5 -214t73.5 -347q-1 -24 -3 -56.5t-7 -76t-13 -103.5q-18 -137 -73 -224.5t-157 -130t-263 -44.5q-41 -1 -82 0.5t-80 7.5z" />
    <glyph glyph-name="A" unicode="A" horiz-adv-x="1216" 
d="M32 0l377 1278h399l376 -1278h-265l-298 1105h-24l-300 -1105h-265zM318 326v209h578v-209h-578z" />
    <glyph glyph-name="B" unicode="B" horiz-adv-x="1199" 
d="M313 0v210h358q104 0 148 41.5t44 118.5v24q0 79 -44.5 120t-152.5 41h-356v196h350q99 0 141 41t42 115v13q0 74 -41 113t-142 39h-352v206h379q222 0 319 -79t97 -229v-17q0 -114 -56.5 -177t-176.5 -75v-10q135 -22 196.5 -96t61.5 -208v-33q0 -172 -101.5 -263
t-325.5 -91h-388zM127 0v1278h255v-1278h-255z" />
    <glyph glyph-name="C" unicode="C" horiz-adv-x="1033" 
d="M603 -27q-260 0 -388.5 141t-128.5 401v252q0 258 128.5 398t387.5 140q74 0 135 -12t110.5 -31.5t86.5 -42.5l20 -231q-59 36 -133 62t-173 26q-148 0 -221 -83t-73 -234v-234q0 -150 74 -233.5t229 -83.5q97 0 172 26t135 64l-20 -235q-36 -23 -87 -43.5t-114.5 -33.5
t-139.5 -13z" />
    <glyph glyph-name="D" unicode="D" horiz-adv-x="1222" 
d="M310 0v220h290q137 0 205.5 74.5t68.5 213.5v265q0 139 -68.5 213t-205.5 74h-291v218h300q264 0 397 -130t133 -374v-267q0 -245 -132.5 -376t-397.5 -131h-299zM127 0v1278h259v-1278h-259z" />
    <glyph glyph-name="E" unicode="E" horiz-adv-x="1075" 
d="M127 0v1278h258v-1278h-258zM204 0v219h785v-219h-785zM277 543v213h689v-213h-689zM203 1061v217h778v-217h-778z" />
    <glyph glyph-name="F" unicode="F" horiz-adv-x="1027" 
d="M127 0v1278h262v-1278h-262zM277 476v220h662v-220h-662zM203 1057v221h751v-221h-751z" />
    <glyph glyph-name="G" unicode="G" horiz-adv-x="1229" 
d="M528 -27q-146 0 -244.5 61.5t-148 178t-49.5 281.5v254q0 271 144.5 414t423.5 143q90 0 165.5 -13.5t137 -34t106.5 -45.5l22 -226q-73 38 -167 66.5t-214 28.5q-180 0 -265 -86t-85 -259v-243q0 -142 66.5 -219t204.5 -77q65 0 112 20t78 54t47 74v268l36 -81l-263 -1
v208h480v-532l-258 1q-16 -66 -52 -119t-103 -84.5t-174 -31.5zM869 263h246v-263h-255z" />
    <glyph glyph-name="H" unicode="H" horiz-adv-x="1283" 
d="M391 0h-264v1278h264v-1278zM1155 0h-263v1278h263v-1278zM278 765h714v-219h-714v219z" />
    <glyph glyph-name="I" unicode="I" horiz-adv-x="519" 
d="M391 0h-263v1278h263v-1278z" />
    <glyph glyph-name="J" unicode="J" horiz-adv-x="828" 
d="M302 -19q-62 0 -124 10t-112 30l-19 225q48 -18 96.5 -28t100.5 -10q117 0 159.5 52.5t42.5 160.5v857h263v-873q0 -209 -93 -316.5t-314 -107.5z" />
    <glyph glyph-name="K" unicode="K" horiz-adv-x="1182" 
d="M859 0l-392 566h-103v175h103l387 537h297l-471 -641l-1 60l486 -697h-306zM127 0v1278h261v-1278h-261z" />
    <glyph glyph-name="L" unicode="L" horiz-adv-x="998" 
d="M391 0h-264v1278h264v-1278zM275 221h669v-221h-669v221z" />
    <glyph glyph-name="M" unicode="M" horiz-adv-x="1554" 
d="M111 0l42 1278h378l240 -813h13l239 813h377l43 -1278h-254l-12 460l-11 531h-16l-251 -842h-244l-252 842h-16l-11 -532l-11 -459h-254z" />
    <glyph glyph-name="N" unicode="N" horiz-adv-x="1283" 
d="M500 1278l402 -992h13l-11 545v447h251v-1278h-362l-412 1010h-13l11 -562v-448h-252v1278h373z" />
    <glyph glyph-name="O" unicode="O" horiz-adv-x="1245" 
d="M622 -29q-265 0 -400.5 138.5t-135.5 396.5v260q0 259 135.5 399t400.5 140t400.5 -140t135.5 -399v-260q0 -258 -135 -396.5t-401 -138.5zM622 189q135 0 202 80t67 225v284q0 150 -67 230.5t-202 80.5q-134 0 -201 -80.5t-67 -230.5v-284q0 -145 67 -225t201 -80z" />
    <glyph glyph-name="P" unicode="P" horiz-adv-x="1160" 
d="M302 384v214h326q108 0 156.5 50.5t48.5 146.5v73q0 98 -48 147.5t-156 49.5h-327v213h342q233 0 341.5 -105t108.5 -298v-88q0 -193 -108.5 -298t-341.5 -105h-342zM127 0v1278h258v-741l1 -119v-418h-259z" />
    <glyph glyph-name="Q" unicode="Q" horiz-adv-x="1246" 
d="M1243 -49l-549 20q-321 12 -464.5 146.5t-143.5 395.5v254q0 258 135.5 398t400.5 140q177 0 296 -62.5t179.5 -182.5t60.5 -293v-207q0 -89 -20 -156t-57 -113t-89 -74.5t-116 -39.5v-11l367 11v-226zM652 190l29 -1q44 12 82 36.5t67 63t45 93.5t16 128v268
q0 149 -67 229.5t-202 80.5q-134 0 -201 -80.5t-67 -229.5v-276q0 -149 79 -227.5t219 -84.5z" />
    <glyph glyph-name="R" unicode="R" horiz-adv-x="1189" 
d="M854 0l-29 249q-7 67 -28 112t-63 68.5t-116 23.5l-309 1v202l325 1q109 0 156.5 50.5t47.5 144.5v24q0 93 -47.5 141.5t-158.5 48.5h-326v212h363q225 0 328.5 -91t103.5 -259v-28q0 -126 -61 -200t-194 -88v-36l-73 36q114 -8 176.5 -48t91.5 -110.5t44 -174.5l39 -279
h-270zM127 0v1278h256v-694l2 -97v-487h-258z" />
    <glyph glyph-name="S" unicode="S" horiz-adv-x="1066" 
d="M510 -26q-89 0 -166.5 13t-140 32.5t-107.5 39.5l-23 248q78 -41 185 -73.5t228 -32.5q128 0 185 37t57 114v11q0 50 -24.5 82.5t-81.5 57.5t-155 51q-138 38 -226.5 86.5t-130.5 121t-42 182.5v12q0 168 113.5 258t335.5 90q138 0 237 -25t166 -58l23 -231
q-75 40 -171.5 66.5t-210.5 26.5q-85 0 -134.5 -16t-71 -47t-21.5 -75v-3q0 -45 22.5 -78t80.5 -60.5t165 -56.5q136 -38 222.5 -82t128.5 -114t42 -185v-18q0 -185 -120.5 -279.5t-364.5 -94.5z" />
    <glyph glyph-name="T" unicode="T" horiz-adv-x="1101" 
d="M420 0v1229h263v-1229h-263zM56 1059v219h989v-219h-989z" />
    <glyph glyph-name="U" unicode="U" horiz-adv-x="1263" 
d="M632 -29q-264 0 -389 129.5t-125 378.5v799h263v-805q0 -137 59.5 -208.5t191.5 -71.5q131 0 190.5 71.5t59.5 208.5v805h263v-799q0 -249 -125 -378.5t-388 -129.5z" />
    <glyph glyph-name="V" unicode="V" horiz-adv-x="1191" 
d="M395 0l-363 1278h272l280 -1082h23l280 1082h272l-362 -1278h-402z" />
    <glyph glyph-name="W" unicode="W" horiz-adv-x="1690" 
d="M285 0l-238 1278h267l139 -881l31 -178h16l31 178l143 851h342l143 -851l30 -178h18l31 177l140 882h265l-237 -1278h-385l-119 735l-49 296h-16l-49 -296l-117 -735h-386z" />
    <glyph glyph-name="X" unicode="X" horiz-adv-x="1178" 
d="M33 0l366 692v-57l-354 643h281l256 -481h15l256 481h281l-355 -643v57l366 -692h-287l-261 514h-16l-261 -514h-287z" />
    <glyph glyph-name="Y" unicode="Y" horiz-adv-x="1145" 
d="M457 351l-439 927h276l187 -421l84 -210h15l84 210l186 421h276l-437 -927h-232zM444 0v589h258v-589h-258z" />
    <glyph glyph-name="Z" unicode="Z" horiz-adv-x="1063" 
d="M993 220v-220h-923v206l609 854h-601v218h906v-204l-610 -854h619z" />
    <glyph glyph-name="bracketleft" unicode="[" horiz-adv-x="630" 
d="M129 -247v1598h449v-188h-212v-1222h212v-188h-449z" />
    <glyph glyph-name="backslash" unicode="\" horiz-adv-x="886" 
d="M883 -246h-231l-648 1592h229z" />
    <glyph glyph-name="bracketright" unicode="]" horiz-adv-x="630" 
d="M501 -247h-449v188h212v1222h-212v188h449v-1598z" />
    <glyph glyph-name="asciicircum" unicode="^" horiz-adv-x="887" 
d="M276 1278h334l240 -668h-218l-182 524h-14l-181 -524h-219z" />
    <glyph glyph-name="underscore" unicode="_" horiz-adv-x="890" 
d="M42 -252v198h806v-198h-806z" />
    <glyph glyph-name="grave" unicode="`" horiz-adv-x="646" 
d="M374 1371l182 -282v-3h-216l-237 282v3h271z" />
    <glyph glyph-name="a" unicode="a" horiz-adv-x="1031" 
d="M680 0l9 240l-7 22v307l-1 44q0 96 -52.5 141t-171.5 45q-101 0 -189.5 -26.5t-163.5 -61.5l22 204q44 23 100.5 43.5t126.5 33.5t151 13q120 0 203 -28.5t132.5 -81.5t71.5 -126.5t22 -162.5v-606h-253zM359 -23q-146 0 -222.5 73t-76.5 208v28q0 143 88 211.5t279 94.5
l278 38l15 -165l-256 -37q-84 -11 -119.5 -40t-35.5 -85v-10q0 -55 34.5 -85.5t108.5 -30.5q66 0 113 21t77.5 55.5t43.5 77.5l36 -127h-44q-16 -63 -51.5 -114.5t-99.5 -82t-168 -30.5z" />
    <glyph glyph-name="b" unicode="b" horiz-adv-x="1111" 
d="M672 -23q-88 0 -149.5 28.5t-99 80.5t-53.5 122h-73l66 196q3 -70 30 -118t75 -72t111 -24q97 0 147 56.5t50 169.5v159q0 110 -50 166t-147 56q-57 0 -102 -21.5t-75 -57.5t-43 -83l-58 138h72q16 64 51 116.5t97.5 83t159.5 30.5q173 0 263 -111.5t90 -329.5v-136
q0 -220 -91 -334.5t-271 -114.5zM112 0v1322h255v-302l-5 -299l1 -31v-389l-4 -61l9 -240h-256z" />
    <glyph glyph-name="c" unicode="c" horiz-adv-x="885" 
d="M521 -25q-227 0 -336.5 120t-109.5 337v120q0 216 110 335t336 119q59 0 110.5 -9.5t94 -25.5t74.5 -34l21 -215q-49 31 -109.5 52t-139.5 21q-124 0 -181.5 -63.5t-57.5 -184.5v-106q0 -120 59.5 -185t183.5 -65q79 0 140 20.5t114 50.5l-21 -216q-49 -28 -123 -49.5
t-165 -21.5z" />
    <glyph glyph-name="d" unicode="d" horiz-adv-x="1111" 
d="M430 -23q-173 0 -263 112t-90 330v135q0 221 91 335t271 114q88 0 148.5 -28t98 -80t52.5 -122h75l-65 -190q-2 69 -28.5 116.5t-73.5 72.5t-111 25q-97 0 -148.5 -56t-51.5 -167v-162q0 -110 51.5 -166t150.5 -56q56 0 100 21t73.5 57.5t42.5 82.5l61 -143h-72
q-16 -64 -52 -116.5t-99 -83.5t-161 -31zM744 0l9 240l-5 57v401l1 41l-5 281v302h256v-1322h-256z" />
    <glyph glyph-name="e" unicode="e" horiz-adv-x="1038" 
d="M573 -24q-252 0 -375 116t-123 336v128q0 218 115 335t334 117q148 0 247 -52t148.5 -147.5t49.5 -228.5v-35q0 -36 -3.5 -73.5t-9.5 -70.5h-232q3 55 3.5 104.5t0.5 89.5q0 69 -22 117.5t-67 73.5t-115 25q-103 0 -152 -57t-49 -162v-91l1 -29v-77q0 -46 14.5 -85
t48.5 -67.5t90.5 -44.5t141.5 -16q92 0 175.5 20.5t158.5 55.5l-22 -202q-67 -37 -157.5 -58.5t-200.5 -21.5zM211 401v170h693v-170h-693z" />
    <glyph glyph-name="f" unicode="f" horiz-adv-x="760" 
d="M457 1353q78 0 144 -13t117 -32l23 -192q-43 13 -89.5 21.5t-102.5 8.5q-67 0 -105.5 -15t-54.5 -43t-16 -66v-3q0 -27 8 -51t19 -43l-167 -6v27q-46 22 -78 65t-32 107v5q0 106 81.5 168t252.5 62zM157 0v866h255v-866h-255zM15 736v203l248 -2l100 2h376l-22 -203h-702
z" />
    <glyph glyph-name="g" unicode="g" horiz-adv-x="1050" 
d="M528 301q-223 0 -338 88.5t-115 248.5v15q0 106 46 180.5t144 116.5t254 48l517 21v-188l-266 10v-11q63 -13 104.5 -41.5t62.5 -73t21 -107.5v-9q0 -145 -107 -221.5t-323 -76.5zM516 -187h28q78 0 129 10.5t76.5 32t25.5 55.5v3q0 42 -32.5 61.5t-104.5 26.5l-287 28
l59 3q-37 -7 -65.5 -20.5t-44.5 -35.5t-16 -54v-2q0 -37 26 -61.5t78 -35.5t128 -11zM502 -380q-142 0 -243 23.5t-154.5 74.5t-53.5 135v4q0 57 25 96t71 62t106 29v10q-76 15 -114.5 49.5t-38.5 94.5v1q0 42 19 71t56.5 46t92.5 20v29l217 -54l-70 2q-46 -1 -64 -12.5
t-18 -32.5v-1q0 -26 28 -37.5t93 -19.5l235 -26q165 -19 243.5 -81t78.5 -191v-5q0 -99 -56 -162.5t-161.5 -94t-255.5 -30.5h-36zM521 479q67 0 111.5 19t67 56t22.5 90v11q0 53 -22 89.5t-66 55t-111 18.5h-3q-71 0 -116 -19.5t-66 -56t-21 -87.5v-11q0 -53 22.5 -90
t68 -56t113.5 -19z" />
    <glyph glyph-name="h" unicode="h" horiz-adv-x="1109" 
d="M751 0v589q0 62 -16.5 107t-54.5 70t-104 25q-58 0 -101 -21t-70.5 -56.5t-40.5 -80.5l-52 140h61q17 65 54 117t101 82.5t159 30.5q113 0 183 -42.5t103.5 -126.5t33.5 -208v-626h-256zM112 0v1322h255v-302l-5 -305l6 -19v-696h-256z" />
    <glyph glyph-name="i" unicode="i" horiz-adv-x="483" 
d="M114 0v981h256v-981h-256zM242 1097q-73 0 -107.5 34.5t-34.5 95.5v5q0 61 34.5 96t107.5 35q72 0 107 -35t35 -96v-5q0 -62 -35 -96t-107 -34z" />
    <glyph glyph-name="j" unicode="j" horiz-adv-x="504" 
d="M134 167v814h257v-814h-257zM262 1097q-73 0 -107.5 34.5t-34.5 95.5v5q0 61 34.5 96t107.5 35t107.5 -35t34.5 -96v-5q0 -62 -34.5 -96t-107.5 -34zM69 -360q-44 0 -82.5 6.5t-66.5 15.5l-19 205q22 -9 47 -14t51 -5q80 0 107.5 42.5t27.5 118.5v231h257v-247
q0 -108 -31 -187t-101.5 -122.5t-189.5 -43.5z" />
    <glyph glyph-name="k" unicode="k" horiz-adv-x="1053" 
d="M742 0l-322 432h-87v167h88l310 382h296l-398 -483v52l413 -550h-300zM112 0v1322h255v-1322h-255z" />
    <glyph glyph-name="l" unicode="l" horiz-adv-x="485" 
d="M114 0v1322h257v-1322h-257z" />
    <glyph glyph-name="m" unicode="m" horiz-adv-x="1679" 
d="M1321 0v596q0 60 -15 103.5t-49.5 67.5t-93.5 24q-54 0 -94 -21t-65 -56.5t-37 -80.5l-28 140h26q16 63 52 115.5t98.5 83.5t158.5 31q107 0 173.5 -41.5t98.5 -124t32 -204.5v-633h-257zM112 0v981h256l-10 -249l10 -11v-721h-256zM717 0v596q0 60 -15 103.5t-49.5 67.5
t-93.5 24q-55 0 -94.5 -21t-65 -56.5t-37.5 -80.5l-40 140h48q15 65 50.5 117t96.5 82.5t152 30.5q137 0 206.5 -70t87.5 -204q4 -20 7 -46.5t3 -49.5v-633h-256z" />
    <glyph glyph-name="n" unicode="n" horiz-adv-x="1109" 
d="M751 0v589q0 62 -16.5 107t-54.5 70t-104 25q-58 0 -101.5 -21t-71 -56.5t-41.5 -80.5l-40 140h48q16 65 53.5 117t102 82.5t161.5 30.5q113 0 183 -42.5t103.5 -126.5t33.5 -208v-626h-256zM112 0v981h256l-10 -239l10 -21v-721h-256z" />
    <glyph glyph-name="o" unicode="o" horiz-adv-x="1074" 
d="M538 -27q-228 0 -345.5 117t-117.5 333v133q0 217 117.5 334.5t345.5 117.5q227 0 344 -117.5t117 -334.5v-133q0 -216 -116.5 -333t-344.5 -117zM538 178q100 0 152.5 60t52.5 172v159q0 114 -52.5 174.5t-152.5 60.5q-101 0 -153.5 -60.5t-52.5 -174.5v-159
q0 -112 52.5 -172t153.5 -60z" />
    <glyph glyph-name="p" unicode="p" horiz-adv-x="1111" 
d="M672 -23q-88 0 -149 28.5t-98.5 80.5t-53.5 122h-73l65 196q2 -70 28.5 -118t74 -72t111.5 -24q97 0 148 56.5t51 167.5v161q0 110 -50 166t-148 56q-56 0 -101 -21.5t-75 -57.5t-43 -83l-60 138h71q16 64 51.5 116.5t99 83t160.5 30.5q173 0 263 -111.5t90 -329.5v-136
q0 -220 -90.5 -334.5t-271.5 -114.5zM112 -344v1325h256l-10 -249l5 -45v-393l-3 -46l7 -269v-323h-255z" />
    <glyph glyph-name="q" unicode="q" horiz-adv-x="1111" 
d="M430 -23q-173 0 -263 112t-90 330v135q0 221 91 335t271 114q89 0 150 -28t99 -80t54 -122h74l-68 -190q-2 70 -29.5 118t-74.5 72t-111 24q-96 0 -147 -56.5t-51 -168.5v-159q0 -111 51.5 -167t149.5 -56q57 0 101 21t73.5 57.5t42.5 82.5l59 -143h-72
q-15 -64 -51 -116.5t-98.5 -83.5t-160.5 -31zM744 -344v323l7 272l-3 42v401l5 53l-9 234h256v-1325h-256z" />
    <glyph glyph-name="r" unicode="r" horiz-adv-x="775" 
d="M361 570l-65 171h62q27 119 98 187t197 68q26 0 47 -3.5t38 -8.5l14 -256q-22 7 -51 10.5t-61 3.5q-102 0 -173.5 -45t-105.5 -127zM112 0v981h244l-11 -301l23 -9v-671h-256z" />
    <glyph glyph-name="s" unicode="s" horiz-adv-x="914" 
d="M447 -24q-118 0 -209.5 22.5t-155.5 50.5l-23 222q76 -35 167.5 -61t201.5 -26q96 0 139 24.5t43 73.5v6q0 33 -19.5 54t-68.5 38.5t-138 37.5q-123 29 -194.5 67.5t-102.5 95t-31 135.5v9q0 139 99 209.5t293 70.5q115 0 203.5 -22.5t147.5 -53.5l23 -204
q-70 33 -157 55.5t-187 22.5q-65 0 -102.5 -10.5t-53.5 -29.5t-16 -46v-5q0 -30 17.5 -52t64.5 -39.5t132 -37.5q124 -26 199 -61t109 -89.5t34 -142.5v-12q0 -152 -103 -227t-312 -75z" />
    <glyph glyph-name="t" unicode="t" horiz-adv-x="802" 
d="M492 -21q-125 0 -199.5 37.5t-107.5 113.5t-33 187v572h254v-534q0 -80 36.5 -117.5t128.5 -37.5q54 0 104 11.5t92 30.5l-22 -214q-50 -23 -114.5 -36t-138.5 -13zM10 771v202h748l-22 -202h-726zM155 954l-1 260l255 26l-10 -286h-244z" />
    <glyph glyph-name="u" unicode="u" horiz-adv-x="1109" 
d="M358 981v-590q0 -61 16.5 -106.5t55 -70t103.5 -24.5q59 0 102 21t71 56.5t41 79.5l40 -139h-48q-16 -64 -53.5 -116.5t-102 -83.5t-161.5 -31q-112 0 -182.5 43t-104 127t-33.5 207v627h256zM997 981v-981h-255l9 238l-10 21v722h256z" />
    <glyph glyph-name="v" unicode="v" horiz-adv-x="1029" 
d="M527 170l211 811h264l-280 -981h-414l-281 981h266l211 -811h23z" />
    <glyph glyph-name="w" unicode="w" horiz-adv-x="1541" 
d="M248 0l-212 981h262l144 -799h18l146 774h330l147 -774h17l146 799h259l-212 -981h-372l-120 649l-22 121h-15l-22 -121l-121 -649h-373z" />
    <glyph glyph-name="x" unicode="x" horiz-adv-x="1031" 
d="M30 0l297 546v-71l-290 506h277l194 -362h17l192 362h276l-289 -506v71l297 -546h-277l-199 383h-17l-201 -383h-277z" />
    <glyph glyph-name="y" unicode="y" horiz-adv-x="1030" 
d="M632 212l-137 -59l245 828h263l-421 -1325h-257l154 482l119 -96h-286l-285 939h265l203 -769h137z" />
    <glyph glyph-name="z" unicode="z" horiz-adv-x="933" 
d="M862 211v-211h-792v191l478 580h-474v210h783v-191l-479 -579h484z" />
    <glyph glyph-name="braceleft" unicode="{" horiz-adv-x="688" 
d="M637 1332v-182q-19 5 -42.5 9t-50.5 4q-64 0 -92 -30t-28 -98q0 -29 3.5 -76.5t6.5 -96.5t3 -83q0 -61 -15 -107t-52.5 -74.5t-103.5 -38.5v-18l-11 9q72 -9 111.5 -38.5t55 -76.5t15.5 -109q0 -34 -3 -83t-6.5 -96.5t-3.5 -77.5q0 -68 28 -98.5t95 -30.5q26 0 49 4.5
t41 9.5v-184q-36 -10 -77.5 -16.5t-85.5 -6.5q-148 0 -219.5 69t-71.5 225q0 37 3.5 88.5t7 101.5t3.5 81q0 44 -13 73t-43 45t-84 19v209q54 3 84 18.5t43 44.5t13 72q0 33 -3.5 82.5t-7 100.5t-3.5 86q0 155 71.5 224t219.5 69q44 0 86 -6.5t77 -16.5z" />
    <glyph glyph-name="bar" unicode="|" horiz-adv-x="510" 
d="M363 -425h-215v1846h215v-1846z" />
    <glyph glyph-name="braceright" unicode="}" horiz-adv-x="688" 
d="M50 1332q36 10 78 16.5t86 6.5q148 0 219.5 -69t71.5 -224q0 -35 -3.5 -86t-7 -100.5t-3.5 -82.5q0 -43 13 -72t43.5 -44.5t82.5 -18.5v-209q-52 -3 -82.5 -19t-43.5 -45t-13 -73q0 -31 3.5 -81t7 -101.5t3.5 -88.5q0 -156 -71.5 -225t-219.5 -69q-44 0 -86 6.5t-78 16.5
v184q19 -5 42 -9.5t49 -4.5q66 0 94.5 30.5t28.5 98.5q0 30 -3.5 77.5t-7 96.5t-3.5 83q0 62 16 109t55.5 76.5t110.5 38.5l-10 -9v18q-66 10 -103.5 38.5t-53 74.5t-15.5 107q0 34 3.5 83t7 96.5t3.5 76.5q0 68 -27.5 98t-92.5 30q-27 0 -51 -4t-43 -9v182z" />
    <glyph glyph-name="asciitilde" unicode="~" horiz-adv-x="1096" 
d="M749 470q-55 0 -106.5 14t-99 32.5t-90 32.5t-81.5 14q-46 0 -64.5 -26.5t-19.5 -77.5v-13h-184v49q0 132 55 206t187 74q56 0 107.5 -14.5t98.5 -33t90 -33t81 -14.5q48 0 65.5 27.5t18.5 79.5v12h184v-50q0 -131 -55.5 -205t-186.5 -74z" />
    <glyph glyph-name="uni00A0" unicode="&#xa0;" horiz-adv-x="411" 
 />
    <glyph glyph-name="exclamdown" unicode="&#xa1;" horiz-adv-x="498" 
d="M357 567l29 -864h-275l31 864h215zM250 1005q72 0 107.5 -38.5t35.5 -107.5v-11q0 -68 -35.5 -106.5t-107.5 -38.5q-74 0 -108.5 38.5t-34.5 106.5v11q0 69 34.5 107.5t108.5 38.5z" />
    <glyph glyph-name="cent" unicode="&#xa2;" horiz-adv-x="885" 
d="M627 889h-217v296h217v-296zM627 -209h-217v319h217v-319zM521 -25q-227 0 -336.5 120t-109.5 337v120q0 216 110 335t336 119q59 0 110.5 -9.5t94 -25.5t74.5 -34l21 -215q-49 31 -109.5 52t-139.5 21q-124 0 -181.5 -63.5t-57.5 -184.5v-106q0 -120 59.5 -185
t183.5 -65q79 0 140 20.5t114 50.5l-21 -216q-49 -28 -123 -49.5t-165 -21.5z" />
    <glyph glyph-name="sterling" unicode="&#xa3;" horiz-adv-x="1087" 
d="M73 567l13 181h849l-13 -181h-849zM345 221h684v-221h-950v214l41 13q49 15 78.5 46t42.5 79.5t13 113.5q0 54 -10 111.5t-23 117t-23 119t-10 117.5q0 186 109 279.5t344 93.5q83 0 164.5 -13t146.5 -36l20 -219q-66 23 -131 34.5t-134 11.5q-91 0 -145 -22t-77 -64.5
t-23 -106.5q0 -48 9 -98.5t21.5 -101.5t21.5 -100.5t9 -96.5q0 -113 -43 -171.5t-135 -88.5v-11z" />
    <glyph glyph-name="currency" unicode="&#xa4;" horiz-adv-x="1078" 
d="M538 225q-190 0 -289.5 96.5t-99.5 275.5v36q0 179 100 275t290 96t289.5 -96t99.5 -275v-36q0 -179 -99.5 -275.5t-290.5 -96.5zM539 416q79 0 120 45t41 132l-1 44q-1 87 -41 131.5t-119 44.5t-120.5 -44.5t-41.5 -131.5v-44q0 -87 41.5 -132t120.5 -45zM816 447
l199 -220l-143 -122l-196 215zM402 320l-196 -215l-143 122l203 222zM252 788l-189 209l142 123l193 -211zM676 903l196 217l142 -123l-200 -223z" />
    <glyph glyph-name="yen" unicode="&#xa5;" horiz-adv-x="1157" 
d="M651 523l42 163h361l-14 -163h-389zM121 392h933l-14 -162h-934zM460 686l43 -163h-397l15 163h339zM463 351l-439 927h275l188 -421l84 -210h14l85 210l186 421h275l-437 -927h-231zM449 0v589h258v-589h-258z" />
    <glyph glyph-name="brokenbar" unicode="&#xa6;" horiz-adv-x="512" 
d="M364 584h-216v837h216v-837zM364 -425h-216v846h216v-846z" />
    <glyph glyph-name="section" unicode="&#xa7;" horiz-adv-x="969" 
d="M549 447q49 16 73 48t24 74v6q0 45 -21 71.5t-71.5 45.5t-142.5 39q-122 27 -194 65t-102.5 93.5t-30.5 130.5v10q0 137 98 205t290 68q113 0 201 -23t146 -54l22 -203q-69 34 -154.5 56.5t-185.5 22.5q-96 0 -132 -21t-36 -59v-7q0 -27 17.5 -46t66 -36t141.5 -40
q115 -27 186.5 -58t104.5 -79t33 -127v-8q0 -80 -48.5 -134t-132.5 -67l1 -47zM414 748q-47 -16 -71.5 -46.5t-24.5 -73.5v-7q0 -42 19 -70.5t68.5 -49.5t139.5 -43q122 -29 196 -63.5t107.5 -88t33.5 -138.5v-12q0 -142 -103 -216t-311 -74q-117 0 -207 23t-152 52l-22 221
q74 -35 164.5 -61.5t198.5 -26.5q94 0 137 22t43 65v7q0 31 -19 50t-68 36.5t-140 40.5q-115 30 -185 64.5t-102 82.5t-32 118v9q0 80 47 130.5t129 67.5l-1 40z" />
    <glyph glyph-name="dieresis" unicode="&#xa8;" horiz-adv-x="776" 
d="M220 1099q-60 0 -90 32.5t-30 91.5v7q0 59 30 91.5t90 32.5q63 0 92.5 -32.5t29.5 -91.5v-7q0 -59 -29.5 -91.5t-92.5 -32.5zM555 1099q-61 0 -90.5 32.5t-29.5 91.5v7q0 59 29.5 91.5t90.5 32.5t91 -32.5t30 -91.5v-7q0 -59 -30 -91.5t-91 -32.5z" />
    <glyph glyph-name="copyright" unicode="&#xa9;" horiz-adv-x="1412" 
d="M706 -29q-199 0 -337 70.5t-210.5 204.5t-72.5 324v144q0 188 72.5 320t210.5 201.5t337 69.5t337.5 -69.5t210.5 -201.5t72 -320v-144q0 -190 -72 -324t-210.5 -204.5t-337.5 -70.5zM747 309q-147 0 -217.5 78t-70.5 221v66q0 141 71 218.5t217 77.5q59 0 106 -14
t77 -32l14 -144q-33 21 -72 34.5t-90 13.5q-79 0 -115 -39.5t-36 -113.5v-65q0 -75 38.5 -115.5t116.5 -40.5q52 0 91 14t72 34l-13 -145q-31 -20 -79 -34t-110 -14zM706 113q213 0 332.5 117t119.5 332v161q0 212 -119.5 326.5t-332.5 114.5q-212 0 -331.5 -114.5
t-119.5 -326.5v-161q0 -215 119.5 -332t331.5 -117z" />
    <glyph glyph-name="ordfeminine" unicode="&#xaa;" horiz-adv-x="670" 
d="M421 641l7 149l-4 9v204v43q0 51 -28 77.5t-100 26.5q-61 0 -116.5 -17.5t-101.5 -40.5l15 143q42 22 101 39.5t133 17.5q77 0 129 -19t83 -53t44.5 -80.5t13.5 -101.5v-397h-176zM237 627q-92 0 -140 48.5t-48 138.5v16q0 91 53.5 136t170.5 62l168 25l11 -113l-138 -22
q-49 -8 -69.5 -25t-20.5 -51v-8q0 -33 19.5 -52t62.5 -19q46 0 78 25t43 61l22 -89h-29q-15 -57 -55.5 -95t-127.5 -38z" />
    <glyph glyph-name="guillemotleft" unicode="&#xab;" horiz-adv-x="1023" 
d="M724 490l272 -407h-243l-261 386v46l261 378h243zM283 490l272 -407h-243l-261 386v46l261 378h243z" />
    <glyph glyph-name="logicalnot" unicode="&#xac;" horiz-adv-x="1020" 
d="M920 193h-216v453h216v-453zM93 518v204h827v-204h-827z" />
    <glyph glyph-name="uni00AD" unicode="&#xad;" horiz-adv-x="774" 
d="M101 414v206h572v-206h-572z" />
    <glyph glyph-name="registered" unicode="&#xae;" horiz-adv-x="839" 
d="M420 522q-177 0 -273 92.5t-96 257.5v76q0 164 96 257t273 93q176 0 271.5 -93t95.5 -257v-76q0 -165 -95.5 -257.5t-271.5 -92.5zM420 612q130 0 196 65.5t66 190.5v85q0 124 -66 189t-196 65q-131 0 -197.5 -65t-66.5 -189v-85q0 -125 66.5 -190.5t197.5 -65.5z
M489 729l-8 61q-5 35 -19 48.5t-44 13.5h-75v74h88q28 0 40.5 13t12.5 38v8q0 23 -12 36t-41 13h-89v76h103q70 0 102.5 -27.5t32.5 -81.5v-6q0 -39 -20.5 -61.5t-64.5 -26.5v-12l-16 11q51 -4 70.5 -28t26.5 -73l12 -76h-99zM278 729v381h95v-209v-32v-140h-95z" />
    <glyph glyph-name="macron" unicode="&#xaf;" horiz-adv-x="801" 
d="M99 1127v162h602v-162h-602z" />
    <glyph glyph-name="degree" unicode="&#xb0;" horiz-adv-x="669" 
d="M335 756q-131 0 -201 71.5t-70 197.5v14q0 125 70 196.5t201 71.5q130 0 200 -71.5t70 -196.5v-14q0 -126 -70 -197.5t-200 -71.5zM335 903q50 0 75 31.5t25 89.5v16q0 57 -25 89t-75 32q-49 0 -75 -32t-26 -89v-16q0 -58 26 -89.5t75 -31.5z" />
    <glyph glyph-name="plusminus" unicode="&#xb1;" horiz-adv-x="1034" 
d="M104 100v203h826v-203h-826zM625 409h-216v699h216v-699zM104 657v203h826v-203h-826z" />
    <glyph glyph-name="uni00B2" unicode="&#xb2;" horiz-adv-x="598" 
d="M33 726v150l195 148q43 32 74.5 59t49 52.5t17.5 53.5v6q0 35 -26.5 55.5t-93.5 20.5q-59 0 -112.5 -15t-96.5 -33l15 148q40 21 101.5 35.5t128.5 14.5q132 0 200.5 -54t68.5 -148v-9q0 -52 -20 -93.5t-57.5 -79t-94.5 -78.5l-109 -79v-32l-83 25h372v-147h-529z" />
    <glyph glyph-name="uni00B3" unicode="&#xb3;" horiz-adv-x="621" 
d="M278 708q-71 0 -131.5 12.5t-96.5 26.5l-15 149q42 -16 98 -29t117 -13q82 0 110.5 21t28.5 54v4q0 16 -6 29t-19.5 21.5t-36.5 13.5t-58 6l-138 3v128l135 3q66 2 93.5 18.5t27.5 49.5v5q0 32 -27 49t-100 17q-67 0 -124 -13.5t-97 -27.5l16 140q41 18 100.5 31.5
t133.5 13.5q143 0 214 -46.5t71 -134.5v-8q0 -60 -33 -98t-104 -49v-20l-9 15q79 -12 115 -52t36 -108v-10q0 -59 -32 -104.5t-99 -71t-170 -25.5z" />
    <glyph glyph-name="acute" unicode="&#xb4;" horiz-adv-x="646" 
d="M272 1371h272v-3l-237 -282h-216v3z" />
    <glyph glyph-name="uni00B5" unicode="&#xb5;" horiz-adv-x="1120" 
d="M1008 981v-981h-249l9 242l-16 17v722h256zM368 399q0 -49 11 -87.5t33 -65.5t57.5 -41t84.5 -14q54 0 95.5 21t68.5 57t39 80l45 -147h-46q-13 -70 -39 -120t-69.5 -76.5t-107.5 -26.5q-49 0 -85.5 14t-61 40.5t-39.5 64.5h-7l15 -342v-100h-250v1325h256v-582z" />
    <glyph glyph-name="paragraph" unicode="&#xb6;" horiz-adv-x="794" 
d="M379 647q-162 0 -236.5 77.5t-74.5 219.5v37q0 143 75 220t236 77h94l1 -631h-95zM666 0h-255v1278h255v-1278z" />
    <glyph glyph-name="periodcentered" unicode="&#xb7;" horiz-adv-x="423" 
d="M211 397q-68 0 -101 34t-33 93v6q0 60 33 94.5t101 34.5q69 0 102 -34.5t33 -94.5v-6q0 -59 -33 -93t-102 -34z" />
    <glyph glyph-name="cedilla" unicode="&#xb8;" horiz-adv-x="613" 
d="M395 27l-24 -163l-101 60q19 2 38.5 2.5t38.5 -0.5q105 -2 155 -40t50 -110v-6q0 -83 -60.5 -122.5t-176.5 -39.5q-42 0 -82 5.5t-70 12.5l-25 139q31 -9 66 -14t71 -5q49 0 73.5 10.5t24.5 32.5v2q0 26 -32.5 37t-120.5 15q-7 1 -9.5 1h-3.5l24 183h164z" />
    <glyph glyph-name="uni00B9" unicode="&#xb9;" horiz-adv-x="438" 
d="M194 726v501h-9l-161 -82l6 167l181 92h158v-678h-175z" />
    <glyph glyph-name="ordmasculine" unicode="&#xba;" horiz-adv-x="701" 
d="M350 626q-145 0 -221.5 77t-76.5 223v69q0 145 76.5 221.5t221.5 76.5q147 0 223 -76.5t76 -221.5v-69q0 -146 -76.5 -223t-222.5 -77zM350 773q58 0 87 36.5t29 105.5v91q0 69 -29 105t-87 36q-57 0 -86 -36t-29 -105v-91q0 -69 29 -105.5t86 -36.5z" />
    <glyph glyph-name="guillemotright" unicode="&#xbb;" horiz-adv-x="1023" 
d="M468 83l272 407l-272 403h243l261 -378v-46l-261 -386h-243zM27 83l272 407l-272 403h243l261 -378v-46l-261 -386h-243z" />
    <glyph glyph-name="onequarter" unicode="&#xbc;" horiz-adv-x="1427" 
d="M194 600v501h-9l-161 -82l6 167l181 92h158v-678h-175zM114 0l878 1278h200l-876 -1278h-202zM1157 0v383l5 175h-13l-189 -305v-56l-79 49h529v-140h-628v151l271 421h270v-678h-166z" />
    <glyph glyph-name="onehalf" unicode="&#xbd;" horiz-adv-x="1468" 
d="M194 600v501h-9l-161 -82l6 167l181 92h158v-678h-175zM114 0l878 1278h200l-876 -1278h-202zM903 0v150l195 148q43 32 74.5 59t49 52.5t17.5 53.5v6q0 35 -26.5 55.5t-93.5 20.5q-59 0 -112.5 -15t-96.5 -33l15 148q40 21 101.5 35.5t128.5 14.5q132 0 200.5 -54
t68.5 -148v-9q0 -52 -20 -93.5t-57.5 -79t-94.5 -78.5l-109 -79v-32l-83 25h372v-147h-529z" />
    <glyph glyph-name="threequarters" unicode="&#xbe;" horiz-adv-x="1606" 
d="M278 582q-71 0 -131.5 12.5t-96.5 26.5l-15 149q42 -16 98 -29t117 -13q82 0 110.5 21t28.5 54v4q0 16 -6 29t-19.5 21.5t-36.5 13.5t-58 6l-138 3v128l135 3q66 2 93.5 18.5t27.5 49.5v5q0 32 -27 49t-100 17q-67 0 -124 -13.5t-97 -27.5l16 140q41 18 100.5 31.5
t133.5 13.5q143 0 214 -46.5t71 -134.5v-8q0 -60 -33 -98t-104 -49v-20l-9 15q79 -12 115 -52t36 -108v-10q0 -59 -32 -104.5t-99 -71t-170 -25.5zM294 0l878 1278h200l-876 -1278h-202zM1337 0v383l5 175h-13l-189 -305v-56l-79 49h529v-140h-628v151l271 421h270v-678
h-166z" />
    <glyph glyph-name="questiondown" unicode="&#xbf;" horiz-adv-x="914" 
d="M661 581v-221l-91 -19q-88 -18 -140.5 -47.5t-75.5 -73t-23 -104.5v-43q0 -86 48 -131t163 -45q90 0 175 23.5t159 56.5l-28 -222q-36 -18 -90 -36t-120.5 -30t-143.5 -12q-215 0 -320 97t-105 278v58q0 135 52 223t155 141t256 82zM558 1005q73 0 108 -38.5t35 -108.5
v-10q0 -68 -35 -107t-108 -39q-72 0 -107.5 39t-35.5 107v10q0 70 35.5 108.5t107.5 38.5z" />
    <glyph glyph-name="Agrave" unicode="&#xc0;" horiz-adv-x="1216" 
d="M32 0l377 1278h399l376 -1278h-265l-298 1105h-24l-300 -1105h-265zM318 326v209h578v-209h-578zM502 1652l228 -262v-3h-232l-277 262v3h281z" />
    <glyph glyph-name="Aacute" unicode="&#xc1;" horiz-adv-x="1216" 
d="M32 0l377 1278h399l376 -1278h-265l-298 1105h-24l-300 -1105h-265zM318 326v209h578v-209h-578zM713 1652h282v-3l-278 -262h-232v3z" />
    <glyph glyph-name="Acircumflex" unicode="&#xc2;" horiz-adv-x="1216" 
d="M32 0l377 1278h399l376 -1278h-265l-298 1105h-24l-300 -1105h-265zM318 326v209h578v-209h-578zM478 1652h262l211 -261v-4h-205l-133 136h-8l-133 -136h-205v4z" />
    <glyph glyph-name="Atilde" unicode="&#xc3;" horiz-adv-x="1216" 
d="M32 0l377 1278h399l376 -1278h-265l-298 1105h-24l-300 -1105h-265zM318 326v209h578v-209h-578zM747 1402q-37 0 -72 8.5t-67 20t-60.5 20t-53.5 8.5q-28 0 -40 -16t-12 -47v-6h-149v33q0 92 40 148t138 56q38 0 73.5 -9t66.5 -20.5t59.5 -20.5t52.5 -9q29 0 40 16
t11 48v6h149v-32q0 -93 -39.5 -148.5t-136.5 -55.5z" />
    <glyph glyph-name="Adieresis" unicode="&#xc4;" horiz-adv-x="1216" 
d="M32 0l377 1278h399l376 -1278h-265l-298 1105h-24l-300 -1105h-265zM318 326v209h578v-209h-578zM440 1397q-60 0 -90 32.5t-30 91.5v7q0 59 30 91.5t90 32.5q63 0 92.5 -32.5t29.5 -91.5v-7q0 -59 -29.5 -91.5t-92.5 -32.5zM775 1397q-61 0 -90.5 32.5t-29.5 91.5v7
q0 59 29.5 91.5t90.5 32.5t91 -32.5t30 -91.5v-7q0 -59 -30 -91.5t-91 -32.5z" />
    <glyph glyph-name="Aring" unicode="&#xc5;" horiz-adv-x="1216" 
d="M32 0l377 1278h399l376 -1278h-265l-298 1105h-24l-300 -1105h-265zM318 326v209h578v-209h-578zM394 1524v5q0 79 52 127.5t162 48.5t162 -48.5t52 -127.5v-5q0 -78 -52 -127t-162 -49t-162 49t-52 127zM528 1525q0 -32 20.5 -50t59.5 -18t59.5 18t20.5 50v3
q0 33 -20.5 50.5t-59.5 17.5t-59.5 -17.5t-20.5 -50.5v-3z" />
    <glyph glyph-name="AE" unicode="&#xc6;" horiz-adv-x="1810" 
d="M28 0l609 1278h273l-1 -173h-91l-512 -1105h-278zM345 326v209h578v-209h-578zM939 0v219h785v-219h-785zM863 0v1278h257v-1278h-257zM1013 543v213h688v-213h-688zM939 1061v217h777v-217h-777z" />
    <glyph glyph-name="Ccedilla" unicode="&#xc7;" horiz-adv-x="1033" 
d="M603 -27q-260 0 -388.5 141t-128.5 401v252q0 258 128.5 398t387.5 140q74 0 135 -12t110.5 -31.5t86.5 -42.5l20 -231q-59 36 -133 62t-173 26q-148 0 -221 -83t-73 -234v-234q0 -150 74 -233.5t229 -83.5q97 0 172 26t135 64l-20 -235q-36 -23 -87 -43.5t-114.5 -33.5
t-139.5 -13zM652 23l-24 -163l-101 60q19 2 38.5 2.5t38.5 -0.5q105 -2 155 -40t50 -110v-6q0 -83 -60.5 -122.5t-176.5 -39.5q-42 0 -82 5.5t-70 12.5l-25 139q31 -9 66 -14t71 -5q49 0 73.5 10.5t24.5 32.5v2q0 26 -32.5 37t-120.5 15q-7 1 -9.5 1h-3.5l24 183h164z" />
    <glyph glyph-name="Egrave" unicode="&#xc8;" horiz-adv-x="1075" 
d="M127 0v1278h258v-1278h-258zM204 0v219h785v-219h-785zM277 543v213h689v-213h-689zM203 1061v217h778v-217h-778zM455 1652l228 -262v-3h-232l-277 262v3h281z" />
    <glyph glyph-name="Eacute" unicode="&#xc9;" horiz-adv-x="1075" 
d="M127 0v1278h258v-1278h-258zM204 0v219h785v-219h-785zM277 543v213h689v-213h-689zM203 1061v217h778v-217h-778zM666 1652h282v-3l-278 -262h-232v3z" />
    <glyph glyph-name="Ecircumflex" unicode="&#xca;" horiz-adv-x="1075" 
d="M127 0v1278h258v-1278h-258zM204 0v219h785v-219h-785zM277 543v213h689v-213h-689zM203 1061v217h778v-217h-778zM431 1652h262l211 -261v-4h-205l-133 136h-8l-133 -136h-205v4z" />
    <glyph glyph-name="Edieresis" unicode="&#xcb;" horiz-adv-x="1075" 
d="M127 0v1278h258v-1278h-258zM204 0v219h785v-219h-785zM277 543v213h689v-213h-689zM203 1061v217h778v-217h-778zM393 1397q-60 0 -90 32.5t-30 91.5v7q0 59 30 91.5t90 32.5q63 0 92.5 -32.5t29.5 -91.5v-7q0 -59 -29.5 -91.5t-92.5 -32.5zM728 1397q-61 0 -90.5 32.5
t-29.5 91.5v7q0 59 29.5 91.5t90.5 32.5t91 -32.5t30 -91.5v-7q0 -59 -30 -91.5t-91 -32.5z" />
    <glyph glyph-name="Igrave" unicode="&#xcc;" horiz-adv-x="519" 
d="M391 0h-263v1278h263v-1278zM154 1652l228 -262v-3h-232l-277 262v3h281z" />
    <glyph glyph-name="Iacute" unicode="&#xcd;" horiz-adv-x="519" 
d="M391 0h-263v1278h263v-1278zM364 1652h282v-3l-278 -262h-232v3z" />
    <glyph glyph-name="Icircumflex" unicode="&#xce;" horiz-adv-x="519" 
d="M391 0h-263v1278h263v-1278zM129 1652h262l211 -261v-4h-205l-133 136h-8l-133 -136h-205v4z" />
    <glyph glyph-name="Idieresis" unicode="&#xcf;" horiz-adv-x="519" 
d="M391 0h-263v1278h263v-1278zM92 1397q-60 0 -90 32.5t-30 91.5v7q0 59 30 91.5t90 32.5q63 0 92.5 -32.5t29.5 -91.5v-7q0 -59 -29.5 -91.5t-92.5 -32.5zM427 1397q-61 0 -90.5 32.5t-29.5 91.5v7q0 59 29.5 91.5t90.5 32.5t91 -32.5t30 -91.5v-7q0 -59 -30 -91.5
t-91 -32.5z" />
    <glyph glyph-name="Eth" unicode="&#xd0;" horiz-adv-x="1222" 
d="M4 570v165h642v-166zM310 0v220h290q137 0 205.5 74.5t68.5 213.5v265q0 139 -68.5 213t-205.5 74h-291v218h300q264 0 397 -130t133 -374v-267q0 -245 -132.5 -376t-397.5 -131h-299zM127 0v1278h259v-1278h-259z" />
    <glyph glyph-name="Ntilde" unicode="&#xd1;" horiz-adv-x="1283" 
d="M500 1278l402 -992h13l-11 545v447h251v-1278h-362l-412 1010h-13l11 -562v-448h-252v1278h373zM784 1402q-37 0 -72 8.5t-67 20t-60.5 20t-53.5 8.5q-28 0 -40 -16t-12 -47v-6h-149v33q0 92 40 148t138 56q38 0 73.5 -9t66.5 -20.5t59.5 -20.5t52.5 -9q29 0 40 16t11 48
v6h149v-32q0 -93 -39.5 -148.5t-136.5 -55.5z" />
    <glyph glyph-name="Ograve" unicode="&#xd2;" horiz-adv-x="1245" 
d="M622 -29q-265 0 -400.5 138.5t-135.5 396.5v260q0 259 135.5 399t400.5 140t400.5 -140t135.5 -399v-260q0 -258 -135 -396.5t-401 -138.5zM622 189q135 0 202 80t67 225v284q0 150 -67 230.5t-202 80.5q-134 0 -201 -80.5t-67 -230.5v-284q0 -145 67 -225t201 -80z
M516 1652l228 -262v-3h-232l-277 262v3h281z" />
    <glyph glyph-name="Oacute" unicode="&#xd3;" horiz-adv-x="1245" 
d="M622 -29q-265 0 -400.5 138.5t-135.5 396.5v260q0 259 135.5 399t400.5 140t400.5 -140t135.5 -399v-260q0 -258 -135 -396.5t-401 -138.5zM622 189q135 0 202 80t67 225v284q0 150 -67 230.5t-202 80.5q-134 0 -201 -80.5t-67 -230.5v-284q0 -145 67 -225t201 -80z
M726 1652h282v-3l-278 -262h-232v3z" />
    <glyph glyph-name="Ocircumflex" unicode="&#xd4;" horiz-adv-x="1245" 
d="M622 -29q-265 0 -400.5 138.5t-135.5 396.5v260q0 259 135.5 399t400.5 140t400.5 -140t135.5 -399v-260q0 -258 -135 -396.5t-401 -138.5zM622 189q135 0 202 80t67 225v284q0 150 -67 230.5t-202 80.5q-134 0 -201 -80.5t-67 -230.5v-284q0 -145 67 -225t201 -80z
M491 1652h262l211 -261v-4h-205l-133 136h-8l-133 -136h-205v4z" />
    <glyph glyph-name="Otilde" unicode="&#xd5;" horiz-adv-x="1245" 
d="M622 -29q-265 0 -400.5 138.5t-135.5 396.5v260q0 259 135.5 399t400.5 140t400.5 -140t135.5 -399v-260q0 -258 -135 -396.5t-401 -138.5zM622 189q135 0 202 80t67 225v284q0 150 -67 230.5t-202 80.5q-134 0 -201 -80.5t-67 -230.5v-284q0 -145 67 -225t201 -80z
M761 1402q-37 0 -72 8.5t-67 20t-60.5 20t-53.5 8.5q-28 0 -40 -16t-12 -47v-6h-149v33q0 92 40 148t138 56q38 0 73.5 -9t66.5 -20.5t59.5 -20.5t52.5 -9q29 0 40 16t11 48v6h149v-32q0 -93 -39.5 -148.5t-136.5 -55.5z" />
    <glyph glyph-name="Odieresis" unicode="&#xd6;" horiz-adv-x="1245" 
d="M622 -29q-265 0 -400.5 138.5t-135.5 396.5v260q0 259 135.5 399t400.5 140t400.5 -140t135.5 -399v-260q0 -258 -135 -396.5t-401 -138.5zM622 189q135 0 202 80t67 225v284q0 150 -67 230.5t-202 80.5q-134 0 -201 -80.5t-67 -230.5v-284q0 -145 67 -225t201 -80z
M454 1397q-60 0 -90 32.5t-30 91.5v7q0 59 30 91.5t90 32.5q63 0 92.5 -32.5t29.5 -91.5v-7q0 -59 -29.5 -91.5t-92.5 -32.5zM789 1397q-61 0 -90.5 32.5t-29.5 91.5v7q0 59 29.5 91.5t90.5 32.5t91 -32.5t30 -91.5v-7q0 -59 -30 -91.5t-91 -32.5z" />
    <glyph glyph-name="multiply" unicode="&#xd7;" horiz-adv-x="963" 
d="M890 346l-147 -133l-666 675l147 132zM73 346l666 674l146 -132l-666 -675z" />
    <glyph glyph-name="Oslash" unicode="&#xd8;" horiz-adv-x="1245" 
d="M624 -29q-170 0 -290 64t-184 185t-64 290v257q0 259 136 399t398 140q171 0 291 -65t183.5 -185.5t63.5 -288.5v-257q0 -261 -135.5 -400t-398.5 -139zM100 -71l170 256l57 77l501 872l36 64l98 151h183l-166 -251l-54 -76l-499 -872l-30 -46l-113 -175h-183zM622 187
q135 0 202.5 81t67.5 231v283q0 148 -64 228t-206 80q-135 0 -202 -81t-67 -231v-283q0 -150 64.5 -229t204.5 -79z" />
    <glyph glyph-name="Ugrave" unicode="&#xd9;" horiz-adv-x="1263" 
d="M632 -29q-264 0 -389 129.5t-125 378.5v799h263v-805q0 -137 59.5 -208.5t191.5 -71.5q131 0 190.5 71.5t59.5 208.5v805h263v-799q0 -249 -125 -378.5t-388 -129.5zM525 1652l228 -262v-3h-232l-277 262v3h281z" />
    <glyph glyph-name="Uacute" unicode="&#xda;" horiz-adv-x="1263" 
d="M632 -29q-264 0 -389 129.5t-125 378.5v799h263v-805q0 -137 59.5 -208.5t191.5 -71.5q131 0 190.5 71.5t59.5 208.5v805h263v-799q0 -249 -125 -378.5t-388 -129.5zM736 1652h282v-3l-278 -262h-232v3z" />
    <glyph glyph-name="Ucircumflex" unicode="&#xdb;" horiz-adv-x="1263" 
d="M632 -29q-264 0 -389 129.5t-125 378.5v799h263v-805q0 -137 59.5 -208.5t191.5 -71.5q131 0 190.5 71.5t59.5 208.5v805h263v-799q0 -249 -125 -378.5t-388 -129.5zM501 1652h262l211 -261v-4h-205l-133 136h-8l-133 -136h-205v4z" />
    <glyph glyph-name="Udieresis" unicode="&#xdc;" horiz-adv-x="1263" 
d="M632 -29q-264 0 -389 129.5t-125 378.5v799h263v-805q0 -137 59.5 -208.5t191.5 -71.5q131 0 190.5 71.5t59.5 208.5v805h263v-799q0 -249 -125 -378.5t-388 -129.5zM464 1397q-60 0 -90 32.5t-30 91.5v7q0 59 30 91.5t90 32.5q63 0 92.5 -32.5t29.5 -91.5v-7
q0 -59 -29.5 -91.5t-92.5 -32.5zM799 1397q-61 0 -90.5 32.5t-29.5 91.5v7q0 59 29.5 91.5t90.5 32.5t91 -32.5t30 -91.5v-7q0 -59 -30 -91.5t-91 -32.5z" />
    <glyph glyph-name="Yacute" unicode="&#xdd;" horiz-adv-x="1145" 
d="M457 351l-439 927h276l187 -421l84 -210h15l84 210l186 421h276l-437 -927h-232zM444 0v589h258v-589h-258zM676 1652h282v-3l-278 -262h-232v3z" />
    <glyph glyph-name="Thorn" unicode="&#xde;" horiz-adv-x="1160" 
d="M302 196v214h326q108 0 156.5 50.5t48.5 146.5v73q0 98 -48 147.5t-156 49.5h-327v213h342q233 0 341.5 -105t108.5 -298v-88q0 -193 -108.5 -298t-341.5 -105h-342zM127 0v1278h258v-238v-100v-599v-95v-246h-258z" />
    <glyph glyph-name="germandbls" unicode="&#xdf;" horiz-adv-x="1186" 
d="M112 977q0 124 42.5 207.5t136.5 125.5t248 42q122 0 213.5 -31.5t143 -95t51.5 -159.5q0 -58 -21 -100.5t-51.5 -75.5t-61 -61t-51.5 -55.5t-21 -58.5v-4q0 -42 33 -67t122 -62q75 -30 126 -64t77 -86.5t26 -137.5v-13q0 -100 -45.5 -166.5t-129.5 -99.5t-198 -33
q-73 0 -133.5 11.5t-107.5 28.5l-22 216q54 -21 110.5 -35t120.5 -14q78 0 116 26.5t38 75.5v7q0 32 -13.5 54t-46.5 41t-90 42q-82 33 -133.5 65t-75 75t-23.5 110v4q0 55 20.5 97.5t50.5 76t60 63t50.5 58t20.5 61.5q0 32 -17 56t-51.5 37t-88.5 13q-65 0 -103 -21.5
t-53.5 -62.5t-15.5 -100v-967h-253v977z" />
    <glyph glyph-name="agrave" unicode="&#xe0;" horiz-adv-x="1031" 
d="M680 0l9 240l-7 22v307l-1 44q0 96 -52.5 141t-171.5 45q-101 0 -189.5 -26.5t-163.5 -61.5l22 204q44 23 100.5 43.5t126.5 33.5t151 13q120 0 203 -28.5t132.5 -81.5t71.5 -126.5t22 -162.5v-606h-253zM359 -23q-146 0 -222.5 73t-76.5 208v28q0 143 88 211.5t279 94.5
l278 38l15 -165l-256 -37q-84 -11 -119.5 -40t-35.5 -85v-10q0 -55 34.5 -85.5t108.5 -30.5q66 0 113 21t77.5 55.5t43.5 77.5l36 -127h-44q-16 -63 -51.5 -114.5t-99.5 -82t-168 -30.5zM441 1371l182 -282v-3h-216l-237 282v3h271z" />
    <glyph glyph-name="aacute" unicode="&#xe1;" horiz-adv-x="1031" 
d="M680 0l9 240l-7 22v307l-1 44q0 96 -52.5 141t-171.5 45q-101 0 -189.5 -26.5t-163.5 -61.5l22 204q44 23 100.5 43.5t126.5 33.5t151 13q120 0 203 -28.5t132.5 -81.5t71.5 -126.5t22 -162.5v-606h-253zM359 -23q-146 0 -222.5 73t-76.5 208v28q0 143 88 211.5t279 94.5
l278 38l15 -165l-256 -37q-84 -11 -119.5 -40t-35.5 -85v-10q0 -55 34.5 -85.5t108.5 -30.5q66 0 113 21t77.5 55.5t43.5 77.5l36 -127h-44q-16 -63 -51.5 -114.5t-99.5 -82t-168 -30.5zM579 1371h272v-3l-237 -282h-216v3z" />
    <glyph glyph-name="acircumflex" unicode="&#xe2;" horiz-adv-x="1031" 
d="M680 0l9 240l-7 22v307l-1 44q0 96 -52.5 141t-171.5 45q-101 0 -189.5 -26.5t-163.5 -61.5l22 204q44 23 100.5 43.5t126.5 33.5t151 13q120 0 203 -28.5t132.5 -81.5t71.5 -126.5t22 -162.5v-606h-253zM359 -23q-146 0 -222.5 73t-76.5 208v28q0 143 88 211.5t279 94.5
l278 38l15 -165l-256 -37q-84 -11 -119.5 -40t-35.5 -85v-10q0 -55 34.5 -85.5t108.5 -30.5q66 0 113 21t77.5 55.5t43.5 77.5l36 -127h-44q-16 -63 -51.5 -114.5t-99.5 -82t-168 -30.5zM376 1371h269l182 -282v-3h-194l-118 155h-9l-119 -155h-193v3z" />
    <glyph glyph-name="atilde" unicode="&#xe3;" horiz-adv-x="1031" 
d="M680 0l9 240l-7 22v307l-1 44q0 96 -52.5 141t-171.5 45q-101 0 -189.5 -26.5t-163.5 -61.5l22 204q44 23 100.5 43.5t126.5 33.5t151 13q120 0 203 -28.5t132.5 -81.5t71.5 -126.5t22 -162.5v-606h-253zM359 -23q-146 0 -222.5 73t-76.5 208v28q0 143 88 211.5t279 94.5
l278 38l15 -165l-256 -37q-84 -11 -119.5 -40t-35.5 -85v-10q0 -55 34.5 -85.5t108.5 -30.5q66 0 113 21t77.5 55.5t43.5 77.5l36 -127h-44q-16 -63 -51.5 -114.5t-99.5 -82t-168 -30.5zM643 1104q-36 0 -69.5 9t-64.5 22t-59 22.5t-51 9.5q-28 0 -39.5 -16.5t-11.5 -49.5
v-9h-149v36q0 95 39.5 152.5t137.5 57.5q38 0 72 -10t64.5 -22.5t57.5 -22t50 -9.5q28 0 39 17t11 49v10h150v-39q0 -95 -40 -151t-137 -56z" />
    <glyph glyph-name="adieresis" unicode="&#xe4;" horiz-adv-x="1031" 
d="M680 0l9 240l-7 22v307l-1 44q0 96 -52.5 141t-171.5 45q-101 0 -189.5 -26.5t-163.5 -61.5l22 204q44 23 100.5 43.5t126.5 33.5t151 13q120 0 203 -28.5t132.5 -81.5t71.5 -126.5t22 -162.5v-606h-253zM359 -23q-146 0 -222.5 73t-76.5 208v28q0 143 88 211.5t279 94.5
l278 38l15 -165l-256 -37q-84 -11 -119.5 -40t-35.5 -85v-10q0 -55 34.5 -85.5t108.5 -30.5q66 0 113 21t77.5 55.5t43.5 77.5l36 -127h-44q-16 -63 -51.5 -114.5t-99.5 -82t-168 -30.5zM342 1099q-60 0 -90 32.5t-30 91.5v7q0 59 30 91.5t90 32.5q63 0 92.5 -32.5
t29.5 -91.5v-7q0 -59 -29.5 -91.5t-92.5 -32.5zM677 1099q-61 0 -90.5 32.5t-29.5 91.5v7q0 59 29.5 91.5t90.5 32.5t91 -32.5t30 -91.5v-7q0 -59 -30 -91.5t-91 -32.5z" />
    <glyph glyph-name="aring" unicode="&#xe5;" horiz-adv-x="1031" 
d="M680 0l9 240l-7 22v307l-1 44q0 96 -52.5 141t-171.5 45q-101 0 -189.5 -26.5t-163.5 -61.5l22 204q44 23 100.5 43.5t126.5 33.5t151 13q120 0 203 -28.5t132.5 -81.5t71.5 -126.5t22 -162.5v-606h-253zM359 -23q-146 0 -222.5 73t-76.5 208v28q0 143 88 211.5t279 94.5
l278 38l15 -165l-256 -37q-84 -11 -119.5 -40t-35.5 -85v-10q0 -55 34.5 -85.5t108.5 -30.5q66 0 113 21t77.5 55.5t43.5 77.5l36 -127h-44q-16 -63 -51.5 -114.5t-99.5 -82t-168 -30.5zM296 1246v5q0 79 52 127.5t162 48.5t162 -48.5t52 -127.5v-5q0 -78 -52 -127t-162 -49
t-162 49t-52 127zM430 1247q0 -32 20.5 -50t59.5 -18t59.5 18t20.5 50v3q0 33 -20.5 50.5t-59.5 17.5t-59.5 -17.5t-20.5 -50.5v-3z" />
    <glyph glyph-name="ae" unicode="&#xe6;" horiz-adv-x="1645" 
d="M1186 -25q-201 0 -318 72.5t-154 200.5l-20 48q-7 53 -9 104.5t-2 105.5l-2 107q0 96 -55 141t-169 45q-101 0 -189.5 -26.5t-163.5 -61.5l22 205q41 22 93.5 43t117 33.5t138.5 12.5q138 0 215.5 -55.5t107.5 -146.5h8q39 94 127 150t227 56q137 0 229.5 -52t139 -147.5
t46.5 -228.5v-35q0 -36 -3 -73.5t-9 -71.5h-232q2 56 3 104.5t1 89.5q0 70 -22 118t-67 73.5t-114 25.5q-103 0 -152.5 -60t-49.5 -161v-90l1 -28v-72q0 -47 15 -87t50 -69.5t92 -46t141 -16.5q91 0 173.5 20.5t157.5 54.5l-22 -201q-65 -37 -154.5 -59t-197.5 -22zM371 -23
q-156 0 -233.5 74t-77.5 207v28q0 143 88.5 211.5t278.5 94.5l278 38l15 -165l-256 -37q-84 -11 -119.5 -40t-35.5 -85v-10q0 -55 34.5 -85.5t108.5 -30.5q69 0 118 20.5t81 56t46 78.5l75 -141h-43q-26 -60 -68.5 -108t-112.5 -77t-177 -29zM818 401v171h693v-171h-693z
" />
    <glyph glyph-name="ccedilla" unicode="&#xe7;" horiz-adv-x="885" 
d="M521 -25q-227 0 -336.5 120t-109.5 337v120q0 216 110 335t336 119q59 0 110.5 -9.5t94 -25.5t74.5 -34l21 -215q-49 31 -109.5 52t-139.5 21q-124 0 -181.5 -63.5t-57.5 -184.5v-106q0 -120 59.5 -185t183.5 -65q79 0 140 20.5t114 50.5l-21 -216q-49 -28 -123 -49.5
t-165 -21.5zM577 27l-24 -163l-101 60q19 2 38.5 2.5t38.5 -0.5q105 -2 155 -40t50 -110v-6q0 -83 -60.5 -122.5t-176.5 -39.5q-42 0 -82 5.5t-70 12.5l-25 139q31 -9 66 -14t71 -5q49 0 73.5 10.5t24.5 32.5v2q0 26 -32.5 37t-120.5 15q-7 1 -9.5 1h-3.5l24 183h164z" />
    <glyph glyph-name="egrave" unicode="&#xe8;" horiz-adv-x="1038" 
d="M573 -24q-252 0 -375 116t-123 336v128q0 218 115 335t334 117q148 0 247 -52t148.5 -147.5t49.5 -228.5v-35q0 -36 -3.5 -73.5t-9.5 -70.5h-232q3 55 3.5 104.5t0.5 89.5q0 69 -22 117.5t-67 73.5t-115 25q-103 0 -152 -57t-49 -162v-91l1 -29v-77q0 -46 14.5 -85
t48.5 -67.5t90.5 -44.5t141.5 -16q92 0 175.5 20.5t158.5 55.5l-22 -202q-67 -37 -157.5 -58.5t-200.5 -21.5zM211 401v170h693v-170h-693zM461 1371l182 -282v-3h-216l-237 282v3h271z" />
    <glyph glyph-name="eacute" unicode="&#xe9;" horiz-adv-x="1038" 
d="M573 -24q-252 0 -375 116t-123 336v128q0 218 115 335t334 117q148 0 247 -52t148.5 -147.5t49.5 -228.5v-35q0 -36 -3.5 -73.5t-9.5 -70.5h-232q3 55 3.5 104.5t0.5 89.5q0 69 -22 117.5t-67 73.5t-115 25q-103 0 -152 -57t-49 -162v-91l1 -29v-77q0 -46 14.5 -85
t48.5 -67.5t90.5 -44.5t141.5 -16q92 0 175.5 20.5t158.5 55.5l-22 -202q-67 -37 -157.5 -58.5t-200.5 -21.5zM211 401v170h693v-170h-693zM599 1371h272v-3l-237 -282h-216v3z" />
    <glyph glyph-name="ecircumflex" unicode="&#xea;" horiz-adv-x="1038" 
d="M573 -24q-252 0 -375 116t-123 336v128q0 218 115 335t334 117q148 0 247 -52t148.5 -147.5t49.5 -228.5v-35q0 -36 -3.5 -73.5t-9.5 -70.5h-232q3 55 3.5 104.5t0.5 89.5q0 69 -22 117.5t-67 73.5t-115 25q-103 0 -152 -57t-49 -162v-91l1 -29v-77q0 -46 14.5 -85
t48.5 -67.5t90.5 -44.5t141.5 -16q92 0 175.5 20.5t158.5 55.5l-22 -202q-67 -37 -157.5 -58.5t-200.5 -21.5zM211 401v170h693v-170h-693zM396 1371h269l182 -282v-3h-194l-118 155h-9l-119 -155h-193v3z" />
    <glyph glyph-name="edieresis" unicode="&#xeb;" horiz-adv-x="1038" 
d="M573 -24q-252 0 -375 116t-123 336v128q0 218 115 335t334 117q148 0 247 -52t148.5 -147.5t49.5 -228.5v-35q0 -36 -3.5 -73.5t-9.5 -70.5h-232q3 55 3.5 104.5t0.5 89.5q0 69 -22 117.5t-67 73.5t-115 25q-103 0 -152 -57t-49 -162v-91l1 -29v-77q0 -46 14.5 -85
t48.5 -67.5t90.5 -44.5t141.5 -16q92 0 175.5 20.5t158.5 55.5l-22 -202q-67 -37 -157.5 -58.5t-200.5 -21.5zM211 401v170h693v-170h-693zM363 1099q-60 0 -90 32.5t-30 91.5v7q0 59 30 91.5t90 32.5q63 0 92.5 -32.5t29.5 -91.5v-7q0 -59 -29.5 -91.5t-92.5 -32.5z
M698 1099q-61 0 -90.5 32.5t-29.5 91.5v7q0 59 29.5 91.5t90.5 32.5t91 -32.5t30 -91.5v-7q0 -59 -30 -91.5t-91 -32.5z" />
    <glyph glyph-name="igrave" unicode="&#xec;" horiz-adv-x="483" 
d="M114 0v981h256v-981h-256zM243 1371l100 -283v-2h-205l-151 282v3h256z" />
    <glyph glyph-name="iacute" unicode="&#xed;" horiz-adv-x="483" 
d="M114 0v981h256v-981h-256zM241 1371h255v-3l-151 -282h-204v2z" />
    <glyph glyph-name="icircumflex" unicode="&#xee;" horiz-adv-x="483" 
d="M114 0v981h256v-981h-256zM113 1371h257l148 -282v-3h-184l-89 153h-7l-90 -153h-184v3z" />
    <glyph glyph-name="idieresis" unicode="&#xef;" horiz-adv-x="483" 
d="M114 0v981h256v-981h-256zM97 1099q-57 0 -85.5 32t-28.5 91v9q0 58 28.5 90.5t85.5 32.5t86 -32.5t29 -90.5v-9q0 -59 -29 -91t-86 -32zM388 1099q-58 0 -86.5 32t-28.5 91v9q0 58 28.5 90.5t86.5 32.5q56 0 85 -32.5t29 -90.5v-9q0 -59 -29 -91t-85 -32z" />
    <glyph glyph-name="eth" unicode="&#xf0;" horiz-adv-x="1074" 
d="M538 -27q-227 0 -345 117t-118 337v50q0 205 101 318.5t272 113.5q71 0 121.5 -19t84.5 -53.5t55 -80.5l72 9l-39 -287q0 57 -13.5 101t-39.5 73.5t-65 45t-90 15.5q-100 0 -151 -60.5t-51 -174.5v-64q0 -115 52.5 -175.5t152.5 -60.5q101 0 153 60.5t52 175.5v64.5v74.5
q-1 40 -2.5 69.5t-2.5 67.5q-8 73 -45.5 141t-103 141t-158 158t-210.5 191v1h311q110 -102 197 -192t147 -181t92 -192t32 -224v-102q0 -223 -117 -340.5t-344 -117.5zM193 973v141l755 164v-139z" />
    <glyph glyph-name="ntilde" unicode="&#xf1;" horiz-adv-x="1109" 
d="M751 0v589q0 62 -16.5 107t-54.5 70t-104 25q-58 0 -101.5 -21t-71 -56.5t-41.5 -80.5l-40 140h48q16 65 53.5 117t102 82.5t161.5 30.5q113 0 183 -42.5t103.5 -126.5t33.5 -208v-626h-256zM112 0v981h256l-10 -239l10 -21v-721h-256zM688 1104q-36 0 -69.5 9t-64.5 22
t-59 22.5t-51 9.5q-28 0 -39.5 -16.5t-11.5 -49.5v-9h-149v36q0 95 39.5 152.5t137.5 57.5q38 0 72 -10t64.5 -22.5t57.5 -22t50 -9.5q28 0 39 17t11 49v10h150v-39q0 -95 -40 -151t-137 -56z" />
    <glyph glyph-name="ograve" unicode="&#xf2;" horiz-adv-x="1074" 
d="M538 -27q-228 0 -345.5 117t-117.5 333v133q0 217 117.5 334.5t345.5 117.5q227 0 344 -117.5t117 -334.5v-133q0 -216 -116.5 -333t-344.5 -117zM538 178q100 0 152.5 60t52.5 172v159q0 114 -52.5 174.5t-152.5 60.5q-101 0 -153.5 -60.5t-52.5 -174.5v-159
q0 -112 52.5 -172t153.5 -60zM469 1371l182 -282v-3h-216l-237 282v3h271z" />
    <glyph glyph-name="oacute" unicode="&#xf3;" horiz-adv-x="1074" 
d="M538 -27q-228 0 -345.5 117t-117.5 333v133q0 217 117.5 334.5t345.5 117.5q227 0 344 -117.5t117 -334.5v-133q0 -216 -116.5 -333t-344.5 -117zM538 178q100 0 152.5 60t52.5 172v159q0 114 -52.5 174.5t-152.5 60.5q-101 0 -153.5 -60.5t-52.5 -174.5v-159
q0 -112 52.5 -172t153.5 -60zM606 1371h272v-3l-237 -282h-216v3z" />
    <glyph glyph-name="ocircumflex" unicode="&#xf4;" horiz-adv-x="1074" 
d="M538 -27q-228 0 -345.5 117t-117.5 333v133q0 217 117.5 334.5t345.5 117.5q227 0 344 -117.5t117 -334.5v-133q0 -216 -116.5 -333t-344.5 -117zM538 178q100 0 152.5 60t52.5 172v159q0 114 -52.5 174.5t-152.5 60.5q-101 0 -153.5 -60.5t-52.5 -174.5v-159
q0 -112 52.5 -172t153.5 -60zM403 1371h269l182 -282v-3h-194l-118 155h-9l-119 -155h-193v3z" />
    <glyph glyph-name="otilde" unicode="&#xf5;" horiz-adv-x="1074" 
d="M538 -27q-228 0 -345.5 117t-117.5 333v133q0 217 117.5 334.5t345.5 117.5q227 0 344 -117.5t117 -334.5v-133q0 -216 -116.5 -333t-344.5 -117zM538 178q100 0 152.5 60t52.5 172v159q0 114 -52.5 174.5t-152.5 60.5q-101 0 -153.5 -60.5t-52.5 -174.5v-159
q0 -112 52.5 -172t153.5 -60zM671 1104q-36 0 -69.5 9t-64.5 22t-59 22.5t-51 9.5q-28 0 -39.5 -16.5t-11.5 -49.5v-9h-149v36q0 95 39.5 152.5t137.5 57.5q38 0 72 -10t64.5 -22.5t57.5 -22t50 -9.5q28 0 39 17t11 49v10h150v-39q0 -95 -40 -151t-137 -56z" />
    <glyph glyph-name="odieresis" unicode="&#xf6;" horiz-adv-x="1074" 
d="M538 -27q-228 0 -345.5 117t-117.5 333v133q0 217 117.5 334.5t345.5 117.5q227 0 344 -117.5t117 -334.5v-133q0 -216 -116.5 -333t-344.5 -117zM538 178q100 0 152.5 60t52.5 172v159q0 114 -52.5 174.5t-152.5 60.5q-101 0 -153.5 -60.5t-52.5 -174.5v-159
q0 -112 52.5 -172t153.5 -60zM370 1099q-60 0 -90 32.5t-30 91.5v7q0 59 30 91.5t90 32.5q63 0 92.5 -32.5t29.5 -91.5v-7q0 -59 -29.5 -91.5t-92.5 -32.5zM705 1099q-61 0 -90.5 32.5t-29.5 91.5v7q0 59 29.5 91.5t90.5 32.5t91 -32.5t30 -91.5v-7q0 -59 -30 -91.5
t-91 -32.5z" />
    <glyph glyph-name="divide" unicode="&#xf7;" horiz-adv-x="1013" 
d="M93 517v206h827v-206h-827zM508 143q-63 0 -92.5 33.5t-29.5 92.5v8q0 59 29.5 92.5t92.5 33.5q62 0 92.5 -33.5t30.5 -92.5v-8q0 -59 -30.5 -92.5t-92.5 -33.5zM508 837q-63 0 -92.5 33.5t-29.5 92.5v9q0 59 29.5 92t92.5 33q62 0 92.5 -33t30.5 -92v-9
q0 -59 -30.5 -92.5t-92.5 -33.5z" />
    <glyph glyph-name="oslash" unicode="&#xf8;" horiz-adv-x="1076" 
d="M538 -26q-147 0 -250.5 53.5t-158 154.5t-54.5 241v129q0 222 118.5 339t344.5 117q148 0 251.5 -53.5t157.5 -153.5t54 -241v-129q0 -222 -118 -339.5t-345 -117.5zM104 -71l143 214l56 75l387 642l37 65l84 126h161l-138 -204l-54 -74l-383 -640l-39 -64l-92 -140h-162
zM538 177q104 0 157.5 61.5t53.5 177.5v159q0 110 -52 170t-159 60q-103 0 -157 -61t-54 -176v-160q0 -110 52.5 -170.5t158.5 -60.5z" />
    <glyph glyph-name="ugrave" unicode="&#xf9;" horiz-adv-x="1109" 
d="M358 981v-590q0 -61 16.5 -106.5t55 -70t103.5 -24.5q59 0 102 21t71 56.5t41 79.5l40 -139h-48q-16 -64 -53.5 -116.5t-102 -83.5t-161.5 -31q-112 0 -182.5 43t-104 127t-33.5 207v627h256zM997 981v-981h-255l9 238l-10 21v722h256zM486 1371l182 -282v-3h-216
l-237 282v3h271z" />
    <glyph glyph-name="uacute" unicode="&#xfa;" horiz-adv-x="1109" 
d="M358 981v-590q0 -61 16.5 -106.5t55 -70t103.5 -24.5q59 0 102 21t71 56.5t41 79.5l40 -139h-48q-16 -64 -53.5 -116.5t-102 -83.5t-161.5 -31q-112 0 -182.5 43t-104 127t-33.5 207v627h256zM997 981v-981h-255l9 238l-10 21v722h256zM624 1371h272v-3l-237 -282h-216v3
z" />
    <glyph glyph-name="ucircumflex" unicode="&#xfb;" horiz-adv-x="1109" 
d="M358 981v-590q0 -61 16.5 -106.5t55 -70t103.5 -24.5q59 0 102 21t71 56.5t41 79.5l40 -139h-48q-16 -64 -53.5 -116.5t-102 -83.5t-161.5 -31q-112 0 -182.5 43t-104 127t-33.5 207v627h256zM997 981v-981h-255l9 238l-10 21v722h256zM421 1371h269l182 -282v-3h-194
l-118 155h-9l-119 -155h-193v3z" />
    <glyph glyph-name="udieresis" unicode="&#xfc;" horiz-adv-x="1109" 
d="M358 981v-590q0 -61 16.5 -106.5t55 -70t103.5 -24.5q59 0 102 21t71 56.5t41 79.5l40 -139h-48q-16 -64 -53.5 -116.5t-102 -83.5t-161.5 -31q-112 0 -182.5 43t-104 127t-33.5 207v627h256zM997 981v-981h-255l9 238l-10 21v722h256zM388 1099q-60 0 -90 32.5t-30 91.5
v7q0 59 30 91.5t90 32.5q63 0 92.5 -32.5t29.5 -91.5v-7q0 -59 -29.5 -91.5t-92.5 -32.5zM723 1099q-61 0 -90.5 32.5t-29.5 91.5v7q0 59 29.5 91.5t90.5 32.5t91 -32.5t30 -91.5v-7q0 -59 -30 -91.5t-91 -32.5z" />
    <glyph glyph-name="yacute" unicode="&#xfd;" horiz-adv-x="1030" 
d="M632 212l-137 -59l245 828h263l-421 -1325h-257l154 482l119 -96h-286l-285 939h265l203 -769h137zM584 1371h272v-3l-237 -282h-216v3z" />
    <glyph glyph-name="thorn" unicode="&#xfe;" horiz-adv-x="1111" 
d="M672 -23q-88 0 -149 28.5t-98.5 80.5t-53.5 122h-73l65 196q2 -70 28.5 -118t74 -72t111.5 -24q97 0 148 56.5t51 167.5v160q0 111 -50 167t-148 56q-56 0 -101 -21.5t-75 -57.5t-43 -83l-57 138h71q16 64 51 116.5t97.5 83t159.5 30.5q172 0 262.5 -111.5t90.5 -329.5
v-136q0 -220 -91 -334.5t-271 -114.5zM112 -344v1666h255v-323l-5 -260l1 -56v-387l-3 -48l7 -269v-323h-255z" />
    <glyph glyph-name="ydieresis" unicode="&#xff;" horiz-adv-x="1030" 
d="M632 212l-137 -59l245 828h263l-421 -1325h-257l154 482l119 -96h-286l-285 939h265l203 -769h137zM348 1099q-60 0 -90 32.5t-30 91.5v7q0 59 30 91.5t90 32.5q63 0 92.5 -32.5t29.5 -91.5v-7q0 -59 -29.5 -91.5t-92.5 -32.5zM683 1099q-61 0 -90.5 32.5t-29.5 91.5v7
q0 59 29.5 91.5t90.5 32.5t91 -32.5t30 -91.5v-7q0 -59 -30 -91.5t-91 -32.5z" />
    <glyph glyph-name="Amacron" unicode="&#x100;" horiz-adv-x="1216" 
d="M32 0l377 1278h399l376 -1278h-265l-298 1105h-24l-300 -1105h-265zM318 326v209h578v-209h-578zM306 1422v162h602v-162h-602z" />
    <glyph glyph-name="amacron" unicode="&#x101;" horiz-adv-x="1031" 
d="M680 0l9 240l-7 22v307l-1 44q0 96 -52.5 141t-171.5 45q-101 0 -189.5 -26.5t-163.5 -61.5l22 204q44 23 100.5 43.5t126.5 33.5t151 13q120 0 203 -28.5t132.5 -81.5t71.5 -126.5t22 -162.5v-606h-253zM359 -23q-146 0 -222.5 73t-76.5 208v28q0 143 88 211.5t279 94.5
l278 38l15 -165l-256 -37q-84 -11 -119.5 -40t-35.5 -85v-10q0 -55 34.5 -85.5t108.5 -30.5q66 0 113 21t77.5 55.5t43.5 77.5l36 -127h-44q-16 -63 -51.5 -114.5t-99.5 -82t-168 -30.5zM209 1127v162h602v-162h-602z" />
    <glyph glyph-name="Abreve" unicode="&#x102;" horiz-adv-x="1216" 
d="M32 0l377 1278h399l376 -1278h-265l-298 1105h-24l-300 -1105h-265zM318 326v209h578v-209h-578zM608 1379q-154 0 -223.5 71.5t-72.5 201.5h167q3 -57 34 -88.5t95 -31.5q63 0 94.5 31.5t35.5 88.5h166q-3 -130 -72 -201.5t-224 -71.5z" />
    <glyph glyph-name="abreve" unicode="&#x103;" horiz-adv-x="1031" 
d="M680 0l9 240l-7 22v307l-1 44q0 96 -52.5 141t-171.5 45q-101 0 -189.5 -26.5t-163.5 -61.5l22 204q44 23 100.5 43.5t126.5 33.5t151 13q120 0 203 -28.5t132.5 -81.5t71.5 -126.5t22 -162.5v-606h-253zM359 -23q-146 0 -222.5 73t-76.5 208v28q0 143 88 211.5t279 94.5
l278 38l15 -165l-256 -37q-84 -11 -119.5 -40t-35.5 -85v-10q0 -55 34.5 -85.5t108.5 -30.5q66 0 113 21t77.5 55.5t43.5 77.5l36 -127h-44q-16 -63 -51.5 -114.5t-99.5 -82t-168 -30.5zM510 1077q-153 0 -222.5 77t-71.5 217h168q4 -66 33.5 -102.5t92.5 -36.5t93 36
t34 103h168q-2 -140 -70.5 -217t-224.5 -77z" />
    <glyph glyph-name="Aogonek" unicode="&#x104;" horiz-adv-x="1216" 
d="M32 0l377 1278h399l376 -1278h-265l-298 1105h-24l-300 -1105h-265zM318 326v209h578v-209h-578zM1065 -363q-98 0 -156 41t-58 124v1q0 72 41 117.5t116 72.5v16l155 -5l7 -4q-65 -21 -99.5 -49.5t-34.5 -68.5v0q0 -36 25 -52.5t69 -16.5q27 0 51 4t49 12l-23 -167
q-30 -12 -66 -18.5t-76 -6.5z" />
    <glyph glyph-name="aogonek" unicode="&#x105;" horiz-adv-x="1031" 
d="M680 0l9 240l-7 22v307l-1 44q0 96 -52.5 141t-171.5 45q-101 0 -189.5 -26.5t-163.5 -61.5l22 204q44 23 100.5 43.5t126.5 33.5t151 13q120 0 203 -28.5t132.5 -81.5t71.5 -126.5t22 -162.5v-606h-253zM359 -23q-146 0 -222.5 73t-76.5 208v28q0 143 88 211.5t279 94.5
l278 38l15 -165l-256 -37q-84 -11 -119.5 -40t-35.5 -85v-10q0 -55 34.5 -85.5t108.5 -30.5q66 0 113 21t77.5 55.5t43.5 77.5l36 -127h-44q-16 -63 -51.5 -114.5t-99.5 -82t-168 -30.5zM816 -363q-97 0 -155.5 41t-58.5 123v1q0 73 41.5 118.5t115.5 72.5v23l162 1v-17
q-65 -22 -100 -50t-35 -68v-1q0 -36 25 -52t69 -16q27 0 51 4t49 11l-23 -167q-30 -11 -65.5 -17.5t-75.5 -6.5z" />
    <glyph glyph-name="Cacute" unicode="&#x106;" horiz-adv-x="1033" 
d="M603 -27q-260 0 -388.5 141t-128.5 401v252q0 258 128.5 398t387.5 140q74 0 135 -12t110.5 -31.5t86.5 -42.5l20 -231q-59 36 -133 62t-173 26q-148 0 -221 -83t-73 -234v-234q0 -150 74 -233.5t229 -83.5q97 0 172 26t135 64l-20 -235q-36 -23 -87 -43.5t-114.5 -33.5
t-139.5 -13zM668 1652h282v-3l-278 -262h-232v3z" />
    <glyph glyph-name="cacute" unicode="&#x107;" horiz-adv-x="885" 
d="M521 -25q-227 0 -336.5 120t-109.5 337v120q0 216 110 335t336 119q59 0 110.5 -9.5t94 -25.5t74.5 -34l21 -215q-49 31 -109.5 52t-139.5 21q-124 0 -181.5 -63.5t-57.5 -184.5v-106q0 -120 59.5 -185t183.5 -65q79 0 140 20.5t114 50.5l-21 -216q-49 -28 -123 -49.5
t-165 -21.5zM558 1371h272v-3l-237 -282h-216v3z" />
    <glyph glyph-name="Ccircumflex" unicode="&#x108;" horiz-adv-x="1033" 
d="M603 -27q-260 0 -388.5 141t-128.5 401v252q0 258 128.5 398t387.5 140q74 0 135 -12t110.5 -31.5t86.5 -42.5l20 -231q-59 36 -133 62t-173 26q-148 0 -221 -83t-73 -234v-234q0 -150 74 -233.5t229 -83.5q97 0 172 26t135 64l-20 -235q-36 -23 -87 -43.5t-114.5 -33.5
t-139.5 -13zM433 1652h262l211 -261v-4h-205l-133 136h-8l-133 -136h-205v4z" />
    <glyph glyph-name="ccircumflex" unicode="&#x109;" horiz-adv-x="885" 
d="M521 -25q-227 0 -336.5 120t-109.5 337v120q0 216 110 335t336 119q59 0 110.5 -9.5t94 -25.5t74.5 -34l21 -215q-49 31 -109.5 52t-139.5 21q-124 0 -181.5 -63.5t-57.5 -184.5v-106q0 -120 59.5 -185t183.5 -65q79 0 140 20.5t114 50.5l-21 -216q-49 -28 -123 -49.5
t-165 -21.5zM355 1371h269l182 -282v-3h-194l-118 155h-9l-119 -155h-193v3z" />
    <glyph glyph-name="Cdotaccent" unicode="&#x10a;" horiz-adv-x="1033" 
d="M603 -27q-260 0 -388.5 141t-128.5 401v252q0 258 128.5 398t387.5 140q74 0 135 -12t110.5 -31.5t86.5 -42.5l20 -231q-59 36 -133 62t-173 26q-148 0 -221 -83t-73 -234v-234q0 -150 74 -233.5t229 -83.5q97 0 172 26t135 64l-20 -235q-36 -23 -87 -43.5t-114.5 -33.5
t-139.5 -13zM563 1398q-64 0 -96.5 33t-32.5 90v5q0 57 32.5 89.5t96.5 32.5q66 0 98 -32.5t32 -89.5v-5q0 -57 -32 -90t-98 -33z" />
    <glyph glyph-name="cdotaccent" unicode="&#x10b;" horiz-adv-x="885" 
d="M521 -25q-227 0 -336.5 120t-109.5 337v120q0 216 110 335t336 119q59 0 110.5 -9.5t94 -25.5t74.5 -34l21 -215q-49 31 -109.5 52t-139.5 21q-124 0 -181.5 -63.5t-57.5 -184.5v-106q0 -120 59.5 -185t183.5 -65q79 0 140 20.5t114 50.5l-21 -216q-49 -28 -123 -49.5
t-165 -21.5zM489 1097q-68 0 -101 34t-33 93v6q0 60 33 94.5t101 34.5q69 0 102 -34.5t33 -94.5v-6q0 -59 -33 -93t-102 -34z" />
    <glyph glyph-name="Ccaron" unicode="&#x10c;" horiz-adv-x="1033" 
d="M603 -27q-260 0 -388.5 141t-128.5 401v252q0 258 128.5 398t387.5 140q74 0 135 -12t110.5 -31.5t86.5 -42.5l20 -231q-59 36 -133 62t-173 26q-148 0 -221 -83t-73 -234v-234q0 -150 74 -233.5t229 -83.5q97 0 172 26t135 64l-20 -235q-36 -23 -87 -43.5t-114.5 -33.5
t-139.5 -13zM432 1387l-210 261v4h204l133 -136h9l133 136h204v-4l-210 -261h-263z" />
    <glyph glyph-name="ccaron" unicode="&#x10d;" horiz-adv-x="885" 
d="M521 -25q-227 0 -336.5 120t-109.5 337v120q0 216 110 335t336 119q59 0 110.5 -9.5t94 -25.5t74.5 -34l21 -215q-49 31 -109.5 52t-139.5 21q-124 0 -181.5 -63.5t-57.5 -184.5v-106q0 -120 59.5 -185t183.5 -65q79 0 140 20.5t114 50.5l-21 -216q-49 -28 -123 -49.5
t-165 -21.5zM355 1086l-182 281v4h194l118 -155h9l119 155h193v-4l-182 -281h-269z" />
    <glyph glyph-name="Dcaron" unicode="&#x10e;" horiz-adv-x="1222" 
d="M310 0v220h290q137 0 205.5 74.5t68.5 213.5v265q0 139 -68.5 213t-205.5 74h-291v218h300q264 0 397 -130t133 -374v-267q0 -245 -132.5 -376t-397.5 -131h-299zM127 0v1278h259v-1278h-259zM465 1387l-210 261v4h204l133 -136h9l133 136h204v-4l-210 -261h-263z" />
    <glyph glyph-name="dcaron" unicode="&#x10f;" horiz-adv-x="1335" 
d="M430 -23q-173 0 -263 112t-90 330v135q0 221 91 335t271 114q88 0 148.5 -28t98 -80t52.5 -122h75l-65 -190q-2 69 -28.5 116.5t-73.5 72.5t-111 25q-97 0 -148.5 -56t-51.5 -167v-162q0 -110 51.5 -166t150.5 -56q56 0 100 21t73.5 57.5t42.5 82.5l61 -143h-72
q-16 -64 -52 -116.5t-99 -83.5t-161 -31zM744 0l9 240l-5 57v401l1 41l-5 281v302h256v-1322h-256zM1338 1322q3 -16 5.5 -40t2.5 -52q0 -103 -26.5 -191t-86.5 -167l-157 40q28 66 42 141t14 165q0 27 -1.5 51t-4.5 53h212z" />
    <glyph glyph-name="Dcroat" unicode="&#x110;" horiz-adv-x="1222" 
d="M4 570v165h642v-166zM310 0v220h290q137 0 205.5 74.5t68.5 213.5v265q0 139 -68.5 213t-205.5 74h-291v218h300q264 0 397 -130t133 -374v-267q0 -245 -132.5 -376t-397.5 -131h-299zM127 0v1278h259v-1278h-259z" />
    <glyph glyph-name="dcroat" unicode="&#x111;" horiz-adv-x="1127" 
d="M440 1080v134h685v-134h-685zM430 -23q-173 0 -263 112t-90 330v135q0 221 91 335t271 114q88 0 148.5 -28t98 -80t52.5 -122h75l-65 -190q-2 69 -28.5 116.5t-73.5 72.5t-111 25q-97 0 -148.5 -56t-51.5 -167v-162q0 -110 51.5 -166t150.5 -56q56 0 100 21t73.5 57.5
t42.5 82.5l61 -143h-72q-16 -64 -52 -116.5t-99 -83.5t-161 -31zM744 0l9 240l-5 57v401l1 41l-5 281v302h256v-1322h-256z" />
    <glyph glyph-name="Emacron" unicode="&#x112;" horiz-adv-x="1075" 
d="M127 0v1278h258v-1278h-258zM204 0v219h785v-219h-785zM277 543v213h689v-213h-689zM203 1061v217h778v-217h-778zM259 1422v162h602v-162h-602z" />
    <glyph glyph-name="emacron" unicode="&#x113;" horiz-adv-x="1038" 
d="M573 -24q-252 0 -375 116t-123 336v128q0 218 115 335t334 117q148 0 247 -52t148.5 -147.5t49.5 -228.5v-35q0 -36 -3.5 -73.5t-9.5 -70.5h-232q3 55 3.5 104.5t0.5 89.5q0 69 -22 117.5t-67 73.5t-115 25q-103 0 -152 -57t-49 -162v-91l1 -29v-77q0 -46 14.5 -85
t48.5 -67.5t90.5 -44.5t141.5 -16q92 0 175.5 20.5t158.5 55.5l-22 -202q-67 -37 -157.5 -58.5t-200.5 -21.5zM211 401v170h693v-170h-693zM229 1127v162h602v-162h-602z" />
    <glyph glyph-name="Ebreve" unicode="&#x114;" horiz-adv-x="1075" 
d="M127 0v1278h258v-1278h-258zM204 0v219h785v-219h-785zM277 543v213h689v-213h-689zM203 1061v217h778v-217h-778zM561 1379q-154 0 -223.5 71.5t-72.5 201.5h167q3 -57 34 -88.5t95 -31.5q63 0 94.5 31.5t35.5 88.5h166q-3 -130 -72 -201.5t-224 -71.5z" />
    <glyph glyph-name="ebreve" unicode="&#x115;" horiz-adv-x="1038" 
d="M573 -24q-252 0 -375 116t-123 336v128q0 218 115 335t334 117q148 0 247 -52t148.5 -147.5t49.5 -228.5v-35q0 -36 -3.5 -73.5t-9.5 -70.5h-232q3 55 3.5 104.5t0.5 89.5q0 69 -22 117.5t-67 73.5t-115 25q-103 0 -152 -57t-49 -162v-91l1 -29v-77q0 -46 14.5 -85
t48.5 -67.5t90.5 -44.5t141.5 -16q92 0 175.5 20.5t158.5 55.5l-22 -202q-67 -37 -157.5 -58.5t-200.5 -21.5zM211 401v170h693v-170h-693zM530 1077q-153 0 -222.5 77t-71.5 217h168q4 -66 33.5 -102.5t92.5 -36.5t93 36t34 103h168q-2 -140 -70.5 -217t-224.5 -77z" />
    <glyph glyph-name="Edotaccent" unicode="&#x116;" horiz-adv-x="1075" 
d="M127 0v1278h258v-1278h-258zM204 0v219h785v-219h-785zM277 543v213h689v-213h-689zM203 1061v217h778v-217h-778zM560 1398q-64 0 -96.5 33t-32.5 90v5q0 57 32.5 89.5t96.5 32.5q66 0 98 -32.5t32 -89.5v-5q0 -57 -32 -90t-98 -33z" />
    <glyph glyph-name="edotaccent" unicode="&#x117;" horiz-adv-x="1038" 
d="M573 -24q-252 0 -375 116t-123 336v128q0 218 115 335t334 117q148 0 247 -52t148.5 -147.5t49.5 -228.5v-35q0 -36 -3.5 -73.5t-9.5 -70.5h-232q3 55 3.5 104.5t0.5 89.5q0 69 -22 117.5t-67 73.5t-115 25q-103 0 -152 -57t-49 -162v-91l1 -29v-77q0 -46 14.5 -85
t48.5 -67.5t90.5 -44.5t141.5 -16q92 0 175.5 20.5t158.5 55.5l-22 -202q-67 -37 -157.5 -58.5t-200.5 -21.5zM211 401v170h693v-170h-693zM530 1097q-68 0 -101 34t-33 93v6q0 60 33 94.5t101 34.5q69 0 102 -34.5t33 -94.5v-6q0 -59 -33 -93t-102 -34z" />
    <glyph glyph-name="Eogonek" unicode="&#x118;" horiz-adv-x="1075" 
d="M127 0v1278h258v-1278h-258zM204 0v219h785v-219h-785zM277 543v213h689v-213h-689zM203 1061v217h778v-217h-778zM849 -363q-98 0 -156 41t-58 124v1q0 72 41 117.5t116 72.5v16l155 -5l7 -4q-65 -21 -99.5 -49.5t-34.5 -68.5v0q0 -36 25 -52.5t69 -16.5q27 0 51 4
t49 12l-23 -167q-30 -12 -66 -18.5t-76 -6.5z" />
    <glyph glyph-name="eogonek" unicode="&#x119;" horiz-adv-x="1037" 
d="M756 -363q-102 0 -164 40t-62 120v1q0 64 33.5 106.5t99.5 68.5v22l150 30v-16q-48 -23 -73.5 -53t-25.5 -71v-1q0 -37 28 -54t79 -17q28 0 55 4.5t55 13.5l-23 -168q-32 -13 -70.5 -19.5t-81.5 -6.5zM573 -24q-252 0 -375 116t-123 336v128q0 218 115 335t334 117
q148 0 247 -52t148.5 -147.5t49.5 -228.5v-35q0 -36 -3.5 -73.5t-9.5 -70.5h-232q3 55 3.5 104.5t0.5 89.5q0 69 -22 117.5t-67 73.5t-115 25q-103 0 -152 -57t-49 -162v-91l1 -29v-77q0 -46 14.5 -85t48.5 -67.5t90.5 -44.5t141.5 -16q92 0 175.5 20.5t158.5 55.5l-22 -202
q-67 -37 -157.5 -58.5t-200.5 -21.5zM211 401v170h693v-170h-693z" />
    <glyph glyph-name="Ecaron" unicode="&#x11a;" horiz-adv-x="1075" 
d="M127 0v1278h258v-1278h-258zM204 0v219h785v-219h-785zM277 543v213h689v-213h-689zM203 1061v217h778v-217h-778zM429 1387l-210 261v4h204l133 -136h9l133 136h204v-4l-210 -261h-263z" />
    <glyph glyph-name="ecaron" unicode="&#x11b;" horiz-adv-x="1038" 
d="M573 -24q-252 0 -375 116t-123 336v128q0 218 115 335t334 117q148 0 247 -52t148.5 -147.5t49.5 -228.5v-35q0 -36 -3.5 -73.5t-9.5 -70.5h-232q3 55 3.5 104.5t0.5 89.5q0 69 -22 117.5t-67 73.5t-115 25q-103 0 -152 -57t-49 -162v-91l1 -29v-77q0 -46 14.5 -85
t48.5 -67.5t90.5 -44.5t141.5 -16q92 0 175.5 20.5t158.5 55.5l-22 -202q-67 -37 -157.5 -58.5t-200.5 -21.5zM211 401v170h693v-170h-693zM396 1086l-182 281v4h194l118 -155h9l119 155h193v-4l-182 -281h-269z" />
    <glyph glyph-name="Gcircumflex" unicode="&#x11c;" horiz-adv-x="1229" 
d="M528 -27q-146 0 -244.5 61.5t-148 178t-49.5 281.5v254q0 271 144.5 414t423.5 143q90 0 165.5 -13.5t137 -34t106.5 -45.5l22 -226q-73 38 -167 66.5t-214 28.5q-180 0 -265 -86t-85 -259v-243q0 -142 66.5 -219t204.5 -77q65 0 112 20t78 54t47 74v268l36 -81l-263 -1
v208h480v-532l-258 1q-16 -66 -52 -119t-103 -84.5t-174 -31.5zM869 263h246v-263h-255zM483 1652h262l211 -261v-4h-205l-133 136h-8l-133 -136h-205v4z" />
    <glyph glyph-name="gcircumflex" unicode="&#x11d;" horiz-adv-x="1050" 
d="M528 301q-223 0 -338 88.5t-115 248.5v15q0 106 46 180.5t144 116.5t254 48l517 21v-188l-266 10v-11q63 -13 104.5 -41.5t62.5 -73t21 -107.5v-9q0 -145 -107 -221.5t-323 -76.5zM516 -187h28q78 0 129 10.5t76.5 32t25.5 55.5v3q0 42 -32.5 61.5t-104.5 26.5l-287 28
l59 3q-37 -7 -65.5 -20.5t-44.5 -35.5t-16 -54v-2q0 -37 26 -61.5t78 -35.5t128 -11zM502 -380q-142 0 -243 23.5t-154.5 74.5t-53.5 135v4q0 57 25 96t71 62t106 29v10q-76 15 -114.5 49.5t-38.5 94.5v1q0 42 19 71t56.5 46t92.5 20v29l217 -54l-70 2q-46 -1 -64 -12.5
t-18 -32.5v-1q0 -26 28 -37.5t93 -19.5l235 -26q165 -19 243.5 -81t78.5 -191v-5q0 -99 -56 -162.5t-161.5 -94t-255.5 -30.5h-36zM521 479q67 0 111.5 19t67 56t22.5 90v11q0 53 -22 89.5t-66 55t-111 18.5h-3q-71 0 -116 -19.5t-66 -56t-21 -87.5v-11q0 -53 22.5 -90
t68 -56t113.5 -19zM390 1373h269l182 -282v-3h-194l-118 155h-9l-119 -155h-193v3z" />
    <glyph glyph-name="Gbreve" unicode="&#x11e;" horiz-adv-x="1229" 
d="M528 -27q-146 0 -244.5 61.5t-148 178t-49.5 281.5v254q0 271 144.5 414t423.5 143q90 0 165.5 -13.5t137 -34t106.5 -45.5l22 -226q-73 38 -167 66.5t-214 28.5q-180 0 -265 -86t-85 -259v-243q0 -142 66.5 -219t204.5 -77q65 0 112 20t78 54t47 74v268l36 -81l-263 -1
v208h480v-532l-258 1q-16 -66 -52 -119t-103 -84.5t-174 -31.5zM869 263h246v-263h-255zM614 1379q-154 0 -223.5 71.5t-72.5 201.5h167q3 -57 34 -88.5t95 -31.5q63 0 94.5 31.5t35.5 88.5h166q-3 -130 -72 -201.5t-224 -71.5z" />
    <glyph glyph-name="gbreve" unicode="&#x11f;" horiz-adv-x="1050" 
d="M528 301q-223 0 -338 88.5t-115 248.5v15q0 106 46 180.5t144 116.5t254 48l517 21v-188l-266 10v-11q63 -13 104.5 -41.5t62.5 -73t21 -107.5v-9q0 -145 -107 -221.5t-323 -76.5zM516 -187h28q78 0 129 10.5t76.5 32t25.5 55.5v3q0 42 -32.5 61.5t-104.5 26.5l-287 28
l59 3q-37 -7 -65.5 -20.5t-44.5 -35.5t-16 -54v-2q0 -37 26 -61.5t78 -35.5t128 -11zM502 -380q-142 0 -243 23.5t-154.5 74.5t-53.5 135v4q0 57 25 96t71 62t106 29v10q-76 15 -114.5 49.5t-38.5 94.5v1q0 42 19 71t56.5 46t92.5 20v29l217 -54l-70 2q-46 -1 -64 -12.5
t-18 -32.5v-1q0 -26 28 -37.5t93 -19.5l235 -26q165 -19 243.5 -81t78.5 -191v-5q0 -99 -56 -162.5t-161.5 -94t-255.5 -30.5h-36zM521 479q67 0 111.5 19t67 56t22.5 90v11q0 53 -22 89.5t-66 55t-111 18.5h-3q-71 0 -116 -19.5t-66 -56t-21 -87.5v-11q0 -53 22.5 -90
t68 -56t113.5 -19zM525 1079q-153 0 -222.5 77t-71.5 217h168q4 -66 33.5 -102.5t92.5 -36.5t93 36t34 103h168q-2 -140 -70.5 -217t-224.5 -77z" />
    <glyph glyph-name="Gdotaccent" unicode="&#x120;" horiz-adv-x="1229" 
d="M528 -27q-146 0 -244.5 61.5t-148 178t-49.5 281.5v254q0 271 144.5 414t423.5 143q90 0 165.5 -13.5t137 -34t106.5 -45.5l22 -226q-73 38 -167 66.5t-214 28.5q-180 0 -265 -86t-85 -259v-243q0 -142 66.5 -219t204.5 -77q65 0 112 20t78 54t47 74v268l36 -81l-263 -1
v208h480v-532l-258 1q-16 -66 -52 -119t-103 -84.5t-174 -31.5zM869 263h246v-263h-255zM613 1398q-64 0 -96.5 33t-32.5 90v5q0 57 32.5 89.5t96.5 32.5q66 0 98 -32.5t32 -89.5v-5q0 -57 -32 -90t-98 -33z" />
    <glyph glyph-name="gdotaccent" unicode="&#x121;" horiz-adv-x="1050" 
d="M528 301q-223 0 -338 88.5t-115 248.5v15q0 106 46 180.5t144 116.5t254 48l517 21v-188l-266 10v-11q63 -13 104.5 -41.5t62.5 -73t21 -107.5v-9q0 -145 -107 -221.5t-323 -76.5zM516 -187h28q78 0 129 10.5t76.5 32t25.5 55.5v3q0 42 -32.5 61.5t-104.5 26.5l-287 28
l59 3q-37 -7 -65.5 -20.5t-44.5 -35.5t-16 -54v-2q0 -37 26 -61.5t78 -35.5t128 -11zM502 -380q-142 0 -243 23.5t-154.5 74.5t-53.5 135v4q0 57 25 96t71 62t106 29v10q-76 15 -114.5 49.5t-38.5 94.5v1q0 42 19 71t56.5 46t92.5 20v29l217 -54l-70 2q-46 -1 -64 -12.5
t-18 -32.5v-1q0 -26 28 -37.5t93 -19.5l235 -26q165 -19 243.5 -81t78.5 -191v-5q0 -99 -56 -162.5t-161.5 -94t-255.5 -30.5h-36zM521 479q67 0 111.5 19t67 56t22.5 90v11q0 53 -22 89.5t-66 55t-111 18.5h-3q-71 0 -116 -19.5t-66 -56t-21 -87.5v-11q0 -53 22.5 -90
t68 -56t113.5 -19zM524 1099q-68 0 -101 34t-33 93v6q0 60 33 94.5t101 34.5q69 0 102 -34.5t33 -94.5v-6q0 -59 -33 -93t-102 -34z" />
    <glyph glyph-name="uni0122" unicode="&#x122;" horiz-adv-x="1229" 
d="M528 -27q-146 0 -244.5 61.5t-148 178t-49.5 281.5v254q0 271 144.5 414t423.5 143q90 0 165.5 -13.5t137 -34t106.5 -45.5l22 -226q-73 38 -167 66.5t-214 28.5q-180 0 -265 -86t-85 -259v-243q0 -142 66.5 -219t204.5 -77q65 0 112 20t78 54t47 74v268l36 -81l-263 -1
v208h480v-532l-258 1q-16 -66 -52 -119t-103 -84.5t-174 -31.5zM869 263h246v-263h-255zM726 -104q2 -15 3.5 -35t1.5 -42q0 -86 -26 -158t-87 -140l-166 42q31 56 46.5 117t15.5 137q0 21 -1 40t-3 39h216z" />
    <glyph glyph-name="uni0123" unicode="&#x123;" horiz-adv-x="1050" 
d="M528 301q-223 0 -338 88.5t-115 248.5v15q0 106 46 180.5t144 116.5t254 48l517 21v-188l-266 10v-11q63 -13 104.5 -41.5t62.5 -73t21 -107.5v-9q0 -145 -107 -221.5t-323 -76.5zM516 -187h28q78 0 129 10.5t76.5 32t25.5 55.5v3q0 42 -32.5 61.5t-104.5 26.5l-287 28
l59 3q-37 -7 -65.5 -20.5t-44.5 -35.5t-16 -54v-2q0 -37 26 -61.5t78 -35.5t128 -11zM502 -380q-142 0 -243 23.5t-154.5 74.5t-53.5 135v4q0 57 25 96t71 62t106 29v10q-76 15 -114.5 49.5t-38.5 94.5v1q0 42 19 71t56.5 46t92.5 20v29l217 -54l-70 2q-46 -1 -64 -12.5
t-18 -32.5v-1q0 -26 28 -37.5t93 -19.5l235 -26q165 -19 243.5 -81t78.5 -191v-5q0 -99 -56 -162.5t-161.5 -94t-255.5 -30.5h-36zM521 479q67 0 111.5 19t67 56t22.5 90v11q0 53 -22 89.5t-66 55t-111 18.5h-3q-71 0 -116 -19.5t-66 -56t-21 -87.5v-11q0 -53 22.5 -90
t68 -56t113.5 -19zM411 1088q-2 15 -4 35.5t-2 41.5q0 87 26 159.5t86 138.5l165 -42q-29 -55 -45 -116t-16 -137q0 -21 1.5 -40t2.5 -40h-214z" />
    <glyph glyph-name="Hcircumflex" unicode="&#x124;" horiz-adv-x="1283" 
d="M391 0h-264v1278h264v-1278zM1155 0h-263v1278h263v-1278zM278 765h714v-219h-714v219zM511 1652h262l211 -261v-4h-205l-133 136h-8l-133 -136h-205v4z" />
    <glyph glyph-name="hcircumflex" unicode="&#x125;" horiz-adv-x="1109" 
d="M751 0v589q0 62 -16.5 107t-54.5 70t-104 25q-58 0 -101 -21t-70.5 -56.5t-40.5 -80.5l-52 140h61q17 65 54 117t101 82.5t159 30.5q113 0 183 -42.5t103.5 -126.5t33.5 -208v-626h-256zM112 0v1322h255v-302l-5 -305l6 -19v-696h-256zM109 1696h262l211 -261v-4h-205
l-133 136h-8l-133 -136h-205v4z" />
    <glyph glyph-name="Hbar" unicode="&#x126;" horiz-adv-x="1287" 
d="M21 947v149h1245v-149h-1245zM393 0h-263v1278h263v-1278zM1158 0h-263v1278h263v-1278zM281 765h713v-219h-713v219z" />
    <glyph glyph-name="hbar" unicode="&#x127;" horiz-adv-x="1114" 
d="M2 1080v134h684v-134h-684zM756 0v589q0 62 -16.5 107t-54.5 70t-104 25q-58 0 -101 -21t-70 -56.5t-41 -80.5l-51 140h61q16 65 53 117t101 82.5t160 30.5q112 0 182.5 -42.5t104 -126.5t33.5 -208v-626h-257zM117 0v1322h255v-302l-5 -305l7 -19v-696h-257z" />
    <glyph glyph-name="Itilde" unicode="&#x128;" horiz-adv-x="519" 
d="M391 0h-263v1278h263v-1278zM398 1402q-37 0 -72 8.5t-67 20t-60.5 20t-53.5 8.5q-28 0 -40 -16t-12 -47v-6h-149v33q0 92 40 148t138 56q38 0 73.5 -9t66.5 -20.5t59.5 -20.5t52.5 -9q29 0 40 16t11 48v6h149v-32q0 -93 -39.5 -148.5t-136.5 -55.5z" />
    <glyph glyph-name="itilde" unicode="&#x129;" horiz-adv-x="483" 
d="M114 0v981h256v-981h-256zM354 1105q-30 0 -59 9.5t-55.5 22t-49.5 21.5t-42 9q-42 0 -43 -63v-9h-139v33q0 93 35 149t116 56q32 0 61 -9.5t55 -22t48 -22t41 -9.5q42 0 42 64v9h139v-35q0 -93 -34.5 -148t-114.5 -55z" />
    <glyph glyph-name="Imacron" unicode="&#x12a;" horiz-adv-x="519" 
d="M391 0h-263v1278h263v-1278zM-42 1422v162h602v-162h-602z" />
    <glyph glyph-name="imacron" unicode="&#x12b;" horiz-adv-x="483" 
d="M114 0v981h256v-981h-256zM-1 1127v162h486v-162h-486z" />
    <glyph glyph-name="Ibreve" unicode="&#x12c;" horiz-adv-x="519" 
d="M391 0h-263v1278h263v-1278zM260 1379q-154 0 -223.5 71.5t-72.5 201.5h167q3 -57 34 -88.5t95 -31.5q63 0 94.5 31.5t35.5 88.5h166q-3 -130 -72 -201.5t-224 -71.5z" />
    <glyph glyph-name="ibreve" unicode="&#x12d;" horiz-adv-x="483" 
d="M114 0v981h256v-981h-256zM243 1077q-137 0 -197 75t-62 214h159q2 -67 24.5 -101t75.5 -34q52 0 75.5 34t24.5 101h160q-3 -139 -62.5 -214t-197.5 -75z" />
    <glyph glyph-name="Iogonek" unicode="&#x12e;" horiz-adv-x="519" 
d="M391 0h-263v1278h263v-1278zM272 -363q-98 0 -156 41t-58 124v1q0 72 41 117.5t116 72.5v16l155 -5l7 -4q-65 -21 -99.5 -49.5t-34.5 -68.5v0q0 -36 25 -52.5t69 -16.5q27 0 51 4t49 12l-23 -167q-30 -12 -66 -18.5t-76 -6.5z" />
    <glyph glyph-name="iogonek" unicode="&#x12f;" horiz-adv-x="483" 
d="M114 0v981h256v-981h-256zM242 1097q-73 0 -107.5 34.5t-34.5 95.5v5q0 61 34.5 96t107.5 35q72 0 107 -35t35 -96v-5q0 -62 -35 -96t-107 -34zM255 -363q-97 0 -155.5 41t-58.5 123v1q0 73 41.5 118.5t115.5 72.5v23l162 1v-17q-65 -22 -100 -50t-35 -68v-1
q0 -36 25 -52t69 -16q27 0 51 4t49 11l-23 -167q-30 -11 -65.5 -17.5t-75.5 -6.5z" />
    <glyph glyph-name="Idotaccent" unicode="&#x130;" horiz-adv-x="519" 
d="M391 0h-263v1278h263v-1278zM259 1398q-64 0 -96.5 33t-32.5 90v5q0 57 32.5 89.5t96.5 32.5q66 0 98 -32.5t32 -89.5v-5q0 -57 -32 -90t-98 -33z" />
    <glyph glyph-name="dotlessi" unicode="&#x131;" horiz-adv-x="483" 
d="M114 0v981h256v-981h-256z" />
    <glyph glyph-name="Jcircumflex" unicode="&#x134;" horiz-adv-x="828" 
d="M302 -19q-62 0 -124 10t-112 30l-19 225q48 -18 96.5 -28t100.5 -10q117 0 159.5 52.5t42.5 160.5v857h263v-873q0 -209 -93 -316.5t-314 -107.5zM445 1652h262l211 -261v-4h-205l-133 136h-8l-133 -136h-205v4z" />
    <glyph glyph-name="jcircumflex" unicode="&#x135;" horiz-adv-x="504" 
d="M134 182v799h257v-799h-257zM69 -360q-44 0 -82.5 6.5t-66.5 15.5l-19 205q22 -9 47 -14t51 -5q80 0 107.5 42.5t27.5 118.5v231h257v-247q0 -108 -31 -187t-101.5 -122.5t-189.5 -43.5zM124 1371h257l148 -282v-3h-184l-89 153h-7l-90 -153h-184v3z" />
    <glyph glyph-name="uni0136" unicode="&#x136;" horiz-adv-x="1182" 
d="M859 0l-392 566h-103v175h103l387 537h297l-471 -641l-1 60l486 -697h-306zM127 0v1278h261v-1278h-261zM714 -104q2 -15 3.5 -35t1.5 -42q0 -86 -26 -158t-87 -140l-166 42q31 56 46.5 117t15.5 137q0 21 -1 40t-3 39h216z" />
    <glyph glyph-name="uni0137" unicode="&#x137;" horiz-adv-x="1053" 
d="M742 0l-322 432h-87v167h88l310 382h296l-398 -483v52l413 -550h-300zM112 0v1322h255v-1322h-255zM645 -104q2 -15 3.5 -35t1.5 -42q0 -86 -26 -158t-87 -140l-166 42q31 56 46.5 117t15.5 137q0 21 -1 40t-3 39h216z" />
    <glyph glyph-name="kgreenlandic" unicode="&#x138;" horiz-adv-x="1050" 
d="M742 0l-320 416h-86v164h87l307 401h290l-392 -499v52l411 -534h-297zM112 0v981h256v-981h-256z" />
    <glyph glyph-name="Lacute" unicode="&#x139;" horiz-adv-x="998" 
d="M391 0h-264v1278h264v-1278zM275 221h669v-221h-669v221zM364 1652h282v-3l-278 -262h-232v3z" />
    <glyph glyph-name="lacute" unicode="&#x13a;" horiz-adv-x="485" 
d="M114 0v1322h257v-1322h-257zM348 1696h282v-3l-278 -262h-232v3z" />
    <glyph glyph-name="uni013B" unicode="&#x13b;" horiz-adv-x="998" 
d="M391 0h-264v1278h264v-1278zM275 221h669v-221h-669v221zM639 -104q2 -15 3.5 -35t1.5 -42q0 -86 -26 -158t-87 -140l-166 42q31 56 46.5 117t15.5 137q0 21 -1 40t-3 39h216z" />
    <glyph glyph-name="uni013C" unicode="&#x13c;" horiz-adv-x="485" 
d="M114 0v1322h257v-1322h-257zM355 -104q2 -15 3.5 -35t1.5 -42q0 -86 -26 -158t-87 -140l-166 42q31 56 46.5 117t15.5 137q0 21 -1 40t-3 39h216z" />
    <glyph glyph-name="Lcaron" unicode="&#x13d;" horiz-adv-x="998" 
d="M391 0h-264v1278h264v-1278zM275 221h669v-221h-669v221zM869 1278q3 -16 5.5 -40t2.5 -52q0 -103 -26.5 -191t-86.5 -167l-157 40q28 66 42 141t14 165q0 27 -1.5 51t-4.5 53h212z" />
    <glyph glyph-name="lcaron" unicode="&#x13e;" horiz-adv-x="706" 
d="M114 0v1322h257v-1322h-257zM709 1322q3 -16 5.5 -40t2.5 -52q0 -103 -26.5 -191t-86.5 -167l-157 40q28 66 42 141t14 165q0 27 -1.5 51t-4.5 53h212z" />
    <glyph glyph-name="Ldot" unicode="&#x13f;" horiz-adv-x="992" 
d="M391 0h-264v1278h264v-1278zM275 221h669v-221h-669v221zM752 597q-63 0 -94 34t-31 93v9q0 59 31 93t94 34q65 0 96 -34t31 -93v-9q0 -59 -31 -93t-96 -34z" />
    <glyph glyph-name="ldot" unicode="&#x140;" horiz-adv-x="644" 
d="M114 0v1322h257v-1322h-257zM563 578q-61 0 -91.5 33.5t-30.5 93.5v9q0 59 30.5 92.5t91.5 33.5q62 0 92.5 -33.5t30.5 -92.5v-9q0 -60 -30.5 -93.5t-92.5 -33.5z" />
    <glyph glyph-name="Lslash" unicode="&#x141;" horiz-adv-x="1014" 
d="M702 984v-177l-693 -277v178zM407 0h-264v1278h264v-1278zM291 221h669v-221h-669v221z" />
    <glyph glyph-name="lslash" unicode="&#x142;" horiz-adv-x="542" 
d="M5 457v183l532 350v-183zM144 0v1322h257v-1322h-257z" />
    <glyph glyph-name="Nacute" unicode="&#x143;" horiz-adv-x="1283" 
d="M500 1278l402 -992h13l-11 545v447h251v-1278h-362l-412 1010h-13l11 -562v-448h-252v1278h373zM749 1652h282v-3l-278 -262h-232v3z" />
    <glyph glyph-name="nacute" unicode="&#x144;" horiz-adv-x="1109" 
d="M751 0v589q0 62 -16.5 107t-54.5 70t-104 25q-58 0 -101.5 -21t-71 -56.5t-41.5 -80.5l-40 140h48q16 65 53.5 117t102 82.5t161.5 30.5q113 0 183 -42.5t103.5 -126.5t33.5 -208v-626h-256zM112 0v981h256l-10 -239l10 -21v-721h-256zM624 1371h272v-3l-237 -282h-216v3
z" />
    <glyph glyph-name="uni0145" unicode="&#x145;" horiz-adv-x="1283" 
d="M500 1278l402 -992h13l-11 545v447h251v-1278h-362l-412 1010h-13l11 -562v-448h-252v1278h373zM757 -104q2 -15 3.5 -35t1.5 -42q0 -86 -26 -158t-87 -140l-166 42q31 56 46.5 117t15.5 137q0 21 -1 40t-3 39h216z" />
    <glyph glyph-name="uni0146" unicode="&#x146;" horiz-adv-x="1109" 
d="M751 0v589q0 62 -16.5 107t-54.5 70t-104 25q-58 0 -101.5 -21t-71 -56.5t-41.5 -80.5l-40 140h48q16 65 53.5 117t102 82.5t161.5 30.5q113 0 183 -42.5t103.5 -126.5t33.5 -208v-626h-256zM112 0v981h256l-10 -239l10 -21v-721h-256zM667 -104q2 -15 3.5 -35t1.5 -42
q0 -86 -26 -158t-87 -140l-166 42q31 56 46.5 117t15.5 137q0 21 -1 40t-3 39h216z" />
    <glyph glyph-name="Ncaron" unicode="&#x147;" horiz-adv-x="1283" 
d="M500 1278l402 -992h13l-11 545v447h251v-1278h-362l-412 1010h-13l11 -562v-448h-252v1278h373zM513 1387l-210 261v4h204l133 -136h9l133 136h204v-4l-210 -261h-263z" />
    <glyph glyph-name="ncaron" unicode="&#x148;" horiz-adv-x="1109" 
d="M751 0v589q0 62 -16.5 107t-54.5 70t-104 25q-58 0 -101.5 -21t-71 -56.5t-41.5 -80.5l-40 140h48q16 65 53.5 117t102 82.5t161.5 30.5q113 0 183 -42.5t103.5 -126.5t33.5 -208v-626h-256zM112 0v981h256l-10 -239l10 -21v-721h-256zM421 1086l-182 281v4h194l118 -155
h9l119 155h193v-4l-182 -281h-269z" />
    <glyph glyph-name="Eng" unicode="&#x14a;" horiz-adv-x="1295" 
d="M137 0v1279h365l409 -913h13l-10 465v448h251v-1199l-143 -80h-163l-468 1018h-13l11 -570v-448h-252zM832 -360q-46 0 -87.5 6.5t-70.5 15.5l-20 205q24 -9 51.5 -14t56.5 -5q87 0 117.5 41t30.5 116v173h255v-185q0 -108 -31.5 -187t-104.5 -122.5t-197 -43.5z" />
    <glyph glyph-name="eng" unicode="&#x14b;" horiz-adv-x="1109" 
d="M751 177v412q0 62 -16.5 107t-54.5 70t-104 25q-58 0 -101.5 -21t-71 -56.5t-41.5 -80.5l-40 140h48q16 65 53.5 117t102 82.5t161.5 30.5q113 0 183 -42.5t103.5 -126.5t33.5 -208v-449h-256zM112 0v981h256l-10 -239l10 -21v-721h-256zM686 -360q-44 0 -82.5 6.5
t-66.5 15.5l-20 205q23 -9 48 -14t51 -5q80 0 107.5 42.5t27.5 118.5v231h256v-247q0 -108 -30.5 -187t-101 -122.5t-189.5 -43.5z" />
    <glyph glyph-name="Omacron" unicode="&#x14c;" horiz-adv-x="1245" 
d="M622 -29q-265 0 -400.5 138.5t-135.5 396.5v260q0 259 135.5 399t400.5 140t400.5 -140t135.5 -399v-260q0 -258 -135 -396.5t-401 -138.5zM622 189q135 0 202 80t67 225v284q0 150 -67 230.5t-202 80.5q-134 0 -201 -80.5t-67 -230.5v-284q0 -145 67 -225t201 -80z
M320 1422v162h602v-162h-602z" />
    <glyph glyph-name="omacron" unicode="&#x14d;" horiz-adv-x="1074" 
d="M538 -27q-228 0 -345.5 117t-117.5 333v133q0 217 117.5 334.5t345.5 117.5q227 0 344 -117.5t117 -334.5v-133q0 -216 -116.5 -333t-344.5 -117zM538 178q100 0 152.5 60t52.5 172v159q0 114 -52.5 174.5t-152.5 60.5q-101 0 -153.5 -60.5t-52.5 -174.5v-159
q0 -112 52.5 -172t153.5 -60zM237 1127v162h602v-162h-602z" />
    <glyph glyph-name="Obreve" unicode="&#x14e;" horiz-adv-x="1245" 
d="M622 -29q-265 0 -400.5 138.5t-135.5 396.5v260q0 259 135.5 399t400.5 140t400.5 -140t135.5 -399v-260q0 -258 -135 -396.5t-401 -138.5zM622 189q135 0 202 80t67 225v284q0 150 -67 230.5t-202 80.5q-134 0 -201 -80.5t-67 -230.5v-284q0 -145 67 -225t201 -80z
M622 1379q-154 0 -223.5 71.5t-72.5 201.5h167q3 -57 34 -88.5t95 -31.5q63 0 94.5 31.5t35.5 88.5h166q-3 -130 -72 -201.5t-224 -71.5z" />
    <glyph glyph-name="obreve" unicode="&#x14f;" horiz-adv-x="1074" 
d="M538 -27q-228 0 -345.5 117t-117.5 333v133q0 217 117.5 334.5t345.5 117.5q227 0 344 -117.5t117 -334.5v-133q0 -216 -116.5 -333t-344.5 -117zM538 178q100 0 152.5 60t52.5 172v159q0 114 -52.5 174.5t-152.5 60.5q-101 0 -153.5 -60.5t-52.5 -174.5v-159
q0 -112 52.5 -172t153.5 -60zM538 1077q-153 0 -222.5 77t-71.5 217h168q4 -66 33.5 -102.5t92.5 -36.5t93 36t34 103h168q-2 -140 -70.5 -217t-224.5 -77z" />
    <glyph glyph-name="Ohungarumlaut" unicode="&#x150;" horiz-adv-x="1245" 
d="M622 -29q-265 0 -400.5 138.5t-135.5 396.5v260q0 259 135.5 399t400.5 140t400.5 -140t135.5 -399v-260q0 -258 -135 -396.5t-401 -138.5zM622 189q135 0 202 80t67 225v284q0 150 -67 230.5t-202 80.5q-134 0 -201 -80.5t-67 -230.5v-284q0 -145 67 -225t201 -80z
M832 1652h227v-3l-192 -262h-182v3zM515 1652h226v-4l-191 -261h-183v3z" />
    <glyph glyph-name="ohungarumlaut" unicode="&#x151;" horiz-adv-x="1074" 
d="M538 -27q-228 0 -345.5 117t-117.5 333v133q0 217 117.5 334.5t345.5 117.5q227 0 344 -117.5t117 -334.5v-133q0 -216 -116.5 -333t-344.5 -117zM538 178q100 0 152.5 60t52.5 172v159q0 114 -52.5 174.5t-152.5 60.5q-101 0 -153.5 -60.5t-52.5 -174.5v-159
q0 -112 52.5 -172t153.5 -60zM736 1371h229v-3l-182 -282h-182v1zM417 1371h229v-5l-180 -280h-183v1z" />
    <glyph glyph-name="OE" unicode="&#x152;" horiz-adv-x="1782" 
d="M621 -31q-263 0 -399 139.5t-136 401.5v257q0 260 136 400t399 140q265 0 400.5 -141.5t135.5 -398.5v-257q0 -259 -135.5 -400t-400.5 -141zM622 187q135 0 202 81t67 231v279q0 150 -67 231t-202 81q-134 0 -201 -81t-67 -231v-279q0 -150 67 -231t201 -81zM798 0v219
h897v-219h-897zM985 543v213h687v-213h-687zM797 1061v217h891v-217h-891z" />
    <glyph glyph-name="oe" unicode="&#x153;" horiz-adv-x="1706" 
d="M501 -27q-205 0 -315.5 117.5t-110.5 340.5v121q0 223 110.5 340t315.5 117q140 0 228.5 -54.5t131.5 -151.5h8q43 99 130.5 152.5t218.5 53.5q139 0 232 -52t139.5 -147.5t46.5 -228.5v-35q0 -36 -3 -73.5t-9 -71.5h-232q2 57 3 106.5t1 87.5q0 70 -22 118t-67 73.5
t-115 25.5q-102 0 -151.5 -58.5t-49.5 -161.5v-93l1 -28v-70q0 -99 69 -159t231 -60q89 0 171.5 20.5t157.5 54.5l-22 -201q-64 -37 -150 -59t-190 -22q-146 0 -243.5 52t-146.5 155h-8q-42 -100 -130.5 -154.5t-229.5 -54.5zM879 401v171h693v-171h-693zM535 178
q101 0 154.5 60.5t53.5 175.5v155q0 114 -53.5 174.5t-154.5 60.5q-99 0 -151 -60.5t-52 -174.5v-155q0 -115 52 -175.5t151 -60.5z" />
    <glyph glyph-name="Racute" unicode="&#x154;" horiz-adv-x="1189" 
d="M854 0l-29 249q-7 67 -28 112t-63 68.5t-116 23.5l-309 1v202l325 1q109 0 156.5 50.5t47.5 144.5v24q0 93 -47.5 141.5t-158.5 48.5h-326v212h363q225 0 328.5 -91t103.5 -259v-28q0 -126 -61 -200t-194 -88v-36l-73 36q114 -8 176.5 -48t91.5 -110.5t44 -174.5l39 -279
h-270zM127 0v1278h256v-694l2 -97v-487h-258zM699 1652h282v-3l-278 -262h-232v3z" />
    <glyph glyph-name="racute" unicode="&#x155;" horiz-adv-x="775" 
d="M361 570l-65 171h62q27 119 98 187t197 68q26 0 47 -3.5t38 -8.5l14 -256q-22 7 -51 10.5t-61 3.5q-102 0 -173.5 -45t-105.5 -127zM112 0v981h244l-11 -301l23 -9v-671h-256zM480 1371h272v-3l-237 -282h-216v3z" />
    <glyph glyph-name="uni0156" unicode="&#x156;" horiz-adv-x="1189" 
d="M854 0l-29 249q-7 67 -28 112t-63 68.5t-116 23.5l-309 1v202l325 1q109 0 156.5 50.5t47.5 144.5v24q0 93 -47.5 141.5t-158.5 48.5h-326v212h363q225 0 328.5 -91t103.5 -259v-28q0 -126 -61 -200t-194 -88v-36l-73 36q114 -8 176.5 -48t91.5 -110.5t44 -174.5l39 -279
h-270zM127 0v1278h256v-694l2 -97v-487h-258zM716 -104q2 -15 3.5 -35t1.5 -42q0 -86 -26 -158t-87 -140l-166 42q31 56 46.5 117t15.5 137q0 21 -1 40t-3 39h216z" />
    <glyph glyph-name="uni0157" unicode="&#x157;" horiz-adv-x="775" 
d="M361 570l-65 171h62q27 119 98 187t197 68q26 0 47 -3.5t38 -8.5l14 -256q-22 7 -51 10.5t-61 3.5q-102 0 -173.5 -45t-105.5 -127zM112 0v981h244l-11 -301l23 -9v-671h-256zM352 -104q2 -15 3.5 -35t1.5 -42q0 -86 -26 -158t-87 -140l-166 42q31 56 46.5 117t15.5 137
q0 21 -1 40t-3 39h216z" />
    <glyph glyph-name="Rcaron" unicode="&#x158;" horiz-adv-x="1189" 
d="M854 0l-29 249q-7 67 -28 112t-63 68.5t-116 23.5l-309 1v202l325 1q109 0 156.5 50.5t47.5 144.5v24q0 93 -47.5 141.5t-158.5 48.5h-326v212h363q225 0 328.5 -91t103.5 -259v-28q0 -126 -61 -200t-194 -88v-36l-73 36q114 -8 176.5 -48t91.5 -110.5t44 -174.5l39 -279
h-270zM127 0v1278h256v-694l2 -97v-487h-258zM463 1387l-210 261v4h204l133 -136h9l133 136h204v-4l-210 -261h-263z" />
    <glyph glyph-name="rcaron" unicode="&#x159;" horiz-adv-x="775" 
d="M361 570l-65 171h62q27 119 98 187t197 68q26 0 47 -3.5t38 -8.5l14 -256q-22 7 -51 10.5t-61 3.5q-102 0 -173.5 -45t-105.5 -127zM112 0v981h244l-11 -301l23 -9v-671h-256zM277 1086l-182 281v4h194l118 -155h9l119 155h193v-4l-182 -281h-269z" />
    <glyph glyph-name="Sacute" unicode="&#x15a;" horiz-adv-x="1066" 
d="M510 -26q-89 0 -166.5 13t-140 32.5t-107.5 39.5l-23 248q78 -41 185 -73.5t228 -32.5q128 0 185 37t57 114v11q0 50 -24.5 82.5t-81.5 57.5t-155 51q-138 38 -226.5 86.5t-130.5 121t-42 182.5v12q0 168 113.5 258t335.5 90q138 0 237 -25t166 -58l23 -231
q-75 40 -171.5 66.5t-210.5 26.5q-85 0 -134.5 -16t-71 -47t-21.5 -75v-3q0 -45 22.5 -78t80.5 -60.5t165 -56.5q136 -38 222.5 -82t128.5 -114t42 -185v-18q0 -185 -120.5 -279.5t-364.5 -94.5zM629 1652h282v-3l-278 -262h-232v3z" />
    <glyph glyph-name="sacute" unicode="&#x15b;" horiz-adv-x="914" 
d="M447 -24q-118 0 -209.5 22.5t-155.5 50.5l-23 222q76 -35 167.5 -61t201.5 -26q96 0 139 24.5t43 73.5v6q0 33 -19.5 54t-68.5 38.5t-138 37.5q-123 29 -194.5 67.5t-102.5 95t-31 135.5v9q0 139 99 209.5t293 70.5q115 0 203.5 -22.5t147.5 -53.5l23 -204
q-70 33 -157 55.5t-187 22.5q-65 0 -102.5 -10.5t-53.5 -29.5t-16 -46v-5q0 -30 17.5 -52t64.5 -39.5t132 -37.5q124 -26 199 -61t109 -89.5t34 -142.5v-12q0 -152 -103 -227t-312 -75zM522 1371h272v-3l-237 -282h-216v3z" />
    <glyph glyph-name="Scircumflex" unicode="&#x15c;" horiz-adv-x="1066" 
d="M510 -26q-89 0 -166.5 13t-140 32.5t-107.5 39.5l-23 248q78 -41 185 -73.5t228 -32.5q128 0 185 37t57 114v11q0 50 -24.5 82.5t-81.5 57.5t-155 51q-138 38 -226.5 86.5t-130.5 121t-42 182.5v12q0 168 113.5 258t335.5 90q138 0 237 -25t166 -58l23 -231
q-75 40 -171.5 66.5t-210.5 26.5q-85 0 -134.5 -16t-71 -47t-21.5 -75v-3q0 -45 22.5 -78t80.5 -60.5t165 -56.5q136 -38 222.5 -82t128.5 -114t42 -185v-18q0 -185 -120.5 -279.5t-364.5 -94.5zM394 1652h262l211 -261v-4h-205l-133 136h-8l-133 -136h-205v4z" />
    <glyph glyph-name="scircumflex" unicode="&#x15d;" horiz-adv-x="914" 
d="M447 -24q-118 0 -209.5 22.5t-155.5 50.5l-23 222q76 -35 167.5 -61t201.5 -26q96 0 139 24.5t43 73.5v6q0 33 -19.5 54t-68.5 38.5t-138 37.5q-123 29 -194.5 67.5t-102.5 95t-31 135.5v9q0 139 99 209.5t293 70.5q115 0 203.5 -22.5t147.5 -53.5l23 -204
q-70 33 -157 55.5t-187 22.5q-65 0 -102.5 -10.5t-53.5 -29.5t-16 -46v-5q0 -30 17.5 -52t64.5 -39.5t132 -37.5q124 -26 199 -61t109 -89.5t34 -142.5v-12q0 -152 -103 -227t-312 -75zM319 1371h269l182 -282v-3h-194l-118 155h-9l-119 -155h-193v3z" />
    <glyph glyph-name="Scedilla" unicode="&#x15e;" horiz-adv-x="1066" 
d="M510 -26q-89 0 -166.5 13t-140 32.5t-107.5 39.5l-23 248q78 -41 185 -73.5t228 -32.5q128 0 185 37t57 114v11q0 50 -24.5 82.5t-81.5 57.5t-155 51q-138 38 -226.5 86.5t-130.5 121t-42 182.5v12q0 168 113.5 258t335.5 90q138 0 237 -25t166 -58l23 -231
q-75 40 -171.5 66.5t-210.5 26.5q-85 0 -134.5 -16t-71 -47t-21.5 -75v-3q0 -45 22.5 -78t80.5 -60.5t165 -56.5q136 -38 222.5 -82t128.5 -114t42 -185v-18q0 -185 -120.5 -279.5t-364.5 -94.5zM612 23l-24 -163l-101 60q19 2 38.5 2.5t38.5 -0.5q105 -2 155 -40t50 -110
v-6q0 -83 -60.5 -122.5t-176.5 -39.5q-42 0 -82 5.5t-70 12.5l-25 139q31 -9 66 -14t71 -5q49 0 73.5 10.5t24.5 32.5v2q0 26 -32.5 37t-120.5 15q-7 1 -9.5 1h-3.5l24 183h164z" />
    <glyph glyph-name="scedilla" unicode="&#x15f;" horiz-adv-x="914" 
d="M447 -24q-118 0 -209.5 22.5t-155.5 50.5l-23 222q76 -35 167.5 -61t201.5 -26q96 0 139 24.5t43 73.5v6q0 33 -19.5 54t-68.5 38.5t-138 37.5q-123 29 -194.5 67.5t-102.5 95t-31 135.5v9q0 139 99 209.5t293 70.5q115 0 203.5 -22.5t147.5 -53.5l23 -204
q-70 33 -157 55.5t-187 22.5q-65 0 -102.5 -10.5t-53.5 -29.5t-16 -46v-5q0 -30 17.5 -52t64.5 -39.5t132 -37.5q124 -26 199 -61t109 -89.5t34 -142.5v-12q0 -152 -103 -227t-312 -75zM543 27l-24 -163l-101 60q19 2 38.5 2.5t38.5 -0.5q105 -2 155 -40t50 -110v-6
q0 -83 -60.5 -122.5t-176.5 -39.5q-42 0 -82 5.5t-70 12.5l-25 139q31 -9 66 -14t71 -5q49 0 73.5 10.5t24.5 32.5v2q0 26 -32.5 37t-120.5 15q-7 1 -9.5 1h-3.5l24 183h164z" />
    <glyph glyph-name="Scaron" unicode="&#x160;" horiz-adv-x="1066" 
d="M510 -26q-89 0 -166.5 13t-140 32.5t-107.5 39.5l-23 248q78 -41 185 -73.5t228 -32.5q128 0 185 37t57 114v11q0 50 -24.5 82.5t-81.5 57.5t-155 51q-138 38 -226.5 86.5t-130.5 121t-42 182.5v12q0 168 113.5 258t335.5 90q138 0 237 -25t166 -58l23 -231
q-75 40 -171.5 66.5t-210.5 26.5q-85 0 -134.5 -16t-71 -47t-21.5 -75v-3q0 -45 22.5 -78t80.5 -60.5t165 -56.5q136 -38 222.5 -82t128.5 -114t42 -185v-18q0 -185 -120.5 -279.5t-364.5 -94.5zM392 1387l-210 261v4h204l133 -136h9l133 136h204v-4l-210 -261h-263z" />
    <glyph glyph-name="scaron" unicode="&#x161;" horiz-adv-x="914" 
d="M447 -24q-118 0 -209.5 22.5t-155.5 50.5l-23 222q76 -35 167.5 -61t201.5 -26q96 0 139 24.5t43 73.5v6q0 33 -19.5 54t-68.5 38.5t-138 37.5q-123 29 -194.5 67.5t-102.5 95t-31 135.5v9q0 139 99 209.5t293 70.5q115 0 203.5 -22.5t147.5 -53.5l23 -204
q-70 33 -157 55.5t-187 22.5q-65 0 -102.5 -10.5t-53.5 -29.5t-16 -46v-5q0 -30 17.5 -52t64.5 -39.5t132 -37.5q124 -26 199 -61t109 -89.5t34 -142.5v-12q0 -152 -103 -227t-312 -75zM319 1086l-182 281v4h194l118 -155h9l119 155h193v-4l-182 -281h-269z" />
    <glyph glyph-name="uni0162" unicode="&#x162;" horiz-adv-x="1101" 
d="M420 0v1229h263v-1229h-263zM56 1059v219h989v-219h-989zM638 23l-24 -163l-101 60q19 2 38.5 2.5t38.5 -0.5q105 -2 155 -40t50 -110v-6q0 -83 -60.5 -122.5t-176.5 -39.5q-42 0 -82 5.5t-70 12.5l-25 139q31 -9 66 -14t71 -5q49 0 73.5 10.5t24.5 32.5v2q0 26 -32.5 37
t-120.5 15q-7 1 -9.5 1h-3.5l24 183h164z" />
    <glyph glyph-name="uni0163" unicode="&#x163;" horiz-adv-x="802" 
d="M492 -21q-125 0 -199.5 37.5t-107.5 113.5t-33 187v572h254v-534q0 -80 36.5 -117.5t128.5 -37.5q54 0 104 11.5t92 30.5l-22 -214q-50 -23 -114.5 -36t-138.5 -13zM10 771v202h748l-22 -202h-726zM155 954l-1 260l255 26l-10 -286h-244zM535 27l-24 -163l-101 60
q19 2 38.5 2.5t38.5 -0.5q105 -2 155 -40t50 -110v-6q0 -83 -60.5 -122.5t-176.5 -39.5q-42 0 -82 5.5t-70 12.5l-25 139q31 -9 66 -14t71 -5q49 0 73.5 10.5t24.5 32.5v2q0 26 -32.5 37t-120.5 15q-7 1 -9.5 1h-3.5l24 183h164z" />
    <glyph glyph-name="Tcaron" unicode="&#x164;" horiz-adv-x="1101" 
d="M420 0v1229h263v-1229h-263zM56 1059v219h989v-219h-989zM418 1387l-210 261v4h204l133 -136h9l133 136h204v-4l-210 -261h-263z" />
    <glyph glyph-name="tcaron" unicode="&#x165;" horiz-adv-x="802" 
d="M767 1424q2 -14 5 -34.5t3 -44.5q0 -88 -25 -164t-80 -143l-143 34q26 57 39 121.5t13 141.5q0 23 -1.5 44t-4.5 45h194zM492 -21q-125 0 -199.5 37.5t-107.5 113.5t-33 187v572h254v-534q0 -80 36.5 -117.5t128.5 -37.5q54 0 104 11.5t92 30.5l-22 -214
q-50 -23 -114.5 -36t-138.5 -13zM10 771v202h748l-22 -202h-726zM155 954l-1 260l255 26l-10 -286h-244z" />
    <glyph glyph-name="Tbar" unicode="&#x166;" horiz-adv-x="1101" 
d="M147 496v168h806v-169zM420 0v1229h263v-1229h-263zM56 1059v219h989v-219h-989z" />
    <glyph glyph-name="tbar" unicode="&#x167;" horiz-adv-x="807" 
d="M492 -22q-124 0 -199 38t-108 113.5t-33 187.5v572h254v-533q0 -81 37.5 -118.5t135.5 -37.5q52 0 102 12t91 31l-22 -215q-50 -23 -115.5 -36.5t-142.5 -13.5zM23 439v160h700v-160h-700zM10 775v198h752l-21 -198h-731zM155 954l-1 260l255 26l-10 -286h-244z" />
    <glyph glyph-name="Utilde" unicode="&#x168;" horiz-adv-x="1263" 
d="M632 -29q-264 0 -389 129.5t-125 378.5v799h263v-805q0 -137 59.5 -208.5t191.5 -71.5q131 0 190.5 71.5t59.5 208.5v805h263v-799q0 -249 -125 -378.5t-388 -129.5zM770 1402q-37 0 -72 8.5t-67 20t-60.5 20t-53.5 8.5q-28 0 -40 -16t-12 -47v-6h-149v33q0 92 40 148
t138 56q38 0 73.5 -9t66.5 -20.5t59.5 -20.5t52.5 -9q29 0 40 16t11 48v6h149v-32q0 -93 -39.5 -148.5t-136.5 -55.5z" />
    <glyph glyph-name="utilde" unicode="&#x169;" horiz-adv-x="1109" 
d="M358 981v-590q0 -61 16.5 -106.5t55 -70t103.5 -24.5q59 0 102 21t71 56.5t41 79.5l40 -139h-48q-16 -64 -53.5 -116.5t-102 -83.5t-161.5 -31q-112 0 -182.5 43t-104 127t-33.5 207v627h256zM997 981v-981h-255l9 238l-10 21v722h256zM688 1104q-36 0 -69.5 9t-64.5 22
t-59 22.5t-51 9.5q-28 0 -39.5 -16.5t-11.5 -49.5v-9h-149v36q0 95 39.5 152.5t137.5 57.5q38 0 72 -10t64.5 -22.5t57.5 -22t50 -9.5q28 0 39 17t11 49v10h150v-39q0 -95 -40 -151t-137 -56z" />
    <glyph glyph-name="Umacron" unicode="&#x16a;" horiz-adv-x="1263" 
d="M632 -29q-264 0 -389 129.5t-125 378.5v799h263v-805q0 -137 59.5 -208.5t191.5 -71.5q131 0 190.5 71.5t59.5 208.5v805h263v-799q0 -249 -125 -378.5t-388 -129.5zM329 1422v162h602v-162h-602z" />
    <glyph glyph-name="umacron" unicode="&#x16b;" horiz-adv-x="1109" 
d="M358 981v-590q0 -61 16.5 -106.5t55 -70t103.5 -24.5q59 0 102 21t71 56.5t41 79.5l40 -139h-48q-16 -64 -53.5 -116.5t-102 -83.5t-161.5 -31q-112 0 -182.5 43t-104 127t-33.5 207v627h256zM997 981v-981h-255l9 238l-10 21v722h256zM254 1127v162h602v-162h-602z" />
    <glyph glyph-name="Ubreve" unicode="&#x16c;" horiz-adv-x="1263" 
d="M632 -29q-264 0 -389 129.5t-125 378.5v799h263v-805q0 -137 59.5 -208.5t191.5 -71.5q131 0 190.5 71.5t59.5 208.5v805h263v-799q0 -249 -125 -378.5t-388 -129.5zM632 1379q-154 0 -223.5 71.5t-72.5 201.5h167q3 -57 34 -88.5t95 -31.5q63 0 94.5 31.5t35.5 88.5h166
q-3 -130 -72 -201.5t-224 -71.5z" />
    <glyph glyph-name="ubreve" unicode="&#x16d;" horiz-adv-x="1109" 
d="M358 981v-590q0 -61 16.5 -106.5t55 -70t103.5 -24.5q59 0 102 21t71 56.5t41 79.5l40 -139h-48q-16 -64 -53.5 -116.5t-102 -83.5t-161.5 -31q-112 0 -182.5 43t-104 127t-33.5 207v627h256zM997 981v-981h-255l9 238l-10 21v722h256zM555 1077q-153 0 -222.5 77
t-71.5 217h168q4 -66 33.5 -102.5t92.5 -36.5t93 36t34 103h168q-2 -140 -70.5 -217t-224.5 -77z" />
    <glyph glyph-name="Uring" unicode="&#x16e;" horiz-adv-x="1263" 
d="M632 -29q-264 0 -389 129.5t-125 378.5v799h263v-805q0 -137 59.5 -208.5t191.5 -71.5q131 0 190.5 71.5t59.5 208.5v805h263v-799q0 -249 -125 -378.5t-388 -129.5zM417 1524v5q0 79 52 127.5t162 48.5t162 -48.5t52 -127.5v-5q0 -78 -52 -127t-162 -49t-162 49t-52 127
zM551 1525q0 -32 20.5 -50t59.5 -18t59.5 18t20.5 50v3q0 33 -20.5 50.5t-59.5 17.5t-59.5 -17.5t-20.5 -50.5v-3z" />
    <glyph glyph-name="uring" unicode="&#x16f;" horiz-adv-x="1109" 
d="M358 981v-590q0 -61 16.5 -106.5t55 -70t103.5 -24.5q59 0 102 21t71 56.5t41 79.5l40 -139h-48q-16 -64 -53.5 -116.5t-102 -83.5t-161.5 -31q-112 0 -182.5 43t-104 127t-33.5 207v627h256zM997 981v-981h-255l9 238l-10 21v722h256zM341 1246v5q0 79 52 127.5
t162 48.5t162 -48.5t52 -127.5v-5q0 -78 -52 -127t-162 -49t-162 49t-52 127zM475 1247q0 -32 20.5 -50t59.5 -18t59.5 18t20.5 50v3q0 33 -20.5 50.5t-59.5 17.5t-59.5 -17.5t-20.5 -50.5v-3z" />
    <glyph glyph-name="Uhungarumlaut" unicode="&#x170;" horiz-adv-x="1263" 
d="M632 -29q-264 0 -389 129.5t-125 378.5v799h263v-805q0 -137 59.5 -208.5t191.5 -71.5q131 0 190.5 71.5t59.5 208.5v805h263v-799q0 -249 -125 -378.5t-388 -129.5zM841 1652h227v-3l-192 -262h-182v3zM524 1652h226v-4l-191 -261h-183v3z" />
    <glyph glyph-name="uhungarumlaut" unicode="&#x171;" horiz-adv-x="1109" 
d="M358 981v-590q0 -61 16.5 -106.5t55 -70t103.5 -24.5q59 0 102 21t71 56.5t41 79.5l40 -139h-48q-16 -64 -53.5 -116.5t-102 -83.5t-161.5 -31q-112 0 -182.5 43t-104 127t-33.5 207v627h256zM997 981v-981h-255l9 238l-10 21v722h256zM753 1371h229v-3l-182 -282h-182v1
zM434 1371h229v-5l-180 -280h-183v1z" />
    <glyph glyph-name="Uogonek" unicode="&#x172;" horiz-adv-x="1263" 
d="M781 -363q-100 0 -162 39.5t-62 118.5v2q0 61 36 103t105 65v23l149 82l-2 -69q-50 -24 -77 -52.5t-27 -67.5v0q0 -36 28 -51.5t79 -15.5q29 0 57 4.5t56 13.5l-23 -168q-33 -13 -73 -20t-84 -7zM632 -29q-264 0 -389 129.5t-125 378.5v799h263v-805q0 -137 59.5 -208.5
t191.5 -71.5q131 0 190.5 71.5t59.5 208.5v805h263v-799q0 -249 -125 -378.5t-388 -129.5z" />
    <glyph glyph-name="uogonek" unicode="&#x173;" horiz-adv-x="1109" 
d="M358 981v-590q0 -61 16.5 -106.5t55 -70t103.5 -24.5q59 0 102 21t71 56.5t41 79.5l40 -139h-48q-16 -64 -53.5 -116.5t-102 -83.5t-161.5 -31q-112 0 -182.5 43t-104 127t-33.5 207v627h256zM997 981v-981h-255l9 238l-10 21v722h256zM882 -363q-97 0 -155.5 41
t-58.5 123v1q0 73 41.5 118.5t115.5 72.5v23l162 1v-17q-65 -22 -100 -50t-35 -68v-1q0 -36 25 -52t69 -16q27 0 51 4t49 11l-23 -167q-30 -11 -65.5 -17.5t-75.5 -6.5z" />
    <glyph glyph-name="Wcircumflex" unicode="&#x174;" horiz-adv-x="1690" 
d="M285 0l-238 1278h267l139 -881l31 -178h16l31 178l143 851h342l143 -851l30 -178h18l31 177l140 882h265l-237 -1278h-385l-119 735l-49 296h-16l-49 -296l-117 -735h-386zM715 1652h262l211 -261v-4h-205l-133 136h-8l-133 -136h-205v4z" />
    <glyph glyph-name="wcircumflex" unicode="&#x175;" horiz-adv-x="1541" 
d="M248 0l-212 981h262l144 -799h18l146 774h330l147 -774h17l146 799h259l-212 -981h-372l-120 649l-22 121h-15l-22 -121l-121 -649h-373zM636 1371h269l182 -282v-3h-194l-118 155h-9l-119 -155h-193v3z" />
    <glyph glyph-name="Ycircumflex" unicode="&#x176;" horiz-adv-x="1145" 
d="M457 351l-439 927h276l187 -421l84 -210h15l84 210l186 421h276l-437 -927h-232zM444 0v589h258v-589h-258zM441 1652h262l211 -261v-4h-205l-133 136h-8l-133 -136h-205v4z" />
    <glyph glyph-name="ycircumflex" unicode="&#x177;" horiz-adv-x="1030" 
d="M632 212l-137 -59l245 828h263l-421 -1325h-257l154 482l119 -96h-286l-285 939h265l203 -769h137zM381 1371h269l182 -282v-3h-194l-118 155h-9l-119 -155h-193v3z" />
    <glyph glyph-name="Ydieresis" unicode="&#x178;" horiz-adv-x="1145" 
d="M457 351l-439 927h276l187 -421l84 -210h15l84 210l186 421h276l-437 -927h-232zM444 0v589h258v-589h-258zM404 1397q-60 0 -90 32.5t-30 91.5v7q0 59 30 91.5t90 32.5q63 0 92.5 -32.5t29.5 -91.5v-7q0 -59 -29.5 -91.5t-92.5 -32.5zM739 1397q-61 0 -90.5 32.5
t-29.5 91.5v7q0 59 29.5 91.5t90.5 32.5t91 -32.5t30 -91.5v-7q0 -59 -30 -91.5t-91 -32.5z" />
    <glyph glyph-name="Zacute" unicode="&#x179;" horiz-adv-x="1063" 
d="M993 220v-220h-923v206l609 854h-601v218h906v-204l-610 -854h619zM636 1652h282v-3l-278 -262h-232v3z" />
    <glyph glyph-name="zacute" unicode="&#x17a;" horiz-adv-x="933" 
d="M862 211v-211h-792v191l478 580h-474v210h783v-191l-479 -579h484zM535 1371h272v-3l-237 -282h-216v3z" />
    <glyph glyph-name="Zdotaccent" unicode="&#x17b;" horiz-adv-x="1063" 
d="M993 220v-220h-923v206l609 854h-601v218h906v-204l-610 -854h619zM531 1398q-64 0 -96.5 33t-32.5 90v5q0 57 32.5 89.5t96.5 32.5q66 0 98 -32.5t32 -89.5v-5q0 -57 -32 -90t-98 -33z" />
    <glyph glyph-name="zdotaccent" unicode="&#x17c;" horiz-adv-x="933" 
d="M862 211v-211h-792v191l478 580h-474v210h783v-191l-479 -579h484zM465 1097q-68 0 -101 34t-33 93v6q0 60 33 94.5t101 34.5q69 0 102 -34.5t33 -94.5v-6q0 -59 -33 -93t-102 -34z" />
    <glyph glyph-name="Zcaron" unicode="&#x17d;" horiz-adv-x="1063" 
d="M993 220v-220h-923v206l609 854h-601v218h906v-204l-610 -854h619zM400 1387l-210 261v4h204l133 -136h9l133 136h204v-4l-210 -261h-263z" />
    <glyph glyph-name="zcaron" unicode="&#x17e;" horiz-adv-x="933" 
d="M862 211v-211h-792v191l478 580h-474v210h783v-191l-479 -579h484zM332 1086l-182 281v4h194l118 -155h9l119 155h193v-4l-182 -281h-269z" />
    <glyph glyph-name="uni018F" unicode="&#x18f;" horiz-adv-x="1200" 
d="M592 -27q-255 0 -384.5 134t-129.5 366v58q0 60 3.5 112t10.5 99h859v-194l-671 1l56 64v-155q0 -130 64 -199t192 -69q132 0 193.5 72.5t61.5 204.5v290q0 160 -77.5 242.5t-261.5 82.5q-112 0 -215.5 -29.5t-189.5 -76.5l25 228q53 31 120 54t145.5 36t166.5 13
q275 0 414 -142.5t139 -411.5v-259q0 -166 -59 -282.5t-175 -177.5t-287 -61z" />
    <glyph glyph-name="florin" unicode="&#x192;" horiz-adv-x="891" 
d="M44 736l13 203h750l-14 -203h-749zM864 1114q-55 17 -109.5 26.5t-113.5 9.5q-101 0 -144 -36.5t-49 -123.5l-94 -1334h-245l96 1346q8 122 48 199.5t120 114.5t209 37q78 0 144 -13t127 -35z" />
    <glyph glyph-name="Ohorn" unicode="&#x1a0;" horiz-adv-x="1245" 
d="M622 -29q-265 0 -400.5 138.5t-135.5 396.5v260q0 259 135.5 399t400.5 140t400.5 -140t135.5 -399v-260q0 -258 -135 -396.5t-401 -138.5zM622 189q135 0 202 80t67 225v284q0 150 -67 230.5t-202 80.5q-134 0 -201 -80.5t-67 -230.5v-284q0 -145 67 -225t201 -80z
M957 1135l-81 117q74 26 108 65.5t34 98.5q0 22 -4 44.5t-10 41.5h222q7 -20 11.5 -45t4.5 -53q0 -106 -66.5 -172.5t-218.5 -96.5z" />
    <glyph glyph-name="ohorn" unicode="&#x1a1;" horiz-adv-x="1074" 
d="M538 -27q-228 0 -345.5 117t-117.5 333v133q0 217 117.5 334.5t345.5 117.5q227 0 344 -117.5t117 -334.5v-133q0 -216 -116.5 -333t-344.5 -117zM538 178q100 0 152.5 60t52.5 172v159q0 114 -52.5 174.5t-152.5 60.5q-101 0 -153.5 -60.5t-52.5 -174.5v-159
q0 -112 52.5 -172t153.5 -60zM837 859l-86 112q63 20 92.5 59t29.5 94q0 23 -4 45.5t-9 41.5h221q6 -21 10.5 -46t4.5 -54q0 -98 -60.5 -161t-198.5 -91z" />
    <glyph glyph-name="Uhorn" unicode="&#x1af;" horiz-adv-x="1263" 
d="M632 -29q-264 0 -389 129.5t-125 378.5v799h263v-805q0 -137 59.5 -208.5t191.5 -71.5q131 0 190.5 71.5t59.5 208.5v805h263v-799q0 -249 -125 -378.5t-388 -129.5zM1051 1164l-71 100q63 23 90.5 59.5t27.5 92.5q0 22 -3.5 44.5t-9.5 41.5h222q6 -20 11 -45.5t5 -52.5
q0 -100 -65.5 -158.5t-206.5 -81.5z" />
    <glyph glyph-name="uhorn" unicode="&#x1b0;" horiz-adv-x="1109" 
d="M358 981v-590q0 -61 16.5 -106.5t55 -70t103.5 -24.5q59 0 102 21t71 56.5t41 79.5l40 -139h-48q-16 -64 -53.5 -116.5t-102 -83.5t-161.5 -31q-112 0 -182.5 43t-104 127t-33.5 207v627h256zM997 981v-981h-255l9 238l-10 21v722h256zM926 872l-76 101q54 22 79.5 60
t25.5 91q0 23 -4 45.5t-9 41.5h221q6 -21 10.5 -45.5t4.5 -52.5q0 -94 -59 -153.5t-193 -87.5z" />
    <glyph glyph-name="uni01C4" unicode="&#x1c4;" horiz-adv-x="2248" 
d="M310 0v220h290q137 0 205.5 74.5t68.5 213.5v265q0 139 -68.5 213t-205.5 74h-291v218h300q264 0 397 -130t133 -374v-267q0 -245 -132.5 -376t-397.5 -131h-299zM127 0v1278h259v-1278h-259zM2178 220v-220h-923v206l609 854h-601v218h906v-204l-610 -854h619z
M1585 1387l-210 261v4h204l133 -136h9l133 136h204v-4l-210 -261h-263z" />
    <glyph glyph-name="uni01C5" unicode="&#x1c5;" horiz-adv-x="2149" 
d="M310 0v220h290q137 0 205.5 74.5t68.5 213.5v265q0 139 -68.5 213t-205.5 74h-291v218h300q264 0 397 -130t133 -374v-267q0 -245 -132.5 -376t-397.5 -131h-299zM127 0v1278h259v-1278h-259zM2078 211v-211h-792v191l478 580h-474v210h783v-191l-479 -579h484z
M1548 1086l-182 281v4h194l118 -155h9l119 155h193v-4l-182 -281h-269z" />
    <glyph glyph-name="uni01C6" unicode="&#x1c6;" horiz-adv-x="2044" 
d="M430 -23q-173 0 -263 112t-90 330v135q0 221 91 335t271 114q88 0 148.5 -28t98 -80t52.5 -122h75l-65 -190q-2 69 -28.5 116.5t-73.5 72.5t-111 25q-97 0 -148.5 -56t-51.5 -167v-162q0 -110 51.5 -166t150.5 -56q56 0 100 21t73.5 57.5t42.5 82.5l61 -143h-72
q-16 -64 -52 -116.5t-99 -83.5t-161 -31zM744 0l9 240l-5 57v401l1 41l-5 281v302h256v-1322h-256zM1973 211v-211h-792v191l478 580h-474v210h783v-191l-479 -579h484zM1443 1086l-182 281v4h194l118 -155h9l119 155h193v-4l-182 -281h-269z" />
    <glyph glyph-name="uni01C7" unicode="&#x1c7;" horiz-adv-x="1830" 
d="M391 0h-264v1278h264v-1278zM275 221h669v-221h-669v221zM1304 -19q-62 0 -124 10t-112 30l-19 225q48 -18 96.5 -28t100.5 -10q117 0 159.5 52.5t42.5 160.5v857h263v-873q0 -209 -93 -316.5t-314 -107.5z" />
    <glyph glyph-name="uni01C8" unicode="&#x1c8;" horiz-adv-x="1516" 
d="M391 0h-264v1278h264v-1278zM275 221h669v-221h-669v221zM1146 167v814h257v-814h-257zM1274 1097q-73 0 -107.5 34.5t-34.5 95.5v5q0 61 34.5 96t107.5 35t107.5 -35t34.5 -96v-5q0 -62 -34.5 -96t-107.5 -34zM1081 -360q-44 0 -82.5 6.5t-66.5 15.5l-19 205
q22 -9 47 -14t51 -5q80 0 107.5 42.5t27.5 118.5v231h257v-247q0 -108 -31 -187t-101.5 -122.5t-189.5 -43.5z" />
    <glyph glyph-name="uni01C9" unicode="&#x1c9;" horiz-adv-x="989" 
d="M114 0v1322h257v-1322h-257zM619 167v814h257v-814h-257zM747 1097q-73 0 -107.5 34.5t-34.5 95.5v5q0 61 34.5 96t107.5 35t107.5 -35t34.5 -96v-5q0 -62 -34.5 -96t-107.5 -34zM554 -360q-44 0 -82.5 6.5t-66.5 15.5l-19 205q22 -9 47 -14t51 -5q80 0 107.5 42.5
t27.5 118.5v231h257v-247q0 -108 -31 -187t-101.5 -122.5t-189.5 -43.5z" />
    <glyph glyph-name="uni01CA" unicode="&#x1ca;" horiz-adv-x="2111" 
d="M500 1278l402 -992h13l-11 545v447h251v-1278h-362l-412 1010h-13l11 -562v-448h-252v1278h373zM1585 -19q-62 0 -124 10t-112 30l-19 225q48 -18 96.5 -28t100.5 -10q117 0 159.5 52.5t42.5 160.5v857h263v-873q0 -209 -93 -316.5t-314 -107.5z" />
    <glyph glyph-name="uni01CB" unicode="&#x1cb;" horiz-adv-x="1787" 
d="M500 1278l402 -992h13l-11 545v447h251v-1278h-362l-412 1010h-13l11 -562v-448h-252v1278h373zM1417 167v814h257v-814h-257zM1545 1097q-73 0 -107.5 34.5t-34.5 95.5v5q0 61 34.5 96t107.5 35t107.5 -35t34.5 -96v-5q0 -62 -34.5 -96t-107.5 -34zM1352 -360
q-44 0 -82.5 6.5t-66.5 15.5l-19 205q22 -9 47 -14t51 -5q80 0 107.5 42.5t27.5 118.5v231h257v-247q0 -108 -31 -187t-101.5 -122.5t-189.5 -43.5z" />
    <glyph glyph-name="uni01CC" unicode="&#x1cc;" horiz-adv-x="1613" 
d="M751 0v589q0 62 -16.5 107t-54.5 70t-104 25q-58 0 -101.5 -21t-71 -56.5t-41.5 -80.5l-40 140h48q16 65 53.5 117t102 82.5t161.5 30.5q113 0 183 -42.5t103.5 -126.5t33.5 -208v-626h-256zM112 0v981h256l-10 -239l10 -21v-721h-256zM1243 167v814h257v-814h-257z
M1371 1097q-73 0 -107.5 34.5t-34.5 95.5v5q0 61 34.5 96t107.5 35t107.5 -35t34.5 -96v-5q0 -62 -34.5 -96t-107.5 -34zM1178 -360q-44 0 -82.5 6.5t-66.5 15.5l-19 205q22 -9 47 -14t51 -5q80 0 107.5 42.5t27.5 118.5v231h257v-247q0 -108 -31 -187t-101.5 -122.5
t-189.5 -43.5z" />
    <glyph glyph-name="Gcaron" unicode="&#x1e6;" horiz-adv-x="1229" 
d="M528 -27q-146 0 -244.5 61.5t-148 178t-49.5 281.5v254q0 271 144.5 414t423.5 143q90 0 165.5 -13.5t137 -34t106.5 -45.5l22 -226q-73 38 -167 66.5t-214 28.5q-180 0 -265 -86t-85 -259v-243q0 -142 66.5 -219t204.5 -77q65 0 112 20t78 54t47 74v268l36 -81l-263 -1
v208h480v-532l-258 1q-16 -66 -52 -119t-103 -84.5t-174 -31.5zM869 263h246v-263h-255zM482 1387l-210 261v4h204l133 -136h9l133 136h204v-4l-210 -261h-263z" />
    <glyph glyph-name="gcaron" unicode="&#x1e7;" horiz-adv-x="1050" 
d="M528 301q-223 0 -338 88.5t-115 248.5v15q0 106 46 180.5t144 116.5t254 48l517 21v-188l-266 10v-11q63 -13 104.5 -41.5t62.5 -73t21 -107.5v-9q0 -145 -107 -221.5t-323 -76.5zM516 -187h28q78 0 129 10.5t76.5 32t25.5 55.5v3q0 42 -32.5 61.5t-104.5 26.5l-287 28
l59 3q-37 -7 -65.5 -20.5t-44.5 -35.5t-16 -54v-2q0 -37 26 -61.5t78 -35.5t128 -11zM502 -380q-142 0 -243 23.5t-154.5 74.5t-53.5 135v4q0 57 25 96t71 62t106 29v10q-76 15 -114.5 49.5t-38.5 94.5v1q0 42 19 71t56.5 46t92.5 20v29l217 -54l-70 2q-46 -1 -64 -12.5
t-18 -32.5v-1q0 -26 28 -37.5t93 -19.5l235 -26q165 -19 243.5 -81t78.5 -191v-5q0 -99 -56 -162.5t-161.5 -94t-255.5 -30.5h-36zM521 479q67 0 111.5 19t67 56t22.5 90v11q0 53 -22 89.5t-66 55t-111 18.5h-3q-71 0 -116 -19.5t-66 -56t-21 -87.5v-11q0 -53 22.5 -90
t68 -56t113.5 -19zM390 1088l-182 281v4h194l118 -155h9l119 155h193v-4l-182 -281h-269z" />
    <glyph glyph-name="uni01EA" unicode="&#x1ea;" horiz-adv-x="1272" 
d="M770 -363q-101 0 -162.5 39.5t-61.5 117.5v2q0 60 36 102.5t105 66.5v23l148 63l-2 -50q-49 -24 -76 -52.5t-27 -67.5v0q0 -36 28 -51.5t79 -15.5q29 0 57 4.5t55 13.5l-22 -168q-34 -13 -73.5 -20t-83.5 -7zM622 -29q-265 0 -400.5 138.5t-135.5 396.5v260
q0 259 135.5 399t400.5 140t400.5 -140t135.5 -399v-260q0 -258 -135 -396.5t-401 -138.5zM622 189q135 0 202 80t67 225v284q0 150 -67 230.5t-202 80.5q-134 0 -201 -80.5t-67 -230.5v-284q0 -145 67 -225t201 -80z" />
    <glyph glyph-name="uni01EB" unicode="&#x1eb;" horiz-adv-x="1091" 
d="M688 -363q-102 0 -164 40t-62 120v1q0 62 34.5 103.5t102.5 66.5v23l149 32v-16q-49 -23 -75.5 -52t-26.5 -71v-1q0 -36 28 -53t78 -17q29 0 56 4.5t55 13.5l-23 -168q-32 -13 -71 -19.5t-81 -6.5zM538 -27q-228 0 -345.5 117t-117.5 333v133q0 217 117.5 334.5
t345.5 117.5q227 0 344 -117.5t117 -334.5v-133q0 -216 -116.5 -333t-344.5 -117zM538 178q100 0 152.5 60t52.5 172v159q0 114 -52.5 174.5t-152.5 60.5q-101 0 -153.5 -60.5t-52.5 -174.5v-159q0 -112 52.5 -172t153.5 -60z" />
    <glyph glyph-name="uni01F1" unicode="&#x1f1;" horiz-adv-x="2248" 
d="M310 0v220h290q137 0 205.5 74.5t68.5 213.5v265q0 139 -68.5 213t-205.5 74h-291v218h300q264 0 397 -130t133 -374v-267q0 -245 -132.5 -376t-397.5 -131h-299zM127 0v1278h259v-1278h-259zM2178 220v-220h-923v206l609 854h-601v218h906v-204l-610 -854h619z" />
    <glyph glyph-name="uni01F2" unicode="&#x1f2;" horiz-adv-x="2149" 
d="M310 0v220h290q137 0 205.5 74.5t68.5 213.5v265q0 139 -68.5 213t-205.5 74h-291v218h300q264 0 397 -130t133 -374v-267q0 -245 -132.5 -376t-397.5 -131h-299zM127 0v1278h259v-1278h-259zM2078 211v-211h-792v191l478 580h-474v210h783v-191l-479 -579h484z" />
    <glyph glyph-name="uni01F3" unicode="&#x1f3;" horiz-adv-x="2044" 
d="M430 -23q-173 0 -263 112t-90 330v135q0 221 91 335t271 114q88 0 148.5 -28t98 -80t52.5 -122h75l-65 -190q-2 69 -28.5 116.5t-73.5 72.5t-111 25q-97 0 -148.5 -56t-51.5 -167v-162q0 -110 51.5 -166t150.5 -56q56 0 100 21t73.5 57.5t42.5 82.5l61 -143h-72
q-16 -64 -52 -116.5t-99 -83.5t-161 -31zM744 0l9 240l-5 57v401l1 41l-5 281v302h256v-1322h-256zM1973 211v-211h-792v191l478 580h-474v210h783v-191l-479 -579h484z" />
    <glyph glyph-name="Aringacute" unicode="&#x1fa;" horiz-adv-x="1216" 
d="M662 2002h227v-3l-187 -233h-184v3zM32 0l377 1278h399l376 -1278h-265l-298 1105h-24l-300 -1105h-265zM318 326v209h578v-209h-578zM394 1523v5q0 79 52 127.5t162 48.5t162 -48.5t52 -127.5v-5q0 -77 -52 -126t-162 -49t-162 49t-52 126zM528 1525q0 -33 20.5 -50.5
t59.5 -17.5t59.5 17.5t20.5 50.5v3q0 32 -20.5 49.5t-59.5 17.5t-59.5 -17.5t-20.5 -49.5v-3z" />
    <glyph glyph-name="aringacute" unicode="&#x1fb;" horiz-adv-x="1031" 
d="M569 1743h224v-2l-188 -248h-181v2zM680 0l9 240l-7 22v307l-1 44q0 96 -52.5 141t-171.5 45q-101 0 -189.5 -26.5t-163.5 -61.5l22 204q44 23 100.5 43.5t126.5 33.5t151 13q120 0 203 -28.5t132.5 -81.5t71.5 -126.5t22 -162.5v-606h-253zM359 -23q-146 0 -222.5 73
t-76.5 208v28q0 143 88 211.5t279 94.5l278 38l15 -165l-256 -37q-84 -11 -119.5 -40t-35.5 -85v-10q0 -55 34.5 -85.5t108.5 -30.5q66 0 113 21t77.5 55.5t43.5 77.5l36 -127h-44q-16 -63 -51.5 -114.5t-99.5 -82t-168 -30.5zM296 1246v5q0 79 52 127.5t162 48.5t162 -48.5
t52 -127.5v-5q0 -78 -52 -127t-162 -49t-162 49t-52 127zM430 1247q0 -32 20.5 -50t59.5 -18q40 0 60 18t20 50v3q0 33 -20 50.5t-60 17.5q-39 0 -59.5 -17.5t-20.5 -50.5v-3z" />
    <glyph glyph-name="AEacute" unicode="&#x1fc;" horiz-adv-x="1810" 
d="M28 0l609 1278h273l-1 -173h-91l-512 -1105h-278zM345 326v209h578v-209h-578zM939 0v219h785v-219h-785zM863 0v1278h257v-1278h-257zM1013 543v213h688v-213h-688zM939 1061v217h777v-217h-777zM1009 1652h282v-3l-278 -262h-232v3z" />
    <glyph glyph-name="aeacute" unicode="&#x1fd;" horiz-adv-x="1645" 
d="M1186 -25q-201 0 -318 72.5t-154 200.5l-20 48q-7 53 -9 104.5t-2 105.5l-2 107q0 96 -55 141t-169 45q-101 0 -189.5 -26.5t-163.5 -61.5l22 205q41 22 93.5 43t117 33.5t138.5 12.5q138 0 215.5 -55.5t107.5 -146.5h8q39 94 127 150t227 56q137 0 229.5 -52t139 -147.5
t46.5 -228.5v-35q0 -36 -3 -73.5t-9 -71.5h-232q2 56 3 104.5t1 89.5q0 70 -22 118t-67 73.5t-114 25.5q-103 0 -152.5 -60t-49.5 -161v-90l1 -28v-72q0 -47 15 -87t50 -69.5t92 -46t141 -16.5q91 0 173.5 20.5t157.5 54.5l-22 -201q-65 -37 -154.5 -59t-197.5 -22zM371 -23
q-156 0 -233.5 74t-77.5 207v28q0 143 88.5 211.5t278.5 94.5l278 38l15 -165l-256 -37q-84 -11 -119.5 -40t-35.5 -85v-10q0 -55 34.5 -85.5t108.5 -30.5q69 0 118 20.5t81 56t46 78.5l75 -141h-43q-26 -60 -68.5 -108t-112.5 -77t-177 -29zM818 401v171h693v-171h-693z
M892 1371h272v-3l-237 -282h-216v3z" />
    <glyph glyph-name="Oslashacute" unicode="&#x1fe;" horiz-adv-x="1245" 
d="M624 -29q-170 0 -290 64t-184 185t-64 290v257q0 259 136 399t398 140q171 0 291 -65t183.5 -185.5t63.5 -288.5v-257q0 -261 -135.5 -400t-398.5 -139zM100 -71l170 256l57 77l501 872l36 64l98 151h183l-166 -251l-54 -76l-499 -872l-30 -46l-113 -175h-183zM622 187
q135 0 202.5 81t67.5 231v283q0 148 -64 228t-206 80q-135 0 -202 -81t-67 -231v-283q0 -150 64.5 -229t204.5 -79zM726 1652h282v-3l-278 -262h-232v3z" />
    <glyph glyph-name="oslashacute" unicode="&#x1ff;" horiz-adv-x="1076" 
d="M538 -26q-147 0 -250.5 53.5t-158 154.5t-54.5 241v129q0 222 118.5 339t344.5 117q148 0 251.5 -53.5t157.5 -153.5t54 -241v-129q0 -222 -118 -339.5t-345 -117.5zM104 -71l143 214l56 75l387 642l37 65l84 126h161l-138 -204l-54 -74l-383 -640l-39 -64l-92 -140h-162
zM538 177q104 0 157.5 61.5t53.5 177.5v159q0 110 -52 170t-159 60q-103 0 -157 -61t-54 -176v-160q0 -110 52.5 -170.5t158.5 -60.5zM606 1371h272v-3l-237 -282h-216v3z" />
    <glyph glyph-name="uni0200" unicode="&#x200;" horiz-adv-x="1216" 
d="M32 0l377 1278h399l376 -1278h-265l-298 1105h-24l-300 -1105h-265zM318 326v209h578v-209h-578zM398 1652l147 -262v-3h-183l-192 262v3h228zM715 1652l148 -262v-3h-183l-192 261v4h227z" />
    <glyph glyph-name="uni0201" unicode="&#x201;" horiz-adv-x="1031" 
d="M680 0l9 240l-7 22v307l-1 44q0 96 -52.5 141t-171.5 45q-101 0 -189.5 -26.5t-163.5 -61.5l22 204q44 23 100.5 43.5t126.5 33.5t151 13q120 0 203 -28.5t132.5 -81.5t71.5 -126.5t22 -162.5v-606h-253zM359 -23q-146 0 -222.5 73t-76.5 208v28q0 143 88 211.5t279 94.5
l278 38l15 -165l-256 -37q-84 -11 -119.5 -40t-35.5 -85v-10q0 -55 34.5 -85.5t108.5 -30.5q66 0 113 21t77.5 55.5t43.5 77.5l36 -127h-44q-16 -63 -51.5 -114.5t-99.5 -82t-168 -30.5zM312 1371l134 -284v-1h-181l-182 282v3h229zM631 1371l133 -284v-1h-182l-180 280v5
h229z" />
    <glyph glyph-name="uni0202" unicode="&#x202;" horiz-adv-x="1216" 
d="M32 0l377 1278h399l376 -1278h-265l-298 1105h-24l-300 -1105h-265zM318 326v209h578v-209h-578zM608 1660q155 0 224 -71t72 -202h-166q-4 58 -35.5 89.5t-94.5 31.5q-64 0 -95 -31.5t-34 -89.5h-167q3 131 72.5 202t223.5 71z" />
    <glyph glyph-name="uni0203" unicode="&#x203;" horiz-adv-x="1031" 
d="M680 0l9 240l-7 22v307l-1 44q0 96 -52.5 141t-171.5 45q-101 0 -189.5 -26.5t-163.5 -61.5l22 204q44 23 100.5 43.5t126.5 33.5t151 13q120 0 203 -28.5t132.5 -81.5t71.5 -126.5t22 -162.5v-606h-253zM359 -23q-146 0 -222.5 73t-76.5 208v28q0 143 88 211.5t279 94.5
l278 38l15 -165l-256 -37q-84 -11 -119.5 -40t-35.5 -85v-10q0 -55 34.5 -85.5t108.5 -30.5q66 0 113 21t77.5 55.5t43.5 77.5l36 -127h-44q-16 -63 -51.5 -114.5t-99.5 -82t-168 -30.5zM510 1380q156 0 224.5 -77t70.5 -217h-168q-4 68 -34 103.5t-93 35.5t-92.5 -36
t-33.5 -103h-168q2 140 71.5 217t222.5 77z" />
    <glyph glyph-name="uni0204" unicode="&#x204;" horiz-adv-x="1075" 
d="M127 0v1278h258v-1278h-258zM204 0v219h785v-219h-785zM277 543v213h689v-213h-689zM203 1061v217h778v-217h-778zM351 1652l147 -262v-3h-183l-192 262v3h228zM668 1652l148 -262v-3h-183l-192 261v4h227z" />
    <glyph glyph-name="uni0205" unicode="&#x205;" horiz-adv-x="1038" 
d="M573 -24q-252 0 -375 116t-123 336v128q0 218 115 335t334 117q148 0 247 -52t148.5 -147.5t49.5 -228.5v-35q0 -36 -3.5 -73.5t-9.5 -70.5h-232q3 55 3.5 104.5t0.5 89.5q0 69 -22 117.5t-67 73.5t-115 25q-103 0 -152 -57t-49 -162v-91l1 -29v-77q0 -46 14.5 -85
t48.5 -67.5t90.5 -44.5t141.5 -16q92 0 175.5 20.5t158.5 55.5l-22 -202q-67 -37 -157.5 -58.5t-200.5 -21.5zM211 401v170h693v-170h-693zM332 1371l134 -284v-1h-181l-182 282v3h229zM651 1371l133 -284v-1h-182l-180 280v5h229z" />
    <glyph glyph-name="uni0206" unicode="&#x206;" horiz-adv-x="1075" 
d="M127 0v1278h258v-1278h-258zM204 0v219h785v-219h-785zM277 543v213h689v-213h-689zM203 1061v217h778v-217h-778zM561 1660q155 0 224 -71t72 -202h-166q-4 58 -35.5 89.5t-94.5 31.5q-64 0 -95 -31.5t-34 -89.5h-167q3 131 72.5 202t223.5 71z" />
    <glyph glyph-name="uni0207" unicode="&#x207;" horiz-adv-x="1038" 
d="M573 -24q-252 0 -375 116t-123 336v128q0 218 115 335t334 117q148 0 247 -52t148.5 -147.5t49.5 -228.5v-35q0 -36 -3.5 -73.5t-9.5 -70.5h-232q3 55 3.5 104.5t0.5 89.5q0 69 -22 117.5t-67 73.5t-115 25q-103 0 -152 -57t-49 -162v-91l1 -29v-77q0 -46 14.5 -85
t48.5 -67.5t90.5 -44.5t141.5 -16q92 0 175.5 20.5t158.5 55.5l-22 -202q-67 -37 -157.5 -58.5t-200.5 -21.5zM211 401v170h693v-170h-693zM530 1380q156 0 224.5 -77t70.5 -217h-168q-4 68 -34 103.5t-93 35.5t-92.5 -36t-33.5 -103h-168q2 140 71.5 217t222.5 77z" />
    <glyph glyph-name="uni0208" unicode="&#x208;" horiz-adv-x="519" 
d="M391 0h-263v1278h263v-1278zM50 1652l147 -262v-3h-183l-192 262v3h228zM367 1652l148 -262v-3h-183l-192 261v4h227z" />
    <glyph glyph-name="uni0209" unicode="&#x209;" horiz-adv-x="483" 
d="M114 0v981h256v-981h-256zM91 1371l101 -284v-1h-169l-142 282v3h210zM384 1371l80 -284v-1h-170l-120 280v5h210z" />
    <glyph glyph-name="uni020A" unicode="&#x20a;" horiz-adv-x="519" 
d="M391 0h-263v1278h263v-1278zM260 1660q155 0 224 -71t72 -202h-166q-4 58 -35.5 89.5t-94.5 31.5q-64 0 -95 -31.5t-34 -89.5h-167q3 131 72.5 202t223.5 71z" />
    <glyph glyph-name="uni020B" unicode="&#x20b;" horiz-adv-x="483" 
d="M114 0v981h256v-981h-256zM243 1375q138 0 197.5 -74.5t62.5 -214.5h-160q-1 68 -24.5 101.5t-75.5 33.5q-53 0 -75.5 -33.5t-24.5 -101.5h-159q2 140 62 214.5t197 74.5z" />
    <glyph glyph-name="uni020C" unicode="&#x20c;" horiz-adv-x="1245" 
d="M622 -29q-265 0 -400.5 138.5t-135.5 396.5v260q0 259 135.5 399t400.5 140t400.5 -140t135.5 -399v-260q0 -258 -135 -396.5t-401 -138.5zM622 189q135 0 202 80t67 225v284q0 150 -67 230.5t-202 80.5q-134 0 -201 -80.5t-67 -230.5v-284q0 -145 67 -225t201 -80z
M412 1652l147 -262v-3h-183l-192 262v3h228zM729 1652l148 -262v-3h-183l-192 261v4h227z" />
    <glyph glyph-name="uni020D" unicode="&#x20d;" horiz-adv-x="1074" 
d="M538 -27q-228 0 -345.5 117t-117.5 333v133q0 217 117.5 334.5t345.5 117.5q227 0 344 -117.5t117 -334.5v-133q0 -216 -116.5 -333t-344.5 -117zM538 178q100 0 152.5 60t52.5 172v159q0 114 -52.5 174.5t-152.5 60.5q-101 0 -153.5 -60.5t-52.5 -174.5v-159
q0 -112 52.5 -172t153.5 -60zM340 1371l134 -284v-1h-181l-182 282v3h229zM659 1371l133 -284v-1h-182l-180 280v5h229z" />
    <glyph glyph-name="uni020E" unicode="&#x20e;" horiz-adv-x="1245" 
d="M622 -29q-265 0 -400.5 138.5t-135.5 396.5v260q0 259 135.5 399t400.5 140t400.5 -140t135.5 -399v-260q0 -258 -135 -396.5t-401 -138.5zM622 189q135 0 202 80t67 225v284q0 150 -67 230.5t-202 80.5q-134 0 -201 -80.5t-67 -230.5v-284q0 -145 67 -225t201 -80z
M622 1660q155 0 224 -71t72 -202h-166q-4 58 -35.5 89.5t-94.5 31.5q-64 0 -95 -31.5t-34 -89.5h-167q3 131 72.5 202t223.5 71z" />
    <glyph glyph-name="uni020F" unicode="&#x20f;" horiz-adv-x="1074" 
d="M538 -27q-228 0 -345.5 117t-117.5 333v133q0 217 117.5 334.5t345.5 117.5q227 0 344 -117.5t117 -334.5v-133q0 -216 -116.5 -333t-344.5 -117zM538 178q100 0 152.5 60t52.5 172v159q0 114 -52.5 174.5t-152.5 60.5q-101 0 -153.5 -60.5t-52.5 -174.5v-159
q0 -112 52.5 -172t153.5 -60zM538 1380q156 0 224.5 -77t70.5 -217h-168q-4 68 -34 103.5t-93 35.5t-92.5 -36t-33.5 -103h-168q2 140 71.5 217t222.5 77z" />
    <glyph glyph-name="uni0210" unicode="&#x210;" horiz-adv-x="1189" 
d="M854 0l-29 249q-7 67 -28 112t-63 68.5t-116 23.5l-309 1v202l325 1q109 0 156.5 50.5t47.5 144.5v24q0 93 -47.5 141.5t-158.5 48.5h-326v212h363q225 0 328.5 -91t103.5 -259v-28q0 -126 -61 -200t-194 -88v-36l-73 36q114 -8 176.5 -48t91.5 -110.5t44 -174.5l39 -279
h-270zM127 0v1278h256v-694l2 -97v-487h-258zM385 1652l147 -262v-3h-183l-192 262v3h228zM702 1652l148 -262v-3h-183l-192 261v4h227z" />
    <glyph glyph-name="uni0211" unicode="&#x211;" horiz-adv-x="775" 
d="M361 570l-65 171h62q27 119 98 187t197 68q26 0 47 -3.5t38 -8.5l14 -256q-22 7 -51 10.5t-61 3.5q-102 0 -173.5 -45t-105.5 -127zM112 0v981h244l-11 -301l23 -9v-671h-256zM213 1371l134 -284v-1h-181l-182 282v3h229zM532 1371l133 -284v-1h-182l-180 280v5h229z" />
    <glyph glyph-name="uni0212" unicode="&#x212;" horiz-adv-x="1189" 
d="M854 0l-29 249q-7 67 -28 112t-63 68.5t-116 23.5l-309 1v202l325 1q109 0 156.5 50.5t47.5 144.5v24q0 93 -47.5 141.5t-158.5 48.5h-326v212h363q225 0 328.5 -91t103.5 -259v-28q0 -126 -61 -200t-194 -88v-36l-73 36q114 -8 176.5 -48t91.5 -110.5t44 -174.5l39 -279
h-270zM127 0v1278h256v-694l2 -97v-487h-258zM595 1660q155 0 224 -71t72 -202h-166q-4 58 -35.5 89.5t-94.5 31.5q-64 0 -95 -31.5t-34 -89.5h-167q3 131 72.5 202t223.5 71z" />
    <glyph glyph-name="uni0213" unicode="&#x213;" horiz-adv-x="775" 
d="M361 570l-65 171h62q27 119 98 187t197 68q26 0 47 -3.5t38 -8.5l14 -256q-22 7 -51 10.5t-61 3.5q-102 0 -173.5 -45t-105.5 -127zM112 0v981h244l-11 -301l23 -9v-671h-256zM411 1380q156 0 224.5 -77t70.5 -217h-168q-4 68 -34 103.5t-93 35.5t-92.5 -36t-33.5 -103
h-168q2 140 71.5 217t222.5 77z" />
    <glyph glyph-name="uni0214" unicode="&#x214;" horiz-adv-x="1263" 
d="M632 -29q-264 0 -389 129.5t-125 378.5v799h263v-805q0 -137 59.5 -208.5t191.5 -71.5q131 0 190.5 71.5t59.5 208.5v805h263v-799q0 -249 -125 -378.5t-388 -129.5zM421 1652l147 -262v-3h-183l-192 262v3h228zM738 1652l148 -262v-3h-183l-192 261v4h227z" />
    <glyph glyph-name="uni0215" unicode="&#x215;" horiz-adv-x="1109" 
d="M358 981v-590q0 -61 16.5 -106.5t55 -70t103.5 -24.5q59 0 102 21t71 56.5t41 79.5l40 -139h-48q-16 -64 -53.5 -116.5t-102 -83.5t-161.5 -31q-112 0 -182.5 43t-104 127t-33.5 207v627h256zM997 981v-981h-255l9 238l-10 21v722h256zM357 1371l134 -284v-1h-181
l-182 282v3h229zM676 1371l133 -284v-1h-182l-180 280v5h229z" />
    <glyph glyph-name="uni0216" unicode="&#x216;" horiz-adv-x="1263" 
d="M632 -29q-264 0 -389 129.5t-125 378.5v799h263v-805q0 -137 59.5 -208.5t191.5 -71.5q131 0 190.5 71.5t59.5 208.5v805h263v-799q0 -249 -125 -378.5t-388 -129.5zM632 1660q155 0 224 -71t72 -202h-166q-4 58 -35.5 89.5t-94.5 31.5q-64 0 -95 -31.5t-34 -89.5h-167
q3 131 72.5 202t223.5 71z" />
    <glyph glyph-name="uni0217" unicode="&#x217;" horiz-adv-x="1109" 
d="M358 981v-590q0 -61 16.5 -106.5t55 -70t103.5 -24.5q59 0 102 21t71 56.5t41 79.5l40 -139h-48q-16 -64 -53.5 -116.5t-102 -83.5t-161.5 -31q-112 0 -182.5 43t-104 127t-33.5 207v627h256zM997 981v-981h-255l9 238l-10 21v722h256zM555 1380q156 0 224.5 -77
t70.5 -217h-168q-4 68 -34 103.5t-93 35.5t-92.5 -36t-33.5 -103h-168q2 140 71.5 217t222.5 77z" />
    <glyph glyph-name="uni0218" unicode="&#x218;" horiz-adv-x="1066" 
d="M510 -26q-89 0 -166.5 13t-140 32.5t-107.5 39.5l-23 248q78 -41 185 -73.5t228 -32.5q128 0 185 37t57 114v11q0 50 -24.5 82.5t-81.5 57.5t-155 51q-138 38 -226.5 86.5t-130.5 121t-42 182.5v12q0 168 113.5 258t335.5 90q138 0 237 -25t166 -58l23 -231
q-75 40 -171.5 66.5t-210.5 26.5q-85 0 -134.5 -16t-71 -47t-21.5 -75v-3q0 -45 22.5 -78t80.5 -60.5t165 -56.5q136 -38 222.5 -82t128.5 -114t42 -185v-18q0 -185 -120.5 -279.5t-364.5 -94.5zM636 -104q2 -15 3.5 -35t1.5 -42q0 -86 -26 -158t-87 -140l-166 42
q31 56 46.5 117t15.5 137q0 21 -1 40t-3 39h216z" />
    <glyph glyph-name="uni0219" unicode="&#x219;" horiz-adv-x="914" 
d="M447 -24q-118 0 -209.5 22.5t-155.5 50.5l-23 222q76 -35 167.5 -61t201.5 -26q96 0 139 24.5t43 73.5v6q0 33 -19.5 54t-68.5 38.5t-138 37.5q-123 29 -194.5 67.5t-102.5 95t-31 135.5v9q0 139 99 209.5t293 70.5q115 0 203.5 -22.5t147.5 -53.5l23 -204
q-70 33 -157 55.5t-187 22.5q-65 0 -102.5 -10.5t-53.5 -29.5t-16 -46v-5q0 -30 17.5 -52t64.5 -39.5t132 -37.5q124 -26 199 -61t109 -89.5t34 -142.5v-12q0 -152 -103 -227t-312 -75zM567 -104q2 -15 3.5 -35t1.5 -42q0 -86 -26 -158t-87 -140l-166 42q31 56 46.5 117
t15.5 137q0 21 -1 40t-3 39h216z" />
    <glyph glyph-name="uni021A" unicode="&#x21a;" horiz-adv-x="1101" 
d="M420 0v1229h263v-1229h-263zM56 1059v219h989v-219h-989zM662 -104q2 -15 3.5 -35t1.5 -42q0 -86 -26 -158t-87 -140l-166 42q31 56 46.5 117t15.5 137q0 21 -1 40t-3 39h216z" />
    <glyph glyph-name="uni021B" unicode="&#x21b;" horiz-adv-x="802" 
d="M492 -21q-125 0 -199.5 37.5t-107.5 113.5t-33 187v572h254v-534q0 -80 36.5 -117.5t128.5 -37.5q54 0 104 11.5t92 30.5l-22 -214q-50 -23 -114.5 -36t-138.5 -13zM10 771v202h748l-22 -202h-726zM155 954l-1 260l255 26l-10 -286h-244zM559 -104q2 -15 3.5 -35t1.5 -42
q0 -86 -26 -158t-87 -140l-166 42q31 56 46.5 117t15.5 137q0 21 -1 40t-3 39h216z" />
    <glyph glyph-name="uni022A" unicode="&#x22a;" horiz-adv-x="1245" 
d="M320 1757v159h603v-159h-603zM622 -29q-265 0 -400.5 138.5t-135.5 396.5v260q0 259 135.5 399t400.5 140t400.5 -140t135.5 -399v-260q0 -258 -135 -396.5t-401 -138.5zM622 189q135 0 202 80t67 225v284q0 150 -67 230.5t-202 80.5q-134 0 -201 -80.5t-67 -230.5v-284
q0 -145 67 -225t201 -80zM455 1397q-60 0 -90.5 32.5t-30.5 91.5v7q0 59 30.5 91.5t90.5 32.5q62 0 92 -32.5t30 -91.5v-7q0 -59 -30 -91.5t-92 -32.5zM790 1397q-62 0 -91.5 32.5t-29.5 91.5v7q0 59 29.5 91.5t91.5 32.5q60 0 90 -32.5t30 -91.5v-7q0 -59 -30 -91.5
t-90 -32.5z" />
    <glyph glyph-name="uni022B" unicode="&#x22b;" horiz-adv-x="1074" 
d="M237 1478v157h602v-157h-602zM538 -27q-228 0 -345.5 117t-117.5 333v133q0 217 117.5 334.5t345.5 117.5q227 0 344 -117.5t117 -334.5v-133q0 -216 -116.5 -333t-344.5 -117zM538 178q100 0 152.5 60t52.5 172v159q0 114 -52.5 174.5t-152.5 60.5q-101 0 -153.5 -60.5
t-52.5 -174.5v-159q0 -112 52.5 -172t153.5 -60zM370 1099q-60 0 -90 32.5t-30 91.5v7q0 59 30 91.5t90 32.5q62 0 92 -32.5t30 -91.5v-7q0 -59 -30 -91.5t-92 -32.5zM705 1099q-61 0 -90.5 32.5t-29.5 91.5v7q0 59 29.5 91.5t90.5 32.5t91 -32.5t30 -91.5v-7
q0 -59 -30 -91.5t-91 -32.5z" />
    <glyph glyph-name="uni022C" unicode="&#x22c;" horiz-adv-x="1245" 
d="M320 1765v159h603v-159h-603zM622 -29q-265 0 -400.5 138.5t-135.5 396.5v260q0 259 135.5 399t400.5 140t400.5 -140t135.5 -399v-260q0 -258 -135 -396.5t-401 -138.5zM622 189q135 0 202 80t67 225v284q0 150 -67 230.5t-202 80.5q-134 0 -201 -80.5t-67 -230.5v-284
q0 -145 67 -225t201 -80zM761 1402q-37 0 -72.5 8.5t-67 20t-60 20t-53.5 8.5q-29 0 -40.5 -16t-11.5 -47v-6h-149v33q0 92 40 148t138 56q38 0 73.5 -9t66.5 -20.5t59.5 -20.5t52.5 -9q29 0 39.5 16t11.5 48v6h149v-32q0 -93 -40 -148.5t-136 -55.5z" />
    <glyph glyph-name="uni022D" unicode="&#x22d;" horiz-adv-x="1074" 
d="M237 1481v158h602v-158h-602zM538 -27q-228 0 -345.5 117t-117.5 333v133q0 217 117.5 334.5t345.5 117.5q227 0 344 -117.5t117 -334.5v-133q0 -216 -116.5 -333t-344.5 -117zM538 178q100 0 152.5 60t52.5 172v159q0 114 -52.5 174.5t-152.5 60.5q-101 0 -153.5 -60.5
t-52.5 -174.5v-159q0 -112 52.5 -172t153.5 -60zM671 1104q-36 0 -70 9t-65 22t-58.5 22.5t-51.5 9.5q-27 0 -38.5 -16.5t-11.5 -49.5v-9h-149v36q0 95 39.5 152.5t137.5 57.5q38 0 72 -10t64 -22.5t57 -22t51 -9.5q28 0 38.5 17t11.5 49v10h149v-39q0 -95 -40 -151
t-136 -56z" />
    <glyph glyph-name="uni0230" unicode="&#x230;" horiz-adv-x="1245" 
d="M319 1765v159h603v-159h-603zM622 -29q-265 0 -400.5 138.5t-135.5 396.5v260q0 259 135.5 399t400.5 140t400.5 -140t135.5 -399v-260q0 -258 -135 -396.5t-401 -138.5zM622 189q135 0 202 80t67 225v284q0 150 -67 230.5t-202 80.5q-134 0 -201 -80.5t-67 -230.5v-284
q0 -145 67 -225t201 -80zM621 1398q-64 0 -96 33t-32 90v5q0 57 32 89.5t96 32.5q66 0 98 -32.5t32 -89.5v-5q0 -57 -32 -90t-98 -33z" />
    <glyph glyph-name="uni0231" unicode="&#x231;" horiz-adv-x="1074" 
d="M237 1478v157h602v-157h-602zM538 -27q-228 0 -345.5 117t-117.5 333v133q0 217 117.5 334.5t345.5 117.5q227 0 344 -117.5t117 -334.5v-133q0 -216 -116.5 -333t-344.5 -117zM538 178q100 0 152.5 60t52.5 172v159q0 114 -52.5 174.5t-152.5 60.5q-101 0 -153.5 -60.5
t-52.5 -174.5v-159q0 -112 52.5 -172t153.5 -60zM537 1097q-68 0 -101 34t-33 93v6q0 60 33 94.5t101 34.5q69 0 102 -34.5t33 -94.5v-6q0 -59 -33 -93t-102 -34z" />
    <glyph glyph-name="uni0232" unicode="&#x232;" horiz-adv-x="1145" 
d="M457 351l-439 927h276l187 -421l84 -210h15l84 210l186 421h276l-437 -927h-232zM444 0v589h258v-589h-258zM270 1422v162h602v-162h-602z" />
    <glyph glyph-name="uni0233" unicode="&#x233;" horiz-adv-x="1030" 
d="M632 212l-137 -59l245 828h263l-421 -1325h-257l154 482l119 -96h-286l-285 939h265l203 -769h137zM215 1127v162h602v-162h-602z" />
    <glyph glyph-name="uni0237" unicode="&#x237;" horiz-adv-x="504" 
d="M134 182v799h257v-799h-257zM69 -360q-44 0 -82.5 6.5t-66.5 15.5l-19 205q22 -9 47 -14t51 -5q80 0 107.5 42.5t27.5 118.5v231h257v-247q0 -108 -31 -187t-101.5 -122.5t-189.5 -43.5z" />
    <glyph glyph-name="uni0259" unicode="&#x259;" horiz-adv-x="1037" 
d="M513 -27q-147 0 -246 51.5t-148.5 146.5t-49.5 224v41q0 37 3 74.5t9 70.5h233q-3 -56 -4 -105.5t-1 -94.5q0 -67 22 -114t67.5 -72t114.5 -25q103 0 152 56.5t49 157.5v97l-1 29v83q0 45 -12.5 82.5t-42 65.5t-79.5 43.5t-126 15.5q-101 0 -191.5 -21.5t-173.5 -59.5
l22 202q73 39 171.5 62.5t216.5 23.5q237 0 350.5 -114.5t113.5 -332.5v-141q0 -212 -114.5 -329t-334.5 -117zM133 410v171h693v-171h-693z" />
    <glyph glyph-name="uni02B9" unicode="&#x2b9;" horiz-adv-x="381" 
d="M281 878h-183l-22 444h230z" />
    <glyph glyph-name="uni02BA" unicode="&#x2ba;" horiz-adv-x="728" 
d="M445 878l-23 444h230l-24 -444h-183zM98 878l-22 444h230l-25 -444h-183z" />
    <glyph glyph-name="uni02BB" unicode="&#x2bb;" horiz-adv-x="477" 
d="M124 1087q-2 15 -4 35.5t-2 41.5q0 87 26.5 159.5t86.5 138.5l167 -42q-31 -55 -46.5 -116t-15.5 -137q0 -21 1.5 -40t2.5 -40h-216z" />
    <glyph glyph-name="uni02BC" unicode="&#x2bc;" horiz-adv-x="474" 
d="M362 1278q3 -16 5.5 -40t2.5 -52q0 -103 -26.5 -191t-86.5 -167l-157 40q28 66 42 141t14 165q0 27 -1.5 51t-4.5 53h212z" />
    <glyph glyph-name="uni02BE" unicode="&#x2be;" horiz-adv-x="414" 
d="M100 1318v109q111 0 162.5 -48.5t51.5 -127.5v-5q0 -78 -51.5 -127t-162.5 -49v109q39 0 60 18t21 50v3q0 33 -21 50.5t-60 17.5z" />
    <glyph glyph-name="uni02BF" unicode="&#x2bf;" horiz-adv-x="414" 
d="M314 1318q-39 0 -59.5 -17.5t-20.5 -50.5v-3q0 -32 20.5 -50t59.5 -18v-109q-110 0 -162 49t-52 127v5q0 79 52 127.5t162 48.5v-109z" />
    <glyph glyph-name="circumflex" unicode="&#x2c6;" horiz-adv-x="833" 
d="M282 1371h269l182 -282v-3h-194l-118 155h-9l-119 -155h-193v3z" />
    <glyph glyph-name="caron" unicode="&#x2c7;" horiz-adv-x="833" 
d="M282 1086l-182 281v4h194l118 -155h9l119 155h193v-4l-182 -281h-269z" />
    <glyph glyph-name="uni02C8" unicode="&#x2c8;" horiz-adv-x="402" 
d="M100 1090v359h202v-359h-202z" />
    <glyph glyph-name="uni02C9" unicode="&#x2c9;" horiz-adv-x="801" 
d="M99 1127v162h602v-162h-602z" />
    <glyph glyph-name="uni02CA" unicode="&#x2ca;" horiz-adv-x="646" 
d="M272 1371h272v-3l-237 -282h-216v3z" />
    <glyph glyph-name="uni02CB" unicode="&#x2cb;" horiz-adv-x="646" 
d="M374 1371l182 -282v-3h-216l-237 282v3h271z" />
    <glyph glyph-name="uni02CC" unicode="&#x2cc;" horiz-adv-x="402" 
d="M100 -463v359h202v-359h-202z" />
    <glyph glyph-name="breve" unicode="&#x2d8;" horiz-adv-x="799" 
d="M399 1077q-153 0 -222.5 77t-71.5 217h168q4 -66 33.5 -102.5t92.5 -36.5t93 36t34 103h168q-2 -140 -70.5 -217t-224.5 -77z" />
    <glyph glyph-name="dotaccent" unicode="&#x2d9;" horiz-adv-x="469" 
d="M234 1097q-68 0 -101 34t-33 93v6q0 60 33 94.5t101 34.5q69 0 102 -34.5t33 -94.5v-6q0 -59 -33 -93t-102 -34z" />
    <glyph glyph-name="ring" unicode="&#x2da;" horiz-adv-x="628" 
d="M100 1246v5q0 79 52 127.5t162 48.5t162 -48.5t52 -127.5v-5q0 -78 -52 -127t-162 -49t-162 49t-52 127zM234 1247q0 -32 20.5 -50t59.5 -18t59.5 18t20.5 50v3q0 33 -20.5 50.5t-59.5 17.5t-59.5 -17.5t-20.5 -50.5v-3z" />
    <glyph glyph-name="ogonek" unicode="&#x2db;" horiz-adv-x="598" 
d="M349 -363q-97 0 -155.5 41t-58.5 123v1q0 73 41.5 118.5t115.5 72.5v23l162 1v-17q-65 -22 -100 -50t-35 -68v-1q0 -36 25 -52t69 -16q27 0 51 4t49 11l-23 -167q-30 -11 -65.5 -17.5t-75.5 -6.5z" />
    <glyph glyph-name="tilde" unicode="&#x2dc;" horiz-adv-x="821" 
d="M544 1104q-36 0 -69.5 9t-64.5 22t-59 22.5t-51 9.5q-28 0 -39.5 -16.5t-11.5 -49.5v-9h-149v36q0 95 39.5 152.5t137.5 57.5q38 0 72 -10t64.5 -22.5t57.5 -22t50 -9.5q28 0 39 17t11 49v10h150v-39q0 -95 -40 -151t-137 -56z" />
    <glyph glyph-name="hungarumlaut" unicode="&#x2dd;" horiz-adv-x="883" 
d="M550 1371h229v-3l-182 -282h-182v1zM231 1371h229v-5l-180 -280h-183v1z" />
    <glyph glyph-name="gravecomb" unicode="&#x300;" 
d="M374 1371l182 -282v-3h-216l-237 282v3h271z" />
    <glyph glyph-name="acutecomb" unicode="&#x301;" 
d="M272 1371h272v-3l-237 -282h-216v3z" />
    <glyph glyph-name="uni0302" unicode="&#x302;" 
d="M282 1371h269l182 -282v-3h-194l-118 155h-9l-119 -155h-193v3z" />
    <glyph glyph-name="tildecomb" unicode="&#x303;" 
d="M544 1104q-36 0 -69.5 9t-64.5 22t-59 22.5t-51 9.5q-28 0 -39.5 -16.5t-11.5 -49.5v-9h-149v36q0 95 39.5 152.5t137.5 57.5q38 0 72 -10t64.5 -22.5t57.5 -22t50 -9.5q28 0 39 17t11 49v10h150v-39q0 -95 -40 -151t-137 -56z" />
    <glyph glyph-name="uni0304" unicode="&#x304;" 
d="M99 1127v162h602v-162h-602z" />
    <glyph glyph-name="uni0306" unicode="&#x306;" 
d="M399 1077q-153 0 -222.5 77t-71.5 217h168q4 -66 33.5 -102.5t92.5 -36.5t93 36t34 103h168q-2 -140 -70.5 -217t-224.5 -77z" />
    <glyph glyph-name="uni0307" unicode="&#x307;" 
d="M234 1097q-68 0 -101 34t-33 93v6q0 60 33 94.5t101 34.5q69 0 102 -34.5t33 -94.5v-6q0 -59 -33 -93t-102 -34z" />
    <glyph glyph-name="uni0308" unicode="&#x308;" 
d="M220 1099q-60 0 -90 32.5t-30 91.5v7q0 59 30 91.5t90 32.5q63 0 92.5 -32.5t29.5 -91.5v-7q0 -59 -29.5 -91.5t-92.5 -32.5zM555 1099q-61 0 -90.5 32.5t-29.5 91.5v7q0 59 29.5 91.5t90.5 32.5t91 -32.5t30 -91.5v-7q0 -59 -30 -91.5t-91 -32.5z" />
    <glyph glyph-name="hookabovecomb" unicode="&#x309;" 
d="M166 1072q131 19 203.5 70.5t72.5 152.5q0 81 -51 122t-143 41q-43 0 -80.5 -8t-64.5 -19l-10 -131q24 9 50 15.5t54 6.5q68 0 68 -45q0 -31 -30 -47.5t-91 -29.5z" />
    <glyph glyph-name="uni030A" unicode="&#x30a;" 
d="M100 1246v5q0 79 52 127.5t162 48.5t162 -48.5t52 -127.5v-5q0 -78 -52 -127t-162 -49t-162 49t-52 127zM234 1247q0 -32 20.5 -50t59.5 -18t59.5 18t20.5 50v3q0 33 -20.5 50.5t-59.5 17.5t-59.5 -17.5t-20.5 -50.5v-3z" />
    <glyph glyph-name="uni030B" unicode="&#x30b;" 
d="M550 1371h229v-3l-182 -282h-182v1zM231 1371h229v-5l-180 -280h-183v1z" />
    <glyph glyph-name="uni030C" unicode="&#x30c;" 
d="M282 1086l-182 281v4h194l118 -155h9l119 155h193v-4l-182 -281h-269z" />
    <glyph glyph-name="uni030F" unicode="&#x30f;" 
d="M333 1371l134 -284v-1h-181l-182 282v3h229zM652 1371l133 -284v-1h-182l-180 280v5h229z" />
    <glyph glyph-name="uni0311" unicode="&#x311;" 
d="M399 1380q156 0 224.5 -77t70.5 -217h-168q-4 68 -34 103.5t-93 35.5t-92.5 -36t-33.5 -103h-168q2 140 71.5 217t222.5 77z" />
    <glyph glyph-name="uni0312" unicode="&#x312;" 
d="M125 1086q-2 15 -4 35.5t-2 41.5q0 87 26 159.5t86 138.5l165 -42q-29 -55 -45 -116t-16 -137q0 -21 1.5 -40t2.5 -40h-214z" />
    <glyph glyph-name="uni031B" unicode="&#x31b;" 
d="M175 872l-76 101q54 22 79.5 60t25.5 91q0 23 -4 45.5t-9 41.5h221q6 -21 10.5 -45.5t4.5 -52.5q0 -94 -59 -153.5t-193 -87.5z" />
    <glyph glyph-name="dotbelowcomb" unicode="&#x323;" 
d="M234 -379q-68 0 -101 34t-33 93v7q0 59 33 93.5t101 34.5q69 0 102 -34.5t33 -93.5v-7q0 -59 -33 -93t-102 -34z" />
    <glyph glyph-name="uni0324" unicode="&#x324;" 
d="M220 -383q-60 0 -90 32.5t-30 91.5v7q0 59 30 91.5t90 32.5q63 0 92.5 -32.5t29.5 -91.5v-7q0 -59 -29.5 -91.5t-92.5 -32.5zM555 -383q-61 0 -90.5 32.5t-29.5 91.5v7q0 59 29.5 91.5t90.5 32.5t91 -32.5t30 -91.5v-7q0 -59 -30 -91.5t-91 -32.5z" />
    <glyph glyph-name="uni0326" unicode="&#x326;" 
d="M350 -104q2 -15 3.5 -35t1.5 -42q0 -86 -26 -158t-87 -140l-166 42q31 56 46.5 117t15.5 137q0 21 -1 40t-3 39h216z" />
    <glyph glyph-name="uni0327" unicode="&#x327;" 
d="M395 27l-24 -163l-101 60q19 2 38.5 2.5t38.5 -0.5q105 -2 155 -40t50 -110v-6q0 -83 -60.5 -122.5t-176.5 -39.5q-42 0 -82 5.5t-70 12.5l-25 139q31 -9 66 -14t71 -5q49 0 73.5 10.5t24.5 32.5v2q0 26 -32.5 37t-120.5 15q-7 1 -9.5 1h-3.5l24 183h164z" />
    <glyph glyph-name="uni0328" unicode="&#x328;" 
d="M349 -363q-97 0 -155.5 41t-58.5 123v1q0 73 41.5 118.5t115.5 72.5v23l162 1v-17q-65 -22 -100 -50t-35 -68v-1q0 -36 25 -52t69 -16q27 0 51 4t49 11l-23 -167q-30 -11 -65.5 -17.5t-75.5 -6.5z" />
    <glyph glyph-name="uni032E" unicode="&#x32e;" 
d="M399 -404q-153 0 -222.5 77t-71.5 217h168q4 -66 33.5 -102.5t92.5 -36.5t93 36t34 103h168q-2 -140 -70.5 -217t-224.5 -77z" />
    <glyph glyph-name="uni0331" unicode="&#x331;" 
d="M99 -308v162h602v-162h-602z" />
    <glyph glyph-name="uni0335" unicode="&#x335;" 
d="M105 580v143l642 -1v-142h-642z" />
    <glyph glyph-name="uni0394" unicode="&#x394;" horiz-adv-x="1208" 
d="M942 96l-417 1182h227l403 -1062zM56 216l183 5h469v-221h-652v216zM269 96l-213 120l403 1062h228zM1155 216v-216h-657v221h474z" />
    <glyph glyph-name="uni03A9" unicode="&#x3a9;" horiz-adv-x="1268" 
d="M628 1307q176 0 295.5 -62t180.5 -179.5t61 -283.5v-181q0 -160 -71.5 -255.5t-212.5 -125.5v-10l318 1v-210h-501v215q93 34 145.5 112t52.5 206v242q0 99 -30 168.5t-90 105.5t-148 36q-87 0 -147.5 -36t-91 -105.5t-30.5 -168.5v-242q0 -128 53 -206t146 -112v-215
h-502v210l319 -1v10q-141 30 -212.5 125.5t-71.5 255.5v181q0 166 60.5 283.5t180.5 179.5t296 62z" />
    <glyph glyph-name="uni03BC" unicode="&#x3bc;" horiz-adv-x="1114" 
d="M1008 981v-981h-249l9 242l-16 17v722h256zM368 399q0 -49 11 -87.5t33 -65.5t57.5 -41t84.5 -14q54 0 95.5 21t68.5 57t39 80l45 -147h-46q-13 -70 -39 -120t-69.5 -76.5t-107.5 -26.5q-49 0 -85.5 14t-61 40.5t-39.5 64.5h-7l15 -342v-100h-250v1325h256v-582z" />
    <glyph glyph-name="pi" unicode="&#x3c0;" horiz-adv-x="1186" 
d="M56 771v202h1074l-21 -202h-1053zM211 0v889h254v-889h-254zM707 -1v889h254v-889h-254z" />
    <glyph glyph-name="uni1E08" unicode="&#x1e08;" horiz-adv-x="1033" 
d="M603 -27q-260 0 -388.5 141t-128.5 401v252q0 258 128.5 398t387.5 140q74 0 135 -12t110.5 -31.5t86.5 -42.5l20 -231q-59 36 -133 62t-173 26q-148 0 -221 -83t-73 -234v-234q0 -150 74 -233.5t229 -83.5q97 0 172 26t135 64l-20 -235q-36 -23 -87 -43.5t-114.5 -33.5
t-139.5 -13zM652 23l-24 -163l-101 60q19 2 38.5 2.5t38.5 -0.5q105 -2 155 -40t50 -110v-6q0 -83 -60.5 -122.5t-176.5 -39.5q-42 0 -82 5.5t-70 12.5l-25 139q31 -9 66 -14t71 -5q49 0 73.5 10.5t24.5 32.5v2q0 26 -32.5 37t-120.5 15q-7 1 -9.5 1h-3.5l24 183h164z
M668 1652h282v-3l-278 -262h-232v3z" />
    <glyph glyph-name="uni1E09" unicode="&#x1e09;" horiz-adv-x="885" 
d="M521 -25q-227 0 -336.5 120t-109.5 337v120q0 216 110 335t336 119q59 0 110.5 -9.5t94 -25.5t74.5 -34l21 -215q-49 31 -109.5 52t-139.5 21q-124 0 -181.5 -63.5t-57.5 -184.5v-106q0 -120 59.5 -185t183.5 -65q79 0 140 20.5t114 50.5l-21 -216q-49 -28 -123 -49.5
t-165 -21.5zM577 27l-24 -163l-101 60q19 2 38.5 2.5t38.5 -0.5q105 -2 155 -40t50 -110v-6q0 -83 -60.5 -122.5t-176.5 -39.5q-42 0 -82 5.5t-70 12.5l-25 139q31 -9 66 -14t71 -5q49 0 73.5 10.5t24.5 32.5v2q0 26 -32.5 37t-120.5 15q-7 1 -9.5 1h-3.5l24 183h164z
M558 1371h272v-3l-237 -282h-216v3z" />
    <glyph glyph-name="uni1E0C" unicode="&#x1e0c;" horiz-adv-x="1222" 
d="M310 0v220h290q137 0 205.5 74.5t68.5 213.5v265q0 139 -68.5 213t-205.5 74h-291v218h300q264 0 397 -130t133 -374v-267q0 -245 -132.5 -376t-397.5 -131h-299zM127 0v1278h259v-1278h-259zM597 -368q-64 0 -96.5 32.5t-32.5 89.5v5q0 57 32.5 90t96.5 33q66 0 98 -33
t32 -90v-5q0 -57 -32 -89.5t-98 -32.5z" />
    <glyph glyph-name="uni1E0D" unicode="&#x1e0d;" horiz-adv-x="1111" 
d="M430 -23q-173 0 -263 112t-90 330v135q0 221 91 335t271 114q88 0 148.5 -28t98 -80t52.5 -122h75l-65 -190q-2 69 -28.5 116.5t-73.5 72.5t-111 25q-97 0 -148.5 -56t-51.5 -167v-162q0 -110 51.5 -166t150.5 -56q56 0 100 21t73.5 57.5t42.5 82.5l61 -143h-72
q-16 -64 -52 -116.5t-99 -83.5t-161 -31zM744 0l9 240l-5 57v401l1 41l-5 281v302h256v-1322h-256zM546 -379q-68 0 -101 34t-33 93v7q0 59 33 93.5t101 34.5q69 0 102 -34.5t33 -93.5v-7q0 -59 -33 -93t-102 -34z" />
    <glyph glyph-name="uni1E0E" unicode="&#x1e0e;" horiz-adv-x="1222" 
d="M310 0v220h290q137 0 205.5 74.5t68.5 213.5v265q0 139 -68.5 213t-205.5 74h-291v218h300q264 0 397 -130t133 -374v-267q0 -245 -132.5 -376t-397.5 -131h-299zM127 0v1278h259v-1278h-259zM296 -303v162h602v-162h-602z" />
    <glyph glyph-name="uni1E0F" unicode="&#x1e0f;" horiz-adv-x="1111" 
d="M430 -23q-173 0 -263 112t-90 330v135q0 221 91 335t271 114q88 0 148.5 -28t98 -80t52.5 -122h75l-65 -190q-2 69 -28.5 116.5t-73.5 72.5t-111 25q-97 0 -148.5 -56t-51.5 -167v-162q0 -110 51.5 -166t150.5 -56q56 0 100 21t73.5 57.5t42.5 82.5l61 -143h-72
q-16 -64 -52 -116.5t-99 -83.5t-161 -31zM744 0l9 240l-5 57v401l1 41l-5 281v302h256v-1322h-256zM245 -308v162h602v-162h-602z" />
    <glyph glyph-name="uni1E14" unicode="&#x1e14;" horiz-adv-x="1075" 
d="M127 0v1278h258v-1278h-258zM204 0v219h785v-219h-785zM277 543v213h689v-213h-689zM203 1061v217h778v-217h-778zM259 1422v162h602v-162h-602zM455 1965l228 -262v-3h-232l-277 262v3h281z" />
    <glyph glyph-name="uni1E15" unicode="&#x1e15;" horiz-adv-x="1038" 
d="M573 -24q-252 0 -375 116t-123 336v128q0 218 115 335t334 117q148 0 247 -52t148.5 -147.5t49.5 -228.5v-35q0 -36 -3.5 -73.5t-9.5 -70.5h-232q3 55 3.5 104.5t0.5 89.5q0 69 -22 117.5t-67 73.5t-115 25q-103 0 -152 -57t-49 -162v-91l1 -29v-77q0 -46 14.5 -85
t48.5 -67.5t90.5 -44.5t141.5 -16q92 0 175.5 20.5t158.5 55.5l-22 -202q-67 -37 -157.5 -58.5t-200.5 -21.5zM211 401v170h693v-170h-693zM229 1127v162h602v-162h-602zM462 1688l182 -282v-3h-216l-237 282v3h271z" />
    <glyph glyph-name="uni1E16" unicode="&#x1e16;" horiz-adv-x="1075" 
d="M127 0v1278h258v-1278h-258zM204 0v219h785v-219h-785zM277 543v213h689v-213h-689zM203 1061v217h778v-217h-778zM259 1422v162h602v-162h-602zM666 1965h282v-3l-278 -262h-232v3z" />
    <glyph glyph-name="uni1E17" unicode="&#x1e17;" horiz-adv-x="1038" 
d="M573 -24q-252 0 -375 116t-123 336v128q0 218 115 335t334 117q148 0 247 -52t148.5 -147.5t49.5 -228.5v-35q0 -36 -3.5 -73.5t-9.5 -70.5h-232q3 55 3.5 104.5t0.5 89.5q0 69 -22 117.5t-67 73.5t-115 25q-103 0 -152 -57t-49 -162v-91l1 -29v-77q0 -46 14.5 -85
t48.5 -67.5t90.5 -44.5t141.5 -16q92 0 175.5 20.5t158.5 55.5l-22 -202q-67 -37 -157.5 -58.5t-200.5 -21.5zM211 401v170h693v-170h-693zM229 1127v162h602v-162h-602zM599 1688h272v-3l-237 -282h-216v3z" />
    <glyph glyph-name="uni1E1C" unicode="&#x1e1c;" horiz-adv-x="1075" 
d="M127 0v1278h258v-1278h-258zM204 0v219h785v-219h-785zM277 543v213h689v-213h-689zM203 1061v217h778v-217h-778zM649 23l-24 -163l-101 60q19 2 38.5 2.5t38.5 -0.5q105 -2 155 -40t50 -110v-6q0 -83 -60.5 -122.5t-176.5 -39.5q-42 0 -82 5.5t-70 12.5l-25 139
q31 -9 66 -14t71 -5q49 0 73.5 10.5t24.5 32.5v2q0 26 -32.5 37t-120.5 15q-7 1 -9.5 1h-3.5l24 183h164zM561 1379q-154 0 -223.5 71.5t-72.5 201.5h167q3 -57 34 -88.5t95 -31.5q63 0 94.5 31.5t35.5 88.5h166q-3 -130 -72 -201.5t-224 -71.5z" />
    <glyph glyph-name="uni1E1D" unicode="&#x1e1d;" horiz-adv-x="1038" 
d="M573 -24q-252 0 -375 116t-123 336v128q0 218 115 335t334 117q148 0 247 -52t148.5 -147.5t49.5 -228.5v-35q0 -36 -3.5 -73.5t-9.5 -70.5h-232q3 55 3.5 104.5t0.5 89.5q0 69 -22 117.5t-67 73.5t-115 25q-103 0 -152 -57t-49 -162v-91l1 -29v-77q0 -46 14.5 -85
t48.5 -67.5t90.5 -44.5t141.5 -16q92 0 175.5 20.5t158.5 55.5l-22 -202q-67 -37 -157.5 -58.5t-200.5 -21.5zM211 401v170h693v-170h-693zM621 27l-24 -163l-101 60q19 2 38.5 2.5t38.5 -0.5q105 -2 155 -40t50 -110v-6q0 -83 -60.5 -122.5t-176.5 -39.5q-42 0 -82 5.5
t-70 12.5l-25 139q31 -9 66 -14t71 -5q49 0 73.5 10.5t24.5 32.5v2q0 26 -32.5 37t-120.5 15q-7 1 -9.5 1h-3.5l24 183h164zM530 1077q-153 0 -222.5 77t-71.5 217h168q4 -66 33.5 -102.5t92.5 -36.5t93 36t34 103h168q-2 -140 -70.5 -217t-224.5 -77z" />
    <glyph glyph-name="uni1E20" unicode="&#x1e20;" horiz-adv-x="1229" 
d="M528 -27q-146 0 -244.5 61.5t-148 178t-49.5 281.5v254q0 271 144.5 414t423.5 143q90 0 165.5 -13.5t137 -34t106.5 -45.5l22 -226q-73 38 -167 66.5t-214 28.5q-180 0 -265 -86t-85 -259v-243q0 -142 66.5 -219t204.5 -77q65 0 112 20t78 54t47 74v268l36 -81l-263 -1
v208h480v-532l-258 1q-16 -66 -52 -119t-103 -84.5t-174 -31.5zM869 263h246v-263h-255zM312 1422v162h602v-162h-602z" />
    <glyph glyph-name="uni1E21" unicode="&#x1e21;" horiz-adv-x="1050" 
d="M528 301q-223 0 -338 88.5t-115 248.5v15q0 106 46 180.5t144 116.5t254 48l517 21v-188l-266 10v-11q63 -13 104.5 -41.5t62.5 -73t21 -107.5v-9q0 -145 -107 -221.5t-323 -76.5zM516 -187h28q78 0 129 10.5t76.5 32t25.5 55.5v3q0 42 -32.5 61.5t-104.5 26.5l-287 28
l59 3q-37 -7 -65.5 -20.5t-44.5 -35.5t-16 -54v-2q0 -37 26 -61.5t78 -35.5t128 -11zM502 -380q-142 0 -243 23.5t-154.5 74.5t-53.5 135v4q0 57 25 96t71 62t106 29v10q-76 15 -114.5 49.5t-38.5 94.5v1q0 42 19 71t56.5 46t92.5 20v29l217 -54l-70 2q-46 -1 -64 -12.5
t-18 -32.5v-1q0 -26 28 -37.5t93 -19.5l235 -26q165 -19 243.5 -81t78.5 -191v-5q0 -99 -56 -162.5t-161.5 -94t-255.5 -30.5h-36zM521 479q67 0 111.5 19t67 56t22.5 90v11q0 53 -22 89.5t-66 55t-111 18.5h-3q-71 0 -116 -19.5t-66 -56t-21 -87.5v-11q0 -53 22.5 -90
t68 -56t113.5 -19zM224 1129v162h602v-162h-602z" />
    <glyph glyph-name="uni1E24" unicode="&#x1e24;" horiz-adv-x="1283" 
d="M391 0h-264v1278h264v-1278zM1155 0h-263v1278h263v-1278zM278 765h714v-219h-714v219zM641 -368q-64 0 -96.5 32.5t-32.5 89.5v5q0 57 32.5 90t96.5 33q66 0 98 -33t32 -90v-5q0 -57 -32 -89.5t-98 -32.5z" />
    <glyph glyph-name="uni1E25" unicode="&#x1e25;" horiz-adv-x="1109" 
d="M751 0v589q0 62 -16.5 107t-54.5 70t-104 25q-58 0 -101 -21t-70.5 -56.5t-40.5 -80.5l-52 140h61q17 65 54 117t101 82.5t159 30.5q113 0 183 -42.5t103.5 -126.5t33.5 -208v-626h-256zM112 0v1322h255v-302l-5 -305l6 -19v-696h-256zM555 -379q-68 0 -101 34t-33 93v7
q0 59 33 93.5t101 34.5q69 0 102 -34.5t33 -93.5v-7q0 -59 -33 -93t-102 -34z" />
    <glyph glyph-name="uni1E2A" unicode="&#x1e2a;" horiz-adv-x="1283" 
d="M391 0h-264v1278h264v-1278zM1155 0h-263v1278h263v-1278zM278 765h714v-219h-714v219zM641 -403q-153 0 -222.5 77t-71.5 217h168q4 -66 33.5 -102.5t92.5 -36.5t93 36t34 103h168q-2 -140 -70.5 -217t-224.5 -77z" />
    <glyph glyph-name="uni1E2B" unicode="&#x1e2b;" horiz-adv-x="1109" 
d="M751 0v589q0 62 -16.5 107t-54.5 70t-104 25q-58 0 -101 -21t-70.5 -56.5t-40.5 -80.5l-52 140h61q17 65 54 117t101 82.5t159 30.5q113 0 183 -42.5t103.5 -126.5t33.5 -208v-626h-256zM112 0v1322h255v-302l-5 -305l6 -19v-696h-256zM555 -404q-153 0 -222.5 77
t-71.5 217h168q4 -66 33.5 -102.5t92.5 -36.5t93 36t34 103h168q-2 -140 -70.5 -217t-224.5 -77z" />
    <glyph glyph-name="uni1E2E" unicode="&#x1e2e;" horiz-adv-x="520" 
d="M320 1980h223v-2l-188 -248h-181v2zM391 0h-263v1278h263v-1278zM92 1397q-61 0 -91 32.5t-30 91.5v7q0 59 30 91.5t91 32.5q62 0 91.5 -32.5t29.5 -91.5v-7q0 -59 -29.5 -91.5t-91.5 -32.5zM426 1397q-61 0 -90.5 32.5t-29.5 91.5v7q0 59 29.5 91.5t90.5 32.5t91 -32.5
t30 -91.5v-7q0 -59 -30 -91.5t-91 -32.5z" />
    <glyph glyph-name="uni1E2F" unicode="&#x1e2f;" horiz-adv-x="483" 
d="M301 1683h223v-3l-187 -247h-182v2zM114 0v981h256v-981h-256zM97 1099q-57 0 -85.5 32t-28.5 91v9q0 58 28.5 90.5t85.5 32.5t86 -32.5t29 -90.5v-9q0 -59 -29 -91t-86 -32zM388 1099q-58 0 -86.5 32t-28.5 91v9q0 58 28.5 90.5t86.5 32.5q56 0 85 -32.5t29 -90.5v-9
q0 -59 -29 -91t-85 -32z" />
    <glyph glyph-name="uni1E36" unicode="&#x1e36;" horiz-adv-x="998" 
d="M391 0h-264v1278h264v-1278zM275 221h669v-221h-669v221zM526 -368q-64 0 -96.5 32.5t-32.5 89.5v5q0 57 32.5 90t96.5 33q66 0 98 -33t32 -90v-5q0 -57 -32 -89.5t-98 -32.5z" />
    <glyph glyph-name="uni1E37" unicode="&#x1e37;" horiz-adv-x="485" 
d="M114 0v1322h257v-1322h-257zM243 -379q-68 0 -101 34t-33 93v7q0 59 33 93.5t101 34.5q69 0 102 -34.5t33 -93.5v-7q0 -59 -33 -93t-102 -34z" />
    <glyph glyph-name="uni1E3A" unicode="&#x1e3a;" horiz-adv-x="998" 
d="M391 0h-264v1278h264v-1278zM275 221h669v-221h-669v221zM225 -303v162h602v-162h-602z" />
    <glyph glyph-name="uni1E3B" unicode="&#x1e3b;" horiz-adv-x="485" 
d="M-21 -308v162h530v-162h-530zM114 0v1322h257v-1322h-257z" />
    <glyph glyph-name="uni1E42" unicode="&#x1e42;" horiz-adv-x="1554" 
d="M111 0l42 1278h378l240 -813h13l239 813h377l43 -1278h-254l-12 460l-11 531h-16l-251 -842h-244l-252 842h-16l-11 -532l-11 -459h-254zM776 -368q-64 0 -96.5 32.5t-32.5 89.5v5q0 57 32.5 90t96.5 33q66 0 98 -33t32 -90v-5q0 -57 -32 -89.5t-98 -32.5z" />
    <glyph glyph-name="uni1E43" unicode="&#x1e43;" horiz-adv-x="1679" 
d="M1321 0v596q0 60 -15 103.5t-49.5 67.5t-93.5 24q-54 0 -94 -21t-65 -56.5t-37 -80.5l-28 140h26q16 63 52 115.5t98.5 83.5t158.5 31q107 0 173.5 -41.5t98.5 -124t32 -204.5v-633h-257zM112 0v981h256l-10 -249l10 -11v-721h-256zM717 0v596q0 60 -15 103.5t-49.5 67.5
t-93.5 24q-55 0 -94.5 -21t-65 -56.5t-37.5 -80.5l-40 140h48q15 65 50.5 117t96.5 82.5t152 30.5q137 0 206.5 -70t87.5 -204q4 -20 7 -46.5t3 -49.5v-633h-256zM838 -379q-68 0 -101 34t-33 93v7q0 59 33 93.5t101 34.5q69 0 102 -34.5t33 -93.5v-7q0 -59 -33 -93
t-102 -34z" />
    <glyph glyph-name="uni1E44" unicode="&#x1e44;" horiz-adv-x="1283" 
d="M500 1278l402 -992h13l-11 545v447h251v-1278h-362l-412 1010h-13l11 -562v-448h-252v1278h373zM644 1398q-64 0 -96.5 33t-32.5 90v5q0 57 32.5 89.5t96.5 32.5q66 0 98 -32.5t32 -89.5v-5q0 -57 -32 -90t-98 -33z" />
    <glyph glyph-name="uni1E45" unicode="&#x1e45;" horiz-adv-x="1109" 
d="M751 0v589q0 62 -16.5 107t-54.5 70t-104 25q-58 0 -101.5 -21t-71 -56.5t-41.5 -80.5l-40 140h48q16 65 53.5 117t102 82.5t161.5 30.5q113 0 183 -42.5t103.5 -126.5t33.5 -208v-626h-256zM112 0v981h256l-10 -239l10 -21v-721h-256zM555 1097q-68 0 -101 34t-33 93v6
q0 60 33 94.5t101 34.5q69 0 102 -34.5t33 -94.5v-6q0 -59 -33 -93t-102 -34z" />
    <glyph glyph-name="uni1E46" unicode="&#x1e46;" horiz-adv-x="1283" 
d="M500 1278l402 -992h13l-11 545v447h251v-1278h-362l-412 1010h-13l11 -562v-448h-252v1278h373zM644 -368q-64 0 -96.5 32.5t-32.5 89.5v5q0 57 32.5 90t96.5 33q66 0 98 -33t32 -90v-5q0 -57 -32 -89.5t-98 -32.5z" />
    <glyph glyph-name="uni1E47" unicode="&#x1e47;" horiz-adv-x="1109" 
d="M751 0v589q0 62 -16.5 107t-54.5 70t-104 25q-58 0 -101.5 -21t-71 -56.5t-41.5 -80.5l-40 140h48q16 65 53.5 117t102 82.5t161.5 30.5q113 0 183 -42.5t103.5 -126.5t33.5 -208v-626h-256zM112 0v981h256l-10 -239l10 -21v-721h-256zM555 -379q-68 0 -101 34t-33 93v7
q0 59 33 93.5t101 34.5q69 0 102 -34.5t33 -93.5v-7q0 -59 -33 -93t-102 -34z" />
    <glyph glyph-name="uni1E48" unicode="&#x1e48;" horiz-adv-x="1283" 
d="M500 1278l402 -992h13l-11 545v447h251v-1278h-362l-412 1010h-13l11 -562v-448h-252v1278h373zM343 -303v162h602v-162h-602z" />
    <glyph glyph-name="uni1E49" unicode="&#x1e49;" horiz-adv-x="1109" 
d="M751 0v589q0 62 -16.5 107t-54.5 70t-104 25q-58 0 -101.5 -21t-71 -56.5t-41.5 -80.5l-40 140h48q16 65 53.5 117t102 82.5t161.5 30.5q113 0 183 -42.5t103.5 -126.5t33.5 -208v-626h-256zM112 0v981h256l-10 -239l10 -21v-721h-256zM254 -308v162h602v-162h-602z" />
    <glyph glyph-name="uni1E4C" unicode="&#x1e4c;" horiz-adv-x="1245" 
d="M676 1948h227v-4l-187 -232h-184v2zM622 -29q-265 0 -400.5 138.5t-135.5 396.5v260q0 259 135.5 399t400.5 140t400.5 -140t135.5 -399v-260q0 -258 -135 -396.5t-401 -138.5zM622 189q135 0 202 80t67 225v284q0 150 -67 230.5t-202 80.5q-134 0 -201 -80.5t-67 -230.5
v-284q0 -145 67 -225t201 -80zM761 1402q-37 0 -72.5 8.5t-67 20t-60 20t-53.5 8.5q-29 0 -40.5 -16t-11.5 -47v-6h-149v33q0 92 40 148t138 56q38 0 73.5 -9t66.5 -20.5t59.5 -20.5t52.5 -9q29 0 39.5 16t11.5 48v6h149v-32q0 -93 -40 -148.5t-136 -55.5z" />
    <glyph glyph-name="uni1E4D" unicode="&#x1e4d;" horiz-adv-x="1074" 
d="M597 1680h223v-2l-187 -247h-182v2zM538 -27q-228 0 -345.5 117t-117.5 333v133q0 217 117.5 334.5t345.5 117.5q227 0 344 -117.5t117 -334.5v-133q0 -216 -116.5 -333t-344.5 -117zM538 178q100 0 152.5 60t52.5 172v159q0 114 -52.5 174.5t-152.5 60.5
q-101 0 -153.5 -60.5t-52.5 -174.5v-159q0 -112 52.5 -172t153.5 -60zM671 1104q-36 0 -70 9t-65 22t-58.5 22.5t-51.5 9.5q-27 0 -38.5 -16.5t-11.5 -49.5v-9h-149v36q0 95 39.5 152.5t137.5 57.5q38 0 72 -10t64 -22.5t57 -22t51 -9.5q28 0 38.5 17t11.5 49v10h149v-39
q0 -95 -40 -151t-136 -56z" />
    <glyph glyph-name="uni1E4E" unicode="&#x1e4e;" horiz-adv-x="1245" 
d="M455 1738q-60 0 -90.5 31.5t-30.5 88.5v7q0 58 30.5 89.5t90.5 31.5q62 0 92 -31.5t30 -89.5v-7q0 -57 -30 -88.5t-92 -31.5zM790 1738q-62 0 -91.5 31.5t-29.5 88.5v7q0 58 29.5 89.5t91.5 31.5q60 0 90 -31.5t30 -89.5v-7q0 -57 -30 -88.5t-90 -31.5zM622 -29
q-265 0 -400.5 138.5t-135.5 396.5v260q0 259 135.5 399t400.5 140t400.5 -140t135.5 -399v-260q0 -258 -135 -396.5t-401 -138.5zM622 189q135 0 202 80t67 225v284q0 150 -67 230.5t-202 80.5q-134 0 -201 -80.5t-67 -230.5v-284q0 -145 67 -225t201 -80zM761 1402
q-37 0 -72.5 8.5t-67 20t-60 20t-53.5 8.5q-29 0 -40.5 -16t-11.5 -47v-6h-149v33q0 92 40 148t138 56q38 0 73.5 -9t66.5 -20.5t59.5 -20.5t52.5 -9q29 0 39.5 16t11.5 48v6h149v-32q0 -93 -40 -148.5t-136 -55.5z" />
    <glyph glyph-name="uni1E4F" unicode="&#x1e4f;" horiz-adv-x="1074" 
d="M370 1455q-60 0 -90 31t-30 88v8q0 57 30 88.5t90 31.5q62 0 92 -31.5t30 -88.5v-8q0 -57 -30 -88t-92 -31zM705 1455q-61 0 -90.5 31t-29.5 88v8q0 57 29.5 88.5t90.5 31.5t91 -31.5t30 -88.5v-8q0 -57 -30 -88t-91 -31zM538 -27q-228 0 -345.5 117t-117.5 333v133
q0 217 117.5 334.5t345.5 117.5q227 0 344 -117.5t117 -334.5v-133q0 -216 -116.5 -333t-344.5 -117zM538 178q100 0 152.5 60t52.5 172v159q0 114 -52.5 174.5t-152.5 60.5q-101 0 -153.5 -60.5t-52.5 -174.5v-159q0 -112 52.5 -172t153.5 -60zM671 1104q-36 0 -70 9
t-65 22t-58.5 22.5t-51.5 9.5q-27 0 -38.5 -16.5t-11.5 -49.5v-9h-149v36q0 95 39.5 152.5t137.5 57.5q38 0 72 -10t64 -22.5t57 -22t51 -9.5q28 0 38.5 17t11.5 49v10h149v-39q0 -95 -40 -151t-136 -56z" />
    <glyph glyph-name="uni1E50" unicode="&#x1e50;" horiz-adv-x="1245" 
d="M622 -29q-265 0 -400.5 138.5t-135.5 396.5v260q0 259 135.5 399t400.5 140t400.5 -140t135.5 -399v-260q0 -258 -135 -396.5t-401 -138.5zM622 189q135 0 202 80t67 225v284q0 150 -67 230.5t-202 80.5q-134 0 -201 -80.5t-67 -230.5v-284q0 -145 67 -225t201 -80z
M320 1422v162h602v-162h-602zM516 1965l228 -262v-3h-232l-277 262v3h281z" />
    <glyph glyph-name="uni1E51" unicode="&#x1e51;" horiz-adv-x="1074" 
d="M538 -27q-228 0 -345.5 117t-117.5 333v133q0 217 117.5 334.5t345.5 117.5q227 0 344 -117.5t117 -334.5v-133q0 -216 -116.5 -333t-344.5 -117zM538 178q100 0 152.5 60t52.5 172v159q0 114 -52.5 174.5t-152.5 60.5q-101 0 -153.5 -60.5t-52.5 -174.5v-159
q0 -112 52.5 -172t153.5 -60zM237 1127v162h602v-162h-602zM469 1688l182 -282v-3h-216l-237 282v3h271z" />
    <glyph glyph-name="uni1E52" unicode="&#x1e52;" horiz-adv-x="1245" 
d="M622 -29q-265 0 -400.5 138.5t-135.5 396.5v260q0 259 135.5 399t400.5 140t400.5 -140t135.5 -399v-260q0 -258 -135 -396.5t-401 -138.5zM622 189q135 0 202 80t67 225v284q0 150 -67 230.5t-202 80.5q-134 0 -201 -80.5t-67 -230.5v-284q0 -145 67 -225t201 -80z
M320 1422v162h602v-162h-602zM726 1965h282v-3l-278 -262h-232v3z" />
    <glyph glyph-name="uni1E53" unicode="&#x1e53;" horiz-adv-x="1074" 
d="M538 -27q-228 0 -345.5 117t-117.5 333v133q0 217 117.5 334.5t345.5 117.5q227 0 344 -117.5t117 -334.5v-133q0 -216 -116.5 -333t-344.5 -117zM538 178q100 0 152.5 60t52.5 172v159q0 114 -52.5 174.5t-152.5 60.5q-101 0 -153.5 -60.5t-52.5 -174.5v-159
q0 -112 52.5 -172t153.5 -60zM237 1127v162h602v-162h-602zM607 1688h272v-3l-237 -282h-216v3z" />
    <glyph glyph-name="uni1E5A" unicode="&#x1e5a;" horiz-adv-x="1189" 
d="M854 0l-29 249q-7 67 -28 112t-63 68.5t-116 23.5l-309 1v202l325 1q109 0 156.5 50.5t47.5 144.5v24q0 93 -47.5 141.5t-158.5 48.5h-326v212h363q225 0 328.5 -91t103.5 -259v-28q0 -126 -61 -200t-194 -88v-36l-73 36q114 -8 176.5 -48t91.5 -110.5t44 -174.5l39 -279
h-270zM127 0v1278h256v-694l2 -97v-487h-258zM604 -368q-64 0 -96.5 32.5t-32.5 89.5v5q0 57 32.5 90t96.5 33q66 0 98 -33t32 -90v-5q0 -57 -32 -89.5t-98 -32.5z" />
    <glyph glyph-name="uni1E5B" unicode="&#x1e5b;" horiz-adv-x="775" 
d="M361 570l-65 171h62q27 119 98 187t197 68q26 0 47 -3.5t38 -8.5l14 -256q-22 7 -51 10.5t-61 3.5q-102 0 -173.5 -45t-105.5 -127zM112 0v981h244l-11 -301l23 -9v-671h-256zM240 -379q-68 0 -101 34t-33 93v7q0 59 33 93.5t101 34.5q69 0 102 -34.5t33 -93.5v-7
q0 -59 -33 -93t-102 -34z" />
    <glyph glyph-name="uni1E5E" unicode="&#x1e5e;" horiz-adv-x="1189" 
d="M854 0l-29 249q-7 67 -28 112t-63 68.5t-116 23.5l-309 1v202l325 1q109 0 156.5 50.5t47.5 144.5v24q0 93 -47.5 141.5t-158.5 48.5h-326v212h363q225 0 328.5 -91t103.5 -259v-28q0 -126 -61 -200t-194 -88v-36l-73 36q114 -8 176.5 -48t91.5 -110.5t44 -174.5l39 -279
h-270zM127 0v1278h256v-694l2 -97v-487h-258zM303 -303v162h602v-162h-602z" />
    <glyph glyph-name="uni1E5F" unicode="&#x1e5f;" horiz-adv-x="775" 
d="M361 570l-65 171h62q27 119 98 187t197 68q26 0 47 -3.5t38 -8.5l14 -256q-22 7 -51 10.5t-61 3.5q-102 0 -173.5 -45t-105.5 -127zM112 0v981h244l-11 -301l23 -9v-671h-256zM-61 -308v162h602v-162h-602z" />
    <glyph glyph-name="uni1E60" unicode="&#x1e60;" horiz-adv-x="1066" 
d="M510 -26q-89 0 -166.5 13t-140 32.5t-107.5 39.5l-23 248q78 -41 185 -73.5t228 -32.5q128 0 185 37t57 114v11q0 50 -24.5 82.5t-81.5 57.5t-155 51q-138 38 -226.5 86.5t-130.5 121t-42 182.5v12q0 168 113.5 258t335.5 90q138 0 237 -25t166 -58l23 -231
q-75 40 -171.5 66.5t-210.5 26.5q-85 0 -134.5 -16t-71 -47t-21.5 -75v-3q0 -45 22.5 -78t80.5 -60.5t165 -56.5q136 -38 222.5 -82t128.5 -114t42 -185v-18q0 -185 -120.5 -279.5t-364.5 -94.5zM524 1398q-64 0 -96.5 33t-32.5 90v5q0 57 32.5 89.5t96.5 32.5
q66 0 98 -32.5t32 -89.5v-5q0 -57 -32 -90t-98 -33z" />
    <glyph glyph-name="uni1E61" unicode="&#x1e61;" horiz-adv-x="914" 
d="M447 -24q-118 0 -209.5 22.5t-155.5 50.5l-23 222q76 -35 167.5 -61t201.5 -26q96 0 139 24.5t43 73.5v6q0 33 -19.5 54t-68.5 38.5t-138 37.5q-123 29 -194.5 67.5t-102.5 95t-31 135.5v9q0 139 99 209.5t293 70.5q115 0 203.5 -22.5t147.5 -53.5l23 -204
q-70 33 -157 55.5t-187 22.5q-65 0 -102.5 -10.5t-53.5 -29.5t-16 -46v-5q0 -30 17.5 -52t64.5 -39.5t132 -37.5q124 -26 199 -61t109 -89.5t34 -142.5v-12q0 -152 -103 -227t-312 -75zM453 1097q-68 0 -101 34t-33 93v6q0 60 33 94.5t101 34.5q69 0 102 -34.5t33 -94.5v-6
q0 -59 -33 -93t-102 -34z" />
    <glyph glyph-name="uni1E62" unicode="&#x1e62;" horiz-adv-x="1066" 
d="M510 -26q-89 0 -166.5 13t-140 32.5t-107.5 39.5l-23 248q78 -41 185 -73.5t228 -32.5q128 0 185 37t57 114v11q0 50 -24.5 82.5t-81.5 57.5t-155 51q-138 38 -226.5 86.5t-130.5 121t-42 182.5v12q0 168 113.5 258t335.5 90q138 0 237 -25t166 -58l23 -231
q-75 40 -171.5 66.5t-210.5 26.5q-85 0 -134.5 -16t-71 -47t-21.5 -75v-3q0 -45 22.5 -78t80.5 -60.5t165 -56.5q136 -38 222.5 -82t128.5 -114t42 -185v-18q0 -185 -120.5 -279.5t-364.5 -94.5zM524 -368q-64 0 -96.5 32.5t-32.5 89.5v5q0 57 32.5 90t96.5 33q66 0 98 -33
t32 -90v-5q0 -57 -32 -89.5t-98 -32.5z" />
    <glyph glyph-name="uni1E63" unicode="&#x1e63;" horiz-adv-x="914" 
d="M447 -24q-118 0 -209.5 22.5t-155.5 50.5l-23 222q76 -35 167.5 -61t201.5 -26q96 0 139 24.5t43 73.5v6q0 33 -19.5 54t-68.5 38.5t-138 37.5q-123 29 -194.5 67.5t-102.5 95t-31 135.5v9q0 139 99 209.5t293 70.5q115 0 203.5 -22.5t147.5 -53.5l23 -204
q-70 33 -157 55.5t-187 22.5q-65 0 -102.5 -10.5t-53.5 -29.5t-16 -46v-5q0 -30 17.5 -52t64.5 -39.5t132 -37.5q124 -26 199 -61t109 -89.5t34 -142.5v-12q0 -152 -103 -227t-312 -75zM455 -379q-68 0 -101 34t-33 93v7q0 59 33 93.5t101 34.5q69 0 102 -34.5t33 -93.5v-7
q0 -59 -33 -93t-102 -34z" />
    <glyph glyph-name="uni1E64" unicode="&#x1e64;" horiz-adv-x="1066" 
d="M523 1745q-64 0 -96 32t-32 89v5q0 56 32 88t96 32q66 0 98.5 -32t32.5 -88v-5q0 -57 -32.5 -89t-98.5 -32zM510 -26q-89 0 -166.5 13t-140 32.5t-107.5 39.5l-23 248q78 -41 185 -73.5t228 -32.5q128 0 185 37t57 114v11q0 50 -24.5 82.5t-81.5 57.5t-155 51
q-138 38 -226.5 86.5t-130.5 121t-42 182.5v12q0 168 113.5 258t335.5 90q138 0 237 -25t166 -58l23 -231q-75 40 -171.5 66.5t-210.5 26.5q-85 0 -134.5 -16t-71 -47t-21.5 -75v-3q0 -45 22.5 -78t80.5 -60.5t165 -56.5q136 -38 222.5 -82t128.5 -114t42 -185v-18
q0 -185 -120.5 -279.5t-364.5 -94.5zM629 1652h281v-3l-277 -262h-232v3z" />
    <glyph glyph-name="uni1E65" unicode="&#x1e65;" horiz-adv-x="914" 
d="M455 1461q-66 0 -98 33t-32 90v6q0 58 32 91.5t98 33.5t98.5 -33.5t32.5 -91.5v-6q0 -57 -32.5 -90t-98.5 -33zM447 -24q-118 0 -209.5 22.5t-155.5 50.5l-23 222q76 -35 167.5 -61t201.5 -26q96 0 139 24.5t43 73.5v6q0 33 -19.5 54t-68.5 38.5t-138 37.5
q-123 29 -194.5 67.5t-102.5 95t-31 135.5v9q0 139 99 209.5t293 70.5q115 0 203.5 -22.5t147.5 -53.5l23 -204q-70 33 -157 55.5t-187 22.5q-65 0 -102.5 -10.5t-53.5 -29.5t-16 -46v-5q0 -30 17.5 -52t64.5 -39.5t132 -37.5q124 -26 199 -61t109 -89.5t34 -142.5v-12
q0 -152 -103 -227t-312 -75zM522 1371h272v-3l-237 -282h-216v3z" />
    <glyph glyph-name="uni1E66" unicode="&#x1e66;" horiz-adv-x="1066" 
d="M523 1738q-64 0 -96 32t-32 89v6q0 55 32 87.5t96 32.5q66 0 98.5 -32.5t32.5 -87.5v-6q0 -57 -32.5 -89t-98.5 -32zM510 -26q-89 0 -166.5 13t-140 32.5t-107.5 39.5l-23 248q78 -41 185 -73.5t228 -32.5q128 0 185 37t57 114v11q0 50 -24.5 82.5t-81.5 57.5t-155 51
q-138 38 -226.5 86.5t-130.5 121t-42 182.5v12q0 168 113.5 258t335.5 90q138 0 237 -25t166 -58l23 -231q-75 40 -171.5 66.5t-210.5 26.5q-85 0 -134.5 -16t-71 -47t-21.5 -75v-3q0 -45 22.5 -78t80.5 -60.5t165 -56.5q136 -38 222.5 -82t128.5 -114t42 -185v-18
q0 -185 -120.5 -279.5t-364.5 -94.5zM392 1387l-210 261v4h204l133 -136h9l133 136h204v-4l-210 -261h-263z" />
    <glyph glyph-name="uni1E67" unicode="&#x1e67;" horiz-adv-x="914" 
d="M453 1451q-66 0 -98 32.5t-32 89.5v6q0 58 32 91.5t98 33.5t98.5 -33.5t32.5 -91.5v-6q0 -57 -32.5 -89.5t-98.5 -32.5zM447 -24q-118 0 -209.5 22.5t-155.5 50.5l-23 222q76 -35 167.5 -61t201.5 -26q96 0 139 24.5t43 73.5v6q0 33 -19.5 54t-68.5 38.5t-138 37.5
q-123 29 -194.5 67.5t-102.5 95t-31 135.5v9q0 139 99 209.5t293 70.5q115 0 203.5 -22.5t147.5 -53.5l23 -204q-70 33 -157 55.5t-187 22.5q-65 0 -102.5 -10.5t-53.5 -29.5t-16 -46v-5q0 -30 17.5 -52t64.5 -39.5t132 -37.5q124 -26 199 -61t109 -89.5t34 -142.5v-12
q0 -152 -103 -227t-312 -75zM319 1086l-182 281v4h194l119 -155h8l119 155h193v-4l-182 -281h-269z" />
    <glyph glyph-name="uni1E68" unicode="&#x1e68;" horiz-adv-x="1066" 
d="M510 -26q-89 0 -166.5 13t-140 32.5t-107.5 39.5l-23 248q78 -41 185 -73.5t228 -32.5q128 0 185 37t57 114v11q0 50 -24.5 82.5t-81.5 57.5t-155 51q-138 38 -226.5 86.5t-130.5 121t-42 182.5v12q0 168 113.5 258t335.5 90q138 0 237 -25t166 -58l23 -231
q-75 40 -171.5 66.5t-210.5 26.5q-85 0 -134.5 -16t-71 -47t-21.5 -75v-3q0 -45 22.5 -78t80.5 -60.5t165 -56.5q136 -38 222.5 -82t128.5 -114t42 -185v-18q0 -185 -120.5 -279.5t-364.5 -94.5zM524 -368q-64 0 -96.5 32.5t-32.5 89.5v5q0 57 32.5 90t96.5 33q66 0 98 -33
t32 -90v-5q0 -57 -32 -89.5t-98 -32.5zM524 1398q-64 0 -96.5 33t-32.5 90v5q0 57 32.5 89.5t96.5 32.5q66 0 98 -32.5t32 -89.5v-5q0 -57 -32 -90t-98 -33z" />
    <glyph glyph-name="uni1E69" unicode="&#x1e69;" horiz-adv-x="914" 
d="M447 -24q-118 0 -209.5 22.5t-155.5 50.5l-23 222q76 -35 167.5 -61t201.5 -26q96 0 139 24.5t43 73.5v6q0 33 -19.5 54t-68.5 38.5t-138 37.5q-123 29 -194.5 67.5t-102.5 95t-31 135.5v9q0 139 99 209.5t293 70.5q115 0 203.5 -22.5t147.5 -53.5l23 -204
q-70 33 -157 55.5t-187 22.5q-65 0 -102.5 -10.5t-53.5 -29.5t-16 -46v-5q0 -30 17.5 -52t64.5 -39.5t132 -37.5q124 -26 199 -61t109 -89.5t34 -142.5v-12q0 -152 -103 -227t-312 -75zM455 -379q-68 0 -101 34t-33 93v7q0 59 33 93.5t101 34.5q69 0 102 -34.5t33 -93.5v-7
q0 -59 -33 -93t-102 -34zM453 1097q-68 0 -101 34t-33 93v6q0 60 33 94.5t101 34.5q69 0 102 -34.5t33 -94.5v-6q0 -59 -33 -93t-102 -34z" />
    <glyph glyph-name="uni1E6C" unicode="&#x1e6c;" horiz-adv-x="1101" 
d="M420 0v1229h263v-1229h-263zM56 1059v219h989v-219h-989zM550 -368q-64 0 -96.5 32.5t-32.5 89.5v5q0 57 32.5 90t96.5 33q66 0 98 -33t32 -90v-5q0 -57 -32 -89.5t-98 -32.5z" />
    <glyph glyph-name="uni1E6D" unicode="&#x1e6d;" horiz-adv-x="802" 
d="M492 -21q-125 0 -199.5 37.5t-107.5 113.5t-33 187v572h254v-534q0 -80 36.5 -117.5t128.5 -37.5q54 0 104 11.5t92 30.5l-22 -214q-50 -23 -114.5 -36t-138.5 -13zM10 771v202h748l-22 -202h-726zM155 954l-1 260l255 26l-10 -286h-244zM447 -379q-68 0 -101 34t-33 93
v7q0 59 33 93.5t101 34.5q69 0 102 -34.5t33 -93.5v-7q0 -59 -33 -93t-102 -34z" />
    <glyph glyph-name="uni1E6E" unicode="&#x1e6e;" horiz-adv-x="1101" 
d="M420 0v1229h263v-1229h-263zM56 1059v219h989v-219h-989zM249 -303v162h602v-162h-602z" />
    <glyph glyph-name="uni1E6F" unicode="&#x1e6f;" horiz-adv-x="802" 
d="M492 -21q-125 0 -199.5 37.5t-107.5 113.5t-33 187v572h254v-534q0 -80 36.5 -117.5t128.5 -37.5q54 0 104 11.5t92 30.5l-22 -214q-50 -23 -114.5 -36t-138.5 -13zM10 771v202h748l-22 -202h-726zM155 954l-1 260l255 26l-10 -286h-244zM146 -308v162h602v-162h-602z
" />
    <glyph glyph-name="uni1E78" unicode="&#x1e78;" horiz-adv-x="1263" 
d="M685 1948h227v-4l-187 -232h-184v2zM632 -29q-264 0 -389 129.5t-125 378.5v799h263v-805q0 -137 59.5 -208.5t191.5 -71.5q131 0 190.5 71.5t59.5 208.5v805h263v-799q0 -249 -125 -378.5t-388 -129.5zM770 1402q-37 0 -72 8.5t-67 20t-60.5 20t-53.5 8.5q-28 0 -40 -16
t-12 -47v-6h-149v33q0 92 40 148t138 56q38 0 73.5 -9t67 -20.5t59.5 -20.5t52 -9q29 0 40 16t11 48v6h150v-32q0 -93 -40 -148.5t-137 -55.5z" />
    <glyph glyph-name="uni1E79" unicode="&#x1e79;" horiz-adv-x="1109" 
d="M614 1680h224v-2l-188 -247h-181v2zM358 981v-590q0 -61 16.5 -106.5t55 -70t103.5 -24.5q59 0 102 21t71 56.5t41 79.5l40 -139h-48q-16 -64 -53.5 -116.5t-102 -83.5t-161.5 -31q-112 0 -182.5 43t-104 127t-33.5 207v627h256zM997 981v-981h-255l9 238l-10 21v722h256
zM688 1104q-36 0 -69.5 9t-64.5 22t-58.5 22.5t-51.5 9.5q-28 0 -39 -16.5t-12 -49.5v-9h-149v36q0 95 40 152.5t137 57.5q39 0 73 -10t64 -22.5t57 -22t51 -9.5q28 0 38.5 17t11.5 49v10h149v-39q0 -95 -40 -151t-137 -56z" />
    <glyph glyph-name="uni1E7A" unicode="&#x1e7a;" horiz-adv-x="1263" 
d="M632 -29q-264 0 -389 129.5t-125 378.5v799h263v-805q0 -137 59.5 -208.5t191.5 -71.5q131 0 190.5 71.5t59.5 208.5v805h263v-799q0 -249 -125 -378.5t-388 -129.5zM329 1422v162h602v-162h-602zM464 1710q-60 0 -90 32.5t-30 91.5v7q0 59 30 91.5t90 32.5
q63 0 92.5 -32.5t29.5 -91.5v-7q0 -59 -29.5 -91.5t-92.5 -32.5zM799 1710q-61 0 -90.5 32.5t-29.5 91.5v7q0 59 29.5 91.5t90.5 32.5t91 -32.5t30 -91.5v-7q0 -59 -30 -91.5t-91 -32.5z" />
    <glyph glyph-name="uni1E7B" unicode="&#x1e7b;" horiz-adv-x="1109" 
d="M358 981v-590q0 -61 16.5 -106.5t55 -70t103.5 -24.5q59 0 102 21t71 56.5t41 79.5l40 -139h-48q-16 -64 -53.5 -116.5t-102 -83.5t-161.5 -31q-112 0 -182.5 43t-104 127t-33.5 207v627h256zM997 981v-981h-255l9 238l-10 21v722h256zM254 1127v162h602v-162h-602z
M388 1416q-60 0 -90 32.5t-30 91.5v7q0 59 30 91.5t90 32.5q63 0 92.5 -32.5t29.5 -91.5v-7q0 -59 -29.5 -91.5t-92.5 -32.5zM723 1416q-61 0 -90.5 32.5t-29.5 91.5v7q0 59 29.5 91.5t90.5 32.5t91 -32.5t30 -91.5v-7q0 -59 -30 -91.5t-91 -32.5z" />
    <glyph glyph-name="Wgrave" unicode="&#x1e80;" horiz-adv-x="1690" 
d="M285 0l-238 1278h267l139 -881l31 -178h16l31 178l143 851h342l143 -851l30 -178h18l31 177l140 882h265l-237 -1278h-385l-119 735l-49 296h-16l-49 -296l-117 -735h-386zM739 1652l228 -262v-3h-232l-277 262v3h281z" />
    <glyph glyph-name="wgrave" unicode="&#x1e81;" horiz-adv-x="1541" 
d="M248 0l-212 981h262l144 -799h18l146 774h330l147 -774h17l146 799h259l-212 -981h-372l-120 649l-22 121h-15l-22 -121l-121 -649h-373zM702 1371l182 -282v-3h-216l-237 282v3h271z" />
    <glyph glyph-name="Wacute" unicode="&#x1e82;" horiz-adv-x="1690" 
d="M285 0l-238 1278h267l139 -881l31 -178h16l31 178l143 851h342l143 -851l30 -178h18l31 177l140 882h265l-237 -1278h-385l-119 735l-49 296h-16l-49 -296l-117 -735h-386zM950 1652h282v-3l-278 -262h-232v3z" />
    <glyph glyph-name="wacute" unicode="&#x1e83;" horiz-adv-x="1541" 
d="M248 0l-212 981h262l144 -799h18l146 774h330l147 -774h17l146 799h259l-212 -981h-372l-120 649l-22 121h-15l-22 -121l-121 -649h-373zM839 1371h272v-3l-237 -282h-216v3z" />
    <glyph glyph-name="Wdieresis" unicode="&#x1e84;" horiz-adv-x="1690" 
d="M285 0l-238 1278h267l139 -881l31 -178h16l31 178l143 851h342l143 -851l30 -178h18l31 177l140 882h265l-237 -1278h-385l-119 735l-49 296h-16l-49 -296l-117 -735h-386zM677 1397q-60 0 -90 32.5t-30 91.5v7q0 59 30 91.5t90 32.5q63 0 92.5 -32.5t29.5 -91.5v-7
q0 -59 -29.5 -91.5t-92.5 -32.5zM1012 1397q-61 0 -90.5 32.5t-29.5 91.5v7q0 59 29.5 91.5t90.5 32.5t91 -32.5t30 -91.5v-7q0 -59 -30 -91.5t-91 -32.5z" />
    <glyph glyph-name="wdieresis" unicode="&#x1e85;" horiz-adv-x="1541" 
d="M248 0l-212 981h262l144 -799h18l146 774h330l147 -774h17l146 799h259l-212 -981h-372l-120 649l-22 121h-15l-22 -121l-121 -649h-373zM603 1099q-60 0 -90 32.5t-30 91.5v7q0 59 30 91.5t90 32.5q63 0 92.5 -32.5t29.5 -91.5v-7q0 -59 -29.5 -91.5t-92.5 -32.5z
M938 1099q-61 0 -90.5 32.5t-29.5 91.5v7q0 59 29.5 91.5t90.5 32.5t91 -32.5t30 -91.5v-7q0 -59 -30 -91.5t-91 -32.5z" />
    <glyph glyph-name="uni1E8E" unicode="&#x1e8e;" horiz-adv-x="1145" 
d="M457 351l-439 927h276l187 -421l84 -210h15l84 210l186 421h276l-437 -927h-232zM444 0v589h258v-589h-258zM571 1398q-64 0 -96.5 33t-32.5 90v5q0 57 32.5 89.5t96.5 32.5q66 0 98 -32.5t32 -89.5v-5q0 -57 -32 -90t-98 -33z" />
    <glyph glyph-name="uni1E8F" unicode="&#x1e8f;" horiz-adv-x="1030" 
d="M632 212l-137 -59l245 828h263l-421 -1325h-257l154 482l119 -96h-286l-285 939h265l203 -769h137zM515 1097q-68 0 -101 34t-33 93v6q0 60 33 94.5t101 34.5q69 0 102 -34.5t33 -94.5v-6q0 -59 -33 -93t-102 -34z" />
    <glyph glyph-name="uni1E92" unicode="&#x1e92;" horiz-adv-x="1063" 
d="M993 220v-220h-923v206l609 854h-601v218h906v-204l-610 -854h619zM531 -368q-64 0 -96.5 32.5t-32.5 89.5v5q0 57 32.5 90t96.5 33q66 0 98 -33t32 -90v-5q0 -57 -32 -89.5t-98 -32.5z" />
    <glyph glyph-name="uni1E93" unicode="&#x1e93;" horiz-adv-x="933" 
d="M862 211v-211h-792v191l478 580h-474v210h783v-191l-479 -579h484zM466 -379q-68 0 -101 34t-33 93v7q0 59 33 93.5t101 34.5q69 0 102 -34.5t33 -93.5v-7q0 -59 -33 -93t-102 -34z" />
    <glyph glyph-name="uni1E97" unicode="&#x1e97;" horiz-adv-x="802" 
d="M492 -21q-125 0 -199.5 37.5t-107.5 113.5t-33 187v572h254v-534q0 -80 36.5 -117.5t128.5 -37.5q54 0 104 11.5t92 30.5l-22 -214q-50 -23 -114.5 -36t-138.5 -13zM10 771v202h748l-22 -202h-726zM155 954l-1 260l255 26l-10 -286h-244zM117 1329q-60 0 -90 32.5
t-30 91.5v7q0 59 30 91.5t90 32.5q63 0 92.5 -32.5t29.5 -91.5v-7q0 -59 -29.5 -91.5t-92.5 -32.5zM452 1329q-61 0 -90.5 32.5t-29.5 91.5v7q0 59 29.5 91.5t90.5 32.5t91 -32.5t30 -91.5v-7q0 -59 -30 -91.5t-91 -32.5z" />
    <glyph glyph-name="uni1E9E" unicode="&#x1e9e;" horiz-adv-x="1293" 
d="M373 0h-255v790q0 243 122 365.5t376 122.5h552v-199l-362 -424l-125 47q45 16 98.5 24t95.5 8q172 0 257.5 -83.5t85.5 -246.5v-51q0 -182 -105.5 -279t-320.5 -97q-85 0 -151.5 16.5t-107.5 33.5l-23 229q47 -23 109 -39t133 -16q109 0 156.5 44t47.5 126v32
q0 85 -49 125.5t-166 40.5q-41 0 -77 -3.5t-73 -9.5v174l340 401l29 -61h-309q-144 0 -211 -69t-67 -217v-784z" />
    <glyph glyph-name="uni1EA0" unicode="&#x1ea0;" horiz-adv-x="1216" 
d="M32 0l377 1278h399l376 -1278h-265l-298 1105h-24l-300 -1105h-265zM318 326v209h578v-209h-578zM607 -368q-64 0 -96.5 32.5t-32.5 89.5v5q0 57 32.5 90t96.5 33q66 0 98 -33t32 -90v-5q0 -57 -32 -89.5t-98 -32.5z" />
    <glyph glyph-name="uni1EA1" unicode="&#x1ea1;" horiz-adv-x="1031" 
d="M680 0l9 240l-7 22v307l-1 44q0 96 -52.5 141t-171.5 45q-101 0 -189.5 -26.5t-163.5 -61.5l22 204q44 23 100.5 43.5t126.5 33.5t151 13q120 0 203 -28.5t132.5 -81.5t71.5 -126.5t22 -162.5v-606h-253zM359 -23q-146 0 -222.5 73t-76.5 208v28q0 143 88 211.5t279 94.5
l278 38l15 -165l-256 -37q-84 -11 -119.5 -40t-35.5 -85v-10q0 -55 34.5 -85.5t108.5 -30.5q66 0 113 21t77.5 55.5t43.5 77.5l36 -127h-44q-16 -63 -51.5 -114.5t-99.5 -82t-168 -30.5zM510 -379q-68 0 -101 34t-33 93v7q0 59 33 93.5t101 34.5q69 0 102 -34.5t33 -93.5v-7
q0 -59 -33 -93t-102 -34z" />
    <glyph glyph-name="uni1EA2" unicode="&#x1ea2;" horiz-adv-x="1216" 
d="M32 0l377 1278h399l376 -1278h-265l-298 1105h-24l-300 -1105h-265zM318 326v209h578v-209h-578zM549 1366q131 19 203.5 70.5t72.5 152.5q0 81 -51 122t-143 41q-43 0 -80.5 -8t-64.5 -19l-10 -131q24 9 50 15.5t54 6.5q68 0 68 -45q0 -31 -30 -47.5t-91 -29.5z" />
    <glyph glyph-name="uni1EA3" unicode="&#x1ea3;" horiz-adv-x="1031" 
d="M680 0l9 240l-7 22v307l-1 44q0 96 -52.5 141t-171.5 45q-101 0 -189.5 -26.5t-163.5 -61.5l22 204q44 23 100.5 43.5t126.5 33.5t151 13q120 0 203 -28.5t132.5 -81.5t71.5 -126.5t22 -162.5v-606h-253zM359 -23q-146 0 -222.5 73t-76.5 208v28q0 143 88 211.5t279 94.5
l278 38l15 -165l-256 -37q-84 -11 -119.5 -40t-35.5 -85v-10q0 -55 34.5 -85.5t108.5 -30.5q66 0 113 21t77.5 55.5t43.5 77.5l36 -127h-44q-16 -63 -51.5 -114.5t-99.5 -82t-168 -30.5zM450 1072q131 19 203.5 70.5t72.5 152.5q0 81 -51 122t-143 41q-43 0 -80.5 -8
t-64.5 -19l-10 -131q24 9 50 15.5t54 6.5q68 0 68 -45q0 -31 -30 -47.5t-91 -29.5z" />
    <glyph glyph-name="uni1EA4" unicode="&#x1ea4;" horiz-adv-x="1216" 
d="M32 0l377 1278h399l376 -1278h-265l-298 1105h-24l-300 -1105h-265zM318 326v209h578v-209h-578zM998 1839h227v-3l-187 -233h-184v3zM478 1652h262l211 -261v-4h-205l-133 136h-8l-133 -136h-205v4z" />
    <glyph glyph-name="uni1EA5" unicode="&#x1ea5;" horiz-adv-x="1031" 
d="M680 0l9 240l-7 22v307l-1 44q0 96 -52.5 141t-171.5 45q-101 0 -189.5 -26.5t-163.5 -61.5l22 204q44 23 100.5 43.5t126.5 33.5t151 13q120 0 203 -28.5t132.5 -81.5t71.5 -126.5t22 -162.5v-606h-253zM359 -23q-146 0 -222.5 73t-76.5 208v28q0 143 88 211.5t279 94.5
l278 38l15 -165l-256 -37q-84 -11 -119.5 -40t-35.5 -85v-10q0 -55 34.5 -85.5t108.5 -30.5q66 0 113 21t77.5 55.5t43.5 77.5l36 -127h-44q-16 -63 -51.5 -114.5t-99.5 -82t-168 -30.5zM908 1567h223v-3l-188 -247h-181v2zM376 1369h269l182 -282v-3h-194l-118 155h-9
l-119 -155h-193v3z" />
    <glyph glyph-name="uni1EA6" unicode="&#x1ea6;" horiz-adv-x="1216" 
d="M32 0l377 1278h399l376 -1278h-265l-298 1105h-24l-300 -1105h-265zM318 326v209h578v-209h-578zM968 1838l143 -233v-3h-184l-186 233v3h227zM478 1652h262l211 -261v-4h-205l-133 136h-8l-133 -136h-205v4z" />
    <glyph glyph-name="uni1EA7" unicode="&#x1ea7;" horiz-adv-x="1031" 
d="M680 0l9 240l-7 22v307l-1 44q0 96 -52.5 141t-171.5 45q-101 0 -189.5 -26.5t-163.5 -61.5l22 204q44 23 100.5 43.5t126.5 33.5t151 13q120 0 203 -28.5t132.5 -81.5t71.5 -126.5t22 -162.5v-606h-253zM359 -23q-146 0 -222.5 73t-76.5 208v28q0 143 88 211.5t279 94.5
l278 38l15 -165l-256 -37q-84 -11 -119.5 -40t-35.5 -85v-10q0 -55 34.5 -85.5t108.5 -30.5q66 0 113 21t77.5 55.5t43.5 77.5l36 -127h-44q-16 -63 -51.5 -114.5t-99.5 -82t-168 -30.5zM870 1569l145 -248v-2h-181l-187 247v3h223zM376 1371h269l182 -282v-3h-194l-118 155
h-9l-119 -155h-193v3z" />
    <glyph glyph-name="uni1EA8" unicode="&#x1ea8;" horiz-adv-x="1216" 
d="M32 0l377 1278h399l376 -1278h-265l-298 1105h-24l-300 -1105h-265zM318 326v209h578v-209h-578zM893 1569q118 17 182.5 62t64.5 126q0 73 -45 110t-127 37q-40 0 -73.5 -6.5t-58.5 -16.5l-9 -114q22 7 45 12.5t50 5.5q57 0 57 -37q0 -26 -27 -40.5t-80 -25.5zM478 1652
h262l211 -261v-4h-205l-133 136h-8l-133 -136h-205v4z" />
    <glyph glyph-name="uni1EA9" unicode="&#x1ea9;" horiz-adv-x="1031" 
d="M680 0l9 240l-7 22v307l-1 44q0 96 -52.5 141t-171.5 45q-101 0 -189.5 -26.5t-163.5 -61.5l22 204q44 23 100.5 43.5t126.5 33.5t151 13q120 0 203 -28.5t132.5 -81.5t71.5 -126.5t22 -162.5v-606h-253zM359 -23q-146 0 -222.5 73t-76.5 208v28q0 143 88 211.5t279 94.5
l278 38l15 -165l-256 -37q-84 -11 -119.5 -40t-35.5 -85v-10q0 -55 34.5 -85.5t108.5 -30.5q66 0 113 21t77.5 55.5t43.5 77.5l36 -127h-44q-16 -63 -51.5 -114.5t-99.5 -82t-168 -30.5zM795 1279q119 19 184 66.5t65 134.5q0 76 -46.5 114.5t-129.5 38.5q-39 0 -73 -6.5
t-58 -16.5l-10 -121q22 9 46 14.5t50 5.5q58 0 58 -41q0 -28 -27 -44t-81 -27zM376 1371h269l182 -282v-3h-194l-118 155h-9l-119 -155h-193v3z" />
    <glyph glyph-name="uni1EAA" unicode="&#x1eaa;" horiz-adv-x="1216" 
d="M32 0l377 1278h399l376 -1278h-265l-298 1105h-24l-300 -1105h-265zM318 326v209h578v-209h-578zM739 1741q-36 0 -68.5 8.5t-62 20t-56 20t-50.5 8.5q-28 0 -39 -15.5t-11 -45.5v-5h-137v25q0 82 36.5 135t129.5 53q36 0 68.5 -9t62 -21t55.5 -20.5t50 -8.5q28 0 39 16
t11 47v5h138v-22q0 -85 -36.5 -138t-129.5 -53zM478 1652h262l211 -261v-4h-205l-133 136h-8l-133 -136h-205v4z" />
    <glyph glyph-name="uni1EAB" unicode="&#x1eab;" horiz-adv-x="1031" 
d="M680 0l9 240l-7 22v307l-1 44q0 96 -52.5 141t-171.5 45q-101 0 -189.5 -26.5t-163.5 -61.5l22 204q44 23 100.5 43.5t126.5 33.5t151 13q120 0 203 -28.5t132.5 -81.5t71.5 -126.5t22 -162.5v-606h-253zM359 -23q-146 0 -222.5 73t-76.5 208v28q0 143 88 211.5t279 94.5
l278 38l15 -165l-256 -37q-84 -11 -119.5 -40t-35.5 -85v-10q0 -55 34.5 -85.5t108.5 -30.5q66 0 113 21t77.5 55.5t43.5 77.5l36 -127h-44q-16 -63 -51.5 -114.5t-99.5 -82t-168 -30.5zM638 1467q-35 0 -66.5 8.5t-60.5 20.5t-55.5 20.5t-50.5 8.5q-27 0 -38 -15.5
t-12 -45.5v-8h-136v31q0 83 36.5 136.5t129.5 53.5q35 0 67 -8.5t60.5 -20.5t54.5 -21t50 -9q27 0 38 16.5t11 47.5v7h138v-29q0 -86 -36.5 -139.5t-129.5 -53.5zM376 1371h269l182 -282v-3h-194l-118 155h-9l-119 -155h-193v3z" />
    <glyph glyph-name="uni1EAC" unicode="&#x1eac;" horiz-adv-x="1216" 
d="M32 0l377 1278h399l376 -1278h-265l-298 1105h-24l-300 -1105h-265zM318 326v209h578v-209h-578zM607 -368q-64 0 -96.5 32.5t-32.5 89.5v5q0 57 32.5 90t96.5 33q66 0 98 -33t32 -90v-5q0 -57 -32 -89.5t-98 -32.5zM478 1652h262l211 -261v-4h-205l-133 136h-8
l-133 -136h-205v4z" />
    <glyph glyph-name="uni1EAD" unicode="&#x1ead;" horiz-adv-x="1031" 
d="M680 0l9 240l-7 22v307l-1 44q0 96 -52.5 141t-171.5 45q-101 0 -189.5 -26.5t-163.5 -61.5l22 204q44 23 100.5 43.5t126.5 33.5t151 13q120 0 203 -28.5t132.5 -81.5t71.5 -126.5t22 -162.5v-606h-253zM359 -23q-146 0 -222.5 73t-76.5 208v28q0 143 88 211.5t279 94.5
l278 38l15 -165l-256 -37q-84 -11 -119.5 -40t-35.5 -85v-10q0 -55 34.5 -85.5t108.5 -30.5q66 0 113 21t77.5 55.5t43.5 77.5l36 -127h-44q-16 -63 -51.5 -114.5t-99.5 -82t-168 -30.5zM510 -379q-68 0 -101 34t-33 93v7q0 59 33 93.5t101 34.5q69 0 102 -34.5t33 -93.5v-7
q0 -59 -33 -93t-102 -34zM376 1371h269l182 -282v-3h-194l-118 155h-9l-119 -155h-193v3z" />
    <glyph glyph-name="uni1EAE" unicode="&#x1eae;" horiz-adv-x="1216" 
d="M32 0l377 1278h399l376 -1278h-265l-298 1105h-24l-300 -1105h-265zM318 326v209h578v-209h-578zM662 1945h227v-4l-187 -232h-184v2zM608 1379q-154 0 -223.5 71.5t-72.5 201.5h167q3 -57 34 -88.5t95 -31.5q63 0 94.5 31.5t35.5 88.5h166q-3 -130 -72 -201.5
t-224 -71.5z" />
    <glyph glyph-name="uni1EAF" unicode="&#x1eaf;" horiz-adv-x="1031" 
d="M680 0l9 240l-7 22v307l-1 44q0 96 -52.5 141t-171.5 45q-101 0 -189.5 -26.5t-163.5 -61.5l22 204q44 23 100.5 43.5t126.5 33.5t151 13q120 0 203 -28.5t132.5 -81.5t71.5 -126.5t22 -162.5v-606h-253zM359 -23q-146 0 -222.5 73t-76.5 208v28q0 143 88 211.5t279 94.5
l278 38l15 -165l-256 -37q-84 -11 -119.5 -40t-35.5 -85v-10q0 -55 34.5 -85.5t108.5 -30.5q66 0 113 21t77.5 55.5t43.5 77.5l36 -127h-44q-16 -63 -51.5 -114.5t-99.5 -82t-168 -30.5zM571 1689h223v-2l-188 -247h-181v2zM510 1077q-153 0 -222.5 77t-71.5 217h168
q4 -66 33.5 -102.5t92.5 -36.5t93 36t34 103h168q-2 -140 -70.5 -217t-224.5 -77z" />
    <glyph glyph-name="uni1EB0" unicode="&#x1eb0;" horiz-adv-x="1216" 
d="M32 0l377 1278h399l376 -1278h-265l-298 1105h-24l-300 -1105h-265zM318 326v209h578v-209h-578zM553 1945l144 -234v-2h-184l-187 232v4h227zM608 1379q-154 0 -223.5 71.5t-72.5 201.5h167q3 -57 34 -88.5t95 -31.5q63 0 94.5 31.5t35.5 88.5h166q-3 -130 -72 -201.5
t-224 -71.5z" />
    <glyph glyph-name="uni1EB1" unicode="&#x1eb1;" horiz-adv-x="1031" 
d="M680 0l9 240l-7 22v307l-1 44q0 96 -52.5 141t-171.5 45q-101 0 -189.5 -26.5t-163.5 -61.5l22 204q44 23 100.5 43.5t126.5 33.5t151 13q120 0 203 -28.5t132.5 -81.5t71.5 -126.5t22 -162.5v-606h-253zM359 -23q-146 0 -222.5 73t-76.5 208v28q0 143 88 211.5t279 94.5
l278 38l15 -165l-256 -37q-84 -11 -119.5 -40t-35.5 -85v-10q0 -55 34.5 -85.5t108.5 -30.5q66 0 113 21t77.5 55.5t43.5 77.5l36 -127h-44q-16 -63 -51.5 -114.5t-99.5 -82t-168 -30.5zM451 1689l145 -247v-2h-181l-188 247v2h224zM510 1077q-153 0 -222.5 77t-71.5 217
h168q4 -66 33.5 -102.5t92.5 -36.5t93 36t34 103h168q-2 -140 -70.5 -217t-224.5 -77z" />
    <glyph glyph-name="uni1EB2" unicode="&#x1eb2;" horiz-adv-x="1216" 
d="M32 0l377 1278h399l376 -1278h-265l-298 1105h-24l-300 -1105h-265zM318 326v209h578v-209h-578zM585 1682q118 18 182.5 63t64.5 126q0 73 -45 110t-126 37q-41 0 -74.5 -6.5t-57.5 -16.5l-10 -114q22 7 45 12.5t50 5.5q57 0 57 -37q0 -27 -27 -41t-80 -26zM608 1379
q-154 0 -223.5 71.5t-72.5 201.5h167q3 -57 34 -88.5t95 -31.5q63 0 94.5 31.5t35.5 88.5h166q-3 -130 -72 -201.5t-224 -71.5z" />
    <glyph glyph-name="uni1EB3" unicode="&#x1eb3;" horiz-adv-x="1031" 
d="M680 0l9 240l-7 22v307l-1 44q0 96 -52.5 141t-171.5 45q-101 0 -189.5 -26.5t-163.5 -61.5l22 204q44 23 100.5 43.5t126.5 33.5t151 13q120 0 203 -28.5t132.5 -81.5t71.5 -126.5t22 -162.5v-606h-253zM359 -23q-146 0 -222.5 73t-76.5 208v28q0 143 88 211.5t279 94.5
l278 38l15 -165l-256 -37q-84 -11 -119.5 -40t-35.5 -85v-10q0 -55 34.5 -85.5t108.5 -30.5q66 0 113 21t77.5 55.5t43.5 77.5l36 -127h-44q-16 -63 -51.5 -114.5t-99.5 -82t-168 -30.5zM485 1407q119 19 184 66.5t65 134.5q0 76 -46 114.5t-129 38.5q-40 0 -73.5 -6.5
t-58.5 -16.5l-10 -121q23 9 46.5 14.5t49.5 5.5q58 0 58 -41q0 -28 -27 -44t-81 -27zM510 1077q-153 0 -222.5 77t-71.5 217h168q4 -66 33.5 -102.5t92.5 -36.5t93 36t34 103h168q-2 -140 -70.5 -217t-224.5 -77z" />
    <glyph glyph-name="uni1EB4" unicode="&#x1eb4;" horiz-adv-x="1216" 
d="M32 0l377 1278h399l376 -1278h-265l-298 1105h-24l-300 -1105h-265zM318 326v209h578v-209h-578zM737 1741q-36 0 -68.5 8.5t-62 20t-56 20t-49.5 8.5q-28 0 -39.5 -15.5t-11.5 -45.5v-5h-137v25q0 82 36.5 135t130.5 53q36 0 68 -9t61.5 -21t56 -20.5t49.5 -8.5
q28 0 39 16t11 47v5h139v-22q0 -85 -37 -138t-130 -53zM607 1379q-154 0 -223.5 71.5t-72.5 201.5h167q3 -57 34 -88.5t95 -31.5q63 0 94.5 31.5t35.5 88.5h166q-3 -130 -72 -201.5t-224 -71.5z" />
    <glyph glyph-name="uni1EB5" unicode="&#x1eb5;" horiz-adv-x="1031" 
d="M680 0l9 240l-7 22v307l-1 44q0 96 -52.5 141t-171.5 45q-101 0 -189.5 -26.5t-163.5 -61.5l22 204q44 23 100.5 43.5t126.5 33.5t151 13q120 0 203 -28.5t132.5 -81.5t71.5 -126.5t22 -162.5v-606h-253zM359 -23q-146 0 -222.5 73t-76.5 208v28q0 143 88 211.5t279 94.5
l278 38l15 -165l-256 -37q-84 -11 -119.5 -40t-35.5 -85v-10q0 -55 34.5 -85.5t108.5 -30.5q66 0 113 21t77.5 55.5t43.5 77.5l36 -127h-44q-16 -63 -51.5 -114.5t-99.5 -82t-168 -30.5zM637 1471q-35 0 -66.5 8.5t-61 20.5t-55.5 20.5t-50 8.5q-27 0 -38 -15t-12 -45v-9
h-136v31q0 83 36 137t129 54q36 0 68 -9t60 -21t54.5 -20.5t49.5 -8.5q28 0 39 16t11 47v8h138v-30q0 -86 -36.5 -139.5t-129.5 -53.5zM509 1077q-153 0 -222.5 77t-71.5 217h168q4 -66 33.5 -102.5t92.5 -36.5t93 36t34 103h168q-2 -140 -70.5 -217t-224.5 -77z" />
    <glyph glyph-name="uni1EB6" unicode="&#x1eb6;" horiz-adv-x="1216" 
d="M32 0l377 1278h399l376 -1278h-265l-298 1105h-24l-300 -1105h-265zM318 326v209h578v-209h-578zM607 -368q-64 0 -96.5 32.5t-32.5 89.5v5q0 57 32.5 90t96.5 33q66 0 98 -33t32 -90v-5q0 -57 -32 -89.5t-98 -32.5zM608 1379q-154 0 -223.5 71.5t-72.5 201.5h167
q3 -57 34 -88.5t95 -31.5q63 0 94.5 31.5t35.5 88.5h166q-3 -130 -72 -201.5t-224 -71.5z" />
    <glyph glyph-name="uni1EB7" unicode="&#x1eb7;" horiz-adv-x="1031" 
d="M680 0l9 240l-7 22v307l-1 44q0 96 -52.5 141t-171.5 45q-101 0 -189.5 -26.5t-163.5 -61.5l22 204q44 23 100.5 43.5t126.5 33.5t151 13q120 0 203 -28.5t132.5 -81.5t71.5 -126.5t22 -162.5v-606h-253zM359 -23q-146 0 -222.5 73t-76.5 208v28q0 143 88 211.5t279 94.5
l278 38l15 -165l-256 -37q-84 -11 -119.5 -40t-35.5 -85v-10q0 -55 34.5 -85.5t108.5 -30.5q66 0 113 21t77.5 55.5t43.5 77.5l36 -127h-44q-16 -63 -51.5 -114.5t-99.5 -82t-168 -30.5zM510 -379q-68 0 -101 34t-33 93v7q0 59 33 93.5t101 34.5q69 0 102 -34.5t33 -93.5v-7
q0 -59 -33 -93t-102 -34zM510 1077q-153 0 -222.5 77t-71.5 217h168q4 -66 33.5 -102.5t92.5 -36.5t93 36t34 103h168q-2 -140 -70.5 -217t-224.5 -77z" />
    <glyph glyph-name="uni1EB8" unicode="&#x1eb8;" horiz-adv-x="1075" 
d="M127 0v1278h258v-1278h-258zM204 0v219h785v-219h-785zM277 543v213h689v-213h-689zM203 1061v217h778v-217h-778zM560 -368q-64 0 -96.5 32.5t-32.5 89.5v5q0 57 32.5 90t96.5 33q66 0 98 -33t32 -90v-5q0 -57 -32 -89.5t-98 -32.5z" />
    <glyph glyph-name="uni1EB9" unicode="&#x1eb9;" horiz-adv-x="1038" 
d="M573 -24q-252 0 -375 116t-123 336v128q0 218 115 335t334 117q148 0 247 -52t148.5 -147.5t49.5 -228.5v-35q0 -36 -3.5 -73.5t-9.5 -70.5h-232q3 55 3.5 104.5t0.5 89.5q0 69 -22 117.5t-67 73.5t-115 25q-103 0 -152 -57t-49 -162v-91l1 -29v-77q0 -46 14.5 -85
t48.5 -67.5t90.5 -44.5t141.5 -16q92 0 175.5 20.5t158.5 55.5l-22 -202q-67 -37 -157.5 -58.5t-200.5 -21.5zM211 401v170h693v-170h-693zM533 -379q-68 0 -101 34t-33 93v7q0 59 33 93.5t101 34.5q69 0 102 -34.5t33 -93.5v-7q0 -59 -33 -93t-102 -34z" />
    <glyph glyph-name="uni1EBA" unicode="&#x1eba;" horiz-adv-x="1075" 
d="M127 0v1278h258v-1278h-258zM204 0v219h785v-219h-785zM277 543v213h689v-213h-689zM203 1061v217h778v-217h-778zM502 1366q131 19 203.5 70.5t72.5 152.5q0 81 -51 122t-143 41q-43 0 -80.5 -8t-64.5 -19l-10 -131q24 9 50 15.5t54 6.5q68 0 68 -45q0 -31 -30 -47.5
t-91 -29.5z" />
    <glyph glyph-name="uni1EBB" unicode="&#x1ebb;" horiz-adv-x="1038" 
d="M573 -24q-252 0 -375 116t-123 336v128q0 218 115 335t334 117q148 0 247 -52t148.5 -147.5t49.5 -228.5v-35q0 -36 -3.5 -73.5t-9.5 -70.5h-232q3 55 3.5 104.5t0.5 89.5q0 69 -22 117.5t-67 73.5t-115 25q-103 0 -152 -57t-49 -162v-91l1 -29v-77q0 -46 14.5 -85
t48.5 -67.5t90.5 -44.5t141.5 -16q92 0 175.5 20.5t158.5 55.5l-22 -202q-67 -37 -157.5 -58.5t-200.5 -21.5zM211 401v170h693v-170h-693zM470 1072q131 19 203.5 70.5t72.5 152.5q0 81 -51 122t-143 41q-43 0 -80.5 -8t-64.5 -19l-10 -131q24 9 50 15.5t54 6.5
q68 0 68 -45q0 -31 -30 -47.5t-91 -29.5z" />
    <glyph glyph-name="uni1EBC" unicode="&#x1ebc;" horiz-adv-x="1075" 
d="M127 0v1278h258v-1278h-258zM204 0v219h785v-219h-785zM277 543v213h689v-213h-689zM203 1061v217h778v-217h-778zM700 1402q-37 0 -72 8.5t-67 20t-60.5 20t-53.5 8.5q-28 0 -40 -16t-12 -47v-6h-149v33q0 92 40 148t138 56q38 0 73.5 -9t66.5 -20.5t59.5 -20.5t52.5 -9
q29 0 40 16t11 48v6h149v-32q0 -93 -39.5 -148.5t-136.5 -55.5z" />
    <glyph glyph-name="uni1EBD" unicode="&#x1ebd;" horiz-adv-x="1038" 
d="M573 -24q-252 0 -375 116t-123 336v128q0 218 115 335t334 117q148 0 247 -52t148.5 -147.5t49.5 -228.5v-35q0 -36 -3.5 -73.5t-9.5 -70.5h-232q3 55 3.5 104.5t0.5 89.5q0 69 -22 117.5t-67 73.5t-115 25q-103 0 -152 -57t-49 -162v-91l1 -29v-77q0 -46 14.5 -85
t48.5 -67.5t90.5 -44.5t141.5 -16q92 0 175.5 20.5t158.5 55.5l-22 -202q-67 -37 -157.5 -58.5t-200.5 -21.5zM211 401v170h693v-170h-693zM663 1104q-36 0 -69.5 9t-64.5 22t-59 22.5t-51 9.5q-28 0 -39.5 -16.5t-11.5 -49.5v-9h-149v36q0 95 39.5 152.5t137.5 57.5
q38 0 72 -10t64.5 -22.5t57.5 -22t50 -9.5q28 0 39 17t11 49v10h150v-39q0 -95 -40 -151t-137 -56z" />
    <glyph glyph-name="uni1EBE" unicode="&#x1ebe;" horiz-adv-x="1075" 
d="M127 0v1278h258v-1278h-258zM204 0v219h785v-219h-785zM277 543v213h689v-213h-689zM203 1061v217h778v-217h-778zM951 1839h227v-3l-187 -233h-184v3zM431 1652h262l211 -261v-4h-205l-133 136h-8l-133 -136h-205v4z" />
    <glyph glyph-name="uni1EBF" unicode="&#x1ebf;" horiz-adv-x="1038" 
d="M573 -24q-252 0 -375 116t-123 336v128q0 218 115 335t334 117q148 0 247 -52t148.5 -147.5t49.5 -228.5v-35q0 -36 -3.5 -73.5t-9.5 -70.5h-232q3 55 3.5 104.5t0.5 89.5q0 69 -22 117.5t-67 73.5t-115 25q-103 0 -152 -57t-49 -162v-91l1 -29v-77q0 -46 14.5 -85
t48.5 -67.5t90.5 -44.5t141.5 -16q92 0 175.5 20.5t158.5 55.5l-22 -202q-67 -37 -157.5 -58.5t-200.5 -21.5zM211 401v170h693v-170h-693zM928 1567h223v-3l-188 -247h-181v2zM396 1369h269l182 -282v-3h-194l-118 155h-9l-119 -155h-193v3z" />
    <glyph glyph-name="uni1EC0" unicode="&#x1ec0;" horiz-adv-x="1075" 
d="M127 0v1278h258v-1278h-258zM204 0v219h785v-219h-785zM277 543v213h689v-213h-689zM203 1061v217h778v-217h-778zM921 1838l143 -233v-3h-184l-186 233v3h227zM431 1652h262l211 -261v-4h-205l-133 136h-8l-133 -136h-205v4z" />
    <glyph glyph-name="uni1EC1" unicode="&#x1ec1;" horiz-adv-x="1038" 
d="M573 -24q-252 0 -375 116t-123 336v128q0 218 115 335t334 117q148 0 247 -52t148.5 -147.5t49.5 -228.5v-35q0 -36 -3.5 -73.5t-9.5 -70.5h-232q3 55 3.5 104.5t0.5 89.5q0 69 -22 117.5t-67 73.5t-115 25q-103 0 -152 -57t-49 -162v-91l1 -29v-77q0 -46 14.5 -85
t48.5 -67.5t90.5 -44.5t141.5 -16q92 0 175.5 20.5t158.5 55.5l-22 -202q-67 -37 -157.5 -58.5t-200.5 -21.5zM211 401v170h693v-170h-693zM890 1569l145 -248v-2h-181l-187 247v3h223zM396 1371h269l182 -282v-3h-194l-118 155h-9l-119 -155h-193v3z" />
    <glyph glyph-name="uni1EC2" unicode="&#x1ec2;" horiz-adv-x="1075" 
d="M127 0v1278h258v-1278h-258zM204 0v219h785v-219h-785zM277 543v213h689v-213h-689zM203 1061v217h778v-217h-778zM846 1569q118 17 182.5 62t64.5 126q0 73 -45 110t-127 37q-40 0 -73.5 -6.5t-58.5 -16.5l-9 -114q22 7 45 12.5t50 5.5q57 0 57 -37q0 -26 -27 -40.5
t-80 -25.5zM431 1652h262l211 -261v-4h-205l-133 136h-8l-133 -136h-205v4z" />
    <glyph glyph-name="uni1EC3" unicode="&#x1ec3;" horiz-adv-x="1038" 
d="M573 -24q-252 0 -375 116t-123 336v128q0 218 115 335t334 117q148 0 247 -52t148.5 -147.5t49.5 -228.5v-35q0 -36 -3.5 -73.5t-9.5 -70.5h-232q3 55 3.5 104.5t0.5 89.5q0 69 -22 117.5t-67 73.5t-115 25q-103 0 -152 -57t-49 -162v-91l1 -29v-77q0 -46 14.5 -85
t48.5 -67.5t90.5 -44.5t141.5 -16q92 0 175.5 20.5t158.5 55.5l-22 -202q-67 -37 -157.5 -58.5t-200.5 -21.5zM211 401v170h693v-170h-693zM815 1279q119 19 184 66.5t65 134.5q0 76 -46.5 114.5t-129.5 38.5q-39 0 -73 -6.5t-58 -16.5l-10 -121q22 9 46 14.5t50 5.5
q58 0 58 -41q0 -28 -27 -44t-81 -27zM396 1371h269l182 -282v-3h-194l-118 155h-9l-119 -155h-193v3z" />
    <glyph glyph-name="uni1EC4" unicode="&#x1ec4;" horiz-adv-x="1075" 
d="M127 0v1278h258v-1278h-258zM204 0v219h785v-219h-785zM277 543v213h689v-213h-689zM203 1061v217h778v-217h-778zM692 1741q-36 0 -68.5 8.5t-62 20t-56 20t-50.5 8.5q-28 0 -39 -15.5t-11 -45.5v-5h-137v25q0 82 36.5 135t129.5 53q36 0 68.5 -9t62 -21t55.5 -20.5
t50 -8.5q28 0 39 16t11 47v5h138v-22q0 -85 -36.5 -138t-129.5 -53zM431 1652h262l211 -261v-4h-205l-133 136h-8l-133 -136h-205v4z" />
    </font>
</defs>
</svg>
