<?xml version="1.0" standalone="no"?>
<!DOCTYPE svg PUBLIC "-//W3C//DTD SVG 1.1//EN" "http://www.w3.org/Graphics/SVG/1.1/DTD/svg11.dtd" >
<svg xmlns="http://www.w3.org/2000/svg" xmlns:xlink="http://www.w3.org/1999/xlink" version="1.1">
<metadata>
Created by FontForge 20201107 at Mon Feb 14 15:34:46 2022
 By 
Copyright 2021 The Anek Project Authors (https://github.com/EkType/Anek)
</metadata>
<defs>
<font id="AnekLatin-ExtraBold" horiz-adv-x="0" >
  <font-face 
    font-family="Anek Latin ExtraBold"
    font-weight="800"
    font-stretch="normal"
    units-per-em="2000"
    panose-1="0 0 0 0 0 0 0 0 0 0"
    ascent="1600"
    descent="-400"
    x-height="985"
    cap-height="1278"
    bbox="-385 -494 2974 2042"
    underline-thickness="50"
    underline-position="-125"
    unicode-range="U+000D-FB02"
  />
<missing-glyph horiz-adv-x="1160" 
d="M185 0v1278h790v-1278h-790zM224 35h712v1208h-712v-1208zM210 0l695 1266h40l-695 -1266h-40zM950 0h-40l-695 1266h40z" />
    <glyph glyph-name="fi" unicode="fi" horiz-adv-x="1312" 
d="M456 1354q83 0 156 -12.5t125 -29.5l30 -258q-38 9 -81 15.5t-93 6.5q-60 0 -92 -11t-43.5 -31t-11.5 -47v-2q0 -20 6.5 -35t16.5 -29l-227 -8v34q-59 19 -100.5 62.5t-41.5 115.5v5q0 108 86.5 166t269.5 58zM134 0v841h352v-841h-352zM11 662v278l279 -3l132 3h345
l-29 -278h-727zM867 0v985h354v-985h-354zM1044 1056q-97 0 -141 43.5t-44 117.5v8q0 74 44 117.5t141 43.5q96 0 140.5 -43.5t44.5 -117.5v-8q0 -75 -44.5 -118t-140.5 -43z" />
    <glyph glyph-name="fl" unicode="fl" horiz-adv-x="1313" 
d="M456 1354q83 0 156 -12.5t125 -29.5l30 -258q-38 9 -81 15.5t-93 6.5q-60 0 -92 -11t-43.5 -31t-11.5 -47v-2q0 -20 6.5 -35t16.5 -29l-227 -8v34q-59 19 -100.5 62.5t-41.5 115.5v5q0 108 86.5 166t269.5 58zM134 0v841h352v-841h-352zM11 662v278l279 -3l132 3h345
l-29 -278h-727zM867 0v1319h354v-1319h-354z" />
    <glyph glyph-name="f_f" unicode="ff" horiz-adv-x="1426" 
d="M456 1354q83 0 156 -12.5t125 -29.5l30 -258q-38 9 -81 15.5t-93 6.5q-60 0 -92 -11t-43.5 -31t-11.5 -47v-2q0 -20 6.5 -35t16.5 -29l-227 -8v34q-59 19 -100.5 62.5t-41.5 115.5v5q0 108 86.5 166t269.5 58zM134 0v841h352v-841h-352zM11 662v278l279 -3l132 3h345
l-29 -278h-727zM1107 1354q83 0 156 -12.5t125 -29.5l30 -258q-38 9 -81 15.5t-93 6.5q-60 0 -92 -11t-43.5 -31t-11.5 -47v-2q0 -20 6.5 -35t16.5 -29l-227 -8v34q-59 19 -100.5 62.5t-41.5 115.5v5q0 108 86.5 166t269.5 58zM785 0v841h352v-841h-352zM662 662v278l279 -3
l132 3h345l-29 -278h-727z" />
    <glyph glyph-name="f_f_i" unicode="ffi" horiz-adv-x="1963" 
d="M456 1354q83 0 156 -12.5t125 -29.5l30 -258q-38 9 -81 15.5t-93 6.5q-60 0 -92 -11t-43.5 -31t-11.5 -47v-2q0 -20 6.5 -35t16.5 -29l-227 -8v34q-59 19 -100.5 62.5t-41.5 115.5v5q0 108 86.5 166t269.5 58zM134 0v841h352v-841h-352zM11 662v278l279 -3l132 3h345
l-29 -278h-727zM1107 1354q83 0 156 -12.5t125 -29.5l30 -258q-38 9 -81 15.5t-93 6.5q-60 0 -92 -11t-43.5 -31t-11.5 -47v-2q0 -20 6.5 -35t16.5 -29l-227 -8v34q-59 19 -100.5 62.5t-41.5 115.5v5q0 108 86.5 166t269.5 58zM785 0v841h352v-841h-352zM662 662v278l279 -3
l132 3h345l-29 -278h-727zM1518 0v985h354v-985h-354zM1695 1056q-97 0 -141 43.5t-44 117.5v8q0 74 44 117.5t141 43.5q96 0 140.5 -43.5t44.5 -117.5v-8q0 -75 -44.5 -118t-140.5 -43z" />
    <glyph glyph-name="f_f_l" unicode="ffl" horiz-adv-x="1964" 
d="M456 1354q83 0 156 -12.5t125 -29.5l30 -258q-38 9 -81 15.5t-93 6.5q-60 0 -92 -11t-43.5 -31t-11.5 -47v-2q0 -20 6.5 -35t16.5 -29l-227 -8v34q-59 19 -100.5 62.5t-41.5 115.5v5q0 108 86.5 166t269.5 58zM134 0v841h352v-841h-352zM11 662v278l279 -3l132 3h345
l-29 -278h-727zM1107 1354q83 0 156 -12.5t125 -29.5l30 -258q-38 9 -81 15.5t-93 6.5q-60 0 -92 -11t-43.5 -31t-11.5 -47v-2q0 -20 6.5 -35t16.5 -29l-227 -8v34q-59 19 -100.5 62.5t-41.5 115.5v5q0 108 86.5 166t269.5 58zM785 0v841h352v-841h-352zM662 662v278l279 -3
l132 3h345l-29 -278h-727zM1518 0v1319h354v-1319h-354z" />
    <glyph glyph-name=".notdef" horiz-adv-x="1160" 
d="M185 0v1278h790v-1278h-790zM224 35h712v1208h-712v-1208zM210 0l695 1266h40l-695 -1266h-40zM950 0h-40l-695 1266h40z" />
    <glyph glyph-name=".null" 
 />
    <glyph glyph-name="nonmarkingreturn" horiz-adv-x="666" 
 />
    <glyph glyph-name="CR" unicode="&#xd;" horiz-adv-x="2783" 
 />
    <glyph glyph-name="space" unicode=" " horiz-adv-x="404" 
 />
    <glyph glyph-name="exclam" unicode="!" horiz-adv-x="536" 
d="M417 432h-297l-42 846h380zM270 -30q-95 0 -140 49t-45 135v11q0 86 45 135t140 49t140.5 -49t45.5 -135v-11q0 -86 -45.5 -135t-140.5 -49z" />
    <glyph glyph-name="quotedbl" unicode="&#x22;" horiz-adv-x="861" 
d="M352 791h-265l-34 528h335zM772 791h-265l-34 528h335z" />
    <glyph glyph-name="numbersign" unicode="#" horiz-adv-x="1188" 
d="M144 0l173 1278h272l-173 -1278h-272zM42 258v247h1045v-247h-1045zM607 0l168 1278h273l-167 -1278h-274zM103 769v247h1043v-247h-1043z" />
    <glyph glyph-name="dollar" unicode="$" horiz-adv-x="1093" 
d="M688 1123h-297v351h297v-351zM688 -200h-297v362h297v-362zM516 -29q-88 0 -166 11t-143 28.5t-115 36.5l-31 328q80 -34 189 -64.5t229 -30.5q107 0 149.5 22t42.5 71v4q0 33 -20.5 54.5t-68.5 41t-129 45.5q-131 42 -221 91.5t-136 124t-46 190.5v15q0 179 123.5 273.5
t360.5 94.5q139 0 240.5 -23t175.5 -56l31 -306q-80 36 -178 59.5t-206 23.5q-71 0 -110.5 -9.5t-54.5 -28t-15 -45.5v-3q0 -28 18.5 -49.5t67.5 -43.5t140 -51q130 -41 218.5 -86t133.5 -115.5t45 -190.5v-14q0 -199 -129 -298.5t-395 -99.5z" />
    <glyph glyph-name="percent" unicode="%" horiz-adv-x="1595" 
d="M262 0l793 1278h278l-789 -1278h-282zM1226 -35q-152 0 -233 80t-81 234v62q0 153 81 233t233 80t233 -80t81 -233v-62q0 -152 -81 -233t-233 -81zM1226 156q42 0 62.5 27t20.5 81v91q0 54 -20.5 81t-62.5 27t-62.5 -27t-20.5 -81v-91q0 -54 20.5 -81t62.5 -27zM369 622
q-152 0 -233 80t-81 234v62q0 153 81 233t233 80t233 -80t81 -233v-62q0 -152 -81 -233t-233 -81zM369 813q42 0 62.5 27t20.5 81v91q0 54 -20.5 81t-62.5 27t-62.5 -27t-20.5 -81v-91q0 -54 20.5 -81t62.5 -27z" />
    <glyph glyph-name="ampersand" unicode="&#x26;" horiz-adv-x="1377" 
d="M1033 1q-20 20 -46 47.5t-54 56.5t-53 55.5t-42 44.5l-51 60l-412 384l-61 61q-70 68 -103 131.5t-33 143.5v9q0 143 104 228t306 85q123 0 214.5 -18t158.5 -44l32 -280q-70 24 -155.5 40t-165.5 16q-66 0 -92.5 -19t-26.5 -53v-3q0 -28 20.5 -54.5t61.5 -66.5l347 -336
l84 -88q38 -39 72.5 -75.5t67.5 -71.5t66.5 -70.5t67.5 -73.5t71 -81v-28h-378zM542 -31q-247 0 -365.5 110t-118.5 305v16q0 132 57.5 225t185.5 160l193 -198q-47 -22 -68 -58t-21 -101v-12q0 -77 44.5 -119t134.5 -42q73 0 124.5 23.5t88.5 61.5l97 113q44 80 67.5 170
t32.5 187h341q-19 -157 -71 -292t-154 -254l-117 -111q-54 -57 -118.5 -98.5t-145.5 -63.5t-187 -22z" />
    <glyph glyph-name="quotesingle" unicode="'" horiz-adv-x="441" 
d="M352 791h-265l-34 528h335z" />
    <glyph glyph-name="parenleft" unicode="(" horiz-adv-x="675" 
d="M428 569v-39q0 -157 27 -291t81 -254t135 -237h-351q-70 98 -121.5 213t-79.5 252.5t-28 302.5v67q0 166 28 303t80 252t124 213h348q-81 -116 -135 -236.5t-81 -254.5t-27 -291z" />
    <glyph glyph-name="parenright" unicode=")" horiz-adv-x="675" 
d="M247 569q0 157 -27 291t-81 254.5t-135 236.5h348q72 -98 124 -213t80 -252t28 -303v-67q0 -165 -28 -302.5t-79 -252.5t-122 -213h-351q81 117 135 237t81 254t27 291v39z" />
    <glyph glyph-name="asterisk" unicode="*" horiz-adv-x="803" 
d="M288 572l-216 150l154 146l-2 7l-196 25l63 257l197 -86l5 4l-34 203h285l-34 -203l4 -4l198 86l63 -257l-196 -25l-1 -7l153 -146l-215 -150l-111 187h-7z" />
    <glyph glyph-name="plus" unicode="+" horiz-adv-x="1028" 
d="M663 184h-297v868h297v-868zM84 478v280h860v-280h-860z" />
    <glyph glyph-name="comma" unicode="," horiz-adv-x="490" 
d="M406 345q4 -27 7 -57.5t3 -65.5q0 -131 -41 -243.5t-133 -213.5l-241 53q42 83 65 178t23 213q0 36 -1.5 67.5t-4.5 68.5h323z" />
    <glyph glyph-name="hyphen" unicode="-" horiz-adv-x="735" 
d="M79 368v280h577v-280h-577z" />
    <glyph glyph-name="period" unicode="." horiz-adv-x="507" 
d="M254 -30q-97 0 -143 49.5t-46 137.5v11q0 87 46 137.5t143 50.5q95 0 141.5 -50.5t46.5 -137.5v-11q0 -88 -46.5 -137.5t-141.5 -49.5z" />
    <glyph glyph-name="slash" unicode="/" horiz-adv-x="945" 
d="M-24 -252l685 1603h308l-685 -1603h-308z" />
    <glyph glyph-name="zero" unicode="0" horiz-adv-x="1249" 
d="M624 -29q-271 0 -410.5 141.5t-139.5 416.5v221q0 273 139 414.5t411 141.5t411.5 -141.5t139.5 -414.5v-221q0 -275 -139.5 -416.5t-411.5 -141.5zM624 269q96 0 139 61.5t43 182.5v251q0 122 -43 183t-139 61t-138.5 -61.5t-42.5 -182.5v-251q0 -121 43.5 -182.5
t137.5 -61.5z" />
    <glyph glyph-name="one" unicode="1" horiz-adv-x="757" 
d="M295 0v916h-13l-252 -102l10 337l304 127h310v-1278h-359z" />
    <glyph glyph-name="two" unicode="2" horiz-adv-x="1012" 
d="M50 0v323l311 258q75 63 123 108.5t71.5 85.5t23.5 84v9q0 38 -18 66.5t-60.5 45t-115.5 16.5q-93 0 -176.5 -26t-147.5 -56l31 310q44 22 102 40.5t130 30t157 11.5q231 0 349 -103t118 -286v-14q0 -92 -27 -164.5t-85 -139.5t-151 -145l-165 -138v-64l-157 52h596v-304
h-909z" />
    <glyph glyph-name="three" unicode="3" horiz-adv-x="1040" 
d="M458 -29q-80 0 -151 9.5t-129 24t-100 29.5l-30 308q74 -28 164 -48t192 -20q85 0 130.5 12.5t63 37.5t17.5 61v8q0 36 -16.5 59t-54 34.5t-101.5 12.5l-241 6v280l240 7q63 2 100.5 13.5t54 34t16.5 57.5v6q0 53 -41 78.5t-154 25.5q-104 0 -198 -21t-162 -44l30 291
q73 30 171.5 51.5t228.5 21.5q247 0 369 -88t122 -252v-20q0 -83 -27.5 -140t-84.5 -90t-148 -45v-48l-22 40q161 -20 225.5 -93t64.5 -203v-23q0 -172 -130 -272.5t-399 -100.5z" />
    <glyph glyph-name="four" unicode="4" horiz-adv-x="1176" 
d="M664 0v681l15 350h-24l-258 -520v-139l-138 122h882v-292h-1091v329l394 747h563v-1278h-343z" />
    <glyph glyph-name="five" unicode="5" horiz-adv-x="1114" 
d="M512 -29q-131 0 -235 23t-163 48l-30 318q47 -20 109.5 -39t135 -31.5t148.5 -12.5q92 0 142 18.5t69.5 52.5t19.5 81v17q0 63 -31 94.5t-102 31.5q-67 0 -110 -30t-69 -72l-306 47v761h918v-296h-588v-168l-3 -161h11q29 87 99.5 139t203.5 52q169 0 247 -102t78 -287
v-33q0 -138 -51 -239.5t-169.5 -156.5t-323.5 -55z" />
    <glyph glyph-name="six" unicode="6" horiz-adv-x="1187" 
d="M611 -27q-175 0 -296.5 61.5t-184 180.5t-62.5 291v203q0 287 148 442t440 155q120 0 215.5 -20t161.5 -48l34 -297q-45 19 -97 33.5t-111 23.5t-127 9q-157 0 -231.5 -74t-74.5 -233v-199q0 -79 20.5 -130t63.5 -76t109 -25q83 0 120 37t37 109v12q0 46 -14 78
t-47.5 49.5t-92.5 17.5q-46 0 -85.5 -13.5t-69 -37.5t-46.5 -57l-42 157h57q16 61 55 110t107 78t169 29q182 0 270.5 -104.5t88.5 -298.5v-23q0 -215 -130 -327.5t-385 -112.5z" />
    <glyph glyph-name="seven" unicode="7" horiz-adv-x="1007" 
d="M151 0l425 976h-532v302h910v-310l-414 -968h-389z" />
    <glyph glyph-name="eight" unicode="8" horiz-adv-x="1186" 
d="M591 -36q-151 0 -254 26.5t-165 75.5t-89.5 117.5t-27.5 151.5v24q0 86 29 148t86.5 100.5t144.5 55.5v11q-80 14 -135 48t-83 89.5t-28 133.5v23q0 158 124 249.5t398 91.5q278 0 402 -91.5t124 -249.5v-23q0 -80 -28.5 -135t-84 -88t-137.5 -48v-11q89 -18 147.5 -56
t87.5 -99t29 -149v-24q0 -79 -25 -146.5t-85.5 -118t-165.5 -78.5t-264 -28zM596 245q104 0 141.5 34t37.5 92v5q0 62 -42.5 95t-149.5 52q-97 -19 -134.5 -55.5t-37.5 -91.5v-5q0 -59 39.5 -92.5t145.5 -33.5zM602 774q87 13 127.5 49.5t40.5 91.5v6q0 56 -40.5 88
t-138.5 32q-94 0 -134.5 -31.5t-40.5 -86.5v-6q0 -37 17 -65.5t57.5 -48t111.5 -29.5z" />
    <glyph glyph-name="nine" unicode="9" horiz-adv-x="1187" 
d="M578 1304q266 0 403.5 -141t137.5 -416v-210q0 -272 -155.5 -419t-464.5 -147q-116 0 -201.5 17t-138.5 40l-35 308q59 -26 135 -46t170 -20q172 0 252 68.5t80 214.5v228q0 116 -45 171t-141 55q-85 0 -124.5 -40t-39.5 -110v-9q0 -72 40 -108t125 -36q42 0 78 12
t64 35.5t47 55.5l81 -152h-95q-16 -67 -56 -115.5t-106 -75t-163 -26.5q-179 0 -272 101t-93 281v45q0 212 132 325.5t385 113.5z" />
    <glyph glyph-name="colon" unicode=":" horiz-adv-x="517" 
d="M259 -30q-97 0 -143 49.5t-46 137.5v11q0 87 46 137.5t143 50.5q95 0 141.5 -50.5t46.5 -137.5v-11q0 -88 -46.5 -137.5t-141.5 -49.5zM259 571q-97 0 -143 49.5t-46 137.5v11q0 87 46 137.5t143 50.5q95 0 141.5 -50.5t46.5 -137.5v-11q0 -88 -46.5 -137.5t-141.5 -49.5
z" />
    <glyph glyph-name="semicolon" unicode=";" horiz-adv-x="517" 
d="M421 345q4 -27 7 -57.5t3 -65.5q0 -131 -41 -243.5t-133 -213.5l-241 53q42 83 65 178t23 213q0 36 -1.5 67.5t-4.5 68.5h323zM259 571q-97 0 -143 49.5t-46 137.5v11q0 87 46 137.5t143 50.5q95 0 141.5 -50.5t46.5 -137.5v-11q0 -88 -46.5 -137.5t-141.5 -49.5z" />
    <glyph glyph-name="less" unicode="&#x3c;" horiz-adv-x="1028" 
d="M318 625v-20l625 -96v-294l-859 174v451l859 174v-294z" />
    <glyph glyph-name="equal" unicode="=" horiz-adv-x="1039" 
d="M90 274v274h859v-274h-859zM90 689v274h859v-274h-859z" />
    <glyph glyph-name="greater" unicode="&#x3e;" horiz-adv-x="1028" 
d="M710 625l-625 95v294l859 -174v-451l-859 -174v294l625 96v20z" />
    <glyph glyph-name="question" unicode="?" horiz-adv-x="934" 
d="M227 413v300l101 18q77 14 118.5 34.5t58 49.5t16.5 65v8q0 59 -40 88.5t-136 29.5q-80 0 -160 -16.5t-160 -44.5l38 296q39 16 94.5 31t122.5 24.5t140 9.5q233 0 348.5 -100t115.5 -290v-24q0 -139 -57 -230.5t-169.5 -144.5t-279.5 -80zM360 -30q-95 0 -140 49
t-45 135v11q0 86 45 135t140 49t140.5 -49t45.5 -135v-11q0 -86 -45.5 -135t-140.5 -49z" />
    <glyph glyph-name="at" unicode="@" horiz-adv-x="1722" 
d="M697 60q-110 0 -169 72t-59 211q0 11 0.5 25.5t2 34.5t4.5 47.5t7 63.5q14 120 46.5 211.5t93.5 143t160 51.5q101 0 141.5 -53t49.5 -141h79l-86 -169q1 8 1 15.5v12.5q0 28 -7 48t-24 31.5t-47 11.5q-48 0 -67.5 -36.5t-27.5 -98.5q-4 -36 -7 -61t-4 -41t-1.5 -27.5
t-0.5 -20.5q0 -37 17.5 -57.5t51.5 -20.5q21 0 39.5 8t33 24.5t24.5 40.5l53 -129h-73q-14 -55 -40.5 -100t-72 -71t-118.5 -26zM920 70l22 222l-3 41l40 332l3 39l17 195v0h296l-84 -786zM1146 306q21 -5 36 -6.5t41 -1.5q74 0 114.5 51.5t53.5 151.5q7 55 11.5 95t7 69.5
t3.5 50.5q5 123 -47 214.5t-162.5 142t-282.5 50.5q-189 0 -304 -62.5t-174.5 -165.5t-83.5 -225q-8 -40 -13.5 -78.5t-9.5 -73.5t-6.5 -64.5t-4 -52.5t-2.5 -38q-15 -246 117.5 -365t424.5 -119q129 0 235 15.5t194.5 40.5t161.5 54l-43 -238q-72 -25 -153.5 -46.5
t-182 -35t-231.5 -13.5q-267 0 -447.5 75t-268 229t-75.5 390q1 17 3 43.5t4.5 58.5t6 67.5t7.5 72.5t9 73q29 212 129.5 364.5t279.5 234t441 81.5q239 0 407.5 -73t255.5 -213.5t80 -344.5q-1 -25 -3 -59.5t-6 -76.5t-10 -92q-17 -146 -78.5 -239t-177.5 -137.5
t-299 -47.5q-42 -1 -91 0.5t-93 7.5z" />
    <glyph glyph-name="A" unicode="A" horiz-adv-x="1275" 
d="M15 0l355 1278h539l351 -1278h-365l-244 1041h-23l-248 -1041h-365zM350 277v276h573v-276h-573z" />
    <glyph glyph-name="B" unicode="B" horiz-adv-x="1240" 
d="M364 0v282h317q77 0 109.5 27.5t32.5 85.5v11q0 58 -32.5 85.5t-109.5 27.5h-324v259h313q74 0 104.5 28t30.5 83v7q0 55 -30.5 81.5t-104.5 26.5h-313v274h353q240 0 345.5 -76t105.5 -228v-14q0 -113 -62.5 -175.5t-197.5 -68.5v-11q148 -16 216.5 -94t68.5 -217v-23
q0 -187 -110 -279t-349 -92h-363zM104 0v1278h345v-1278h-345z" />
    <glyph glyph-name="C" unicode="C" horiz-adv-x="1052" 
d="M631 -29q-286 0 -424.5 148t-138.5 423v202q0 270 139.5 416.5t419.5 146.5q72 0 132.5 -10t110.5 -27.5t89 -40.5l26 -305q-58 28 -125.5 48.5t-154.5 20.5q-139 0 -203 -70t-64 -195v-171q0 -124 65 -194.5t216 -70.5q84 0 151 21.5t125 51.5l-26 -311
q-38 -23 -89.5 -42t-113.5 -30t-135 -11z" />
    <glyph glyph-name="D" unicode="D" horiz-adv-x="1265" 
d="M359 0v302h269q104 0 155 56t51 160v246q0 104 -51 159.5t-155 55.5h-269v299h282q281 0 419.5 -132.5t138.5 -381.5v-247q0 -250 -138 -383.5t-420 -133.5h-282zM104 0v1278h357v-1278h-357z" />
    <glyph glyph-name="E" unicode="E" horiz-adv-x="1108" 
d="M104 0v1278h353v-1278h-353zM209 0v301h823v-301h-823zM312 504v287h695v-287h-695zM209 980v298h814v-298h-814z" />
    <glyph glyph-name="F" unicode="F" horiz-adv-x="1056" 
d="M104 0v1278h360v-1278h-360zM312 415v304h664v-304h-664zM209 973v305h783v-305h-783z" />
    <glyph glyph-name="G" unicode="G" horiz-adv-x="1282" 
d="M508 -29q-146 0 -244 64.5t-147 186.5t-49 293v198q0 293 160 443.5t467 150.5q90 0 168.5 -11.5t144 -30.5t115.5 -43l30 -301q-78 31 -171.5 55t-213.5 24q-173 0 -252 -73t-79 -238v-178q0 -111 52.5 -172t167.5 -61q48 0 83.5 12.5t60 33.5t40.5 46v220l45 -101
l-229 -2v275h529v-544h-353q-15 -72 -49.5 -127.5t-100 -87.5t-175.5 -32zM846 262h340v-262h-350z" />
    <glyph glyph-name="H" unicode="H" horiz-adv-x="1329" 
d="M467 0h-363v1278h363v-1278zM1225 0h-363v1278h363v-1278zM313 803h684v-302h-684v302z" />
    <glyph glyph-name="I" unicode="I" horiz-adv-x="571" 
d="M467 0h-363v1278h363v-1278z" />
    <glyph glyph-name="J" unicode="J" horiz-adv-x="838" 
d="M295 -21q-61 0 -123 9.5t-112 28.5l-26 302q44 -13 87 -21.5t88 -8.5q102 0 136 43t34 132v814h363v-836q0 -229 -102.5 -346t-344.5 -117z" />
    <glyph glyph-name="K" unicode="K" horiz-adv-x="1234" 
d="M821 0l-342 554h-55v200h55l338 524h409l-435 -644v80l449 -714h-419zM104 0v1278h359v-1278h-359z" />
    <glyph glyph-name="L" unicode="L" horiz-adv-x="1029" 
d="M467 0h-363v1278h363v-1278zM312 304h667v-304h-667v304z" />
    <glyph glyph-name="M" unicode="M" horiz-adv-x="1626" 
d="M93 0l37 1278h494l183 -712h13l183 712h493l37 -1278h-350l-6 379l-7 490h-15l-186 -718h-312l-187 718h-16l-6 -491l-5 -378h-350z" />
    <glyph glyph-name="N" unicode="N" horiz-adv-x="1329" 
d="M593 1279l292 -884h14l-16 534v350h342v-1279h-474l-306 910h-14l16 -542v-368h-343v1279h489z" />
    <glyph glyph-name="O" unicode="O" horiz-adv-x="1294" 
d="M647 -33q-291 0 -435 141.5t-144 409.5v226q0 269 145 416t434 147t434 -147t145 -416v-226q0 -268 -144 -409.5t-435 -141.5zM647 265q107 0 158.5 61.5t51.5 173.5v263q0 120 -51.5 184t-158.5 64t-158.5 -64t-51.5 -184v-263q0 -112 51.5 -173.5t158.5 -61.5z" />
    <glyph glyph-name="P" unicode="P" horiz-adv-x="1203" 
d="M348 343v291h282q89 0 127.5 36t38.5 115v51q0 79 -38.5 115.5t-127.5 36.5h-282v290h314q254 0 373 -110.5t119 -320.5v-74q0 -211 -119 -320.5t-371 -109.5h-316zM104 0v1278h354v-725l2 -165v-388h-356z" />
    <glyph glyph-name="Q" unicode="Q" horiz-adv-x="1294" 
d="M1284 -59l-559 25q-352 16 -504.5 154.5t-152.5 414.5v210q0 269 145 415.5t434 146.5q192 0 320.5 -65.5t193 -190.5t64.5 -304v-140q0 -79 -19 -141t-55 -106.5t-88 -72t-117 -38.5v-13l338 13v-308zM674 268l37 -1q33 12 59.5 35t46 56.5t30 79t10.5 102.5v221
q0 120 -51.5 184t-158.5 64t-158.5 -64t-51.5 -184v-241q0 -121 65 -185t172 -67z" />
    <glyph glyph-name="R" unicode="R" horiz-adv-x="1230" 
d="M814 0l-20 233q-5 61 -23 97t-53 52t-92 16l-270 1v274l278 1q87 0 126 36.5t39 113.5v17q0 77 -38 113.5t-127 36.5h-279v287h332q245 0 358 -91t113 -266v-23q0 -133 -70.5 -202.5t-207.5 -74.5v-52l-56 48q119 -8 184.5 -47.5t97 -112t44.5 -181.5l34 -276h-370z
M104 0v1278h351v-704l2 -134v-440h-353z" />
    <glyph glyph-name="S" unicode="S" horiz-adv-x="1093" 
d="M516 -29q-88 0 -166 11t-143 28.5t-115 36.5l-31 328q80 -34 189 -64.5t229 -30.5q107 0 149.5 22t42.5 71v4q0 33 -20.5 54.5t-68.5 41t-129 45.5q-131 42 -221 91.5t-136 124t-46 190.5v15q0 179 123.5 273.5t360.5 94.5q139 0 240.5 -23t175.5 -56l31 -306
q-80 36 -178 59.5t-206 23.5q-71 0 -110.5 -9.5t-54.5 -28t-15 -45.5v-3q0 -28 18.5 -49.5t67.5 -43.5t140 -51q130 -41 218.5 -86t133.5 -115.5t45 -190.5v-14q0 -199 -129 -298.5t-395 -99.5z" />
    <glyph glyph-name="T" unicode="T" horiz-adv-x="1142" 
d="M390 0v1207h363v-1207h-363zM47 977v301h1048v-301h-1048z" />
    <glyph glyph-name="U" unicode="U" horiz-adv-x="1309" 
d="M655 -33q-286 0 -423 135.5t-137 397.5v778h363v-783q0 -112 48 -168t149 -56t148.5 56t47.5 168v783h363v-778q0 -262 -136.5 -397.5t-422.5 -135.5z" />
    <glyph glyph-name="V" unicode="V" horiz-adv-x="1246" 
d="M352 0l-337 1278h373l223 -1010h24l224 1010h372l-336 -1278h-543z" />
    <glyph glyph-name="W" unicode="W" horiz-adv-x="1749" 
d="M241 0l-211 1278h366l104 -872l12 -104h18l15 104l119 845h422l118 -845l15 -104h18l13 103l106 873h363l-209 -1278h-503l-104 797l-20 156h-16l-21 -156l-102 -797h-503z" />
    <glyph glyph-name="X" unicode="X" horiz-adv-x="1227" 
d="M14 0l336 703v-75l-322 650h382l194 -429h18l195 429h382l-323 -650v75l337 -703h-390l-201 460h-18l-200 -460h-390z" />
    <glyph glyph-name="Y" unicode="Y" horiz-adv-x="1197" 
d="M436 318l-436 960h377l138 -350l75 -208h17l75 208l137 350h377l-434 -960h-326zM421 0v640h356v-640h-356z" />
    <glyph glyph-name="Z" unicode="Z" horiz-adv-x="1093" 
d="M1038 302v-302h-984v284l552 693h-542v301h963v-282l-554 -694h565z" />
    <glyph glyph-name="bracketleft" unicode="[" horiz-adv-x="650" 
d="M106 -252v1603h496v-253h-170v-1097h170v-253h-496z" />
    <glyph glyph-name="backslash" unicode="\" horiz-adv-x="945" 
d="M969 -252h-308l-685 1603h308z" />
    <glyph glyph-name="bracketright" unicode="]" horiz-adv-x="650" 
d="M544 -252h-496v253h170v1097h-170v253h496v-1603z" />
    <glyph glyph-name="asciicircum" unicode="^" horiz-adv-x="934" 
d="M240 1278h454l223 -671h-296l-146 485h-14l-147 -485h-297z" />
    <glyph glyph-name="underscore" unicode="_" horiz-adv-x="876" 
d="M29 -299v273h818v-273h-818z" />
    <glyph glyph-name="grave" unicode="`" horiz-adv-x="729" 
d="M475 1376l169 -298v-3h-287l-244 297v4h362z" />
    <glyph glyph-name="a" unicode="a" horiz-adv-x="1077" 
d="M650 0l10 252l-7 9v306l-3 36q0 69 -44.5 101.5t-151.5 32.5q-97 0 -186.5 -23t-171.5 -53l29 269q50 22 111 40.5t133 29.5t153 11q137 0 228.5 -31.5t145.5 -89t77.5 -136.5t23.5 -174v-580h-347zM345 -24q-148 0 -223.5 75.5t-75.5 214.5v25q0 148 90.5 218t289.5 95
l251 32l21 -202l-213 -31q-58 -8 -80.5 -27.5t-22.5 -57.5v-4q0 -35 23.5 -57t78.5 -22q46 0 79.5 12.5t56 33.5t35.5 46l50 -120h-57q-15 -67 -47.5 -119t-93.5 -82t-162 -30z" />
    <glyph glyph-name="b" unicode="b" horiz-adv-x="1152" 
d="M734 -24q-89 0 -148 30t-93 84.5t-48 127.5h-85l80 215q1 -51 18.5 -88t51 -57t81.5 -20q71 0 107 42.5t36 127.5v120q0 86 -35 127.5t-106 41.5q-38 0 -70 -14t-55 -37.5t-34 -52.5l-81 144h97q14 68 47 123t93.5 87t154.5 32q170 0 257.5 -114t87.5 -344v-105
q0 -233 -87.5 -351.5t-268.5 -118.5zM92 0v1319h352v-285l-5 -330l1 -24v-364l-6 -59l10 -257h-352z" />
    <glyph glyph-name="c" unicode="c" horiz-adv-x="903" 
d="M531 -27q-241 0 -357 126t-116 355v85q0 222 116 348t356 126q59 0 112 -7.5t98 -21t80 -30.5l28 -289q-49 25 -106 41.5t-127 16.5q-108 0 -154.5 -49t-46.5 -141v-65q0 -96 51 -147.5t160 -51.5q68 0 123.5 15t109.5 40l-27 -290q-55 -27 -133 -44t-167 -17z" />
    <glyph glyph-name="d" unicode="d" horiz-adv-x="1152" 
d="M407 -24q-170 0 -257.5 114.5t-87.5 343.5v105q0 233 87.5 351.5t267.5 118.5q88 0 146 -30t91.5 -84t46.5 -128h91l-80 -205q-1 52 -18.5 88.5t-50 56.5t-80.5 20q-71 0 -108 -42t-37 -126v-121q0 -85 37.5 -127.5t112.5 -42.5q37 0 66.5 13t50.5 36t33 53l87 -152h-98
q-14 -68 -48 -123t-95 -87t-157 -32zM708 0l10 257l-6 49v394v45l-4 289v285h352v-1319h-352z" />
    <glyph glyph-name="e" unicode="e" horiz-adv-x="1081" 
d="M606 -26q-283 0 -415.5 123t-132.5 360v77q0 235 124.5 358t363.5 123q159 0 265 -52.5t159.5 -151t53.5 -237.5v-31q0 -40 -3.5 -81.5t-10.5 -76.5h-317q4 61 5.5 115t1.5 97q0 52 -16 87.5t-50 54t-88 18.5q-81 0 -117.5 -42t-36.5 -119v-89l2 -38v-62q0 -31 11 -60
t40.5 -51.5t84 -35.5t141.5 -13q89 0 174 14.5t164 40.5l-28 -257q-69 -34 -164.5 -52.5t-210.5 -18.5zM245 385v208h694v-208h-694z" />
    <glyph glyph-name="f" unicode="f" horiz-adv-x="775" 
d="M456 1354q83 0 156 -12.5t125 -29.5l30 -258q-38 9 -81 15.5t-93 6.5q-60 0 -92 -11t-43.5 -31t-11.5 -47v-2q0 -20 6.5 -35t16.5 -29l-227 -8v34q-59 19 -100.5 62.5t-41.5 115.5v5q0 108 86.5 166t269.5 58zM134 0v841h352v-841h-352zM11 662v278l279 -3l132 3h345
l-29 -278h-727z" />
    <glyph glyph-name="g" unicode="g" horiz-adv-x="1074" 
d="M545 310q-250 0 -372.5 88.5t-122.5 245.5v12q0 110 50.5 184t154.5 114.5t264 48.5l532 28v-244l-256 5v-10q71 -9 117 -33t68 -65t22 -101v-6q0 -130 -110 -198.5t-347 -68.5zM527 -132h33q66 0 104 7.5t54.5 22t16.5 34.5v2q0 28 -26.5 38.5t-72.5 14.5l-294 29l75 5
q-21 -4 -36.5 -13.5t-24 -24t-8.5 -34.5v-2q0 -24 17.5 -42t57 -27.5t104.5 -9.5zM511 -385q-154 0 -261 23t-162 74t-55 134v4q0 57 25 96t73 60.5t115 25.5v10q-79 14 -123.5 49t-44.5 101v2q0 48 22.5 80t65 49t102.5 18v39l235 -60h-63q-24 0 -35 -7t-11 -21v-1
q0 -19 19 -26t60 -12l231 -28q176 -21 263 -86.5t87 -204.5v-7q0 -106 -58.5 -175t-170.5 -103t-273 -34h-41zM532 543q52 0 85 12.5t49.5 36.5t16.5 58v6q0 34 -16.5 58t-49.5 36.5t-85 12.5v0q-51 0 -84.5 -12.5t-50 -36t-16.5 -58.5v-6q0 -34 16.5 -58t50 -36.5
t84.5 -12.5z" />
    <glyph glyph-name="h" unicode="h" horiz-adv-x="1156" 
d="M717 0v566q0 47 -11.5 81t-39 52t-76.5 18q-37 0 -66 -13t-49 -34.5t-32 -48.5l-72 146h80q15 69 49.5 123.5t97 86.5t159.5 32q108 0 177.5 -42t103 -126.5t33.5 -213.5v-627h-354zM92 0v1319h352v-286l-5 -342l7 -28v-663h-354z" />
    <glyph glyph-name="i" unicode="i" horiz-adv-x="537" 
d="M92 0v985h354v-985h-354zM269 1056q-97 0 -141 43.5t-44 117.5v8q0 74 44 117.5t141 43.5q96 0 140.5 -43.5t44.5 -117.5v-8q0 -75 -44.5 -118t-140.5 -43z" />
    <glyph glyph-name="j" unicode="j" horiz-adv-x="550" 
d="M105 162v823h354v-823h-354zM282 1056q-97 0 -141 43.5t-44 117.5v8q0 74 44 117.5t141 43.5q96 0 140.5 -43.5t44.5 -117.5v-8q0 -75 -44.5 -118t-140.5 -43zM96 -362q-45 0 -84 4.5t-68 12.5l-25 279q18 -5 36.5 -8t37.5 -3q69 0 90.5 36t21.5 97v150h354v-175
q0 -118 -34.5 -206t-113.5 -137.5t-215 -49.5z" />
    <glyph glyph-name="k" unicode="k" horiz-adv-x="1119" 
d="M715 0l-260 417h-72v192h72l255 376h403l-350 -494v65l363 -556h-411zM92 0v1319h352v-1319h-352z" />
    <glyph glyph-name="l" unicode="l" horiz-adv-x="538" 
d="M92 0v1319h354v-1319h-354z" />
    <glyph glyph-name="m" unicode="m" horiz-adv-x="1731" 
d="M1292 0v576q0 44 -10.5 75.5t-35.5 48.5t-69 17q-35 0 -61.5 -13t-45 -34.5t-28.5 -48.5l-31 146h30q15 69 49 123.5t95.5 86.5t158.5 32q104 0 170.5 -41t99 -123.5t32.5 -207.5v-637h-354zM92 0v985h352l-11 -280l13 -9v-696h-354zM692 0v576q0 44 -10.5 75.5
t-35.5 48.5t-69 17q-35 0 -61.5 -13t-45 -34.5t-28.5 -48.5l-54 146h57q15 69 48.5 123.5t94.5 86.5t156 32q137 0 206.5 -71t86.5 -205q2 -20 5.5 -51t3.5 -54v-628h-354z" />
    <glyph glyph-name="n" unicode="n" horiz-adv-x="1156" 
d="M717 0v566q0 47 -11.5 81t-39.5 52t-76 18q-37 0 -66 -13t-49.5 -34.5t-32.5 -48.5l-54 146h57q15 69 50.5 123.5t99 86.5t162.5 32q108 0 177.5 -42t103 -126.5t33.5 -213.5v-627h-354zM92 0v985h352l-11 -253l13 -36v-696h-354z" />
    <glyph glyph-name="o" unicode="o" horiz-adv-x="1112" 
d="M556 -30q-247 0 -372.5 120.5t-125.5 334.5v125q0 219 126 342t372 123q247 0 372.5 -123t125.5 -342v-125q0 -214 -125 -334.5t-373 -120.5zM556 248q71 0 107.5 42.5t36.5 121.5v152q0 85 -36.5 129t-107.5 44q-70 0 -107 -44t-37 -129v-152q0 -79 37 -121.5t107 -42.5
z" />
    <glyph glyph-name="p" unicode="p" horiz-adv-x="1152" 
d="M734 -24q-89 0 -148 30t-93 84.5t-48 127.5h-85l80 215q1 -51 18.5 -88t51 -57t81.5 -20q71 0 107 42.5t36 127.5v120q0 86 -35 127.5t-106 41.5q-38 0 -70 -14t-55 -37.5t-34 -52.5l-81 144h92q14 68 48 123t95 87t157 32q170 0 257.5 -114t87.5 -344v-105
q0 -233 -87.5 -351.5t-268.5 -118.5zM92 -344v1329h352l-12 -281l8 -24v-364l-6 -59l10 -257v-344h-352z" />
    <glyph glyph-name="q" unicode="q" horiz-adv-x="1152" 
d="M407 -24q-170 0 -257.5 114.5t-87.5 343.5v105q0 233 87.5 351.5t267.5 118.5q90 0 149 -30t93 -84t48 -128h91l-86 -205q-1 52 -18.5 88.5t-50 56.5t-80.5 20q-71 0 -108 -42t-37 -126v-121q0 -85 37.5 -127.5t112.5 -42.5q37 0 66.5 13t50.5 36t33 53l87 -152h-98
q-14 -68 -48 -123t-95 -87t-157 -32zM708 -344v344l10 257l-6 49v394l6 45l-10 240h352v-1329h-352z" />
    <glyph glyph-name="r" unicode="r" horiz-adv-x="810" 
d="M441 535l-102 200h83q20 125 88 195.5t195 70.5q19 0 35.5 -2t32.5 -5l17 -360q-20 4 -47.5 6t-53.5 2q-94 0 -156 -28.5t-92 -78.5zM92 0v985h330l-14 -326h38v-659h-354z" />
    <glyph glyph-name="s" unicode="s" horiz-adv-x="950" 
d="M457 -25q-117 0 -213 19t-166 45l-29 291q78 -30 173.5 -54.5t203.5 -24.5q79 0 108.5 13t29.5 42v2q0 22 -17 35t-59.5 24.5t-117.5 28.5q-123 29 -195 69.5t-103 98.5t-31 138v8q0 152 109.5 226.5t319.5 74.5q113 0 206.5 -19.5t157.5 -47.5l29 -271q-73 29 -163 48.5
t-184 19.5q-54 0 -83.5 -5.5t-40.5 -16.5t-11 -27v-2q0 -18 14 -30.5t53 -24.5t114 -30q123 -28 200 -62t113 -88.5t36 -147.5v-6q0 -166 -111 -246t-343 -80z" />
    <glyph glyph-name="t" unicode="t" horiz-adv-x="819" 
d="M498 -23q-137 0 -217.5 41.5t-115 123.5t-34.5 202v528h351v-468q0 -64 29 -93.5t114 -29.5q46 0 91.5 10.5t82.5 24.5l-30 -290q-52 -22 -120 -35.5t-151 -13.5zM8 708v277h781l-30 -277h-751zM136 961l-1 247l349 31l-12 -278h-336z" />
    <glyph glyph-name="u" unicode="u" horiz-adv-x="1156" 
d="M439 985v-566q0 -47 11.5 -81t39.5 -52t76 -18q38 0 66.5 13t49 35t32.5 48l54 -146h-57q-15 -68 -50.5 -123t-98.5 -87t-163 -32q-107 0 -177 42t-103.5 126.5t-33.5 213.5v627h354zM1064 985v-985h-352l11 253l-13 36v696h354z" />
    <glyph glyph-name="v" unicode="v" horiz-adv-x="1074" 
d="M552 230l149 755h362l-242 -985h-565l-245 985h366l151 -755h24z" />
    <glyph glyph-name="w" unicode="w" horiz-adv-x="1589" 
d="M199 0l-182 985h357l99 -736h19l94 713h418l97 -713h17l101 736h353l-182 -985h-497l-78 604l-12 100h-14l-13 -100l-79 -604h-498z" />
    <glyph glyph-name="x" unicode="x" horiz-adv-x="1091" 
d="M10 0l272 560v-95l-264 520h379l139 -326h20l139 326h378l-263 -520v95l271 -560h-379l-146 340h-20l-147 -340h-379z" />
    <glyph glyph-name="y" unicode="y" horiz-adv-x="1075" 
d="M695 276l-190 -82l197 791h362l-382 -1329h-353l153 518l168 -131h-390l-249 942h364l138 -709h182z" />
    <glyph glyph-name="z" unicode="z" horiz-adv-x="966" 
d="M905 290v-290h-844v263l411 433h-407v289h834v-262l-413 -433h419z" />
    <glyph glyph-name="braceleft" unicode="{" horiz-adv-x="703" 
d="M657 1335v-245q-14 3 -32 5.5t-38 2.5q-55 0 -78 -24.5t-23 -79.5q0 -22 3.5 -64t6.5 -84.5t3 -68.5q0 -61 -16.5 -107t-55 -74.5t-106.5 -39.5v-17l-14 7q74 -9 116 -38.5t59 -76t17 -109.5q0 -25 -3 -68t-6.5 -84.5t-3.5 -64.5q0 -55 24 -79.5t81 -24.5q19 0 36 2.5
t30 5.5v-247q-39 -10 -83 -16t-89 -6q-166 0 -247 75.5t-81 250.5q0 29 3.5 75.5t6.5 92t3 69.5q0 35 -12 58t-38 35t-70 14v279q44 2 70 14t38 35.5t12 58.5q0 25 -3 70t-6.5 91.5t-3.5 74.5q0 173 81 248.5t247 75.5q45 0 89.5 -6.5t82.5 -15.5z" />
    <glyph glyph-name="bar" unicode="|" horiz-adv-x="537" 
d="M415 -413h-293v1834h293v-1834z" />
    <glyph glyph-name="braceright" unicode="}" horiz-adv-x="703" 
d="M46 1335q38 9 82.5 15.5t89.5 6.5q166 0 247 -75.5t81 -248.5q0 -28 -3 -74.5t-6.5 -91.5t-3.5 -70q0 -35 12 -58.5t38.5 -35.5t69.5 -14v-279q-43 -2 -69.5 -14t-38.5 -35t-12 -58q0 -24 3.5 -69.5t6.5 -92t3 -75.5q0 -175 -81 -250.5t-247 -75.5q-45 0 -89 6t-83 16
v247q14 -3 30.5 -5.5t35.5 -2.5q57 0 81 24.5t24 79.5q0 23 -3 64.5t-6.5 84.5t-3.5 68q0 63 17 109.5t59 76t116 38.5l-14 -7v17q-67 11 -106 39.5t-55.5 74.5t-16.5 107q0 26 3.5 68.5t6.5 84.5t3 64q0 55 -23 79.5t-78 24.5q-20 0 -38 -2.5t-32 -5.5v245z" />
    <glyph glyph-name="asciitilde" unicode="~" horiz-adv-x="1114" 
d="M753 460q-53 0 -101 10.5t-91 24.5t-81 24.5t-71 10.5q-44 0 -59.5 -22.5t-17.5 -69.5v-9h-248v68q0 154 64 237.5t212 83.5q55 0 103.5 -10.5t91 -25t80 -25t70.5 -10.5q44 0 59.5 24t17.5 73v4h248v-67q0 -151 -64 -236t-213 -85z" />
    <glyph glyph-name="uni00A0" unicode="&#xa0;" horiz-adv-x="404" 
 />
    <glyph glyph-name="exclamdown" unicode="&#xa1;" horiz-adv-x="536" 
d="M417 553l41 -846h-380l42 846h297zM270 1015q95 0 140.5 -49t45.5 -135v-11q0 -85 -45.5 -134.5t-140.5 -49.5t-140 49.5t-45 134.5v11q0 86 45 135t140 49z" />
    <glyph glyph-name="cent" unicode="&#xa2;" horiz-adv-x="903" 
d="M685 830h-296v351h296v-351zM685 -200h-296v362h296v-362zM531 -27q-241 0 -357 126t-116 355v85q0 222 116 348t356 126q59 0 112 -7.5t98 -21t80 -30.5l28 -289q-49 25 -106 41.5t-127 16.5q-108 0 -154.5 -49t-46.5 -141v-65q0 -96 51 -147.5t160 -51.5q68 0 123.5 15
t109.5 40l-27 -290q-55 -27 -133 -44t-167 -17z" />
    <glyph glyph-name="sterling" unicode="&#xa3;" horiz-adv-x="1102" 
d="M65 545l16 229h883l-16 -229h-883zM393 304h659v-304h-980v289l57 22q36 14 58 37t32 57t10 81t-9 101t-20.5 111.5t-20.5 115t-9 110.5q0 191 115 287t370 96q84 0 168 -9.5t152 -27.5l26 -298q-62 14 -121.5 22t-123.5 8q-86 0 -131 -17.5t-61 -50.5t-16 -81
q0 -40 8 -82.5t18.5 -84.5t18.5 -82t8 -77q0 -95 -47 -142.5t-161 -69.5v-11z" />
    <glyph glyph-name="currency" unicode="&#xa4;" horiz-adv-x="1146" 
d="M572 205q-208 0 -316 102.5t-108 291.5v24q0 188 108 290.5t316 102.5q209 0 316.5 -102.5t107.5 -290.5v-24q0 -189 -107.5 -291.5t-316.5 -102.5zM572 466q56 0 83.5 32t26.5 94l-1 37q-1 62 -27 94t-82 32q-55 0 -82.5 -31.5t-27.5 -94.5v-37q0 -62 27.5 -94t82.5 -32
zM876 485l217 -233l-195 -168l-213 227zM461 311l-213 -227l-194 168l221 235zM257 745l-203 218l194 168l208 -221zM685 903l213 228l194 -168l-220 -237z" />
    <glyph glyph-name="yen" unicode="&#xa5;" horiz-adv-x="1196" 
d="M659 502l52 190h390l-15 -190h-427zM115 403h986l-15 -190h-987zM480 692l54 -190h-435l16 190h365zM436 318l-436 960h377l138 -350l75 -208h17l75 208l137 350h377l-434 -960h-326zM421 0v640h356v-640h-356z" />
    <glyph glyph-name="brokenbar" unicode="&#xa6;" horiz-adv-x="541" 
d="M419 579h-297v842h297v-842zM419 -413h-297v854h297v-854z" />
    <glyph glyph-name="section" unicode="&#xa7;" horiz-adv-x="994" 
d="M544 486q35 14 50.5 33.5t15.5 50.5v4q0 34 -19.5 54t-65 35t-124.5 33q-124 29 -197.5 68t-105.5 97t-32 142v8q0 151 108 223.5t316 72.5q111 0 202.5 -20t155.5 -49l29 -267q-72 29 -160.5 48.5t-180.5 19.5q-80 0 -105 -11.5t-25 -32.5v-1q0 -16 13 -28t58.5 -26
t140.5 -37q102 -24 170.5 -52t102.5 -73t34 -120v-10q0 -79 -50.5 -130t-136.5 -63l1 -72zM445 710q-37 -13 -53.5 -35t-16.5 -50v-4q0 -31 17.5 -54t63 -41.5t130.5 -37.5q119 -26 194 -59t110 -89t35 -150v-6q0 -157 -111 -238.5t-344 -81.5q-115 0 -207.5 20.5
t-160.5 48.5l-29 288q77 -31 171 -56t198 -25q77 0 106.5 11.5t29.5 37.5v2q0 20 -16 32t-58.5 24.5t-123.5 33.5q-110 29 -179 60.5t-101.5 77.5t-32.5 117v11q0 77 49 126.5t125 62.5l-1 54z" />
    <glyph glyph-name="dieresis" unicode="&#xa8;" horiz-adv-x="876" 
d="M255 1062q-78 0 -116.5 40.5t-38.5 113.5v8q0 74 38.5 115t116.5 41q80 0 118.5 -41t38.5 -115v-8q0 -73 -38.5 -113.5t-118.5 -40.5zM620 1062q-79 0 -117 40.5t-38 113.5v8q0 74 38 115t117 41q78 0 117 -41t39 -115v-8q0 -73 -39 -113.5t-117 -40.5z" />
    <glyph glyph-name="copyright" unicode="&#xa9;" horiz-adv-x="1435" 
d="M717 -33q-211 0 -355.5 72t-219 209.5t-74.5 331.5v125q0 191 74.5 325.5t219 205.5t355.5 71t356 -71t219.5 -205.5t74.5 -325.5v-125q0 -194 -74.5 -331.5t-219.5 -209.5t-356 -72zM760 305q-157 0 -231.5 83t-74.5 232v38q0 147 75 229t230 82q56 0 102.5 -10.5
t79.5 -27.5l18 -189q-31 16 -66 26.5t-78 10.5q-69 0 -99 -32.5t-30 -91.5v-28q0 -61 33 -94t102 -33q42 0 77 10t67 26l-17 -192q-34 -17 -83 -28t-105 -11zM717 157q206 0 315 109.5t109 307.5v138q0 193 -109 299t-315 106q-205 0 -314 -106t-109 -299v-138
q0 -198 109 -307.5t314 -109.5z" />
    <glyph glyph-name="ordfeminine" unicode="&#xaa;" horiz-adv-x="678" 
d="M391 639l7 152l-5 6v208v24q0 41 -22.5 60.5t-85.5 19.5q-59 0 -115 -14.5t-106 -34.5l20 179q45 21 107.5 36.5t137.5 15.5q85 0 142 -20t91 -57.5t48.5 -88t14.5 -112.5v-374h-234zM215 624q-90 0 -136.5 48.5t-46.5 138.5v17q0 95 57 140t181 63l138 20l14 -134
l-95 -16q-35 -6 -49 -18.5t-14 -37.5v-3q0 -23 12 -37.5t42 -14.5q31 0 50 15t26 35l32 -78h-36q-12 -60 -51.5 -99t-123.5 -39z" />
    <glyph glyph-name="guillemotleft" unicode="&#xab;" horiz-adv-x="1061" 
d="M801 489l255 -415h-325l-244 396v51l244 384h325zM342 489l255 -415h-325l-244 396v51l244 384h325z" />
    <glyph glyph-name="logicalnot" unicode="&#xac;" horiz-adv-x="1023" 
d="M944 184h-297v472h297v-472zM84 478v280h860v-280h-860z" />
    <glyph glyph-name="uni00AD" unicode="&#xad;" horiz-adv-x="735" 
d="M79 368v280h577v-280h-577z" />
    <glyph glyph-name="registered" unicode="&#xae;" horiz-adv-x="848" 
d="M424 501q-187 0 -288.5 96.5t-101.5 267.5v69q0 171 101.5 268t288.5 97t288.5 -97t101.5 -268v-69q0 -171 -101.5 -267.5t-288.5 -96.5zM424 615q128 0 191.5 63t63.5 182v81q0 119 -63.5 181t-191.5 62t-191.5 -62t-63.5 -181v-81q0 -119 63.5 -182t191.5 -63zM477 723
l-6 57q-3 30 -14 41t-38 12l-66 1v90h77q23 0 33 10t10 29v7q0 20 -10 29.5t-33 9.5h-77v94h96q75 0 110 -28t35 -80v-5q0 -40 -22 -62.5t-67 -24.5v-17l-17 15q54 -5 75 -28t28 -73l11 -77h-125zM271 723v380h119v-211l1 -38v-131h-120z" />
    <glyph glyph-name="macron" unicode="&#xaf;" horiz-adv-x="837" 
d="M90 1094v209h657v-209h-657z" />
    <glyph glyph-name="degree" unicode="&#xb0;" horiz-adv-x="687" 
d="M344 725q-144 0 -221 76t-77 210v15q0 134 77 210t221 76t220.5 -76t76.5 -210v-15q0 -134 -76.5 -210t-220.5 -76zM344 901q43 0 65.5 28t22.5 80v20q0 51 -22.5 79t-65.5 28t-65.5 -28t-22.5 -79v-20q0 -52 22.5 -80t65.5 -28z" />
    <glyph glyph-name="plusminus" unicode="&#xb1;" horiz-adv-x="1039" 
d="M90 53v278h859v-278h-859zM668 415h-297v708h297v-708zM90 629v280h859v-280h-859z" />
    <glyph glyph-name="uni00B2" unicode="&#xb2;" horiz-adv-x="607" 
d="M27 726v193l183 129q36 26 63.5 45t43.5 37.5t16 40.5v2q0 26 -21 41.5t-80 15.5q-52 0 -107 -13.5t-94 -28.5l21 188q40 20 102 34t135 14q140 0 212 -57.5t72 -155.5v-7q0 -48 -16 -86t-49.5 -71t-87.5 -68l-92 -59v-34l-111 28h362v-188h-552z" />
    <glyph glyph-name="uni00B3" unicode="&#xb3;" horiz-adv-x="627" 
d="M274 706q-70 0 -130 9.5t-98 22.5l-20 186q44 -13 97.5 -22.5t111.5 -9.5q67 0 90 12t23 33v3q0 10 -4 17.5t-13 12.5t-24.5 8t-39.5 4l-149 4v162l140 4q49 2 69.5 11.5t20.5 31.5v2q0 21 -22.5 31t-77.5 10q-65 0 -122 -10.5t-95 -20.5l20 178q45 17 106 28t133 11
q153 0 229.5 -47t76.5 -136v-9q0 -61 -35 -100t-112 -49v-28l-17 23q92 -10 130 -51.5t38 -109.5v-10q0 -62 -35.5 -107.5t-108 -69.5t-182.5 -24z" />
    <glyph glyph-name="acute" unicode="&#xb4;" horiz-adv-x="729" 
d="M254 1376h362v-4l-244 -297h-287v3z" />
    <glyph glyph-name="uni00B5" unicode="&#xb5;" horiz-adv-x="1163" 
d="M1071 985v-985h-334l11 262l-31 27v696h354zM446 421q0 -36 7 -64t22 -48t40.5 -30.5t62.5 -10.5q36 0 64 13t48 35t31 48l66 -152h-54q-11 -77 -31 -129t-54.5 -78t-89.5 -26q-36 0 -62.5 10t-44 28t-30.5 43h-6l22 -344v-60h-345v1329h354v-564z" />
    <glyph glyph-name="paragraph" unicode="&#xb6;" horiz-adv-x="867" 
d="M394 634q-178 0 -258 80t-80 232v20q0 152 80.5 232t258.5 80h100v-644h-101zM763 0h-351v1278h351v-1278z" />
    <glyph glyph-name="periodcentered" unicode="&#xb7;" horiz-adv-x="480" 
d="M239 360q-88 0 -131 43t-43 116v7q0 74 43 118t131 44q89 0 132.5 -44t43.5 -118v-7q0 -73 -43.5 -116t-132.5 -43z" />
    <glyph glyph-name="cedilla" unicode="&#xb8;" horiz-adv-x="653" 
d="M440 37l-27 -174l-133 68q24 2 47 2.5t46 0.5q113 0 165 -39.5t52 -113.5v-6q0 -90 -66 -132.5t-195 -42.5q-46 0 -87.5 5t-74.5 12l-29 168q30 -6 63 -9.5t62 -3.5q50 0 72.5 6t22.5 24v2q0 19 -30 27.5t-124 11.5h-2h-2l25 194h215z" />
    <glyph glyph-name="uni00B9" unicode="&#xb9;" horiz-adv-x="453" 
d="M172 726v452h-10l-144 -61l8 213l178 75h196v-679h-228z" />
    <glyph glyph-name="ordmasculine" unicode="&#xba;" horiz-adv-x="712" 
d="M355 622q-156 0 -237.5 79.5t-81.5 228.5v56q0 149 81.5 228.5t237.5 79.5q158 0 239.5 -80t81.5 -228v-56q0 -149 -81.5 -228.5t-239.5 -79.5zM356 814q40 0 59 26t19 74v89q0 47 -19 73t-59 26t-59 -26t-19 -73v-89q0 -48 19 -74t59 -26z" />
    <glyph glyph-name="guillemotright" unicode="&#xbb;" horiz-adv-x="1061" 
d="M464 74l255 415l-255 416h325l244 -384v-51l-244 -396h-325zM5 74l255 415l-255 416h325l244 -384v-51l-244 -396h-325z" />
    <glyph glyph-name="onequarter" unicode="&#xbc;" horiz-adv-x="1474" 
d="M172 599v452h-10l-144 -61l8 213l178 75h196v-679h-228zM78 0l901 1278h270l-898 -1278h-273zM1167 0v344l6 180h-12l-136 -244v-69l-98 62h531v-178h-658v189l235 395h347v-679h-215z" />
    <glyph glyph-name="onehalf" unicode="&#xbd;" horiz-adv-x="1481" 
d="M172 599v452h-10l-144 -61l8 213l178 75h196v-679h-228zM78 0l901 1278h270l-898 -1278h-273zM901 0v193l183 129q36 26 63.5 45t43.5 37.5t16 40.5v2q0 26 -21 41.5t-80 15.5q-52 0 -107 -13.5t-94 -28.5l21 188q40 20 102 34t135 14q140 0 212 -57.5t72 -155.5v-7
q0 -48 -16 -86t-49.5 -71t-87.5 -68l-92 -59v-34l-111 28h362v-188h-552z" />
    <glyph glyph-name="threequarters" unicode="&#xbe;" horiz-adv-x="1648" 
d="M274 579q-70 0 -130 9.5t-98 22.5l-20 186q44 -13 97.5 -22.5t111.5 -9.5q67 0 90 12t23 33v3q0 10 -4 17.5t-13 12.5t-24.5 8t-39.5 4l-149 4v162l140 4q49 2 69.5 11.5t20.5 31.5v2q0 21 -22.5 31t-77.5 10q-65 0 -122 -10.5t-95 -20.5l20 178q45 17 106 28t133 11
q153 0 229.5 -47t76.5 -136v-9q0 -61 -35 -100t-112 -49v-28l-17 23q92 -10 130 -51.5t38 -109.5v-10q0 -62 -35.5 -107.5t-108 -69.5t-182.5 -24zM252 0l901 1278h270l-898 -1278h-273zM1341 0v344l6 180h-12l-136 -244v-69l-98 62h531v-178h-658v189l235 395h347v-679
h-215z" />
    <glyph glyph-name="questiondown" unicode="&#xbf;" horiz-adv-x="934" 
d="M707 571v-300l-101 -18q-76 -13 -118 -34t-58.5 -49.5t-16.5 -65.5v-8q0 -59 40 -88.5t136 -29.5q80 0 160 16.5t160 44.5l-38 -296q-39 -16 -94.5 -31t-122 -24.5t-140.5 -9.5q-232 0 -348 100t-116 290v24q0 140 57 231t169.5 144.5t279.5 79.5zM574 1014q95 0 140 -49
t45 -135v-11q0 -85 -45 -134.5t-140 -49.5q-94 0 -140 49.5t-46 134.5v11q0 86 46 135t140 49z" />
    <glyph glyph-name="Agrave" unicode="&#xc0;" horiz-adv-x="1275" 
d="M15 0l355 1278h539l351 -1278h-365l-244 1041h-23l-248 -1041h-365zM350 277v276h573v-276h-573zM600 1654l214 -278v-3h-306l-281 278v3h373z" />
    <glyph glyph-name="Aacute" unicode="&#xc1;" horiz-adv-x="1275" 
d="M15 0l355 1278h539l351 -1278h-365l-244 1041h-23l-248 -1041h-365zM350 277v276h573v-276h-573zM675 1654h373v-3l-281 -278h-306v3z" />
    <glyph glyph-name="Acircumflex" unicode="&#xc2;" horiz-adv-x="1275" 
d="M15 0l355 1278h539l351 -1278h-365l-244 1041h-23l-248 -1041h-365zM350 277v276h573v-276h-573zM462 1654h353l200 -276v-5h-268l-104 117h-9l-104 -117h-268v5z" />
    <glyph glyph-name="Atilde" unicode="&#xc3;" horiz-adv-x="1275" 
d="M15 0l355 1278h539l351 -1278h-365l-244 1041h-23l-248 -1041h-365zM350 277v276h573v-276h-573zM774 1380q-36 0 -69.5 7.5t-63.5 17t-57 17t-50 7.5q-29 0 -40 -15t-12 -46v-1h-191v39q0 102 47.5 169t165.5 67q38 0 71.5 -7.5t62.5 -17t55 -17t49 -7.5q29 0 39.5 15
t11.5 46v1h192v-34q0 -106 -47 -173.5t-164 -67.5z" />
    <glyph glyph-name="Adieresis" unicode="&#xc4;" horiz-adv-x="1275" 
d="M15 0l355 1278h539l351 -1278h-365l-244 1041h-23l-248 -1041h-365zM350 277v276h573v-276h-573zM455 1361q-78 0 -116.5 40.5t-38.5 113.5v8q0 74 38.5 115t116.5 41q80 0 118.5 -41t38.5 -115v-8q0 -73 -38.5 -113.5t-118.5 -40.5zM820 1361q-79 0 -117 40.5t-38 113.5
v8q0 74 38 115t117 41q78 0 117 -41t39 -115v-8q0 -73 -39 -113.5t-117 -40.5z" />
    <glyph glyph-name="Aring" unicode="&#xc5;" horiz-adv-x="1275" 
d="M15 0l355 1278h539l351 -1278h-365l-244 1041h-23l-248 -1041h-365zM350 277v276h573v-276h-573zM399 1522v7q0 82 56 134.5t183 52.5t183 -52.5t56 -134.5v-7q0 -81 -56 -134t-183 -53t-183 53t-56 134zM563 1524q0 -28 19 -44t56 -16q36 0 55 16t19 44v4q0 28 -19 43
t-55 15q-37 0 -56 -15t-19 -43v-4z" />
    <glyph glyph-name="AE" unicode="&#xc6;" horiz-adv-x="1877" 
d="M8 0l578 1278h357l-2 -237h-104l-444 -1041h-385zM343 277v276h573v-276h-573zM978 0v301h823v-301h-823zM873 0v1278h353v-1278h-353zM1081 504v287h695v-287h-695zM978 980v298h814v-298h-814z" />
    <glyph glyph-name="Ccedilla" unicode="&#xc7;" horiz-adv-x="1052" 
d="M631 -29q-286 0 -424.5 148t-138.5 423v202q0 270 139.5 416.5t419.5 146.5q72 0 132.5 -10t110.5 -27.5t89 -40.5l26 -305q-58 28 -125.5 48.5t-154.5 20.5q-139 0 -203 -70t-64 -195v-171q0 -124 65 -194.5t216 -70.5q84 0 151 21.5t125 51.5l-26 -311
q-38 -23 -89.5 -42t-113.5 -30t-135 -11zM679 32l-27 -174l-133 68q24 2 47 2.5t46 0.5q113 0 165 -39.5t52 -113.5v-6q0 -90 -66 -132.5t-195 -42.5q-46 0 -87.5 5t-74.5 12l-29 168q30 -6 63 -9.5t62 -3.5q50 0 72.5 6t22.5 24v2q0 19 -30 27.5t-124 11.5h-2h-2l25 194
h215z" />
    <glyph glyph-name="Egrave" unicode="&#xc8;" horiz-adv-x="1108" 
d="M104 0v1278h353v-1278h-353zM209 0v301h823v-301h-823zM312 504v287h695v-287h-695zM209 980v298h814v-298h-814zM532 1654l214 -278v-3h-306l-281 278v3h373z" />
    <glyph glyph-name="Eacute" unicode="&#xc9;" horiz-adv-x="1108" 
d="M104 0v1278h353v-1278h-353zM209 0v301h823v-301h-823zM312 504v287h695v-287h-695zM209 980v298h814v-298h-814zM607 1654h373v-3l-281 -278h-306v3z" />
    <glyph glyph-name="Ecircumflex" unicode="&#xca;" horiz-adv-x="1108" 
d="M104 0v1278h353v-1278h-353zM209 0v301h823v-301h-823zM312 504v287h695v-287h-695zM209 980v298h814v-298h-814zM394 1654h353l200 -276v-5h-268l-104 117h-9l-104 -117h-268v5z" />
    <glyph glyph-name="Edieresis" unicode="&#xcb;" horiz-adv-x="1108" 
d="M104 0v1278h353v-1278h-353zM209 0v301h823v-301h-823zM312 504v287h695v-287h-695zM209 980v298h814v-298h-814zM387 1361q-78 0 -116.5 40.5t-38.5 113.5v8q0 74 38.5 115t116.5 41q80 0 118.5 -41t38.5 -115v-8q0 -73 -38.5 -113.5t-118.5 -40.5zM752 1361
q-79 0 -117 40.5t-38 113.5v8q0 74 38 115t117 41q78 0 117 -41t39 -115v-8q0 -73 -39 -113.5t-117 -40.5z" />
    <glyph glyph-name="Igrave" unicode="&#xcc;" horiz-adv-x="571" 
d="M467 0h-363v1278h363v-1278zM249 1654l214 -278v-3h-306l-281 278v3h373z" />
    <glyph glyph-name="Iacute" unicode="&#xcd;" horiz-adv-x="571" 
d="M467 0h-363v1278h363v-1278zM324 1654h373v-3l-281 -278h-306v3z" />
    <glyph glyph-name="Icircumflex" unicode="&#xce;" horiz-adv-x="571" 
d="M467 0h-363v1278h363v-1278zM111 1654h353l200 -276v-5h-268l-104 117h-9l-104 -117h-268v5z" />
    <glyph glyph-name="Idieresis" unicode="&#xcf;" horiz-adv-x="571" 
d="M467 0h-363v1278h363v-1278zM104 1361q-78 0 -116.5 40.5t-38.5 113.5v8q0 74 38.5 115t116.5 41q80 0 118.5 -41t38.5 -115v-8q0 -73 -38.5 -113.5t-118.5 -40.5zM469 1361q-79 0 -117 40.5t-38 113.5v8q0 74 38 115t117 41q78 0 117 -41t39 -115v-8q0 -73 -39 -113.5
t-117 -40.5z" />
    <glyph glyph-name="Eth" unicode="&#xd0;" horiz-adv-x="1265" 
d="M2 552v190l663 -1v-190zM359 0v302h269q104 0 155 56t51 160v246q0 104 -51 159.5t-155 55.5h-269v299h282q281 0 419.5 -132.5t138.5 -381.5v-247q0 -250 -138 -383.5t-420 -133.5h-282zM104 0v1278h357v-1278h-357z" />
    <glyph glyph-name="Ntilde" unicode="&#xd1;" horiz-adv-x="1329" 
d="M593 1279l292 -884h14l-16 534v350h342v-1279h-474l-306 910h-14l16 -542v-368h-343v1279h489zM806 1380q-36 0 -69.5 7.5t-63.5 17t-57 17t-50 7.5q-29 0 -40 -15t-12 -46v-1h-191v39q0 102 47.5 169t165.5 67q38 0 71.5 -7.5t62.5 -17t55 -17t49 -7.5q29 0 39.5 15
t11.5 46v1h192v-34q0 -106 -47 -173.5t-164 -67.5z" />
    <glyph glyph-name="Ograve" unicode="&#xd2;" horiz-adv-x="1294" 
d="M647 -33q-291 0 -435 141.5t-144 409.5v226q0 269 145 416t434 147t434 -147t145 -416v-226q0 -268 -144 -409.5t-435 -141.5zM647 265q107 0 158.5 61.5t51.5 173.5v263q0 120 -51.5 184t-158.5 64t-158.5 -64t-51.5 -184v-263q0 -112 51.5 -173.5t158.5 -61.5z
M609 1654l214 -278v-3h-306l-281 278v3h373z" />
    <glyph glyph-name="Oacute" unicode="&#xd3;" horiz-adv-x="1294" 
d="M647 -33q-291 0 -435 141.5t-144 409.5v226q0 269 145 416t434 147t434 -147t145 -416v-226q0 -268 -144 -409.5t-435 -141.5zM647 265q107 0 158.5 61.5t51.5 173.5v263q0 120 -51.5 184t-158.5 64t-158.5 -64t-51.5 -184v-263q0 -112 51.5 -173.5t158.5 -61.5z
M684 1654h373v-3l-281 -278h-306v3z" />
    <glyph glyph-name="Ocircumflex" unicode="&#xd4;" horiz-adv-x="1294" 
d="M647 -33q-291 0 -435 141.5t-144 409.5v226q0 269 145 416t434 147t434 -147t145 -416v-226q0 -268 -144 -409.5t-435 -141.5zM647 265q107 0 158.5 61.5t51.5 173.5v263q0 120 -51.5 184t-158.5 64t-158.5 -64t-51.5 -184v-263q0 -112 51.5 -173.5t158.5 -61.5z
M471 1654h353l200 -276v-5h-268l-104 117h-9l-104 -117h-268v5z" />
    <glyph glyph-name="Otilde" unicode="&#xd5;" horiz-adv-x="1294" 
d="M647 -33q-291 0 -435 141.5t-144 409.5v226q0 269 145 416t434 147t434 -147t145 -416v-226q0 -268 -144 -409.5t-435 -141.5zM647 265q107 0 158.5 61.5t51.5 173.5v263q0 120 -51.5 184t-158.5 64t-158.5 -64t-51.5 -184v-263q0 -112 51.5 -173.5t158.5 -61.5z
M783 1380q-36 0 -69.5 7.5t-63.5 17t-57 17t-50 7.5q-29 0 -40 -15t-12 -46v-1h-191v39q0 102 47.5 169t165.5 67q38 0 71.5 -7.5t62.5 -17t55 -17t49 -7.5q29 0 39.5 15t11.5 46v1h192v-34q0 -106 -47 -173.5t-164 -67.5z" />
    <glyph glyph-name="Odieresis" unicode="&#xd6;" horiz-adv-x="1294" 
d="M647 -33q-291 0 -435 141.5t-144 409.5v226q0 269 145 416t434 147t434 -147t145 -416v-226q0 -268 -144 -409.5t-435 -141.5zM647 265q107 0 158.5 61.5t51.5 173.5v263q0 120 -51.5 184t-158.5 64t-158.5 -64t-51.5 -184v-263q0 -112 51.5 -173.5t158.5 -61.5z
M464 1361q-78 0 -116.5 40.5t-38.5 113.5v8q0 74 38.5 115t116.5 41q80 0 118.5 -41t38.5 -115v-8q0 -73 -38.5 -113.5t-118.5 -40.5zM829 1361q-79 0 -117 40.5t-38 113.5v8q0 74 38 115t117 41q78 0 117 -41t39 -115v-8q0 -73 -39 -113.5t-117 -40.5z" />
    <glyph glyph-name="multiply" unicode="&#xd7;" horiz-adv-x="971" 
d="M925 369l-200 -179l-676 666l201 179zM46 369l675 666l200 -179l-675 -666z" />
    <glyph glyph-name="Oslash" unicode="&#xd8;" horiz-adv-x="1294" 
d="M652 -35q-184 0 -314.5 66.5t-200 192t-69.5 303.5v220q0 270 145.5 416t428.5 146q184 0 314.5 -67.5t200 -193.5t69.5 -301v-220q0 -274 -145 -418t-429 -144zM90 -73l207 293l75 105l465 754l64 99l117 174h186l-196 -292l-74 -99l-468 -767l-55 -76l-135 -191h-186z
M647 260q107 0 159.5 65t52.5 187v260q0 115 -48.5 178.5t-163.5 63.5q-108 0 -160 -65t-52 -187v-260q0 -122 52 -182t160 -60z" />
    <glyph glyph-name="Ugrave" unicode="&#xd9;" horiz-adv-x="1309" 
d="M655 -33q-286 0 -423 135.5t-137 397.5v778h363v-783q0 -112 48 -168t149 -56t148.5 56t47.5 168v783h363v-778q0 -262 -136.5 -397.5t-422.5 -135.5zM617 1654l214 -278v-3h-306l-281 278v3h373z" />
    <glyph glyph-name="Uacute" unicode="&#xda;" horiz-adv-x="1309" 
d="M655 -33q-286 0 -423 135.5t-137 397.5v778h363v-783q0 -112 48 -168t149 -56t148.5 56t47.5 168v783h363v-778q0 -262 -136.5 -397.5t-422.5 -135.5zM692 1654h373v-3l-281 -278h-306v3z" />
    <glyph glyph-name="Ucircumflex" unicode="&#xdb;" horiz-adv-x="1309" 
d="M655 -33q-286 0 -423 135.5t-137 397.5v778h363v-783q0 -112 48 -168t149 -56t148.5 56t47.5 168v783h363v-778q0 -262 -136.5 -397.5t-422.5 -135.5zM479 1654h353l200 -276v-5h-268l-104 117h-9l-104 -117h-268v5z" />
    <glyph glyph-name="Udieresis" unicode="&#xdc;" horiz-adv-x="1309" 
d="M655 -33q-286 0 -423 135.5t-137 397.5v778h363v-783q0 -112 48 -168t149 -56t148.5 56t47.5 168v783h363v-778q0 -262 -136.5 -397.5t-422.5 -135.5zM472 1361q-78 0 -116.5 40.5t-38.5 113.5v8q0 74 38.5 115t116.5 41q80 0 118.5 -41t38.5 -115v-8q0 -73 -38.5 -113.5
t-118.5 -40.5zM837 1361q-79 0 -117 40.5t-38 113.5v8q0 74 38 115t117 41q78 0 117 -41t39 -115v-8q0 -73 -39 -113.5t-117 -40.5z" />
    <glyph glyph-name="Yacute" unicode="&#xdd;" horiz-adv-x="1197" 
d="M436 318l-436 960h377l138 -350l75 -208h17l75 208l137 350h377l-434 -960h-326zM421 0v640h356v-640h-356zM635 1654h373v-3l-281 -278h-306v3z" />
    <glyph glyph-name="Thorn" unicode="&#xde;" horiz-adv-x="1203" 
d="M348 176v291h282q89 0 127.5 36t38.5 115v51q0 79 -38.5 115.5t-127.5 36.5h-282v290h314q254 0 373 -110.5t119 -320.5v-74q0 -211 -119 -320.5t-371 -109.5h-316zM104 0v1278h356v-233l-2 -138v-520l2 -165v-222h-356z" />
    <glyph glyph-name="germandbls" unicode="&#xdf;" horiz-adv-x="1240" 
d="M92 973q0 127 47 211.5t150.5 126.5t272.5 42q132 0 234.5 -32.5t161.5 -100.5t59 -175q0 -57 -18 -98t-44 -71.5t-52 -54.5t-44 -46.5t-18 -47.5v-2q0 -33 28.5 -53t120.5 -62q63 -28 109.5 -62.5t72 -89.5t25.5 -147v-9q0 -108 -51.5 -179t-143.5 -105.5t-215 -34.5
q-70 0 -134 9.5t-114 25.5l-29 282q50 -16 104 -28.5t120 -12.5q59 0 87.5 17.5t28.5 47.5v2q0 21 -11.5 35.5t-37.5 28.5t-71 33q-82 35 -132 67t-73 75t-23 111v3q0 53 17 93t42.5 70.5t51 56t42.5 49.5t17 51q0 26 -12.5 43.5t-37 26.5t-61.5 9q-45 0 -71.5 -14.5
t-37.5 -41t-11 -63.5v-959h-349v973z" />
    <glyph glyph-name="agrave" unicode="&#xe0;" horiz-adv-x="1077" 
d="M650 0l10 252l-7 9v306l-3 36q0 69 -44.5 101.5t-151.5 32.5q-97 0 -186.5 -23t-171.5 -53l29 269q50 22 111 40.5t133 29.5t153 11q137 0 228.5 -31.5t145.5 -89t77.5 -136.5t23.5 -174v-580h-347zM345 -24q-148 0 -223.5 75.5t-75.5 214.5v25q0 148 90.5 218t289.5 95
l251 32l21 -202l-213 -31q-58 -8 -80.5 -27.5t-22.5 -57.5v-4q0 -35 23.5 -57t78.5 -22q46 0 79.5 12.5t56 33.5t35.5 46l50 -120h-57q-15 -67 -47.5 -119t-93.5 -82t-162 -30zM525 1376l169 -298v-3h-287l-244 297v4h362z" />
    <glyph glyph-name="aacute" unicode="&#xe1;" horiz-adv-x="1077" 
d="M650 0l10 252l-7 9v306l-3 36q0 69 -44.5 101.5t-151.5 32.5q-97 0 -186.5 -23t-171.5 -53l29 269q50 22 111 40.5t133 29.5t153 11q137 0 228.5 -31.5t145.5 -89t77.5 -136.5t23.5 -174v-580h-347zM345 -24q-148 0 -223.5 75.5t-75.5 214.5v25q0 148 90.5 218t289.5 95
l251 32l21 -202l-213 -31q-58 -8 -80.5 -27.5t-22.5 -57.5v-4q0 -35 23.5 -57t78.5 -22q46 0 79.5 12.5t56 33.5t35.5 46l50 -120h-57q-15 -67 -47.5 -119t-93.5 -82t-162 -30zM548 1376h362v-4l-244 -297h-287v3z" />
    <glyph glyph-name="acircumflex" unicode="&#xe2;" horiz-adv-x="1077" 
d="M650 0l10 252l-7 9v306l-3 36q0 69 -44.5 101.5t-151.5 32.5q-97 0 -186.5 -23t-171.5 -53l29 269q50 22 111 40.5t133 29.5t153 11q137 0 228.5 -31.5t145.5 -89t77.5 -136.5t23.5 -174v-580h-347zM345 -24q-148 0 -223.5 75.5t-75.5 214.5v25q0 148 90.5 218t289.5 95
l251 32l21 -202l-213 -31q-58 -8 -80.5 -27.5t-22.5 -57.5v-4q0 -35 23.5 -57t78.5 -22q46 0 79.5 12.5t56 33.5t35.5 46l50 -120h-57q-15 -67 -47.5 -119t-93.5 -82t-162 -30zM354 1376h365l173 -297v-4h-257l-94 134h-9l-94 -134h-257v4z" />
    <glyph glyph-name="atilde" unicode="&#xe3;" horiz-adv-x="1077" 
d="M650 0l10 252l-7 9v306l-3 36q0 69 -44.5 101.5t-151.5 32.5q-97 0 -186.5 -23t-171.5 -53l29 269q50 22 111 40.5t133 29.5t153 11q137 0 228.5 -31.5t145.5 -89t77.5 -136.5t23.5 -174v-580h-347zM345 -24q-148 0 -223.5 75.5t-75.5 214.5v25q0 148 90.5 218t289.5 95
l251 32l21 -202l-213 -31q-58 -8 -80.5 -27.5t-22.5 -57.5v-4q0 -35 23.5 -57t78.5 -22q46 0 79.5 12.5t56 33.5t35.5 46l50 -120h-57q-15 -67 -47.5 -119t-93.5 -82t-162 -30zM673 1082q-36 0 -69.5 7.5t-63.5 18t-57 18t-50 7.5q-29 0 -40 -15.5t-12 -47.5v-1h-191v40
q0 107 46.5 176.5t164.5 69.5q40 0 74 -7.5t63 -18t55 -18t49 -7.5q28 0 38.5 16t11.5 47v1h192v-43q0 -107 -47 -175t-164 -68z" />
    <glyph glyph-name="adieresis" unicode="&#xe4;" horiz-adv-x="1077" 
d="M650 0l10 252l-7 9v306l-3 36q0 69 -44.5 101.5t-151.5 32.5q-97 0 -186.5 -23t-171.5 -53l29 269q50 22 111 40.5t133 29.5t153 11q137 0 228.5 -31.5t145.5 -89t77.5 -136.5t23.5 -174v-580h-347zM345 -24q-148 0 -223.5 75.5t-75.5 214.5v25q0 148 90.5 218t289.5 95
l251 32l21 -202l-213 -31q-58 -8 -80.5 -27.5t-22.5 -57.5v-4q0 -35 23.5 -57t78.5 -22q46 0 79.5 12.5t56 33.5t35.5 46l50 -120h-57q-15 -67 -47.5 -119t-93.5 -82t-162 -30zM354 1062q-78 0 -116.5 40.5t-38.5 113.5v8q0 74 38.5 115t116.5 41q80 0 118.5 -41t38.5 -115
v-8q0 -73 -38.5 -113.5t-118.5 -40.5zM719 1062q-79 0 -117 40.5t-38 113.5v8q0 74 38 115t117 41q78 0 117 -41t39 -115v-8q0 -73 -39 -113.5t-117 -40.5z" />
    <glyph glyph-name="aring" unicode="&#xe5;" horiz-adv-x="1077" 
d="M650 0l10 252l-7 9v306l-3 36q0 69 -44.5 101.5t-151.5 32.5q-97 0 -186.5 -23t-171.5 -53l29 269q50 22 111 40.5t133 29.5t153 11q137 0 228.5 -31.5t145.5 -89t77.5 -136.5t23.5 -174v-580h-347zM345 -24q-148 0 -223.5 75.5t-75.5 214.5v25q0 148 90.5 218t289.5 95
l251 32l21 -202l-213 -31q-58 -8 -80.5 -27.5t-22.5 -57.5v-4q0 -35 23.5 -57t78.5 -22q46 0 79.5 12.5t56 33.5t35.5 46l50 -120h-57q-15 -67 -47.5 -119t-93.5 -82t-162 -30zM298 1245v7q0 82 56 134.5t183 52.5t183 -52.5t56 -134.5v-7q0 -81 -56 -134t-183 -53t-183 53
t-56 134zM462 1247q0 -28 19 -44t56 -16q36 0 55 16t19 44v4q0 28 -19 43t-55 15q-37 0 -56 -15t-19 -43v-4z" />
    <glyph glyph-name="ae" unicode="&#xe6;" horiz-adv-x="1676" 
d="M1217 -27q-223 0 -351 69t-172 187l-19 60q-13 50 -16 95.5t-3 86.5l-6 132q0 69 -44.5 101.5t-151.5 32.5q-97 0 -186.5 -23t-171.5 -53l29 270q45 22 100 40.5t119 29.5t136 11q134 0 212.5 -50t116.5 -127h12q51 89 139 135.5t216 46.5q146 0 244.5 -52.5t148.5 -151
t50 -238.5v-31q0 -40 -3.5 -81.5t-10.5 -76.5h-317q4 61 5.5 115t1.5 97q0 53 -16 88.5t-50 54t-88 18.5q-81 0 -117.5 -46t-36.5 -118v-86l2 -36v-65q0 -32 13 -61t44.5 -52t87.5 -36t142 -13t168.5 14.5t159.5 40.5l-28 -257q-64 -34 -155.5 -52.5t-203.5 -18.5zM359 -24
q-160 0 -236.5 76t-76.5 214v25q0 148 90.5 218t289.5 95l251 32l21 -202l-213 -31q-58 -8 -80.5 -27.5t-22.5 -57.5v-4q0 -35 23.5 -57t78.5 -22q52 0 89 13.5t62.5 36t39.5 48.5l99 -167h-59q-31 -52 -73 -95t-109 -69t-174 -26zM840 386v208h694v-208h-694z" />
    <glyph glyph-name="ccedilla" unicode="&#xe7;" horiz-adv-x="903" 
d="M531 -27q-241 0 -357 126t-116 355v85q0 222 116 348t356 126q59 0 112 -7.5t98 -21t80 -30.5l28 -289q-49 25 -106 41.5t-127 16.5q-108 0 -154.5 -49t-46.5 -141v-65q0 -96 51 -147.5t160 -51.5q68 0 123.5 15t109.5 40l-27 -290q-55 -27 -133 -44t-167 -17zM607 37
l-27 -174l-133 68q24 2 47 2.5t46 0.5q113 0 165 -39.5t52 -113.5v-6q0 -90 -66 -132.5t-195 -42.5q-46 0 -87.5 5t-74.5 12l-29 168q30 -6 63 -9.5t62 -3.5q50 0 72.5 6t22.5 24v2q0 19 -30 27.5t-124 11.5h-2h-2l25 194h215z" />
    <glyph glyph-name="egrave" unicode="&#xe8;" horiz-adv-x="1081" 
d="M606 -26q-283 0 -415.5 123t-132.5 360v77q0 235 124.5 358t363.5 123q159 0 265 -52.5t159.5 -151t53.5 -237.5v-31q0 -40 -3.5 -81.5t-10.5 -76.5h-317q4 61 5.5 115t1.5 97q0 52 -16 87.5t-50 54t-88 18.5q-81 0 -117.5 -42t-36.5 -119v-89l2 -38v-62q0 -31 11 -60
t40.5 -51.5t84 -35.5t141.5 -13q89 0 174 14.5t164 40.5l-28 -257q-69 -34 -164.5 -52.5t-210.5 -18.5zM245 385v208h694v-208h-694zM542 1376l169 -298v-3h-287l-244 297v4h362z" />
    <glyph glyph-name="eacute" unicode="&#xe9;" horiz-adv-x="1081" 
d="M606 -26q-283 0 -415.5 123t-132.5 360v77q0 235 124.5 358t363.5 123q159 0 265 -52.5t159.5 -151t53.5 -237.5v-31q0 -40 -3.5 -81.5t-10.5 -76.5h-317q4 61 5.5 115t1.5 97q0 52 -16 87.5t-50 54t-88 18.5q-81 0 -117.5 -42t-36.5 -119v-89l2 -38v-62q0 -31 11 -60
t40.5 -51.5t84 -35.5t141.5 -13q89 0 174 14.5t164 40.5l-28 -257q-69 -34 -164.5 -52.5t-210.5 -18.5zM245 385v208h694v-208h-694zM565 1376h362v-4l-244 -297h-287v3z" />
    <glyph glyph-name="ecircumflex" unicode="&#xea;" horiz-adv-x="1081" 
d="M606 -26q-283 0 -415.5 123t-132.5 360v77q0 235 124.5 358t363.5 123q159 0 265 -52.5t159.5 -151t53.5 -237.5v-31q0 -40 -3.5 -81.5t-10.5 -76.5h-317q4 61 5.5 115t1.5 97q0 52 -16 87.5t-50 54t-88 18.5q-81 0 -117.5 -42t-36.5 -119v-89l2 -38v-62q0 -31 11 -60
t40.5 -51.5t84 -35.5t141.5 -13q89 0 174 14.5t164 40.5l-28 -257q-69 -34 -164.5 -52.5t-210.5 -18.5zM245 385v208h694v-208h-694zM371 1376h365l173 -297v-4h-257l-94 134h-9l-94 -134h-257v4z" />
    <glyph glyph-name="edieresis" unicode="&#xeb;" horiz-adv-x="1081" 
d="M606 -26q-283 0 -415.5 123t-132.5 360v77q0 235 124.5 358t363.5 123q159 0 265 -52.5t159.5 -151t53.5 -237.5v-31q0 -40 -3.5 -81.5t-10.5 -76.5h-317q4 61 5.5 115t1.5 97q0 52 -16 87.5t-50 54t-88 18.5q-81 0 -117.5 -42t-36.5 -119v-89l2 -38v-62q0 -31 11 -60
t40.5 -51.5t84 -35.5t141.5 -13q89 0 174 14.5t164 40.5l-28 -257q-69 -34 -164.5 -52.5t-210.5 -18.5zM245 385v208h694v-208h-694zM371 1062q-78 0 -116.5 40.5t-38.5 113.5v8q0 74 38.5 115t116.5 41q80 0 118.5 -41t38.5 -115v-8q0 -73 -38.5 -113.5t-118.5 -40.5z
M736 1062q-79 0 -117 40.5t-38 113.5v8q0 74 38 115t117 41q78 0 117 -41t39 -115v-8q0 -73 -39 -113.5t-117 -40.5z" />
    <glyph glyph-name="igrave" unicode="&#xec;" horiz-adv-x="538" 
d="M92 0v985h354v-985h-354zM315 1376l91 -298v-3h-275l-160 297v4h344z" />
    <glyph glyph-name="iacute" unicode="&#xed;" horiz-adv-x="538" 
d="M92 0v985h354v-985h-354zM222 1376h344v-4l-160 -297h-275v3z" />
    <glyph glyph-name="icircumflex" unicode="&#xee;" horiz-adv-x="538" 
d="M92 0v985h354v-985h-354zM97 1376h343l146 -297v-4h-244l-70 131h-7l-70 -131h-244v4z" />
    <glyph glyph-name="idieresis" unicode="&#xef;" horiz-adv-x="538" 
d="M92 0v985h354v-985h-354zM106 1062q-73 0 -109.5 40.5t-36.5 113.5v9q0 73 36.5 114t109.5 41q74 0 110.5 -41t36.5 -114v-9q0 -73 -36.5 -113.5t-110.5 -40.5zM432 1062q-74 0 -110 40.5t-36 113.5v9q0 73 36.5 114t109.5 41q72 0 109 -41t37 -114v-9q0 -73 -37 -113.5
t-109 -40.5z" />
    <glyph glyph-name="eth" unicode="&#xf0;" horiz-adv-x="1112" 
d="M556 -30q-244 0 -371 119.5t-127 347.5v33q0 206 98 317.5t264 111.5q71 0 120 -21t80.5 -56.5t49.5 -79.5h109l-80 -278q0 43 -9.5 75.5t-28 54.5t-46 33.5t-63.5 11.5q-69 0 -105 -44.5t-36 -130.5v-41q0 -87 37 -131t107 -44q71 0 107.5 44t36.5 131v73.5v89.5
q-2 26 -5 53t-5 53q-4 69 -38.5 133.5t-96.5 135t-150 157.5t-199 201v0h415q105 -103 186 -194t136 -180.5t83.5 -186t28.5 -210.5v-101q0 -233 -126.5 -355t-371.5 -122zM185 958v163l820 152v-161z" />
    <glyph glyph-name="ntilde" unicode="&#xf1;" horiz-adv-x="1156" 
d="M717 0v566q0 47 -11.5 81t-39.5 52t-76 18q-37 0 -66 -13t-49.5 -34.5t-32.5 -48.5l-54 146h57q15 69 50.5 123.5t99 86.5t162.5 32q108 0 177.5 -42t103 -126.5t33.5 -213.5v-627h-354zM92 0v985h352l-11 -253l13 -36v-696h-354zM715 1082q-36 0 -69.5 7.5t-63.5 18
t-57 18t-50 7.5q-29 0 -40 -15.5t-12 -47.5v-1h-191v40q0 107 46.5 176.5t164.5 69.5q40 0 74 -7.5t63 -18t55 -18t49 -7.5q28 0 38.5 16t11.5 47v1h192v-43q0 -107 -47 -175t-164 -68z" />
    <glyph glyph-name="ograve" unicode="&#xf2;" horiz-adv-x="1112" 
d="M556 -30q-247 0 -372.5 120.5t-125.5 334.5v125q0 219 126 342t372 123q247 0 372.5 -123t125.5 -342v-125q0 -214 -125 -334.5t-373 -120.5zM556 248q71 0 107.5 42.5t36.5 121.5v152q0 85 -36.5 129t-107.5 44q-70 0 -107 -44t-37 -129v-152q0 -79 37 -121.5t107 -42.5
zM545 1376l169 -298v-3h-287l-244 297v4h362z" />
    <glyph glyph-name="oacute" unicode="&#xf3;" horiz-adv-x="1112" 
d="M556 -30q-247 0 -372.5 120.5t-125.5 334.5v125q0 219 126 342t372 123q247 0 372.5 -123t125.5 -342v-125q0 -214 -125 -334.5t-373 -120.5zM556 248q71 0 107.5 42.5t36.5 121.5v152q0 85 -36.5 129t-107.5 44q-70 0 -107 -44t-37 -129v-152q0 -79 37 -121.5t107 -42.5
zM568 1376h362v-4l-244 -297h-287v3z" />
    <glyph glyph-name="ocircumflex" unicode="&#xf4;" horiz-adv-x="1112" 
d="M556 -30q-247 0 -372.5 120.5t-125.5 334.5v125q0 219 126 342t372 123q247 0 372.5 -123t125.5 -342v-125q0 -214 -125 -334.5t-373 -120.5zM556 248q71 0 107.5 42.5t36.5 121.5v152q0 85 -36.5 129t-107.5 44q-70 0 -107 -44t-37 -129v-152q0 -79 37 -121.5t107 -42.5
zM374 1376h365l173 -297v-4h-257l-94 134h-9l-94 -134h-257v4z" />
    <glyph glyph-name="otilde" unicode="&#xf5;" horiz-adv-x="1112" 
d="M556 -30q-247 0 -372.5 120.5t-125.5 334.5v125q0 219 126 342t372 123q247 0 372.5 -123t125.5 -342v-125q0 -214 -125 -334.5t-373 -120.5zM556 248q71 0 107.5 42.5t36.5 121.5v152q0 85 -36.5 129t-107.5 44q-70 0 -107 -44t-37 -129v-152q0 -79 37 -121.5t107 -42.5
zM693 1082q-36 0 -69.5 7.5t-63.5 18t-57 18t-50 7.5q-29 0 -40 -15.5t-12 -47.5v-1h-191v40q0 107 46.5 176.5t164.5 69.5q40 0 74 -7.5t63 -18t55 -18t49 -7.5q28 0 38.5 16t11.5 47v1h192v-43q0 -107 -47 -175t-164 -68z" />
    <glyph glyph-name="odieresis" unicode="&#xf6;" horiz-adv-x="1112" 
d="M556 -30q-247 0 -372.5 120.5t-125.5 334.5v125q0 219 126 342t372 123q247 0 372.5 -123t125.5 -342v-125q0 -214 -125 -334.5t-373 -120.5zM556 248q71 0 107.5 42.5t36.5 121.5v152q0 85 -36.5 129t-107.5 44q-70 0 -107 -44t-37 -129v-152q0 -79 37 -121.5t107 -42.5
zM374 1062q-78 0 -116.5 40.5t-38.5 113.5v8q0 74 38.5 115t116.5 41q80 0 118.5 -41t38.5 -115v-8q0 -73 -38.5 -113.5t-118.5 -40.5zM739 1062q-79 0 -117 40.5t-38 113.5v8q0 74 38 115t117 41q78 0 117 -41t39 -115v-8q0 -73 -39 -113.5t-117 -40.5z" />
    <glyph glyph-name="divide" unicode="&#xf7;" horiz-adv-x="1028" 
d="M84 478v280h860v-280h-860zM510 117q-78 0 -114.5 40t-36.5 110v8q0 70 36.5 110.5t114.5 40.5q77 0 114 -40.5t37 -110.5v-8q0 -70 -37 -110t-114 -40zM510 810q-78 0 -114.5 40t-36.5 110v8q0 70 36.5 110.5t114.5 40.5q77 0 114 -40.5t37 -110.5v-8q0 -70 -37 -110
t-114 -40z" />
    <glyph glyph-name="oslash" unicode="&#xf8;" horiz-adv-x="1116" 
d="M558 -28q-153 0 -265 57.5t-173.5 160t-61.5 237.5v113q0 233 128 354t372 121q154 0 266 -57.5t173 -160t61 -237.5v-113q0 -232 -127.5 -353.5t-372.5 -121.5zM107 -73l164 236l78 103l348 550l57 97l103 145h152l-164 -238l-69 -96l-348 -550l-58 -90l-111 -157h-152z
M558 246q80 0 120 46t40 134v155q0 73 -37 116.5t-123 43.5q-79 0 -119.5 -46t-40.5 -134v-155q0 -73 37.5 -116.5t122.5 -43.5z" />
    <glyph glyph-name="ugrave" unicode="&#xf9;" horiz-adv-x="1156" 
d="M439 985v-566q0 -47 11.5 -81t39.5 -52t76 -18q38 0 66.5 13t49 35t32.5 48l54 -146h-57q-15 -68 -50.5 -123t-98.5 -87t-163 -32q-107 0 -177 42t-103.5 126.5t-33.5 213.5v627h354zM1064 985v-985h-352l11 253l-13 36v696h354zM567 1376l169 -298v-3h-287l-244 297v4
h362z" />
    <glyph glyph-name="uacute" unicode="&#xfa;" horiz-adv-x="1156" 
d="M439 985v-566q0 -47 11.5 -81t39.5 -52t76 -18q38 0 66.5 13t49 35t32.5 48l54 -146h-57q-15 -68 -50.5 -123t-98.5 -87t-163 -32q-107 0 -177 42t-103.5 126.5t-33.5 213.5v627h354zM1064 985v-985h-352l11 253l-13 36v696h354zM590 1376h362v-4l-244 -297h-287v3z" />
    <glyph glyph-name="ucircumflex" unicode="&#xfb;" horiz-adv-x="1156" 
d="M439 985v-566q0 -47 11.5 -81t39.5 -52t76 -18q38 0 66.5 13t49 35t32.5 48l54 -146h-57q-15 -68 -50.5 -123t-98.5 -87t-163 -32q-107 0 -177 42t-103.5 126.5t-33.5 213.5v627h354zM1064 985v-985h-352l11 253l-13 36v696h354zM396 1376h365l173 -297v-4h-257l-94 134
h-9l-94 -134h-257v4z" />
    <glyph glyph-name="udieresis" unicode="&#xfc;" horiz-adv-x="1156" 
d="M439 985v-566q0 -47 11.5 -81t39.5 -52t76 -18q38 0 66.5 13t49 35t32.5 48l54 -146h-57q-15 -68 -50.5 -123t-98.5 -87t-163 -32q-107 0 -177 42t-103.5 126.5t-33.5 213.5v627h354zM1064 985v-985h-352l11 253l-13 36v696h354zM396 1062q-78 0 -116.5 40.5t-38.5 113.5
v8q0 74 38.5 115t116.5 41q80 0 118.5 -41t38.5 -115v-8q0 -73 -38.5 -113.5t-118.5 -40.5zM761 1062q-79 0 -117 40.5t-38 113.5v8q0 74 38 115t117 41q78 0 117 -41t39 -115v-8q0 -73 -39 -113.5t-117 -40.5z" />
    <glyph glyph-name="yacute" unicode="&#xfd;" horiz-adv-x="1075" 
d="M695 276l-190 -82l197 791h362l-382 -1329h-353l153 518l168 -131h-390l-249 942h364l138 -709h182zM549 1376h362v-4l-244 -297h-287v3z" />
    <glyph glyph-name="thorn" unicode="&#xfe;" horiz-adv-x="1152" 
d="M734 -24q-89 0 -148 30t-93 84.5t-48 127.5h-85l80 215q1 -51 18.5 -88t51 -57t81.5 -20q71 0 107 42.5t36 127.5v118q0 86 -35 127.5t-106 41.5q-38 0 -70 -13.5t-55 -36.5t-34 -52l-74 144h91q14 68 47 123t93 87t154 32q167 0 256 -114t89 -344v-105
q0 -233 -89.5 -351.5t-266.5 -118.5zM92 -344v1663h352v-287l-5 -309l1 -43v-364l-6 -59l10 -257v-344h-352z" />
    <glyph glyph-name="ydieresis" unicode="&#xff;" horiz-adv-x="1075" 
d="M695 276l-190 -82l197 791h362l-382 -1329h-353l153 518l168 -131h-390l-249 942h364l138 -709h182zM355 1062q-78 0 -116.5 40.5t-38.5 113.5v8q0 74 38.5 115t116.5 41q80 0 118.5 -41t38.5 -115v-8q0 -73 -38.5 -113.5t-118.5 -40.5zM720 1062q-79 0 -117 40.5
t-38 113.5v8q0 74 38 115t117 41q78 0 117 -41t39 -115v-8q0 -73 -39 -113.5t-117 -40.5z" />
    <glyph glyph-name="Amacron" unicode="&#x100;" horiz-adv-x="1275" 
d="M15 0l355 1278h539l351 -1278h-365l-244 1041h-23l-248 -1041h-365zM350 277v276h573v-276h-573zM309 1387v209h657v-209h-657z" />
    <glyph glyph-name="amacron" unicode="&#x101;" horiz-adv-x="1077" 
d="M650 0l10 252l-7 9v306l-3 36q0 69 -44.5 101.5t-151.5 32.5q-97 0 -186.5 -23t-171.5 -53l29 269q50 22 111 40.5t133 29.5t153 11q137 0 228.5 -31.5t145.5 -89t77.5 -136.5t23.5 -174v-580h-347zM345 -24q-148 0 -223.5 75.5t-75.5 214.5v25q0 148 90.5 218t289.5 95
l251 32l21 -202l-213 -31q-58 -8 -80.5 -27.5t-22.5 -57.5v-4q0 -35 23.5 -57t78.5 -22q46 0 79.5 12.5t56 33.5t35.5 46l50 -120h-57q-15 -67 -47.5 -119t-93.5 -82t-162 -30zM209 1094v209h657v-209h-657z" />
    <glyph glyph-name="Abreve" unicode="&#x102;" horiz-adv-x="1275" 
d="M15 0l355 1278h539l351 -1278h-365l-244 1041h-23l-248 -1041h-365zM350 277v276h573v-276h-573zM638 1361q-173 0 -250.5 77t-80.5 216h220q3 -46 29 -73t82 -27q55 0 81.5 26.5t29.5 73.5h220q-3 -139 -79.5 -216t-251.5 -77z" />
    <glyph glyph-name="abreve" unicode="&#x103;" horiz-adv-x="1077" 
d="M650 0l10 252l-7 9v306l-3 36q0 69 -44.5 101.5t-151.5 32.5q-97 0 -186.5 -23t-171.5 -53l29 269q50 22 111 40.5t133 29.5t153 11q137 0 228.5 -31.5t145.5 -89t77.5 -136.5t23.5 -174v-580h-347zM345 -24q-148 0 -223.5 75.5t-75.5 214.5v25q0 148 90.5 218t289.5 95
l251 32l21 -202l-213 -31q-58 -8 -80.5 -27.5t-22.5 -57.5v-4q0 -35 23.5 -57t78.5 -22q46 0 79.5 12.5t56 33.5t35.5 46l50 -120h-57q-15 -67 -47.5 -119t-93.5 -82t-162 -30zM537 1064q-174 0 -252 82.5t-80 229.5h223q3 -51 28 -80t81 -29q55 0 80.5 28.5t28.5 80.5h223
q-2 -147 -79 -229.5t-253 -82.5z" />
    <glyph glyph-name="Aogonek" unicode="&#x104;" horiz-adv-x="1275" 
d="M15 0l355 1278h539l351 -1278h-365l-244 1041h-23l-248 -1041h-365zM350 277v276h573v-276h-573zM1103 -362q-111 0 -177.5 43t-66.5 131v1q0 70 40.5 113t109.5 65v19l208 -5l10 -4q-61 -7 -92 -26.5t-31 -48.5v0q0 -29 22.5 -41t65.5 -12q28 0 54 3.5t51 9.5l-29 -220
q-37 -14 -77.5 -21t-87.5 -7z" />
    <glyph glyph-name="aogonek" unicode="&#x105;" horiz-adv-x="1077" 
d="M650 0l10 252l-7 9v306l-3 36q0 69 -44.5 101.5t-151.5 32.5q-97 0 -186.5 -23t-171.5 -53l29 269q50 22 111 40.5t133 29.5t153 11q137 0 228.5 -31.5t145.5 -89t77.5 -136.5t23.5 -174v-580h-347zM345 -24q-148 0 -223.5 75.5t-75.5 214.5v25q0 148 90.5 218t289.5 95
l251 32l21 -202l-213 -31q-58 -8 -80.5 -27.5t-22.5 -57.5v-4q0 -35 23.5 -57t78.5 -22q46 0 79.5 12.5t56 33.5t35.5 46l50 -120h-57q-15 -67 -47.5 -119t-93.5 -82t-162 -30zM840 -363q-109 0 -175.5 43t-66.5 131v1q0 70 40.5 113t107.5 65v30h218v-20q-61 -7 -92 -26.5
t-31 -48.5v0q0 -29 22.5 -41t65.5 -12q28 0 54 3.5t51 9.5l-29 -220q-37 -14 -77.5 -21t-87.5 -7z" />
    <glyph glyph-name="Cacute" unicode="&#x106;" horiz-adv-x="1052" 
d="M631 -29q-286 0 -424.5 148t-138.5 423v202q0 270 139.5 416.5t419.5 146.5q72 0 132.5 -10t110.5 -27.5t89 -40.5l26 -305q-58 28 -125.5 48.5t-154.5 20.5q-139 0 -203 -70t-64 -195v-171q0 -124 65 -194.5t216 -70.5q84 0 151 21.5t125 51.5l-26 -311
q-38 -23 -89.5 -42t-113.5 -30t-135 -11zM603 1654h373v-3l-281 -278h-306v3z" />
    <glyph glyph-name="cacute" unicode="&#x107;" horiz-adv-x="903" 
d="M531 -27q-241 0 -357 126t-116 355v85q0 222 116 348t356 126q59 0 112 -7.5t98 -21t80 -30.5l28 -289q-49 25 -106 41.5t-127 16.5q-108 0 -154.5 -49t-46.5 -141v-65q0 -96 51 -147.5t160 -51.5q68 0 123.5 15t109.5 40l-27 -290q-55 -27 -133 -44t-167 -17zM505 1376
h362v-4l-244 -297h-287v3z" />
    <glyph glyph-name="Ccircumflex" unicode="&#x108;" horiz-adv-x="1052" 
d="M631 -29q-286 0 -424.5 148t-138.5 423v202q0 270 139.5 416.5t419.5 146.5q72 0 132.5 -10t110.5 -27.5t89 -40.5l26 -305q-58 28 -125.5 48.5t-154.5 20.5q-139 0 -203 -70t-64 -195v-171q0 -124 65 -194.5t216 -70.5q84 0 151 21.5t125 51.5l-26 -311
q-38 -23 -89.5 -42t-113.5 -30t-135 -11zM390 1654h353l200 -276v-5h-268l-104 117h-9l-104 -117h-268v5z" />
    <glyph glyph-name="ccircumflex" unicode="&#x109;" horiz-adv-x="903" 
d="M531 -27q-241 0 -357 126t-116 355v85q0 222 116 348t356 126q59 0 112 -7.5t98 -21t80 -30.5l28 -289q-49 25 -106 41.5t-127 16.5q-108 0 -154.5 -49t-46.5 -141v-65q0 -96 51 -147.5t160 -51.5q68 0 123.5 15t109.5 40l-27 -290q-55 -27 -133 -44t-167 -17zM311 1376
h365l173 -297v-4h-257l-94 134h-9l-94 -134h-257v4z" />
    <glyph glyph-name="Cdotaccent" unicode="&#x10a;" horiz-adv-x="1052" 
d="M631 -29q-286 0 -424.5 148t-138.5 423v202q0 270 139.5 416.5t419.5 146.5q72 0 132.5 -10t110.5 -27.5t89 -40.5l26 -305q-58 28 -125.5 48.5t-154.5 20.5q-139 0 -203 -70t-64 -195v-171q0 -124 65 -194.5t216 -70.5q84 0 151 21.5t125 51.5l-26 -311
q-38 -23 -89.5 -42t-113.5 -30t-135 -11zM565 1365q-84 0 -125.5 41t-41.5 111v6q0 71 41.5 112t125.5 41q86 0 127.5 -41t41.5 -112v-6q0 -70 -41.5 -111t-127.5 -41z" />
    <glyph glyph-name="cdotaccent" unicode="&#x10b;" horiz-adv-x="903" 
d="M531 -27q-241 0 -357 126t-116 355v85q0 222 116 348t356 126q59 0 112 -7.5t98 -21t80 -30.5l28 -289q-49 25 -106 41.5t-127 16.5q-108 0 -154.5 -49t-46.5 -141v-65q0 -96 51 -147.5t160 -51.5q68 0 123.5 15t109.5 40l-27 -290q-55 -27 -133 -44t-167 -17zM493 1057
q-88 0 -131 43t-43 116v7q0 74 43 118t131 44q89 0 132.5 -44t43.5 -118v-7q0 -73 -43.5 -116t-132.5 -43z" />
    <glyph glyph-name="Ccaron" unicode="&#x10c;" horiz-adv-x="1052" 
d="M631 -29q-286 0 -424.5 148t-138.5 423v202q0 270 139.5 416.5t419.5 146.5q72 0 132.5 -10t110.5 -27.5t89 -40.5l26 -305q-58 28 -125.5 48.5t-154.5 20.5q-139 0 -203 -70t-64 -195v-171q0 -124 65 -194.5t216 -70.5q84 0 151 21.5t125 51.5l-26 -311
q-38 -23 -89.5 -42t-113.5 -30t-135 -11zM389 1373l-200 276v5h268l104 -117h9l104 117h268v-5l-200 -276h-353z" />
    <glyph glyph-name="ccaron" unicode="&#x10d;" horiz-adv-x="903" 
d="M531 -27q-241 0 -357 126t-116 355v85q0 222 116 348t356 126q59 0 112 -7.5t98 -21t80 -30.5l28 -289q-49 25 -106 41.5t-127 16.5q-108 0 -154.5 -49t-46.5 -141v-65q0 -96 51 -147.5t160 -51.5q68 0 123.5 15t109.5 40l-27 -290q-55 -27 -133 -44t-167 -17zM311 1075
l-173 296v5h258l93 -135h9l95 135h256v-5l-173 -296h-365z" />
    <glyph glyph-name="Dcaron" unicode="&#x10e;" horiz-adv-x="1265" 
d="M359 0v302h269q104 0 155 56t51 160v246q0 104 -51 159.5t-155 55.5h-269v299h282q281 0 419.5 -132.5t138.5 -381.5v-247q0 -250 -138 -383.5t-420 -133.5h-282zM104 0v1278h357v-1278h-357zM435 1373l-200 276v5h268l104 -117h9l104 117h268v-5l-200 -276h-353z" />
    <glyph glyph-name="dcaron" unicode="&#x10f;" horiz-adv-x="1433" 
d="M407 -24q-170 0 -257.5 114.5t-87.5 343.5v105q0 233 87.5 351.5t267.5 118.5q88 0 146 -30t91.5 -84t46.5 -128h91l-80 -205q-1 52 -18.5 88.5t-50 56.5t-80.5 20q-71 0 -108 -42t-37 -126v-121q0 -85 37.5 -127.5t112.5 -42.5q37 0 66.5 13t50.5 36t33 53l87 -152h-98
q-14 -68 -48 -123t-95 -87t-157 -32zM708 0l10 257l-6 49v394v45l-4 289v285h352v-1319h-352zM1437 1319q3 -17 5.5 -39.5t2.5 -48.5q0 -106 -28 -198t-89 -173l-212 48q19 66 29.5 141.5t10.5 165.5q0 27 -1.5 50.5t-3.5 53.5h286z" />
    <glyph glyph-name="Dcroat" unicode="&#x110;" horiz-adv-x="1265" 
d="M2 552v190l663 -1v-190zM359 0v302h269q104 0 155 56t51 160v246q0 104 -51 159.5t-155 55.5h-269v299h282q281 0 419.5 -132.5t138.5 -381.5v-247q0 -250 -138 -383.5t-420 -133.5h-282zM104 0v1278h357v-1278h-357z" />
    <glyph glyph-name="dcroat" unicode="&#x111;" horiz-adv-x="1164" 
d="M416 1064v157h748v-157h-748zM407 -24q-170 0 -257.5 114.5t-87.5 343.5v105q0 233 87.5 351.5t267.5 118.5q88 0 146 -30t91.5 -84t46.5 -128h91l-80 -205q-1 52 -18.5 88.5t-50 56.5t-80.5 20q-71 0 -108 -42t-37 -126v-121q0 -85 37.5 -127.5t112.5 -42.5
q37 0 66.5 13t50.5 36t33 53l87 -152h-98q-14 -68 -48 -123t-95 -87t-157 -32zM708 0l10 257l-6 49v394v45l-4 289v285h352v-1319h-352z" />
    <glyph glyph-name="Emacron" unicode="&#x112;" horiz-adv-x="1108" 
d="M104 0v1278h353v-1278h-353zM209 0v301h823v-301h-823zM312 504v287h695v-287h-695zM209 980v298h814v-298h-814zM241 1387v209h657v-209h-657z" />
    <glyph glyph-name="emacron" unicode="&#x113;" horiz-adv-x="1081" 
d="M606 -26q-283 0 -415.5 123t-132.5 360v77q0 235 124.5 358t363.5 123q159 0 265 -52.5t159.5 -151t53.5 -237.5v-31q0 -40 -3.5 -81.5t-10.5 -76.5h-317q4 61 5.5 115t1.5 97q0 52 -16 87.5t-50 54t-88 18.5q-81 0 -117.5 -42t-36.5 -119v-89l2 -38v-62q0 -31 11 -60
t40.5 -51.5t84 -35.5t141.5 -13q89 0 174 14.5t164 40.5l-28 -257q-69 -34 -164.5 -52.5t-210.5 -18.5zM245 385v208h694v-208h-694zM226 1094v209h657v-209h-657z" />
    <glyph glyph-name="Ebreve" unicode="&#x114;" horiz-adv-x="1108" 
d="M104 0v1278h353v-1278h-353zM209 0v301h823v-301h-823zM312 504v287h695v-287h-695zM209 980v298h814v-298h-814zM570 1361q-173 0 -250.5 77t-80.5 216h220q3 -46 29 -73t82 -27q55 0 81.5 26.5t29.5 73.5h220q-3 -139 -79.5 -216t-251.5 -77z" />
    <glyph glyph-name="ebreve" unicode="&#x115;" horiz-adv-x="1081" 
d="M606 -26q-283 0 -415.5 123t-132.5 360v77q0 235 124.5 358t363.5 123q159 0 265 -52.5t159.5 -151t53.5 -237.5v-31q0 -40 -3.5 -81.5t-10.5 -76.5h-317q4 61 5.5 115t1.5 97q0 52 -16 87.5t-50 54t-88 18.5q-81 0 -117.5 -42t-36.5 -119v-89l2 -38v-62q0 -31 11 -60
t40.5 -51.5t84 -35.5t141.5 -13q89 0 174 14.5t164 40.5l-28 -257q-69 -34 -164.5 -52.5t-210.5 -18.5zM245 385v208h694v-208h-694zM554 1064q-174 0 -252 82.5t-80 229.5h223q3 -51 28 -80t81 -29q55 0 80.5 28.5t28.5 80.5h223q-2 -147 -79 -229.5t-253 -82.5z" />
    <glyph glyph-name="Edotaccent" unicode="&#x116;" horiz-adv-x="1108" 
d="M104 0v1278h353v-1278h-353zM209 0v301h823v-301h-823zM312 504v287h695v-287h-695zM209 980v298h814v-298h-814zM569 1365q-84 0 -125.5 41t-41.5 111v6q0 71 41.5 112t125.5 41q86 0 127.5 -41t41.5 -112v-6q0 -70 -41.5 -111t-127.5 -41z" />
    <glyph glyph-name="edotaccent" unicode="&#x117;" horiz-adv-x="1081" 
d="M606 -26q-283 0 -415.5 123t-132.5 360v77q0 235 124.5 358t363.5 123q159 0 265 -52.5t159.5 -151t53.5 -237.5v-31q0 -40 -3.5 -81.5t-10.5 -76.5h-317q4 61 5.5 115t1.5 97q0 52 -16 87.5t-50 54t-88 18.5q-81 0 -117.5 -42t-36.5 -119v-89l2 -38v-62q0 -31 11 -60
t40.5 -51.5t84 -35.5t141.5 -13q89 0 174 14.5t164 40.5l-28 -257q-69 -34 -164.5 -52.5t-210.5 -18.5zM245 385v208h694v-208h-694zM553 1057q-88 0 -131 43t-43 116v7q0 74 43 118t131 44q89 0 132.5 -44t43.5 -118v-7q0 -73 -43.5 -116t-132.5 -43z" />
    <glyph glyph-name="Eogonek" unicode="&#x118;" horiz-adv-x="1108" 
d="M104 0v1278h353v-1278h-353zM209 0v301h823v-301h-823zM312 504v287h695v-287h-695zM209 980v298h814v-298h-814zM844 -362q-111 0 -177.5 43t-66.5 131v1q0 70 40.5 113t109.5 65v19l208 -5l10 -4q-61 -7 -92 -26.5t-31 -48.5v0q0 -29 22.5 -41t65.5 -12q28 0 54 3.5
t51 9.5l-29 -220q-37 -14 -77.5 -21t-87.5 -7z" />
    <glyph glyph-name="eogonek" unicode="&#x119;" horiz-adv-x="1081" 
d="M780 -363q-111 0 -181 40.5t-70 123.5v2q0 62 33 102t105 59v26l179 26l-2 -17q-35 -10 -53.5 -28t-18.5 -44v0q0 -31 25 -43t71 -12q29 0 58 3.5t57 10.5l-30 -222q-38 -13 -81 -20t-92 -7zM606 -26q-283 0 -415.5 123t-132.5 360v77q0 235 124.5 358t363.5 123
q159 0 265 -52.5t159.5 -151t53.5 -237.5v-31q0 -40 -3.5 -81.5t-10.5 -76.5h-317q4 61 5.5 115t1.5 97q0 52 -16 87.5t-50 54t-88 18.5q-81 0 -117.5 -42t-36.5 -119v-89l2 -38v-62q0 -31 11 -60t40.5 -51.5t84 -35.5t141.5 -13q89 0 174 14.5t164 40.5l-28 -257
q-69 -34 -164.5 -52.5t-210.5 -18.5zM245 385v208h694v-208h-694z" />
    <glyph glyph-name="Ecaron" unicode="&#x11a;" horiz-adv-x="1108" 
d="M104 0v1278h353v-1278h-353zM209 0v301h823v-301h-823zM312 504v287h695v-287h-695zM209 980v298h814v-298h-814zM393 1373l-200 276v5h268l104 -117h9l104 117h268v-5l-200 -276h-353z" />
    <glyph glyph-name="ecaron" unicode="&#x11b;" horiz-adv-x="1081" 
d="M606 -26q-283 0 -415.5 123t-132.5 360v77q0 235 124.5 358t363.5 123q159 0 265 -52.5t159.5 -151t53.5 -237.5v-31q0 -40 -3.5 -81.5t-10.5 -76.5h-317q4 61 5.5 115t1.5 97q0 52 -16 87.5t-50 54t-88 18.5q-81 0 -117.5 -42t-36.5 -119v-89l2 -38v-62q0 -31 11 -60
t40.5 -51.5t84 -35.5t141.5 -13q89 0 174 14.5t164 40.5l-28 -257q-69 -34 -164.5 -52.5t-210.5 -18.5zM245 385v208h694v-208h-694zM371 1075l-173 296v5h258l93 -135h9l95 135h256v-5l-173 -296h-365z" />
    <glyph glyph-name="Gcircumflex" unicode="&#x11c;" horiz-adv-x="1282" 
d="M508 -29q-146 0 -244 64.5t-147 186.5t-49 293v198q0 293 160 443.5t467 150.5q90 0 168.5 -11.5t144 -30.5t115.5 -43l30 -301q-78 31 -171.5 55t-213.5 24q-173 0 -252 -73t-79 -238v-178q0 -111 52.5 -172t167.5 -61q48 0 83.5 12.5t60 33.5t40.5 46v220l45 -101
l-229 -2v275h529v-544h-353q-15 -72 -49.5 -127.5t-100 -87.5t-175.5 -32zM846 262h340v-262h-350zM467 1654h353l200 -276v-5h-268l-104 117h-9l-104 -117h-268v5z" />
    <glyph glyph-name="gcircumflex" unicode="&#x11d;" horiz-adv-x="1074" 
d="M545 310q-250 0 -372.5 88.5t-122.5 245.5v12q0 110 50.5 184t154.5 114.5t264 48.5l532 28v-244l-256 5v-10q71 -9 117 -33t68 -65t22 -101v-6q0 -130 -110 -198.5t-347 -68.5zM527 -132h33q66 0 104 7.5t54.5 22t16.5 34.5v2q0 28 -26.5 38.5t-72.5 14.5l-294 29l75 5
q-21 -4 -36.5 -13.5t-24 -24t-8.5 -34.5v-2q0 -24 17.5 -42t57 -27.5t104.5 -9.5zM511 -385q-154 0 -261 23t-162 74t-55 134v4q0 57 25 96t73 60.5t115 25.5v10q-79 14 -123.5 49t-44.5 101v2q0 48 22.5 80t65 49t102.5 18v39l235 -60h-63q-24 0 -35 -7t-11 -21v-1
q0 -19 19 -26t60 -12l231 -28q176 -21 263 -86.5t87 -204.5v-7q0 -106 -58.5 -175t-170.5 -103t-273 -34h-41zM532 543q52 0 85 12.5t49.5 36.5t16.5 58v6q0 34 -16.5 58t-49.5 36.5t-85 12.5v0q-51 0 -84.5 -12.5t-50 -36t-16.5 -58.5v-6q0 -34 16.5 -58t50 -36.5
t84.5 -12.5zM354 1376h365l173 -297v-4h-257l-94 134h-9l-94 -134h-257v4z" />
    <glyph glyph-name="Gbreve" unicode="&#x11e;" horiz-adv-x="1282" 
d="M508 -29q-146 0 -244 64.5t-147 186.5t-49 293v198q0 293 160 443.5t467 150.5q90 0 168.5 -11.5t144 -30.5t115.5 -43l30 -301q-78 31 -171.5 55t-213.5 24q-173 0 -252 -73t-79 -238v-178q0 -111 52.5 -172t167.5 -61q48 0 83.5 12.5t60 33.5t40.5 46v220l45 -101
l-229 -2v275h529v-544h-353q-15 -72 -49.5 -127.5t-100 -87.5t-175.5 -32zM846 262h340v-262h-350zM643 1361q-173 0 -250.5 77t-80.5 216h220q3 -46 29 -73t82 -27q55 0 81.5 26.5t29.5 73.5h220q-3 -139 -79.5 -216t-251.5 -77z" />
    <glyph glyph-name="gbreve" unicode="&#x11f;" horiz-adv-x="1074" 
d="M545 310q-250 0 -372.5 88.5t-122.5 245.5v12q0 110 50.5 184t154.5 114.5t264 48.5l532 28v-244l-256 5v-10q71 -9 117 -33t68 -65t22 -101v-6q0 -130 -110 -198.5t-347 -68.5zM527 -132h33q66 0 104 7.5t54.5 22t16.5 34.5v2q0 28 -26.5 38.5t-72.5 14.5l-294 29l75 5
q-21 -4 -36.5 -13.5t-24 -24t-8.5 -34.5v-2q0 -24 17.5 -42t57 -27.5t104.5 -9.5zM511 -385q-154 0 -261 23t-162 74t-55 134v4q0 57 25 96t73 60.5t115 25.5v10q-79 14 -123.5 49t-44.5 101v2q0 48 22.5 80t65 49t102.5 18v39l235 -60h-63q-24 0 -35 -7t-11 -21v-1
q0 -19 19 -26t60 -12l231 -28q176 -21 263 -86.5t87 -204.5v-7q0 -106 -58.5 -175t-170.5 -103t-273 -34h-41zM532 543q52 0 85 12.5t49.5 36.5t16.5 58v6q0 34 -16.5 58t-49.5 36.5t-85 12.5v0q-51 0 -84.5 -12.5t-50 -36t-16.5 -58.5v-6q0 -34 16.5 -58t50 -36.5
t84.5 -12.5zM537 1064q-174 0 -252 82.5t-80 229.5h223q3 -51 28 -80t81 -29q55 0 80.5 28.5t28.5 80.5h223q-2 -147 -79 -229.5t-253 -82.5z" />
    <glyph glyph-name="Gdotaccent" unicode="&#x120;" horiz-adv-x="1282" 
d="M508 -29q-146 0 -244 64.5t-147 186.5t-49 293v198q0 293 160 443.5t467 150.5q90 0 168.5 -11.5t144 -30.5t115.5 -43l30 -301q-78 31 -171.5 55t-213.5 24q-173 0 -252 -73t-79 -238v-178q0 -111 52.5 -172t167.5 -61q48 0 83.5 12.5t60 33.5t40.5 46v220l45 -101
l-229 -2v275h529v-544h-353q-15 -72 -49.5 -127.5t-100 -87.5t-175.5 -32zM846 262h340v-262h-350zM642 1365q-84 0 -125.5 41t-41.5 111v6q0 71 41.5 112t125.5 41q86 0 127.5 -41t41.5 -112v-6q0 -70 -41.5 -111t-127.5 -41z" />
    <glyph glyph-name="gdotaccent" unicode="&#x121;" horiz-adv-x="1074" 
d="M545 310q-250 0 -372.5 88.5t-122.5 245.5v12q0 110 50.5 184t154.5 114.5t264 48.5l532 28v-244l-256 5v-10q71 -9 117 -33t68 -65t22 -101v-6q0 -130 -110 -198.5t-347 -68.5zM527 -132h33q66 0 104 7.5t54.5 22t16.5 34.5v2q0 28 -26.5 38.5t-72.5 14.5l-294 29l75 5
q-21 -4 -36.5 -13.5t-24 -24t-8.5 -34.5v-2q0 -24 17.5 -42t57 -27.5t104.5 -9.5zM511 -385q-154 0 -261 23t-162 74t-55 134v4q0 57 25 96t73 60.5t115 25.5v10q-79 14 -123.5 49t-44.5 101v2q0 48 22.5 80t65 49t102.5 18v39l235 -60h-63q-24 0 -35 -7t-11 -21v-1
q0 -19 19 -26t60 -12l231 -28q176 -21 263 -86.5t87 -204.5v-7q0 -106 -58.5 -175t-170.5 -103t-273 -34h-41zM532 543q52 0 85 12.5t49.5 36.5t16.5 58v6q0 34 -16.5 58t-49.5 36.5t-85 12.5v0q-51 0 -84.5 -12.5t-50 -36t-16.5 -58.5v-6q0 -34 16.5 -58t50 -36.5
t84.5 -12.5zM536 1057q-88 0 -131 43t-43 116v7q0 74 43 118t131 44q89 0 132.5 -44t43.5 -118v-7q0 -73 -43.5 -116t-132.5 -43z" />
    <glyph glyph-name="uni0122" unicode="&#x122;" horiz-adv-x="1282" 
d="M508 -29q-146 0 -244 64.5t-147 186.5t-49 293v198q0 293 160 443.5t467 150.5q90 0 168.5 -11.5t144 -30.5t115.5 -43l30 -301q-78 31 -171.5 55t-213.5 24q-173 0 -252 -73t-79 -238v-178q0 -111 52.5 -172t167.5 -61q48 0 83.5 12.5t60 33.5t40.5 46v220l45 -101
l-229 -2v275h529v-544h-353q-15 -72 -49.5 -127.5t-100 -87.5t-175.5 -32zM846 262h340v-262h-350zM795 -90q2 -18 4 -40t2 -44q0 -94 -29.5 -171.5t-96.5 -148.5l-228 50q28 57 43 121.5t15 145.5q0 22 -1 42.5t-3 44.5h294z" />
    <glyph glyph-name="uni0123" unicode="&#x123;" horiz-adv-x="1074" 
d="M545 310q-250 0 -372.5 88.5t-122.5 245.5v12q0 110 50.5 184t154.5 114.5t264 48.5l532 28v-244l-256 5v-10q71 -9 117 -33t68 -65t22 -101v-6q0 -130 -110 -198.5t-347 -68.5zM527 -132h33q66 0 104 7.5t54.5 22t16.5 34.5v2q0 28 -26.5 38.5t-72.5 14.5l-294 29l75 5
q-21 -4 -36.5 -13.5t-24 -24t-8.5 -34.5v-2q0 -24 17.5 -42t57 -27.5t104.5 -9.5zM511 -385q-154 0 -261 23t-162 74t-55 134v4q0 57 25 96t73 60.5t115 25.5v10q-79 14 -123.5 49t-44.5 101v2q0 48 22.5 80t65 49t102.5 18v39l235 -60h-63q-24 0 -35 -7t-11 -21v-1
q0 -19 19 -26t60 -12l231 -28q176 -21 263 -86.5t87 -204.5v-7q0 -106 -58.5 -175t-170.5 -103t-273 -34h-41zM532 543q52 0 85 12.5t49.5 36.5t16.5 58v6q0 34 -16.5 58t-49.5 36.5t-85 12.5v0q-51 0 -84.5 -12.5t-50 -36t-16.5 -58.5v-6q0 -34 16.5 -58t50 -36.5
t84.5 -12.5zM386 1073q-2 18 -4 40t-2 44q0 94 29.5 172t95.5 148l226 -50q-28 -57 -43 -121.5t-15 -145.5q0 -22 1 -42.5t3 -44.5h-291z" />
    <glyph glyph-name="Hcircumflex" unicode="&#x124;" horiz-adv-x="1329" 
d="M467 0h-363v1278h363v-1278zM1225 0h-363v1278h363v-1278zM313 803h684v-302h-684v302zM489 1654h353l200 -276v-5h-268l-104 117h-9l-104 -117h-268v5z" />
    <glyph glyph-name="hcircumflex" unicode="&#x125;" horiz-adv-x="1156" 
d="M717 0v566q0 47 -11.5 81t-39 52t-76.5 18q-37 0 -66 -13t-49 -34.5t-32 -48.5l-72 146h80q15 69 49.5 123.5t97 86.5t159.5 32q108 0 177.5 -42t103 -126.5t33.5 -213.5v-627h-354zM92 0v1319h352v-286l-5 -342l7 -28v-663h-354zM92 1695h353l200 -276v-5h-268l-104 117
h-9l-104 -117h-268v5z" />
    <glyph glyph-name="Hbar" unicode="&#x126;" horiz-adv-x="1341" 
d="M16 956v168h1309v-168h-1309zM473 0h-363v1278h363v-1278zM1231 0h-363v1278h363v-1278zM319 803h684v-302h-684v302z" />
    <glyph glyph-name="hbar" unicode="&#x127;" horiz-adv-x="1168" 
d="M0 1064v157h746v-157h-746zM729 0v566q0 47 -11.5 81t-39 52t-76.5 18q-37 0 -66 -13t-49 -34.5t-32 -48.5l-72 146h80q15 69 49.5 123.5t97 86.5t159.5 32q108 0 177.5 -42t103 -126.5t33.5 -213.5v-627h-354zM104 0v1319h352v-286l-5 -342l7 -28v-663h-354z" />
    <glyph glyph-name="Itilde" unicode="&#x128;" horiz-adv-x="571" 
d="M467 0h-363v1278h363v-1278zM423 1380q-36 0 -69.5 7.5t-63.5 17t-57 17t-50 7.5q-29 0 -40 -15t-12 -46v-1h-191v39q0 102 47.5 169t165.5 67q38 0 71.5 -7.5t62.5 -17t55 -17t49 -7.5q29 0 39.5 15t11.5 46v1h192v-34q0 -106 -47 -173.5t-164 -67.5z" />
    <glyph glyph-name="itilde" unicode="&#x129;" horiz-adv-x="538" 
d="M92 0v985h354v-985h-354zM374 1082q-28 0 -54.5 7.5t-51 17t-46.5 16.5t-41 7q-43 0 -45 -59v-1h-176v34q0 105 41 172.5t141 67.5q32 0 59 -7t50.5 -16.5t44 -16.5t39.5 -7q43 0 43 58v1h177v-39q0 -103 -40 -169t-141 -66z" />
    <glyph glyph-name="Imacron" unicode="&#x12a;" horiz-adv-x="571" 
d="M467 0h-363v1278h363v-1278zM-42 1387v209h657v-209h-657z" />
    <glyph glyph-name="imacron" unicode="&#x12b;" horiz-adv-x="538" 
d="M92 0v985h354v-985h-354zM6 1094v209h527v-209h-527z" />
    <glyph glyph-name="Ibreve" unicode="&#x12c;" horiz-adv-x="571" 
d="M467 0h-363v1278h363v-1278zM287 1361q-173 0 -250.5 77t-80.5 216h220q3 -46 29 -73t82 -27q55 0 81.5 26.5t29.5 73.5h220q-3 -139 -79.5 -216t-251.5 -77z" />
    <glyph glyph-name="ibreve" unicode="&#x12d;" horiz-adv-x="538" 
d="M92 0v985h354v-985h-354zM270 1065q-154 0 -223.5 79t-72.5 219h211q2 -46 20.5 -72t64.5 -26q45 0 64.5 26t20.5 72h211q-4 -140 -72.5 -219t-223.5 -79z" />
    <glyph glyph-name="Iogonek" unicode="&#x12e;" horiz-adv-x="571" 
d="M467 0h-363v1278h363v-1278zM308 -362q-111 0 -177.5 43t-66.5 131v1q0 70 40.5 113t109.5 65v19l208 -5l10 -4q-61 -7 -92 -26.5t-31 -48.5v0q0 -29 22.5 -41t65.5 -12q28 0 54 3.5t51 9.5l-29 -220q-37 -14 -77.5 -21t-87.5 -7z" />
    <glyph glyph-name="iogonek" unicode="&#x12f;" horiz-adv-x="537" 
d="M92 0v985h354v-985h-354zM269 1056q-97 0 -141 43.5t-44 117.5v8q0 74 44 117.5t141 43.5q96 0 140.5 -43.5t44.5 -117.5v-8q0 -75 -44.5 -118t-140.5 -43zM295 -363q-109 0 -175.5 43t-66.5 131v1q0 70 40.5 113t107.5 65v30h218v-20q-61 -7 -92 -26.5t-31 -48.5v0
q0 -29 22.5 -41t65.5 -12q28 0 54 3.5t51 9.5l-29 -220q-37 -14 -77.5 -21t-87.5 -7z" />
    <glyph glyph-name="Idotaccent" unicode="&#x130;" horiz-adv-x="571" 
d="M467 0h-363v1278h363v-1278zM286 1365q-84 0 -125.5 41t-41.5 111v6q0 71 41.5 112t125.5 41q86 0 127.5 -41t41.5 -112v-6q0 -70 -41.5 -111t-127.5 -41z" />
    <glyph glyph-name="dotlessi" unicode="&#x131;" horiz-adv-x="538" 
d="M92 0v985h354v-985h-354z" />
    <glyph glyph-name="Jcircumflex" unicode="&#x134;" horiz-adv-x="838" 
d="M295 -21q-61 0 -123 9.5t-112 28.5l-26 302q44 -13 87 -21.5t88 -8.5q102 0 136 43t34 132v814h363v-836q0 -229 -102.5 -346t-344.5 -117zM382 1654h353l200 -276v-5h-268l-104 117h-9l-104 -117h-268v5z" />
    <glyph glyph-name="jcircumflex" unicode="&#x135;" horiz-adv-x="551" 
d="M105 172v813h354v-813h-354zM96 -362q-45 0 -84 4.5t-68 12.5l-25 279q18 -5 36.5 -8t37.5 -3q69 0 90.5 36t21.5 97v150h354v-175q0 -118 -34.5 -206t-113.5 -137.5t-215 -49.5zM104 1376h343l146 -297v-4h-244l-70 131h-7l-70 -131h-244v4z" />
    <glyph glyph-name="uni0136" unicode="&#x136;" horiz-adv-x="1234" 
d="M821 0l-342 554h-55v200h55l338 524h409l-435 -644v80l449 -714h-419zM104 0v1278h359v-1278h-359zM781 -90q2 -18 4 -40t2 -44q0 -94 -29.5 -171.5t-96.5 -148.5l-228 50q28 57 43 121.5t15 145.5q0 22 -1 42.5t-3 44.5h294z" />
    <glyph glyph-name="uni0137" unicode="&#x137;" horiz-adv-x="1119" 
d="M715 0l-260 417h-72v192h72l255 376h403l-350 -494v65l363 -556h-411zM92 0v1319h352v-1319h-352zM713 -90q2 -18 4 -40t2 -44q0 -94 -29.5 -171.5t-96.5 -148.5l-228 50q28 57 43 121.5t15 145.5q0 22 -1 42.5t-3 44.5h294z" />
    <glyph glyph-name="kgreenlandic" unicode="&#x138;" horiz-adv-x="1110" 
d="M717 0l-258 407h-54v184h54l249 394h388l-335 -504v65l356 -546h-400zM92 0v985h354v-985h-354z" />
    <glyph glyph-name="Lacute" unicode="&#x139;" horiz-adv-x="1029" 
d="M467 0h-363v1278h363v-1278zM312 304h667v-304h-667v304zM323 1654h373v-3l-281 -278h-306v3z" />
    <glyph glyph-name="lacute" unicode="&#x13a;" horiz-adv-x="538" 
d="M92 0v1319h354v-1319h-354zM307 1695h373v-3l-281 -278h-306v3z" />
    <glyph glyph-name="uni013B" unicode="&#x13b;" horiz-adv-x="1029" 
d="M467 0h-363v1278h363v-1278zM312 304h667v-304h-667v304zM681 -90q2 -18 4 -40t2 -44q0 -94 -29.5 -171.5t-96.5 -148.5l-228 50q28 57 43 121.5t15 145.5q0 22 -1 42.5t-3 44.5h294z" />
    <glyph glyph-name="uni013C" unicode="&#x13c;" horiz-adv-x="538" 
d="M92 0v1319h354v-1319h-354zM422 -90q2 -18 4 -40t2 -44q0 -94 -29.5 -171.5t-96.5 -148.5l-228 50q28 57 43 121.5t15 145.5q0 22 -1 42.5t-3 44.5h294z" />
    <glyph glyph-name="Lcaron" unicode="&#x13d;" horiz-adv-x="1029" 
d="M467 0h-363v1278h363v-1278zM312 304h667v-304h-667v304zM934 1278q3 -17 5.5 -39.5t2.5 -48.5q0 -106 -28 -198t-89 -173l-212 48q19 66 29.5 141.5t10.5 165.5q0 27 -1.5 50.5t-3.5 53.5h286z" />
    <glyph glyph-name="lcaron" unicode="&#x13e;" horiz-adv-x="819" 
d="M92 0v1319h354v-1319h-354zM823 1319q3 -17 5.5 -39.5t2.5 -48.5q0 -106 -28 -198t-89 -173l-212 48q19 66 29.5 141.5t10.5 165.5q0 27 -1.5 50.5t-3.5 53.5h286z" />
    <glyph glyph-name="Ldot" unicode="&#x13f;" horiz-adv-x="1014" 
d="M467 0h-363v1278h363v-1278zM312 304h667v-304h-667v304zM792 580q-82 0 -122.5 43t-40.5 116v10q0 74 40.5 117t122.5 43q83 0 124 -43t41 -117v-10q0 -73 -41 -116t-124 -43z" />
    <glyph glyph-name="ldot" unicode="&#x140;" horiz-adv-x="759" 
d="M92 0v1319h354v-1319h-354zM648 552q-79 0 -118 43t-39 116v10q0 74 39 117t118 43q80 0 119 -43t39 -117v-10q0 -73 -39 -116t-119 -43z" />
    <glyph glyph-name="Lslash" unicode="&#x141;" horiz-adv-x="1045" 
d="M724 996v-203l-724 -291v204zM483 0h-363v1278h363v-1278zM328 304h667v-304h-667v304z" />
    <glyph glyph-name="lslash" unicode="&#x142;" horiz-adv-x="558" 
d="M-11 403v222l580 363v-222zM102 0v1319h354v-1319h-354z" />
    <glyph glyph-name="Nacute" unicode="&#x143;" horiz-adv-x="1329" 
d="M593 1279l292 -884h14l-16 534v350h342v-1279h-474l-306 910h-14l16 -542v-368h-343v1279h489zM707 1654h373v-3l-281 -278h-306v3z" />
    <glyph glyph-name="nacute" unicode="&#x144;" horiz-adv-x="1156" 
d="M717 0v566q0 47 -11.5 81t-39.5 52t-76 18q-37 0 -66 -13t-49.5 -34.5t-32.5 -48.5l-54 146h57q15 69 50.5 123.5t99 86.5t162.5 32q108 0 177.5 -42t103 -126.5t33.5 -213.5v-627h-354zM92 0v985h352l-11 -253l13 -36v-696h-354zM590 1376h362v-4l-244 -297h-287v3z" />
    <glyph glyph-name="uni0145" unicode="&#x145;" horiz-adv-x="1329" 
d="M593 1279l292 -884h14l-16 534v350h342v-1279h-474l-306 910h-14l16 -542v-368h-343v1279h489zM822 -90q2 -18 4 -40t2 -44q0 -94 -29.5 -171.5t-96.5 -148.5l-228 50q28 57 43 121.5t15 145.5q0 22 -1 42.5t-3 44.5h294z" />
    <glyph glyph-name="uni0146" unicode="&#x146;" horiz-adv-x="1156" 
d="M717 0v566q0 47 -11.5 81t-39.5 52t-76 18q-37 0 -66 -13t-49.5 -34.5t-32.5 -48.5l-54 146h57q15 69 50.5 123.5t99 86.5t162.5 32q108 0 177.5 -42t103 -126.5t33.5 -213.5v-627h-354zM92 0v985h352l-11 -253l13 -36v-696h-354zM731 -90q2 -18 4 -40t2 -44
q0 -94 -29.5 -171.5t-96.5 -148.5l-228 50q28 57 43 121.5t15 145.5q0 22 -1 42.5t-3 44.5h294z" />
    <glyph glyph-name="Ncaron" unicode="&#x147;" horiz-adv-x="1329" 
d="M593 1279l292 -884h14l-16 534v350h342v-1279h-474l-306 910h-14l16 -542v-368h-343v1279h489zM493 1373l-200 276v5h268l104 -117h9l104 117h268v-5l-200 -276h-353z" />
    <glyph glyph-name="ncaron" unicode="&#x148;" horiz-adv-x="1156" 
d="M717 0v566q0 47 -11.5 81t-39.5 52t-76 18q-37 0 -66 -13t-49.5 -34.5t-32.5 -48.5l-54 146h57q15 69 50.5 123.5t99 86.5t162.5 32q108 0 177.5 -42t103 -126.5t33.5 -213.5v-627h-354zM92 0v985h352l-11 -253l13 -36v-696h-354zM396 1075l-173 296v5h258l93 -135h9
l95 135h256v-5l-173 -296h-365z" />
    <glyph glyph-name="Eng" unicode="&#x14a;" horiz-adv-x="1355" 
d="M130 0v1279h469l309 -676h14l-13 326v350h342v-1206l-223 -73h-104l-453 930h-14l16 -562v-368h-343zM875 -362q-48 0 -89.5 4.5t-72.5 12.5l-25 279q17 -5 38.5 -8t43.5 -3q78 0 104 33t26 90v160h351v-175q0 -118 -35.5 -206t-117.5 -137.5t-223 -49.5z" />
    <glyph glyph-name="eng" unicode="&#x14b;" horiz-adv-x="1156" 
d="M717 140v426q0 47 -11.5 81t-39.5 52t-76 18q-37 0 -66 -13t-49.5 -34.5t-32.5 -48.5l-54 146h57q15 69 50.5 123.5t99 86.5t162.5 32q108 0 177.5 -42t103 -126.5t33.5 -213.5v-487h-354zM92 0v985h352l-11 -253l13 -36v-696h-354zM708 -362q-45 0 -84 4.5t-68 12.5
l-25 279q18 -5 36.5 -8t37.5 -3q69 0 90.5 36t21.5 97v150h354v-175q0 -118 -34.5 -206t-113.5 -137.5t-215 -49.5z" />
    <glyph glyph-name="Omacron" unicode="&#x14c;" horiz-adv-x="1294" 
d="M647 -33q-291 0 -435 141.5t-144 409.5v226q0 269 145 416t434 147t434 -147t145 -416v-226q0 -268 -144 -409.5t-435 -141.5zM647 265q107 0 158.5 61.5t51.5 173.5v263q0 120 -51.5 184t-158.5 64t-158.5 -64t-51.5 -184v-263q0 -112 51.5 -173.5t158.5 -61.5z
M318 1387v209h657v-209h-657z" />
    <glyph glyph-name="omacron" unicode="&#x14d;" horiz-adv-x="1112" 
d="M556 -30q-247 0 -372.5 120.5t-125.5 334.5v125q0 219 126 342t372 123q247 0 372.5 -123t125.5 -342v-125q0 -214 -125 -334.5t-373 -120.5zM556 248q71 0 107.5 42.5t36.5 121.5v152q0 85 -36.5 129t-107.5 44q-70 0 -107 -44t-37 -129v-152q0 -79 37 -121.5t107 -42.5
zM229 1094v209h657v-209h-657z" />
    <glyph glyph-name="Obreve" unicode="&#x14e;" horiz-adv-x="1294" 
d="M647 -33q-291 0 -435 141.5t-144 409.5v226q0 269 145 416t434 147t434 -147t145 -416v-226q0 -268 -144 -409.5t-435 -141.5zM647 265q107 0 158.5 61.5t51.5 173.5v263q0 120 -51.5 184t-158.5 64t-158.5 -64t-51.5 -184v-263q0 -112 51.5 -173.5t158.5 -61.5z
M647 1361q-173 0 -250.5 77t-80.5 216h220q3 -46 29 -73t82 -27q55 0 81.5 26.5t29.5 73.5h220q-3 -139 -79.5 -216t-251.5 -77z" />
    <glyph glyph-name="obreve" unicode="&#x14f;" horiz-adv-x="1112" 
d="M556 -30q-247 0 -372.5 120.5t-125.5 334.5v125q0 219 126 342t372 123q247 0 372.5 -123t125.5 -342v-125q0 -214 -125 -334.5t-373 -120.5zM556 248q71 0 107.5 42.5t36.5 121.5v152q0 85 -36.5 129t-107.5 44q-70 0 -107 -44t-37 -129v-152q0 -79 37 -121.5t107 -42.5
zM557 1064q-174 0 -252 82.5t-80 229.5h223q3 -51 28 -80t81 -29q55 0 80.5 28.5t28.5 80.5h223q-2 -147 -79 -229.5t-253 -82.5z" />
    <glyph glyph-name="Ohungarumlaut" unicode="&#x150;" horiz-adv-x="1294" 
d="M647 -33q-291 0 -435 141.5t-144 409.5v226q0 269 145 416t434 147t434 -147t145 -416v-226q0 -268 -144 -409.5t-435 -141.5zM647 265q107 0 158.5 61.5t51.5 173.5v263q0 120 -51.5 184t-158.5 64t-158.5 -64t-51.5 -184v-263q0 -112 51.5 -173.5t158.5 -61.5z
M827 1654h296v-4l-191 -277h-236v2zM470 1654h294v-4l-187 -277h-238v2z" />
    <glyph glyph-name="ohungarumlaut" unicode="&#x151;" horiz-adv-x="1112" 
d="M556 -30q-247 0 -372.5 120.5t-125.5 334.5v125q0 219 126 342t372 123q247 0 372.5 -123t125.5 -342v-125q0 -214 -125 -334.5t-373 -120.5zM556 248q71 0 107.5 42.5t36.5 121.5v152q0 85 -36.5 129t-107.5 44q-70 0 -107 -44t-37 -129v-152q0 -79 37 -121.5t107 -42.5
zM729 1376h301v-5l-186 -296h-236v2zM372 1376h301v-5l-184 -296h-238v2z" />
    <glyph glyph-name="OE" unicode="&#x152;" horiz-adv-x="1859" 
d="M643 -38q-284 0 -429.5 144.5t-145.5 420.5v220q0 272 145.5 418.5t429.5 146.5q290 0 435.5 -150.5t145.5 -414.5v-220q0 -268 -145.5 -416.5t-435.5 -148.5zM647 260q107 0 158.5 65t51.5 187v250q0 122 -51.5 187t-158.5 65t-158.5 -65t-51.5 -187v-250
q0 -122 51.5 -187t158.5 -65zM842 0v301h941v-301h-941zM1065 504v287h693v-287h-693zM842 980v298h932v-298h-932z" />
    <glyph glyph-name="oe" unicode="&#x153;" horiz-adv-x="1723" 
d="M507 -30q-220 0 -334.5 122t-114.5 355v93q0 234 114.5 355.5t333.5 121.5q129 0 217 -49.5t134 -132.5h11q51 89 139 135.5t217 46.5q145 0 243.5 -52.5t148.5 -151t50 -238.5v-31q0 -40 -3.5 -81.5t-10.5 -76.5h-317q4 65 5.5 120t1.5 92q0 53 -16 88.5t-50 54
t-88 18.5q-81 0 -117.5 -46t-36.5 -116v-89l2 -38v-62q0 -69 61 -115.5t226 -46.5q86 0 168.5 14.5t159.5 40.5l-28 -257q-64 -34 -151.5 -52.5t-193.5 -18.5q-150 0 -249.5 45.5t-158.5 133.5h-11q-49 -85 -135 -133.5t-217 -48.5zM887 386v208h694v-208h-694zM553 248
q71 0 109 44.5t38 130.5v141q0 86 -38 130.5t-109 44.5q-69 0 -105 -44.5t-36 -130.5v-141q0 -86 36 -130.5t105 -44.5z" />
    <glyph glyph-name="Racute" unicode="&#x154;" horiz-adv-x="1230" 
d="M814 0l-20 233q-5 61 -23 97t-53 52t-92 16l-270 1v274l278 1q87 0 126 36.5t39 113.5v17q0 77 -38 113.5t-127 36.5h-279v287h332q245 0 358 -91t113 -266v-23q0 -133 -70.5 -202.5t-207.5 -74.5v-52l-56 48q119 -8 184.5 -47.5t97 -112t44.5 -181.5l34 -276h-370z
M104 0v1278h351v-704l2 -134v-440h-353zM653 1654h373v-3l-281 -278h-306v3z" />
    <glyph glyph-name="racute" unicode="&#x155;" horiz-adv-x="810" 
d="M441 535l-102 200h83q20 125 88 195.5t195 70.5q19 0 35.5 -2t32.5 -5l17 -360q-20 4 -47.5 6t-53.5 2q-94 0 -156 -28.5t-92 -78.5zM92 0v985h330l-14 -326h38v-659h-354zM431 1376h362v-4l-244 -297h-287v3z" />
    <glyph glyph-name="uni0156" unicode="&#x156;" horiz-adv-x="1230" 
d="M814 0l-20 233q-5 61 -23 97t-53 52t-92 16l-270 1v274l278 1q87 0 126 36.5t39 113.5v17q0 77 -38 113.5t-127 36.5h-279v287h332q245 0 358 -91t113 -266v-23q0 -133 -70.5 -202.5t-207.5 -74.5v-52l-56 48q119 -8 184.5 -47.5t97 -112t44.5 -181.5l34 -276h-370z
M104 0v1278h351v-704l2 -134v-440h-353zM777 -90q2 -18 4 -40t2 -44q0 -94 -29.5 -171.5t-96.5 -148.5l-228 50q28 57 43 121.5t15 145.5q0 22 -1 42.5t-3 44.5h294z" />
    <glyph glyph-name="uni0157" unicode="&#x157;" horiz-adv-x="810" 
d="M441 535l-102 200h83q20 125 88 195.5t195 70.5q19 0 35.5 -2t32.5 -5l17 -360q-20 4 -47.5 6t-53.5 2q-94 0 -156 -28.5t-92 -78.5zM92 0v985h330l-14 -326h38v-659h-354zM421 -90q2 -18 4 -40t2 -44q0 -94 -29.5 -171.5t-96.5 -148.5l-228 50q28 57 43 121.5t15 145.5
q0 22 -1 42.5t-3 44.5h294z" />
    <glyph glyph-name="Rcaron" unicode="&#x158;" horiz-adv-x="1230" 
d="M814 0l-20 233q-5 61 -23 97t-53 52t-92 16l-270 1v274l278 1q87 0 126 36.5t39 113.5v17q0 77 -38 113.5t-127 36.5h-279v287h332q245 0 358 -91t113 -266v-23q0 -133 -70.5 -202.5t-207.5 -74.5v-52l-56 48q119 -8 184.5 -47.5t97 -112t44.5 -181.5l34 -276h-370z
M104 0v1278h351v-704l2 -134v-440h-353zM439 1373l-200 276v5h268l104 -117h9l104 117h268v-5l-200 -276h-353z" />
    <glyph glyph-name="rcaron" unicode="&#x159;" horiz-adv-x="810" 
d="M441 535l-102 200h83q20 125 88 195.5t195 70.5q19 0 35.5 -2t32.5 -5l17 -360q-20 4 -47.5 6t-53.5 2q-94 0 -156 -28.5t-92 -78.5zM92 0v985h330l-14 -326h38v-659h-354zM237 1075l-173 296v5h258l93 -135h9l95 135h256v-5l-173 -296h-365z" />
    <glyph glyph-name="Sacute" unicode="&#x15a;" horiz-adv-x="1093" 
d="M516 -29q-88 0 -166 11t-143 28.5t-115 36.5l-31 328q80 -34 189 -64.5t229 -30.5q107 0 149.5 22t42.5 71v4q0 33 -20.5 54.5t-68.5 41t-129 45.5q-131 42 -221 91.5t-136 124t-46 190.5v15q0 179 123.5 273.5t360.5 94.5q139 0 240.5 -23t175.5 -56l31 -306
q-80 36 -178 59.5t-206 23.5q-71 0 -110.5 -9.5t-54.5 -28t-15 -45.5v-3q0 -28 18.5 -49.5t67.5 -43.5t140 -51q130 -41 218.5 -86t133.5 -115.5t45 -190.5v-14q0 -199 -129 -298.5t-395 -99.5zM575 1654h373v-3l-281 -278h-306v3z" />
    <glyph glyph-name="sacute" unicode="&#x15b;" horiz-adv-x="950" 
d="M457 -25q-117 0 -213 19t-166 45l-29 291q78 -30 173.5 -54.5t203.5 -24.5q79 0 108.5 13t29.5 42v2q0 22 -17 35t-59.5 24.5t-117.5 28.5q-123 29 -195 69.5t-103 98.5t-31 138v8q0 152 109.5 226.5t319.5 74.5q113 0 206.5 -19.5t157.5 -47.5l29 -271q-73 29 -163 48.5
t-184 19.5q-54 0 -83.5 -5.5t-40.5 -16.5t-11 -27v-2q0 -18 14 -30.5t53 -24.5t114 -30q123 -28 200 -62t113 -88.5t36 -147.5v-6q0 -166 -111 -246t-343 -80zM481 1376h362v-4l-244 -297h-287v3z" />
    <glyph glyph-name="Scircumflex" unicode="&#x15c;" horiz-adv-x="1093" 
d="M516 -29q-88 0 -166 11t-143 28.5t-115 36.5l-31 328q80 -34 189 -64.5t229 -30.5q107 0 149.5 22t42.5 71v4q0 33 -20.5 54.5t-68.5 41t-129 45.5q-131 42 -221 91.5t-136 124t-46 190.5v15q0 179 123.5 273.5t360.5 94.5q139 0 240.5 -23t175.5 -56l31 -306
q-80 36 -178 59.5t-206 23.5q-71 0 -110.5 -9.5t-54.5 -28t-15 -45.5v-3q0 -28 18.5 -49.5t67.5 -43.5t140 -51q130 -41 218.5 -86t133.5 -115.5t45 -190.5v-14q0 -199 -129 -298.5t-395 -99.5zM362 1654h353l200 -276v-5h-268l-104 117h-9l-104 -117h-268v5z" />
    <glyph glyph-name="scircumflex" unicode="&#x15d;" horiz-adv-x="950" 
d="M457 -25q-117 0 -213 19t-166 45l-29 291q78 -30 173.5 -54.5t203.5 -24.5q79 0 108.5 13t29.5 42v2q0 22 -17 35t-59.5 24.5t-117.5 28.5q-123 29 -195 69.5t-103 98.5t-31 138v8q0 152 109.5 226.5t319.5 74.5q113 0 206.5 -19.5t157.5 -47.5l29 -271q-73 29 -163 48.5
t-184 19.5q-54 0 -83.5 -5.5t-40.5 -16.5t-11 -27v-2q0 -18 14 -30.5t53 -24.5t114 -30q123 -28 200 -62t113 -88.5t36 -147.5v-6q0 -166 -111 -246t-343 -80zM287 1376h365l173 -297v-4h-257l-94 134h-9l-94 -134h-257v4z" />
    <glyph glyph-name="Scedilla" unicode="&#x15e;" horiz-adv-x="1093" 
d="M516 -29q-88 0 -166 11t-143 28.5t-115 36.5l-31 328q80 -34 189 -64.5t229 -30.5q107 0 149.5 22t42.5 71v4q0 33 -20.5 54.5t-68.5 41t-129 45.5q-131 42 -221 91.5t-136 124t-46 190.5v15q0 179 123.5 273.5t360.5 94.5q139 0 240.5 -23t175.5 -56l31 -306
q-80 36 -178 59.5t-206 23.5q-71 0 -110.5 -9.5t-54.5 -28t-15 -45.5v-3q0 -28 18.5 -49.5t67.5 -43.5t140 -51q130 -41 218.5 -86t133.5 -115.5t45 -190.5v-14q0 -199 -129 -298.5t-395 -99.5zM651 32l-27 -174l-133 68q24 2 47 2.5t46 0.5q113 0 165 -39.5t52 -113.5v-6
q0 -90 -66 -132.5t-195 -42.5q-46 0 -87.5 5t-74.5 12l-29 168q30 -6 63 -9.5t62 -3.5q50 0 72.5 6t22.5 24v2q0 19 -30 27.5t-124 11.5h-2h-2l25 194h215z" />
    <glyph glyph-name="scedilla" unicode="&#x15f;" horiz-adv-x="950" 
d="M457 -25q-117 0 -213 19t-166 45l-29 291q78 -30 173.5 -54.5t203.5 -24.5q79 0 108.5 13t29.5 42v2q0 22 -17 35t-59.5 24.5t-117.5 28.5q-123 29 -195 69.5t-103 98.5t-31 138v8q0 152 109.5 226.5t319.5 74.5q113 0 206.5 -19.5t157.5 -47.5l29 -271q-73 29 -163 48.5
t-184 19.5q-54 0 -83.5 -5.5t-40.5 -16.5t-11 -27v-2q0 -18 14 -30.5t53 -24.5t114 -30q123 -28 200 -62t113 -88.5t36 -147.5v-6q0 -166 -111 -246t-343 -80zM585 37l-27 -174l-133 68q24 2 47 2.5t46 0.5q113 0 165 -39.5t52 -113.5v-6q0 -90 -66 -132.5t-195 -42.5
q-46 0 -87.5 5t-74.5 12l-29 168q30 -6 63 -9.5t62 -3.5q50 0 72.5 6t22.5 24v2q0 19 -30 27.5t-124 11.5h-2h-2l25 194h215z" />
    <glyph glyph-name="Scaron" unicode="&#x160;" horiz-adv-x="1093" 
d="M516 -29q-88 0 -166 11t-143 28.5t-115 36.5l-31 328q80 -34 189 -64.5t229 -30.5q107 0 149.5 22t42.5 71v4q0 33 -20.5 54.5t-68.5 41t-129 45.5q-131 42 -221 91.5t-136 124t-46 190.5v15q0 179 123.5 273.5t360.5 94.5q139 0 240.5 -23t175.5 -56l31 -306
q-80 36 -178 59.5t-206 23.5q-71 0 -110.5 -9.5t-54.5 -28t-15 -45.5v-3q0 -28 18.5 -49.5t67.5 -43.5t140 -51q130 -41 218.5 -86t133.5 -115.5t45 -190.5v-14q0 -199 -129 -298.5t-395 -99.5zM361 1373l-200 276v5h268l104 -117h9l104 117h268v-5l-200 -276h-353z" />
    <glyph glyph-name="scaron" unicode="&#x161;" horiz-adv-x="950" 
d="M457 -25q-117 0 -213 19t-166 45l-29 291q78 -30 173.5 -54.5t203.5 -24.5q79 0 108.5 13t29.5 42v2q0 22 -17 35t-59.5 24.5t-117.5 28.5q-123 29 -195 69.5t-103 98.5t-31 138v8q0 152 109.5 226.5t319.5 74.5q113 0 206.5 -19.5t157.5 -47.5l29 -271q-73 29 -163 48.5
t-184 19.5q-54 0 -83.5 -5.5t-40.5 -16.5t-11 -27v-2q0 -18 14 -30.5t53 -24.5t114 -30q123 -28 200 -62t113 -88.5t36 -147.5v-6q0 -166 -111 -246t-343 -80zM287 1075l-173 296v5h258l93 -135h9l95 135h256v-5l-173 -296h-365z" />
    <glyph glyph-name="uni0162" unicode="&#x162;" horiz-adv-x="1142" 
d="M390 0v1207h363v-1207h-363zM47 977v301h1048v-301h-1048zM684 32l-27 -174l-133 68q24 2 47 2.5t46 0.5q113 0 165 -39.5t52 -113.5v-6q0 -90 -66 -132.5t-195 -42.5q-46 0 -87.5 5t-74.5 12l-29 168q30 -6 63 -9.5t62 -3.5q50 0 72.5 6t22.5 24v2q0 19 -30 27.5
t-124 11.5h-2h-2l25 194h215z" />
    <glyph glyph-name="uni0163" unicode="&#x163;" horiz-adv-x="819" 
d="M498 -23q-137 0 -217.5 41.5t-115 123.5t-34.5 202v528h351v-468q0 -64 29 -93.5t114 -29.5q46 0 91.5 10.5t82.5 24.5l-30 -290q-52 -22 -120 -35.5t-151 -13.5zM8 708v277h781l-30 -277h-751zM136 961l-1 247l349 31l-12 -278h-336zM556 37l-27 -174l-133 68
q24 2 47 2.5t46 0.5q113 0 165 -39.5t52 -113.5v-6q0 -90 -66 -132.5t-195 -42.5q-46 0 -87.5 5t-74.5 12l-29 168q30 -6 63 -9.5t62 -3.5q50 0 72.5 6t22.5 24v2q0 19 -30 27.5t-124 11.5h-2h-2l25 194h215z" />
    <glyph glyph-name="Tcaron" unicode="&#x164;" horiz-adv-x="1142" 
d="M390 0v1207h363v-1207h-363zM47 977v301h1048v-301h-1048zM394 1373l-200 276v5h268l104 -117h9l104 117h268v-5l-200 -276h-353z" />
    <glyph glyph-name="tcaron" unicode="&#x165;" horiz-adv-x="819" 
d="M834 1433q2 -15 4.5 -34.5t2.5 -41.5q0 -93 -25 -173t-78 -151l-187 42q17 58 26 123.5t9 144.5q0 23 -1 43.5t-3 46.5h252zM498 -23q-137 0 -217.5 41.5t-115 123.5t-34.5 202v528h351v-468q0 -64 29 -93.5t114 -29.5q46 0 91.5 10.5t82.5 24.5l-30 -290
q-52 -22 -120 -35.5t-151 -13.5zM8 708v277h781l-30 -277h-751zM136 961l-1 247l349 31l-12 -278h-336z" />
    <glyph glyph-name="Tbar" unicode="&#x166;" horiz-adv-x="1142" 
d="M137 447v195l869 -1v-195zM390 0v1207h363v-1207h-363zM47 977v301h1048v-301h-1048z" />
    <glyph glyph-name="tbar" unicode="&#x167;" horiz-adv-x="819" 
d="M498 -24q-137 0 -217.5 41.5t-115 123.5t-34.5 202v529h351v-469q0 -64 29 -93.5t114 -29.5q46 0 91.5 10.5t82.5 24.5l-30 -290q-52 -22 -120 -35.5t-151 -13.5zM18 425v194h730v-194h-730zM8 718v267h781l-30 -267h-751zM136 961l-1 247l349 31l-12 -278h-336z" />
    <glyph glyph-name="Utilde" unicode="&#x168;" horiz-adv-x="1309" 
d="M655 -33q-286 0 -423 135.5t-137 397.5v778h363v-783q0 -112 48 -168t149 -56t148.5 56t47.5 168v783h363v-778q0 -262 -136.5 -397.5t-422.5 -135.5zM791 1380q-36 0 -69.5 7.5t-63.5 17t-57 17t-50 7.5q-29 0 -40 -15t-12 -46v-1h-191v39q0 102 47.5 169t165.5 67
q38 0 71.5 -7.5t62.5 -17t55 -17t49 -7.5q29 0 39.5 15t11.5 46v1h192v-34q0 -106 -47 -173.5t-164 -67.5z" />
    <glyph glyph-name="utilde" unicode="&#x169;" horiz-adv-x="1156" 
d="M439 985v-566q0 -47 11.5 -81t39.5 -52t76 -18q38 0 66.5 13t49 35t32.5 48l54 -146h-57q-15 -68 -50.5 -123t-98.5 -87t-163 -32q-107 0 -177 42t-103.5 126.5t-33.5 213.5v627h354zM1064 985v-985h-352l11 253l-13 36v696h354zM715 1082q-36 0 -69.5 7.5t-63.5 18
t-57 18t-50 7.5q-29 0 -40 -15.5t-12 -47.5v-1h-191v40q0 107 46.5 176.5t164.5 69.5q40 0 74 -7.5t63 -18t55 -18t49 -7.5q28 0 38.5 16t11.5 47v1h192v-43q0 -107 -47 -175t-164 -68z" />
    <glyph glyph-name="Umacron" unicode="&#x16a;" horiz-adv-x="1309" 
d="M655 -33q-286 0 -423 135.5t-137 397.5v778h363v-783q0 -112 48 -168t149 -56t148.5 56t47.5 168v783h363v-778q0 -262 -136.5 -397.5t-422.5 -135.5zM326 1387v209h657v-209h-657z" />
    <glyph glyph-name="umacron" unicode="&#x16b;" horiz-adv-x="1156" 
d="M439 985v-566q0 -47 11.5 -81t39.5 -52t76 -18q38 0 66.5 13t49 35t32.5 48l54 -146h-57q-15 -68 -50.5 -123t-98.5 -87t-163 -32q-107 0 -177 42t-103.5 126.5t-33.5 213.5v627h354zM1064 985v-985h-352l11 253l-13 36v696h354zM251 1094v209h657v-209h-657z" />
    <glyph glyph-name="Ubreve" unicode="&#x16c;" horiz-adv-x="1309" 
d="M655 -33q-286 0 -423 135.5t-137 397.5v778h363v-783q0 -112 48 -168t149 -56t148.5 56t47.5 168v783h363v-778q0 -262 -136.5 -397.5t-422.5 -135.5zM655 1361q-173 0 -250.5 77t-80.5 216h220q3 -46 29 -73t82 -27q55 0 81.5 26.5t29.5 73.5h220q-3 -139 -79.5 -216
t-251.5 -77z" />
    <glyph glyph-name="ubreve" unicode="&#x16d;" horiz-adv-x="1156" 
d="M439 985v-566q0 -47 11.5 -81t39.5 -52t76 -18q38 0 66.5 13t49 35t32.5 48l54 -146h-57q-15 -68 -50.5 -123t-98.5 -87t-163 -32q-107 0 -177 42t-103.5 126.5t-33.5 213.5v627h354zM1064 985v-985h-352l11 253l-13 36v696h354zM579 1064q-174 0 -252 82.5t-80 229.5
h223q3 -51 28 -80t81 -29q55 0 80.5 28.5t28.5 80.5h223q-2 -147 -79 -229.5t-253 -82.5z" />
    <glyph glyph-name="Uring" unicode="&#x16e;" horiz-adv-x="1309" 
d="M655 -33q-286 0 -423 135.5t-137 397.5v778h363v-783q0 -112 48 -168t149 -56t148.5 56t47.5 168v783h363v-778q0 -262 -136.5 -397.5t-422.5 -135.5zM416 1522v7q0 82 56 134.5t183 52.5t183 -52.5t56 -134.5v-7q0 -81 -56 -134t-183 -53t-183 53t-56 134zM580 1524
q0 -28 19 -44t56 -16q36 0 55 16t19 44v4q0 28 -19 43t-55 15q-37 0 -56 -15t-19 -43v-4z" />
    <glyph glyph-name="uring" unicode="&#x16f;" horiz-adv-x="1156" 
d="M439 985v-566q0 -47 11.5 -81t39.5 -52t76 -18q38 0 66.5 13t49 35t32.5 48l54 -146h-57q-15 -68 -50.5 -123t-98.5 -87t-163 -32q-107 0 -177 42t-103.5 126.5t-33.5 213.5v627h354zM1064 985v-985h-352l11 253l-13 36v696h354zM340 1245v7q0 82 56 134.5t183 52.5
t183 -52.5t56 -134.5v-7q0 -81 -56 -134t-183 -53t-183 53t-56 134zM504 1247q0 -28 19 -44t56 -16q36 0 55 16t19 44v4q0 28 -19 43t-55 15q-37 0 -56 -15t-19 -43v-4z" />
    <glyph glyph-name="Uhungarumlaut" unicode="&#x170;" horiz-adv-x="1309" 
d="M655 -33q-286 0 -423 135.5t-137 397.5v778h363v-783q0 -112 48 -168t149 -56t148.5 56t47.5 168v783h363v-778q0 -262 -136.5 -397.5t-422.5 -135.5zM835 1654h296v-4l-191 -277h-236v2zM478 1654h294v-4l-187 -277h-238v2z" />
    <glyph glyph-name="uhungarumlaut" unicode="&#x171;" horiz-adv-x="1156" 
d="M439 985v-566q0 -47 11.5 -81t39.5 -52t76 -18q38 0 66.5 13t49 35t32.5 48l54 -146h-57q-15 -68 -50.5 -123t-98.5 -87t-163 -32q-107 0 -177 42t-103.5 126.5t-33.5 213.5v627h354zM1064 985v-985h-352l11 253l-13 36v696h354zM751 1376h301v-5l-186 -296h-236v2z
M394 1376h301v-5l-184 -296h-238v2z" />
    <glyph glyph-name="Uogonek" unicode="&#x172;" horiz-adv-x="1309" 
d="M808 -362q-112 0 -182.5 38.5t-70.5 119.5v2q0 59 34 97t103 60v20l183 62l-5 -46q-34 -10 -53.5 -26.5t-19.5 -40.5v0q0 -28 26.5 -39t76.5 -11q32 0 62.5 5t60.5 12l-29 -223q-42 -15 -87.5 -22.5t-98.5 -7.5zM655 -33q-286 0 -423 135.5t-137 397.5v778h363v-783
q0 -112 48 -168t149 -56t148.5 56t47.5 168v783h363v-778q0 -262 -136.5 -397.5t-422.5 -135.5z" />
    <glyph glyph-name="uogonek" unicode="&#x173;" horiz-adv-x="1156" 
d="M439 985v-566q0 -47 11.5 -81t39.5 -52t76 -18q38 0 66.5 13t49 35t32.5 48l54 -146h-57q-15 -68 -50.5 -123t-98.5 -87t-163 -32q-107 0 -177 42t-103.5 126.5t-33.5 213.5v627h354zM1064 985v-985h-352l11 253l-13 36v696h354zM913 -363q-109 0 -175.5 43t-66.5 131v1
q0 70 40.5 113t107.5 65v30h218v-20q-61 -7 -92 -26.5t-31 -48.5v0q0 -29 22.5 -41t65.5 -12q28 0 54 3.5t51 9.5l-29 -220q-37 -14 -77.5 -21t-87.5 -7z" />
    <glyph glyph-name="Wcircumflex" unicode="&#x174;" horiz-adv-x="1749" 
d="M241 0l-211 1278h366l104 -872l12 -104h18l15 104l119 845h422l118 -845l15 -104h18l13 103l106 873h363l-209 -1278h-503l-104 797l-20 156h-16l-21 -156l-102 -797h-503zM699 1654h353l200 -276v-5h-268l-104 117h-9l-104 -117h-268v5z" />
    <glyph glyph-name="wcircumflex" unicode="&#x175;" horiz-adv-x="1589" 
d="M199 0l-182 985h357l99 -736h19l94 713h418l97 -713h17l101 736h353l-182 -985h-497l-78 604l-12 100h-14l-13 -100l-79 -604h-498zM612 1376h365l173 -297v-4h-257l-94 134h-9l-94 -134h-257v4z" />
    <glyph glyph-name="Ycircumflex" unicode="&#x176;" horiz-adv-x="1197" 
d="M436 318l-436 960h377l138 -350l75 -208h17l75 208l137 350h377l-434 -960h-326zM421 0v640h356v-640h-356zM422 1654h353l200 -276v-5h-268l-104 117h-9l-104 -117h-268v5z" />
    <glyph glyph-name="ycircumflex" unicode="&#x177;" horiz-adv-x="1075" 
d="M695 276l-190 -82l197 791h362l-382 -1329h-353l153 518l168 -131h-390l-249 942h364l138 -709h182zM355 1376h365l173 -297v-4h-257l-94 134h-9l-94 -134h-257v4z" />
    <glyph glyph-name="Ydieresis" unicode="&#x178;" horiz-adv-x="1197" 
d="M436 318l-436 960h377l138 -350l75 -208h17l75 208l137 350h377l-434 -960h-326zM421 0v640h356v-640h-356zM415 1361q-78 0 -116.5 40.5t-38.5 113.5v8q0 74 38.5 115t116.5 41q80 0 118.5 -41t38.5 -115v-8q0 -73 -38.5 -113.5t-118.5 -40.5zM780 1361q-79 0 -117 40.5
t-38 113.5v8q0 74 38 115t117 41q78 0 117 -41t39 -115v-8q0 -73 -39 -113.5t-117 -40.5z" />
    <glyph glyph-name="Zacute" unicode="&#x179;" horiz-adv-x="1093" 
d="M1038 302v-302h-984v284l552 693h-542v301h963v-282l-554 -694h565zM584 1654h373v-3l-281 -278h-306v3z" />
    <glyph glyph-name="zacute" unicode="&#x17a;" horiz-adv-x="966" 
d="M905 290v-290h-844v263l411 433h-407v289h834v-262l-413 -433h419zM494 1376h362v-4l-244 -297h-287v3z" />
    <glyph glyph-name="Zdotaccent" unicode="&#x17b;" horiz-adv-x="1093" 
d="M1038 302v-302h-984v284l552 693h-542v301h963v-282l-554 -694h565zM546 1365q-84 0 -125.5 41t-41.5 111v6q0 71 41.5 112t125.5 41q86 0 127.5 -41t41.5 -112v-6q0 -70 -41.5 -111t-127.5 -41z" />
    <glyph glyph-name="zdotaccent" unicode="&#x17c;" horiz-adv-x="966" 
d="M905 290v-290h-844v263l411 433h-407v289h834v-262l-413 -433h419zM482 1057q-88 0 -131 43t-43 116v7q0 74 43 118t131 44q89 0 132.5 -44t43.5 -118v-7q0 -73 -43.5 -116t-132.5 -43z" />
    <glyph glyph-name="Zcaron" unicode="&#x17d;" horiz-adv-x="1093" 
d="M1038 302v-302h-984v284l552 693h-542v301h963v-282l-554 -694h565zM370 1373l-200 276v5h268l104 -117h9l104 117h268v-5l-200 -276h-353z" />
    <glyph glyph-name="zcaron" unicode="&#x17e;" horiz-adv-x="966" 
d="M905 290v-290h-844v263l411 433h-407v289h834v-262l-413 -433h419zM300 1075l-173 296v5h258l93 -135h9l95 135h256v-5l-173 -296h-365z" />
    <glyph glyph-name="uni018F" unicode="&#x18f;" horiz-adv-x="1239" 
d="M607 -29q-272 0 -410.5 137t-138.5 390v29q0 75 3 130.5t13 109.5h871v-252l-605 2l71 79v-120q0 -105 49.5 -156t146.5 -51q104 0 150.5 56t46.5 168v248q0 140 -70 201.5t-243 61.5q-118 0 -219 -24t-184 -57l31 296q53 28 122 48.5t151 32t173 11.5q304 0 455 -149
t151 -432v-203q0 -181 -63 -305t-188.5 -187.5t-312.5 -63.5z" />
    <glyph glyph-name="florin" unicode="&#x192;" horiz-adv-x="932" 
d="M38 663l19 277h794l-19 -277h-794zM904 1056q-56 15 -104.5 22t-103.5 7q-93 0 -128.5 -30.5t-40.5 -105.5l-92 -1293h-335l93 1310q10 131 52.5 217t131 128.5t234.5 42.5q79 0 145 -12.5t133 -35.5z" />
    <glyph glyph-name="Ohorn" unicode="&#x1a0;" horiz-adv-x="1294" 
d="M647 -33q-291 0 -435 141.5t-144 409.5v226q0 269 145 416t434 147t434 -147t145 -416v-226q0 -268 -144 -409.5t-435 -141.5zM647 265q107 0 158.5 61.5t51.5 173.5v263q0 120 -51.5 184t-158.5 64t-158.5 -64t-51.5 -184v-263q0 -112 51.5 -173.5t158.5 -61.5z
M1039 1094l-113 157q65 29 90.5 70.5t25.5 91.5q0 18 -2 38t-5 36h297q5 -19 8 -43t3 -49q0 -116 -70 -190t-234 -111z" />
    <glyph glyph-name="ohorn" unicode="&#x1a1;" horiz-adv-x="1112" 
d="M556 -30q-247 0 -372.5 120.5t-125.5 334.5v125q0 219 126 342t372 123q247 0 372.5 -123t125.5 -342v-125q0 -214 -125 -334.5t-373 -120.5zM556 248q71 0 107.5 42.5t36.5 121.5v152q0 85 -36.5 129t-107.5 44q-70 0 -107 -44t-37 -129v-152q0 -79 37 -121.5t107 -42.5
zM911 825l-118 151q45 25 61.5 63.5t16.5 85.5q0 18 -2 38t-4 36h296q5 -19 8 -43t3 -49q0 -108 -60.5 -176.5t-200.5 -105.5z" />
    <glyph glyph-name="Uhorn" unicode="&#x1af;" horiz-adv-x="1309" 
d="M655 -33q-286 0 -423 135.5t-137 397.5v778h363v-783q0 -112 48 -168t149 -56t148.5 56t47.5 168v783h363v-778q0 -262 -136.5 -397.5t-422.5 -135.5zM1092 1126l-100 134q53 26 72 64.5t19 88.5q0 18 -2 38t-5 36h296q5 -19 8.5 -43t3.5 -49q0 -110 -70 -176t-222 -93z
" />
    <glyph glyph-name="uhorn" unicode="&#x1b0;" horiz-adv-x="1156" 
d="M439 985v-566q0 -47 11.5 -81t39.5 -52t76 -18q38 0 66.5 13t49 35t32.5 48l54 -146h-57q-15 -68 -50.5 -123t-98.5 -87t-163 -32q-107 0 -177 42t-103.5 126.5t-33.5 213.5v627h354zM1064 985v-985h-352l11 253l-13 36v696h354zM971 840l-106 135q40 25 55 64t15 86
q0 18 -2 38t-4 36h296q5 -19 8 -43t3 -49q0 -102 -61 -168t-204 -99z" />
    <glyph glyph-name="uni01C4" unicode="&#x1c4;" horiz-adv-x="2329" 
d="M359 0v302h269q104 0 155 56t51 160v246q0 104 -51 159.5t-155 55.5h-269v299h282q281 0 419.5 -132.5t138.5 -381.5v-247q0 -250 -138 -383.5t-420 -133.5h-282zM104 0v1278h357v-1278h-357zM2274 302v-302h-984v284l552 693h-542v301h963v-282l-554 -694h565z
M1606 1373l-200 276v5h268l104 -117h9l104 117h268v-5l-200 -276h-353z" />
    <glyph glyph-name="uni01C5" unicode="&#x1c5;" horiz-adv-x="2225" 
d="M359 0v302h269q104 0 155 56t51 160v246q0 104 -51 159.5t-155 55.5h-269v299h282q281 0 419.5 -132.5t138.5 -381.5v-247q0 -250 -138 -383.5t-420 -133.5h-282zM104 0v1278h357v-1278h-357zM2164 290v-290h-844v263l411 433h-407v289h834v-262l-413 -433h419z
M1559 1075l-173 296v5h258l93 -135h9l95 135h256v-5l-173 -296h-365z" />
    <glyph glyph-name="uni01C6" unicode="&#x1c6;" horiz-adv-x="2118" 
d="M407 -24q-170 0 -257.5 114.5t-87.5 343.5v105q0 233 87.5 351.5t267.5 118.5q88 0 146 -30t91.5 -84t46.5 -128h91l-80 -205q-1 52 -18.5 88.5t-50 56.5t-80.5 20q-71 0 -108 -42t-37 -126v-121q0 -85 37.5 -127.5t112.5 -42.5q37 0 66.5 13t50.5 36t33 53l87 -152h-98
q-14 -68 -48 -123t-95 -87t-157 -32zM708 0l10 257l-6 49v394v45l-4 289v285h352v-1319h-352zM2057 290v-290h-844v263l411 433h-407v289h834v-262l-413 -433h419zM1452 1075l-173 296v5h258l93 -135h9l95 135h256v-5l-173 -296h-365z" />
    <glyph glyph-name="uni01C7" unicode="&#x1c7;" horiz-adv-x="1873" 
d="M467 0h-363v1278h363v-1278zM312 304h667v-304h-667v304zM1330 -21q-61 0 -123 9.5t-112 28.5l-26 302q44 -13 87 -21.5t88 -8.5q102 0 136 43t34 132v814h363v-836q0 -229 -102.5 -346t-344.5 -117z" />
    <glyph glyph-name="uni01C8" unicode="&#x1c8;" horiz-adv-x="1599" 
d="M467 0h-363v1278h363v-1278zM312 304h667v-304h-667v304zM1154 162v823h354v-823h-354zM1331 1056q-97 0 -141 43.5t-44 117.5v8q0 74 44 117.5t141 43.5q96 0 140.5 -43.5t44.5 -117.5v-8q0 -75 -44.5 -118t-140.5 -43zM1145 -362q-45 0 -84 4.5t-68 12.5l-25 279
q18 -5 36.5 -8t37.5 -3q69 0 90.5 36t21.5 97v150h354v-175q0 -118 -34.5 -206t-113.5 -137.5t-215 -49.5z" />
    <glyph glyph-name="uni01C9" unicode="&#x1c9;" horiz-adv-x="1088" 
d="M92 0v1319h354v-1319h-354zM643 162v823h354v-823h-354zM820 1056q-97 0 -141 43.5t-44 117.5v8q0 74 44 117.5t141 43.5q96 0 140.5 -43.5t44.5 -117.5v-8q0 -75 -44.5 -118t-140.5 -43zM634 -362q-45 0 -84 4.5t-68 12.5l-25 279q18 -5 36.5 -8t37.5 -3q69 0 90.5 36
t21.5 97v150h354v-175q0 -118 -34.5 -206t-113.5 -137.5t-215 -49.5z" />
    <glyph glyph-name="uni01CA" unicode="&#x1ca;" horiz-adv-x="2167" 
d="M593 1279l292 -884h14l-16 534v350h342v-1279h-474l-306 910h-14l16 -542v-368h-343v1279h489zM1624 -21q-61 0 -123 9.5t-112 28.5l-26 302q44 -13 87 -21.5t88 -8.5q102 0 136 43t34 132v814h363v-836q0 -229 -102.5 -346t-344.5 -117z" />
    <glyph glyph-name="uni01CB" unicode="&#x1cb;" horiz-adv-x="1879" 
d="M593 1279l292 -884h14l-16 534v350h342v-1279h-474l-306 910h-14l16 -542v-368h-343v1279h489zM1434 162v823h354v-823h-354zM1611 1056q-97 0 -141 43.5t-44 117.5v8q0 74 44 117.5t141 43.5q96 0 140.5 -43.5t44.5 -117.5v-8q0 -75 -44.5 -118t-140.5 -43zM1425 -362
q-45 0 -84 4.5t-68 12.5l-25 279q18 -5 36.5 -8t37.5 -3q69 0 90.5 36t21.5 97v150h354v-175q0 -118 -34.5 -206t-113.5 -137.5t-215 -49.5z" />
    <glyph glyph-name="uni01CC" unicode="&#x1cc;" horiz-adv-x="1706" 
d="M717 0v566q0 47 -11.5 81t-39.5 52t-76 18q-37 0 -66 -13t-49.5 -34.5t-32.5 -48.5l-54 146h57q15 69 50.5 123.5t99 86.5t162.5 32q108 0 177.5 -42t103 -126.5t33.5 -213.5v-627h-354zM92 0v985h352l-11 -253l13 -36v-696h-354zM1261 162v823h354v-823h-354zM1438 1056
q-97 0 -141 43.5t-44 117.5v8q0 74 44 117.5t141 43.5q96 0 140.5 -43.5t44.5 -117.5v-8q0 -75 -44.5 -118t-140.5 -43zM1252 -362q-45 0 -84 4.5t-68 12.5l-25 279q18 -5 36.5 -8t37.5 -3q69 0 90.5 36t21.5 97v150h354v-175q0 -118 -34.5 -206t-113.5 -137.5t-215 -49.5z
" />
    <glyph glyph-name="Gcaron" unicode="&#x1e6;" horiz-adv-x="1282" 
d="M508 -29q-146 0 -244 64.5t-147 186.5t-49 293v198q0 293 160 443.5t467 150.5q90 0 168.5 -11.5t144 -30.5t115.5 -43l30 -301q-78 31 -171.5 55t-213.5 24q-173 0 -252 -73t-79 -238v-178q0 -111 52.5 -172t167.5 -61q48 0 83.5 12.5t60 33.5t40.5 46v220l45 -101
l-229 -2v275h529v-544h-353q-15 -72 -49.5 -127.5t-100 -87.5t-175.5 -32zM846 262h340v-262h-350zM466 1373l-200 276v5h268l104 -117h9l104 117h268v-5l-200 -276h-353z" />
    <glyph glyph-name="gcaron" unicode="&#x1e7;" horiz-adv-x="1074" 
d="M545 310q-250 0 -372.5 88.5t-122.5 245.5v12q0 110 50.5 184t154.5 114.5t264 48.5l532 28v-244l-256 5v-10q71 -9 117 -33t68 -65t22 -101v-6q0 -130 -110 -198.5t-347 -68.5zM527 -132h33q66 0 104 7.5t54.5 22t16.5 34.5v2q0 28 -26.5 38.5t-72.5 14.5l-294 29l75 5
q-21 -4 -36.5 -13.5t-24 -24t-8.5 -34.5v-2q0 -24 17.5 -42t57 -27.5t104.5 -9.5zM511 -385q-154 0 -261 23t-162 74t-55 134v4q0 57 25 96t73 60.5t115 25.5v10q-79 14 -123.5 49t-44.5 101v2q0 48 22.5 80t65 49t102.5 18v39l235 -60h-63q-24 0 -35 -7t-11 -21v-1
q0 -19 19 -26t60 -12l231 -28q176 -21 263 -86.5t87 -204.5v-7q0 -106 -58.5 -175t-170.5 -103t-273 -34h-41zM532 543q52 0 85 12.5t49.5 36.5t16.5 58v6q0 34 -16.5 58t-49.5 36.5t-85 12.5v0q-51 0 -84.5 -12.5t-50 -36t-16.5 -58.5v-6q0 -34 16.5 -58t50 -36.5
t84.5 -12.5zM354 1075l-173 296v5h258l93 -135h9l95 135h256v-5l-173 -296h-365z" />
    <glyph glyph-name="uni01EA" unicode="&#x1ea;" horiz-adv-x="1323" 
d="M806 -362q-112 0 -182.5 38.5t-70.5 118.5v2q0 57 34.5 95.5t102.5 60.5v22l183 62l-5 -46q-34 -10 -53.5 -26.5t-19.5 -40.5v0q0 -28 26.5 -39t76.5 -11q32 0 62.5 5t60.5 12l-29 -223q-42 -15 -87.5 -22.5t-98.5 -7.5zM647 -33q-291 0 -435 141.5t-144 409.5v226
q0 269 145 416t434 147t434 -147t145 -416v-226q0 -268 -144 -409.5t-435 -141.5zM647 265q107 0 158.5 61.5t51.5 173.5v263q0 120 -51.5 184t-158.5 64t-158.5 -64t-51.5 -184v-263q0 -112 51.5 -173.5t158.5 -61.5z" />
    <glyph glyph-name="uni01EB" unicode="&#x1eb;" horiz-adv-x="1134" 
d="M719 -363q-111 0 -181 40.5t-70 123.5v2q0 61 33 99t104 59v26l178 35l-2 -17q-35 -11 -52.5 -30t-17.5 -48v0q0 -31 25 -43t71 -12q29 0 58.5 3.5t57.5 10.5l-30 -222q-38 -13 -81.5 -20t-92.5 -7zM556 -30q-247 0 -372.5 120.5t-125.5 334.5v125q0 219 126 342t372 123
q247 0 372.5 -123t125.5 -342v-125q0 -214 -125 -334.5t-373 -120.5zM556 248q71 0 107.5 42.5t36.5 121.5v152q0 85 -36.5 129t-107.5 44q-70 0 -107 -44t-37 -129v-152q0 -79 37 -121.5t107 -42.5z" />
    <glyph glyph-name="uni01F1" unicode="&#x1f1;" horiz-adv-x="2329" 
d="M359 0v302h269q104 0 155 56t51 160v246q0 104 -51 159.5t-155 55.5h-269v299h282q281 0 419.5 -132.5t138.5 -381.5v-247q0 -250 -138 -383.5t-420 -133.5h-282zM104 0v1278h357v-1278h-357zM2274 302v-302h-984v284l552 693h-542v301h963v-282l-554 -694h565z" />
    <glyph glyph-name="uni01F2" unicode="&#x1f2;" horiz-adv-x="2225" 
d="M359 0v302h269q104 0 155 56t51 160v246q0 104 -51 159.5t-155 55.5h-269v299h282q281 0 419.5 -132.5t138.5 -381.5v-247q0 -250 -138 -383.5t-420 -133.5h-282zM104 0v1278h357v-1278h-357zM2164 290v-290h-844v263l411 433h-407v289h834v-262l-413 -433h419z" />
    <glyph glyph-name="uni01F3" unicode="&#x1f3;" horiz-adv-x="2118" 
d="M407 -24q-170 0 -257.5 114.5t-87.5 343.5v105q0 233 87.5 351.5t267.5 118.5q88 0 146 -30t91.5 -84t46.5 -128h91l-80 -205q-1 52 -18.5 88.5t-50 56.5t-80.5 20q-71 0 -108 -42t-37 -126v-121q0 -85 37.5 -127.5t112.5 -42.5q37 0 66.5 13t50.5 36t33 53l87 -152h-98
q-14 -68 -48 -123t-95 -87t-157 -32zM708 0l10 257l-6 49v394v45l-4 289v285h352v-1319h-352zM2057 290v-290h-844v263l411 433h-407v289h834v-262l-413 -433h419z" />
    <glyph glyph-name="Aringacute" unicode="&#x1fa;" horiz-adv-x="1275" 
d="M651 2012h302v-4l-191 -246h-245v3zM15 0l355 1278h539l351 -1278h-365l-244 1041h-23l-248 -1041h-365zM350 277v276h573v-276h-573zM399 1522v7q0 82 56 134.5t183 52.5t183 -52.5t56 -134.5v-7q0 -81 -56 -134t-183 -53t-183 53t-56 134zM563 1524q0 -28 19 -44
t56 -16q36 0 55 16t19 44v4q0 28 -19 43t-55 15q-37 0 -56 -15t-19 -43v-4z" />
    <glyph glyph-name="aringacute" unicode="&#x1fb;" horiz-adv-x="1077" 
d="M557 1746h295v-3l-192 -261h-239v2zM650 0l10 252l-7 9v306l-3 36q0 69 -44.5 101.5t-151.5 32.5q-97 0 -186.5 -23t-171.5 -53l29 269q50 22 111 40.5t133 29.5t153 11q137 0 228.5 -31.5t145.5 -89t77.5 -136.5t23.5 -174v-580h-347zM345 -24q-148 0 -223.5 75.5
t-75.5 214.5v25q0 148 90.5 218t289.5 95l251 32l21 -202l-213 -31q-58 -8 -80.5 -27.5t-22.5 -57.5v-4q0 -35 23.5 -57t78.5 -22q46 0 79.5 12.5t56 33.5t35.5 46l50 -120h-57q-15 -67 -47.5 -119t-93.5 -82t-162 -30zM298 1245v7q0 82 56 134.5t183 52.5t183 -52.5
t56 -134.5v-7q0 -81 -56 -134t-183 -53t-183 53t-56 134zM462 1247q0 -28 19 -44t56 -16q36 0 55 16t19 44v4q0 28 -19 43t-55 15q-37 0 -56 -15t-19 -43v-4z" />
    <glyph glyph-name="AEacute" unicode="&#x1fc;" horiz-adv-x="1877" 
d="M8 0l578 1278h357l-2 -237h-104l-444 -1041h-385zM343 277v276h573v-276h-573zM978 0v301h823v-301h-823zM873 0v1278h353v-1278h-353zM1081 504v287h695v-287h-695zM978 980v298h814v-298h-814zM975 1654h373v-3l-281 -278h-306v3z" />
    <glyph glyph-name="aeacute" unicode="&#x1fd;" horiz-adv-x="1676" 
d="M1217 -27q-223 0 -351 69t-172 187l-19 60q-13 50 -16 95.5t-3 86.5l-6 132q0 69 -44.5 101.5t-151.5 32.5q-97 0 -186.5 -23t-171.5 -53l29 270q45 22 100 40.5t119 29.5t136 11q134 0 212.5 -50t116.5 -127h12q51 89 139 135.5t216 46.5q146 0 244.5 -52.5t148.5 -151
t50 -238.5v-31q0 -40 -3.5 -81.5t-10.5 -76.5h-317q4 61 5.5 115t1.5 97q0 53 -16 88.5t-50 54t-88 18.5q-81 0 -117.5 -46t-36.5 -118v-86l2 -36v-65q0 -32 13 -61t44.5 -52t87.5 -36t142 -13t168.5 14.5t159.5 40.5l-28 -257q-64 -34 -155.5 -52.5t-203.5 -18.5zM359 -24
q-160 0 -236.5 76t-76.5 214v25q0 148 90.5 218t289.5 95l251 32l21 -202l-213 -31q-58 -8 -80.5 -27.5t-22.5 -57.5v-4q0 -35 23.5 -57t78.5 -22q52 0 89 13.5t62.5 36t39.5 48.5l99 -167h-59q-31 -52 -73 -95t-109 -69t-174 -26zM840 386v208h694v-208h-694zM849 1376h362
v-4l-244 -297h-287v3z" />
    <glyph glyph-name="Oslashacute" unicode="&#x1fe;" horiz-adv-x="1294" 
d="M652 -35q-184 0 -314.5 66.5t-200 192t-69.5 303.5v220q0 270 145.5 416t428.5 146q184 0 314.5 -67.5t200 -193.5t69.5 -301v-220q0 -274 -145 -418t-429 -144zM90 -73l207 293l75 105l465 754l64 99l117 174h186l-196 -292l-74 -99l-468 -767l-55 -76l-135 -191h-186z
M647 260q107 0 159.5 65t52.5 187v260q0 115 -48.5 178.5t-163.5 63.5q-108 0 -160 -65t-52 -187v-260q0 -122 52 -182t160 -60zM684 1654h373v-3l-281 -278h-306v3z" />
    <glyph glyph-name="oslashacute" unicode="&#x1ff;" horiz-adv-x="1116" 
d="M558 -28q-153 0 -265 57.5t-173.5 160t-61.5 237.5v113q0 233 128 354t372 121q154 0 266 -57.5t173 -160t61 -237.5v-113q0 -232 -127.5 -353.5t-372.5 -121.5zM107 -73l164 236l78 103l348 550l57 97l103 145h152l-164 -238l-69 -96l-348 -550l-58 -90l-111 -157h-152z
M558 246q80 0 120 46t40 134v155q0 73 -37 116.5t-123 43.5q-79 0 -119.5 -46t-40.5 -134v-155q0 -73 37.5 -116.5t122.5 -43.5zM570 1376h362v-4l-244 -297h-287v3z" />
    <glyph glyph-name="uni0200" unicode="&#x200;" horiz-adv-x="1275" 
d="M15 0l355 1278h539l351 -1278h-365l-244 1041h-23l-248 -1041h-365zM350 277v276h573v-276h-573zM457 1654l131 -279v-2h-236l-191 277v4h296zM814 1654l131 -279v-2h-238l-187 277v4h294z" />
    <glyph glyph-name="uni0201" unicode="&#x201;" horiz-adv-x="1077" 
d="M650 0l10 252l-7 9v306l-3 36q0 69 -44.5 101.5t-151.5 32.5q-97 0 -186.5 -23t-171.5 -53l29 269q50 22 111 40.5t133 29.5t153 11q137 0 228.5 -31.5t145.5 -89t77.5 -136.5t23.5 -174v-580h-347zM345 -24q-148 0 -223.5 75.5t-75.5 214.5v25q0 148 90.5 218t289.5 95
l251 32l21 -202l-213 -31q-58 -8 -80.5 -27.5t-22.5 -57.5v-4q0 -35 23.5 -57t78.5 -22q46 0 79.5 12.5t56 33.5t35.5 46l50 -120h-57q-15 -67 -47.5 -119t-93.5 -82t-162 -30zM365 1376l121 -299v-2h-236l-186 296v5h301zM722 1376l121 -299v-2h-238l-184 296v5h301z" />
    <glyph glyph-name="uni0202" unicode="&#x202;" horiz-adv-x="1275" 
d="M15 0l355 1278h539l351 -1278h-365l-244 1041h-23l-248 -1041h-365zM350 277v276h573v-276h-573zM638 1666q175 0 251.5 -76.5t79.5 -216.5h-220q-3 47 -29.5 73.5t-81.5 26.5q-56 0 -82 -26.5t-29 -73.5h-220q3 140 80.5 216.5t250.5 76.5z" />
    <glyph glyph-name="uni0203" unicode="&#x203;" horiz-adv-x="1077" 
d="M650 0l10 252l-7 9v306l-3 36q0 69 -44.5 101.5t-151.5 32.5q-97 0 -186.5 -23t-171.5 -53l29 269q50 22 111 40.5t133 29.5t153 11q137 0 228.5 -31.5t145.5 -89t77.5 -136.5t23.5 -174v-580h-347zM345 -24q-148 0 -223.5 75.5t-75.5 214.5v25q0 148 90.5 218t289.5 95
l251 32l21 -202l-213 -31q-58 -8 -80.5 -27.5t-22.5 -57.5v-4q0 -35 23.5 -57t78.5 -22q46 0 79.5 12.5t56 33.5t35.5 46l50 -120h-57q-15 -67 -47.5 -119t-93.5 -82t-162 -30zM537 1387q176 0 253 -82.5t79 -229.5h-223q-3 53 -28.5 81t-80.5 28q-56 0 -81 -29t-28 -80
h-223q2 147 80 229.5t252 82.5z" />
    <glyph glyph-name="uni0204" unicode="&#x204;" horiz-adv-x="1108" 
d="M104 0v1278h353v-1278h-353zM209 0v301h823v-301h-823zM312 504v287h695v-287h-695zM209 980v298h814v-298h-814zM389 1654l131 -279v-2h-236l-191 277v4h296zM746 1654l131 -279v-2h-238l-187 277v4h294z" />
    <glyph glyph-name="uni0205" unicode="&#x205;" horiz-adv-x="1081" 
d="M606 -26q-283 0 -415.5 123t-132.5 360v77q0 235 124.5 358t363.5 123q159 0 265 -52.5t159.5 -151t53.5 -237.5v-31q0 -40 -3.5 -81.5t-10.5 -76.5h-317q4 61 5.5 115t1.5 97q0 52 -16 87.5t-50 54t-88 18.5q-81 0 -117.5 -42t-36.5 -119v-89l2 -38v-62q0 -31 11 -60
t40.5 -51.5t84 -35.5t141.5 -13q89 0 174 14.5t164 40.5l-28 -257q-69 -34 -164.5 -52.5t-210.5 -18.5zM245 385v208h694v-208h-694zM382 1376l121 -299v-2h-236l-186 296v5h301zM739 1376l121 -299v-2h-238l-184 296v5h301z" />
    <glyph glyph-name="uni0206" unicode="&#x206;" horiz-adv-x="1108" 
d="M104 0v1278h353v-1278h-353zM209 0v301h823v-301h-823zM312 504v287h695v-287h-695zM209 980v298h814v-298h-814zM570 1666q175 0 251.5 -76.5t79.5 -216.5h-220q-3 47 -29.5 73.5t-81.5 26.5q-56 0 -82 -26.5t-29 -73.5h-220q3 140 80.5 216.5t250.5 76.5z" />
    <glyph glyph-name="uni0207" unicode="&#x207;" horiz-adv-x="1081" 
d="M606 -26q-283 0 -415.5 123t-132.5 360v77q0 235 124.5 358t363.5 123q159 0 265 -52.5t159.5 -151t53.5 -237.5v-31q0 -40 -3.5 -81.5t-10.5 -76.5h-317q4 61 5.5 115t1.5 97q0 52 -16 87.5t-50 54t-88 18.5q-81 0 -117.5 -42t-36.5 -119v-89l2 -38v-62q0 -31 11 -60
t40.5 -51.5t84 -35.5t141.5 -13q89 0 174 14.5t164 40.5l-28 -257q-69 -34 -164.5 -52.5t-210.5 -18.5zM245 385v208h694v-208h-694zM554 1387q176 0 253 -82.5t79 -229.5h-223q-3 53 -28.5 81t-80.5 28q-56 0 -81 -29t-28 -80h-223q2 147 80 229.5t252 82.5z" />
    <glyph glyph-name="uni0208" unicode="&#x208;" horiz-adv-x="571" 
d="M467 0h-363v1278h363v-1278zM106 1654l131 -279v-2h-236l-191 277v4h296zM463 1654l131 -279v-2h-238l-187 277v4h294z" />
    <glyph glyph-name="uni0209" unicode="&#x209;" horiz-adv-x="538" 
d="M92 0v985h354v-985h-354zM138 1376l93 -299v-2h-228l-148 296v5h283zM475 1376l64 -299v-2h-228l-119 296v5h283z" />
    <glyph glyph-name="uni020A" unicode="&#x20a;" horiz-adv-x="571" 
d="M467 0h-363v1278h363v-1278zM287 1666q175 0 251.5 -76.5t79.5 -216.5h-220q-3 47 -29.5 73.5t-81.5 26.5q-56 0 -82 -26.5t-29 -73.5h-220q3 140 80.5 216.5t250.5 76.5z" />
    <glyph glyph-name="uni020B" unicode="&#x20b;" horiz-adv-x="538" 
d="M92 0v985h354v-985h-354zM270 1373q155 0 223.5 -79t72.5 -219h-211q-1 47 -20.5 72.5t-64.5 25.5q-46 0 -64.5 -25.5t-20.5 -72.5h-211q3 140 72.5 219t223.5 79z" />
    <glyph glyph-name="uni020C" unicode="&#x20c;" horiz-adv-x="1294" 
d="M647 -33q-291 0 -435 141.5t-144 409.5v226q0 269 145 416t434 147t434 -147t145 -416v-226q0 -268 -144 -409.5t-435 -141.5zM647 265q107 0 158.5 61.5t51.5 173.5v263q0 120 -51.5 184t-158.5 64t-158.5 -64t-51.5 -184v-263q0 -112 51.5 -173.5t158.5 -61.5z
M466 1654l131 -279v-2h-236l-191 277v4h296zM823 1654l131 -279v-2h-238l-187 277v4h294z" />
    <glyph glyph-name="uni020D" unicode="&#x20d;" horiz-adv-x="1112" 
d="M556 -30q-247 0 -372.5 120.5t-125.5 334.5v125q0 219 126 342t372 123q247 0 372.5 -123t125.5 -342v-125q0 -214 -125 -334.5t-373 -120.5zM556 248q71 0 107.5 42.5t36.5 121.5v152q0 85 -36.5 129t-107.5 44q-70 0 -107 -44t-37 -129v-152q0 -79 37 -121.5t107 -42.5
zM385 1376l121 -299v-2h-236l-186 296v5h301zM742 1376l121 -299v-2h-238l-184 296v5h301z" />
    <glyph glyph-name="uni020E" unicode="&#x20e;" horiz-adv-x="1294" 
d="M647 -33q-291 0 -435 141.5t-144 409.5v226q0 269 145 416t434 147t434 -147t145 -416v-226q0 -268 -144 -409.5t-435 -141.5zM647 265q107 0 158.5 61.5t51.5 173.5v263q0 120 -51.5 184t-158.5 64t-158.5 -64t-51.5 -184v-263q0 -112 51.5 -173.5t158.5 -61.5z
M647 1666q175 0 251.5 -76.5t79.5 -216.5h-220q-3 47 -29.5 73.5t-81.5 26.5q-56 0 -82 -26.5t-29 -73.5h-220q3 140 80.5 216.5t250.5 76.5z" />
    <glyph glyph-name="uni020F" unicode="&#x20f;" horiz-adv-x="1112" 
d="M556 -30q-247 0 -372.5 120.5t-125.5 334.5v125q0 219 126 342t372 123q247 0 372.5 -123t125.5 -342v-125q0 -214 -125 -334.5t-373 -120.5zM556 248q71 0 107.5 42.5t36.5 121.5v152q0 85 -36.5 129t-107.5 44q-70 0 -107 -44t-37 -129v-152q0 -79 37 -121.5t107 -42.5
zM557 1387q176 0 253 -82.5t79 -229.5h-223q-3 53 -28.5 81t-80.5 28q-56 0 -81 -29t-28 -80h-223q2 147 80 229.5t252 82.5z" />
    <glyph glyph-name="uni0210" unicode="&#x210;" horiz-adv-x="1230" 
d="M814 0l-20 233q-5 61 -23 97t-53 52t-92 16l-270 1v274l278 1q87 0 126 36.5t39 113.5v17q0 77 -38 113.5t-127 36.5h-279v287h332q245 0 358 -91t113 -266v-23q0 -133 -70.5 -202.5t-207.5 -74.5v-52l-56 48q119 -8 184.5 -47.5t97 -112t44.5 -181.5l34 -276h-370z
M104 0v1278h351v-704l2 -134v-440h-353zM435 1654l131 -279v-2h-236l-191 277v4h296zM792 1654l131 -279v-2h-238l-187 277v4h294z" />
    <glyph glyph-name="uni0211" unicode="&#x211;" horiz-adv-x="810" 
d="M441 535l-102 200h83q20 125 88 195.5t195 70.5q19 0 35.5 -2t32.5 -5l17 -360q-20 4 -47.5 6t-53.5 2q-94 0 -156 -28.5t-92 -78.5zM92 0v985h330l-14 -326h38v-659h-354zM248 1376l121 -299v-2h-236l-186 296v5h301zM605 1376l121 -299v-2h-238l-184 296v5h301z" />
    <glyph glyph-name="uni0212" unicode="&#x212;" horiz-adv-x="1230" 
d="M814 0l-20 233q-5 61 -23 97t-53 52t-92 16l-270 1v274l278 1q87 0 126 36.5t39 113.5v17q0 77 -38 113.5t-127 36.5h-279v287h332q245 0 358 -91t113 -266v-23q0 -133 -70.5 -202.5t-207.5 -74.5v-52l-56 48q119 -8 184.5 -47.5t97 -112t44.5 -181.5l34 -276h-370z
M104 0v1278h351v-704l2 -134v-440h-353zM616 1666q175 0 251.5 -76.5t79.5 -216.5h-220q-3 47 -29.5 73.5t-81.5 26.5q-56 0 -82 -26.5t-29 -73.5h-220q3 140 80.5 216.5t250.5 76.5z" />
    <glyph glyph-name="uni0213" unicode="&#x213;" horiz-adv-x="810" 
d="M441 535l-102 200h83q20 125 88 195.5t195 70.5q19 0 35.5 -2t32.5 -5l17 -360q-20 4 -47.5 6t-53.5 2q-94 0 -156 -28.5t-92 -78.5zM92 0v985h330l-14 -326h38v-659h-354zM420 1387q176 0 253 -82.5t79 -229.5h-223q-3 53 -28.5 81t-80.5 28q-56 0 -81 -29t-28 -80h-223
q2 147 80 229.5t252 82.5z" />
    <glyph glyph-name="uni0214" unicode="&#x214;" horiz-adv-x="1309" 
d="M655 -33q-286 0 -423 135.5t-137 397.5v778h363v-783q0 -112 48 -168t149 -56t148.5 56t47.5 168v783h363v-778q0 -262 -136.5 -397.5t-422.5 -135.5zM474 1654l131 -279v-2h-236l-191 277v4h296zM831 1654l131 -279v-2h-238l-187 277v4h294z" />
    <glyph glyph-name="uni0215" unicode="&#x215;" horiz-adv-x="1156" 
d="M439 985v-566q0 -47 11.5 -81t39.5 -52t76 -18q38 0 66.5 13t49 35t32.5 48l54 -146h-57q-15 -68 -50.5 -123t-98.5 -87t-163 -32q-107 0 -177 42t-103.5 126.5t-33.5 213.5v627h354zM1064 985v-985h-352l11 253l-13 36v696h354zM407 1376l121 -299v-2h-236l-186 296v5
h301zM764 1376l121 -299v-2h-238l-184 296v5h301z" />
    <glyph glyph-name="uni0216" unicode="&#x216;" horiz-adv-x="1309" 
d="M655 -33q-286 0 -423 135.5t-137 397.5v778h363v-783q0 -112 48 -168t149 -56t148.5 56t47.5 168v783h363v-778q0 -262 -136.5 -397.5t-422.5 -135.5zM655 1666q175 0 251.5 -76.5t79.5 -216.5h-220q-3 47 -29.5 73.5t-81.5 26.5q-56 0 -82 -26.5t-29 -73.5h-220
q3 140 80.5 216.5t250.5 76.5z" />
    <glyph glyph-name="uni0217" unicode="&#x217;" horiz-adv-x="1156" 
d="M439 985v-566q0 -47 11.5 -81t39.5 -52t76 -18q38 0 66.5 13t49 35t32.5 48l54 -146h-57q-15 -68 -50.5 -123t-98.5 -87t-163 -32q-107 0 -177 42t-103.5 126.5t-33.5 213.5v627h354zM1064 985v-985h-352l11 253l-13 36v696h354zM579 1387q176 0 253 -82.5t79 -229.5
h-223q-3 53 -28.5 81t-80.5 28q-56 0 -81 -29t-28 -80h-223q2 147 80 229.5t252 82.5z" />
    <glyph glyph-name="uni0218" unicode="&#x218;" horiz-adv-x="1093" 
d="M516 -29q-88 0 -166 11t-143 28.5t-115 36.5l-31 328q80 -34 189 -64.5t229 -30.5q107 0 149.5 22t42.5 71v4q0 33 -20.5 54.5t-68.5 41t-129 45.5q-131 42 -221 91.5t-136 124t-46 190.5v15q0 179 123.5 273.5t360.5 94.5q139 0 240.5 -23t175.5 -56l31 -306
q-80 36 -178 59.5t-206 23.5q-71 0 -110.5 -9.5t-54.5 -28t-15 -45.5v-3q0 -28 18.5 -49.5t67.5 -43.5t140 -51q130 -41 218.5 -86t133.5 -115.5t45 -190.5v-14q0 -199 -129 -298.5t-395 -99.5zM690 -90q2 -18 4 -40t2 -44q0 -94 -29.5 -171.5t-96.5 -148.5l-228 50
q28 57 43 121.5t15 145.5q0 22 -1 42.5t-3 44.5h294z" />
    <glyph glyph-name="uni0219" unicode="&#x219;" horiz-adv-x="950" 
d="M457 -25q-117 0 -213 19t-166 45l-29 291q78 -30 173.5 -54.5t203.5 -24.5q79 0 108.5 13t29.5 42v2q0 22 -17 35t-59.5 24.5t-117.5 28.5q-123 29 -195 69.5t-103 98.5t-31 138v8q0 152 109.5 226.5t319.5 74.5q113 0 206.5 -19.5t157.5 -47.5l29 -271q-73 29 -163 48.5
t-184 19.5q-54 0 -83.5 -5.5t-40.5 -16.5t-11 -27v-2q0 -18 14 -30.5t53 -24.5t114 -30q123 -28 200 -62t113 -88.5t36 -147.5v-6q0 -166 -111 -246t-343 -80zM624 -90q2 -18 4 -40t2 -44q0 -94 -29.5 -171.5t-96.5 -148.5l-228 50q28 57 43 121.5t15 145.5q0 22 -1 42.5
t-3 44.5h294z" />
    <glyph glyph-name="uni021A" unicode="&#x21a;" horiz-adv-x="1142" 
d="M390 0v1207h363v-1207h-363zM47 977v301h1048v-301h-1048zM723 -90q2 -18 4 -40t2 -44q0 -94 -29.5 -171.5t-96.5 -148.5l-228 50q28 57 43 121.5t15 145.5q0 22 -1 42.5t-3 44.5h294z" />
    <glyph glyph-name="uni021B" unicode="&#x21b;" horiz-adv-x="819" 
d="M498 -23q-137 0 -217.5 41.5t-115 123.5t-34.5 202v528h351v-468q0 -64 29 -93.5t114 -29.5q46 0 91.5 10.5t82.5 24.5l-30 -290q-52 -22 -120 -35.5t-151 -13.5zM8 708v277h781l-30 -277h-751zM136 961l-1 247l349 31l-12 -278h-336zM595 -90q2 -18 4 -40t2 -44
q0 -94 -29.5 -171.5t-96.5 -148.5l-228 50q28 57 43 121.5t15 145.5q0 22 -1 42.5t-3 44.5h294z" />
    <glyph glyph-name="uni022A" unicode="&#x22a;" horiz-adv-x="1294" 
d="M318 1740v205h657v-205h-657zM647 -33q-291 0 -435 141.5t-144 409.5v226q0 269 145 416t434 147t434 -147t145 -416v-226q0 -268 -144 -409.5t-435 -141.5zM647 265q107 0 158.5 61.5t51.5 173.5v263q0 120 -51.5 184t-158.5 64t-158.5 -64t-51.5 -184v-263
q0 -112 51.5 -173.5t158.5 -61.5zM464 1361q-78 0 -116.5 40.5t-38.5 113.5v8q0 74 38.5 115t116.5 41q80 0 118.5 -41t38.5 -115v-8q0 -73 -38.5 -113.5t-118.5 -40.5zM829 1361q-79 0 -117 40.5t-38 113.5v8q0 74 38 115t117 41q78 0 117 -41t39 -115v-8q0 -73 -39 -113.5
t-117 -40.5z" />
    <glyph glyph-name="uni022B" unicode="&#x22b;" horiz-adv-x="1112" 
d="M229 1464v201h657v-201h-657zM556 -30q-247 0 -372.5 120.5t-125.5 334.5v125q0 219 126 342t372 123q247 0 372.5 -123t125.5 -342v-125q0 -214 -125 -334.5t-373 -120.5zM556 248q71 0 107.5 42.5t36.5 121.5v152q0 85 -36.5 129t-107.5 44q-70 0 -107 -44t-37 -129
v-152q0 -79 37 -121.5t107 -42.5zM374 1062q-78 0 -116.5 40.5t-38.5 113.5v8q0 74 38.5 115t116.5 41q80 0 118.5 -41t38.5 -115v-8q0 -73 -38.5 -113.5t-118.5 -40.5zM739 1062q-79 0 -117 40.5t-38 113.5v8q0 74 38 115t117 41q78 0 117 -41t39 -115v-8q0 -73 -39 -113.5
t-117 -40.5z" />
    <glyph glyph-name="uni022C" unicode="&#x22c;" horiz-adv-x="1294" 
d="M318 1747v205h657v-205h-657zM647 -33q-291 0 -435 141.5t-144 409.5v226q0 269 145 416t434 147t434 -147t145 -416v-226q0 -268 -144 -409.5t-435 -141.5zM647 265q107 0 158.5 61.5t51.5 173.5v263q0 120 -51.5 184t-158.5 64t-158.5 -64t-51.5 -184v-263
q0 -112 51.5 -173.5t158.5 -61.5zM783 1380q-36 0 -69.5 7.5t-63.5 17t-57 17t-50 7.5q-29 0 -40 -15t-12 -46v-1h-191v39q0 102 47.5 169t165.5 67q38 0 71.5 -7.5t62.5 -17t55 -17t49 -7.5q29 0 39.5 15t11.5 46v1h192v-34q0 -106 -47 -173.5t-164 -67.5z" />
    <glyph glyph-name="uni022D" unicode="&#x22d;" horiz-adv-x="1112" 
d="M229 1474v201h657v-201h-657zM556 -30q-247 0 -372.5 120.5t-125.5 334.5v125q0 219 126 342t372 123q247 0 372.5 -123t125.5 -342v-125q0 -214 -125 -334.5t-373 -120.5zM556 248q71 0 107.5 42.5t36.5 121.5v152q0 85 -36.5 129t-107.5 44q-70 0 -107 -44t-37 -129
v-152q0 -79 37 -121.5t107 -42.5zM693 1082q-36 0 -69.5 7.5t-63.5 18t-57 18t-50 7.5q-29 0 -40 -15.5t-12 -47.5v-1h-191v40q0 107 46.5 176.5t164.5 69.5q40 0 74 -7.5t63 -18t55 -18t49 -7.5q28 0 38.5 16t11.5 47v1h192v-43q0 -107 -47 -175t-164 -68z" />
    <glyph glyph-name="uni0230" unicode="&#x230;" horiz-adv-x="1294" 
d="M317 1740v205h657v-205h-657zM647 -33q-291 0 -435 141.5t-144 409.5v226q0 269 145 416t434 147t434 -147t145 -416v-226q0 -268 -144 -409.5t-435 -141.5zM647 265q107 0 158.5 61.5t51.5 173.5v263q0 120 -51.5 184t-158.5 64t-158.5 -64t-51.5 -184v-263
q0 -112 51.5 -173.5t158.5 -61.5zM646 1365q-84 0 -125.5 41t-41.5 111v6q0 71 41.5 112t125.5 41q86 0 127.5 -41t41.5 -112v-6q0 -70 -41.5 -111t-127.5 -41z" />
    <glyph glyph-name="uni0231" unicode="&#x231;" horiz-adv-x="1112" 
d="M229 1464v201h657v-201h-657zM556 -30q-247 0 -372.5 120.5t-125.5 334.5v125q0 219 126 342t372 123q247 0 372.5 -123t125.5 -342v-125q0 -214 -125 -334.5t-373 -120.5zM556 248q71 0 107.5 42.5t36.5 121.5v152q0 85 -36.5 129t-107.5 44q-70 0 -107 -44t-37 -129
v-152q0 -79 37 -121.5t107 -42.5zM556 1057q-88 0 -131 43t-43 116v7q0 74 43 118t131 44q89 0 132.5 -44t43.5 -118v-7q0 -73 -43.5 -116t-132.5 -43z" />
    <glyph glyph-name="uni0232" unicode="&#x232;" horiz-adv-x="1197" 
d="M436 318l-436 960h377l138 -350l75 -208h17l75 208l137 350h377l-434 -960h-326zM421 0v640h356v-640h-356zM269 1387v209h657v-209h-657z" />
    <glyph glyph-name="uni0233" unicode="&#x233;" horiz-adv-x="1075" 
d="M695 276l-190 -82l197 791h362l-382 -1329h-353l153 518l168 -131h-390l-249 942h364l138 -709h182zM210 1094v209h657v-209h-657z" />
    <glyph glyph-name="uni0237" unicode="&#x237;" horiz-adv-x="551" 
d="M105 172v813h354v-813h-354zM96 -362q-45 0 -84 4.5t-68 12.5l-25 279q18 -5 36.5 -8t37.5 -3q69 0 90.5 36t21.5 97v150h354v-175q0 -118 -34.5 -206t-113.5 -137.5t-215 -49.5z" />
    <glyph glyph-name="uni0259" unicode="&#x259;" horiz-adv-x="1080" 
d="M534 -30q-159 0 -265.5 52.5t-159.5 151.5t-53 238v31q0 40 3.5 82t10.5 76h317q-4 -61 -5.5 -115t-1.5 -97q0 -52 16 -88t50 -54.5t88 -18.5q81 0 117.5 42.5t36.5 119.5v89l-2 38v62q0 32 -9.5 61t-34.5 52t-71.5 36t-121.5 13q-96 0 -189 -16.5t-179 -45.5l28 257
q74 37 177.5 57.5t227.5 20.5q262 0 385 -123t123 -362v-77q0 -235 -124.5 -358.5t-363.5 -123.5zM141 393v208h694v-208h-694z" />
    <glyph glyph-name="uni02B9" unicode="&#x2b9;" horiz-adv-x="414" 
d="M328 865h-244l-31 454h308z" />
    <glyph glyph-name="uni02BA" unicode="&#x2ba;" horiz-adv-x="800" 
d="M470 865l-31 454h308l-33 -454h-244zM84 865l-31 454h308l-33 -454h-244z" />
    <glyph glyph-name="uni02BB" unicode="&#x2bb;" horiz-adv-x="554" 
d="M125 1074q-2 18 -4 40t-2 44q0 94 29.5 172t96.5 148l228 -50q-28 -57 -43 -121.5t-15 -145.5q0 -22 1 -42.5t3 -44.5h-294z" />
    <glyph glyph-name="uni02BC" unicode="&#x2bc;" horiz-adv-x="539" 
d="M419 1278q3 -17 5.5 -39.5t2.5 -48.5q0 -106 -28 -198t-89 -173l-212 48q19 66 29.5 141.5t10.5 165.5q0 27 -1.5 50.5t-3.5 53.5h286z" />
    <glyph glyph-name="uni02BE" unicode="&#x2be;" horiz-adv-x="439" 
d="M100 1309v130q127 0 183 -52.5t56 -134.5v-7q0 -81 -56 -134t-183 -53v129q37 0 56 16t19 44v4q0 28 -19 43t-56 15z" />
    <glyph glyph-name="uni02BF" unicode="&#x2bf;" horiz-adv-x="439" 
d="M339 1309q-37 0 -56 -15t-19 -43v-4q0 -28 19 -44t56 -16v-129q-127 0 -183 53t-56 134v7q0 82 56 134.5t183 52.5v-130z" />
    <glyph glyph-name="circumflex" unicode="&#x2c6;" horiz-adv-x="911" 
d="M273 1376h365l173 -297v-4h-257l-94 134h-9l-94 -134h-257v4z" />
    <glyph glyph-name="caron" unicode="&#x2c7;" horiz-adv-x="911" 
d="M273 1075l-173 296v5h258l93 -135h9l95 135h256v-5l-173 -296h-365z" />
    <glyph glyph-name="uni02C8" unicode="&#x2c8;" horiz-adv-x="477" 
d="M100 1081v380h277v-380h-277z" />
    <glyph glyph-name="uni02C9" unicode="&#x2c9;" horiz-adv-x="837" 
d="M90 1094v209h657v-209h-657z" />
    <glyph glyph-name="uni02CA" unicode="&#x2ca;" horiz-adv-x="729" 
d="M254 1376h362v-4l-244 -297h-287v3z" />
    <glyph glyph-name="uni02CB" unicode="&#x2cb;" horiz-adv-x="729" 
d="M475 1376l169 -298v-3h-287l-244 297v4h362z" />
    <glyph glyph-name="uni02CC" unicode="&#x2cc;" horiz-adv-x="477" 
d="M100 -472v380h277v-380h-277z" />
    <glyph glyph-name="breve" unicode="&#x2d8;" horiz-adv-x="876" 
d="M438 1064q-174 0 -252 82.5t-80 229.5h223q3 -51 28 -80t81 -29q55 0 80.5 28.5t28.5 80.5h223q-2 -147 -79 -229.5t-253 -82.5z" />
    <glyph glyph-name="dotaccent" unicode="&#x2d9;" horiz-adv-x="550" 
d="M274 1057q-88 0 -131 43t-43 116v7q0 74 43 118t131 44q89 0 132.5 -44t43.5 -118v-7q0 -73 -43.5 -116t-132.5 -43z" />
    <glyph glyph-name="ring" unicode="&#x2da;" horiz-adv-x="678" 
d="M100 1245v7q0 82 56 134.5t183 52.5t183 -52.5t56 -134.5v-7q0 -81 -56 -134t-183 -53t-183 53t-56 134zM264 1247q0 -28 19 -44t56 -16q36 0 55 16t19 44v4q0 28 -19 43t-55 15q-37 0 -56 -15t-19 -43v-4z" />
    <glyph glyph-name="ogonek" unicode="&#x2db;" horiz-adv-x="684" 
d="M399 -363q-109 0 -175.5 43t-66.5 131v1q0 70 40.5 113t107.5 65v30h218v-20q-61 -7 -92 -26.5t-31 -48.5v0q0 -29 22.5 -41t65.5 -12q28 0 54 3.5t51 9.5l-29 -220q-37 -14 -77.5 -21t-87.5 -7z" />
    <glyph glyph-name="tilde" unicode="&#x2dc;" horiz-adv-x="894" 
d="M583 1082q-36 0 -69.5 7.5t-63.5 18t-57 18t-50 7.5q-29 0 -40 -15.5t-12 -47.5v-1h-191v40q0 107 46.5 176.5t164.5 69.5q40 0 74 -7.5t63 -18t55 -18t49 -7.5q28 0 38.5 16t11.5 47v1h192v-43q0 -107 -47 -175t-164 -68z" />
    <glyph glyph-name="hungarumlaut" unicode="&#x2dd;" horiz-adv-x="979" 
d="M571 1376h301v-5l-186 -296h-236v2zM214 1376h301v-5l-184 -296h-238v2z" />
    <glyph glyph-name="gravecomb" unicode="&#x300;" 
d="M475 1376l169 -298v-3h-287l-244 297v4h362z" />
    <glyph glyph-name="acutecomb" unicode="&#x301;" 
d="M254 1376h362v-4l-244 -297h-287v3z" />
    <glyph glyph-name="uni0302" unicode="&#x302;" 
d="M273 1376h365l173 -297v-4h-257l-94 134h-9l-94 -134h-257v4z" />
    <glyph glyph-name="tildecomb" unicode="&#x303;" 
d="M583 1082q-36 0 -69.5 7.5t-63.5 18t-57 18t-50 7.5q-29 0 -40 -15.5t-12 -47.5v-1h-191v40q0 107 46.5 176.5t164.5 69.5q40 0 74 -7.5t63 -18t55 -18t49 -7.5q28 0 38.5 16t11.5 47v1h192v-43q0 -107 -47 -175t-164 -68z" />
    <glyph glyph-name="uni0304" unicode="&#x304;" 
d="M90 1094v209h657v-209h-657z" />
    <glyph glyph-name="uni0306" unicode="&#x306;" 
d="M438 1064q-174 0 -252 82.5t-80 229.5h223q3 -51 28 -80t81 -29q55 0 80.5 28.5t28.5 80.5h223q-2 -147 -79 -229.5t-253 -82.5z" />
    <glyph glyph-name="uni0307" unicode="&#x307;" 
d="M274 1057q-88 0 -131 43t-43 116v7q0 74 43 118t131 44q89 0 132.5 -44t43.5 -118v-7q0 -73 -43.5 -116t-132.5 -43z" />
    <glyph glyph-name="uni0308" unicode="&#x308;" 
d="M255 1062q-78 0 -116.5 40.5t-38.5 113.5v8q0 74 38.5 115t116.5 41q80 0 118.5 -41t38.5 -115v-8q0 -73 -38.5 -113.5t-118.5 -40.5zM620 1062q-79 0 -117 40.5t-38 113.5v8q0 74 38 115t117 41q78 0 117 -41t39 -115v-8q0 -73 -39 -113.5t-117 -40.5z" />
    <glyph glyph-name="hookabovecomb" unicode="&#x309;" 
d="M141 1061q146 15 228 70.5t82 165.5q0 90 -57 135t-158 45q-46 0 -83.5 -7t-65.5 -17l-12 -159q21 8 43.5 12.5t45.5 4.5q55 0 55 -37q0 -25 -26 -37.5t-79 -21.5z" />
    <glyph glyph-name="uni030A" unicode="&#x30a;" 
d="M100 1245v7q0 82 56 134.5t183 52.5t183 -52.5t56 -134.5v-7q0 -81 -56 -134t-183 -53t-183 53t-56 134zM264 1247q0 -28 19 -44t56 -16q36 0 55 16t19 44v4q0 28 -19 43t-55 15q-37 0 -56 -15t-19 -43v-4z" />
    <glyph glyph-name="uni030B" unicode="&#x30b;" 
d="M571 1376h301v-5l-186 -296h-236v2zM214 1376h301v-5l-184 -296h-238v2z" />
    <glyph glyph-name="uni030C" unicode="&#x30c;" 
d="M273 1075l-173 296v5h258l93 -135h9l95 135h256v-5l-173 -296h-365z" />
    <glyph glyph-name="uni030F" unicode="&#x30f;" 
d="M408 1376l121 -299v-2h-236l-186 296v5h301zM765 1376l121 -299v-2h-238l-184 296v5h301z" />
    <glyph glyph-name="uni0311" unicode="&#x311;" 
d="M438 1387q176 0 253 -82.5t79 -229.5h-223q-3 53 -28.5 81t-80.5 28q-56 0 -81 -29t-28 -80h-223q2 147 80 229.5t252 82.5z" />
    <glyph glyph-name="uni0312" unicode="&#x312;" 
d="M126 1073q-2 18 -4 40t-2 44q0 94 29.5 172t95.5 148l226 -50q-28 -57 -43 -121.5t-15 -145.5q0 -22 1 -42.5t3 -44.5h-291z" />
    <glyph glyph-name="uni031B" unicode="&#x31b;" 
d="M205 840l-106 135q40 25 55 64t15 86q0 18 -2 38t-4 36h296q5 -19 8 -43t3 -49q0 -102 -61 -168t-204 -99z" />
    <glyph glyph-name="dotbelowcomb" unicode="&#x323;" 
d="M274 -401q-88 0 -131 43t-43 116v7q0 74 43 118t131 44q89 0 132.5 -44t43.5 -118v-7q0 -73 -43.5 -116t-132.5 -43z" />
    <glyph glyph-name="uni0324" unicode="&#x324;" 
d="M255 -419q-78 0 -116.5 40.5t-38.5 113.5v8q0 74 38.5 115t116.5 41q80 0 118.5 -41t38.5 -115v-8q0 -73 -38.5 -113.5t-118.5 -40.5zM620 -419q-79 0 -117 40.5t-38 113.5v8q0 74 38 115t117 41q78 0 117 -41t39 -115v-8q0 -73 -39 -113.5t-117 -40.5z" />
    <glyph glyph-name="uni0326" unicode="&#x326;" 
d="M429 -90q2 -18 4 -40t2 -44q0 -94 -29.5 -171.5t-96.5 -148.5l-228 50q28 57 43 121.5t15 145.5q0 22 -1 42.5t-3 44.5h294z" />
    <glyph glyph-name="uni0327" unicode="&#x327;" 
d="M440 37l-27 -174l-133 68q24 2 47 2.5t46 0.5q113 0 165 -39.5t52 -113.5v-6q0 -90 -66 -132.5t-195 -42.5q-46 0 -87.5 5t-74.5 12l-29 168q30 -6 63 -9.5t62 -3.5q50 0 72.5 6t22.5 24v2q0 19 -30 27.5t-124 11.5h-2h-2l25 194h215z" />
    <glyph glyph-name="uni0328" unicode="&#x328;" 
d="M399 -363q-109 0 -175.5 43t-66.5 131v1q0 70 40.5 113t107.5 65v30h218v-20q-61 -7 -92 -26.5t-31 -48.5v0q0 -29 22.5 -41t65.5 -12q28 0 54 3.5t51 9.5l-29 -220q-37 -14 -77.5 -21t-87.5 -7z" />
    <glyph glyph-name="uni032E" unicode="&#x32e;" 
d="M438 -414q-174 0 -252 82.5t-80 229.5h223q3 -51 28 -80t81 -29q55 0 80.5 28.5t28.5 80.5h223q-2 -147 -79 -229.5t-253 -82.5z" />
    <glyph glyph-name="uni0331" unicode="&#x331;" 
d="M90 -318v209h657v-209h-657z" />
    <glyph glyph-name="uni0335" unicode="&#x335;" 
d="M102 551v191l663 -1v-191z" />
    <glyph glyph-name="uni0394" unicode="&#x394;" horiz-adv-x="1228" 
d="M890 132l-387 1146h313l365 -979zM47 299l255 5h421v-304h-676v299zM338 132l-291 167l365 979h313zM1181 299v-299h-685v304h430z" />
    <glyph glyph-name="uni03A9" unicode="&#x3a9;" horiz-adv-x="1313" 
d="M646 1312q192 0 322 -64.5t195.5 -184.5t65.5 -285v-105q0 -160 -72 -249.5t-221 -123.5v-11h310v-288h-544v295q74 27 114.5 93t40.5 171v193q0 81 -24 137t-70.5 85t-115.5 29q-68 0 -115.5 -29t-71.5 -85t-24 -137v-193q0 -105 40.5 -171t115.5 -93v-295h-545v288h310
v11q-148 34 -220.5 123.5t-72.5 249.5v105q0 165 65.5 285t195 184.5t321.5 64.5z" />
    <glyph glyph-name="uni03BC" unicode="&#x3bc;" horiz-adv-x="1156" 
d="M1071 985v-985h-334l11 262l-31 27v696h354zM446 421q0 -36 7 -64t22 -48t40.5 -30.5t62.5 -10.5q36 0 64 13t48 35t31 48l66 -152h-54q-11 -77 -31 -129t-54.5 -78t-89.5 -26q-36 0 -62.5 10t-44 28t-30.5 43h-6l22 -344v-60h-345v1329h354v-564z" />
    <glyph glyph-name="pi" unicode="&#x3c0;" horiz-adv-x="1250" 
d="M47 708v277h1156l-29 -277h-1127zM180 0v872h351v-872h-351zM703 -1v872h351v-872h-351z" />
    <glyph glyph-name="uni1E08" unicode="&#x1e08;" horiz-adv-x="1052" 
d="M631 -29q-286 0 -424.5 148t-138.5 423v202q0 270 139.5 416.5t419.5 146.5q72 0 132.5 -10t110.5 -27.5t89 -40.5l26 -305q-58 28 -125.5 48.5t-154.5 20.5q-139 0 -203 -70t-64 -195v-171q0 -124 65 -194.5t216 -70.5q84 0 151 21.5t125 51.5l-26 -311
q-38 -23 -89.5 -42t-113.5 -30t-135 -11zM679 32l-27 -174l-133 68q24 2 47 2.5t46 0.5q113 0 165 -39.5t52 -113.5v-6q0 -90 -66 -132.5t-195 -42.5q-46 0 -87.5 5t-74.5 12l-29 168q30 -6 63 -9.5t62 -3.5q50 0 72.5 6t22.5 24v2q0 19 -30 27.5t-124 11.5h-2h-2l25 194
h215zM603 1654h373v-3l-281 -278h-306v3z" />
    <glyph glyph-name="uni1E09" unicode="&#x1e09;" horiz-adv-x="903" 
d="M531 -27q-241 0 -357 126t-116 355v85q0 222 116 348t356 126q59 0 112 -7.5t98 -21t80 -30.5l28 -289q-49 25 -106 41.5t-127 16.5q-108 0 -154.5 -49t-46.5 -141v-65q0 -96 51 -147.5t160 -51.5q68 0 123.5 15t109.5 40l-27 -290q-55 -27 -133 -44t-167 -17zM607 37
l-27 -174l-133 68q24 2 47 2.5t46 0.5q113 0 165 -39.5t52 -113.5v-6q0 -90 -66 -132.5t-195 -42.5q-46 0 -87.5 5t-74.5 12l-29 168q30 -6 63 -9.5t62 -3.5q50 0 72.5 6t22.5 24v2q0 19 -30 27.5t-124 11.5h-2h-2l25 194h215zM505 1376h362v-4l-244 -297h-287v3z" />
    <glyph glyph-name="uni1E0C" unicode="&#x1e0c;" horiz-adv-x="1265" 
d="M359 0v302h269q104 0 155 56t51 160v246q0 104 -51 159.5t-155 55.5h-269v299h282q281 0 419.5 -132.5t138.5 -381.5v-247q0 -250 -138 -383.5t-420 -133.5h-282zM104 0v1278h357v-1278h-357zM611 -393q-84 0 -125.5 41t-41.5 111v6q0 71 41.5 112t125.5 41
q86 0 127.5 -41t41.5 -112v-6q0 -70 -41.5 -111t-127.5 -41z" />
    <glyph glyph-name="uni1E0D" unicode="&#x1e0d;" horiz-adv-x="1152" 
d="M407 -24q-170 0 -257.5 114.5t-87.5 343.5v105q0 233 87.5 351.5t267.5 118.5q88 0 146 -30t91.5 -84t46.5 -128h91l-80 -205q-1 52 -18.5 88.5t-50 56.5t-80.5 20q-71 0 -108 -42t-37 -126v-121q0 -85 37.5 -127.5t112.5 -42.5q37 0 66.5 13t50.5 36t33 53l87 -152h-98
q-14 -68 -48 -123t-95 -87t-157 -32zM708 0l10 257l-6 49v394v45l-4 289v285h352v-1319h-352zM563 -401q-88 0 -131 43t-43 116v7q0 74 43 118t131 44q89 0 132.5 -44t43.5 -118v-7q0 -73 -43.5 -116t-132.5 -43z" />
    <glyph glyph-name="uni1E0E" unicode="&#x1e0e;" horiz-adv-x="1265" 
d="M359 0v302h269q104 0 155 56t51 160v246q0 104 -51 159.5t-155 55.5h-269v299h282q281 0 419.5 -132.5t138.5 -381.5v-247q0 -250 -138 -383.5t-420 -133.5h-282zM104 0v1278h357v-1278h-357zM283 -314v209h657v-209h-657z" />
    <glyph glyph-name="uni1E0F" unicode="&#x1e0f;" horiz-adv-x="1152" 
d="M407 -24q-170 0 -257.5 114.5t-87.5 343.5v105q0 233 87.5 351.5t267.5 118.5q88 0 146 -30t91.5 -84t46.5 -128h91l-80 -205q-1 52 -18.5 88.5t-50 56.5t-80.5 20q-71 0 -108 -42t-37 -126v-121q0 -85 37.5 -127.5t112.5 -42.5q37 0 66.5 13t50.5 36t33 53l87 -152h-98
q-14 -68 -48 -123t-95 -87t-157 -32zM708 0l10 257l-6 49v394v45l-4 289v285h352v-1319h-352zM236 -318v209h657v-209h-657z" />
    <glyph glyph-name="uni1E14" unicode="&#x1e14;" horiz-adv-x="1108" 
d="M104 0v1278h353v-1278h-353zM209 0v301h823v-301h-823zM312 504v287h695v-287h-695zM209 980v298h814v-298h-814zM241 1387v209h657v-209h-657zM532 1973l214 -278v-3h-306l-281 278v3h373z" />
    <glyph glyph-name="uni1E15" unicode="&#x1e15;" horiz-adv-x="1081" 
d="M606 -26q-283 0 -415.5 123t-132.5 360v77q0 235 124.5 358t363.5 123q159 0 265 -52.5t159.5 -151t53.5 -237.5v-31q0 -40 -3.5 -81.5t-10.5 -76.5h-317q4 61 5.5 115t1.5 97q0 52 -16 87.5t-50 54t-88 18.5q-81 0 -117.5 -42t-36.5 -119v-89l2 -38v-62q0 -31 11 -60
t40.5 -51.5t84 -35.5t141.5 -13q89 0 174 14.5t164 40.5l-28 -257q-69 -34 -164.5 -52.5t-210.5 -18.5zM245 385v208h694v-208h-694zM226 1094v209h657v-209h-657zM543 1699l169 -298v-3h-287l-244 297v4h362z" />
    <glyph glyph-name="uni1E16" unicode="&#x1e16;" horiz-adv-x="1108" 
d="M104 0v1278h353v-1278h-353zM209 0v301h823v-301h-823zM312 504v287h695v-287h-695zM209 980v298h814v-298h-814zM241 1387v209h657v-209h-657zM607 1973h373v-3l-281 -278h-306v3z" />
    <glyph glyph-name="uni1E17" unicode="&#x1e17;" horiz-adv-x="1081" 
d="M606 -26q-283 0 -415.5 123t-132.5 360v77q0 235 124.5 358t363.5 123q159 0 265 -52.5t159.5 -151t53.5 -237.5v-31q0 -40 -3.5 -81.5t-10.5 -76.5h-317q4 61 5.5 115t1.5 97q0 52 -16 87.5t-50 54t-88 18.5q-81 0 -117.5 -42t-36.5 -119v-89l2 -38v-62q0 -31 11 -60
t40.5 -51.5t84 -35.5t141.5 -13q89 0 174 14.5t164 40.5l-28 -257q-69 -34 -164.5 -52.5t-210.5 -18.5zM245 385v208h694v-208h-694zM226 1094v209h657v-209h-657zM566 1699h362v-4l-244 -297h-287v3z" />
    <glyph glyph-name="uni1E1C" unicode="&#x1e1c;" horiz-adv-x="1108" 
d="M104 0v1278h353v-1278h-353zM209 0v301h823v-301h-823zM312 504v287h695v-287h-695zM209 980v298h814v-298h-814zM683 32l-27 -174l-133 68q24 2 47 2.5t46 0.5q113 0 165 -39.5t52 -113.5v-6q0 -90 -66 -132.5t-195 -42.5q-46 0 -87.5 5t-74.5 12l-29 168q30 -6 63 -9.5
t62 -3.5q50 0 72.5 6t22.5 24v2q0 19 -30 27.5t-124 11.5h-2h-2l25 194h215zM570 1361q-173 0 -250.5 77t-80.5 216h220q3 -46 29 -73t82 -27q55 0 81.5 26.5t29.5 73.5h220q-3 -139 -79.5 -216t-251.5 -77z" />
    <glyph glyph-name="uni1E1D" unicode="&#x1e1d;" horiz-adv-x="1081" 
d="M606 -26q-283 0 -415.5 123t-132.5 360v77q0 235 124.5 358t363.5 123q159 0 265 -52.5t159.5 -151t53.5 -237.5v-31q0 -40 -3.5 -81.5t-10.5 -76.5h-317q4 61 5.5 115t1.5 97q0 52 -16 87.5t-50 54t-88 18.5q-81 0 -117.5 -42t-36.5 -119v-89l2 -38v-62q0 -31 11 -60
t40.5 -51.5t84 -35.5t141.5 -13q89 0 174 14.5t164 40.5l-28 -257q-69 -34 -164.5 -52.5t-210.5 -18.5zM245 385v208h694v-208h-694zM667 37l-27 -174l-133 68q24 2 47 2.5t46 0.5q113 0 165 -39.5t52 -113.5v-6q0 -90 -66 -132.5t-195 -42.5q-46 0 -87.5 5t-74.5 12
l-29 168q30 -6 63 -9.5t62 -3.5q50 0 72.5 6t22.5 24v2q0 19 -30 27.5t-124 11.5h-2h-2l25 194h215zM554 1064q-174 0 -252 82.5t-80 229.5h223q3 -51 28 -80t81 -29q55 0 80.5 28.5t28.5 80.5h223q-2 -147 -79 -229.5t-253 -82.5z" />
    <glyph glyph-name="uni1E20" unicode="&#x1e20;" horiz-adv-x="1282" 
d="M508 -29q-146 0 -244 64.5t-147 186.5t-49 293v198q0 293 160 443.5t467 150.5q90 0 168.5 -11.5t144 -30.5t115.5 -43l30 -301q-78 31 -171.5 55t-213.5 24q-173 0 -252 -73t-79 -238v-178q0 -111 52.5 -172t167.5 -61q48 0 83.5 12.5t60 33.5t40.5 46v220l45 -101
l-229 -2v275h529v-544h-353q-15 -72 -49.5 -127.5t-100 -87.5t-175.5 -32zM846 262h340v-262h-350zM314 1387v209h657v-209h-657z" />
    <glyph glyph-name="uni1E21" unicode="&#x1e21;" horiz-adv-x="1074" 
d="M545 310q-250 0 -372.5 88.5t-122.5 245.5v12q0 110 50.5 184t154.5 114.5t264 48.5l532 28v-244l-256 5v-10q71 -9 117 -33t68 -65t22 -101v-6q0 -130 -110 -198.5t-347 -68.5zM527 -132h33q66 0 104 7.5t54.5 22t16.5 34.5v2q0 28 -26.5 38.5t-72.5 14.5l-294 29l75 5
q-21 -4 -36.5 -13.5t-24 -24t-8.5 -34.5v-2q0 -24 17.5 -42t57 -27.5t104.5 -9.5zM511 -385q-154 0 -261 23t-162 74t-55 134v4q0 57 25 96t73 60.5t115 25.5v10q-79 14 -123.5 49t-44.5 101v2q0 48 22.5 80t65 49t102.5 18v39l235 -60h-63q-24 0 -35 -7t-11 -21v-1
q0 -19 19 -26t60 -12l231 -28q176 -21 263 -86.5t87 -204.5v-7q0 -106 -58.5 -175t-170.5 -103t-273 -34h-41zM532 543q52 0 85 12.5t49.5 36.5t16.5 58v6q0 34 -16.5 58t-49.5 36.5t-85 12.5v0q-51 0 -84.5 -12.5t-50 -36t-16.5 -58.5v-6q0 -34 16.5 -58t50 -36.5
t84.5 -12.5zM209 1094v209h657v-209h-657z" />
    <glyph glyph-name="uni1E24" unicode="&#x1e24;" horiz-adv-x="1329" 
d="M467 0h-363v1278h363v-1278zM1225 0h-363v1278h363v-1278zM313 803h684v-302h-684v302zM664 -393q-84 0 -125.5 41t-41.5 111v6q0 71 41.5 112t125.5 41q86 0 127.5 -41t41.5 -112v-6q0 -70 -41.5 -111t-127.5 -41z" />
    <glyph glyph-name="uni1E25" unicode="&#x1e25;" horiz-adv-x="1156" 
d="M717 0v566q0 47 -11.5 81t-39 52t-76.5 18q-37 0 -66 -13t-49 -34.5t-32 -48.5l-72 146h80q15 69 49.5 123.5t97 86.5t159.5 32q108 0 177.5 -42t103 -126.5t33.5 -213.5v-627h-354zM92 0v1319h352v-286l-5 -342l7 -28v-663h-354zM578 -401q-88 0 -131 43t-43 116v7
q0 74 43 118t131 44q89 0 132.5 -44t43.5 -118v-7q0 -73 -43.5 -116t-132.5 -43z" />
    <glyph glyph-name="uni1E2A" unicode="&#x1e2a;" horiz-adv-x="1329" 
d="M467 0h-363v1278h363v-1278zM1225 0h-363v1278h363v-1278zM313 803h684v-302h-684v302zM665 -407q-174 0 -252 82.5t-80 229.5h223q3 -51 28 -80t81 -29q55 0 80.5 28.5t28.5 80.5h223q-2 -147 -79 -229.5t-253 -82.5z" />
    <glyph glyph-name="uni1E2B" unicode="&#x1e2b;" horiz-adv-x="1156" 
d="M717 0v566q0 47 -11.5 81t-39 52t-76.5 18q-37 0 -66 -13t-49 -34.5t-32 -48.5l-72 146h80q15 69 49.5 123.5t97 86.5t159.5 32q108 0 177.5 -42t103 -126.5t33.5 -213.5v-627h-354zM92 0v1319h352v-286l-5 -342l7 -28v-663h-354zM579 -414q-174 0 -252 82.5t-80 229.5
h223q3 -51 28 -80t81 -29q55 0 80.5 28.5t28.5 80.5h223q-2 -147 -79 -229.5t-253 -82.5z" />
    <glyph glyph-name="uni1E2E" unicode="&#x1e2e;" horiz-adv-x="571" 
d="M306 2001h295v-3l-192 -261h-239v2zM467 0h-363v1278h363v-1278zM102 1361q-78 0 -116.5 40.5t-38.5 113.5v8q0 74 38.5 115t116.5 41q80 0 118.5 -41t38.5 -115v-8q0 -73 -38.5 -113.5t-118.5 -40.5zM467 1361q-79 0 -117 40.5t-38 113.5v8q0 74 38 115t117 41
q78 0 117 -41t39 -115v-8q0 -73 -39 -113.5t-117 -40.5z" />
    <glyph glyph-name="uni1E2F" unicode="&#x1e2f;" horiz-adv-x="538" 
d="M289 1692h295v-3l-192 -261h-239v2zM92 0v985h354v-985h-354zM106 1062q-73 0 -109.5 40.5t-36.5 113.5v9q0 73 36.5 114t109.5 41q74 0 110.5 -41t36.5 -114v-9q0 -73 -36.5 -113.5t-110.5 -40.5zM432 1062q-74 0 -110 40.5t-36 113.5v9q0 73 36.5 114t109.5 41
q72 0 109 -41t37 -114v-9q0 -73 -37 -113.5t-109 -40.5z" />
    <glyph glyph-name="uni1E36" unicode="&#x1e36;" horiz-adv-x="1029" 
d="M467 0h-363v1278h363v-1278zM312 304h667v-304h-667v304zM528 -393q-84 0 -125.5 41t-41.5 111v6q0 71 41.5 112t125.5 41q86 0 127.5 -41t41.5 -112v-6q0 -70 -41.5 -111t-127.5 -41z" />
    <glyph glyph-name="uni1E37" unicode="&#x1e37;" horiz-adv-x="538" 
d="M92 0v1319h354v-1319h-354zM269 -401q-88 0 -131 43t-43 116v7q0 74 43 118t131 44q89 0 132.5 -44t43.5 -118v-7q0 -73 -43.5 -116t-132.5 -43z" />
    <glyph glyph-name="uni1E3A" unicode="&#x1e3a;" horiz-adv-x="1029" 
d="M467 0h-363v1278h363v-1278zM312 304h667v-304h-667v304zM200 -314v209h657v-209h-657z" />
    <glyph glyph-name="uni1E3B" unicode="&#x1e3b;" horiz-adv-x="538" 
d="M-16 -318v209h572v-209h-572zM92 0v1319h354v-1319h-354z" />
    <glyph glyph-name="uni1E42" unicode="&#x1e42;" horiz-adv-x="1626" 
d="M93 0l37 1278h494l183 -712h13l183 712h493l37 -1278h-350l-6 379l-7 490h-15l-186 -718h-312l-187 718h-16l-6 -491l-5 -378h-350zM812 -393q-84 0 -125.5 41t-41.5 111v6q0 71 41.5 112t125.5 41q86 0 127.5 -41t41.5 -112v-6q0 -70 -41.5 -111t-127.5 -41z" />
    <glyph glyph-name="uni1E43" unicode="&#x1e43;" horiz-adv-x="1731" 
d="M1292 0v576q0 44 -10.5 75.5t-35.5 48.5t-69 17q-35 0 -61.5 -13t-45 -34.5t-28.5 -48.5l-31 146h30q15 69 49 123.5t95.5 86.5t158.5 32q104 0 170.5 -41t99 -123.5t32.5 -207.5v-637h-354zM92 0v985h352l-11 -280l13 -9v-696h-354zM692 0v576q0 44 -10.5 75.5
t-35.5 48.5t-69 17q-35 0 -61.5 -13t-45 -34.5t-28.5 -48.5l-54 146h57q15 69 48.5 123.5t94.5 86.5t156 32q137 0 206.5 -71t86.5 -205q2 -20 5.5 -51t3.5 -54v-628h-354zM862 -401q-88 0 -131 43t-43 116v7q0 74 43 118t131 44q89 0 132.5 -44t43.5 -118v-7
q0 -73 -43.5 -116t-132.5 -43z" />
    <glyph glyph-name="uni1E44" unicode="&#x1e44;" horiz-adv-x="1329" 
d="M593 1279l292 -884h14l-16 534v350h342v-1279h-474l-306 910h-14l16 -542v-368h-343v1279h489zM669 1365q-84 0 -125.5 41t-41.5 111v6q0 71 41.5 112t125.5 41q86 0 127.5 -41t41.5 -112v-6q0 -70 -41.5 -111t-127.5 -41z" />
    <glyph glyph-name="uni1E45" unicode="&#x1e45;" horiz-adv-x="1156" 
d="M717 0v566q0 47 -11.5 81t-39.5 52t-76 18q-37 0 -66 -13t-49.5 -34.5t-32.5 -48.5l-54 146h57q15 69 50.5 123.5t99 86.5t162.5 32q108 0 177.5 -42t103 -126.5t33.5 -213.5v-627h-354zM92 0v985h352l-11 -253l13 -36v-696h-354zM578 1057q-88 0 -131 43t-43 116v7
q0 74 43 118t131 44q89 0 132.5 -44t43.5 -118v-7q0 -73 -43.5 -116t-132.5 -43z" />
    <glyph glyph-name="uni1E46" unicode="&#x1e46;" horiz-adv-x="1329" 
d="M593 1279l292 -884h14l-16 534v350h342v-1279h-474l-306 910h-14l16 -542v-368h-343v1279h489zM669 -393q-84 0 -125.5 41t-41.5 111v6q0 71 41.5 112t125.5 41q86 0 127.5 -41t41.5 -112v-6q0 -70 -41.5 -111t-127.5 -41z" />
    <glyph glyph-name="uni1E47" unicode="&#x1e47;" horiz-adv-x="1156" 
d="M717 0v566q0 47 -11.5 81t-39.5 52t-76 18q-37 0 -66 -13t-49.5 -34.5t-32.5 -48.5l-54 146h57q15 69 50.5 123.5t99 86.5t162.5 32q108 0 177.5 -42t103 -126.5t33.5 -213.5v-627h-354zM92 0v985h352l-11 -253l13 -36v-696h-354zM578 -401q-88 0 -131 43t-43 116v7
q0 74 43 118t131 44q89 0 132.5 -44t43.5 -118v-7q0 -73 -43.5 -116t-132.5 -43z" />
    <glyph glyph-name="uni1E48" unicode="&#x1e48;" horiz-adv-x="1329" 
d="M593 1279l292 -884h14l-16 534v350h342v-1279h-474l-306 910h-14l16 -542v-368h-343v1279h489zM341 -314v209h657v-209h-657z" />
    <glyph glyph-name="uni1E49" unicode="&#x1e49;" horiz-adv-x="1156" 
d="M717 0v566q0 47 -11.5 81t-39.5 52t-76 18q-37 0 -66 -13t-49.5 -34.5t-32.5 -48.5l-54 146h57q15 69 50.5 123.5t99 86.5t162.5 32q108 0 177.5 -42t103 -126.5t33.5 -213.5v-627h-354zM92 0v985h352l-11 -253l13 -36v-696h-354zM251 -318v209h657v-209h-657z" />
    <glyph glyph-name="uni1E4C" unicode="&#x1e4c;" horiz-adv-x="1294" 
d="M660 1960h302v-4l-191 -246h-245v3zM647 -33q-291 0 -435 141.5t-144 409.5v226q0 269 145 416t434 147t434 -147t145 -416v-226q0 -268 -144 -409.5t-435 -141.5zM647 265q107 0 158.5 61.5t51.5 173.5v263q0 120 -51.5 184t-158.5 64t-158.5 -64t-51.5 -184v-263
q0 -112 51.5 -173.5t158.5 -61.5zM783 1380q-36 0 -69.5 7.5t-63.5 17t-57 17t-50 7.5q-29 0 -40 -15t-12 -46v-1h-191v39q0 102 47.5 169t165.5 67q38 0 71.5 -7.5t62.5 -17t55 -17t49 -7.5q29 0 39.5 15t11.5 46v1h192v-34q0 -106 -47 -173.5t-164 -67.5z" />
    <glyph glyph-name="uni1E4D" unicode="&#x1e4d;" horiz-adv-x="1112" 
d="M577 1702h295v-3l-192 -261h-239v2zM556 -30q-247 0 -372.5 120.5t-125.5 334.5v125q0 219 126 342t372 123q247 0 372.5 -123t125.5 -342v-125q0 -214 -125 -334.5t-373 -120.5zM556 248q71 0 107.5 42.5t36.5 121.5v152q0 85 -36.5 129t-107.5 44q-70 0 -107 -44
t-37 -129v-152q0 -79 37 -121.5t107 -42.5zM693 1082q-36 0 -69.5 7.5t-63.5 18t-57 18t-50 7.5q-29 0 -40 -15.5t-12 -47.5v-1h-191v40q0 107 46.5 176.5t164.5 69.5q40 0 74 -7.5t63 -18t55 -18t49 -7.5q28 0 38.5 16t11.5 47v1h192v-43q0 -107 -47 -175t-164 -68z" />
    <glyph glyph-name="uni1E4E" unicode="&#x1e4e;" horiz-adv-x="1294" 
d="M464 1720q-78 0 -116.5 38.5t-38.5 108.5v8q0 71 38.5 110.5t116.5 39.5q80 0 118.5 -39.5t38.5 -110.5v-8q0 -70 -38.5 -108.5t-118.5 -38.5zM829 1720q-79 0 -117 38.5t-38 108.5v8q0 71 38 110.5t117 39.5q78 0 117 -39.5t39 -110.5v-8q0 -70 -39 -108.5t-117 -38.5z
M647 -33q-291 0 -435 141.5t-144 409.5v226q0 269 145 416t434 147t434 -147t145 -416v-226q0 -268 -144 -409.5t-435 -141.5zM647 265q107 0 158.5 61.5t51.5 173.5v263q0 120 -51.5 184t-158.5 64t-158.5 -64t-51.5 -184v-263q0 -112 51.5 -173.5t158.5 -61.5zM783 1380
q-36 0 -69.5 7.5t-63.5 17t-57 17t-50 7.5q-29 0 -40 -15t-12 -46v-1h-191v39q0 102 47.5 169t165.5 67q38 0 71.5 -7.5t62.5 -17t55 -17t49 -7.5q29 0 39.5 15t11.5 46v1h192v-34q0 -106 -47 -173.5t-164 -67.5z" />
    <glyph glyph-name="uni1E4F" unicode="&#x1e4f;" horiz-adv-x="1112" 
d="M374 1444q-78 0 -116.5 38.5t-38.5 108.5v8q0 71 38.5 110.5t116.5 39.5q80 0 118.5 -39.5t38.5 -110.5v-8q0 -70 -38.5 -108.5t-118.5 -38.5zM739 1444q-79 0 -117 38.5t-38 108.5v8q0 71 38 110.5t117 39.5q78 0 117 -39.5t39 -110.5v-8q0 -70 -39 -108.5t-117 -38.5z
M556 -30q-247 0 -372.5 120.5t-125.5 334.5v125q0 219 126 342t372 123q247 0 372.5 -123t125.5 -342v-125q0 -214 -125 -334.5t-373 -120.5zM556 248q71 0 107.5 42.5t36.5 121.5v152q0 85 -36.5 129t-107.5 44q-70 0 -107 -44t-37 -129v-152q0 -79 37 -121.5t107 -42.5z
M693 1082q-36 0 -69.5 7.5t-63.5 18t-57 18t-50 7.5q-29 0 -40 -15.5t-12 -47.5v-1h-191v40q0 107 46.5 176.5t164.5 69.5q40 0 74 -7.5t63 -18t55 -18t49 -7.5q28 0 38.5 16t11.5 47v1h192v-43q0 -107 -47 -175t-164 -68z" />
    <glyph glyph-name="uni1E50" unicode="&#x1e50;" horiz-adv-x="1294" 
d="M647 -33q-291 0 -435 141.5t-144 409.5v226q0 269 145 416t434 147t434 -147t145 -416v-226q0 -268 -144 -409.5t-435 -141.5zM647 265q107 0 158.5 61.5t51.5 173.5v263q0 120 -51.5 184t-158.5 64t-158.5 -64t-51.5 -184v-263q0 -112 51.5 -173.5t158.5 -61.5z
M318 1387v209h657v-209h-657zM609 1973l214 -278v-3h-306l-281 278v3h373z" />
    <glyph glyph-name="uni1E51" unicode="&#x1e51;" horiz-adv-x="1112" 
d="M556 -30q-247 0 -372.5 120.5t-125.5 334.5v125q0 219 126 342t372 123q247 0 372.5 -123t125.5 -342v-125q0 -214 -125 -334.5t-373 -120.5zM556 248q71 0 107.5 42.5t36.5 121.5v152q0 85 -36.5 129t-107.5 44q-70 0 -107 -44t-37 -129v-152q0 -79 37 -121.5t107 -42.5
zM229 1094v209h657v-209h-657zM546 1699l169 -298v-3h-287l-244 297v4h362z" />
    <glyph glyph-name="uni1E52" unicode="&#x1e52;" horiz-adv-x="1294" 
d="M647 -33q-291 0 -435 141.5t-144 409.5v226q0 269 145 416t434 147t434 -147t145 -416v-226q0 -268 -144 -409.5t-435 -141.5zM647 265q107 0 158.5 61.5t51.5 173.5v263q0 120 -51.5 184t-158.5 64t-158.5 -64t-51.5 -184v-263q0 -112 51.5 -173.5t158.5 -61.5z
M318 1387v209h657v-209h-657zM684 1973h373v-3l-281 -278h-306v3z" />
    <glyph glyph-name="uni1E53" unicode="&#x1e53;" horiz-adv-x="1112" 
d="M556 -30q-247 0 -372.5 120.5t-125.5 334.5v125q0 219 126 342t372 123q247 0 372.5 -123t125.5 -342v-125q0 -214 -125 -334.5t-373 -120.5zM556 248q71 0 107.5 42.5t36.5 121.5v152q0 85 -36.5 129t-107.5 44q-70 0 -107 -44t-37 -129v-152q0 -79 37 -121.5t107 -42.5
zM229 1094v209h657v-209h-657zM569 1699h362v-4l-244 -297h-287v3z" />
    <glyph glyph-name="uni1E5A" unicode="&#x1e5a;" horiz-adv-x="1230" 
d="M814 0l-20 233q-5 61 -23 97t-53 52t-92 16l-270 1v274l278 1q87 0 126 36.5t39 113.5v17q0 77 -38 113.5t-127 36.5h-279v287h332q245 0 358 -91t113 -266v-23q0 -133 -70.5 -202.5t-207.5 -74.5v-52l-56 48q119 -8 184.5 -47.5t97 -112t44.5 -181.5l34 -276h-370z
M104 0v1278h351v-704l2 -134v-440h-353zM624 -393q-84 0 -125.5 41t-41.5 111v6q0 71 41.5 112t125.5 41q86 0 127.5 -41t41.5 -112v-6q0 -70 -41.5 -111t-127.5 -41z" />
    <glyph glyph-name="uni1E5B" unicode="&#x1e5b;" horiz-adv-x="810" 
d="M441 535l-102 200h83q20 125 88 195.5t195 70.5q19 0 35.5 -2t32.5 -5l17 -360q-20 4 -47.5 6t-53.5 2q-94 0 -156 -28.5t-92 -78.5zM92 0v985h330l-14 -326h38v-659h-354zM268 -401q-88 0 -131 43t-43 116v7q0 74 43 118t131 44q89 0 132.5 -44t43.5 -118v-7
q0 -73 -43.5 -116t-132.5 -43z" />
    <glyph glyph-name="uni1E5E" unicode="&#x1e5e;" horiz-adv-x="1230" 
d="M814 0l-20 233q-5 61 -23 97t-53 52t-92 16l-270 1v274l278 1q87 0 126 36.5t39 113.5v17q0 77 -38 113.5t-127 36.5h-279v287h332q245 0 358 -91t113 -266v-23q0 -133 -70.5 -202.5t-207.5 -74.5v-52l-56 48q119 -8 184.5 -47.5t97 -112t44.5 -181.5l34 -276h-370z
M104 0v1278h351v-704l2 -134v-440h-353zM296 -314v209h657v-209h-657z" />
    <glyph glyph-name="uni1E5F" unicode="&#x1e5f;" horiz-adv-x="810" 
d="M441 535l-102 200h83q20 125 88 195.5t195 70.5q19 0 35.5 -2t32.5 -5l17 -360q-20 4 -47.5 6t-53.5 2q-94 0 -156 -28.5t-92 -78.5zM92 0v985h330l-14 -326h38v-659h-354zM-59 -318v209h657v-209h-657z" />
    <glyph glyph-name="uni1E60" unicode="&#x1e60;" horiz-adv-x="1093" 
d="M516 -29q-88 0 -166 11t-143 28.5t-115 36.5l-31 328q80 -34 189 -64.5t229 -30.5q107 0 149.5 22t42.5 71v4q0 33 -20.5 54.5t-68.5 41t-129 45.5q-131 42 -221 91.5t-136 124t-46 190.5v15q0 179 123.5 273.5t360.5 94.5q139 0 240.5 -23t175.5 -56l31 -306
q-80 36 -178 59.5t-206 23.5q-71 0 -110.5 -9.5t-54.5 -28t-15 -45.5v-3q0 -28 18.5 -49.5t67.5 -43.5t140 -51q130 -41 218.5 -86t133.5 -115.5t45 -190.5v-14q0 -199 -129 -298.5t-395 -99.5zM537 1365q-84 0 -125.5 41t-41.5 111v6q0 71 41.5 112t125.5 41
q86 0 127.5 -41t41.5 -112v-6q0 -70 -41.5 -111t-127.5 -41z" />
    <glyph glyph-name="uni1E61" unicode="&#x1e61;" horiz-adv-x="950" 
d="M457 -25q-117 0 -213 19t-166 45l-29 291q78 -30 173.5 -54.5t203.5 -24.5q79 0 108.5 13t29.5 42v2q0 22 -17 35t-59.5 24.5t-117.5 28.5q-123 29 -195 69.5t-103 98.5t-31 138v8q0 152 109.5 226.5t319.5 74.5q113 0 206.5 -19.5t157.5 -47.5l29 -271q-73 29 -163 48.5
t-184 19.5q-54 0 -83.5 -5.5t-40.5 -16.5t-11 -27v-2q0 -18 14 -30.5t53 -24.5t114 -30q123 -28 200 -62t113 -88.5t36 -147.5v-6q0 -166 -111 -246t-343 -80zM469 1057q-88 0 -131 43t-43 116v7q0 74 43 118t131 44q89 0 132.5 -44t43.5 -118v-7q0 -73 -43.5 -116
t-132.5 -43z" />
    <glyph glyph-name="uni1E62" unicode="&#x1e62;" horiz-adv-x="1093" 
d="M516 -29q-88 0 -166 11t-143 28.5t-115 36.5l-31 328q80 -34 189 -64.5t229 -30.5q107 0 149.5 22t42.5 71v4q0 33 -20.5 54.5t-68.5 41t-129 45.5q-131 42 -221 91.5t-136 124t-46 190.5v15q0 179 123.5 273.5t360.5 94.5q139 0 240.5 -23t175.5 -56l31 -306
q-80 36 -178 59.5t-206 23.5q-71 0 -110.5 -9.5t-54.5 -28t-15 -45.5v-3q0 -28 18.5 -49.5t67.5 -43.5t140 -51q130 -41 218.5 -86t133.5 -115.5t45 -190.5v-14q0 -199 -129 -298.5t-395 -99.5zM537 -393q-84 0 -125.5 41t-41.5 111v6q0 71 41.5 112t125.5 41
q86 0 127.5 -41t41.5 -112v-6q0 -70 -41.5 -111t-127.5 -41z" />
    <glyph glyph-name="uni1E63" unicode="&#x1e63;" horiz-adv-x="950" 
d="M457 -25q-117 0 -213 19t-166 45l-29 291q78 -30 173.5 -54.5t203.5 -24.5q79 0 108.5 13t29.5 42v2q0 22 -17 35t-59.5 24.5t-117.5 28.5q-123 29 -195 69.5t-103 98.5t-31 138v8q0 152 109.5 226.5t319.5 74.5q113 0 206.5 -19.5t157.5 -47.5l29 -271q-73 29 -163 48.5
t-184 19.5q-54 0 -83.5 -5.5t-40.5 -16.5t-11 -27v-2q0 -18 14 -30.5t53 -24.5t114 -30q123 -28 200 -62t113 -88.5t36 -147.5v-6q0 -166 -111 -246t-343 -80zM471 -401q-88 0 -131 43t-43 116v7q0 74 43 118t131 44q89 0 132.5 -44t43.5 -118v-7q0 -73 -43.5 -116
t-132.5 -43z" />
    <glyph glyph-name="uni1E64" unicode="&#x1e64;" horiz-adv-x="1093" 
d="M537 1730q-84 0 -125.5 40t-41.5 109v6q0 69 41.5 109t125.5 40q86 0 127.5 -40t41.5 -109v-6q0 -69 -41.5 -109t-127.5 -40zM516 -29q-88 0 -166 11t-143 28.5t-115 36.5l-31 328q80 -34 189 -64.5t229 -30.5q107 0 149.5 22t42.5 71v4q0 33 -20.5 54.5t-68.5 41
t-129 45.5q-131 42 -221 91.5t-136 124t-46 190.5v15q0 179 123.5 273.5t360.5 94.5q139 0 240.5 -23t175.5 -56l31 -306q-80 36 -178 59.5t-206 23.5q-71 0 -110.5 -9.5t-54.5 -28t-15 -45.5v-3q0 -28 18.5 -49.5t67.5 -43.5t140 -51q130 -41 218.5 -86t133.5 -115.5
t45 -190.5v-14q0 -199 -129 -298.5t-395 -99.5zM575 1654h373v-3l-281 -278h-306v3z" />
    <glyph glyph-name="uni1E65" unicode="&#x1e65;" horiz-adv-x="950" 
d="M469 1439q-84 0 -125.5 41t-41.5 111v7q0 71 41.5 113.5t125.5 42.5q86 0 127.5 -42.5t41.5 -113.5v-7q0 -70 -41.5 -111t-127.5 -41zM457 -25q-117 0 -213 19t-166 45l-29 291q78 -30 173.5 -54.5t203.5 -24.5q79 0 108.5 13t29.5 42v2q0 22 -17 35t-59.5 24.5
t-117.5 28.5q-123 29 -195 69.5t-103 98.5t-31 138v8q0 152 109.5 226.5t319.5 74.5q113 0 206.5 -19.5t157.5 -47.5l29 -271q-73 29 -163 48.5t-184 19.5q-54 0 -83.5 -5.5t-40.5 -16.5t-11 -27v-2q0 -18 14 -30.5t53 -24.5t114 -30q123 -28 200 -62t113 -88.5t36 -147.5
v-6q0 -166 -111 -246t-343 -80zM481 1376h362v-4l-244 -297h-287v3z" />
    <glyph glyph-name="uni1E66" unicode="&#x1e66;" horiz-adv-x="1093" 
d="M537 1720q-84 0 -125.5 40t-41.5 109v6q0 69 41.5 109t125.5 40q86 0 127.5 -40t41.5 -109v-6q0 -69 -41.5 -109t-127.5 -40zM516 -29q-88 0 -166 11t-143 28.5t-115 36.5l-31 328q80 -34 189 -64.5t229 -30.5q107 0 149.5 22t42.5 71v4q0 33 -20.5 54.5t-68.5 41
t-129 45.5q-131 42 -221 91.5t-136 124t-46 190.5v15q0 179 123.5 273.5t360.5 94.5q139 0 240.5 -23t175.5 -56l31 -306q-80 36 -178 59.5t-206 23.5q-71 0 -110.5 -9.5t-54.5 -28t-15 -45.5v-3q0 -28 18.5 -49.5t67.5 -43.5t140 -51q130 -41 218.5 -86t133.5 -115.5
t45 -190.5v-14q0 -199 -129 -298.5t-395 -99.5zM361 1373l-200 276v5h268l104 -117h9l104 117h268v-5l-200 -276h-353z" />
    <glyph glyph-name="uni1E67" unicode="&#x1e67;" horiz-adv-x="950" 
d="M469 1424q-84 0 -125.5 41t-41.5 111v7q0 71 41.5 113.5t125.5 42.5q86 0 127.5 -42.5t41.5 -113.5v-7q0 -70 -41.5 -111t-127.5 -41zM457 -25q-117 0 -213 19t-166 45l-29 291q78 -30 173.5 -54.5t203.5 -24.5q79 0 108.5 13t29.5 42v2q0 22 -17 35t-59.5 24.5
t-117.5 28.5q-123 29 -195 69.5t-103 98.5t-31 138v8q0 152 109.5 226.5t319.5 74.5q113 0 206.5 -19.5t157.5 -47.5l29 -271q-73 29 -163 48.5t-184 19.5q-54 0 -83.5 -5.5t-40.5 -16.5t-11 -27v-2q0 -18 14 -30.5t53 -24.5t114 -30q123 -28 200 -62t113 -88.5t36 -147.5
v-6q0 -166 -111 -246t-343 -80zM287 1075l-173 296v5h258l93 -135h9l95 135h256v-5l-173 -296h-365z" />
    <glyph glyph-name="uni1E68" unicode="&#x1e68;" horiz-adv-x="1093" 
d="M516 -29q-88 0 -166 11t-143 28.5t-115 36.5l-31 328q80 -34 189 -64.5t229 -30.5q107 0 149.5 22t42.5 71v4q0 33 -20.5 54.5t-68.5 41t-129 45.5q-131 42 -221 91.5t-136 124t-46 190.5v15q0 179 123.5 273.5t360.5 94.5q139 0 240.5 -23t175.5 -56l31 -306
q-80 36 -178 59.5t-206 23.5q-71 0 -110.5 -9.5t-54.5 -28t-15 -45.5v-3q0 -28 18.5 -49.5t67.5 -43.5t140 -51q130 -41 218.5 -86t133.5 -115.5t45 -190.5v-14q0 -199 -129 -298.5t-395 -99.5zM537 -393q-84 0 -125.5 41t-41.5 111v6q0 71 41.5 112t125.5 41
q86 0 127.5 -41t41.5 -112v-6q0 -70 -41.5 -111t-127.5 -41zM537 1365q-84 0 -125.5 41t-41.5 111v6q0 71 41.5 112t125.5 41q86 0 127.5 -41t41.5 -112v-6q0 -70 -41.5 -111t-127.5 -41z" />
    <glyph glyph-name="uni1E69" unicode="&#x1e69;" horiz-adv-x="950" 
d="M457 -25q-117 0 -213 19t-166 45l-29 291q78 -30 173.5 -54.5t203.5 -24.5q79 0 108.5 13t29.5 42v2q0 22 -17 35t-59.5 24.5t-117.5 28.5q-123 29 -195 69.5t-103 98.5t-31 138v8q0 152 109.5 226.5t319.5 74.5q113 0 206.5 -19.5t157.5 -47.5l29 -271q-73 29 -163 48.5
t-184 19.5q-54 0 -83.5 -5.5t-40.5 -16.5t-11 -27v-2q0 -18 14 -30.5t53 -24.5t114 -30q123 -28 200 -62t113 -88.5t36 -147.5v-6q0 -166 -111 -246t-343 -80zM471 -401q-88 0 -131 43t-43 116v7q0 74 43 118t131 44q89 0 132.5 -44t43.5 -118v-7q0 -73 -43.5 -116
t-132.5 -43zM469 1057q-88 0 -131 43t-43 116v7q0 74 43 118t131 44q89 0 132.5 -44t43.5 -118v-7q0 -73 -43.5 -116t-132.5 -43z" />
    <glyph glyph-name="uni1E6C" unicode="&#x1e6c;" horiz-adv-x="1142" 
d="M390 0v1207h363v-1207h-363zM47 977v301h1048v-301h-1048zM570 -393q-84 0 -125.5 41t-41.5 111v6q0 71 41.5 112t125.5 41q86 0 127.5 -41t41.5 -112v-6q0 -70 -41.5 -111t-127.5 -41z" />
    <glyph glyph-name="uni1E6D" unicode="&#x1e6d;" horiz-adv-x="819" 
d="M498 -23q-137 0 -217.5 41.5t-115 123.5t-34.5 202v528h351v-468q0 -64 29 -93.5t114 -29.5q46 0 91.5 10.5t82.5 24.5l-30 -290q-52 -22 -120 -35.5t-151 -13.5zM8 708v277h781l-30 -277h-751zM136 961l-1 247l349 31l-12 -278h-336zM442 -401q-88 0 -131 43t-43 116v7
q0 74 43 118t131 44q89 0 132.5 -44t43.5 -118v-7q0 -73 -43.5 -116t-132.5 -43z" />
    <glyph glyph-name="uni1E6E" unicode="&#x1e6e;" horiz-adv-x="1142" 
d="M390 0v1207h363v-1207h-363zM47 977v301h1048v-301h-1048zM242 -314v209h657v-209h-657z" />
    <glyph glyph-name="uni1E6F" unicode="&#x1e6f;" horiz-adv-x="819" 
d="M498 -23q-137 0 -217.5 41.5t-115 123.5t-34.5 202v528h351v-468q0 -64 29 -93.5t114 -29.5q46 0 91.5 10.5t82.5 24.5l-30 -290q-52 -22 -120 -35.5t-151 -13.5zM8 708v277h781l-30 -277h-751zM136 961l-1 247l349 31l-12 -278h-336zM115 -318v209h657v-209h-657z" />
    <glyph glyph-name="uni1E78" unicode="&#x1e78;" horiz-adv-x="1309" 
d="M668 1960h302v-4l-191 -246h-245v3zM655 -33q-286 0 -423 135.5t-137 397.5v778h363v-783q0 -112 48 -168t149 -56t148.5 56t47.5 168v783h363v-778q0 -262 -136.5 -397.5t-422.5 -135.5zM791 1380q-36 0 -69.5 7.5t-63.5 17t-57 17t-50 7.5q-29 0 -40 -15t-12 -46v-1
h-191v39q0 102 47.5 169t165.5 67q38 0 71.5 -7.5t62.5 -17t55 -17t49 -7.5q29 0 39.5 15t11.5 46v1h192v-34q0 -106 -47 -173.5t-164 -67.5z" />
    <glyph glyph-name="uni1E79" unicode="&#x1e79;" horiz-adv-x="1156" 
d="M599 1702h295v-3l-192 -261h-239v2zM439 985v-566q0 -47 11.5 -81t39.5 -52t76 -18q38 0 66.5 13t49 35t32.5 48l54 -146h-57q-15 -68 -50.5 -123t-98.5 -87t-163 -32q-107 0 -177 42t-103.5 126.5t-33.5 213.5v627h354zM1064 985v-985h-352l11 253l-13 36v696h354z
M715 1082q-36 0 -69.5 7.5t-63.5 18t-57 18t-50 7.5q-29 0 -40 -15.5t-12 -47.5v-1h-191v40q0 107 46.5 176.5t164.5 69.5q40 0 74 -7.5t63 -18t55 -18t49 -7.5q28 0 38.5 16t11.5 47v1h192v-43q0 -107 -47 -175t-164 -68z" />
    <glyph glyph-name="uni1E7A" unicode="&#x1e7a;" horiz-adv-x="1309" 
d="M655 -33q-286 0 -423 135.5t-137 397.5v778h363v-783q0 -112 48 -168t149 -56t148.5 56t47.5 168v783h363v-778q0 -262 -136.5 -397.5t-422.5 -135.5zM326 1387v209h657v-209h-657zM472 1680q-78 0 -116.5 40.5t-38.5 113.5v8q0 74 38.5 115t116.5 41q80 0 118.5 -41
t38.5 -115v-8q0 -73 -38.5 -113.5t-118.5 -40.5zM837 1680q-79 0 -117 40.5t-38 113.5v8q0 74 38 115t117 41q78 0 117 -41t39 -115v-8q0 -73 -39 -113.5t-117 -40.5z" />
    <glyph glyph-name="uni1E7B" unicode="&#x1e7b;" horiz-adv-x="1156" 
d="M439 985v-566q0 -47 11.5 -81t39.5 -52t76 -18q38 0 66.5 13t49 35t32.5 48l54 -146h-57q-15 -68 -50.5 -123t-98.5 -87t-163 -32q-107 0 -177 42t-103.5 126.5t-33.5 213.5v627h354zM1064 985v-985h-352l11 253l-13 36v696h354zM251 1094v209h657v-209h-657zM397 1385
q-78 0 -116.5 40.5t-38.5 113.5v8q0 74 38.5 115t116.5 41q80 0 118.5 -41t38.5 -115v-8q0 -73 -38.5 -113.5t-118.5 -40.5zM762 1385q-79 0 -117 40.5t-38 113.5v8q0 74 38 115t117 41q78 0 117 -41t39 -115v-8q0 -73 -39 -113.5t-117 -40.5z" />
    <glyph glyph-name="Wgrave" unicode="&#x1e80;" horiz-adv-x="1749" 
d="M241 0l-211 1278h366l104 -872l12 -104h18l15 104l119 845h422l118 -845l15 -104h18l13 103l106 873h363l-209 -1278h-503l-104 797l-20 156h-16l-21 -156l-102 -797h-503zM837 1654l214 -278v-3h-306l-281 278v3h373z" />
    <glyph glyph-name="wgrave" unicode="&#x1e81;" horiz-adv-x="1589" 
d="M199 0l-182 985h357l99 -736h19l94 713h418l97 -713h17l101 736h353l-182 -985h-497l-78 604l-12 100h-14l-13 -100l-79 -604h-498zM783 1376l169 -298v-3h-287l-244 297v4h362z" />
    <glyph glyph-name="Wacute" unicode="&#x1e82;" horiz-adv-x="1749" 
d="M241 0l-211 1278h366l104 -872l12 -104h18l15 104l119 845h422l118 -845l15 -104h18l13 103l106 873h363l-209 -1278h-503l-104 797l-20 156h-16l-21 -156l-102 -797h-503zM912 1654h373v-3l-281 -278h-306v3z" />
    <glyph glyph-name="wacute" unicode="&#x1e83;" horiz-adv-x="1589" 
d="M199 0l-182 985h357l99 -736h19l94 713h418l97 -713h17l101 736h353l-182 -985h-497l-78 604l-12 100h-14l-13 -100l-79 -604h-498zM806 1376h362v-4l-244 -297h-287v3z" />
    <glyph glyph-name="Wdieresis" unicode="&#x1e84;" horiz-adv-x="1749" 
d="M241 0l-211 1278h366l104 -872l12 -104h18l15 104l119 845h422l118 -845l15 -104h18l13 103l106 873h363l-209 -1278h-503l-104 797l-20 156h-16l-21 -156l-102 -797h-503zM692 1361q-78 0 -116.5 40.5t-38.5 113.5v8q0 74 38.5 115t116.5 41q80 0 118.5 -41t38.5 -115
v-8q0 -73 -38.5 -113.5t-118.5 -40.5zM1057 1361q-79 0 -117 40.5t-38 113.5v8q0 74 38 115t117 41q78 0 117 -41t39 -115v-8q0 -73 -39 -113.5t-117 -40.5z" />
    <glyph glyph-name="wdieresis" unicode="&#x1e85;" horiz-adv-x="1589" 
d="M199 0l-182 985h357l99 -736h19l94 713h418l97 -713h17l101 736h353l-182 -985h-497l-78 604l-12 100h-14l-13 -100l-79 -604h-498zM612 1062q-78 0 -116.5 40.5t-38.5 113.5v8q0 74 38.5 115t116.5 41q80 0 118.5 -41t38.5 -115v-8q0 -73 -38.5 -113.5t-118.5 -40.5z
M977 1062q-79 0 -117 40.5t-38 113.5v8q0 74 38 115t117 41q78 0 117 -41t39 -115v-8q0 -73 -39 -113.5t-117 -40.5z" />
    <glyph glyph-name="uni1E8E" unicode="&#x1e8e;" horiz-adv-x="1197" 
d="M436 318l-436 960h377l138 -350l75 -208h17l75 208l137 350h377l-434 -960h-326zM421 0v640h356v-640h-356zM597 1365q-84 0 -125.5 41t-41.5 111v6q0 71 41.5 112t125.5 41q86 0 127.5 -41t41.5 -112v-6q0 -70 -41.5 -111t-127.5 -41z" />
    <glyph glyph-name="uni1E8F" unicode="&#x1e8f;" horiz-adv-x="1075" 
d="M695 276l-190 -82l197 791h362l-382 -1329h-353l153 518l168 -131h-390l-249 942h364l138 -709h182zM537 1057q-88 0 -131 43t-43 116v7q0 74 43 118t131 44q89 0 132.5 -44t43.5 -118v-7q0 -73 -43.5 -116t-132.5 -43z" />
    <glyph glyph-name="uni1E92" unicode="&#x1e92;" horiz-adv-x="1093" 
d="M1038 302v-302h-984v284l552 693h-542v301h963v-282l-554 -694h565zM546 -393q-84 0 -125.5 41t-41.5 111v6q0 71 41.5 112t125.5 41q86 0 127.5 -41t41.5 -112v-6q0 -70 -41.5 -111t-127.5 -41z" />
    <glyph glyph-name="uni1E93" unicode="&#x1e93;" horiz-adv-x="966" 
d="M905 290v-290h-844v263l411 433h-407v289h834v-262l-413 -433h419zM482 -401q-88 0 -131 43t-43 116v7q0 74 43 118t131 44q89 0 132.5 -44t43.5 -118v-7q0 -73 -43.5 -116t-132.5 -43z" />
    <glyph glyph-name="uni1E97" unicode="&#x1e97;" horiz-adv-x="819" 
d="M498 -23q-137 0 -217.5 41.5t-115 123.5t-34.5 202v528h351v-468q0 -64 29 -93.5t114 -29.5q46 0 91.5 10.5t82.5 24.5l-30 -290q-52 -22 -120 -35.5t-151 -13.5zM8 708v277h781l-30 -277h-751zM136 961l-1 247l349 31l-12 -278h-336zM131 1291q-78 0 -116.5 40.5
t-38.5 113.5v8q0 74 38.5 115t116.5 41q80 0 118.5 -41t38.5 -115v-8q0 -73 -38.5 -113.5t-118.5 -40.5zM496 1291q-79 0 -117 40.5t-38 113.5v8q0 74 38 115t117 41q78 0 117 -41t39 -115v-8q0 -73 -39 -113.5t-117 -40.5z" />
    <glyph glyph-name="uni1E9E" unicode="&#x1e9e;" horiz-adv-x="1332" 
d="M446 0h-351v754q0 265 133.5 394.5t414.5 129.5h580v-272l-329 -365l-169 54q52 21 109.5 31t110.5 10q163 0 246.5 -84t83.5 -247v-29q0 -191 -113.5 -295.5t-341.5 -104.5q-73 0 -134 10t-104 23l-30 301q38 -12 89 -21t106 -9q93 0 129.5 32t36.5 92v9q0 60 -38.5 89
t-127.5 29q-38 0 -71.5 -3.5t-66.5 -8.5v223l306 335l25 -84h-246q-130 0 -189 -56.5t-59 -190.5v-746z" />
    <glyph glyph-name="uni1EA0" unicode="&#x1ea0;" horiz-adv-x="1275" 
d="M15 0l355 1278h539l351 -1278h-365l-244 1041h-23l-248 -1041h-365zM350 277v276h573v-276h-573zM637 -393q-84 0 -125.5 41t-41.5 111v6q0 71 41.5 112t125.5 41q86 0 127.5 -41t41.5 -112v-6q0 -70 -41.5 -111t-127.5 -41z" />
    <glyph glyph-name="uni1EA1" unicode="&#x1ea1;" horiz-adv-x="1077" 
d="M650 0l10 252l-7 9v306l-3 36q0 69 -44.5 101.5t-151.5 32.5q-97 0 -186.5 -23t-171.5 -53l29 269q50 22 111 40.5t133 29.5t153 11q137 0 228.5 -31.5t145.5 -89t77.5 -136.5t23.5 -174v-580h-347zM345 -24q-148 0 -223.5 75.5t-75.5 214.5v25q0 148 90.5 218t289.5 95
l251 32l21 -202l-213 -31q-58 -8 -80.5 -27.5t-22.5 -57.5v-4q0 -35 23.5 -57t78.5 -22q46 0 79.5 12.5t56 33.5t35.5 46l50 -120h-57q-15 -67 -47.5 -119t-93.5 -82t-162 -30zM536 -401q-88 0 -131 43t-43 116v7q0 74 43 118t131 44q89 0 132.5 -44t43.5 -118v-7
q0 -73 -43.5 -116t-132.5 -43z" />
    <glyph glyph-name="uni1EA2" unicode="&#x1ea2;" horiz-adv-x="1275" 
d="M15 0l355 1278h539l351 -1278h-365l-244 1041h-23l-248 -1041h-365zM350 277v276h573v-276h-573zM563 1353q146 15 228 70.5t82 165.5q0 90 -57 135t-158 45q-46 0 -83.5 -7t-65.5 -17l-12 -159q21 8 43.5 12.5t45.5 4.5q55 0 55 -37q0 -25 -26 -37.5t-79 -21.5z" />
    <glyph glyph-name="uni1EA3" unicode="&#x1ea3;" horiz-adv-x="1077" 
d="M650 0l10 252l-7 9v306l-3 36q0 69 -44.5 101.5t-151.5 32.5q-97 0 -186.5 -23t-171.5 -53l29 269q50 22 111 40.5t133 29.5t153 11q137 0 228.5 -31.5t145.5 -89t77.5 -136.5t23.5 -174v-580h-347zM345 -24q-148 0 -223.5 75.5t-75.5 214.5v25q0 148 90.5 218t289.5 95
l251 32l21 -202l-213 -31q-58 -8 -80.5 -27.5t-22.5 -57.5v-4q0 -35 23.5 -57t78.5 -22q46 0 79.5 12.5t56 33.5t35.5 46l50 -120h-57q-15 -67 -47.5 -119t-93.5 -82t-162 -30zM460 1061q146 15 228 70.5t82 165.5q0 90 -57 135t-158 45q-46 0 -83.5 -7t-65.5 -17l-12 -159
q21 8 43.5 12.5t45.5 4.5q55 0 55 -37q0 -25 -26 -37.5t-79 -21.5z" />
    <glyph glyph-name="uni1EA4" unicode="&#x1ea4;" horiz-adv-x="1275" 
d="M15 0l355 1278h539l351 -1278h-365l-244 1041h-23l-248 -1041h-365zM350 277v276h573v-276h-573zM1045 1836h302v-4l-191 -246h-245v3zM462 1654h353l200 -276v-5h-268l-104 117h-9l-104 -117h-268v5z" />
    <glyph glyph-name="uni1EA5" unicode="&#x1ea5;" horiz-adv-x="1077" 
d="M650 0l10 252l-7 9v306l-3 36q0 69 -44.5 101.5t-151.5 32.5q-97 0 -186.5 -23t-171.5 -53l29 269q50 22 111 40.5t133 29.5t153 11q137 0 228.5 -31.5t145.5 -89t77.5 -136.5t23.5 -174v-580h-347zM345 -24q-148 0 -223.5 75.5t-75.5 214.5v25q0 148 90.5 218t289.5 95
l251 32l21 -202l-213 -31q-58 -8 -80.5 -27.5t-22.5 -57.5v-4q0 -35 23.5 -57t78.5 -22q46 0 79.5 12.5t56 33.5t35.5 46l50 -120h-57q-15 -67 -47.5 -119t-93.5 -82t-162 -30zM952 1571h295v-3l-192 -261h-239v2zM354 1376h365l173 -297v-4h-257l-94 134h-9l-94 -134h-257
v4z" />
    <glyph glyph-name="uni1EA6" unicode="&#x1ea6;" horiz-adv-x="1275" 
d="M15 0l355 1278h539l351 -1278h-365l-244 1041h-23l-248 -1041h-365zM350 277v276h573v-276h-573zM1083 1835l134 -247v-3h-245l-191 246v4h302zM462 1654h353l200 -276v-5h-268l-104 117h-9l-104 -117h-268v5z" />
    <glyph glyph-name="uni1EA7" unicode="&#x1ea7;" horiz-adv-x="1077" 
d="M650 0l10 252l-7 9v306l-3 36q0 69 -44.5 101.5t-151.5 32.5q-97 0 -186.5 -23t-171.5 -53l29 269q50 22 111 40.5t133 29.5t153 11q137 0 228.5 -31.5t145.5 -89t77.5 -136.5t23.5 -174v-580h-347zM345 -24q-148 0 -223.5 75.5t-75.5 214.5v25q0 148 90.5 218t289.5 95
l251 32l21 -202l-213 -31q-58 -8 -80.5 -27.5t-22.5 -57.5v-4q0 -35 23.5 -57t78.5 -22q46 0 79.5 12.5t56 33.5t35.5 46l50 -120h-57q-15 -67 -47.5 -119t-93.5 -82t-162 -30zM976 1571l136 -262v-2h-239l-192 261v3h295zM354 1376h365l173 -297v-4h-257l-94 134h-9
l-94 -134h-257v4z" />
    <glyph glyph-name="uni1EA8" unicode="&#x1ea8;" horiz-adv-x="1275" 
d="M15 0l355 1278h539l351 -1278h-365l-244 1041h-23l-248 -1041h-365zM350 277v276h573v-276h-573zM960 1539q134 15 209 64.5t75 142.5q0 82 -51 122.5t-143 40.5q-43 0 -78.5 -6t-61.5 -16l-11 -139q20 6 40 10t42 4q51 0 51 -31q0 -23 -24.5 -35t-73.5 -20zM462 1654
h353l200 -276v-5h-268l-104 117h-9l-104 -117h-268v5z" />
    <glyph glyph-name="uni1EA9" unicode="&#x1ea9;" horiz-adv-x="1077" 
d="M650 0l10 252l-7 9v306l-3 36q0 69 -44.5 101.5t-151.5 32.5q-97 0 -186.5 -23t-171.5 -53l29 269q50 22 111 40.5t133 29.5t153 11q137 0 228.5 -31.5t145.5 -89t77.5 -136.5t23.5 -174v-580h-347zM345 -24q-148 0 -223.5 75.5t-75.5 214.5v25q0 148 90.5 218t289.5 95
l251 32l21 -202l-213 -31q-58 -8 -80.5 -27.5t-22.5 -57.5v-4q0 -35 23.5 -57t78.5 -22q46 0 79.5 12.5t56 33.5t35.5 46l50 -120h-57q-15 -67 -47.5 -119t-93.5 -82t-162 -30zM858 1262q136 14 212 66.5t76 150.5q0 86 -52 128.5t-145 42.5q-43 0 -79 -6t-63 -16l-11 -146
q20 6 41 10t43 4q51 0 51 -33q0 -24 -24.5 -37t-74.5 -21zM354 1376h365l173 -297v-4h-257l-94 134h-9l-94 -134h-257v4z" />
    <glyph glyph-name="uni1EAA" unicode="&#x1eaa;" horiz-adv-x="1275" 
d="M15 0l355 1278h539l351 -1278h-365l-244 1041h-23l-248 -1041h-365zM350 277v276h573v-276h-573zM769 1726q-36 0 -68 7t-60.5 15.5t-53.5 15.5t-48 7q-28 0 -38 -13.5t-11 -39.5v-1h-179v30q0 94 44 156t155 62q36 0 68 -7t60.5 -16t53.5 -16t47 -7q27 0 37 13.5
t10 40.5v1h180v-26q0 -98 -43.5 -160t-153.5 -62zM462 1654h353l200 -276v-5h-268l-104 117h-9l-104 -117h-268v5z" />
    <glyph glyph-name="uni1EAB" unicode="&#x1eab;" horiz-adv-x="1077" 
d="M650 0l10 252l-7 9v306l-3 36q0 69 -44.5 101.5t-151.5 32.5q-97 0 -186.5 -23t-171.5 -53l29 269q50 22 111 40.5t133 29.5t153 11q137 0 228.5 -31.5t145.5 -89t77.5 -136.5t23.5 -174v-580h-347zM345 -24q-148 0 -223.5 75.5t-75.5 214.5v25q0 148 90.5 218t289.5 95
l251 32l21 -202l-213 -31q-58 -8 -80.5 -27.5t-22.5 -57.5v-4q0 -35 23.5 -57t78.5 -22q46 0 79.5 12.5t56 33.5t35.5 46l50 -120h-57q-15 -67 -47.5 -119t-93.5 -82t-162 -30zM666 1455q-35 0 -66 6.5t-59 15.5t-53 15.5t-47 6.5q-27 0 -37 -12.5t-11 -39.5v-1h-179v36
q0 94 43.5 155.5t152.5 61.5q36 0 67 -7t58.5 -16t52 -16t46.5 -7q27 0 37 14.5t10 42.5v1h180v-34q0 -99 -43 -160.5t-152 -61.5zM354 1376h365l173 -297v-4h-257l-94 134h-9l-94 -134h-257v4z" />
    <glyph glyph-name="uni1EAC" unicode="&#x1eac;" horiz-adv-x="1275" 
d="M15 0l355 1278h539l351 -1278h-365l-244 1041h-23l-248 -1041h-365zM350 277v276h573v-276h-573zM637 -393q-84 0 -125.5 41t-41.5 111v6q0 71 41.5 112t125.5 41q86 0 127.5 -41t41.5 -112v-6q0 -70 -41.5 -111t-127.5 -41zM462 1654h353l200 -276v-5h-268l-104 117h-9
l-104 -117h-268v5z" />
    <glyph glyph-name="uni1EAD" unicode="&#x1ead;" horiz-adv-x="1077" 
d="M650 0l10 252l-7 9v306l-3 36q0 69 -44.5 101.5t-151.5 32.5q-97 0 -186.5 -23t-171.5 -53l29 269q50 22 111 40.5t133 29.5t153 11q137 0 228.5 -31.5t145.5 -89t77.5 -136.5t23.5 -174v-580h-347zM345 -24q-148 0 -223.5 75.5t-75.5 214.5v25q0 148 90.5 218t289.5 95
l251 32l21 -202l-213 -31q-58 -8 -80.5 -27.5t-22.5 -57.5v-4q0 -35 23.5 -57t78.5 -22q46 0 79.5 12.5t56 33.5t35.5 46l50 -120h-57q-15 -67 -47.5 -119t-93.5 -82t-162 -30zM536 -401q-88 0 -131 43t-43 116v7q0 74 43 118t131 44q89 0 132.5 -44t43.5 -118v-7
q0 -73 -43.5 -116t-132.5 -43zM354 1376h365l173 -297v-4h-257l-94 134h-9l-94 -134h-257v4z" />
    <glyph glyph-name="uni1EAE" unicode="&#x1eae;" horiz-adv-x="1275" 
d="M15 0l355 1278h539l351 -1278h-365l-244 1041h-23l-248 -1041h-365zM350 277v276h573v-276h-573zM651 1954h302v-4l-191 -246h-245v3zM638 1361q-173 0 -250.5 77t-80.5 216h220q3 -46 29 -73t82 -27q55 0 81.5 26.5t29.5 73.5h220q-3 -139 -79.5 -216t-251.5 -77z" />
    <glyph glyph-name="uni1EAF" unicode="&#x1eaf;" horiz-adv-x="1077" 
d="M650 0l10 252l-7 9v306l-3 36q0 69 -44.5 101.5t-151.5 32.5q-97 0 -186.5 -23t-171.5 -53l29 269q50 22 111 40.5t133 29.5t153 11q137 0 228.5 -31.5t145.5 -89t77.5 -136.5t23.5 -174v-580h-347zM345 -24q-148 0 -223.5 75.5t-75.5 214.5v25q0 148 90.5 218t289.5 95
l251 32l21 -202l-213 -31q-58 -8 -80.5 -27.5t-22.5 -57.5v-4q0 -35 23.5 -57t78.5 -22q46 0 79.5 12.5t56 33.5t35.5 46l50 -120h-57q-15 -67 -47.5 -119t-93.5 -82t-162 -30zM558 1703h295v-3l-192 -261h-239v2zM537 1064q-174 0 -252 82.5t-80 229.5h223q3 -51 28 -80
t81 -29q55 0 80.5 28.5t28.5 80.5h223q-2 -147 -79 -229.5t-253 -82.5z" />
    <glyph glyph-name="uni1EB0" unicode="&#x1eb0;" horiz-adv-x="1275" 
d="M15 0l355 1278h539l351 -1278h-365l-244 1041h-23l-248 -1041h-365zM350 277v276h573v-276h-573zM622 1954l134 -247v-3h-245l-191 246v4h302zM638 1361q-173 0 -250.5 77t-80.5 216h220q3 -46 29 -73t82 -27q55 0 81.5 26.5t29.5 73.5h220q-3 -139 -79.5 -216
t-251.5 -77z" />
    <glyph glyph-name="uni1EB1" unicode="&#x1eb1;" horiz-adv-x="1077" 
d="M650 0l10 252l-7 9v306l-3 36q0 69 -44.5 101.5t-151.5 32.5q-97 0 -186.5 -23t-171.5 -53l29 269q50 22 111 40.5t133 29.5t153 11q137 0 228.5 -31.5t145.5 -89t77.5 -136.5t23.5 -174v-580h-347zM345 -24q-148 0 -223.5 75.5t-75.5 214.5v25q0 148 90.5 218t289.5 95
l251 32l21 -202l-213 -31q-58 -8 -80.5 -27.5t-22.5 -57.5v-4q0 -35 23.5 -57t78.5 -22q46 0 79.5 12.5t56 33.5t35.5 46l50 -120h-57q-15 -67 -47.5 -119t-93.5 -82t-162 -30zM516 1703l136 -262v-2h-239l-192 261v3h295zM537 1064q-174 0 -252 82.5t-80 229.5h223
q3 -51 28 -80t81 -29q55 0 80.5 28.5t28.5 80.5h223q-2 -147 -79 -229.5t-253 -82.5z" />
    <glyph glyph-name="uni1EB2" unicode="&#x1eb2;" horiz-adv-x="1275" 
d="M15 0l355 1278h539l351 -1278h-365l-244 1041h-23l-248 -1041h-365zM350 277v276h573v-276h-573zM611 1672q134 15 209 64.5t75 142.5q0 82 -51 122.5t-143 40.5q-43 0 -78.5 -6t-61.5 -16l-11 -139q20 6 40 10t42 4q51 0 51 -31q0 -23 -24.5 -35t-73.5 -20zM638 1361
q-173 0 -250.5 77t-80.5 216h220q3 -46 29 -73t82 -27q55 0 81.5 26.5t29.5 73.5h220q-3 -139 -79.5 -216t-251.5 -77z" />
    <glyph glyph-name="uni1EB3" unicode="&#x1eb3;" horiz-adv-x="1077" 
d="M650 0l10 252l-7 9v306l-3 36q0 69 -44.5 101.5t-151.5 32.5q-97 0 -186.5 -23t-171.5 -53l29 269q50 22 111 40.5t133 29.5t153 11q137 0 228.5 -31.5t145.5 -89t77.5 -136.5t23.5 -174v-580h-347zM345 -24q-148 0 -223.5 75.5t-75.5 214.5v25q0 148 90.5 218t289.5 95
l251 32l21 -202l-213 -31q-58 -8 -80.5 -27.5t-22.5 -57.5v-4q0 -35 23.5 -57t78.5 -22q46 0 79.5 12.5t56 33.5t35.5 46l50 -120h-57q-15 -67 -47.5 -119t-93.5 -82t-162 -30zM511 1403q136 14 212 66.5t76 150.5q0 86 -52 128.5t-145 42.5q-43 0 -79 -6t-63 -16l-11 -146
q20 6 41 10t43 4q51 0 51 -33q0 -24 -24.5 -37t-74.5 -21zM537 1064q-174 0 -252 82.5t-80 229.5h223q3 -51 28 -80t81 -29q55 0 80.5 28.5t28.5 80.5h223q-2 -147 -79 -229.5t-253 -82.5z" />
    <glyph glyph-name="uni1EB4" unicode="&#x1eb4;" horiz-adv-x="1275" 
d="M15 0l355 1278h539l351 -1278h-365l-244 1041h-23l-248 -1041h-365zM350 277v276h573v-276h-573zM768 1726q-36 0 -68 7t-60.5 15.5t-53.5 15.5t-48 7q-28 0 -38 -13.5t-11 -39.5v-1h-179v30q0 94 44 156t155 62q36 0 68 -7t60.5 -16t53.5 -16t47 -7q27 0 37 13.5
t10 40.5v1h180v-26q0 -98 -43.5 -160t-153.5 -62zM637 1361q-173 0 -250.5 77t-80.5 216h220q3 -46 29 -73t82 -27q55 0 81.5 26.5t29.5 73.5h220q-3 -139 -79.5 -216t-251.5 -77z" />
    <glyph glyph-name="uni1EB5" unicode="&#x1eb5;" horiz-adv-x="1077" 
d="M650 0l10 252l-7 9v306l-3 36q0 69 -44.5 101.5t-151.5 32.5q-97 0 -186.5 -23t-171.5 -53l29 269q50 22 111 40.5t133 29.5t153 11q137 0 228.5 -31.5t145.5 -89t77.5 -136.5t23.5 -174v-580h-347zM345 -24q-148 0 -223.5 75.5t-75.5 214.5v25q0 148 90.5 218t289.5 95
l251 32l21 -202l-213 -31q-58 -8 -80.5 -27.5t-22.5 -57.5v-4q0 -35 23.5 -57t78.5 -22q46 0 79.5 12.5t56 33.5t35.5 46l50 -120h-57q-15 -67 -47.5 -119t-93.5 -82t-162 -30zM665 1455q-35 0 -66 6.5t-59 15.5t-53 15.5t-47 6.5q-27 0 -37 -12.5t-11 -39.5v-1h-179v36
q0 94 43.5 155.5t152.5 61.5q36 0 67 -7t58.5 -16t52 -16t46.5 -7q27 0 37 14.5t10 42.5v1h180v-34q0 -99 -43 -160.5t-152 -61.5zM536 1064q-174 0 -252 82.5t-80 229.5h223q3 -51 28 -80t81 -29q55 0 80.5 28.5t28.5 80.5h223q-2 -147 -79 -229.5t-253 -82.5z" />
    <glyph glyph-name="uni1EB6" unicode="&#x1eb6;" horiz-adv-x="1275" 
d="M15 0l355 1278h539l351 -1278h-365l-244 1041h-23l-248 -1041h-365zM350 277v276h573v-276h-573zM637 -393q-84 0 -125.5 41t-41.5 111v6q0 71 41.5 112t125.5 41q86 0 127.5 -41t41.5 -112v-6q0 -70 -41.5 -111t-127.5 -41zM638 1361q-173 0 -250.5 77t-80.5 216h220
q3 -46 29 -73t82 -27q55 0 81.5 26.5t29.5 73.5h220q-3 -139 -79.5 -216t-251.5 -77z" />
    <glyph glyph-name="uni1EB7" unicode="&#x1eb7;" horiz-adv-x="1077" 
d="M650 0l10 252l-7 9v306l-3 36q0 69 -44.5 101.5t-151.5 32.5q-97 0 -186.5 -23t-171.5 -53l29 269q50 22 111 40.5t133 29.5t153 11q137 0 228.5 -31.5t145.5 -89t77.5 -136.5t23.5 -174v-580h-347zM345 -24q-148 0 -223.5 75.5t-75.5 214.5v25q0 148 90.5 218t289.5 95
l251 32l21 -202l-213 -31q-58 -8 -80.5 -27.5t-22.5 -57.5v-4q0 -35 23.5 -57t78.5 -22q46 0 79.5 12.5t56 33.5t35.5 46l50 -120h-57q-15 -67 -47.5 -119t-93.5 -82t-162 -30zM536 -401q-88 0 -131 43t-43 116v7q0 74 43 118t131 44q89 0 132.5 -44t43.5 -118v-7
q0 -73 -43.5 -116t-132.5 -43zM537 1064q-174 0 -252 82.5t-80 229.5h223q3 -51 28 -80t81 -29q55 0 80.5 28.5t28.5 80.5h223q-2 -147 -79 -229.5t-253 -82.5z" />
    <glyph glyph-name="uni1EB8" unicode="&#x1eb8;" horiz-adv-x="1108" 
d="M104 0v1278h353v-1278h-353zM209 0v301h823v-301h-823zM312 504v287h695v-287h-695zM209 980v298h814v-298h-814zM569 -393q-84 0 -125.5 41t-41.5 111v6q0 71 41.5 112t125.5 41q86 0 127.5 -41t41.5 -112v-6q0 -70 -41.5 -111t-127.5 -41z" />
    <glyph glyph-name="uni1EB9" unicode="&#x1eb9;" horiz-adv-x="1081" 
d="M606 -26q-283 0 -415.5 123t-132.5 360v77q0 235 124.5 358t363.5 123q159 0 265 -52.5t159.5 -151t53.5 -237.5v-31q0 -40 -3.5 -81.5t-10.5 -76.5h-317q4 61 5.5 115t1.5 97q0 52 -16 87.5t-50 54t-88 18.5q-81 0 -117.5 -42t-36.5 -119v-89l2 -38v-62q0 -31 11 -60
t40.5 -51.5t84 -35.5t141.5 -13q89 0 174 14.5t164 40.5l-28 -257q-69 -34 -164.5 -52.5t-210.5 -18.5zM245 385v208h694v-208h-694zM553 -401q-88 0 -131 43t-43 116v7q0 74 43 118t131 44q89 0 132.5 -44t43.5 -118v-7q0 -73 -43.5 -116t-132.5 -43z" />
    <glyph glyph-name="uni1EBA" unicode="&#x1eba;" horiz-adv-x="1108" 
d="M104 0v1278h353v-1278h-353zM209 0v301h823v-301h-823zM312 504v287h695v-287h-695zM209 980v298h814v-298h-814zM495 1353q146 15 228 70.5t82 165.5q0 90 -57 135t-158 45q-46 0 -83.5 -7t-65.5 -17l-12 -159q21 8 43.5 12.5t45.5 4.5q55 0 55 -37q0 -25 -26 -37.5
t-79 -21.5z" />
    <glyph glyph-name="uni1EBB" unicode="&#x1ebb;" horiz-adv-x="1081" 
d="M606 -26q-283 0 -415.5 123t-132.5 360v77q0 235 124.5 358t363.5 123q159 0 265 -52.5t159.5 -151t53.5 -237.5v-31q0 -40 -3.5 -81.5t-10.5 -76.5h-317q4 61 5.5 115t1.5 97q0 52 -16 87.5t-50 54t-88 18.5q-81 0 -117.5 -42t-36.5 -119v-89l2 -38v-62q0 -31 11 -60
t40.5 -51.5t84 -35.5t141.5 -13q89 0 174 14.5t164 40.5l-28 -257q-69 -34 -164.5 -52.5t-210.5 -18.5zM245 385v208h694v-208h-694zM477 1061q146 15 228 70.5t82 165.5q0 90 -57 135t-158 45q-46 0 -83.5 -7t-65.5 -17l-12 -159q21 8 43.5 12.5t45.5 4.5q55 0 55 -37
q0 -25 -26 -37.5t-79 -21.5z" />
    <glyph glyph-name="uni1EBC" unicode="&#x1ebc;" horiz-adv-x="1108" 
d="M104 0v1278h353v-1278h-353zM209 0v301h823v-301h-823zM312 504v287h695v-287h-695zM209 980v298h814v-298h-814zM706 1380q-36 0 -69.5 7.5t-63.5 17t-57 17t-50 7.5q-29 0 -40 -15t-12 -46v-1h-191v39q0 102 47.5 169t165.5 67q38 0 71.5 -7.5t62.5 -17t55 -17t49 -7.5
q29 0 39.5 15t11.5 46v1h192v-34q0 -106 -47 -173.5t-164 -67.5z" />
    <glyph glyph-name="uni1EBD" unicode="&#x1ebd;" horiz-adv-x="1081" 
d="M606 -26q-283 0 -415.5 123t-132.5 360v77q0 235 124.5 358t363.5 123q159 0 265 -52.5t159.5 -151t53.5 -237.5v-31q0 -40 -3.5 -81.5t-10.5 -76.5h-317q4 61 5.5 115t1.5 97q0 52 -16 87.5t-50 54t-88 18.5q-81 0 -117.5 -42t-36.5 -119v-89l2 -38v-62q0 -31 11 -60
t40.5 -51.5t84 -35.5t141.5 -13q89 0 174 14.5t164 40.5l-28 -257q-69 -34 -164.5 -52.5t-210.5 -18.5zM245 385v208h694v-208h-694zM690 1082q-36 0 -69.5 7.5t-63.5 18t-57 18t-50 7.5q-29 0 -40 -15.5t-12 -47.5v-1h-191v40q0 107 46.5 176.5t164.5 69.5q40 0 74 -7.5
t63 -18t55 -18t49 -7.5q28 0 38.5 16t11.5 47v1h192v-43q0 -107 -47 -175t-164 -68z" />
    <glyph glyph-name="uni1EBE" unicode="&#x1ebe;" horiz-adv-x="1108" 
d="M104 0v1278h353v-1278h-353zM209 0v301h823v-301h-823zM312 504v287h695v-287h-695zM209 980v298h814v-298h-814zM977 1836h302v-4l-191 -246h-245v3zM394 1654h353l200 -276v-5h-268l-104 117h-9l-104 -117h-268v5z" />
    <glyph glyph-name="uni1EBF" unicode="&#x1ebf;" horiz-adv-x="1081" 
d="M606 -26q-283 0 -415.5 123t-132.5 360v77q0 235 124.5 358t363.5 123q159 0 265 -52.5t159.5 -151t53.5 -237.5v-31q0 -40 -3.5 -81.5t-10.5 -76.5h-317q4 61 5.5 115t1.5 97q0 52 -16 87.5t-50 54t-88 18.5q-81 0 -117.5 -42t-36.5 -119v-89l2 -38v-62q0 -31 11 -60
t40.5 -51.5t84 -35.5t141.5 -13q89 0 174 14.5t164 40.5l-28 -257q-69 -34 -164.5 -52.5t-210.5 -18.5zM245 385v208h694v-208h-694zM969 1571h295v-3l-192 -261h-239v2zM371 1376h365l173 -297v-4h-257l-94 134h-9l-94 -134h-257v4z" />
    <glyph glyph-name="uni1EC0" unicode="&#x1ec0;" horiz-adv-x="1108" 
d="M104 0v1278h353v-1278h-353zM209 0v301h823v-301h-823zM312 504v287h695v-287h-695zM209 980v298h814v-298h-814zM1015 1835l134 -247v-3h-245l-191 246v4h302zM394 1654h353l200 -276v-5h-268l-104 117h-9l-104 -117h-268v5z" />
    <glyph glyph-name="uni1EC1" unicode="&#x1ec1;" horiz-adv-x="1081" 
d="M606 -26q-283 0 -415.5 123t-132.5 360v77q0 235 124.5 358t363.5 123q159 0 265 -52.5t159.5 -151t53.5 -237.5v-31q0 -40 -3.5 -81.5t-10.5 -76.5h-317q4 61 5.5 115t1.5 97q0 52 -16 87.5t-50 54t-88 18.5q-81 0 -117.5 -42t-36.5 -119v-89l2 -38v-62q0 -31 11 -60
t40.5 -51.5t84 -35.5t141.5 -13q89 0 174 14.5t164 40.5l-28 -257q-69 -34 -164.5 -52.5t-210.5 -18.5zM245 385v208h694v-208h-694zM993 1571l136 -262v-2h-239l-192 261v3h295zM371 1376h365l173 -297v-4h-257l-94 134h-9l-94 -134h-257v4z" />
    <glyph glyph-name="uni1EC2" unicode="&#x1ec2;" horiz-adv-x="1108" 
d="M104 0v1278h353v-1278h-353zM209 0v301h823v-301h-823zM312 504v287h695v-287h-695zM209 980v298h814v-298h-814zM892 1539q134 15 209 64.5t75 142.5q0 82 -51 122.5t-143 40.5q-43 0 -78.5 -6t-61.5 -16l-11 -139q20 6 40 10t42 4q51 0 51 -31q0 -23 -24.5 -35
t-73.5 -20zM394 1654h353l200 -276v-5h-268l-104 117h-9l-104 -117h-268v5z" />
    <glyph glyph-name="uni1EC3" unicode="&#x1ec3;" horiz-adv-x="1081" 
d="M606 -26q-283 0 -415.5 123t-132.5 360v77q0 235 124.5 358t363.5 123q159 0 265 -52.5t159.5 -151t53.5 -237.5v-31q0 -40 -3.5 -81.5t-10.5 -76.5h-317q4 61 5.5 115t1.5 97q0 52 -16 87.5t-50 54t-88 18.5q-81 0 -117.5 -42t-36.5 -119v-89l2 -38v-62q0 -31 11 -60
t40.5 -51.5t84 -35.5t141.5 -13q89 0 174 14.5t164 40.5l-28 -257q-69 -34 -164.5 -52.5t-210.5 -18.5zM245 385v208h694v-208h-694zM875 1262q136 14 212 66.5t76 150.5q0 86 -52 128.5t-145 42.5q-43 0 -79 -6t-63 -16l-11 -146q20 6 41 10t43 4q51 0 51 -33
q0 -24 -24.5 -37t-74.5 -21zM371 1376h365l173 -297v-4h-257l-94 134h-9l-94 -134h-257v4z" />
    <glyph glyph-name="uni1EC4" unicode="&#x1ec4;" horiz-adv-x="1108" 
d="M104 0v1278h353v-1278h-353zM209 0v301h823v-301h-823zM312 504v287h695v-287h-695zM209 980v298h814v-298h-814zM701 1726q-36 0 -68 7t-60.5 15.5t-53.5 15.5t-48 7q-28 0 -38 -13.5t-11 -39.5v-1h-179v30q0 94 44 156t155 62q36 0 68 -7t60.5 -16t53.5 -16t47 -7
q27 0 37 13.5t10 40.5v1h180v-26q0 -98 -43.5 -160t-153.5 -62zM394 1654h353l200 -276v-5h-268l-104 117h-9l-104 -117h-268v5z" />
    <glyph glyph-name="uni1EC5" unicode="&#x1ec5;" horiz-adv-x="1081" 
d="M606 -26q-283 0 -415.5 123t-132.5 360v77q0 235 124.5 358t363.5 123q159 0 265 -52.5t159.5 -151t53.5 -237.5v-31q0 -40 -3.5 -81.5t-10.5 -76.5h-317q4 61 5.5 115t1.5 97q0 52 -16 87.5t-50 54t-88 18.5q-81 0 -117.5 -42t-36.5 -119v-89l2 -38v-62q0 -31 11 -60
t40.5 -51.5t84 -35.5t141.5 -13q89 0 174 14.5t164 40.5l-28 -257q-69 -34 -164.5 -52.5t-210.5 -18.5zM245 385v208h694v-208h-694zM683 1455q-35 0 -66 6.5t-59 15.5t-53 15.5t-47 6.5q-27 0 -37 -12.5t-11 -39.5v-1h-179v36q0 94 43.5 155.5t152.5 61.5q36 0 67 -7
t58.5 -16t52 -16t46.5 -7q27 0 37 14.5t10 42.5v1h180v-34q0 -99 -43 -160.5t-152 -61.5zM371 1376h365l173 -297v-4h-257l-94 134h-9l-94 -134h-257v4z" />
    <glyph glyph-name="uni1EC6" unicode="&#x1ec6;" horiz-adv-x="1108" 
d="M104 0v1278h353v-1278h-353zM209 0v301h823v-301h-823zM312 504v287h695v-287h-695zM209 980v298h814v-298h-814zM569 -393q-84 0 -125.5 41t-41.5 111v6q0 71 41.5 112t125.5 41q86 0 127.5 -41t41.5 -112v-6q0 -70 -41.5 -111t-127.5 -41zM394 1654h353l200 -276v-5
h-268l-104 117h-9l-104 -117h-268v5z" />
    <glyph glyph-name="uni1EC7" unicode="&#x1ec7;" horiz-adv-x="1081" 
d="M606 -26q-283 0 -415.5 123t-132.5 360v77q0 235 124.5 358t363.5 123q159 0 265 -52.5t159.5 -151t53.5 -237.5v-31q0 -40 -3.5 -81.5t-10.5 -76.5h-317q4 61 5.5 115t1.5 97q0 52 -16 87.5t-50 54t-88 18.5q-81 0 -117.5 -42t-36.5 -119v-89l2 -38v-62q0 -31 11 -60
t40.5 -51.5t84 -35.5t141.5 -13q89 0 174 14.5t164 40.5l-28 -257q-69 -34 -164.5 -52.5t-210.5 -18.5zM245 385v208h694v-208h-694zM553 -401q-88 0 -131 43t-43 116v7q0 74 43 118t131 44q89 0 132.5 -44t43.5 -118v-7q0 -73 -43.5 -116t-132.5 -43zM371 1376h365
l173 -297v-4h-257l-94 134h-9l-94 -134h-257v4z" />
    </font>
</defs>
</svg>
