<?xml version="1.0" standalone="no"?>
<!DOCTYPE svg PUBLIC "-//W3C//DTD SVG 1.1//EN" "http://www.w3.org/Graphics/SVG/1.1/DTD/svg11.dtd" >
<svg xmlns="http://www.w3.org/2000/svg" xmlns:xlink="http://www.w3.org/1999/xlink" version="1.1">
<metadata>
Created by FontForge 20201107 at Mon Feb 14 15:34:46 2022
 By 
Copyright 2021 The Anek Project Authors (https://github.com/EkType/Anek)
</metadata>
<defs>
<font id="AnekLatin-Regular" horiz-adv-x="0" >
  <font-face 
    font-family="Anek Latin"
    font-weight="400"
    font-stretch="normal"
    units-per-em="2000"
    panose-1="0 0 0 0 0 0 0 0 0 0"
    ascent="1600"
    descent="-400"
    x-height="976"
    cap-height="1278"
    bbox="-345 -465 2750 1994"
    underline-thickness="50"
    underline-position="-125"
    unicode-range="U+000D-FB02"
  />
<missing-glyph horiz-adv-x="1160" 
d="M185 0v1278h790v-1278h-790zM224 35h712v1208h-712v-1208zM210 0l695 1266h40l-695 -1266h-40zM950 0h-40l-695 1266h40z" />
    <glyph glyph-name="fi" unicode="fi" horiz-adv-x="1181" 
d="M460 1352q75 0 134.5 -13.5t109.5 -33.5l16 -127q-49 18 -98.5 28.5t-111.5 10.5q-75 0 -120.5 -19.5t-65 -55t-19.5 -85.5v-5q0 -35 9 -66.5t20 -57.5l-109 -4v20q-31 24 -54.5 67t-23.5 100v5q0 107 76 171.5t237 64.5zM180 0v889h161v-889h-161zM19 810v129l223 -1
l66 1h408l-15 -129h-682zM883 0v976h162v-976h-162zM964 1136q-50 0 -74.5 26.5t-24.5 72.5v5q0 47 24.5 73t74.5 26t75 -26t25 -73v-5q0 -47 -25 -73t-75 -26z" />
    <glyph glyph-name="fl" unicode="fl" horiz-adv-x="1186" 
d="M460 1352q75 0 134.5 -13.5t109.5 -33.5l16 -127q-49 18 -98.5 28.5t-111.5 10.5q-75 0 -120.5 -19.5t-65 -55t-19.5 -85.5v-5q0 -35 9 -66.5t20 -57.5l-109 -4v20q-31 24 -54.5 67t-23.5 100v5q0 107 76 171.5t237 64.5zM180 0v889h161v-889h-161zM19 810v129l223 -1
l66 1h408l-15 -129h-682zM888 0v1325h161v-1325h-161z" />
    <glyph glyph-name="f_f" unicode="ff" horiz-adv-x="1390" 
d="M460 1352q75 0 134.5 -13.5t109.5 -33.5l16 -127q-49 18 -98.5 28.5t-111.5 10.5q-75 0 -120.5 -19.5t-65 -55t-19.5 -85.5v-5q0 -35 9 -66.5t20 -57.5l-109 -4v20q-31 24 -54.5 67t-23.5 100v5q0 107 76 171.5t237 64.5zM180 0v889h161v-889h-161zM19 810v129l223 -1
l66 1h408l-15 -129h-682zM1100 1352q75 0 134.5 -13.5t109.5 -33.5l16 -127q-49 18 -98.5 28.5t-111.5 10.5q-75 0 -120.5 -19.5t-65 -55t-19.5 -85.5v-5q0 -35 9 -66.5t20 -57.5l-109 -4v20q-31 24 -54.5 67t-23.5 100v5q0 107 76 171.5t237 64.5zM820 0v889h161v-889h-161
zM659 810v129l223 -1l66 1h408l-15 -129h-682z" />
    <glyph glyph-name="f_f_i" unicode="ffi" horiz-adv-x="1820" 
d="M460 1352q75 0 134.5 -13.5t109.5 -33.5l16 -127q-49 18 -98.5 28.5t-111.5 10.5q-75 0 -120.5 -19.5t-65 -55t-19.5 -85.5v-5q0 -35 9 -66.5t20 -57.5l-109 -4v20q-31 24 -54.5 67t-23.5 100v5q0 107 76 171.5t237 64.5zM180 0v889h161v-889h-161zM19 810v129l223 -1
l66 1h408l-15 -129h-682zM1100 1352q75 0 134.5 -13.5t109.5 -33.5l16 -127q-49 18 -98.5 28.5t-111.5 10.5q-75 0 -120.5 -19.5t-65 -55t-19.5 -85.5v-5q0 -35 9 -66.5t20 -57.5l-109 -4v20q-31 24 -54.5 67t-23.5 100v5q0 107 76 171.5t237 64.5zM820 0v889h161v-889h-161
zM659 810v129l223 -1l66 1h408l-15 -129h-682zM1523 0v976h162v-976h-162zM1604 1136q-50 0 -74.5 26.5t-24.5 72.5v5q0 47 24.5 73t74.5 26t75 -26t25 -73v-5q0 -47 -25 -73t-75 -26z" />
    <glyph glyph-name="f_f_l" unicode="ffl" horiz-adv-x="1825" 
d="M460 1352q75 0 134.5 -13.5t109.5 -33.5l16 -127q-49 18 -98.5 28.5t-111.5 10.5q-75 0 -120.5 -19.5t-65 -55t-19.5 -85.5v-5q0 -35 9 -66.5t20 -57.5l-109 -4v20q-31 24 -54.5 67t-23.5 100v5q0 107 76 171.5t237 64.5zM180 0v889h161v-889h-161zM19 810v129l223 -1
l66 1h408l-15 -129h-682zM1100 1352q75 0 134.5 -13.5t109.5 -33.5l16 -127q-49 18 -98.5 28.5t-111.5 10.5q-75 0 -120.5 -19.5t-65 -55t-19.5 -85.5v-5q0 -35 9 -66.5t20 -57.5l-109 -4v20q-31 24 -54.5 67t-23.5 100v5q0 107 76 171.5t237 64.5zM820 0v889h161v-889h-161
zM659 810v129l223 -1l66 1h408l-15 -129h-682zM1527 0v1325h161v-1325h-161z" />
    <glyph glyph-name=".notdef" horiz-adv-x="1160" 
d="M185 0v1278h790v-1278h-790zM224 35h712v1208h-712v-1208zM210 0l695 1266h40l-695 -1266h-40zM950 0h-40l-695 1266h40z" />
    <glyph glyph-name=".null" 
 />
    <glyph glyph-name="nonmarkingreturn" horiz-adv-x="666" 
 />
    <glyph glyph-name="CR" unicode="&#xd;" horiz-adv-x="2143" 
 />
    <glyph glyph-name="space" unicode=" " horiz-adv-x="421" 
 />
    <glyph glyph-name="exclam" unicode="!" horiz-adv-x="463" 
d="M299 393h-135l-19 885h173zM231 -19q-51 0 -76 28.5t-25 80.5v10q0 51 25 79t76 28q52 0 77 -28t25 -79v-10q0 -52 -25 -80.5t-77 -28.5z" />
    <glyph glyph-name="quotedbl" unicode="&#x22;" horiz-adv-x="689" 
d="M243 840h-128l-16 485h160zM574 840h-128l-16 485h160z" />
    <glyph glyph-name="numbersign" unicode="#" horiz-adv-x="1181" 
d="M219 0l160 1278h132l-159 -1278h-133zM66 333v119h992v-119h-992zM674 0l156 1278h133l-156 -1278h-133zM126 831v119h990v-119h-990z" />
    <glyph glyph-name="dollar" unicode="$" horiz-adv-x="1042" 
d="M588 1213h-144v277h144v-277zM588 -217h-144v306h144v-306zM507 -23q-92 0 -168.5 15t-136.5 37t-100 44l-17 165q77 -46 181.5 -80.5t227.5 -34.5q148 0 219 52.5t71 157.5v16q0 69 -28 113t-94.5 74t-180.5 56q-144 34 -230.5 80.5t-125 116.5t-38.5 174v9
q0 157 103 242.5t312 85.5q137 0 233.5 -28t157.5 -62l15 -152q-71 42 -165.5 71.5t-216.5 29.5q-97 0 -157 -23t-87 -66t-27 -104v-4q0 -62 26.5 -106t93 -76t189.5 -62q141 -33 226 -76t123.5 -112t38.5 -180v-21q0 -173 -111.5 -262.5t-333.5 -89.5z" />
    <glyph glyph-name="percent" unicode="%" horiz-adv-x="1482" 
d="M278 0l775 1278h154l-775 -1278h-154zM1122 -24q-132 0 -201.5 74t-69.5 206v92q0 131 70 205t201 74q132 0 202 -73t70 -206v-92q0 -132 -70 -206t-202 -74zM1122 89q68 0 103 42t35 122v97q0 81 -35.5 123t-102.5 42q-68 0 -103.5 -42t-35.5 -123v-97q0 -80 36 -122
t103 -42zM358 652q-132 0 -202 73.5t-70 205.5v93q0 131 70 204t202 73t202 -73t70 -204v-93q0 -131 -70 -205t-202 -74zM358 764q68 0 103.5 41.5t35.5 122.5v98q0 79 -35.5 121.5t-103.5 42.5t-103 -42.5t-35 -121.5v-98q0 -81 35.5 -122.5t102.5 -41.5z" />
    <glyph glyph-name="ampersand" unicode="&#x26;" horiz-adv-x="1256" 
d="M1077 0q-18 18 -49 48t-65 64t-64 62.5t-45 44.5l-22 23l-484 455l-24 29q-65 66 -96.5 126.5t-31.5 141.5v7q0 139 88 219t272 80q119 0 202.5 -24t137.5 -54l16 -150q-64 34 -146 59t-181 25q-117 0 -168 -43t-51 -117v-5q0 -57 29.5 -105t87.5 -104l450 -428l39 -43
q29 -27 58 -56l59 -59l60.5 -60.5t60.5 -61.5t59 -61v-13h-192zM515 -23q-211 0 -317 99t-106 282v37q0 137 53.5 227.5t182.5 157.5l87 -115q-82 -38 -117.5 -98.5t-35.5 -158.5v-35q0 -127 68 -192t199 -65q110 0 186.5 46t131.5 132l42 54q50 90 78.5 202t40.5 243h160
q-18 -167 -58.5 -306t-109.5 -244l-44 -46q-51 -69 -114 -118.5t-143 -75.5t-184 -26z" />
    <glyph glyph-name="quotesingle" unicode="'" horiz-adv-x="358" 
d="M243 840h-128l-16 485h160z" />
    <glyph glyph-name="parenleft" unicode="(" horiz-adv-x="584" 
d="M296 616v-122q0 -149 25 -277t78 -241t134 -218h-170q-76 99 -126 209t-73.5 238.5t-23.5 283.5v131q0 155 24 283t74 238.5t127 209.5h168q-81 -104 -134 -217.5t-78 -241t-25 -276.5z" />
    <glyph glyph-name="parenright" unicode=")" horiz-adv-x="585" 
d="M289 616q0 149 -25 276.5t-77.5 241t-134.5 217.5h169q76 -99 126 -209.5t74.5 -238.5t24.5 -283v-131q0 -155 -24 -283.5t-73.5 -238.5t-126.5 -209h-170q82 105 134.5 218t77.5 241t25 277v122z" />
    <glyph glyph-name="asterisk" unicode="*" horiz-adv-x="765" 
d="M234 661l-112 78l174 195v1l-241 52l32 130l241 -89h1l-19 250h144l-18 -250h1l240 89l33 -130l-242 -52v-1l173 -195l-111 -78l-147 212h-2z" />
    <glyph glyph-name="plus" unicode="+" horiz-adv-x="1001" 
d="M571 201h-140v842h140v-842zM104 556v132h794v-132h-794z" />
    <glyph glyph-name="comma" unicode="," horiz-adv-x="376" 
d="M269 271q3 -19 6.5 -49.5t3.5 -65.5q0 -120 -33.5 -222t-114.5 -197l-112 36q52 83 77 174t25 202q0 33 -2 62.5t-6 59.5h156z" />
    <glyph glyph-name="hyphen" unicode="-" horiz-adv-x="814" 
d="M123 458v133h568v-133h-568z" />
    <glyph glyph-name="period" unicode="." horiz-adv-x="382" 
d="M191 -19q-52 0 -76.5 28.5t-24.5 80.5v10q0 51 24.5 79t76.5 28q51 0 76 -28t25 -79v-10q0 -52 -25 -80.5t-76 -28.5z" />
    <glyph glyph-name="slash" unicode="/" horiz-adv-x="832" 
d="M32 -240l617 1581h151l-617 -1581h-151z" />
    <glyph glyph-name="zero" unicode="0" horiz-adv-x="1132" 
d="M566 -24q-228 0 -343.5 128t-115.5 369v332q0 241 115 369t344 128q228 0 343.5 -128t115.5 -369v-332q0 -241 -115.5 -369t-343.5 -128zM566 115q148 0 219.5 90.5t71.5 260.5v345q0 171 -71.5 261.5t-219.5 90.5t-219.5 -90.5t-71.5 -261.5v-345q0 -170 71.5 -260.5
t219.5 -90.5z" />
    <glyph glyph-name="one" unicode="1" horiz-adv-x="672" 
d="M358 0v1108h-13l-296 -176l5 162l305 184h165v-1278h-166z" />
    <glyph glyph-name="two" unicode="2" horiz-adv-x="939" 
d="M70 0v158l319 313q90 89 153.5 160t97.5 139t34 145v10q0 73 -28 125t-85 79t-147 27q-100 0 -186 -32t-153 -74l16 150q38 24 90 47t118 38t147 15q198 0 297 -92t99 -263v-14q0 -101 -36 -183t-105 -163.5t-166 -177.5l-260 -257v-39l-68 30h655v-141h-792z" />
    <glyph glyph-name="three" unicode="3" horiz-adv-x="983" 
d="M447 -22q-81 0 -149.5 12.5t-120.5 31t-86 35.5l-16 162q67 -38 159 -66.5t200 -28.5q104 0 167.5 27t92.5 77t29 121v24q0 72 -26.5 119t-86.5 70.5t-161 24.5l-211 4v131l214 4q97 2 155 27t83 70.5t25 108.5v17q0 103 -61.5 156.5t-207.5 53.5q-109 0 -202 -29.5
t-162 -67.5l15 145q59 36 153.5 64.5t222.5 28.5q211 0 310.5 -86t99.5 -240v-22q0 -77 -25.5 -136t-79.5 -95.5t-141 -48.5l-1 -23l-4 18q139 -20 200.5 -91.5t61.5 -200.5v-36q0 -169 -108.5 -265t-338.5 -96z" />
    <glyph glyph-name="four" unicode="4" horiz-adv-x="1044" 
d="M685 0v879l5 283h-27l-442 -761v-76l-64 62h855v-140h-956v166l508 865h279v-1278h-158z" />
    <glyph glyph-name="five" unicode="5" horiz-adv-x="1042" 
d="M502 -22q-126 0 -217 27.5t-142 54.5l-17 160q44 -25 99.5 -46.5t121 -35t140.5 -13.5q105 0 171 29.5t96.5 87t30.5 137.5v63q0 113 -56 176t-176 63q-96 0 -164 -40.5t-113 -111.5l-145 25v724h784v-141h-624v-306l-3 -183l5 1q40 73 117 121t199 48q172 0 256.5 -98
t84.5 -273v-70q0 -122 -47.5 -212t-146.5 -138.5t-254 -48.5z" />
    <glyph glyph-name="six" unicode="6" horiz-adv-x="1081" 
d="M560 -24q-145 0 -247.5 56.5t-156.5 168.5t-54 277v305q0 246 121.5 381.5t358.5 135.5q118 0 199.5 -25t137.5 -54l17 -151q-43 25 -90.5 44.5t-105 30.5t-132.5 11q-172 0 -256.5 -96t-84.5 -282v-318q0 -115 35 -192t101 -115t160 -38q134 0 198 71.5t64 183.5v60
q0 79 -24.5 135.5t-78.5 87.5t-141 31q-82 0 -146.5 -30t-109 -85.5t-66.5 -131.5l-16 140h29q21 68 65.5 122.5t116.5 86t174 31.5q180 0 270.5 -101t90.5 -283v-65q0 -177 -108 -284.5t-321 -107.5z" />
    <glyph glyph-name="seven" unicode="7" horiz-adv-x="920" 
d="M211 0l476 1137h-628v141h802v-144l-469 -1134h-181z" />
    <glyph glyph-name="eight" unicode="8" horiz-adv-x="1111" 
d="M555 -26q-122 0 -209.5 24.5t-143 71t-82 111.5t-26.5 145v27q0 90 31 154t90 103.5t139 55.5v6q-79 12 -134 48t-83.5 94t-28.5 135v27q0 152 109 239.5t338 87.5q231 0 340 -87.5t109 -239.5v-27q0 -77 -28.5 -135t-83.5 -94t-134 -48v-6q81 -17 139 -56.5t89.5 -103
t31.5 -153.5v-27q0 -79 -25.5 -143.5t-81 -111t-143.5 -72t-213 -25.5zM557 113q152 0 222.5 62.5t70.5 165.5v26q0 101 -75 161.5t-224 72.5q-143 -13 -216.5 -73.5t-73.5 -160.5v-26q0 -103 72 -165.5t224 -62.5zM559 719q126 5 203 60.5t77 160.5v19q0 96 -68.5 151.5
t-215.5 55.5q-145 0 -214 -55.5t-69 -151.5v-19q0 -70 35.5 -118t99.5 -73.5t152 -29.5z" />
    <glyph glyph-name="nine" unicode="9" horiz-adv-x="1080" 
d="M523 1302q225 0 339.5 -125.5t114.5 -367.5v-325q0 -244 -124 -375.5t-373 -131.5q-112 0 -189.5 22t-131.5 48l-17 158q64 -35 138 -59t182 -24q180 0 265.5 92.5t85.5 273.5v336q0 168 -71.5 253.5t-221.5 85.5q-135 0 -200 -71.5t-65 -184.5v-63q0 -115 60 -184
t197 -69q77 0 138.5 29.5t105 84.5t65.5 130l15 -141h-28q-20 -67 -64 -120.5t-113.5 -84.5t-167.5 -31q-187 0 -279.5 101t-92.5 280v70q0 178 109 285.5t323 107.5z" />
    <glyph glyph-name="colon" unicode=":" horiz-adv-x="400" 
d="M200 -19q-51 0 -76 28.5t-25 80.5v10q0 51 25 79t76 28t76.5 -28t25.5 -79v-10q0 -52 -25.5 -80.5t-76.5 -28.5zM200 691q-51 0 -76 29t-25 80v10q0 52 25 80t76 28t76.5 -28t25.5 -80v-10q0 -51 -25.5 -80t-76.5 -29z" />
    <glyph glyph-name="semicolon" unicode=";" horiz-adv-x="398" 
d="M279 271q3 -19 6.5 -49.5t3.5 -65.5q0 -120 -33.5 -222t-113.5 -197l-113 36q52 83 77 174t25 202q0 33 -1.5 62.5t-5.5 59.5h155zM200 691q-51 0 -76 29t-25 80v10q0 52 25 80t76 28t76.5 -28t25.5 -80v-10q0 -51 -25.5 -80t-76.5 -29z" />
    <glyph glyph-name="less" unicode="&#x3c;" horiz-adv-x="1032" 
d="M223 631v-19l675 -182v-142l-794 224v219l794 223v-141z" />
    <glyph glyph-name="equal" unicode="=" horiz-adv-x="1032" 
d="M119 351v130h794v-130h-794zM119 763v130h794v-130h-794z" />
    <glyph glyph-name="greater" unicode="&#x3e;" horiz-adv-x="1032" 
d="M809 631l-675 182v141l794 -223v-219l-794 -224v142l675 182v19z" />
    <glyph glyph-name="question" unicode="?" horiz-adv-x="893" 
d="M277 389v143l80 19q100 24 162 61.5t91.5 94.5t29.5 139v77q0 114 -56 175t-190 61q-98 0 -185.5 -29t-156.5 -68l19 147q35 22 86.5 42.5t118 34t142.5 13.5q200 0 293 -93.5t93 -268.5v-89q0 -127 -47 -212t-140 -138t-233 -85zM350 -19q-52 0 -76.5 28.5t-24.5 80.5
v10q0 51 24.5 79t76.5 28q51 0 76 -28t25 -79v-10q0 -52 -25 -80.5t-76 -28.5z" />
    <glyph glyph-name="at" unicode="@" horiz-adv-x="1670" 
d="M738 71q-114 0 -176.5 68.5t-62.5 197.5q0 11 1 24t2 33.5t4 53.5t9 82q13 119 48.5 204.5t100 131t162.5 45.5q104 0 157 -52t61 -140h40l-47 -142q1 6 1 12.5v12.5q0 60 -21 101t-58 62t-88 21q-94 0 -140.5 -63t-58.5 -173q-6 -49 -9 -81.5t-4.5 -52.5t-2 -32
t-0.5 -20q0 -82 39 -123t114 -41q49 0 89.5 21.5t69.5 60t43 89.5l20 -113h-36q-18 -55 -50 -97t-83 -66t-124 -24zM978 84l28 212l-2 27l39 343l4 25l17 194l1 9h147l-90 -792zM1090 199q18 -1 32.5 -2.5t39.5 -1.5q115 0 172 65.5t77 207.5q8 55 13 99.5t8 77t4 51.5
q10 164 -49.5 280t-184 177.5t-310.5 61.5q-202 0 -334.5 -76.5t-204.5 -217.5t-92 -336q-5 -48 -9 -86.5t-6.5 -70t-5 -58t-3.5 -50t-1 -47.5q-4 -242 141.5 -371.5t433.5 -129.5q128 0 235 19t193.5 53t152.5 77l-22 -133q-68 -39 -152 -69.5t-187 -47t-229 -16.5
q-230 0 -387.5 70t-237.5 207t-78 336q1 25 2 50.5t3 53.5t4.5 59.5t6 68t8.5 79.5q25 242 116 410t254.5 254.5t403.5 86.5q221 0 375.5 -72t232.5 -213t67 -347q-1 -22 -3.5 -53t-7.5 -75.5t-13 -106.5q-17 -134 -66.5 -219t-139 -126t-229.5 -42q-37 -1 -69.5 1t-65.5 7z
" />
    <glyph glyph-name="A" unicode="A" horiz-adv-x="1161" 
d="M49 0l400 1278h262l401 -1278h-168l-351 1166h-25l-351 -1166h-168zM289 377v138h582v-138h-582z" />
    <glyph glyph-name="B" unicode="B" horiz-adv-x="1162" 
d="M264 0v137h402q130 0 184.5 55.5t54.5 153.5v36q0 100 -55.5 155t-193.5 55h-391v131h389q123 0 175.5 53.5t52.5 148.5v18q0 94 -50.5 146.5t-178.5 52.5h-392v136h407q204 0 292 -81t88 -228v-20q0 -117 -56 -184t-174 -80l-1 -6q135 -20 196 -94t61 -206v-41
q0 -159 -92 -248.5t-300 -89.5h-418zM151 0v1278h164v-1278h-164z" />
    <glyph glyph-name="C" unicode="C" horiz-adv-x="1015" 
d="M578 -23q-237 0 -355.5 133t-118.5 378v303q0 245 118 377.5t354 132.5q76 0 138.5 -14t111.5 -36t83 -46l14 -154q-59 42 -138.5 73.5t-186.5 31.5q-161 0 -243 -95.5t-82 -271.5v-295q0 -175 83 -271.5t248 -96.5q106 0 187.5 31t141.5 76l-14 -158q-34 -24 -84 -47
t-114.5 -37t-142.5 -14z" />
    <glyph glyph-name="D" unicode="D" horiz-adv-x="1183" 
d="M263 0v140h310q170 0 255.5 92.5t85.5 264.5v285q0 173 -85.5 265t-255.5 92h-311v139h317q248 0 375 -127.5t127 -367.5v-287q0 -239 -127 -367.5t-375 -128.5h-316zM151 0v1278h164v-1278h-164z" />
    <glyph glyph-name="E" unicode="E" horiz-adv-x="1046" 
d="M151 0v1278h164v-1278h-164zM200 0v139h748v-139h-748zM245 583v138h682v-138h-682zM199 1139v139h743v-139h-743z" />
    <glyph glyph-name="F" unicode="F" horiz-adv-x="1001" 
d="M151 0v1278h166v-1278h-166zM245 535v139h659v-139h-659zM199 1139v139h720v-139h-720z" />
    <glyph glyph-name="G" unicode="G" horiz-adv-x="1180" 
d="M544 -24q-145 0 -243 58.5t-147.5 170.5t-49.5 271v302q0 252 129.5 387.5t380.5 135.5q90 0 163.5 -14.5t130.5 -38t98 -49.5l15 -150q-69 44 -162.5 77t-216.5 33q-186 0 -277.5 -99t-91.5 -285v-298q0 -172 80.5 -265.5t241.5 -93.5q82 0 140.5 28t96 74t54.5 101v315
l27 -59h-301v138h436v-505l-163 1q-16 -62 -55 -116t-109 -86.5t-177 -32.5zM893 264h155v-264h-162z" />
    <glyph glyph-name="H" unicode="H" horiz-adv-x="1240" 
d="M317 0h-166v1278h166v-1278zM1089 0h-166v1278h166v-1278zM246 729h743v-140h-743v140z" />
    <glyph glyph-name="I" unicode="I" horiz-adv-x="472" 
d="M319 0h-166v1278h166v-1278z" />
    <glyph glyph-name="J" unicode="J" horiz-adv-x="824" 
d="M312 -16q-65 0 -127 11t-112 31l-12 149q52 -24 106.5 -35.5t111.5 -11.5q134 0 185 62t51 189v899h166v-909q0 -189 -84 -287t-285 -98z" />
    <glyph glyph-name="K" unicode="K" horiz-adv-x="1133" 
d="M897 0l-448 587h-146v132h146l442 559h189l-506 -637l-1 41l520 -682h-196zM151 0v1278h165v-1278h-165z" />
    <glyph glyph-name="L" unicode="L" horiz-adv-x="974" 
d="M317 0h-166v1278h166v-1278zM240 141h674v-141h-674v141z" />
    <glyph glyph-name="M" unicode="M" horiz-adv-x="1493" 
d="M130 0l49 1278h257l303 -924h14l303 924h258l49 -1278h-161l-18 539l-17 566h-18l-316 -958h-173l-316 958h-18l-18 -567l-17 -538h-161z" />
    <glyph glyph-name="N" unicode="N" horiz-adv-x="1240" 
d="M403 1278l519 -1100h12l-7 558v542h162v-1278h-246l-525 1109h-12l7 -584v-525h-162v1278h252z" />
    <glyph glyph-name="O" unicode="O" horiz-adv-x="1197" 
d="M598 -24q-242 0 -368 133.5t-126 382.5v295q0 248 126 381.5t368 133.5t368 -133.5t126 -381.5v-295q0 -249 -126 -382.5t-368 -133.5zM598 115q162 0 244 96.5t82 273.5v309q0 177 -82 273t-244 96q-161 0 -243 -96t-82 -273v-309q0 -177 82 -273.5t243 -96.5z" />
    <glyph glyph-name="P" unicode="P" horiz-adv-x="1121" 
d="M259 425v138h363q131 0 190 65.5t59 180.5v87q0 117 -58.5 181t-188.5 64h-366v137h369q214 0 311.5 -100.5t97.5 -276.5v-96q0 -178 -98.5 -279t-311.5 -101h-367zM151 0v1278h163v-756l1 -74v-448h-164z" />
    <glyph glyph-name="Q" unicode="Q" horiz-adv-x="1198" 
d="M1199 -38l-540 14q-288 8 -421.5 138.5t-133.5 377.5v295q0 248 126 381.5t368 133.5q162 0 272 -59.5t166 -174.5t56 -281v-271q0 -98 -22 -170.5t-61.5 -121.5t-93.5 -78t-120 -40l-3 -7l407 9v-146zM630 115h22q56 11 105.5 37.5t87 70.5t58.5 109t21 153v309
q0 178 -82 273.5t-244 95.5q-161 0 -243 -95.5t-82 -273.5v-309q0 -176 93 -270t264 -100z" />
    <glyph glyph-name="R" unicode="R" horiz-adv-x="1151" 
d="M896 0l-36 262q-10 74 -34 128.5t-73.5 85.5t-140.5 31l-347 1v131l371 1q131 0 187 64.5t56 175.5v30q0 110 -57 170.5t-190 60.5h-372v137h394q206 0 299.5 -90.5t93.5 -249.5v-34q0 -125 -59 -204.5t-196 -96.5v-20l-71 25q111 -8 171.5 -48.5t88.5 -110.5t43 -168
l43 -281h-171zM151 0v1278h163v-683l1 -63v-532h-164z" />
    <glyph glyph-name="S" unicode="S" horiz-adv-x="1042" 
d="M507 -23q-92 0 -168.5 15t-136.5 37t-100 44l-17 165q77 -46 181.5 -80.5t227.5 -34.5q148 0 219 52.5t71 157.5v16q0 69 -28 113t-94.5 74t-180.5 56q-144 34 -230.5 80.5t-125 116.5t-38.5 174v9q0 157 103 242.5t312 85.5q137 0 233.5 -28t157.5 -62l15 -152
q-71 42 -165.5 71.5t-216.5 29.5q-97 0 -157 -23t-87 -66t-27 -104v-4q0 -62 26.5 -106t93 -76t189.5 -62q141 -33 226 -76t123.5 -112t38.5 -180v-21q0 -173 -111.5 -262.5t-333.5 -89.5z" />
    <glyph glyph-name="T" unicode="T" horiz-adv-x="1062" 
d="M448 0v1251h166v-1251h-166zM65 1139v139h932v-139h-932z" />
    <glyph glyph-name="U" unicode="U" horiz-adv-x="1220" 
d="M610 -24q-240 0 -354.5 123.5t-114.5 359.5v819h166v-823q0 -164 72 -250.5t231 -86.5q160 0 231.5 86.5t71.5 250.5v823h166v-819q0 -236 -114 -359.5t-355 -123.5z" />
    <glyph glyph-name="V" unicode="V" horiz-adv-x="1140" 
d="M438 0l-389 1278h174l335 -1152h24l336 1152h173l-388 -1278h-265z" />
    <glyph glyph-name="W" unicode="W" horiz-adv-x="1635" 
d="M329 0l-264 1278h170l186 -955l35 -184h18l34 184l187 922h245l187 -922l34 -184h18l36 184l186 955h168l-263 -1278h-262l-148 735l-70 373h-16l-71 -373l-146 -735h-264z" />
    <glyph glyph-name="X" unicode="X" horiz-adv-x="1132" 
d="M53 0l395 681v-38l-386 635h181l318 -531h12l317 531h181l-385 -635v38l393 -681h-183l-323 566h-13l-323 -566h-184z" />
    <glyph glyph-name="Y" unicode="Y" horiz-adv-x="1096" 
d="M477 384l-439 894h175l235 -489l94 -212h13l94 212l234 489h176l-439 -894h-143zM467 0v539h163v-539h-163z" />
    <glyph glyph-name="Z" unicode="Z" horiz-adv-x="1036" 
d="M950 140v-140h-864v131l665 1009h-659v138h851v-129l-665 -1009h672z" />
    <glyph glyph-name="bracketleft" unicode="[" horiz-adv-x="612" 
d="M152 -242v1593h404v-123h-253v-1347h253v-123h-404z" />
    <glyph glyph-name="backslash" unicode="\" horiz-adv-x="832" 
d="M800 -240h-151l-617 1581h151z" />
    <glyph glyph-name="bracketright" unicode="]" horiz-adv-x="612" 
d="M460 -242h-404v123h253v1347h-253v123h404v-1593z" />
    <glyph glyph-name="asciicircum" unicode="^" horiz-adv-x="843" 
d="M313 1278h216l258 -665h-142l-216 565h-15l-216 -565h-142z" />
    <glyph glyph-name="underscore" unicode="_" horiz-adv-x="906" 
d="M56 -207v127h795v-127h-795z" />
    <glyph glyph-name="grave" unicode="`" horiz-adv-x="569" 
d="M279 1366l194 -267v-2h-144l-230 266v3h180z" />
    <glyph glyph-name="a" unicode="a" horiz-adv-x="988" 
d="M711 0l7 237l-6 25v311l1 57q0 119 -60.5 176t-191.5 57q-105 0 -192.5 -30t-155.5 -70l15 138q38 23 90.5 45.5t120 37.5t148.5 15q105 0 178.5 -25.5t119 -73.5t66.5 -116t21 -152v-632h-161zM375 -21q-145 0 -222.5 70.5t-77.5 201.5v29q0 135 83.5 201.5t265.5 92.5
l309 44l9 -118l-298 -43q-112 -16 -160 -54.5t-48 -113.5v-16q0 -77 47.5 -118t142.5 -41q84 0 144 29t97 78t50 109l25 -110h-31q-14 -64 -52.5 -119t-107.5 -88.5t-176 -33.5z" />
    <glyph glyph-name="b" unicode="b" horiz-adv-x="1074" 
d="M613 -21q-90 0 -156.5 30t-107.5 86t-55 130h-54l49 152q5 -88 41.5 -146.5t97.5 -87.5t138 -29q122 0 186.5 72t64.5 214v183q0 139 -65 211t-189 72q-74 0 -131 -29t-94.5 -79t-51.5 -114l-37 113h46q15 67 53.5 121.5t105.5 87t166 32.5q176 0 268 -109.5t92 -317.5
v-162q0 -210 -93.5 -320t-273.5 -110zM132 0v1325h161v-318l-5 -280l1 -31v-408l-2 -52l7 -236h-162z" />
    <glyph glyph-name="c" unicode="c" horiz-adv-x="868" 
d="M508 -22q-210 0 -312.5 113.5t-102.5 321.5v152q0 209 103 321.5t312 112.5q62 0 113 -11.5t91.5 -30t68.5 -38.5l14 -141q-47 36 -111.5 61t-151.5 25q-140 0 -208.5 -77.5t-68.5 -225.5v-144q0 -145 68.5 -223t208.5 -78q90 0 155.5 25t116.5 61l-15 -143
q-44 -30 -115 -55.5t-166 -25.5z" />
    <glyph glyph-name="d" unicode="d" horiz-adv-x="1074" 
d="M454 -21q-176 0 -268 109t-92 318v161q0 210 93 320.5t274 110.5q90 0 156 -30.5t107 -85.5t55 -130h53l-48 -149q-3 86 -38.5 144.5t-96 88.5t-138.5 30q-124 0 -189.5 -72t-65.5 -212v-186q0 -138 65.5 -210t189.5 -72q74 0 131 28.5t94.5 79t51.5 114.5l40 -116h-48
q-14 -66 -53.5 -121t-106 -87.5t-166.5 -32.5zM780 0l7 236l-3 52v408l1 34l-4 277v318h161v-1325h-162z" />
    <glyph glyph-name="e" unicode="e" horiz-adv-x="999" 
d="M542 -22q-223 0 -336 109t-113 312v174q0 206 105 317.5t307 111.5q136 0 227 -50.5t137 -143.5t46 -222v-36q0 -32 -2.5 -64t-6.5 -63h-149q2 48 2.5 91t0.5 79q0 89 -28.5 150.5t-85 94t-141.5 32.5q-126 0 -189 -73t-63 -209v-93l1 -20v-93q0 -61 18 -110t56.5 -84.5
t98 -54t141.5 -18.5q95 0 177 25t154 68l-15 -140q-65 -41 -151 -65.5t-191 -24.5zM178 423v122h694v-122h-694z" />
    <glyph glyph-name="f" unicode="f" horiz-adv-x="751" 
d="M460 1352q75 0 134.5 -13.5t109.5 -33.5l16 -127q-49 18 -98.5 28.5t-111.5 10.5q-75 0 -120.5 -19.5t-65 -55t-19.5 -85.5v-5q0 -35 9 -66.5t20 -57.5l-109 -4v20q-31 24 -54.5 67t-23.5 100v5q0 107 76 171.5t237 64.5zM180 0v889h161v-889h-161zM19 810v129l223 -1
l66 1h408l-15 -129h-682z" />
    <glyph glyph-name="g" unicode="g" horiz-adv-x="1025" 
d="M512 292q-199 0 -305.5 87t-106.5 249v25q0 101 41.5 176t132.5 117.5t238 46.5l498 16v-128l-294 10l-1 -7q69 -14 113 -48t65.5 -85t21.5 -119v-22q0 -155 -102 -236.5t-301 -81.5zM505 -246h23q90 0 154.5 13.5t99.5 42.5t35 77v4q0 56 -40.5 85.5t-138.5 38.5
l-276 25l46 2q-56 -8 -98.5 -26t-66.5 -47.5t-24 -73.5v-2q0 -51 35 -82t99 -44t152 -13zM496 -375q-132 0 -227.5 22.5t-148 73t-52.5 135.5v4q0 60 28.5 100t77 63t108.5 31l-1 6q-82 14 -121 48.5t-39 89.5v1q0 38 17.5 65t53 43t90.5 20v20l186 -47l-76 2
q-68 -1 -94 -16.5t-26 -46.5v-1q0 -33 37 -50t126 -27l237 -24q155 -16 226 -74.5t71 -172.5v-5q0 -91 -54 -149t-153 -84.5t-237 -26.5h-29zM510 412q84 0 139.5 24.5t84 74t28.5 121.5v24q0 70 -27.5 119t-82.5 74.5t-138 25.5h-6q-90 0 -146.5 -27.5t-82 -77
t-25.5 -115.5v-23q0 -72 28.5 -121t85.5 -74t142 -25z" />
    <glyph glyph-name="h" unicode="h" horiz-adv-x="1066" 
d="M785 0v607q0 79 -21.5 136t-70 88.5t-132.5 31.5q-77 0 -133 -29t-90.5 -78.5t-48.5 -112.5l-36 115h42q15 66 55 120.5t107.5 87t164.5 32.5q116 0 187.5 -44t104.5 -126.5t33 -202.5v-625h-162zM132 0v1325h161v-318l-5 -280l6 -13v-714h-162z" />
    <glyph glyph-name="i" unicode="i" horiz-adv-x="433" 
d="M135 0v976h162v-976h-162zM216 1136q-50 0 -74.5 26.5t-24.5 72.5v5q0 47 24.5 73t74.5 26t75 -26t25 -73v-5q0 -47 -25 -73t-75 -26z" />
    <glyph glyph-name="j" unicode="j" horiz-adv-x="461" 
d="M163 133v843h162v-843h-162zM244 1136q-50 0 -74.5 26.5t-24.5 72.5v5q0 47 24.5 73t74.5 26t75 -26t25 -73v-5q0 -47 -25 -73t-75 -26zM44 -357q-43 0 -81 7.5t-65 17.5l-14 134q28 -13 58.5 -19.5t63.5 -6.5q90 0 123.5 48.5t33.5 139.5v309h162v-317q0 -98 -27 -168
t-89 -107.5t-165 -37.5z" />
    <glyph glyph-name="k" unicode="k" horiz-adv-x="989" 
d="M766 0l-386 455h-103v126h103l370 395h192l-443 -471v39l461 -544h-194zM132 0v1325h161v-1325h-161z" />
    <glyph glyph-name="l" unicode="l" horiz-adv-x="435" 
d="M137 0v1325h161v-1325h-161z" />
    <glyph glyph-name="m" unicode="m" horiz-adv-x="1632" 
d="M1351 0v611q0 77 -19.5 133.5t-64 87.5t-119.5 31q-71 0 -123 -29t-84 -77.5t-45 -110.5l-25 115h20q16 63 54 117t103 87t161 33q109 0 175.5 -43t97.5 -125.5t31 -200.5v-629h-162zM132 0v976h162l-7 -234l7 -10v-732h-162zM742 0v611q0 77 -19.5 133.5t-63.5 87.5
t-119 31q-72 0 -124 -29t-84 -78.5t-45 -112.5l-30 115h36q15 66 52 120.5t100.5 87t154.5 32.5q135 0 205.5 -70t88.5 -204q5 -20 7 -43.5t2 -46.5v-634h-161z" />
    <glyph glyph-name="n" unicode="n" horiz-adv-x="1066" 
d="M785 0v607q0 79 -21.5 136t-70 88.5t-132.5 31.5q-77 0 -133.5 -29t-91.5 -78.5t-49 -112.5l-29 115h35q16 66 56 120.5t107.5 87t165.5 32.5q116 0 187.5 -44t104.5 -126.5t33 -202.5v-625h-162zM132 0v976h162l-7 -234l7 -9v-733h-162z" />
    <glyph glyph-name="o" unicode="o" horiz-adv-x="1040" 
d="M520 -25q-210 0 -318.5 113.5t-108.5 326.5v149q0 212 109 325t318 113q210 0 318.5 -113t108.5 -325v-149q0 -213 -108.5 -326.5t-318.5 -113.5zM520 107q130 0 197.5 77t67.5 222v167q0 144 -67.5 220.5t-197.5 76.5q-129 0 -197 -76.5t-68 -220.5v-167q0 -145 68 -222
t197 -77z" />
    <glyph glyph-name="p" unicode="p" horiz-adv-x="1074" 
d="M613 -21q-90 0 -156 30t-107 86t-55 130h-53l47 152q4 -88 39.5 -146.5t96.5 -87.5t138 -29q123 0 188.5 72t65.5 211v187q0 138 -65 210t-189 72q-74 0 -131 -29t-94.5 -79t-51.5 -114l-40 113h47q16 67 54.5 121.5t106 87t166.5 32.5q176 0 268 -109.5t92 -317.5v-162
q0 -210 -92.5 -320t-274.5 -110zM132 -344v1320h162l-7 -235l2 -50v-411l-1 -33l5 -274v-317h-161z" />
    <glyph glyph-name="q" unicode="q" horiz-adv-x="1074" 
d="M454 -21q-176 0 -268 109t-92 318v161q0 210 93.5 320.5t273.5 110.5q90 0 156.5 -30.5t108 -85.5t54.5 -130h54l-50 -149q-3 88 -40 146.5t-97.5 87.5t-138.5 29q-122 0 -187 -72t-65 -214v-184q0 -138 65.5 -210t188.5 -72q75 0 132 28.5t94.5 79t51.5 114.5l37 -116
h-46q-15 -66 -54 -121t-105.5 -87.5t-165.5 -32.5zM781 -344v317l5 278l-2 32v408l3 50l-7 235h162v-1320h-161z" />
    <glyph glyph-name="r" unicode="r" horiz-adv-x="746" 
d="M286 597l-37 125l40 2q32 124 110 195.5t207 71.5q32 0 57.5 -5t45.5 -12l10 -157q-25 8 -55.5 13t-67.5 5q-110 0 -191.5 -61t-118.5 -177zM132 0v976h158l-8 -288l12 -12v-676h-162z" />
    <glyph glyph-name="s" unicode="s" horiz-adv-x="882" 
d="M437 -22q-118 0 -206 25.5t-146 55.5l-15 150q73 -38 160.5 -66t198.5 -28q113 0 170 36t57 107v11q0 46 -21.5 76t-77.5 53t-159 46q-123 27 -194 63.5t-101.5 90.5t-30.5 132v9q0 128 89 194t268 66q115 0 199.5 -26t138.5 -58l15 -137q-65 38 -149 63t-189 25
q-76 0 -123 -15.5t-68 -44t-21 -68.5v-8q0 -44 21 -74.5t75.5 -53t151.5 -43.5q125 -25 198.5 -60t105.5 -88.5t32 -137.5v-17q0 -138 -96 -208t-283 -70z" />
    <glyph glyph-name="t" unicode="t" horiz-adv-x="791" 
d="M487 -20q-113 0 -182 34t-100 103t-31 172v616h160v-597q0 -96 44 -141.5t148 -45.5q59 0 113.5 13t102.5 37l-15 -139q-47 -24 -110 -38t-130 -14zM14 832v130h718l-15 -130h-703zM175 946l-1 274l163 21l-7 -295h-155z" />
    <glyph glyph-name="u" unicode="u" horiz-adv-x="1066" 
d="M281 976v-607q0 -77 21.5 -134.5t70.5 -89t132 -31.5q78 0 134 28.5t91.5 78.5t48.5 113l29 -115h-35q-15 -66 -55 -120.5t-107.5 -87t-166.5 -32.5q-115 0 -186.5 43.5t-104.5 127t-33 201.5v625h161zM934 976v-976h-162l7 234l-7 10v732h162z" />
    <glyph glyph-name="v" unicode="v" horiz-adv-x="988" 
d="M506 111l270 865h168l-317 -976h-266l-317 976h168l270 -865h24z" />
    <glyph glyph-name="w" unicode="w" horiz-adv-x="1497" 
d="M296 0l-240 976h167l192 -858h19l200 832h229l200 -832h18l194 858h166l-240 -976h-248l-165 694l-32 139h-15l-31 -139l-165 -694h-249z" />
    <glyph glyph-name="x" unicode="x" horiz-adv-x="975" 
d="M51 0l320 531v-46l-314 491h178l246 -397h14l245 397h178l-314 -491v46l320 -531h-177l-252 424h-14l-253 -424h-177z" />
    <glyph glyph-name="y" unicode="y" horiz-adv-x="988" 
d="M571 151l-85 -37l292 862h167l-459 -1320h-164l154 446l71 -62h-184l-319 936h168l266 -825h93z" />
    <glyph glyph-name="z" unicode="z" horiz-adv-x="903" 
d="M822 134v-134h-741v122l543 721h-541v133h735v-121l-543 -721h547z" />
    <glyph glyph-name="braceleft" unicode="{" horiz-adv-x="675" 
d="M619 1329v-120q-23 8 -52 13.5t-64 5.5q-74 0 -107 -36t-33 -118q0 -36 3.5 -89t7 -107.5t3.5 -96.5q0 -61 -15 -107.5t-52 -74.5t-104 -38v-17l-6 10q70 -8 108.5 -37t53.5 -76.5t15 -110.5q0 -42 -3.5 -97t-7 -108t-3.5 -91q0 -82 33 -118.5t109 -36.5q34 0 62.5 6
t51.5 14v-121q-33 -10 -72 -17t-83 -7q-131 0 -193 63t-62 201q0 43 3.5 99.5t7.5 111t4 93.5q0 51 -14 86.5t-48 55t-96 24.5v138q62 4 96 23t48 54t14 86q0 39 -4 93.5t-7.5 110t-3.5 97.5q0 138 62 200.5t193 62.5q44 0 83 -6.5t72 -17.5z" />
    <glyph glyph-name="bar" unicode="|" horiz-adv-x="486" 
d="M312 -436h-138v1857h138v-1857z" />
    <glyph glyph-name="braceright" unicode="}" horiz-adv-x="675" 
d="M56 1329q33 11 72.5 17.5t82.5 6.5q131 0 193 -62.5t62 -200.5q0 -42 -3.5 -97.5t-7 -110t-3.5 -93.5q0 -51 13.5 -86t48 -54t95.5 -23v-138q-61 -5 -95.5 -24.5t-48 -55t-13.5 -86.5q0 -39 3.5 -93.5t7 -111t3.5 -99.5q0 -138 -62 -201t-193 -63q-43 0 -82.5 7t-72.5 17
v121q23 -8 51.5 -14t62.5 -6q76 0 109 36.5t33 118.5q0 38 -3.5 91t-7 108t-3.5 97q0 63 15.5 110.5t54 76.5t108.5 37l-7 -10v17q-66 10 -103.5 38t-52.5 74.5t-15 107.5q0 42 3.5 96.5t7 107.5t3.5 89q0 82 -32.5 118t-107.5 36q-34 0 -63.5 -5.5t-52.5 -13.5v120z" />
    <glyph glyph-name="asciitilde" unicode="~" horiz-adv-x="1080" 
d="M747 479q-57 0 -111 18t-104.5 41t-98 41t-90.5 18q-52 0 -74.5 -31.5t-22.5 -90.5v-17h-121v35q0 113 47.5 176.5t160.5 63.5q57 0 110.5 -18t104.5 -41.5t98 -41t91 -17.5q53 0 74.5 31t21.5 90v17h122v-35q0 -114 -48 -176.5t-160 -62.5z" />
    <glyph glyph-name="uni00A0" unicode="&#xa0;" horiz-adv-x="421" 
 />
    <glyph glyph-name="exclamdown" unicode="&#xa1;" horiz-adv-x="463" 
d="M299 583l19 -885h-173l19 885h135zM231 996q52 0 77 -28.5t25 -80.5v-10q0 -52 -25 -80t-77 -28q-51 0 -76 28t-25 80v10q0 52 25 80.5t76 28.5z" />
    <glyph glyph-name="cent" unicode="&#xa2;" horiz-adv-x="868" 
d="M570 936h-140v254h140v-254zM570 -217h-140v277h140v-277zM508 -22q-210 0 -312.5 113.5t-102.5 321.5v152q0 209 103 321.5t312 112.5q62 0 113 -11.5t91.5 -30t68.5 -38.5l14 -141q-47 36 -111.5 61t-151.5 25q-140 0 -208.5 -77.5t-68.5 -225.5v-144q0 -145 68.5 -223
t208.5 -78q90 0 155.5 25t116.5 61l-15 -143q-44 -30 -115 -55.5t-166 -25.5z" />
    <glyph glyph-name="sterling" unicode="&#xa3;" horiz-adv-x="1074" 
d="M82 592l10 126h816l-10 -126h-816zM283 141h724v-141h-919v138l29 8q58 15 93.5 52.5t52 96.5t16.5 139q0 62 -10.5 124t-25 125t-25 126.5t-10.5 129.5q0 181 102.5 271.5t316.5 90.5q83 0 163 -16t142 -42l13 -141q-69 29 -139.5 43t-143.5 14q-97 0 -159.5 -26.5
t-92.5 -79.5t-30 -134q0 -58 10 -117.5t24 -119t24 -118.5t10 -117q0 -126 -41.5 -194.5t-120.5 -105.5z" />
    <glyph glyph-name="currency" unicode="&#xa4;" horiz-adv-x="1014" 
d="M506 244q-172 0 -264 91t-92 260v47q0 170 92.5 260.5t264.5 90.5q173 0 265 -90.5t92 -260.5v-47q0 -169 -92.5 -260t-265.5 -91zM507 367q103 0 157 57.5t54 168.5v52q0 110 -54 167t-157 57q-102 0 -156.5 -57t-54.5 -167v-52q0 -111 54.5 -168.5t156.5 -57.5z
M759 411l182 -208l-93 -78l-180 204zM346 329l-180 -204l-92 78l184 210zM249 830l-175 200l91 79l178 -202zM668 903l180 206l92 -79l-181 -209z" />
    <glyph glyph-name="yen" unicode="&#xa5;" horiz-adv-x="1122" 
d="M644 552l31 122h334l-13 -122h-352zM128 371h881l-13 -120h-880zM442 674l33 -122h-359l12 122h314zM488 384l-440 894h176l234 -489l95 -212h13l94 212l234 489h175l-438 -894h-143zM478 0v539h163v-539h-163z" />
    <glyph glyph-name="brokenbar" unicode="&#xa6;" horiz-adv-x="486" 
d="M312 589h-138v832h138v-832zM312 -436h-138v837h138v-837z" />
    <glyph glyph-name="section" unicode="&#xa7;" horiz-adv-x="948" 
d="M553 407q68 19 101.5 64.5t33.5 99.5v6q0 55 -22.5 88.5t-79 57t-160.5 44.5q-122 26 -192.5 62.5t-100.5 88.5t-30 121v10q0 124 89 187.5t265 63.5q115 0 199 -26t137 -59l16 -137q-66 38 -148.5 63.5t-187.5 25.5q-113 0 -161.5 -31.5t-48.5 -89.5v-9
q0 -39 21.5 -65.5t75 -47.5t148.5 -44q124 -28 197.5 -61t105 -83t31.5 -130v-6q0 -82 -47.5 -140t-132.5 -73v-30zM389 789q-63 -19 -97 -61t-34 -99v-8q0 -53 22 -87.5t76 -58.5t153 -48q124 -29 197 -64t104.5 -86.5t31.5 -129.5v-14q0 -129 -95 -196.5t-281 -67.5
q-118 0 -205 25.5t-145 56.5l-15 149q72 -38 159.5 -66t196.5 -28q113 0 169.5 33.5t56.5 97.5v9q0 43 -22 71t-77.5 50.5t-156.5 46.5q-119 29 -190 65t-102.5 85.5t-31.5 119.5v7q0 83 47 137t134 74l-1 28z" />
    <glyph glyph-name="dieresis" unicode="&#xa8;" horiz-adv-x="682" 
d="M188 1135q-43 0 -65 24.5t-22 69.5v7q0 45 22 69t65 24q45 0 66.5 -24t21.5 -69v-7q0 -45 -21.5 -69.5t-66.5 -24.5zM494 1135q-44 0 -65.5 24.5t-21.5 69.5v7q0 45 21.5 69t65.5 24q43 0 64.5 -24t21.5 -69v-7q0 -45 -21.5 -69.5t-64.5 -24.5z" />
    <glyph glyph-name="copyright" unicode="&#xa9;" horiz-adv-x="1389" 
d="M695 -24q-188 0 -320 68.5t-201.5 199t-69.5 315.5v165q0 184 69.5 313t201.5 197t320 68q187 0 319.5 -68t201.5 -197t69 -313v-165q0 -185 -69 -315.5t-201.5 -199t-319.5 -68.5zM732 311q-137 0 -204 74.5t-67 213.5v85q0 138 67.5 212t203.5 74q64 0 111 -17t74 -38
l10 -99q-33 25 -75.5 42t-102.5 17q-89 0 -132 -48.5t-43 -139.5v-88q0 -92 44.5 -141t134.5 -49q60 0 103 17.5t76 41.5l-9 -100q-29 -22 -76.5 -39.5t-114.5 -17.5zM695 70q223 0 351 125.5t128 355.5v181q0 228 -128 352t-351 124q-224 0 -351.5 -124t-127.5 -352v-181
q0 -230 127.5 -355.5t351.5 -125.5z" />
    <glyph glyph-name="ordfeminine" unicode="&#xaa;" horiz-adv-x="665" 
d="M454 642l5 150l-2 9v203v56q0 65 -34 99.5t-114 34.5q-65 0 -119.5 -20t-98.5 -46l10 102q39 23 95.5 42.5t130.5 19.5q68 0 114.5 -17t75 -48.5t41 -74.5t12.5 -95v-415h-116zM258 630q-93 0 -142.5 47.5t-49.5 136.5v15q0 85 51 130t163 62l192 29l8 -85l-174 -27
q-67 -10 -94.5 -33.5t-27.5 -68.5v-12q0 -45 27.5 -70.5t85.5 -25.5q64 0 107 35.5t56 87.5l16 -80h-21q-16 -60 -60.5 -100.5t-136.5 -40.5z" />
    <glyph glyph-name="guillemotleft" unicode="&#xab;" horiz-adv-x="990" 
d="M647 489l293 -398h-161l-281 376v43l281 372h161zM223 489l293 -398h-161l-281 376v43l281 372h161z" />
    <glyph glyph-name="logicalnot" unicode="&#xac;" horiz-adv-x="1019" 
d="M898 201h-138v435h138v-435zM104 557v131h794v-131h-794z" />
    <glyph glyph-name="uni00AD" unicode="&#xad;" horiz-adv-x="814" 
d="M123 458v133h568v-133h-568z" />
    <glyph glyph-name="registered" unicode="&#xae;" horiz-adv-x="831" 
d="M416 543q-166 0 -256.5 88.5t-90.5 247.5v81q0 160 90.5 248t256.5 88t256 -88t90 -248v-81q0 -159 -90 -247.5t-256 -88.5zM416 608q133 0 201.5 68.5t68.5 200.5v86q0 132 -68.5 200t-201.5 68q-134 0 -203 -68t-69 -200v-86q0 -132 69 -200.5t203 -68.5zM502 734
l-10 68q-7 40 -23 55.5t-51 15.5h-85v56h100q34 0 49 16t15 45v10q0 28 -14.5 44t-49.5 16h-102v57h111q65 0 95 -27t30 -81v-8q0 -38 -20 -61t-64 -28l-1 -9l-14 9q48 -4 66.5 -28t26.5 -73l14 -77h-73zM285 734v383h70v-207v-24v-152h-70z" />
    <glyph glyph-name="macron" unicode="&#xaf;" horiz-adv-x="768" 
d="M109 1161v111h549v-111h-549z" />
    <glyph glyph-name="degree" unicode="&#xb0;" horiz-adv-x="654" 
d="M327 786q-117 0 -180.5 67.5t-63.5 185.5v12q0 117 63.5 184t180.5 67q118 0 181.5 -67t63.5 -184v-12q0 -118 -63.5 -185.5t-181.5 -67.5zM327 894q61 0 91.5 38t30.5 106v13q0 68 -30.5 106t-91.5 38q-59 0 -90.5 -38t-31.5 -106v-13q0 -68 31.5 -106t90.5 -38z" />
    <glyph glyph-name="plusminus" unicode="&#xb1;" horiz-adv-x="1032" 
d="M119 146v129h794v-129h-794zM585 404h-139v689h139v-689zM119 684v129h794v-129h-794z" />
    <glyph glyph-name="uni00B2" unicode="&#xb2;" horiz-adv-x="591" 
d="M41 726v106l205 162q51 40 87 73.5t56 66.5t20 70v7q0 50 -34 76.5t-109 26.5q-63 0 -117 -16.5t-101 -39.5l11 105q39 22 99.5 38.5t125.5 16.5q123 0 186.5 -51t63.5 -143v-11q0 -54 -23 -98.5t-65.5 -86.5t-102.5 -89l-136 -104v-27l-54 20h392v-102h-504z" />
    <glyph glyph-name="uni00B3" unicode="&#xb3;" horiz-adv-x="616" 
d="M282 711q-73 0 -133 15t-94 30l-11 105q42 -18 99.5 -33t122.5 -15q96 0 132 30t36 77v6q0 24 -8.5 42t-26.5 30.5t-47.5 19t-72.5 7.5l-133 3v89l132 3q82 2 117 26.5t35 69.5v7q0 45 -34 69.5t-122 24.5q-71 0 -127.5 -16t-97.5 -34l11 99q37 20 95.5 35.5t134.5 15.5
q134 0 199.5 -46t65.5 -133v-8q0 -59 -33.5 -98.5t-107.5 -48.5l-1 -13l-3 10q78 -11 114 -51.5t36 -109.5v-10q0 -56 -29 -101t-90.5 -71t-158.5 -26z" />
    <glyph glyph-name="acute" unicode="&#xb4;" horiz-adv-x="569" 
d="M290 1366h180v-3l-230 -266h-144v2z" />
    <glyph glyph-name="uni00B5" unicode="&#xb5;" horiz-adv-x="1080" 
d="M947 976v-976h-161l7 234l-7 10v732h161zM294 376q0 -61 14.5 -109.5t43.5 -82.5t74 -51.5t107 -17.5q71 0 125 29t88 79t46 112l29 -120h-35q-12 -70 -45 -123t-86.5 -83t-130.5 -30q-67 0 -114.5 20.5t-77.5 56.5t-46 85h-6l11 -326v-159h-159v1320h162v-600z" />
    <glyph glyph-name="paragraph" unicode="&#xb6;" horiz-adv-x="726" 
d="M366 660q-145 0 -214 75.5t-69 207.5v52q0 133 69 208t214 75h89l1 -618h-90zM575 0h-161v1278h161v-1278z" />
    <glyph glyph-name="periodcentered" unicode="&#xb7;" horiz-adv-x="370" 
d="M184 432q-48 0 -71.5 25t-23.5 71v6q0 45 23.5 70.5t71.5 25.5q49 0 72.5 -25.5t23.5 -70.5v-6q0 -46 -23.5 -71t-72.5 -25z" />
    <glyph glyph-name="cedilla" unicode="&#xb8;" horiz-adv-x="577" 
d="M349 17l-20 -152l-69 48q14 0 30.5 0.5t32.5 -0.5q99 -5 147 -40.5t48 -104.5v-5q0 -75 -54.5 -111.5t-156.5 -36.5q-41 0 -79 6.5t-66 13.5l-19 102q31 -10 67.5 -16.5t76.5 -6.5q54 0 82 15t28 44v3q0 35 -35 49.5t-122 20.5q-9 1 -14.5 1h-8.5l21 170h111z" />
    <glyph glyph-name="uni00B9" unicode="&#xb9;" horiz-adv-x="424" 
d="M219 726v555h-7l-182 -104l4 116l188 111h116v-678h-119z" />
    <glyph glyph-name="ordmasculine" unicode="&#xba;" horiz-adv-x="692" 
d="M346 630q-135 0 -206 74t-71 216v84q0 141 71 215t206 74q136 0 207 -74t71 -215v-84q0 -142 -71.5 -216t-206.5 -74zM346 729q76 0 115.5 47.5t39.5 137.5v96q0 90 -39 137t-116 47q-76 0 -115.5 -47t-39.5 -137v-96q0 -89 39.5 -137t115.5 -48z" />
    <glyph glyph-name="guillemotright" unicode="&#xbb;" horiz-adv-x="990" 
d="M475 91l292 398l-292 393h160l281 -372v-43l-281 -376h-160zM50 91l293 398l-293 393h161l281 -372v-43l-281 -376h-161z" />
    <glyph glyph-name="onequarter" unicode="&#xbc;" horiz-adv-x="1376" 
d="M219 600v555h-7l-182 -104l4 116l188 111h116v-678h-119zM147 0l857 1278h131l-855 -1278h-133zM1146 0v429l4 165h-15l-248 -370v-42l-56 35h527v-98h-595v109l306 450h191v-678h-114z" />
    <glyph glyph-name="onehalf" unicode="&#xbd;" horiz-adv-x="1452" 
d="M219 600v555h-7l-182 -104l4 116l188 111h116v-678h-119zM147 0l857 1278h131l-855 -1278h-133zM902 0v106l205 162q51 40 87 73.5t56 66.5t20 70v7q0 50 -34 76.5t-109 26.5q-63 0 -117 -16.5t-101 -39.5l11 105q39 22 99.5 38.5t125.5 16.5q123 0 186.5 -51t63.5 -143
v-11q0 -54 -23 -98.5t-65.5 -86.5t-102.5 -89l-136 -104v-27l-54 20h392v-102h-504z" />
    <glyph glyph-name="threequarters" unicode="&#xbe;" horiz-adv-x="1561" 
d="M282 585q-73 0 -133 15t-94 30l-11 105q42 -18 99.5 -33t122.5 -15q96 0 132 30t36 77v6q0 24 -8.5 42t-26.5 30.5t-47.5 19t-72.5 7.5l-133 3v89l132 3q82 2 117 26.5t35 69.5v7q0 45 -34 69.5t-122 24.5q-71 0 -127.5 -16t-97.5 -34l11 99q37 20 95.5 35.5t134.5 15.5
q134 0 199.5 -46t65.5 -133v-8q0 -59 -33.5 -98.5t-107.5 -48.5l-1 -13l-3 10q78 -11 114 -51.5t36 -109.5v-10q0 -56 -29 -101t-90.5 -71t-158.5 -26zM333 0l857 1278h131l-855 -1278h-133zM1331 0v429l4 165h-15l-248 -370v-42l-56 35h527v-98h-595v109l306 450h191v-678
h-114z" />
    <glyph glyph-name="questiondown" unicode="&#xbf;" horiz-adv-x="893" 
d="M616 587v-143l-80 -18q-99 -23 -161.5 -61t-92 -95t-29.5 -140v-77q0 -114 56 -175t190 -61q98 0 185.5 29.5t156.5 67.5l-19 -147q-34 -21 -86 -41.5t-118 -34.5t-144 -14q-198 0 -291.5 93.5t-93.5 269.5v88q0 128 47 213t140.5 138t232.5 84zM543 996q52 0 76.5 -28.5
t24.5 -80.5v-10q0 -52 -24.5 -80t-76.5 -28q-51 0 -76 28t-25 80v10q0 52 25 80.5t76 28.5z" />
    <glyph glyph-name="Agrave" unicode="&#xc0;" horiz-adv-x="1161" 
d="M49 0l400 1278h262l401 -1278h-168l-351 1166h-25l-351 -1166h-168zM289 377v138h582v-138h-582zM414 1650l242 -247v-2h-156l-273 246v3h187z" />
    <glyph glyph-name="Aacute" unicode="&#xc1;" horiz-adv-x="1161" 
d="M49 0l400 1278h262l401 -1278h-168l-351 1166h-25l-351 -1166h-168zM289 377v138h582v-138h-582zM747 1650h188v-3l-273 -246h-156v2z" />
    <glyph glyph-name="Acircumflex" unicode="&#xc2;" horiz-adv-x="1161" 
d="M49 0l400 1278h262l401 -1278h-168l-351 1166h-25l-351 -1166h-168zM289 377v138h582v-138h-582zM495 1650h172l222 -247v-2h-139l-165 158h-8l-166 -158h-138v2z" />
    <glyph glyph-name="Atilde" unicode="&#xc3;" horiz-adv-x="1161" 
d="M49 0l400 1278h262l401 -1278h-168l-351 1166h-25l-351 -1166h-168zM289 377v138h582v-138h-582zM722 1422q-39 0 -75 11t-69.5 25.5t-63.5 26t-58 11.5q-31 0 -43.5 -18t-12.5 -53v-13h-104v30q0 78 32.5 124t112.5 46q39 0 75.5 -11t69.5 -26t63.5 -26t57.5 -11
q31 0 43 18t12 53v13h103v-31q0 -78 -32.5 -123.5t-110.5 -45.5z" />
    <glyph glyph-name="Adieresis" unicode="&#xc4;" horiz-adv-x="1161" 
d="M49 0l400 1278h262l401 -1278h-168l-351 1166h-25l-351 -1166h-168zM289 377v138h582v-138h-582zM428 1432q-43 0 -65 24.5t-22 69.5v7q0 45 22 69t65 24q45 0 66.5 -24t21.5 -69v-7q0 -45 -21.5 -69.5t-66.5 -24.5zM734 1432q-44 0 -65.5 24.5t-21.5 69.5v7
q0 45 21.5 69t65.5 24q43 0 64.5 -24t21.5 -69v-7q0 -45 -21.5 -69.5t-64.5 -24.5z" />
    <glyph glyph-name="Aring" unicode="&#xc5;" horiz-adv-x="1161" 
d="M49 0l400 1278h262l401 -1278h-168l-351 1166h-25l-351 -1166h-168zM289 377v138h582v-138h-582zM392 1526v3q0 75 48 119.5t141 44.5t140.5 -44.5t47.5 -119.5v-3q0 -74 -47.5 -119t-140.5 -45t-141 45t-48 119zM490 1526q0 -39 23.5 -60.5t67.5 -21.5q45 0 68 21.5
t23 60.5v3q0 39 -23 60.5t-68 21.5q-44 0 -67.5 -21.5t-23.5 -60.5v-3z" />
    <glyph glyph-name="AE" unicode="&#xc6;" horiz-adv-x="1748" 
d="M47 0l640 1278h194v-112h-81l-577 -1166h-176zM346 377v138h565v-138h-565zM902 0v139h748v-139h-748zM853 0v1278h164v-1278h-164zM947 583v138h681v-138h-681zM901 1139v139h742v-139h-742z" />
    <glyph glyph-name="Ccedilla" unicode="&#xc7;" horiz-adv-x="1015" 
d="M578 -23q-237 0 -355.5 133t-118.5 378v303q0 245 118 377.5t354 132.5q76 0 138.5 -14t111.5 -36t83 -46l14 -154q-59 42 -138.5 73.5t-186.5 31.5q-161 0 -243 -95.5t-82 -271.5v-295q0 -175 83 -271.5t248 -96.5q106 0 187.5 31t141.5 76l-14 -158q-34 -24 -84 -47
t-114.5 -37t-142.5 -14zM614 15l-20 -152l-69 48q14 0 30.5 0.5t32.5 -0.5q99 -5 147 -40.5t48 -104.5v-5q0 -75 -54.5 -111.5t-156.5 -36.5q-41 0 -79 6.5t-66 13.5l-19 102q31 -10 67.5 -16.5t76.5 -6.5q54 0 82 15t28 44v3q0 35 -35 49.5t-122 20.5q-9 1 -14.5 1h-8.5
l21 170h111z" />
    <glyph glyph-name="Egrave" unicode="&#xc8;" horiz-adv-x="1046" 
d="M151 0v1278h164v-1278h-164zM200 0v139h748v-139h-748zM245 583v138h682v-138h-682zM199 1139v139h743v-139h-743zM387 1650l242 -247v-2h-156l-273 246v3h187z" />
    <glyph glyph-name="Eacute" unicode="&#xc9;" horiz-adv-x="1046" 
d="M151 0v1278h164v-1278h-164zM200 0v139h748v-139h-748zM245 583v138h682v-138h-682zM199 1139v139h743v-139h-743zM721 1650h188v-3l-273 -246h-156v2z" />
    <glyph glyph-name="Ecircumflex" unicode="&#xca;" horiz-adv-x="1046" 
d="M151 0v1278h164v-1278h-164zM200 0v139h748v-139h-748zM245 583v138h682v-138h-682zM199 1139v139h743v-139h-743zM468 1650h172l222 -247v-2h-139l-165 158h-8l-166 -158h-138v2z" />
    <glyph glyph-name="Edieresis" unicode="&#xcb;" horiz-adv-x="1046" 
d="M151 0v1278h164v-1278h-164zM200 0v139h748v-139h-748zM245 583v138h682v-138h-682zM199 1139v139h743v-139h-743zM401 1432q-43 0 -65 24.5t-22 69.5v7q0 45 22 69t65 24q45 0 66.5 -24t21.5 -69v-7q0 -45 -21.5 -69.5t-66.5 -24.5zM707 1432q-44 0 -65.5 24.5
t-21.5 69.5v7q0 45 21.5 69t65.5 24q43 0 64.5 -24t21.5 -69v-7q0 -45 -21.5 -69.5t-64.5 -24.5z" />
    <glyph glyph-name="Igrave" unicode="&#xcc;" horiz-adv-x="472" 
d="M319 0h-166v1278h166v-1278zM68 1650l242 -247v-2h-156l-273 246v3h187z" />
    <glyph glyph-name="Iacute" unicode="&#xcd;" horiz-adv-x="472" 
d="M319 0h-166v1278h166v-1278zM402 1650h188v-3l-273 -246h-156v2z" />
    <glyph glyph-name="Icircumflex" unicode="&#xce;" horiz-adv-x="472" 
d="M319 0h-166v1278h166v-1278zM150 1650h172l222 -247v-2h-139l-165 158h-8l-166 -158h-138v2z" />
    <glyph glyph-name="Idieresis" unicode="&#xcf;" horiz-adv-x="472" 
d="M319 0h-166v1278h166v-1278zM83 1432q-43 0 -65 24.5t-22 69.5v7q0 45 22 69t65 24q45 0 66.5 -24t21.5 -69v-7q0 -45 -21.5 -69.5t-66.5 -24.5zM389 1432q-44 0 -65.5 24.5t-21.5 69.5v7q0 45 21.5 69t65.5 24q43 0 64.5 -24t21.5 -69v-7q0 -45 -21.5 -69.5t-64.5 -24.5
z" />
    <glyph glyph-name="Eth" unicode="&#xd0;" horiz-adv-x="1183" 
d="M7 595v125h622v-125h-622zM263 0v140h310q170 0 255.5 92.5t85.5 264.5v285q0 173 -85.5 265t-255.5 92h-311v139h317q248 0 375 -127.5t127 -367.5v-287q0 -239 -127 -367.5t-375 -128.5h-316zM151 0v1278h164v-1278h-164z" />
    <glyph glyph-name="Ntilde" unicode="&#xd1;" horiz-adv-x="1240" 
d="M403 1278l519 -1100h12l-7 558v542h162v-1278h-246l-525 1109h-12l7 -584v-525h-162v1278h252zM763 1422q-39 0 -75 11t-69.5 25.5t-63.5 26t-58 11.5q-31 0 -43.5 -18t-12.5 -53v-13h-104v30q0 78 32.5 124t112.5 46q39 0 75.5 -11t69.5 -26t63.5 -26t57.5 -11
q31 0 43 18t12 53v13h103v-31q0 -78 -32.5 -123.5t-110.5 -45.5z" />
    <glyph glyph-name="Ograve" unicode="&#xd2;" horiz-adv-x="1197" 
d="M598 -24q-242 0 -368 133.5t-126 382.5v295q0 248 126 381.5t368 133.5t368 -133.5t126 -381.5v-295q0 -249 -126 -382.5t-368 -133.5zM598 115q162 0 244 96.5t82 273.5v309q0 177 -82 273t-244 96q-161 0 -243 -96t-82 -273v-309q0 -177 82 -273.5t243 -96.5zM431 1650
l242 -247v-2h-156l-273 246v3h187z" />
    <glyph glyph-name="Oacute" unicode="&#xd3;" horiz-adv-x="1197" 
d="M598 -24q-242 0 -368 133.5t-126 382.5v295q0 248 126 381.5t368 133.5t368 -133.5t126 -381.5v-295q0 -249 -126 -382.5t-368 -133.5zM598 115q162 0 244 96.5t82 273.5v309q0 177 -82 273t-244 96q-161 0 -243 -96t-82 -273v-309q0 -177 82 -273.5t243 -96.5zM765 1650
h188v-3l-273 -246h-156v2z" />
    <glyph glyph-name="Ocircumflex" unicode="&#xd4;" horiz-adv-x="1197" 
d="M598 -24q-242 0 -368 133.5t-126 382.5v295q0 248 126 381.5t368 133.5t368 -133.5t126 -381.5v-295q0 -249 -126 -382.5t-368 -133.5zM598 115q162 0 244 96.5t82 273.5v309q0 177 -82 273t-244 96q-161 0 -243 -96t-82 -273v-309q0 -177 82 -273.5t243 -96.5zM513 1650
h172l222 -247v-2h-139l-165 158h-8l-166 -158h-138v2z" />
    <glyph glyph-name="Otilde" unicode="&#xd5;" horiz-adv-x="1197" 
d="M598 -24q-242 0 -368 133.5t-126 382.5v295q0 248 126 381.5t368 133.5t368 -133.5t126 -381.5v-295q0 -249 -126 -382.5t-368 -133.5zM598 115q162 0 244 96.5t82 273.5v309q0 177 -82 273t-244 96q-161 0 -243 -96t-82 -273v-309q0 -177 82 -273.5t243 -96.5zM739 1422
q-39 0 -75 11t-69.5 25.5t-63.5 26t-58 11.5q-31 0 -43.5 -18t-12.5 -53v-13h-104v30q0 78 32.5 124t112.5 46q39 0 75.5 -11t69.5 -26t63.5 -26t57.5 -11q31 0 43 18t12 53v13h103v-31q0 -78 -32.5 -123.5t-110.5 -45.5z" />
    <glyph glyph-name="Odieresis" unicode="&#xd6;" horiz-adv-x="1197" 
d="M598 -24q-242 0 -368 133.5t-126 382.5v295q0 248 126 381.5t368 133.5t368 -133.5t126 -381.5v-295q0 -249 -126 -382.5t-368 -133.5zM598 115q162 0 244 96.5t82 273.5v309q0 177 -82 273t-244 96q-161 0 -243 -96t-82 -273v-309q0 -177 82 -273.5t243 -96.5zM446 1432
q-43 0 -65 24.5t-22 69.5v7q0 45 22 69t65 24q45 0 66.5 -24t21.5 -69v-7q0 -45 -21.5 -69.5t-66.5 -24.5zM752 1432q-44 0 -65.5 24.5t-21.5 69.5v7q0 45 21.5 69t65.5 24q43 0 64.5 -24t21.5 -69v-7q0 -45 -21.5 -69.5t-64.5 -24.5z" />
    <glyph glyph-name="multiply" unicode="&#xd7;" horiz-adv-x="960" 
d="M858 322l-95 -85l-655 682l94 85zM102 322l656 682l94 -85l-655 -682z" />
    <glyph glyph-name="Oslash" unicode="&#xd8;" horiz-adv-x="1197" 
d="M598 -24q-158 0 -268 61.5t-168 177.5t-58 277v295q0 248 126 381.5t368 133.5q158 0 268 -61.5t168 -177t58 -276.5v-295q0 -249 -126 -382.5t-368 -133.5zM117 -68l137 221l37 49l536 969l17 36l84 139h152l-136 -215l-35 -51l-532 -963l-14 -25l-94 -160h-152z
M598 115q162 0 244 96.5t82 273.5v309q0 177 -79.5 273t-246.5 96q-161 0 -243 -96t-82 -273v-309q0 -177 78.5 -273.5t246.5 -96.5z" />
    <glyph glyph-name="Ugrave" unicode="&#xd9;" horiz-adv-x="1220" 
d="M610 -24q-240 0 -354.5 123.5t-114.5 359.5v819h166v-823q0 -164 72 -250.5t231 -86.5q160 0 231.5 86.5t71.5 250.5v823h166v-819q0 -236 -114 -359.5t-355 -123.5zM443 1650l242 -247v-2h-156l-273 246v3h187z" />
    <glyph glyph-name="Uacute" unicode="&#xda;" horiz-adv-x="1220" 
d="M610 -24q-240 0 -354.5 123.5t-114.5 359.5v819h166v-823q0 -164 72 -250.5t231 -86.5q160 0 231.5 86.5t71.5 250.5v823h166v-819q0 -236 -114 -359.5t-355 -123.5zM776 1650h188v-3l-273 -246h-156v2z" />
    <glyph glyph-name="Ucircumflex" unicode="&#xdb;" horiz-adv-x="1220" 
d="M610 -24q-240 0 -354.5 123.5t-114.5 359.5v819h166v-823q0 -164 72 -250.5t231 -86.5q160 0 231.5 86.5t71.5 250.5v823h166v-819q0 -236 -114 -359.5t-355 -123.5zM524 1650h172l222 -247v-2h-139l-165 158h-8l-166 -158h-138v2z" />
    <glyph glyph-name="Udieresis" unicode="&#xdc;" horiz-adv-x="1220" 
d="M610 -24q-240 0 -354.5 123.5t-114.5 359.5v819h166v-823q0 -164 72 -250.5t231 -86.5q160 0 231.5 86.5t71.5 250.5v823h166v-819q0 -236 -114 -359.5t-355 -123.5zM457 1432q-43 0 -65 24.5t-22 69.5v7q0 45 22 69t65 24q45 0 66.5 -24t21.5 -69v-7q0 -45 -21.5 -69.5
t-66.5 -24.5zM763 1432q-44 0 -65.5 24.5t-21.5 69.5v7q0 45 21.5 69t65.5 24q43 0 64.5 -24t21.5 -69v-7q0 -45 -21.5 -69.5t-64.5 -24.5z" />
    <glyph glyph-name="Yacute" unicode="&#xdd;" horiz-adv-x="1096" 
d="M477 384l-439 894h175l235 -489l94 -212h13l94 212l234 489h176l-439 -894h-143zM467 0v539h163v-539h-163zM715 1650h188v-3l-273 -246h-156v2z" />
    <glyph glyph-name="Thorn" unicode="&#xde;" horiz-adv-x="1121" 
d="M259 216v138h363q131 0 190 65.5t59 180.5v87q0 117 -58.5 181t-188.5 64h-366v137h369q214 0 311.5 -100.5t97.5 -276.5v-96q0 -178 -98.5 -279t-311.5 -101h-367zM151 0v1278h163v-243v-62v-670v-44v-259h-163z" />
    <glyph glyph-name="germandbls" unicode="&#xdf;" horiz-adv-x="1135" 
d="M132 985q0 119 38.5 200.5t123 124t223.5 42.5q113 0 194 -31.5t125 -90t44 -142.5q0 -59 -24 -102.5t-59.5 -78.5t-70.5 -66t-59 -63.5t-24 -72.5v-4q0 -55 38.5 -84.5t131.5 -63.5q85 -31 138.5 -65t79.5 -84.5t26 -130.5v-14q0 -92 -40 -154t-114.5 -93t-179.5 -31
q-77 0 -135.5 14t-103.5 32l-14 147q57 -25 114.5 -41t123.5 -16q96 0 143.5 37t47.5 107v11q0 44 -16 74t-55.5 54t-108.5 49q-83 31 -135.5 62.5t-76 73.5t-23.5 106v6q0 57 23.5 100t58.5 78.5t70 68t59 66t24 74.5q0 40 -22 71t-67 49t-115 18q-84 0 -133 -28.5
t-69.5 -82.5t-20.5 -131v-980h-160v985z" />
    <glyph glyph-name="agrave" unicode="&#xe0;" horiz-adv-x="988" 
d="M711 0l7 237l-6 25v311l1 57q0 119 -60.5 176t-191.5 57q-105 0 -192.5 -30t-155.5 -70l15 138q38 23 90.5 45.5t120 37.5t148.5 15q105 0 178.5 -25.5t119 -73.5t66.5 -116t21 -152v-632h-161zM375 -21q-145 0 -222.5 70.5t-77.5 201.5v29q0 135 83.5 201.5t265.5 92.5
l309 44l9 -118l-298 -43q-112 -16 -160 -54.5t-48 -113.5v-16q0 -77 47.5 -118t142.5 -41q84 0 144 29t97 78t50 109l25 -110h-31q-14 -64 -52.5 -119t-107.5 -88.5t-176 -33.5zM363 1366l194 -267v-2h-144l-230 266v3h180z" />
    <glyph glyph-name="aacute" unicode="&#xe1;" horiz-adv-x="988" 
d="M711 0l7 237l-6 25v311l1 57q0 119 -60.5 176t-191.5 57q-105 0 -192.5 -30t-155.5 -70l15 138q38 23 90.5 45.5t120 37.5t148.5 15q105 0 178.5 -25.5t119 -73.5t66.5 -116t21 -152v-632h-161zM375 -21q-145 0 -222.5 70.5t-77.5 201.5v29q0 135 83.5 201.5t265.5 92.5
l309 44l9 -118l-298 -43q-112 -16 -160 -54.5t-48 -113.5v-16q0 -77 47.5 -118t142.5 -41q84 0 144 29t97 78t50 109l25 -110h-31q-14 -64 -52.5 -119t-107.5 -88.5t-176 -33.5zM610 1366h180v-3l-230 -266h-144v2z" />
    <glyph glyph-name="acircumflex" unicode="&#xe2;" horiz-adv-x="988" 
d="M711 0l7 237l-6 25v311l1 57q0 119 -60.5 176t-191.5 57q-105 0 -192.5 -30t-155.5 -70l15 138q38 23 90.5 45.5t120 37.5t148.5 15q105 0 178.5 -25.5t119 -73.5t66.5 -116t21 -152v-632h-161zM375 -21q-145 0 -222.5 70.5t-77.5 201.5v29q0 135 83.5 201.5t265.5 92.5
l309 44l9 -118l-298 -43q-112 -16 -160 -54.5t-48 -113.5v-16q0 -77 47.5 -118t142.5 -41q84 0 144 29t97 78t50 109l25 -110h-31q-14 -64 -52.5 -119t-107.5 -88.5t-176 -33.5zM399 1366h175l191 -267v-2h-129l-146 178h-7l-146 -178h-129v2z" />
    <glyph glyph-name="atilde" unicode="&#xe3;" horiz-adv-x="988" 
d="M711 0l7 237l-6 25v311l1 57q0 119 -60.5 176t-191.5 57q-105 0 -192.5 -30t-155.5 -70l15 138q38 23 90.5 45.5t120 37.5t148.5 15q105 0 178.5 -25.5t119 -73.5t66.5 -116t21 -152v-632h-161zM375 -21q-145 0 -222.5 70.5t-77.5 201.5v29q0 135 83.5 201.5t265.5 92.5
l309 44l9 -118l-298 -43q-112 -16 -160 -54.5t-48 -113.5v-16q0 -77 47.5 -118t142.5 -41q84 0 144 29t97 78t50 109l25 -110h-31q-14 -64 -52.5 -119t-107.5 -88.5t-176 -33.5zM617 1124q-36 0 -69.5 12t-65 28.5t-60 28.5t-53.5 12q-29 0 -41.5 -18.5t-12.5 -55.5v-17
h-104v33q0 82 33 128t111 46q37 0 71 -12.5t65 -28t59 -28t53 -12.5q30 0 42 18.5t12 56.5v16h104v-33q0 -83 -33 -128.5t-111 -45.5z" />
    <glyph glyph-name="adieresis" unicode="&#xe4;" horiz-adv-x="988" 
d="M711 0l7 237l-6 25v311l1 57q0 119 -60.5 176t-191.5 57q-105 0 -192.5 -30t-155.5 -70l15 138q38 23 90.5 45.5t120 37.5t148.5 15q105 0 178.5 -25.5t119 -73.5t66.5 -116t21 -152v-632h-161zM375 -21q-145 0 -222.5 70.5t-77.5 201.5v29q0 135 83.5 201.5t265.5 92.5
l309 44l9 -118l-298 -43q-112 -16 -160 -54.5t-48 -113.5v-16q0 -77 47.5 -118t142.5 -41q84 0 144 29t97 78t50 109l25 -110h-31q-14 -64 -52.5 -119t-107.5 -88.5t-176 -33.5zM333 1135q-43 0 -65 24.5t-22 69.5v7q0 45 22 69t65 24q45 0 66.5 -24t21.5 -69v-7
q0 -45 -21.5 -69.5t-66.5 -24.5zM639 1135q-44 0 -65.5 24.5t-21.5 69.5v7q0 45 21.5 69t65.5 24q43 0 64.5 -24t21.5 -69v-7q0 -45 -21.5 -69.5t-64.5 -24.5z" />
    <glyph glyph-name="aring" unicode="&#xe5;" horiz-adv-x="988" 
d="M711 0l7 237l-6 25v311l1 57q0 119 -60.5 176t-191.5 57q-105 0 -192.5 -30t-155.5 -70l15 138q38 23 90.5 45.5t120 37.5t148.5 15q105 0 178.5 -25.5t119 -73.5t66.5 -116t21 -152v-632h-161zM375 -21q-145 0 -222.5 70.5t-77.5 201.5v29q0 135 83.5 201.5t265.5 92.5
l309 44l9 -118l-298 -43q-112 -16 -160 -54.5t-48 -113.5v-16q0 -77 47.5 -118t142.5 -41q84 0 144 29t97 78t50 109l25 -110h-31q-14 -64 -52.5 -119t-107.5 -88.5t-176 -33.5zM297 1248v3q0 75 48 119.5t141 44.5t140.5 -44.5t47.5 -119.5v-3q0 -74 -47.5 -119t-140.5 -45
t-141 45t-48 119zM395 1248q0 -39 23.5 -60.5t67.5 -21.5q45 0 68 21.5t23 60.5v3q0 39 -23 60.5t-68 21.5q-44 0 -67.5 -21.5t-23.5 -60.5v-3z" />
    <glyph glyph-name="ae" unicode="&#xe6;" horiz-adv-x="1618" 
d="M1161 -22q-182 0 -289 75t-138 209l-16 33q-4 51 -5.5 100.5t-0.5 104.5l1 122q0 122 -63.5 181.5t-189.5 59.5q-105 0 -192 -30t-155 -70l15 138q37 23 87 45.5t114.5 37.5t140.5 15q142 0 219.5 -63t99.5 -172h2q29 108 118.5 173t234.5 65q129 0 215.5 -50.5
t130.5 -143.5t44 -222v-36q0 -32 -2.5 -64t-6.5 -63h-149q2 48 2.5 90.5t0.5 79.5q0 89 -28.5 150.5t-84.5 94t-140 32.5q-127 0 -190 -74.5t-63 -207.5v-95v-20v-84q0 -62 18 -112.5t56.5 -86.5t98 -55.5t141.5 -19.5q95 0 176.5 25t154.5 68l-15 -140
q-65 -41 -151.5 -65.5t-190.5 -24.5zM383 -21q-151 0 -229.5 71t-78.5 201v29q0 135 84.5 201.5t264.5 92.5l309 44l9 -118l-298 -43q-112 -16 -160 -54.5t-48 -113.5v-16q0 -77 48 -118t143 -41q84 0 144.5 28t98.5 77.5t51 109.5l53 -106h-29q-20 -68 -63.5 -123.5
t-116.5 -88t-182 -32.5zM797 423v123h694v-123h-694z" />
    <glyph glyph-name="ccedilla" unicode="&#xe7;" horiz-adv-x="868" 
d="M508 -22q-210 0 -312.5 113.5t-102.5 321.5v152q0 209 103 321.5t312 112.5q62 0 113 -11.5t91.5 -30t68.5 -38.5l14 -141q-47 36 -111.5 61t-151.5 25q-140 0 -208.5 -77.5t-68.5 -225.5v-144q0 -145 68.5 -223t208.5 -78q90 0 155.5 25t116.5 61l-15 -143
q-44 -30 -115 -55.5t-166 -25.5zM543 17l-20 -152l-69 48q14 0 30.5 0.5t32.5 -0.5q99 -5 147 -40.5t48 -104.5v-5q0 -75 -54.5 -111.5t-156.5 -36.5q-41 0 -79 6.5t-66 13.5l-19 102q31 -10 67.5 -16.5t76.5 -6.5q54 0 82 15t28 44v3q0 35 -35 49.5t-122 20.5q-9 1 -14.5 1
h-8.5l21 170h111z" />
    <glyph glyph-name="egrave" unicode="&#xe8;" horiz-adv-x="999" 
d="M542 -22q-223 0 -336 109t-113 312v174q0 206 105 317.5t307 111.5q136 0 227 -50.5t137 -143.5t46 -222v-36q0 -32 -2.5 -64t-6.5 -63h-149q2 48 2.5 91t0.5 79q0 89 -28.5 150.5t-85 94t-141.5 32.5q-126 0 -189 -73t-63 -209v-93l1 -20v-93q0 -61 18 -110t56.5 -84.5
t98 -54t141.5 -18.5q95 0 177 25t154 68l-15 -140q-65 -41 -151 -65.5t-191 -24.5zM178 423v122h694v-122h-694zM386 1366l194 -267v-2h-144l-230 266v3h180z" />
    <glyph glyph-name="eacute" unicode="&#xe9;" horiz-adv-x="999" 
d="M542 -22q-223 0 -336 109t-113 312v174q0 206 105 317.5t307 111.5q136 0 227 -50.5t137 -143.5t46 -222v-36q0 -32 -2.5 -64t-6.5 -63h-149q2 48 2.5 91t0.5 79q0 89 -28.5 150.5t-85 94t-141.5 32.5q-126 0 -189 -73t-63 -209v-93l1 -20v-93q0 -61 18 -110t56.5 -84.5
t98 -54t141.5 -18.5q95 0 177 25t154 68l-15 -140q-65 -41 -151 -65.5t-191 -24.5zM178 423v122h694v-122h-694zM632 1366h180v-3l-230 -266h-144v2z" />
    <glyph glyph-name="ecircumflex" unicode="&#xea;" horiz-adv-x="999" 
d="M542 -22q-223 0 -336 109t-113 312v174q0 206 105 317.5t307 111.5q136 0 227 -50.5t137 -143.5t46 -222v-36q0 -32 -2.5 -64t-6.5 -63h-149q2 48 2.5 91t0.5 79q0 89 -28.5 150.5t-85 94t-141.5 32.5q-126 0 -189 -73t-63 -209v-93l1 -20v-93q0 -61 18 -110t56.5 -84.5
t98 -54t141.5 -18.5q95 0 177 25t154 68l-15 -140q-65 -41 -151 -65.5t-191 -24.5zM178 423v122h694v-122h-694zM421 1366h175l191 -267v-2h-129l-146 178h-7l-146 -178h-129v2z" />
    <glyph glyph-name="edieresis" unicode="&#xeb;" horiz-adv-x="999" 
d="M542 -22q-223 0 -336 109t-113 312v174q0 206 105 317.5t307 111.5q136 0 227 -50.5t137 -143.5t46 -222v-36q0 -32 -2.5 -64t-6.5 -63h-149q2 48 2.5 91t0.5 79q0 89 -28.5 150.5t-85 94t-141.5 32.5q-126 0 -189 -73t-63 -209v-93l1 -20v-93q0 -61 18 -110t56.5 -84.5
t98 -54t141.5 -18.5q95 0 177 25t154 68l-15 -140q-65 -41 -151 -65.5t-191 -24.5zM178 423v122h694v-122h-694zM356 1135q-43 0 -65 24.5t-22 69.5v7q0 45 22 69t65 24q45 0 66.5 -24t21.5 -69v-7q0 -45 -21.5 -69.5t-66.5 -24.5zM662 1135q-44 0 -65.5 24.5t-21.5 69.5v7
q0 45 21.5 69t65.5 24q43 0 64.5 -24t21.5 -69v-7q0 -45 -21.5 -69.5t-64.5 -24.5z" />
    <glyph glyph-name="igrave" unicode="&#xec;" horiz-adv-x="432" 
d="M136 0v976h162v-976h-162zM170 1366l111 -268v-1h-134l-143 268v1h166z" />
    <glyph glyph-name="iacute" unicode="&#xed;" horiz-adv-x="432" 
d="M136 0v976h162v-976h-162zM264 1366h166v-1l-144 -268h-133v1z" />
    <glyph glyph-name="icircumflex" unicode="&#xee;" horiz-adv-x="432" 
d="M136 0v976h162v-976h-162zM131 1366h171l153 -268v-1h-124l-111 177h-7l-111 -177h-123v1z" />
    <glyph glyph-name="idieresis" unicode="&#xef;" horiz-adv-x="432" 
d="M136 0v976h162v-976h-162zM89 1135q-42 0 -62.5 24t-20.5 69v8q0 45 20.5 69t62.5 24t63 -24t21 -69v-8q0 -45 -21 -69t-63 -24zM346 1135q-43 0 -63.5 24t-20.5 69v8q0 45 20.5 69t63.5 24q41 0 62 -24t21 -69v-8q0 -45 -21 -69t-62 -24z" />
    <glyph glyph-name="eth" unicode="&#xf0;" horiz-adv-x="1040" 
d="M520 -25q-210 0 -318.5 113.5t-108.5 326.5v74q0 203 101.5 316t276.5 113q77 0 135 -23t96 -66t56 -102l42 10l-15 -236q-1 70 -20 124t-53.5 90t-84 55t-111.5 19q-128 0 -194.5 -76.5t-66.5 -220.5v-86q0 -145 68 -222t197 -77q130 0 197.5 77t67.5 222v71v77
q-1 40 -1 66t-1 62q-11 82 -50.5 155t-107.5 147t-165 157t-222 183v1h206q119 -101 212.5 -190t158 -178t98.5 -192.5t34 -233.5v-115q0 -214 -108.5 -327.5t-318.5 -113.5zM203 995v107l692 174v-106z" />
    <glyph glyph-name="ntilde" unicode="&#xf1;" horiz-adv-x="1066" 
d="M785 0v607q0 79 -21.5 136t-70 88.5t-132.5 31.5q-77 0 -133.5 -29t-91.5 -78.5t-49 -112.5l-29 115h35q16 66 56 120.5t107.5 87t165.5 32.5q116 0 187.5 -44t104.5 -126.5t33 -202.5v-625h-162zM132 0v976h162l-7 -234l7 -9v-733h-162zM665 1124q-36 0 -69.5 12
t-65 28.5t-60 28.5t-53.5 12q-29 0 -41.5 -18.5t-12.5 -55.5v-17h-104v33q0 82 33 128t111 46q37 0 71 -12.5t65 -28t59 -28t53 -12.5q30 0 42 18.5t12 56.5v16h104v-33q0 -83 -33 -128.5t-111 -45.5z" />
    <glyph glyph-name="ograve" unicode="&#xf2;" horiz-adv-x="1040" 
d="M520 -25q-210 0 -318.5 113.5t-108.5 326.5v149q0 212 109 325t318 113q210 0 318.5 -113t108.5 -325v-149q0 -213 -108.5 -326.5t-318.5 -113.5zM520 107q130 0 197.5 77t67.5 222v167q0 144 -67.5 220.5t-197.5 76.5q-129 0 -197 -76.5t-68 -220.5v-167q0 -145 68 -222
t197 -77zM397 1366l194 -267v-2h-144l-230 266v3h180z" />
    <glyph glyph-name="oacute" unicode="&#xf3;" horiz-adv-x="1040" 
d="M520 -25q-210 0 -318.5 113.5t-108.5 326.5v149q0 212 109 325t318 113q210 0 318.5 -113t108.5 -325v-149q0 -213 -108.5 -326.5t-318.5 -113.5zM520 107q130 0 197.5 77t67.5 222v167q0 144 -67.5 220.5t-197.5 76.5q-129 0 -197 -76.5t-68 -220.5v-167q0 -145 68 -222
t197 -77zM644 1366h180v-3l-230 -266h-144v2z" />
    <glyph glyph-name="ocircumflex" unicode="&#xf4;" horiz-adv-x="1040" 
d="M520 -25q-210 0 -318.5 113.5t-108.5 326.5v149q0 212 109 325t318 113q210 0 318.5 -113t108.5 -325v-149q0 -213 -108.5 -326.5t-318.5 -113.5zM520 107q130 0 197.5 77t67.5 222v167q0 144 -67.5 220.5t-197.5 76.5q-129 0 -197 -76.5t-68 -220.5v-167q0 -145 68 -222
t197 -77zM433 1366h175l191 -267v-2h-129l-146 178h-7l-146 -178h-129v2z" />
    <glyph glyph-name="otilde" unicode="&#xf5;" horiz-adv-x="1040" 
d="M520 -25q-210 0 -318.5 113.5t-108.5 326.5v149q0 212 109 325t318 113q210 0 318.5 -113t108.5 -325v-149q0 -213 -108.5 -326.5t-318.5 -113.5zM520 107q130 0 197.5 77t67.5 222v167q0 144 -67.5 220.5t-197.5 76.5q-129 0 -197 -76.5t-68 -220.5v-167q0 -145 68 -222
t197 -77zM651 1124q-36 0 -69.5 12t-65 28.5t-60 28.5t-53.5 12q-29 0 -41.5 -18.5t-12.5 -55.5v-17h-104v33q0 82 33 128t111 46q37 0 71 -12.5t65 -28t59 -28t53 -12.5q30 0 42 18.5t12 56.5v16h104v-33q0 -83 -33 -128.5t-111 -45.5z" />
    <glyph glyph-name="odieresis" unicode="&#xf6;" horiz-adv-x="1040" 
d="M520 -25q-210 0 -318.5 113.5t-108.5 326.5v149q0 212 109 325t318 113q210 0 318.5 -113t108.5 -325v-149q0 -213 -108.5 -326.5t-318.5 -113.5zM520 107q130 0 197.5 77t67.5 222v167q0 144 -67.5 220.5t-197.5 76.5q-129 0 -197 -76.5t-68 -220.5v-167q0 -145 68 -222
t197 -77zM367 1135q-43 0 -65 24.5t-22 69.5v7q0 45 22 69t65 24q45 0 66.5 -24t21.5 -69v-7q0 -45 -21.5 -69.5t-66.5 -24.5zM673 1135q-44 0 -65.5 24.5t-21.5 69.5v7q0 45 21.5 69t65.5 24q43 0 64.5 -24t21.5 -69v-7q0 -45 -21.5 -69.5t-64.5 -24.5z" />
    <glyph glyph-name="divide" unicode="&#xf7;" horiz-adv-x="1001" 
d="M104 556v132h794v-132h-794zM505 174q-47 0 -69.5 26t-22.5 73v9q0 47 22.5 72.5t69.5 25.5t69.5 -25.5t22.5 -72.5v-9q0 -47 -22.5 -73t-69.5 -26zM505 864q-47 0 -69.5 26.5t-22.5 73.5v9q0 47 22.5 72.5t69.5 25.5t69.5 -25.5t22.5 -72.5v-9q0 -47 -22.5 -73.5
t-69.5 -26.5z" />
    <glyph glyph-name="oslash" unicode="&#xf8;" horiz-adv-x="1040" 
d="M520 -25q-140 0 -235 51t-143.5 149.5t-48.5 239.5v149q0 212 109 325t318 113q140 0 235 -50.5t143.5 -148t48.5 -239.5v-149q0 -213 -108.5 -326.5t-318.5 -113.5zM113 -68l120 187l36 48l425 725l22 37l71 116h139l-113 -174l-36 -50l-422 -722l-23 -42l-78 -125h-141
zM520 107q130 0 197.5 77t67.5 222v167q0 144 -67.5 220.5t-197.5 76.5q-129 0 -197 -76.5t-68 -220.5v-167q0 -145 68 -222t197 -77z" />
    <glyph glyph-name="ugrave" unicode="&#xf9;" horiz-adv-x="1066" 
d="M281 976v-607q0 -77 21.5 -134.5t70.5 -89t132 -31.5q78 0 134 28.5t91.5 78.5t48.5 113l29 -115h-35q-15 -66 -55 -120.5t-107.5 -87t-166.5 -32.5q-115 0 -186.5 43.5t-104.5 127t-33 201.5v625h161zM934 976v-976h-162l7 234l-7 10v732h162zM410 1366l194 -267v-2
h-144l-230 266v3h180z" />
    <glyph glyph-name="uacute" unicode="&#xfa;" horiz-adv-x="1066" 
d="M281 976v-607q0 -77 21.5 -134.5t70.5 -89t132 -31.5q78 0 134 28.5t91.5 78.5t48.5 113l29 -115h-35q-15 -66 -55 -120.5t-107.5 -87t-166.5 -32.5q-115 0 -186.5 43.5t-104.5 127t-33 201.5v625h161zM934 976v-976h-162l7 234l-7 10v732h162zM656 1366h180v-3
l-230 -266h-144v2z" />
    <glyph glyph-name="ucircumflex" unicode="&#xfb;" horiz-adv-x="1066" 
d="M281 976v-607q0 -77 21.5 -134.5t70.5 -89t132 -31.5q78 0 134 28.5t91.5 78.5t48.5 113l29 -115h-35q-15 -66 -55 -120.5t-107.5 -87t-166.5 -32.5q-115 0 -186.5 43.5t-104.5 127t-33 201.5v625h161zM934 976v-976h-162l7 234l-7 10v732h162zM445 1366h175l191 -267v-2
h-129l-146 178h-7l-146 -178h-129v2z" />
    <glyph glyph-name="udieresis" unicode="&#xfc;" horiz-adv-x="1066" 
d="M281 976v-607q0 -77 21.5 -134.5t70.5 -89t132 -31.5q78 0 134 28.5t91.5 78.5t48.5 113l29 -115h-35q-15 -66 -55 -120.5t-107.5 -87t-166.5 -32.5q-115 0 -186.5 43.5t-104.5 127t-33 201.5v625h161zM934 976v-976h-162l7 234l-7 10v732h162zM380 1135q-43 0 -65 24.5
t-22 69.5v7q0 45 22 69t65 24q45 0 66.5 -24t21.5 -69v-7q0 -45 -21.5 -69.5t-66.5 -24.5zM686 1135q-44 0 -65.5 24.5t-21.5 69.5v7q0 45 21.5 69t65.5 24q43 0 64.5 -24t21.5 -69v-7q0 -45 -21.5 -69.5t-64.5 -24.5z" />
    <glyph glyph-name="yacute" unicode="&#xfd;" horiz-adv-x="988" 
d="M571 151l-85 -37l292 862h167l-459 -1320h-164l154 446l71 -62h-184l-319 936h168l266 -825h93zM618 1366h180v-3l-230 -266h-144v2z" />
    <glyph glyph-name="thorn" unicode="&#xfe;" horiz-adv-x="1074" 
d="M613 -21q-90 0 -156 30t-107 86t-55 130h-53l47 152q4 -88 39.5 -146.5t96.5 -87.5t138 -29q123 0 188.5 72t65.5 211v187q0 138 -65 210t-189 72q-74 0 -131 -29t-94.5 -79t-51.5 -114l-40 113h49q15 67 53.5 121.5t105.5 87t166 32.5q176 0 268 -109.5t92 -317.5v-162
q0 -210 -92.5 -320t-274.5 -110zM132 -344v1669h161v-344l-5 -240l1 -54v-406l-1 -34l5 -274v-317h-161z" />
    <glyph glyph-name="ydieresis" unicode="&#xff;" horiz-adv-x="988" 
d="M571 151l-85 -37l292 862h167l-459 -1320h-164l154 446l71 -62h-184l-319 936h168l266 -825h93zM342 1135q-43 0 -65 24.5t-22 69.5v7q0 45 22 69t65 24q45 0 66.5 -24t21.5 -69v-7q0 -45 -21.5 -69.5t-66.5 -24.5zM648 1135q-44 0 -65.5 24.5t-21.5 69.5v7q0 45 21.5 69
t65.5 24q43 0 64.5 -24t21.5 -69v-7q0 -45 -21.5 -69.5t-64.5 -24.5z" />
    <glyph glyph-name="Amacron" unicode="&#x100;" horiz-adv-x="1161" 
d="M49 0l400 1278h262l401 -1278h-168l-351 1166h-25l-351 -1166h-168zM289 377v138h582v-138h-582zM305 1459v111h549v-111h-549z" />
    <glyph glyph-name="amacron" unicode="&#x101;" horiz-adv-x="988" 
d="M711 0l7 237l-6 25v311l1 57q0 119 -60.5 176t-191.5 57q-105 0 -192.5 -30t-155.5 -70l15 138q38 23 90.5 45.5t120 37.5t148.5 15q105 0 178.5 -25.5t119 -73.5t66.5 -116t21 -152v-632h-161zM375 -21q-145 0 -222.5 70.5t-77.5 201.5v29q0 135 83.5 201.5t265.5 92.5
l309 44l9 -118l-298 -43q-112 -16 -160 -54.5t-48 -113.5v-16q0 -77 47.5 -118t142.5 -41q84 0 144 29t97 78t50 109l25 -110h-31q-14 -64 -52.5 -119t-107.5 -88.5t-176 -33.5zM211 1161v111h549v-111h-549z" />
    <glyph glyph-name="Abreve" unicode="&#x102;" horiz-adv-x="1161" 
d="M49 0l400 1278h262l401 -1278h-168l-351 1166h-25l-351 -1166h-168zM289 377v138h582v-138h-582zM581 1395q-135 0 -197.5 66t-64.5 189h112q3 -73 40 -111t110 -38t110 38t41 111h111q-2 -123 -64 -189t-198 -66z" />
    <glyph glyph-name="abreve" unicode="&#x103;" horiz-adv-x="988" 
d="M711 0l7 237l-6 25v311l1 57q0 119 -60.5 176t-191.5 57q-105 0 -192.5 -30t-155.5 -70l15 138q38 23 90.5 45.5t120 37.5t148.5 15q105 0 178.5 -25.5t119 -73.5t66.5 -116t21 -152v-632h-161zM375 -21q-145 0 -222.5 70.5t-77.5 201.5v29q0 135 83.5 201.5t265.5 92.5
l309 44l9 -118l-298 -43q-112 -16 -160 -54.5t-48 -113.5v-16q0 -77 47.5 -118t142.5 -41q84 0 144 29t97 78t50 109l25 -110h-31q-14 -64 -52.5 -119t-107.5 -88.5t-176 -33.5zM486 1089q-133 0 -194.5 71.5t-63.5 205.5h112q3 -85 38.5 -128t107.5 -43t107.5 43t39.5 128
h112q-2 -134 -63 -205.5t-196 -71.5z" />
    <glyph glyph-name="Aogonek" unicode="&#x104;" horiz-adv-x="1161" 
d="M49 0l400 1278h262l401 -1278h-168l-351 1166h-25l-351 -1166h-168zM289 377v138h582v-138h-582zM1030 -363q-85 0 -135 38.5t-50 115.5v1q0 73 41.5 122t116.5 83v11l103 -4l4 -4q-67 -34 -104.5 -72t-37.5 -89v-1q0 -44 27.5 -64.5t75.5 -20.5q24 0 47.5 4.5t47.5 13.5
l-17 -113q-22 -10 -54 -15.5t-65 -5.5z" />
    <glyph glyph-name="aogonek" unicode="&#x105;" horiz-adv-x="988" 
d="M711 0l7 237l-6 25v311l1 57q0 119 -60.5 176t-191.5 57q-105 0 -192.5 -30t-155.5 -70l15 138q38 23 90.5 45.5t120 37.5t148.5 15q105 0 178.5 -25.5t119 -73.5t66.5 -116t21 -152v-632h-161zM375 -21q-145 0 -222.5 70.5t-77.5 201.5v29q0 135 83.5 201.5t265.5 92.5
l309 44l9 -118l-298 -43q-112 -16 -160 -54.5t-48 -113.5v-16q0 -77 47.5 -118t142.5 -41q84 0 144 29t97 78t50 109l25 -110h-31q-14 -64 -52.5 -119t-107.5 -88.5t-176 -33.5zM792 -363q-84 0 -134.5 38.5t-50.5 115.5v1q0 73 41.5 122t116.5 83v15l107 1v-13
q-67 -34 -104.5 -72t-37.5 -89v-1q0 -44 27.5 -64.5t74.5 -20.5q25 0 48 4.5t47 13.5l-16 -113q-23 -10 -54.5 -15.5t-64.5 -5.5z" />
    <glyph glyph-name="Cacute" unicode="&#x106;" horiz-adv-x="1015" 
d="M578 -23q-237 0 -355.5 133t-118.5 378v303q0 245 118 377.5t354 132.5q76 0 138.5 -14t111.5 -36t83 -46l14 -154q-59 42 -138.5 73.5t-186.5 31.5q-161 0 -243 -95.5t-82 -271.5v-295q0 -175 83 -271.5t248 -96.5q106 0 187.5 31t141.5 76l-14 -158q-34 -24 -84 -47
t-114.5 -37t-142.5 -14zM720 1650h188v-3l-273 -246h-156v2z" />
    <glyph glyph-name="cacute" unicode="&#x107;" horiz-adv-x="868" 
d="M508 -22q-210 0 -312.5 113.5t-102.5 321.5v152q0 209 103 321.5t312 112.5q62 0 113 -11.5t91.5 -30t68.5 -38.5l14 -141q-47 36 -111.5 61t-151.5 25q-140 0 -208.5 -77.5t-68.5 -225.5v-144q0 -145 68.5 -223t208.5 -78q90 0 155.5 25t116.5 61l-15 -143
q-44 -30 -115 -55.5t-166 -25.5zM606 1366h180v-3l-230 -266h-144v2z" />
    <glyph glyph-name="Ccircumflex" unicode="&#x108;" horiz-adv-x="1015" 
d="M578 -23q-237 0 -355.5 133t-118.5 378v303q0 245 118 377.5t354 132.5q76 0 138.5 -14t111.5 -36t83 -46l14 -154q-59 42 -138.5 73.5t-186.5 31.5q-161 0 -243 -95.5t-82 -271.5v-295q0 -175 83 -271.5t248 -96.5q106 0 187.5 31t141.5 76l-14 -158q-34 -24 -84 -47
t-114.5 -37t-142.5 -14zM468 1650h172l222 -247v-2h-139l-165 158h-8l-166 -158h-138v2z" />
    <glyph glyph-name="ccircumflex" unicode="&#x109;" horiz-adv-x="868" 
d="M508 -22q-210 0 -312.5 113.5t-102.5 321.5v152q0 209 103 321.5t312 112.5q62 0 113 -11.5t91.5 -30t68.5 -38.5l14 -141q-47 36 -111.5 61t-151.5 25q-140 0 -208.5 -77.5t-68.5 -225.5v-144q0 -145 68.5 -223t208.5 -78q90 0 155.5 25t116.5 61l-15 -143
q-44 -30 -115 -55.5t-166 -25.5zM395 1366h175l191 -267v-2h-129l-146 178h-7l-146 -178h-129v2z" />
    <glyph glyph-name="Cdotaccent" unicode="&#x10a;" horiz-adv-x="1015" 
d="M578 -23q-237 0 -355.5 133t-118.5 378v303q0 245 118 377.5t354 132.5q76 0 138.5 -14t111.5 -36t83 -46l14 -154q-59 42 -138.5 73.5t-186.5 31.5q-161 0 -243 -95.5t-82 -271.5v-295q0 -175 83 -271.5t248 -96.5q106 0 187.5 31t141.5 76l-14 -158q-34 -24 -84 -47
t-114.5 -37t-142.5 -14zM553 1431q-45 0 -68.5 24.5t-23.5 68.5v5q0 43 23.5 67.5t68.5 24.5q46 0 69.5 -24.5t23.5 -67.5v-5q0 -44 -23.5 -68.5t-69.5 -24.5z" />
    <glyph glyph-name="cdotaccent" unicode="&#x10b;" horiz-adv-x="868" 
d="M508 -22q-210 0 -312.5 113.5t-102.5 321.5v152q0 209 103 321.5t312 112.5q62 0 113 -11.5t91.5 -30t68.5 -38.5l14 -141q-47 36 -111.5 61t-151.5 25q-140 0 -208.5 -77.5t-68.5 -225.5v-144q0 -145 68.5 -223t208.5 -78q90 0 155.5 25t116.5 61l-15 -143
q-44 -30 -115 -55.5t-166 -25.5zM482 1135q-48 0 -71.5 25t-23.5 71v6q0 45 23.5 70.5t71.5 25.5q49 0 72.5 -25.5t23.5 -70.5v-6q0 -46 -23.5 -71t-72.5 -25z" />
    <glyph glyph-name="Ccaron" unicode="&#x10c;" horiz-adv-x="1015" 
d="M578 -23q-237 0 -355.5 133t-118.5 378v303q0 245 118 377.5t354 132.5q76 0 138.5 -14t111.5 -36t83 -46l14 -154q-59 42 -138.5 73.5t-186.5 31.5q-161 0 -243 -95.5t-82 -271.5v-295q0 -175 83 -271.5t248 -96.5q106 0 187.5 31t141.5 76l-14 -158q-34 -24 -84 -47
t-114.5 -37t-142.5 -14zM467 1401l-222 247v2h139l165 -159h8l166 159h138v-2l-222 -247h-172z" />
    <glyph glyph-name="ccaron" unicode="&#x10d;" horiz-adv-x="868" 
d="M508 -22q-210 0 -312.5 113.5t-102.5 321.5v152q0 209 103 321.5t312 112.5q62 0 113 -11.5t91.5 -30t68.5 -38.5l14 -141q-47 36 -111.5 61t-151.5 25q-140 0 -208.5 -77.5t-68.5 -225.5v-144q0 -145 68.5 -223t208.5 -78q90 0 155.5 25t116.5 61l-15 -143
q-44 -30 -115 -55.5t-166 -25.5zM395 1097l-191 267v2h129l146 -178h7l146 178h129v-2l-191 -267h-175z" />
    <glyph glyph-name="Dcaron" unicode="&#x10e;" horiz-adv-x="1183" 
d="M263 0v140h310q170 0 255.5 92.5t85.5 264.5v285q0 173 -85.5 265t-255.5 92h-311v139h317q248 0 375 -127.5t127 -367.5v-287q0 -239 -127 -367.5t-375 -128.5h-316zM151 0v1278h164v-1278h-164zM497 1401l-222 247v2h139l165 -159h8l166 159h138v-2l-222 -247h-172z
" />
    <glyph glyph-name="dcaron" unicode="&#x10f;" horiz-adv-x="1243" 
d="M454 -21q-176 0 -268 109t-92 318v161q0 210 93 320.5t274 110.5q90 0 156 -30.5t107 -85.5t55 -130h53l-48 -149q-3 86 -38.5 144.5t-96 88.5t-138.5 30q-124 0 -189.5 -72t-65.5 -212v-186q0 -138 65.5 -210t189.5 -72q74 0 131 28.5t94.5 79t51.5 114.5l40 -116h-48
q-14 -66 -53.5 -121t-106 -87.5t-166.5 -32.5zM780 0l7 236l-3 52v408l1 34l-4 277v318h161v-1325h-162zM1239 1325q2 -16 5 -41.5t3 -55.5q0 -99 -25.5 -183t-84.5 -160l-101 30q37 67 54.5 141.5t17.5 164.5q0 27 -2 52t-6 52h139z" />
    <glyph glyph-name="Dcroat" unicode="&#x110;" horiz-adv-x="1183" 
d="M7 595v125h622v-125h-622zM263 0v140h310q170 0 255.5 92.5t85.5 264.5v285q0 173 -85.5 265t-255.5 92h-311v139h317q248 0 375 -127.5t127 -367.5v-287q0 -239 -127 -367.5t-375 -128.5h-316zM151 0v1278h164v-1278h-164z" />
    <glyph glyph-name="dcroat" unicode="&#x111;" horiz-adv-x="1088" 
d="M454 1100v100h630v-100h-630zM454 -21q-176 0 -268 109t-92 318v161q0 210 93 320.5t274 110.5q90 0 156 -30.5t107 -85.5t55 -130h53l-48 -149q-3 86 -38.5 144.5t-96 88.5t-138.5 30q-124 0 -189.5 -72t-65.5 -212v-186q0 -138 65.5 -210t189.5 -72q74 0 131 28.5
t94.5 79t51.5 114.5l40 -116h-48q-14 -66 -53.5 -121t-106 -87.5t-166.5 -32.5zM780 0l7 236l-3 52v408l1 34l-4 277v318h161v-1325h-162z" />
    <glyph glyph-name="Emacron" unicode="&#x112;" horiz-adv-x="1046" 
d="M151 0v1278h164v-1278h-164zM200 0v139h748v-139h-748zM245 583v138h682v-138h-682zM199 1139v139h743v-139h-743zM278 1459v111h549v-111h-549z" />
    <glyph glyph-name="emacron" unicode="&#x113;" horiz-adv-x="999" 
d="M542 -22q-223 0 -336 109t-113 312v174q0 206 105 317.5t307 111.5q136 0 227 -50.5t137 -143.5t46 -222v-36q0 -32 -2.5 -64t-6.5 -63h-149q2 48 2.5 91t0.5 79q0 89 -28.5 150.5t-85 94t-141.5 32.5q-126 0 -189 -73t-63 -209v-93l1 -20v-93q0 -61 18 -110t56.5 -84.5
t98 -54t141.5 -18.5q95 0 177 25t154 68l-15 -140q-65 -41 -151 -65.5t-191 -24.5zM178 423v122h694v-122h-694zM234 1161v111h549v-111h-549z" />
    <glyph glyph-name="Ebreve" unicode="&#x114;" horiz-adv-x="1046" 
d="M151 0v1278h164v-1278h-164zM200 0v139h748v-139h-748zM245 583v138h682v-138h-682zM199 1139v139h743v-139h-743zM554 1395q-135 0 -197.5 66t-64.5 189h112q3 -73 40 -111t110 -38t110 38t41 111h111q-2 -123 -64 -189t-198 -66z" />
    <glyph glyph-name="ebreve" unicode="&#x115;" horiz-adv-x="999" 
d="M542 -22q-223 0 -336 109t-113 312v174q0 206 105 317.5t307 111.5q136 0 227 -50.5t137 -143.5t46 -222v-36q0 -32 -2.5 -64t-6.5 -63h-149q2 48 2.5 91t0.5 79q0 89 -28.5 150.5t-85 94t-141.5 32.5q-126 0 -189 -73t-63 -209v-93l1 -20v-93q0 -61 18 -110t56.5 -84.5
t98 -54t141.5 -18.5q95 0 177 25t154 68l-15 -140q-65 -41 -151 -65.5t-191 -24.5zM178 423v122h694v-122h-694zM509 1089q-133 0 -194.5 71.5t-63.5 205.5h112q3 -85 38.5 -128t107.5 -43t107.5 43t39.5 128h112q-2 -134 -63 -205.5t-196 -71.5z" />
    <glyph glyph-name="Edotaccent" unicode="&#x116;" horiz-adv-x="1046" 
d="M151 0v1278h164v-1278h-164zM200 0v139h748v-139h-748zM245 583v138h682v-138h-682zM199 1139v139h743v-139h-743zM553 1431q-45 0 -68.5 24.5t-23.5 68.5v5q0 43 23.5 67.5t68.5 24.5q46 0 69.5 -24.5t23.5 -67.5v-5q0 -44 -23.5 -68.5t-69.5 -24.5z" />
    <glyph glyph-name="edotaccent" unicode="&#x117;" horiz-adv-x="999" 
d="M542 -22q-223 0 -336 109t-113 312v174q0 206 105 317.5t307 111.5q136 0 227 -50.5t137 -143.5t46 -222v-36q0 -32 -2.5 -64t-6.5 -63h-149q2 48 2.5 91t0.5 79q0 89 -28.5 150.5t-85 94t-141.5 32.5q-126 0 -189 -73t-63 -209v-93l1 -20v-93q0 -61 18 -110t56.5 -84.5
t98 -54t141.5 -18.5q95 0 177 25t154 68l-15 -140q-65 -41 -151 -65.5t-191 -24.5zM178 423v122h694v-122h-694zM508 1135q-48 0 -71.5 25t-23.5 71v6q0 45 23.5 70.5t71.5 25.5q49 0 72.5 -25.5t23.5 -70.5v-6q0 -46 -23.5 -71t-72.5 -25z" />
    <glyph glyph-name="Eogonek" unicode="&#x118;" horiz-adv-x="1046" 
d="M151 0v1278h164v-1278h-164zM200 0v139h748v-139h-748zM245 583v138h682v-138h-682zM199 1139v139h743v-139h-743zM855 -363q-85 0 -135 38.5t-50 115.5v1q0 73 41.5 122t116.5 83v11l103 -4l4 -4q-67 -34 -104.5 -72t-37.5 -89v-1q0 -44 27.5 -64.5t75.5 -20.5
q24 0 47.5 4.5t47.5 13.5l-17 -113q-22 -10 -54 -15.5t-65 -5.5z" />
    <glyph glyph-name="eogonek" unicode="&#x119;" horiz-adv-x="997" 
d="M732 -363q-92 0 -146 39.5t-54 115.5v1q0 67 35.5 114.5t98.5 79.5v16l113 28v-13q-58 -36 -91 -78t-33 -96v-1q0 -46 31.5 -68t86.5 -22q28 0 54 5t54 16l-16 -113q-26 -11 -61 -17.5t-72 -6.5zM542 -22q-223 0 -336 109t-113 312v174q0 206 105 317.5t307 111.5
q136 0 227 -50.5t137 -143.5t46 -222v-36q0 -32 -2.5 -64t-6.5 -63h-149q2 48 2.5 91t0.5 79q0 89 -28.5 150.5t-85 94t-141.5 32.5q-126 0 -189 -73t-63 -209v-93l1 -20v-93q0 -61 18 -110t56.5 -84.5t98 -54t141.5 -18.5q95 0 177 25t154 68l-15 -140q-65 -41 -151 -65.5
t-191 -24.5zM178 423v122h694v-122h-694z" />
    <glyph glyph-name="Ecaron" unicode="&#x11a;" horiz-adv-x="1046" 
d="M151 0v1278h164v-1278h-164zM200 0v139h748v-139h-748zM245 583v138h682v-138h-682zM199 1139v139h743v-139h-743zM467 1401l-222 247v2h139l165 -159h8l166 159h138v-2l-222 -247h-172z" />
    <glyph glyph-name="ecaron" unicode="&#x11b;" horiz-adv-x="999" 
d="M542 -22q-223 0 -336 109t-113 312v174q0 206 105 317.5t307 111.5q136 0 227 -50.5t137 -143.5t46 -222v-36q0 -32 -2.5 -64t-6.5 -63h-149q2 48 2.5 91t0.5 79q0 89 -28.5 150.5t-85 94t-141.5 32.5q-126 0 -189 -73t-63 -209v-93l1 -20v-93q0 -61 18 -110t56.5 -84.5
t98 -54t141.5 -18.5q95 0 177 25t154 68l-15 -140q-65 -41 -151 -65.5t-191 -24.5zM178 423v122h694v-122h-694zM421 1097l-191 267v2h129l146 -178h7l146 178h129v-2l-191 -267h-175z" />
    <glyph glyph-name="Gcircumflex" unicode="&#x11c;" horiz-adv-x="1180" 
d="M544 -24q-145 0 -243 58.5t-147.5 170.5t-49.5 271v302q0 252 129.5 387.5t380.5 135.5q90 0 163.5 -14.5t130.5 -38t98 -49.5l15 -150q-69 44 -162.5 77t-216.5 33q-186 0 -277.5 -99t-91.5 -285v-298q0 -172 80.5 -265.5t241.5 -93.5q82 0 140.5 28t96 74t54.5 101v315
l27 -59h-301v138h436v-505l-163 1q-16 -62 -55 -116t-109 -86.5t-177 -32.5zM893 264h155v-264h-162zM501 1650h172l222 -247v-2h-139l-165 158h-8l-166 -158h-138v2z" />
    <glyph glyph-name="gcircumflex" unicode="&#x11d;" horiz-adv-x="1025" 
d="M512 292q-199 0 -305.5 87t-106.5 249v25q0 101 41.5 176t132.5 117.5t238 46.5l498 16v-128l-294 10l-1 -7q69 -14 113 -48t65.5 -85t21.5 -119v-22q0 -155 -102 -236.5t-301 -81.5zM505 -246h23q90 0 154.5 13.5t99.5 42.5t35 77v4q0 56 -40.5 85.5t-138.5 38.5
l-276 25l46 2q-56 -8 -98.5 -26t-66.5 -47.5t-24 -73.5v-2q0 -51 35 -82t99 -44t152 -13zM496 -375q-132 0 -227.5 22.5t-148 73t-52.5 135.5v4q0 60 28.5 100t77 63t108.5 31l-1 6q-82 14 -121 48.5t-39 89.5v1q0 38 17.5 65t53 43t90.5 20v20l186 -47l-76 2
q-68 -1 -94 -16.5t-26 -46.5v-1q0 -33 37 -50t126 -27l237 -24q155 -16 226 -74.5t71 -172.5v-5q0 -91 -54 -149t-153 -84.5t-237 -26.5h-29zM510 412q84 0 139.5 24.5t84 74t28.5 121.5v24q0 70 -27.5 119t-82.5 74.5t-138 25.5h-6q-90 0 -146.5 -27.5t-82 -77
t-25.5 -115.5v-23q0 -72 28.5 -121t85.5 -74t142 -25zM425 1369h175l191 -267v-2h-129l-146 178h-7l-146 -178h-129v2z" />
    <glyph glyph-name="Gbreve" unicode="&#x11e;" horiz-adv-x="1180" 
d="M544 -24q-145 0 -243 58.5t-147.5 170.5t-49.5 271v302q0 252 129.5 387.5t380.5 135.5q90 0 163.5 -14.5t130.5 -38t98 -49.5l15 -150q-69 44 -162.5 77t-216.5 33q-186 0 -277.5 -99t-91.5 -285v-298q0 -172 80.5 -265.5t241.5 -93.5q82 0 140.5 28t96 74t54.5 101v315
l27 -59h-301v138h436v-505l-163 1q-16 -62 -55 -116t-109 -86.5t-177 -32.5zM893 264h155v-264h-162zM587 1395q-135 0 -197.5 66t-64.5 189h112q3 -73 40 -111t110 -38t110 38t41 111h111q-2 -123 -64 -189t-198 -66z" />
    <glyph glyph-name="gbreve" unicode="&#x11f;" horiz-adv-x="1025" 
d="M512 292q-199 0 -305.5 87t-106.5 249v25q0 101 41.5 176t132.5 117.5t238 46.5l498 16v-128l-294 10l-1 -7q69 -14 113 -48t65.5 -85t21.5 -119v-22q0 -155 -102 -236.5t-301 -81.5zM505 -246h23q90 0 154.5 13.5t99.5 42.5t35 77v4q0 56 -40.5 85.5t-138.5 38.5
l-276 25l46 2q-56 -8 -98.5 -26t-66.5 -47.5t-24 -73.5v-2q0 -51 35 -82t99 -44t152 -13zM496 -375q-132 0 -227.5 22.5t-148 73t-52.5 135.5v4q0 60 28.5 100t77 63t108.5 31l-1 6q-82 14 -121 48.5t-39 89.5v1q0 38 17.5 65t53 43t90.5 20v20l186 -47l-76 2
q-68 -1 -94 -16.5t-26 -46.5v-1q0 -33 37 -50t126 -27l237 -24q155 -16 226 -74.5t71 -172.5v-5q0 -91 -54 -149t-153 -84.5t-237 -26.5h-29zM510 412q84 0 139.5 24.5t84 74t28.5 121.5v24q0 70 -27.5 119t-82.5 74.5t-138 25.5h-6q-90 0 -146.5 -27.5t-82 -77
t-25.5 -115.5v-23q0 -72 28.5 -121t85.5 -74t142 -25zM513 1092q-133 0 -194.5 71.5t-63.5 205.5h112q3 -85 38.5 -128t107.5 -43t107.5 43t39.5 128h112q-2 -134 -63 -205.5t-196 -71.5z" />
    <glyph glyph-name="Gdotaccent" unicode="&#x120;" horiz-adv-x="1180" 
d="M544 -24q-145 0 -243 58.5t-147.5 170.5t-49.5 271v302q0 252 129.5 387.5t380.5 135.5q90 0 163.5 -14.5t130.5 -38t98 -49.5l15 -150q-69 44 -162.5 77t-216.5 33q-186 0 -277.5 -99t-91.5 -285v-298q0 -172 80.5 -265.5t241.5 -93.5q82 0 140.5 28t96 74t54.5 101v315
l27 -59h-301v138h436v-505l-163 1q-16 -62 -55 -116t-109 -86.5t-177 -32.5zM893 264h155v-264h-162zM586 1431q-45 0 -68.5 24.5t-23.5 68.5v5q0 43 23.5 67.5t68.5 24.5q46 0 69.5 -24.5t23.5 -67.5v-5q0 -44 -23.5 -68.5t-69.5 -24.5z" />
    <glyph glyph-name="gdotaccent" unicode="&#x121;" horiz-adv-x="1025" 
d="M512 292q-199 0 -305.5 87t-106.5 249v25q0 101 41.5 176t132.5 117.5t238 46.5l498 16v-128l-294 10l-1 -7q69 -14 113 -48t65.5 -85t21.5 -119v-22q0 -155 -102 -236.5t-301 -81.5zM505 -246h23q90 0 154.5 13.5t99.5 42.5t35 77v4q0 56 -40.5 85.5t-138.5 38.5
l-276 25l46 2q-56 -8 -98.5 -26t-66.5 -47.5t-24 -73.5v-2q0 -51 35 -82t99 -44t152 -13zM496 -375q-132 0 -227.5 22.5t-148 73t-52.5 135.5v4q0 60 28.5 100t77 63t108.5 31l-1 6q-82 14 -121 48.5t-39 89.5v1q0 38 17.5 65t53 43t90.5 20v20l186 -47l-76 2
q-68 -1 -94 -16.5t-26 -46.5v-1q0 -33 37 -50t126 -27l237 -24q155 -16 226 -74.5t71 -172.5v-5q0 -91 -54 -149t-153 -84.5t-237 -26.5h-29zM510 412q84 0 139.5 24.5t84 74t28.5 121.5v24q0 70 -27.5 119t-82.5 74.5t-138 25.5h-6q-90 0 -146.5 -27.5t-82 -77
t-25.5 -115.5v-23q0 -72 28.5 -121t85.5 -74t142 -25zM512 1138q-48 0 -71.5 25t-23.5 71v6q0 45 23.5 70.5t71.5 25.5q49 0 72.5 -25.5t23.5 -70.5v-6q0 -46 -23.5 -71t-72.5 -25z" />
    <glyph glyph-name="uni0122" unicode="&#x122;" horiz-adv-x="1180" 
d="M544 -24q-145 0 -243 58.5t-147.5 170.5t-49.5 271v302q0 252 129.5 387.5t380.5 135.5q90 0 163.5 -14.5t130.5 -38t98 -49.5l15 -150q-69 44 -162.5 77t-216.5 33q-186 0 -277.5 -99t-91.5 -285v-298q0 -172 80.5 -265.5t241.5 -93.5q82 0 140.5 28t96 74t54.5 101v315
l27 -59h-301v138h436v-505l-163 1q-16 -62 -55 -116t-109 -86.5t-177 -32.5zM893 264h155v-264h-162zM660 -118q2 -13 3 -31.5t1 -39.5q0 -79 -22.5 -145.5t-77.5 -130.5l-105 34q33 53 49 111t16 130q0 19 -1 36.5t-3 35.5h140z" />
    <glyph glyph-name="uni0123" unicode="&#x123;" horiz-adv-x="1025" 
d="M512 292q-199 0 -305.5 87t-106.5 249v25q0 101 41.5 176t132.5 117.5t238 46.5l498 16v-128l-294 10l-1 -7q69 -14 113 -48t65.5 -85t21.5 -119v-22q0 -155 -102 -236.5t-301 -81.5zM505 -246h23q90 0 154.5 13.5t99.5 42.5t35 77v4q0 56 -40.5 85.5t-138.5 38.5
l-276 25l46 2q-56 -8 -98.5 -26t-66.5 -47.5t-24 -73.5v-2q0 -51 35 -82t99 -44t152 -13zM496 -375q-132 0 -227.5 22.5t-148 73t-52.5 135.5v4q0 60 28.5 100t77 63t108.5 31l-1 6q-82 14 -121 48.5t-39 89.5v1q0 38 17.5 65t53 43t90.5 20v20l186 -47l-76 2
q-68 -1 -94 -16.5t-26 -46.5v-1q0 -33 37 -50t126 -27l237 -24q155 -16 226 -74.5t71 -172.5v-5q0 -91 -54 -149t-153 -84.5t-237 -26.5h-29zM510 412q84 0 139.5 24.5t84 74t28.5 121.5v24q0 70 -27.5 119t-82.5 74.5t-138 25.5h-6q-90 0 -146.5 -27.5t-82 -77
t-25.5 -115.5v-23q0 -72 28.5 -121t85.5 -74t142 -25zM435 1103q-1 13 -3 31.5t-2 38.5q0 81 22.5 147.5t77.5 129.5l104 -34q-33 -53 -49 -111t-16 -130q0 -18 1.5 -36t2.5 -36h-138z" />
    <glyph glyph-name="Hcircumflex" unicode="&#x124;" horiz-adv-x="1240" 
d="M317 0h-166v1278h166v-1278zM1089 0h-166v1278h166v-1278zM246 729h743v-140h-743v140zM534 1650h172l222 -247v-2h-139l-165 158h-8l-166 -158h-138v2z" />
    <glyph glyph-name="hcircumflex" unicode="&#x125;" horiz-adv-x="1066" 
d="M785 0v607q0 79 -21.5 136t-70 88.5t-132.5 31.5q-77 0 -133 -29t-90.5 -78.5t-48.5 -112.5l-36 115h42q15 66 55 120.5t107.5 87t164.5 32.5q116 0 187.5 -44t104.5 -126.5t33 -202.5v-625h-162zM132 0v1325h161v-318l-5 -280l6 -13v-714h-162zM127 1697h172l222 -247
v-2h-139l-165 158h-8l-166 -158h-138v2z" />
    <glyph glyph-name="Hbar" unicode="&#x126;" horiz-adv-x="1239" 
d="M26 946v115h1188v-115h-1188zM317 0h-166v1278h166v-1278zM1089 0h-166v1278h166v-1278zM246 729h743v-140h-743v140z" />
    <glyph glyph-name="hbar" unicode="&#x127;" horiz-adv-x="1067" 
d="M4 1100v100h627v-100h-627zM786 0v607q0 79 -21.5 136t-70.5 88.5t-132 31.5q-77 0 -133.5 -29t-91 -78.5t-48.5 -112.5l-35 115h42q15 66 55 120.5t107.5 87t164.5 32.5q116 0 187 -44t104 -126.5t33 -202.5v-625h-161zM133 0v1325h161v-318l-5 -280l6 -13v-714h-162z
" />
    <glyph glyph-name="Itilde" unicode="&#x128;" horiz-adv-x="472" 
d="M319 0h-166v1278h166v-1278zM376 1422q-39 0 -75 11t-69.5 25.5t-63.5 26t-58 11.5q-31 0 -43.5 -18t-12.5 -53v-13h-104v30q0 78 32.5 124t112.5 46q39 0 75.5 -11t69.5 -26t63.5 -26t57.5 -11q31 0 43 18t12 53v13h103v-31q0 -78 -32.5 -123.5t-110.5 -45.5z" />
    <glyph glyph-name="itilde" unicode="&#x129;" horiz-adv-x="432" 
d="M136 0v976h162v-976h-162zM333 1126q-32 0 -62.5 12t-57.5 28t-51 28t-46 12q-45 0 -45 -72v-17h-98v33q0 80 29.5 125t93.5 45q33 0 63 -12.5t57 -28t50.5 -28t44.5 -12.5q45 0 45 73v17h98v-33q0 -81 -29 -125.5t-92 -44.5z" />
    <glyph glyph-name="Imacron" unicode="&#x12a;" horiz-adv-x="472" 
d="M319 0h-166v1278h166v-1278zM-40 1459v111h549v-111h-549z" />
    <glyph glyph-name="imacron" unicode="&#x12b;" horiz-adv-x="432" 
d="M136 0v976h162v-976h-162zM-6 1161v111h446v-111h-446z" />
    <glyph glyph-name="Ibreve" unicode="&#x12c;" horiz-adv-x="472" 
d="M319 0h-166v1278h166v-1278zM235 1395q-135 0 -197.5 66t-64.5 189h112q3 -73 40 -111t110 -38t110 38t41 111h111q-2 -123 -64 -189t-198 -66z" />
    <glyph glyph-name="ibreve" unicode="&#x12d;" horiz-adv-x="432" 
d="M136 0v976h162v-976h-162zM218 1089q-121 0 -172 70.5t-53 206.5h108q1 -88 28 -130t89 -42q61 0 88 42t28 130h108q-2 -136 -52.5 -206.5t-171.5 -70.5z" />
    <glyph glyph-name="Iogonek" unicode="&#x12e;" horiz-adv-x="472" 
d="M319 0h-166v1278h166v-1278zM238 -363q-85 0 -135 38.5t-50 115.5v1q0 73 41.5 122t116.5 83v11l103 -4l4 -4q-67 -34 -104.5 -72t-37.5 -89v-1q0 -44 27.5 -64.5t75.5 -20.5q24 0 47.5 4.5t47.5 13.5l-17 -113q-22 -10 -54 -15.5t-65 -5.5z" />
    <glyph glyph-name="iogonek" unicode="&#x12f;" horiz-adv-x="433" 
d="M135 0v976h162v-976h-162zM216 1136q-50 0 -74.5 26.5t-24.5 72.5v5q0 47 24.5 73t74.5 26t75 -26t25 -73v-5q0 -47 -25 -73t-75 -26zM217 -363q-84 0 -134.5 38.5t-50.5 115.5v1q0 73 41.5 122t116.5 83v15l107 1v-13q-67 -34 -104.5 -72t-37.5 -89v-1q0 -44 27.5 -64.5
t74.5 -20.5q25 0 48 4.5t47 13.5l-16 -113q-23 -10 -54.5 -15.5t-64.5 -5.5z" />
    <glyph glyph-name="Idotaccent" unicode="&#x130;" horiz-adv-x="472" 
d="M319 0h-166v1278h166v-1278zM234 1431q-45 0 -68.5 24.5t-23.5 68.5v5q0 43 23.5 67.5t68.5 24.5q46 0 69.5 -24.5t23.5 -67.5v-5q0 -44 -23.5 -68.5t-69.5 -24.5z" />
    <glyph glyph-name="dotlessi" unicode="&#x131;" horiz-adv-x="432" 
d="M136 0v976h162v-976h-162z" />
    <glyph glyph-name="Jcircumflex" unicode="&#x134;" horiz-adv-x="824" 
d="M312 -16q-65 0 -127 11t-112 31l-12 149q52 -24 106.5 -35.5t111.5 -11.5q134 0 185 62t51 189v899h166v-909q0 -189 -84 -287t-285 -98zM511 1650h172l222 -247v-2h-139l-165 158h-8l-166 -158h-138v2z" />
    <glyph glyph-name="jcircumflex" unicode="&#x135;" horiz-adv-x="461" 
d="M163 191v785h162v-785h-162zM44 -357q-43 0 -81 7.5t-65 17.5l-14 134q28 -13 58.5 -19.5t63.5 -6.5q90 0 123.5 48.5t33.5 139.5v309h162v-317q0 -98 -27 -168t-89 -107.5t-165 -37.5zM145 1366h171l153 -268v-1h-124l-111 177h-7l-111 -177h-123v1z" />
    <glyph glyph-name="uni0136" unicode="&#x136;" horiz-adv-x="1133" 
d="M897 0l-448 587h-146v132h146l442 559h189l-506 -637l-1 41l520 -682h-196zM151 0v1278h165v-1278h-165zM651 -118q2 -13 3 -31.5t1 -39.5q0 -79 -22.5 -145.5t-77.5 -130.5l-105 34q33 53 49 111t16 130q0 19 -1 36.5t-3 35.5h140z" />
    <glyph glyph-name="uni0137" unicode="&#x137;" horiz-adv-x="989" 
d="M766 0l-386 455h-103v126h103l370 395h192l-443 -471v39l461 -544h-194zM132 0v1325h161v-1325h-161zM582 -118q2 -13 3 -31.5t1 -39.5q0 -79 -22.5 -145.5t-77.5 -130.5l-105 34q33 53 49 111t16 130q0 19 -1 36.5t-3 35.5h140z" />
    <glyph glyph-name="kgreenlandic" unicode="&#x138;" horiz-adv-x="989" 
d="M766 0l-383 434h-113v126h113l367 416h192l-440 -492v39l458 -523h-194zM132 0v976h161v-976h-161z" />
    <glyph glyph-name="Lacute" unicode="&#x139;" horiz-adv-x="974" 
d="M317 0h-166v1278h166v-1278zM240 141h674v-141h-674v141zM401 1650h188v-3l-273 -246h-156v2z" />
    <glyph glyph-name="lacute" unicode="&#x13a;" horiz-adv-x="435" 
d="M137 0v1325h161v-1325h-161zM385 1697h188v-3l-273 -246h-156v2z" />
    <glyph glyph-name="uni013B" unicode="&#x13b;" horiz-adv-x="974" 
d="M317 0h-166v1278h166v-1278zM240 141h674v-141h-674v141zM600 -118q2 -13 3 -31.5t1 -39.5q0 -79 -22.5 -145.5t-77.5 -130.5l-105 34q33 53 49 111t16 130q0 19 -1 36.5t-3 35.5h140z" />
    <glyph glyph-name="uni013C" unicode="&#x13c;" horiz-adv-x="435" 
d="M137 0v1325h161v-1325h-161zM292 -118q2 -13 3 -31.5t1 -39.5q0 -79 -22.5 -145.5t-77.5 -130.5l-105 34q33 53 49 111t16 130q0 19 -1 36.5t-3 35.5h140z" />
    <glyph glyph-name="Lcaron" unicode="&#x13d;" horiz-adv-x="974" 
d="M317 0h-166v1278h166v-1278zM240 141h674v-141h-674v141zM805 1278q2 -16 5 -41.5t3 -55.5q0 -99 -25.5 -183t-84.5 -160l-101 30q37 67 54.5 141.5t17.5 164.5q0 27 -2 52t-6 52h139z" />
    <glyph glyph-name="lcaron" unicode="&#x13e;" horiz-adv-x="600" 
d="M137 0v1325h161v-1325h-161zM596 1325q2 -16 5 -41.5t3 -55.5q0 -99 -25.5 -183t-84.5 -160l-101 30q37 67 54.5 141.5t17.5 164.5q0 27 -2 52t-6 52h139z" />
    <glyph glyph-name="Ldot" unicode="&#x13f;" horiz-adv-x="974" 
d="M317 0h-166v1278h166v-1278zM240 141h674v-141h-674v141zM716 614q-45 0 -67.5 25t-22.5 71v7q0 45 22.5 70t67.5 25q46 0 68 -25t22 -70v-7q0 -46 -22 -71t-68 -25z" />
    <glyph glyph-name="ldot" unicode="&#x140;" horiz-adv-x="534" 
d="M137 0v1325h161v-1325h-161zM482 603q-44 0 -66 25t-22 71v7q0 45 22 70t66 25q45 0 66.5 -25t21.5 -70v-7q0 -46 -21.5 -71t-66.5 -25z" />
    <glyph glyph-name="Lslash" unicode="&#x141;" horiz-adv-x="990" 
d="M681 963v-134l-663 -262v135zM333 0h-166v1278h166v-1278zM256 141h674v-141h-674v141z" />
    <glyph glyph-name="lslash" unicode="&#x142;" horiz-adv-x="508" 
d="M12 515v134l485 337v-134zM175 0v1325h162v-1325h-162z" />
    <glyph glyph-name="Nacute" unicode="&#x143;" horiz-adv-x="1240" 
d="M403 1278l519 -1100h12l-7 558v542h162v-1278h-246l-525 1109h-12l7 -584v-525h-162v1278h252zM789 1650h188v-3l-273 -246h-156v2z" />
    <glyph glyph-name="nacute" unicode="&#x144;" horiz-adv-x="1066" 
d="M785 0v607q0 79 -21.5 136t-70 88.5t-132.5 31.5q-77 0 -133.5 -29t-91.5 -78.5t-49 -112.5l-29 115h35q16 66 56 120.5t107.5 87t165.5 32.5q116 0 187.5 -44t104.5 -126.5t33 -202.5v-625h-162zM132 0v976h162l-7 -234l7 -9v-733h-162zM658 1366h180v-3l-230 -266h-144
v2z" />
    <glyph glyph-name="uni0145" unicode="&#x145;" horiz-adv-x="1240" 
d="M403 1278l519 -1100h12l-7 558v542h162v-1278h-246l-525 1109h-12l7 -584v-525h-162v1278h252zM696 -118q2 -13 3 -31.5t1 -39.5q0 -79 -22.5 -145.5t-77.5 -130.5l-105 34q33 53 49 111t16 130q0 19 -1 36.5t-3 35.5h140z" />
    <glyph glyph-name="uni0146" unicode="&#x146;" horiz-adv-x="1066" 
d="M785 0v607q0 79 -21.5 136t-70 88.5t-132.5 31.5q-77 0 -133.5 -29t-91.5 -78.5t-49 -112.5l-29 115h35q16 66 56 120.5t107.5 87t165.5 32.5q116 0 187.5 -44t104.5 -126.5t33 -202.5v-625h-162zM132 0v976h162l-7 -234l7 -9v-733h-162zM608 -118q2 -13 3 -31.5t1 -39.5
q0 -79 -22.5 -145.5t-77.5 -130.5l-105 34q33 53 49 111t16 130q0 19 -1 36.5t-3 35.5h140z" />
    <glyph glyph-name="Ncaron" unicode="&#x147;" horiz-adv-x="1240" 
d="M403 1278l519 -1100h12l-7 558v542h162v-1278h-246l-525 1109h-12l7 -584v-525h-162v1278h252zM535 1401l-222 247v2h139l165 -159h8l166 159h138v-2l-222 -247h-172z" />
    <glyph glyph-name="ncaron" unicode="&#x148;" horiz-adv-x="1066" 
d="M785 0v607q0 79 -21.5 136t-70 88.5t-132.5 31.5q-77 0 -133.5 -29t-91.5 -78.5t-49 -112.5l-29 115h35q16 66 56 120.5t107.5 87t165.5 32.5q116 0 187.5 -44t104.5 -126.5t33 -202.5v-625h-162zM132 0v976h162l-7 -234l7 -9v-733h-162zM447 1097l-191 267v2h129
l146 -178h7l146 178h129v-2l-191 -267h-175z" />
    <glyph glyph-name="Eng" unicode="&#x14a;" horiz-adv-x="1243" 
d="M151 0v1279h252l519 -1101h12l-7 558v543h162v-1213l-77 -66h-169l-525 1110h-12l7 -585v-525h-162zM797 -357q-45 0 -86 7.5t-70 17.5l-13 134q31 -13 63.5 -19.5t68.5 -6.5q96 0 132 48.5t36 139.5v168h161v-176q0 -98 -28.5 -168t-92 -107.5t-171.5 -37.5z" />
    <glyph glyph-name="eng" unicode="&#x14b;" horiz-adv-x="1066" 
d="M785 157v450q0 79 -21.5 136t-70 88.5t-132.5 31.5q-77 0 -133.5 -29t-91.5 -78.5t-49 -112.5l-29 115h35q16 66 56 120.5t107.5 87t165.5 32.5q116 0 187.5 -44t104.5 -126.5t33 -202.5v-468h-162zM132 0v976h162l-7 -234l7 -9v-733h-162zM665 -357q-42 0 -80.5 7.5
t-65.5 17.5l-13 134q27 -13 58 -19.5t64 -6.5q90 0 123.5 48.5t33.5 139.5v309h162v-317q0 -98 -27.5 -168t-89 -107.5t-165.5 -37.5z" />
    <glyph glyph-name="Omacron" unicode="&#x14c;" horiz-adv-x="1197" 
d="M598 -24q-242 0 -368 133.5t-126 382.5v295q0 248 126 381.5t368 133.5t368 -133.5t126 -381.5v-295q0 -249 -126 -382.5t-368 -133.5zM598 115q162 0 244 96.5t82 273.5v309q0 177 -82 273t-244 96q-161 0 -243 -96t-82 -273v-309q0 -177 82 -273.5t243 -96.5zM323 1459
v111h549v-111h-549z" />
    <glyph glyph-name="omacron" unicode="&#x14d;" horiz-adv-x="1040" 
d="M520 -25q-210 0 -318.5 113.5t-108.5 326.5v149q0 212 109 325t318 113q210 0 318.5 -113t108.5 -325v-149q0 -213 -108.5 -326.5t-318.5 -113.5zM520 107q130 0 197.5 77t67.5 222v167q0 144 -67.5 220.5t-197.5 76.5q-129 0 -197 -76.5t-68 -220.5v-167q0 -145 68 -222
t197 -77zM245 1161v111h549v-111h-549z" />
    <glyph glyph-name="Obreve" unicode="&#x14e;" horiz-adv-x="1197" 
d="M598 -24q-242 0 -368 133.5t-126 382.5v295q0 248 126 381.5t368 133.5t368 -133.5t126 -381.5v-295q0 -249 -126 -382.5t-368 -133.5zM598 115q162 0 244 96.5t82 273.5v309q0 177 -82 273t-244 96q-161 0 -243 -96t-82 -273v-309q0 -177 82 -273.5t243 -96.5zM598 1395
q-135 0 -197.5 66t-64.5 189h112q3 -73 40 -111t110 -38t110 38t41 111h111q-2 -123 -64 -189t-198 -66z" />
    <glyph glyph-name="obreve" unicode="&#x14f;" horiz-adv-x="1040" 
d="M520 -25q-210 0 -318.5 113.5t-108.5 326.5v149q0 212 109 325t318 113q210 0 318.5 -113t108.5 -325v-149q0 -213 -108.5 -326.5t-318.5 -113.5zM520 107q130 0 197.5 77t67.5 222v167q0 144 -67.5 220.5t-197.5 76.5q-129 0 -197 -76.5t-68 -220.5v-167q0 -145 68 -222
t197 -77zM520 1089q-133 0 -194.5 71.5t-63.5 205.5h112q3 -85 38.5 -128t107.5 -43t107.5 43t39.5 128h112q-2 -134 -63 -205.5t-196 -71.5z" />
    <glyph glyph-name="Ohungarumlaut" unicode="&#x150;" horiz-adv-x="1197" 
d="M598 -24q-242 0 -368 133.5t-126 382.5v295q0 248 126 381.5t368 133.5t368 -133.5t126 -381.5v-295q0 -249 -126 -382.5t-368 -133.5zM598 115q162 0 244 96.5t82 273.5v309q0 177 -82 273t-244 96q-161 0 -243 -96t-82 -273v-309q0 -177 82 -273.5t243 -96.5zM841 1650
h155v-2l-193 -247h-126v2zM558 1650h154v-3l-195 -246h-125v2z" />
    <glyph glyph-name="ohungarumlaut" unicode="&#x151;" horiz-adv-x="1040" 
d="M520 -25q-210 0 -318.5 113.5t-108.5 326.5v149q0 212 109 325t318 113q210 0 318.5 -113t108.5 -325v-149q0 -213 -108.5 -326.5t-318.5 -113.5zM520 107q130 0 197.5 77t67.5 222v167q0 144 -67.5 220.5t-197.5 76.5q-129 0 -197 -76.5t-68 -220.5v-167q0 -145 68 -222
t197 -77zM746 1366h154v-1l-177 -268h-125v1zM460 1366h154v-4l-177 -265h-124v1z" />
    <glyph glyph-name="OE" unicode="&#x152;" horiz-adv-x="1711" 
d="M598 -24q-242 0 -368 133.5t-126 382.5v295q0 248 126 381.5t368 133.5t368 -133.5t126 -381.5v-295q0 -249 -126 -382.5t-368 -133.5zM598 115q162 0 244 96.5t82 273.5v309q0 177 -82 273t-244 96q-161 0 -243 -96t-82 -273v-309q0 -177 82 -273.5t243 -96.5zM756 0
v139h857v-139h-857zM946 583v138h645v-138h-645zM755 1139v139h851v-139h-851z" />
    <glyph glyph-name="oe" unicode="&#x153;" horiz-adv-x="1691" 
d="M498 -25q-194 0 -299.5 113.5t-105.5 326.5v149q0 212 105.5 325t299.5 113q149 0 238 -62t127 -176h4q35 114 123 176t224 62q130 0 217.5 -50.5t132 -143.5t44.5 -222v-36q0 -32 -2.5 -64t-6.5 -63h-149q2 48 2.5 91t0.5 79q0 89 -28.5 150.5t-85 94t-141.5 32.5
q-125 0 -188 -73t-63 -209v-97v-20v-76q0 -132 77 -206t240 -74q92 0 174 25t154 68l-16 -140q-62 -41 -146.5 -65.5t-185.5 -24.5q-147 0 -243 60t-134 179h-4q-35 -118 -126 -180t-239 -62zM871 423v123h694v-123h-694zM518 107q131 0 199 77t68 222v167q0 144 -68 220.5
t-199 76.5q-128 0 -195.5 -76.5t-67.5 -220.5v-167q0 -145 67.5 -222t195.5 -77z" />
    <glyph glyph-name="Racute" unicode="&#x154;" horiz-adv-x="1151" 
d="M896 0l-36 262q-10 74 -34 128.5t-73.5 85.5t-140.5 31l-347 1v131l371 1q131 0 187 64.5t56 175.5v30q0 110 -57 170.5t-190 60.5h-372v137h394q206 0 299.5 -90.5t93.5 -249.5v-34q0 -125 -59 -204.5t-196 -96.5v-20l-71 25q111 -8 171.5 -48.5t88.5 -110.5t43 -168
l43 -281h-171zM151 0v1278h163v-683l1 -63v-532h-164zM742 1650h188v-3l-273 -246h-156v2z" />
    <glyph glyph-name="racute" unicode="&#x155;" horiz-adv-x="746" 
d="M286 597l-37 125l40 2q32 124 110 195.5t207 71.5q32 0 57.5 -5t45.5 -12l10 -157q-25 8 -55.5 13t-67.5 5q-110 0 -191.5 -61t-118.5 -177zM132 0v976h158l-8 -288l12 -12v-676h-162zM528 1366h180v-3l-230 -266h-144v2z" />
    <glyph glyph-name="uni0156" unicode="&#x156;" horiz-adv-x="1151" 
d="M896 0l-36 262q-10 74 -34 128.5t-73.5 85.5t-140.5 31l-347 1v131l371 1q131 0 187 64.5t56 175.5v30q0 110 -57 170.5t-190 60.5h-372v137h394q206 0 299.5 -90.5t93.5 -249.5v-34q0 -125 -59 -204.5t-196 -96.5v-20l-71 25q111 -8 171.5 -48.5t88.5 -110.5t43 -168
l43 -281h-171zM151 0v1278h163v-683l1 -63v-532h-164zM660 -118q2 -13 3 -31.5t1 -39.5q0 -79 -22.5 -145.5t-77.5 -130.5l-105 34q33 53 49 111t16 130q0 19 -1 36.5t-3 35.5h140z" />
    <glyph glyph-name="uni0157" unicode="&#x157;" horiz-adv-x="746" 
d="M286 597l-37 125l40 2q32 124 110 195.5t207 71.5q32 0 57.5 -5t45.5 -12l10 -157q-25 8 -55.5 13t-67.5 5q-110 0 -191.5 -61t-118.5 -177zM132 0v976h158l-8 -288l12 -12v-676h-162zM287 -118q2 -13 3 -31.5t1 -39.5q0 -79 -22.5 -145.5t-77.5 -130.5l-105 34
q33 53 49 111t16 130q0 19 -1 36.5t-3 35.5h140z" />
    <glyph glyph-name="Rcaron" unicode="&#x158;" horiz-adv-x="1151" 
d="M896 0l-36 262q-10 74 -34 128.5t-73.5 85.5t-140.5 31l-347 1v131l371 1q131 0 187 64.5t56 175.5v30q0 110 -57 170.5t-190 60.5h-372v137h394q206 0 299.5 -90.5t93.5 -249.5v-34q0 -125 -59 -204.5t-196 -96.5v-20l-71 25q111 -8 171.5 -48.5t88.5 -110.5t43 -168
l43 -281h-171zM151 0v1278h163v-683l1 -63v-532h-164zM489 1401l-222 247v2h139l165 -159h8l166 159h138v-2l-222 -247h-172z" />
    <glyph glyph-name="rcaron" unicode="&#x159;" horiz-adv-x="746" 
d="M286 597l-37 125l40 2q32 124 110 195.5t207 71.5q32 0 57.5 -5t45.5 -12l10 -157q-25 8 -55.5 13t-67.5 5q-110 0 -191.5 -61t-118.5 -177zM132 0v976h158l-8 -288l12 -12v-676h-162zM317 1097l-191 267v2h129l146 -178h7l146 178h129v-2l-191 -267h-175z" />
    <glyph glyph-name="Sacute" unicode="&#x15a;" horiz-adv-x="1042" 
d="M507 -23q-92 0 -168.5 15t-136.5 37t-100 44l-17 165q77 -46 181.5 -80.5t227.5 -34.5q148 0 219 52.5t71 157.5v16q0 69 -28 113t-94.5 74t-180.5 56q-144 34 -230.5 80.5t-125 116.5t-38.5 174v9q0 157 103 242.5t312 85.5q137 0 233.5 -28t157.5 -62l15 -152
q-71 42 -165.5 71.5t-216.5 29.5q-97 0 -157 -23t-87 -66t-27 -104v-4q0 -62 26.5 -106t93 -76t189.5 -62q141 -33 226 -76t123.5 -112t38.5 -180v-21q0 -173 -111.5 -262.5t-333.5 -89.5zM679 1650h188v-3l-273 -246h-156v2z" />
    <glyph glyph-name="sacute" unicode="&#x15b;" horiz-adv-x="882" 
d="M437 -22q-118 0 -206 25.5t-146 55.5l-15 150q73 -38 160.5 -66t198.5 -28q113 0 170 36t57 107v11q0 46 -21.5 76t-77.5 53t-159 46q-123 27 -194 63.5t-101.5 90.5t-30.5 132v9q0 128 89 194t268 66q115 0 199.5 -26t138.5 -58l15 -137q-65 38 -149 63t-189 25
q-76 0 -123 -15.5t-68 -44t-21 -68.5v-8q0 -44 21 -74.5t75.5 -53t151.5 -43.5q125 -25 198.5 -60t105.5 -88.5t32 -137.5v-17q0 -138 -96 -208t-283 -70zM563 1366h180v-3l-230 -266h-144v2z" />
    <glyph glyph-name="Scircumflex" unicode="&#x15c;" horiz-adv-x="1042" 
d="M507 -23q-92 0 -168.5 15t-136.5 37t-100 44l-17 165q77 -46 181.5 -80.5t227.5 -34.5q148 0 219 52.5t71 157.5v16q0 69 -28 113t-94.5 74t-180.5 56q-144 34 -230.5 80.5t-125 116.5t-38.5 174v9q0 157 103 242.5t312 85.5q137 0 233.5 -28t157.5 -62l15 -152
q-71 42 -165.5 71.5t-216.5 29.5q-97 0 -157 -23t-87 -66t-27 -104v-4q0 -62 26.5 -106t93 -76t189.5 -62q141 -33 226 -76t123.5 -112t38.5 -180v-21q0 -173 -111.5 -262.5t-333.5 -89.5zM427 1650h172l222 -247v-2h-139l-165 158h-8l-166 -158h-138v2z" />
    <glyph glyph-name="scircumflex" unicode="&#x15d;" horiz-adv-x="882" 
d="M437 -22q-118 0 -206 25.5t-146 55.5l-15 150q73 -38 160.5 -66t198.5 -28q113 0 170 36t57 107v11q0 46 -21.5 76t-77.5 53t-159 46q-123 27 -194 63.5t-101.5 90.5t-30.5 132v9q0 128 89 194t268 66q115 0 199.5 -26t138.5 -58l15 -137q-65 38 -149 63t-189 25
q-76 0 -123 -15.5t-68 -44t-21 -68.5v-8q0 -44 21 -74.5t75.5 -53t151.5 -43.5q125 -25 198.5 -60t105.5 -88.5t32 -137.5v-17q0 -138 -96 -208t-283 -70zM352 1366h175l191 -267v-2h-129l-146 178h-7l-146 -178h-129v2z" />
    <glyph glyph-name="Scedilla" unicode="&#x15e;" horiz-adv-x="1042" 
d="M507 -23q-92 0 -168.5 15t-136.5 37t-100 44l-17 165q77 -46 181.5 -80.5t227.5 -34.5q148 0 219 52.5t71 157.5v16q0 69 -28 113t-94.5 74t-180.5 56q-144 34 -230.5 80.5t-125 116.5t-38.5 174v9q0 157 103 242.5t312 85.5q137 0 233.5 -28t157.5 -62l15 -152
q-71 42 -165.5 71.5t-216.5 29.5q-97 0 -157 -23t-87 -66t-27 -104v-4q0 -62 26.5 -106t93 -76t189.5 -62q141 -33 226 -76t123.5 -112t38.5 -180v-21q0 -173 -111.5 -262.5t-333.5 -89.5zM572 15l-20 -152l-69 48q14 0 30.5 0.5t32.5 -0.5q99 -5 147 -40.5t48 -104.5v-5
q0 -75 -54.5 -111.5t-156.5 -36.5q-41 0 -79 6.5t-66 13.5l-19 102q31 -10 67.5 -16.5t76.5 -6.5q54 0 82 15t28 44v3q0 35 -35 49.5t-122 20.5q-9 1 -14.5 1h-8.5l21 170h111z" />
    <glyph glyph-name="scedilla" unicode="&#x15f;" horiz-adv-x="882" 
d="M437 -22q-118 0 -206 25.5t-146 55.5l-15 150q73 -38 160.5 -66t198.5 -28q113 0 170 36t57 107v11q0 46 -21.5 76t-77.5 53t-159 46q-123 27 -194 63.5t-101.5 90.5t-30.5 132v9q0 128 89 194t268 66q115 0 199.5 -26t138.5 -58l15 -137q-65 38 -149 63t-189 25
q-76 0 -123 -15.5t-68 -44t-21 -68.5v-8q0 -44 21 -74.5t75.5 -53t151.5 -43.5q125 -25 198.5 -60t105.5 -88.5t32 -137.5v-17q0 -138 -96 -208t-283 -70zM500 17l-20 -152l-69 48q14 0 30.5 0.5t32.5 -0.5q99 -5 147 -40.5t48 -104.5v-5q0 -75 -54.5 -111.5t-156.5 -36.5
q-41 0 -79 6.5t-66 13.5l-19 102q31 -10 67.5 -16.5t76.5 -6.5q54 0 82 15t28 44v3q0 35 -35 49.5t-122 20.5q-9 1 -14.5 1h-8.5l21 170h111z" />
    <glyph glyph-name="Scaron" unicode="&#x160;" horiz-adv-x="1042" 
d="M507 -23q-92 0 -168.5 15t-136.5 37t-100 44l-17 165q77 -46 181.5 -80.5t227.5 -34.5q148 0 219 52.5t71 157.5v16q0 69 -28 113t-94.5 74t-180.5 56q-144 34 -230.5 80.5t-125 116.5t-38.5 174v9q0 157 103 242.5t312 85.5q137 0 233.5 -28t157.5 -62l15 -152
q-71 42 -165.5 71.5t-216.5 29.5q-97 0 -157 -23t-87 -66t-27 -104v-4q0 -62 26.5 -106t93 -76t189.5 -62q141 -33 226 -76t123.5 -112t38.5 -180v-21q0 -173 -111.5 -262.5t-333.5 -89.5zM426 1401l-222 247v2h139l165 -159h8l166 159h138v-2l-222 -247h-172z" />
    <glyph glyph-name="scaron" unicode="&#x161;" horiz-adv-x="882" 
d="M437 -22q-118 0 -206 25.5t-146 55.5l-15 150q73 -38 160.5 -66t198.5 -28q113 0 170 36t57 107v11q0 46 -21.5 76t-77.5 53t-159 46q-123 27 -194 63.5t-101.5 90.5t-30.5 132v9q0 128 89 194t268 66q115 0 199.5 -26t138.5 -58l15 -137q-65 38 -149 63t-189 25
q-76 0 -123 -15.5t-68 -44t-21 -68.5v-8q0 -44 21 -74.5t75.5 -53t151.5 -43.5q125 -25 198.5 -60t105.5 -88.5t32 -137.5v-17q0 -138 -96 -208t-283 -70zM352 1097l-191 267v2h129l146 -178h7l146 178h129v-2l-191 -267h-175z" />
    <glyph glyph-name="uni0162" unicode="&#x162;" horiz-adv-x="1062" 
d="M448 0v1251h166v-1251h-166zM65 1139v139h932v-139h-932zM591 15l-20 -152l-69 48q14 0 30.5 0.5t32.5 -0.5q99 -5 147 -40.5t48 -104.5v-5q0 -75 -54.5 -111.5t-156.5 -36.5q-41 0 -79 6.5t-66 13.5l-19 102q31 -10 67.5 -16.5t76.5 -6.5q54 0 82 15t28 44v3
q0 35 -35 49.5t-122 20.5q-9 1 -14.5 1h-8.5l21 170h111z" />
    <glyph glyph-name="uni0163" unicode="&#x163;" horiz-adv-x="791" 
d="M487 -20q-113 0 -182 34t-100 103t-31 172v616h160v-597q0 -96 44 -141.5t148 -45.5q59 0 113.5 13t102.5 37l-15 -139q-47 -24 -110 -38t-130 -14zM14 832v130h718l-15 -130h-703zM175 946l-1 274l163 21l-7 -295h-155zM511 17l-20 -152l-69 48q14 0 30.5 0.5t32.5 -0.5
q99 -5 147 -40.5t48 -104.5v-5q0 -75 -54.5 -111.5t-156.5 -36.5q-41 0 -79 6.5t-66 13.5l-19 102q31 -10 67.5 -16.5t76.5 -6.5q54 0 82 15t28 44v3q0 35 -35 49.5t-122 20.5q-9 1 -14.5 1h-8.5l21 170h111z" />
    <glyph glyph-name="Tcaron" unicode="&#x164;" horiz-adv-x="1062" 
d="M448 0v1251h166v-1251h-166zM65 1139v139h932v-139h-932zM444 1401l-222 247v2h139l165 -159h8l166 159h138v-2l-222 -247h-172z" />
    <glyph glyph-name="tcaron" unicode="&#x165;" horiz-adv-x="791" 
d="M711 1415l5 -35t3 -47q0 -84 -25 -155.5t-81 -135.5l-96 26q36 56 52.5 119.5t16.5 139.5q0 23 -2 44t-5 44h132zM487 -20q-113 0 -182 34t-100 103t-31 172v616h160v-597q0 -96 44 -141.5t148 -45.5q59 0 113.5 13t102.5 37l-15 -139q-47 -24 -110 -38t-130 -14zM14 832
v130h718l-15 -130h-703zM175 946l-1 274l163 21l-7 -295h-155z" />
    <glyph glyph-name="Tbar" unicode="&#x166;" horiz-adv-x="1062" 
d="M158 551v127h745v-127h-745zM448 0v1251h166v-1251h-166zM65 1139v139h932v-139h-932z" />
    <glyph glyph-name="tbar" unicode="&#x167;" horiz-adv-x="797" 
d="M487 -20q-112 0 -181 34t-100.5 102.5t-31.5 172.5v616h160v-596q0 -96 45.5 -142t156.5 -46q57 0 111 13.5t101 38.5l-15 -141q-47 -24 -110.5 -38t-135.5 -14zM28 458v116h674v-116h-674zM14 832v130h724l-14 -130h-710zM175 946l-1 274l163 21l-7 -295h-155z" />
    <glyph glyph-name="Utilde" unicode="&#x168;" horiz-adv-x="1220" 
d="M610 -24q-240 0 -354.5 123.5t-114.5 359.5v819h166v-823q0 -164 72 -250.5t231 -86.5q160 0 231.5 86.5t71.5 250.5v823h166v-819q0 -236 -114 -359.5t-355 -123.5zM751 1422q-39 0 -75 11t-69.5 25.5t-63.5 26t-58 11.5q-31 0 -43.5 -18t-12.5 -53v-13h-104v30
q0 78 32.5 124t112.5 46q39 0 75.5 -11t69.5 -26t63.5 -26t57.5 -11q31 0 43 18t12 53v13h103v-31q0 -78 -32.5 -123.5t-110.5 -45.5z" />
    <glyph glyph-name="utilde" unicode="&#x169;" horiz-adv-x="1066" 
d="M281 976v-607q0 -77 21.5 -134.5t70.5 -89t132 -31.5q78 0 134 28.5t91.5 78.5t48.5 113l29 -115h-35q-15 -66 -55 -120.5t-107.5 -87t-166.5 -32.5q-115 0 -186.5 43.5t-104.5 127t-33 201.5v625h161zM934 976v-976h-162l7 234l-7 10v732h162zM664 1124q-36 0 -69.5 12
t-65 28.5t-60 28.5t-53.5 12q-29 0 -41.5 -18.5t-12.5 -55.5v-17h-104v33q0 82 33 128t111 46q37 0 71 -12.5t65 -28t59 -28t53 -12.5q30 0 42 18.5t12 56.5v16h104v-33q0 -83 -33 -128.5t-111 -45.5z" />
    <glyph glyph-name="Umacron" unicode="&#x16a;" horiz-adv-x="1220" 
d="M610 -24q-240 0 -354.5 123.5t-114.5 359.5v819h166v-823q0 -164 72 -250.5t231 -86.5q160 0 231.5 86.5t71.5 250.5v823h166v-819q0 -236 -114 -359.5t-355 -123.5zM334 1459v111h549v-111h-549z" />
    <glyph glyph-name="umacron" unicode="&#x16b;" horiz-adv-x="1066" 
d="M281 976v-607q0 -77 21.5 -134.5t70.5 -89t132 -31.5q78 0 134 28.5t91.5 78.5t48.5 113l29 -115h-35q-15 -66 -55 -120.5t-107.5 -87t-166.5 -32.5q-115 0 -186.5 43.5t-104.5 127t-33 201.5v625h161zM934 976v-976h-162l7 234l-7 10v732h162zM258 1161v111h549v-111
h-549z" />
    <glyph glyph-name="Ubreve" unicode="&#x16c;" horiz-adv-x="1220" 
d="M610 -24q-240 0 -354.5 123.5t-114.5 359.5v819h166v-823q0 -164 72 -250.5t231 -86.5q160 0 231.5 86.5t71.5 250.5v823h166v-819q0 -236 -114 -359.5t-355 -123.5zM610 1395q-135 0 -197.5 66t-64.5 189h112q3 -73 40 -111t110 -38t110 38t41 111h111q-2 -123 -64 -189
t-198 -66z" />
    <glyph glyph-name="ubreve" unicode="&#x16d;" horiz-adv-x="1066" 
d="M281 976v-607q0 -77 21.5 -134.5t70.5 -89t132 -31.5q78 0 134 28.5t91.5 78.5t48.5 113l29 -115h-35q-15 -66 -55 -120.5t-107.5 -87t-166.5 -32.5q-115 0 -186.5 43.5t-104.5 127t-33 201.5v625h161zM934 976v-976h-162l7 234l-7 10v732h162zM533 1089
q-133 0 -194.5 71.5t-63.5 205.5h112q3 -85 38.5 -128t107.5 -43t107.5 43t39.5 128h112q-2 -134 -63 -205.5t-196 -71.5z" />
    <glyph glyph-name="Uring" unicode="&#x16e;" horiz-adv-x="1220" 
d="M610 -24q-240 0 -354.5 123.5t-114.5 359.5v819h166v-823q0 -164 72 -250.5t231 -86.5q160 0 231.5 86.5t71.5 250.5v823h166v-819q0 -236 -114 -359.5t-355 -123.5zM421 1526v3q0 75 48 119.5t141 44.5t140.5 -44.5t47.5 -119.5v-3q0 -74 -47.5 -119t-140.5 -45t-141 45
t-48 119zM519 1526q0 -39 23.5 -60.5t67.5 -21.5q45 0 68 21.5t23 60.5v3q0 39 -23 60.5t-68 21.5q-44 0 -67.5 -21.5t-23.5 -60.5v-3z" />
    <glyph glyph-name="uring" unicode="&#x16f;" horiz-adv-x="1066" 
d="M281 976v-607q0 -77 21.5 -134.5t70.5 -89t132 -31.5q78 0 134 28.5t91.5 78.5t48.5 113l29 -115h-35q-15 -66 -55 -120.5t-107.5 -87t-166.5 -32.5q-115 0 -186.5 43.5t-104.5 127t-33 201.5v625h161zM934 976v-976h-162l7 234l-7 10v732h162zM344 1248v3q0 75 48 119.5
t141 44.5t140.5 -44.5t47.5 -119.5v-3q0 -74 -47.5 -119t-140.5 -45t-141 45t-48 119zM442 1248q0 -39 23.5 -60.5t67.5 -21.5q45 0 68 21.5t23 60.5v3q0 39 -23 60.5t-68 21.5q-44 0 -67.5 -21.5t-23.5 -60.5v-3z" />
    <glyph glyph-name="Uhungarumlaut" unicode="&#x170;" horiz-adv-x="1220" 
d="M610 -24q-240 0 -354.5 123.5t-114.5 359.5v819h166v-823q0 -164 72 -250.5t231 -86.5q160 0 231.5 86.5t71.5 250.5v823h166v-819q0 -236 -114 -359.5t-355 -123.5zM852 1650h155v-2l-193 -247h-126v2zM569 1650h154v-3l-195 -246h-125v2z" />
    <glyph glyph-name="uhungarumlaut" unicode="&#x171;" horiz-adv-x="1066" 
d="M281 976v-607q0 -77 21.5 -134.5t70.5 -89t132 -31.5q78 0 134 28.5t91.5 78.5t48.5 113l29 -115h-35q-15 -66 -55 -120.5t-107.5 -87t-166.5 -32.5q-115 0 -186.5 43.5t-104.5 127t-33 201.5v625h161zM934 976v-976h-162l7 234l-7 10v732h162zM759 1366h154v-1
l-177 -268h-125v1zM473 1366h154v-4l-177 -265h-124v1z" />
    <glyph glyph-name="Uogonek" unicode="&#x172;" horiz-adv-x="1220" 
d="M749 -363q-89 0 -142 38.5t-53 114.5v2q0 64 37.5 110.5t105.5 75.5v19l109 75v-67q-61 -35 -95 -75t-34 -91v-1q0 -44 30.5 -64.5t82.5 -20.5q27 0 53.5 4.5t53.5 15.5l-17 -112q-25 -12 -60 -18t-71 -6zM610 -24q-240 0 -354.5 123.5t-114.5 359.5v819h166v-823
q0 -164 72 -250.5t231 -86.5q160 0 231.5 86.5t71.5 250.5v823h166v-819q0 -236 -114 -359.5t-355 -123.5z" />
    <glyph glyph-name="uogonek" unicode="&#x173;" horiz-adv-x="1066" 
d="M281 976v-607q0 -77 21.5 -134.5t70.5 -89t132 -31.5q78 0 134 28.5t91.5 78.5t48.5 113l29 -115h-35q-15 -66 -55 -120.5t-107.5 -87t-166.5 -32.5q-115 0 -186.5 43.5t-104.5 127t-33 201.5v625h161zM934 976v-976h-162l7 234l-7 10v732h162zM852 -363
q-84 0 -134.5 38.5t-50.5 115.5v1q0 73 41.5 122t116.5 83v15l107 1v-13q-67 -34 -104.5 -72t-37.5 -89v-1q0 -44 27.5 -64.5t74.5 -20.5q25 0 48 4.5t47 13.5l-16 -113q-23 -10 -54.5 -15.5t-64.5 -5.5z" />
    <glyph glyph-name="Wcircumflex" unicode="&#x174;" horiz-adv-x="1635" 
d="M329 0l-264 1278h170l186 -955l35 -184h18l34 184l187 922h245l187 -922l34 -184h18l36 184l186 955h168l-263 -1278h-262l-148 735l-70 373h-16l-71 -373l-146 -735h-264zM732 1650h172l222 -247v-2h-139l-165 158h-8l-166 -158h-138v2z" />
    <glyph glyph-name="wcircumflex" unicode="&#x175;" horiz-adv-x="1497" 
d="M296 0l-240 976h167l192 -858h19l200 832h229l200 -832h18l194 858h166l-240 -976h-248l-165 694l-32 139h-15l-31 -139l-165 -694h-249zM661 1366h175l191 -267v-2h-129l-146 178h-7l-146 -178h-129v2z" />
    <glyph glyph-name="Ycircumflex" unicode="&#x176;" horiz-adv-x="1096" 
d="M477 384l-439 894h175l235 -489l94 -212h13l94 212l234 489h176l-439 -894h-143zM467 0v539h163v-539h-163zM462 1650h172l222 -247v-2h-139l-165 158h-8l-166 -158h-138v2z" />
    <glyph glyph-name="ycircumflex" unicode="&#x177;" horiz-adv-x="988" 
d="M571 151l-85 -37l292 862h167l-459 -1320h-164l154 446l71 -62h-184l-319 936h168l266 -825h93zM407 1366h175l191 -267v-2h-129l-146 178h-7l-146 -178h-129v2z" />
    <glyph glyph-name="Ydieresis" unicode="&#x178;" horiz-adv-x="1096" 
d="M477 384l-439 894h175l235 -489l94 -212h13l94 212l234 489h176l-439 -894h-143zM467 0v539h163v-539h-163zM395 1432q-43 0 -65 24.5t-22 69.5v7q0 45 22 69t65 24q45 0 66.5 -24t21.5 -69v-7q0 -45 -21.5 -69.5t-66.5 -24.5zM701 1432q-44 0 -65.5 24.5t-21.5 69.5v7
q0 45 21.5 69t65.5 24q43 0 64.5 -24t21.5 -69v-7q0 -45 -21.5 -69.5t-64.5 -24.5z" />
    <glyph glyph-name="Zacute" unicode="&#x179;" horiz-adv-x="1036" 
d="M950 140v-140h-864v131l665 1009h-659v138h851v-129l-665 -1009h672zM685 1650h188v-3l-273 -246h-156v2z" />
    <glyph glyph-name="zacute" unicode="&#x17a;" horiz-adv-x="903" 
d="M822 134v-134h-741v122l543 721h-541v133h735v-121l-543 -721h547zM575 1366h180v-3l-230 -266h-144v2z" />
    <glyph glyph-name="Zdotaccent" unicode="&#x17b;" horiz-adv-x="1036" 
d="M950 140v-140h-864v131l665 1009h-659v138h851v-129l-665 -1009h672zM518 1431q-45 0 -68.5 24.5t-23.5 68.5v5q0 43 23.5 67.5t68.5 24.5q46 0 69.5 -24.5t23.5 -67.5v-5q0 -44 -23.5 -68.5t-69.5 -24.5z" />
    <glyph glyph-name="zdotaccent" unicode="&#x17c;" horiz-adv-x="903" 
d="M822 134v-134h-741v122l543 721h-541v133h735v-121l-543 -721h547zM450 1135q-48 0 -71.5 25t-23.5 71v6q0 45 23.5 70.5t71.5 25.5q49 0 72.5 -25.5t23.5 -70.5v-6q0 -46 -23.5 -71t-72.5 -25z" />
    <glyph glyph-name="Zcaron" unicode="&#x17d;" horiz-adv-x="1036" 
d="M950 140v-140h-864v131l665 1009h-659v138h851v-129l-665 -1009h672zM432 1401l-222 247v2h139l165 -159h8l166 159h138v-2l-222 -247h-172z" />
    <glyph glyph-name="zcaron" unicode="&#x17e;" horiz-adv-x="903" 
d="M822 134v-134h-741v122l543 721h-541v133h735v-121l-543 -721h547zM364 1097l-191 267v2h129l146 -178h7l146 178h129v-2l-191 -267h-175z" />
    <glyph glyph-name="uni018F" unicode="&#x18f;" horiz-adv-x="1161" 
d="M575 -24q-238 0 -359 131t-121 353v76q0 46 3 92t8 87h850v-131h-737l41 46v-180q0 -160 79 -247.5t236 -87.5q159 0 236 89.5t77 249.5v323q0 182 -86 281.5t-279 99.5q-113 0 -217 -34.5t-189 -89.5l17 155q51 33 115 58t140.5 40t163.5 15q250 0 377 -135.5
t127 -388.5v-306q0 -156 -55.5 -267.5t-162.5 -170t-264 -58.5z" />
    <glyph glyph-name="florin" unicode="&#x192;" horiz-adv-x="854" 
d="M50 810l8 129h704l-9 -129h-703zM826 1174q-53 20 -113 32t-124 12q-110 0 -159.5 -44t-57.5 -145l-96 -1373h-158l99 1381q8 112 45 181.5t109 101.5t184 32q78 0 144 -14t121 -35z" />
    <glyph glyph-name="Ohorn" unicode="&#x1a0;" horiz-adv-x="1197" 
d="M598 -24q-242 0 -368 133.5t-126 382.5v295q0 248 126 381.5t368 133.5t368 -133.5t126 -381.5v-295q0 -249 -126 -382.5t-368 -133.5zM598 115q162 0 244 96.5t82 273.5v309q0 177 -82 273t-244 96q-161 0 -243 -96t-82 -273v-309q0 -177 82 -273.5t243 -96.5zM881 1175
l-51 78q85 22 128 60.5t43 105.5q0 27 -6 51.5t-15 46.5h146q9 -22 15 -48t6 -56q0 -96 -63 -155t-203 -83z" />
    <glyph glyph-name="ohorn" unicode="&#x1a1;" horiz-adv-x="1040" 
d="M520 -25q-210 0 -318.5 113.5t-108.5 326.5v149q0 212 109 325t318 113q210 0 318.5 -113t108.5 -325v-149q0 -213 -108.5 -326.5t-318.5 -113.5zM520 107q130 0 197.5 77t67.5 222v167q0 144 -67.5 220.5t-197.5 76.5q-129 0 -197 -76.5t-68 -220.5v-167q0 -145 68 -222
t197 -77zM769 892l-54 74q82 15 124.5 54.5t42.5 101.5q0 28 -6 53t-14 48h145q8 -23 14 -49t6 -58q0 -89 -61 -147t-197 -77z" />
    <glyph glyph-name="Uhorn" unicode="&#x1af;" horiz-adv-x="1220" 
d="M610 -24q-240 0 -354.5 123.5t-114.5 359.5v819h166v-823q0 -164 72 -250.5t231 -86.5q160 0 231.5 86.5t71.5 250.5v823h166v-819q0 -236 -114 -359.5t-355 -123.5zM1014 1200l-43 67q74 20 111 55t37 97q0 26 -5.5 50.5t-14.5 47.5h146q8 -22 14.5 -48.5t6.5 -56.5
q0 -89 -61 -140.5t-191 -71.5z" />
    <glyph glyph-name="uhorn" unicode="&#x1b0;" horiz-adv-x="1066" 
d="M281 976v-607q0 -77 21.5 -134.5t70.5 -89t132 -31.5q78 0 134 28.5t91.5 78.5t48.5 113l29 -115h-35q-15 -66 -55 -120.5t-107.5 -87t-166.5 -32.5q-115 0 -186.5 43.5t-104.5 127t-33 201.5v625h161zM934 976v-976h-162l7 234l-7 10v732h162zM882 903l-47 68
q70 19 106 55.5t36 97.5q0 27 -6 51.5t-14 47.5h145q8 -23 14 -48.5t6 -56.5q0 -86 -57.5 -139.5t-182.5 -75.5z" />
    <glyph glyph-name="uni01C4" unicode="&#x1c4;" horiz-adv-x="2175" 
d="M263 0v140h310q170 0 255.5 92.5t85.5 264.5v285q0 173 -85.5 265t-255.5 92h-311v139h317q248 0 375 -127.5t127 -367.5v-287q0 -239 -127 -367.5t-375 -128.5h-316zM151 0v1278h164v-1278h-164zM2089 140v-140h-864v131l665 1009h-659v138h851v-129l-665 -1009h672z
M1571 1401l-222 247v2h139l165 -159h8l166 159h138v-2l-222 -247h-172z" />
    <glyph glyph-name="uni01C5" unicode="&#x1c5;" horiz-adv-x="2079" 
d="M263 0v140h310q170 0 255.5 92.5t85.5 264.5v285q0 173 -85.5 265t-255.5 92h-311v139h317q248 0 375 -127.5t127 -367.5v-287q0 -239 -127 -367.5t-375 -128.5h-316zM151 0v1278h164v-1278h-164zM1999 134v-134h-741v122l543 721h-541v133h735v-121l-543 -721h547z
M1540 1097l-191 267v2h129l146 -178h7l146 178h129v-2l-191 -267h-175z" />
    <glyph glyph-name="uni01C6" unicode="&#x1c6;" horiz-adv-x="1977" 
d="M454 -21q-176 0 -268 109t-92 318v161q0 210 93 320.5t274 110.5q90 0 156 -30.5t107 -85.5t55 -130h53l-48 -149q-3 86 -38.5 144.5t-96 88.5t-138.5 30q-124 0 -189.5 -72t-65.5 -212v-186q0 -138 65.5 -210t189.5 -72q74 0 131 28.5t94.5 79t51.5 114.5l40 -116h-48
q-14 -66 -53.5 -121t-106 -87.5t-166.5 -32.5zM780 0l7 236l-3 52v408l1 34l-4 277v318h161v-1325h-162zM1896 134v-134h-741v122l543 721h-541v133h735v-121l-543 -721h547zM1438 1097l-191 267v2h129l146 -178h7l146 178h129v-2l-191 -267h-175z" />
    <glyph glyph-name="uni01C7" unicode="&#x1c7;" horiz-adv-x="1800" 
d="M317 0h-166v1278h166v-1278zM240 141h674v-141h-674v141zM1288 -16q-65 0 -127 11t-112 31l-12 149q52 -24 106.5 -35.5t111.5 -11.5q134 0 185 62t51 189v899h166v-909q0 -189 -84 -287t-285 -98z" />
    <glyph glyph-name="uni01C8" unicode="&#x1c8;" horiz-adv-x="1442" 
d="M317 0h-166v1278h166v-1278zM240 141h674v-141h-674v141zM1145 133v843h162v-843h-162zM1226 1136q-50 0 -74.5 26.5t-24.5 72.5v5q0 47 24.5 73t74.5 26t75 -26t25 -73v-5q0 -47 -25 -73t-75 -26zM1026 -357q-43 0 -81 7.5t-65 17.5l-14 134q28 -13 58.5 -19.5
t63.5 -6.5q90 0 123.5 48.5t33.5 139.5v309h162v-317q0 -98 -27 -168t-89 -107.5t-165 -37.5z" />
    <glyph glyph-name="uni01C9" unicode="&#x1c9;" horiz-adv-x="896" 
d="M137 0v1325h161v-1325h-161zM598 133v843h162v-843h-162zM679 1136q-50 0 -74.5 26.5t-24.5 72.5v5q0 47 24.5 73t74.5 26t75 -26t25 -73v-5q0 -47 -25 -73t-75 -26zM479 -357q-43 0 -81 7.5t-65 17.5l-14 134q28 -13 58.5 -19.5t63.5 -6.5q90 0 123.5 48.5t33.5 139.5
v309h162v-317q0 -98 -27 -168t-89 -107.5t-165 -37.5z" />
    <glyph glyph-name="uni01CA" unicode="&#x1ca;" horiz-adv-x="2064" 
d="M403 1278l519 -1100h12l-7 558v542h162v-1278h-246l-525 1109h-12l7 -584v-525h-162v1278h252zM1552 -16q-65 0 -127 11t-112 31l-12 149q52 -24 106.5 -35.5t111.5 -11.5q134 0 185 62t51 189v899h166v-909q0 -189 -84 -287t-285 -98z" />
    <glyph glyph-name="uni01CB" unicode="&#x1cb;" horiz-adv-x="1701" 
d="M403 1278l519 -1100h12l-7 558v542h162v-1278h-246l-525 1109h-12l7 -584v-525h-162v1278h252zM1403 133v843h162v-843h-162zM1484 1136q-50 0 -74.5 26.5t-24.5 72.5v5q0 47 24.5 73t74.5 26t75 -26t25 -73v-5q0 -47 -25 -73t-75 -26zM1284 -357q-43 0 -81 7.5t-65 17.5
l-14 134q28 -13 58.5 -19.5t63.5 -6.5q90 0 123.5 48.5t33.5 139.5v309h162v-317q0 -98 -27 -168t-89 -107.5t-165 -37.5z" />
    <glyph glyph-name="uni01CC" unicode="&#x1cc;" horiz-adv-x="1527" 
d="M785 0v607q0 79 -21.5 136t-70 88.5t-132.5 31.5q-77 0 -133.5 -29t-91.5 -78.5t-49 -112.5l-29 115h35q16 66 56 120.5t107.5 87t165.5 32.5q116 0 187.5 -44t104.5 -126.5t33 -202.5v-625h-162zM132 0v976h162l-7 -234l7 -9v-733h-162zM1229 133v843h162v-843h-162z
M1310 1136q-50 0 -74.5 26.5t-24.5 72.5v5q0 47 24.5 73t74.5 26t75 -26t25 -73v-5q0 -47 -25 -73t-75 -26zM1110 -357q-43 0 -81 7.5t-65 17.5l-14 134q28 -13 58.5 -19.5t63.5 -6.5q90 0 123.5 48.5t33.5 139.5v309h162v-317q0 -98 -27 -168t-89 -107.5t-165 -37.5z" />
    <glyph glyph-name="Gcaron" unicode="&#x1e6;" horiz-adv-x="1180" 
d="M544 -24q-145 0 -243 58.5t-147.5 170.5t-49.5 271v302q0 252 129.5 387.5t380.5 135.5q90 0 163.5 -14.5t130.5 -38t98 -49.5l15 -150q-69 44 -162.5 77t-216.5 33q-186 0 -277.5 -99t-91.5 -285v-298q0 -172 80.5 -265.5t241.5 -93.5q82 0 140.5 28t96 74t54.5 101v315
l27 -59h-301v138h436v-505l-163 1q-16 -62 -55 -116t-109 -86.5t-177 -32.5zM893 264h155v-264h-162zM500 1401l-222 247v2h139l165 -159h8l166 159h138v-2l-222 -247h-172z" />
    <glyph glyph-name="gcaron" unicode="&#x1e7;" horiz-adv-x="1025" 
d="M512 292q-199 0 -305.5 87t-106.5 249v25q0 101 41.5 176t132.5 117.5t238 46.5l498 16v-128l-294 10l-1 -7q69 -14 113 -48t65.5 -85t21.5 -119v-22q0 -155 -102 -236.5t-301 -81.5zM505 -246h23q90 0 154.5 13.5t99.5 42.5t35 77v4q0 56 -40.5 85.5t-138.5 38.5
l-276 25l46 2q-56 -8 -98.5 -26t-66.5 -47.5t-24 -73.5v-2q0 -51 35 -82t99 -44t152 -13zM496 -375q-132 0 -227.5 22.5t-148 73t-52.5 135.5v4q0 60 28.5 100t77 63t108.5 31l-1 6q-82 14 -121 48.5t-39 89.5v1q0 38 17.5 65t53 43t90.5 20v20l186 -47l-76 2
q-68 -1 -94 -16.5t-26 -46.5v-1q0 -33 37 -50t126 -27l237 -24q155 -16 226 -74.5t71 -172.5v-5q0 -91 -54 -149t-153 -84.5t-237 -26.5h-29zM510 412q84 0 139.5 24.5t84 74t28.5 121.5v24q0 70 -27.5 119t-82.5 74.5t-138 25.5h-6q-90 0 -146.5 -27.5t-82 -77
t-25.5 -115.5v-23q0 -72 28.5 -121t85.5 -74t142 -25zM425 1100l-191 267v2h129l146 -178h7l146 178h129v-2l-191 -267h-175z" />
    <glyph glyph-name="uni01EA" unicode="&#x1ea;" horiz-adv-x="1226" 
d="M733 -363q-90 0 -142.5 38.5t-52.5 114.5v2q0 64 37.5 110.5t105.5 75.5v19l108 52v-44q-60 -35 -94 -75t-34 -91v-1q0 -44 30 -64.5t83 -20.5q27 0 53.5 4.5t52.5 15.5l-16 -112q-26 -12 -60.5 -18t-70.5 -6zM598 -24q-242 0 -368 133.5t-126 382.5v295q0 248 126 381.5
t368 133.5t368 -133.5t126 -381.5v-295q0 -249 -126 -382.5t-368 -133.5zM598 115q162 0 244 96.5t82 273.5v309q0 177 -82 273t-244 96q-161 0 -243 -96t-82 -273v-309q0 -177 82 -273.5t243 -96.5z" />
    <glyph glyph-name="uni01EB" unicode="&#x1eb;" horiz-adv-x="1053" 
d="M657 -363q-91 0 -144 38.5t-53 114.5v1q0 64 36.5 110.5t101.5 76.5v17l112 25v-13q-59 -35 -93 -74.5t-34 -92.5v-1q0 -43 30.5 -64.5t84.5 -21.5q28 0 54 5t54 16l-17 -113q-25 -11 -60 -17.5t-72 -6.5zM520 -25q-210 0 -318.5 113.5t-108.5 326.5v149q0 212 109 325
t318 113q210 0 318.5 -113t108.5 -325v-149q0 -213 -108.5 -326.5t-318.5 -113.5zM520 107q130 0 197.5 77t67.5 222v167q0 144 -67.5 220.5t-197.5 76.5q-129 0 -197 -76.5t-68 -220.5v-167q0 -145 68 -222t197 -77z" />
    <glyph glyph-name="uni01F1" unicode="&#x1f1;" horiz-adv-x="2175" 
d="M263 0v140h310q170 0 255.5 92.5t85.5 264.5v285q0 173 -85.5 265t-255.5 92h-311v139h317q248 0 375 -127.5t127 -367.5v-287q0 -239 -127 -367.5t-375 -128.5h-316zM151 0v1278h164v-1278h-164zM2089 140v-140h-864v131l665 1009h-659v138h851v-129l-665 -1009h672z
" />
    <glyph glyph-name="uni01F2" unicode="&#x1f2;" horiz-adv-x="2079" 
d="M263 0v140h310q170 0 255.5 92.5t85.5 264.5v285q0 173 -85.5 265t-255.5 92h-311v139h317q248 0 375 -127.5t127 -367.5v-287q0 -239 -127 -367.5t-375 -128.5h-316zM151 0v1278h164v-1278h-164zM1999 134v-134h-741v122l543 721h-541v133h735v-121l-543 -721h547z" />
    <glyph glyph-name="uni01F3" unicode="&#x1f3;" horiz-adv-x="1977" 
d="M454 -21q-176 0 -268 109t-92 318v161q0 210 93 320.5t274 110.5q90 0 156 -30.5t107 -85.5t55 -130h53l-48 -149q-3 86 -38.5 144.5t-96 88.5t-138.5 30q-124 0 -189.5 -72t-65.5 -212v-186q0 -138 65.5 -210t189.5 -72q74 0 131 28.5t94.5 79t51.5 114.5l40 -116h-48
q-14 -66 -53.5 -121t-106 -87.5t-166.5 -32.5zM780 0l7 236l-3 52v408l1 34l-4 277v318h161v-1325h-162zM1896 134v-134h-741v122l543 721h-541v133h735v-121l-543 -721h547z" />
    <glyph glyph-name="Aringacute" unicode="&#x1fa;" horiz-adv-x="1161" 
d="M677 1992h150v-2l-182 -220h-123v2zM49 0l400 1278h262l401 -1278h-168l-351 1166h-25l-351 -1166h-168zM289 377v138h582v-138h-582zM392 1526v3q0 75 47.5 119.5t141.5 44.5q93 0 140.5 -44.5t47.5 -119.5v-3q0 -74 -47.5 -119t-140.5 -45q-94 0 -141.5 45t-47.5 119z
M489 1526q0 -39 24 -60.5t68 -21.5t67.5 21.5t23.5 60.5v3q0 39 -23.5 60.5t-67.5 21.5t-68 -21.5t-24 -60.5v-3z" />
    <glyph glyph-name="aringacute" unicode="&#x1fb;" horiz-adv-x="988" 
d="M585 1738h150v-2l-183 -236h-122v2zM711 0l7 237l-6 25v311l1 57q0 119 -60.5 176t-191.5 57q-105 0 -192.5 -30t-155.5 -70l15 138q38 23 90.5 45.5t120 37.5t148.5 15q105 0 178.5 -25.5t119 -73.5t66.5 -116t21 -152v-632h-161zM375 -21q-145 0 -222.5 70.5
t-77.5 201.5v29q0 135 83.5 201.5t265.5 92.5l309 44l9 -118l-298 -43q-112 -16 -160 -54.5t-48 -113.5v-16q0 -77 47.5 -118t142.5 -41q84 0 144 29t97 78t50 109l25 -110h-31q-14 -64 -52.5 -119t-107.5 -88.5t-176 -33.5zM297 1248v3q0 75 48 119.5t141 44.5t140.5 -44.5
t47.5 -119.5v-3q0 -74 -47.5 -119t-140.5 -45t-141 45t-48 119zM395 1248q0 -39 23.5 -60.5t67.5 -21.5q45 0 68 21.5t23 60.5v3q0 39 -23 60.5t-68 21.5q-44 0 -67.5 -21.5t-23.5 -60.5v-3z" />
    <glyph glyph-name="AEacute" unicode="&#x1fc;" horiz-adv-x="1748" 
d="M47 0l640 1278h194v-112h-81l-577 -1166h-176zM346 377v138h565v-138h-565zM902 0v139h748v-139h-748zM853 0v1278h164v-1278h-164zM947 583v138h681v-138h-681zM901 1139v139h742v-139h-742zM1039 1650h188v-3l-273 -246h-156v2z" />
    <glyph glyph-name="aeacute" unicode="&#x1fd;" horiz-adv-x="1618" 
d="M1161 -22q-182 0 -289 75t-138 209l-16 33q-4 51 -5.5 100.5t-0.5 104.5l1 122q0 122 -63.5 181.5t-189.5 59.5q-105 0 -192 -30t-155 -70l15 138q37 23 87 45.5t114.5 37.5t140.5 15q142 0 219.5 -63t99.5 -172h2q29 108 118.5 173t234.5 65q129 0 215.5 -50.5
t130.5 -143.5t44 -222v-36q0 -32 -2.5 -64t-6.5 -63h-149q2 48 2.5 90.5t0.5 79.5q0 89 -28.5 150.5t-84.5 94t-140 32.5q-127 0 -190 -74.5t-63 -207.5v-95v-20v-84q0 -62 18 -112.5t56.5 -86.5t98 -55.5t141.5 -19.5q95 0 176.5 25t154.5 68l-15 -140
q-65 -41 -151.5 -65.5t-190.5 -24.5zM383 -21q-151 0 -229.5 71t-78.5 201v29q0 135 84.5 201.5t264.5 92.5l309 44l9 -118l-298 -43q-112 -16 -160 -54.5t-48 -113.5v-16q0 -77 48 -118t143 -41q84 0 144.5 28t98.5 77.5t51 109.5l53 -106h-29q-20 -68 -63.5 -123.5
t-116.5 -88t-182 -32.5zM797 423v123h694v-123h-694zM933 1366h180v-3l-230 -266h-144v2z" />
    <glyph glyph-name="Oslashacute" unicode="&#x1fe;" horiz-adv-x="1197" 
d="M598 -24q-158 0 -268 61.5t-168 177.5t-58 277v295q0 248 126 381.5t368 133.5q158 0 268 -61.5t168 -177t58 -276.5v-295q0 -249 -126 -382.5t-368 -133.5zM117 -68l137 221l37 49l536 969l17 36l84 139h152l-136 -215l-35 -51l-532 -963l-14 -25l-94 -160h-152z
M598 115q162 0 244 96.5t82 273.5v309q0 177 -79.5 273t-246.5 96q-161 0 -243 -96t-82 -273v-309q0 -177 78.5 -273.5t246.5 -96.5zM765 1650h188v-3l-273 -246h-156v2z" />
    <glyph glyph-name="oslashacute" unicode="&#x1ff;" horiz-adv-x="1040" 
d="M520 -25q-140 0 -235 51t-143.5 149.5t-48.5 239.5v149q0 212 109 325t318 113q140 0 235 -50.5t143.5 -148t48.5 -239.5v-149q0 -213 -108.5 -326.5t-318.5 -113.5zM113 -68l120 187l36 48l425 725l22 37l71 116h139l-113 -174l-36 -50l-422 -722l-23 -42l-78 -125h-141
zM520 107q130 0 197.5 77t67.5 222v167q0 144 -67.5 220.5t-197.5 76.5q-129 0 -197 -76.5t-68 -220.5v-167q0 -145 68 -222t197 -77zM643 1366h180v-3l-230 -266h-144v2z" />
    <glyph glyph-name="uni0200" unicode="&#x200;" horiz-adv-x="1161" 
d="M49 0l400 1278h262l401 -1278h-168l-351 1166h-25l-351 -1166h-168zM289 377v138h582v-138h-582zM338 1650l164 -247v-2h-126l-193 247v2h155zM622 1650l165 -247v-2h-125l-195 246v3h155z" />
    <glyph glyph-name="uni0201" unicode="&#x201;" horiz-adv-x="988" 
d="M711 0l7 237l-6 25v311l1 57q0 119 -60.5 176t-191.5 57q-105 0 -192.5 -30t-155.5 -70l15 138q38 23 90.5 45.5t120 37.5t148.5 15q105 0 178.5 -25.5t119 -73.5t66.5 -116t21 -152v-632h-161zM375 -21q-145 0 -222.5 70.5t-77.5 201.5v29q0 135 83.5 201.5t265.5 92.5
l309 44l9 -118l-298 -43q-112 -16 -160 -54.5t-48 -113.5v-16q0 -77 47.5 -118t142.5 -41q84 0 144 29t97 78t50 109l25 -110h-31q-14 -64 -52.5 -119t-107.5 -88.5t-176 -33.5zM259 1366l148 -268v-1h-125l-177 268v1h154zM545 1366l147 -268v-1h-125l-176 265v4h154z" />
    <glyph glyph-name="uni0202" unicode="&#x202;" horiz-adv-x="1161" 
d="M49 0l400 1278h262l401 -1278h-168l-351 1166h-25l-351 -1166h-168zM289 377v138h582v-138h-582zM581 1656q136 0 198 -66t64 -189h-111q-4 74 -41 111t-110 37t-110 -37.5t-40 -110.5h-112q2 123 64.5 189t197.5 66z" />
    <glyph glyph-name="uni0203" unicode="&#x203;" horiz-adv-x="988" 
d="M711 0l7 237l-6 25v311l1 57q0 119 -60.5 176t-191.5 57q-105 0 -192.5 -30t-155.5 -70l15 138q38 23 90.5 45.5t120 37.5t148.5 15q105 0 178.5 -25.5t119 -73.5t66.5 -116t21 -152v-632h-161zM375 -21q-145 0 -222.5 70.5t-77.5 201.5v29q0 135 83.5 201.5t265.5 92.5
l309 44l9 -118l-298 -43q-112 -16 -160 -54.5t-48 -113.5v-16q0 -77 47.5 -118t142.5 -41q84 0 144 29t97 78t50 109l25 -110h-31q-14 -64 -52.5 -119t-107.5 -88.5t-176 -33.5zM486 1374q135 0 196 -71.5t63 -205.5h-112q-4 85 -39.5 128t-107.5 43t-107.5 -43t-38.5 -128
h-112q2 134 63.5 205.5t194.5 71.5z" />
    <glyph glyph-name="uni0204" unicode="&#x204;" horiz-adv-x="1046" 
d="M151 0v1278h164v-1278h-164zM200 0v139h748v-139h-748zM245 583v138h682v-138h-682zM199 1139v139h743v-139h-743zM311 1650l164 -247v-2h-126l-193 247v2h155zM595 1650l165 -247v-2h-125l-195 246v3h155z" />
    <glyph glyph-name="uni0205" unicode="&#x205;" horiz-adv-x="999" 
d="M542 -22q-223 0 -336 109t-113 312v174q0 206 105 317.5t307 111.5q136 0 227 -50.5t137 -143.5t46 -222v-36q0 -32 -2.5 -64t-6.5 -63h-149q2 48 2.5 91t0.5 79q0 89 -28.5 150.5t-85 94t-141.5 32.5q-126 0 -189 -73t-63 -209v-93l1 -20v-93q0 -61 18 -110t56.5 -84.5
t98 -54t141.5 -18.5q95 0 177 25t154 68l-15 -140q-65 -41 -151 -65.5t-191 -24.5zM178 423v122h694v-122h-694zM282 1366l148 -268v-1h-125l-177 268v1h154zM568 1366l147 -268v-1h-125l-176 265v4h154z" />
    <glyph glyph-name="uni0206" unicode="&#x206;" horiz-adv-x="1046" 
d="M151 0v1278h164v-1278h-164zM200 0v139h748v-139h-748zM245 583v138h682v-138h-682zM199 1139v139h743v-139h-743zM554 1656q136 0 198 -66t64 -189h-111q-4 74 -41 111t-110 37t-110 -37.5t-40 -110.5h-112q2 123 64.5 189t197.5 66z" />
    <glyph glyph-name="uni0207" unicode="&#x207;" horiz-adv-x="999" 
d="M542 -22q-223 0 -336 109t-113 312v174q0 206 105 317.5t307 111.5q136 0 227 -50.5t137 -143.5t46 -222v-36q0 -32 -2.5 -64t-6.5 -63h-149q2 48 2.5 91t0.5 79q0 89 -28.5 150.5t-85 94t-141.5 32.5q-126 0 -189 -73t-63 -209v-93l1 -20v-93q0 -61 18 -110t56.5 -84.5
t98 -54t141.5 -18.5q95 0 177 25t154 68l-15 -140q-65 -41 -151 -65.5t-191 -24.5zM178 423v122h694v-122h-694zM509 1374q135 0 196 -71.5t63 -205.5h-112q-4 85 -39.5 128t-107.5 43t-107.5 -43t-38.5 -128h-112q2 134 63.5 205.5t194.5 71.5z" />
    <glyph glyph-name="uni0208" unicode="&#x208;" horiz-adv-x="472" 
d="M319 0h-166v1278h166v-1278zM-8 1650l164 -247v-2h-126l-193 247v2h155zM276 1650l165 -247v-2h-125l-195 246v3h155z" />
    <glyph glyph-name="uni0209" unicode="&#x209;" horiz-adv-x="432" 
d="M136 0v976h162v-976h-162zM43 1366l109 -268v-1h-112l-135 268v1h138zM299 1366l96 -268v-1h-113l-122 265v4h139z" />
    <glyph glyph-name="uni020A" unicode="&#x20a;" horiz-adv-x="472" 
d="M319 0h-166v1278h166v-1278zM235 1656q136 0 198 -66t64 -189h-111q-4 74 -41 111t-110 37t-110 -37.5t-40 -110.5h-112q2 123 64.5 189t197.5 66z" />
    <glyph glyph-name="uni020B" unicode="&#x20b;" horiz-adv-x="432" 
d="M136 0v976h162v-976h-162zM218 1374q121 0 171.5 -70t52.5 -207h-108q-1 88 -28 130t-88 42q-62 0 -89 -42t-28 -130h-108q2 137 53 207t172 70z" />
    <glyph glyph-name="uni020C" unicode="&#x20c;" horiz-adv-x="1197" 
d="M598 -24q-242 0 -368 133.5t-126 382.5v295q0 248 126 381.5t368 133.5t368 -133.5t126 -381.5v-295q0 -249 -126 -382.5t-368 -133.5zM598 115q162 0 244 96.5t82 273.5v309q0 177 -82 273t-244 96q-161 0 -243 -96t-82 -273v-309q0 -177 82 -273.5t243 -96.5zM355 1650
l164 -247v-2h-126l-193 247v2h155zM639 1650l165 -247v-2h-125l-195 246v3h155z" />
    <glyph glyph-name="uni020D" unicode="&#x20d;" horiz-adv-x="1040" 
d="M520 -25q-210 0 -318.5 113.5t-108.5 326.5v149q0 212 109 325t318 113q210 0 318.5 -113t108.5 -325v-149q0 -213 -108.5 -326.5t-318.5 -113.5zM520 107q130 0 197.5 77t67.5 222v167q0 144 -67.5 220.5t-197.5 76.5q-129 0 -197 -76.5t-68 -220.5v-167q0 -145 68 -222
t197 -77zM293 1366l148 -268v-1h-125l-177 268v1h154zM579 1366l147 -268v-1h-125l-176 265v4h154z" />
    <glyph glyph-name="uni020E" unicode="&#x20e;" horiz-adv-x="1197" 
d="M598 -24q-242 0 -368 133.5t-126 382.5v295q0 248 126 381.5t368 133.5t368 -133.5t126 -381.5v-295q0 -249 -126 -382.5t-368 -133.5zM598 115q162 0 244 96.5t82 273.5v309q0 177 -82 273t-244 96q-161 0 -243 -96t-82 -273v-309q0 -177 82 -273.5t243 -96.5zM598 1656
q136 0 198 -66t64 -189h-111q-4 74 -41 111t-110 37t-110 -37.5t-40 -110.5h-112q2 123 64.5 189t197.5 66z" />
    <glyph glyph-name="uni020F" unicode="&#x20f;" horiz-adv-x="1040" 
d="M520 -25q-210 0 -318.5 113.5t-108.5 326.5v149q0 212 109 325t318 113q210 0 318.5 -113t108.5 -325v-149q0 -213 -108.5 -326.5t-318.5 -113.5zM520 107q130 0 197.5 77t67.5 222v167q0 144 -67.5 220.5t-197.5 76.5q-129 0 -197 -76.5t-68 -220.5v-167q0 -145 68 -222
t197 -77zM520 1374q135 0 196 -71.5t63 -205.5h-112q-4 85 -39.5 128t-107.5 43t-107.5 -43t-38.5 -128h-112q2 134 63.5 205.5t194.5 71.5z" />
    <glyph glyph-name="uni0210" unicode="&#x210;" horiz-adv-x="1151" 
d="M896 0l-36 262q-10 74 -34 128.5t-73.5 85.5t-140.5 31l-347 1v131l371 1q131 0 187 64.5t56 175.5v30q0 110 -57 170.5t-190 60.5h-372v137h394q206 0 299.5 -90.5t93.5 -249.5v-34q0 -125 -59 -204.5t-196 -96.5v-20l-71 25q111 -8 171.5 -48.5t88.5 -110.5t43 -168
l43 -281h-171zM151 0v1278h163v-683l1 -63v-532h-164zM333 1650l164 -247v-2h-126l-193 247v2h155zM617 1650l165 -247v-2h-125l-195 246v3h155z" />
    <glyph glyph-name="uni0211" unicode="&#x211;" horiz-adv-x="746" 
d="M286 597l-37 125l40 2q32 124 110 195.5t207 71.5q32 0 57.5 -5t45.5 -12l10 -157q-25 8 -55.5 13t-67.5 5q-110 0 -191.5 -61t-118.5 -177zM132 0v976h158l-8 -288l12 -12v-676h-162zM177 1366l148 -268v-1h-125l-177 268v1h154zM463 1366l147 -268v-1h-125l-176 265v4
h154z" />
    <glyph glyph-name="uni0212" unicode="&#x212;" horiz-adv-x="1151" 
d="M896 0l-36 262q-10 74 -34 128.5t-73.5 85.5t-140.5 31l-347 1v131l371 1q131 0 187 64.5t56 175.5v30q0 110 -57 170.5t-190 60.5h-372v137h394q206 0 299.5 -90.5t93.5 -249.5v-34q0 -125 -59 -204.5t-196 -96.5v-20l-71 25q111 -8 171.5 -48.5t88.5 -110.5t43 -168
l43 -281h-171zM151 0v1278h163v-683l1 -63v-532h-164zM576 1656q136 0 198 -66t64 -189h-111q-4 74 -41 111t-110 37t-110 -37.5t-40 -110.5h-112q2 123 64.5 189t197.5 66z" />
    <glyph glyph-name="uni0213" unicode="&#x213;" horiz-adv-x="746" 
d="M286 597l-37 125l40 2q32 124 110 195.5t207 71.5q32 0 57.5 -5t45.5 -12l10 -157q-25 8 -55.5 13t-67.5 5q-110 0 -191.5 -61t-118.5 -177zM132 0v976h158l-8 -288l12 -12v-676h-162zM405 1374q135 0 196 -71.5t63 -205.5h-112q-4 85 -39.5 128t-107.5 43t-107.5 -43
t-38.5 -128h-112q2 134 63.5 205.5t194.5 71.5z" />
    <glyph glyph-name="uni0214" unicode="&#x214;" horiz-adv-x="1220" 
d="M610 -24q-240 0 -354.5 123.5t-114.5 359.5v819h166v-823q0 -164 72 -250.5t231 -86.5q160 0 231.5 86.5t71.5 250.5v823h166v-819q0 -236 -114 -359.5t-355 -123.5zM367 1650l164 -247v-2h-126l-193 247v2h155zM651 1650l165 -247v-2h-125l-195 246v3h155z" />
    <glyph glyph-name="uni0215" unicode="&#x215;" horiz-adv-x="1066" 
d="M281 976v-607q0 -77 21.5 -134.5t70.5 -89t132 -31.5q78 0 134 28.5t91.5 78.5t48.5 113l29 -115h-35q-15 -66 -55 -120.5t-107.5 -87t-166.5 -32.5q-115 0 -186.5 43.5t-104.5 127t-33 201.5v625h161zM934 976v-976h-162l7 234l-7 10v732h162zM306 1366l148 -268v-1
h-125l-177 268v1h154zM592 1366l147 -268v-1h-125l-176 265v4h154z" />
    <glyph glyph-name="uni0216" unicode="&#x216;" horiz-adv-x="1220" 
d="M610 -24q-240 0 -354.5 123.5t-114.5 359.5v819h166v-823q0 -164 72 -250.5t231 -86.5q160 0 231.5 86.5t71.5 250.5v823h166v-819q0 -236 -114 -359.5t-355 -123.5zM610 1656q136 0 198 -66t64 -189h-111q-4 74 -41 111t-110 37t-110 -37.5t-40 -110.5h-112
q2 123 64.5 189t197.5 66z" />
    <glyph glyph-name="uni0217" unicode="&#x217;" horiz-adv-x="1066" 
d="M281 976v-607q0 -77 21.5 -134.5t70.5 -89t132 -31.5q78 0 134 28.5t91.5 78.5t48.5 113l29 -115h-35q-15 -66 -55 -120.5t-107.5 -87t-166.5 -32.5q-115 0 -186.5 43.5t-104.5 127t-33 201.5v625h161zM934 976v-976h-162l7 234l-7 10v732h162zM533 1374q135 0 196 -71.5
t63 -205.5h-112q-4 85 -39.5 128t-107.5 43t-107.5 -43t-38.5 -128h-112q2 134 63.5 205.5t194.5 71.5z" />
    <glyph glyph-name="uni0218" unicode="&#x218;" horiz-adv-x="1042" 
d="M507 -23q-92 0 -168.5 15t-136.5 37t-100 44l-17 165q77 -46 181.5 -80.5t227.5 -34.5q148 0 219 52.5t71 157.5v16q0 69 -28 113t-94.5 74t-180.5 56q-144 34 -230.5 80.5t-125 116.5t-38.5 174v9q0 157 103 242.5t312 85.5q137 0 233.5 -28t157.5 -62l15 -152
q-71 42 -165.5 71.5t-216.5 29.5q-97 0 -157 -23t-87 -66t-27 -104v-4q0 -62 26.5 -106t93 -76t189.5 -62q141 -33 226 -76t123.5 -112t38.5 -180v-21q0 -173 -111.5 -262.5t-333.5 -89.5zM586 -118q2 -13 3 -31.5t1 -39.5q0 -79 -22.5 -145.5t-77.5 -130.5l-105 34
q33 53 49 111t16 130q0 19 -1 36.5t-3 35.5h140z" />
    <glyph glyph-name="uni0219" unicode="&#x219;" horiz-adv-x="882" 
d="M437 -22q-118 0 -206 25.5t-146 55.5l-15 150q73 -38 160.5 -66t198.5 -28q113 0 170 36t57 107v11q0 46 -21.5 76t-77.5 53t-159 46q-123 27 -194 63.5t-101.5 90.5t-30.5 132v9q0 128 89 194t268 66q115 0 199.5 -26t138.5 -58l15 -137q-65 38 -149 63t-189 25
q-76 0 -123 -15.5t-68 -44t-21 -68.5v-8q0 -44 21 -74.5t75.5 -53t151.5 -43.5q125 -25 198.5 -60t105.5 -88.5t32 -137.5v-17q0 -138 -96 -208t-283 -70zM513 -118q2 -13 3 -31.5t1 -39.5q0 -79 -22.5 -145.5t-77.5 -130.5l-105 34q33 53 49 111t16 130q0 19 -1 36.5
t-3 35.5h140z" />
    <glyph glyph-name="uni021A" unicode="&#x21a;" horiz-adv-x="1062" 
d="M448 0v1251h166v-1251h-166zM65 1139v139h932v-139h-932zM604 -118q2 -13 3 -31.5t1 -39.5q0 -79 -22.5 -145.5t-77.5 -130.5l-105 34q33 53 49 111t16 130q0 19 -1 36.5t-3 35.5h140z" />
    <glyph glyph-name="uni021B" unicode="&#x21b;" horiz-adv-x="791" 
d="M487 -20q-113 0 -182 34t-100 103t-31 172v616h160v-597q0 -96 44 -141.5t148 -45.5q59 0 113.5 13t102.5 37l-15 -139q-47 -24 -110 -38t-130 -14zM14 832v130h718l-15 -130h-703zM175 946l-1 274l163 21l-7 -295h-155zM525 -118q2 -13 3 -31.5t1 -39.5
q0 -79 -22.5 -145.5t-77.5 -130.5l-105 34q33 53 49 111t16 130q0 19 -1 36.5t-3 35.5h140z" />
    <glyph glyph-name="uni022A" unicode="&#x22a;" horiz-adv-x="1197" 
d="M323 1775v110h549v-110h-549zM598 -24q-242 0 -368 133.5t-126 382.5v295q0 248 126 381.5t368 133.5t368 -133.5t126 -381.5v-295q0 -249 -126 -382.5t-368 -133.5zM598 115q162 0 244 96.5t82 273.5v309q0 177 -82 273t-244 96q-161 0 -243 -96t-82 -273v-309
q0 -177 82 -273.5t243 -96.5zM446 1431q-43 0 -65 24.5t-22 70.5v7q0 44 22 68.5t65 24.5q45 0 66.5 -24.5t21.5 -68.5v-7q0 -46 -21.5 -70.5t-66.5 -24.5zM751 1431q-44 0 -65.5 24.5t-21.5 70.5v7q0 44 21.5 68.5t65.5 24.5t65.5 -24.5t21.5 -68.5v-7q0 -46 -21.5 -70.5
t-65.5 -24.5z" />
    <glyph glyph-name="uni022B" unicode="&#x22b;" horiz-adv-x="1040" 
d="M246 1498v109h549v-109h-549zM520 -25q-210 0 -318.5 113.5t-108.5 326.5v149q0 212 109 325t318 113q210 0 318.5 -113t108.5 -325v-149q0 -213 -108.5 -326.5t-318.5 -113.5zM520 107q130 0 197.5 77t67.5 222v167q0 144 -67.5 220.5t-197.5 76.5q-129 0 -197 -76.5
t-68 -220.5v-167q0 -145 68 -222t197 -77zM368 1135q-44 0 -65.5 24.5t-21.5 69.5v7q0 45 21.5 69t65.5 24t65.5 -24t21.5 -69v-7q0 -45 -21.5 -69.5t-65.5 -24.5zM673 1135q-44 0 -65.5 24.5t-21.5 69.5v7q0 45 21.5 69t65.5 24t65.5 -24t21.5 -69v-7q0 -45 -21.5 -69.5
t-65.5 -24.5z" />
    <glyph glyph-name="uni022C" unicode="&#x22c;" horiz-adv-x="1197" 
d="M323 1785v109h549v-109h-549zM598 -24q-242 0 -368 133.5t-126 382.5v295q0 248 126 381.5t368 133.5t368 -133.5t126 -381.5v-295q0 -249 -126 -382.5t-368 -133.5zM598 115q162 0 244 96.5t82 273.5v309q0 177 -82 273t-244 96q-161 0 -243 -96t-82 -273v-309
q0 -177 82 -273.5t243 -96.5zM739 1422q-39 0 -75 11t-69.5 25.5t-63.5 26t-58 11.5q-30 0 -43 -18t-13 -53v-13h-104v30q0 78 33 124t112 46q39 0 75.5 -11t69.5 -26t63.5 -26t57.5 -11q31 0 43 18t12 53v13h103v-31q0 -78 -32.5 -123.5t-110.5 -45.5z" />
    <glyph glyph-name="uni022D" unicode="&#x22d;" horiz-adv-x="1040" 
d="M246 1496v109h549v-109h-549zM520 -25q-210 0 -318.5 113.5t-108.5 326.5v149q0 212 109 325t318 113q210 0 318.5 -113t108.5 -325v-149q0 -213 -108.5 -326.5t-318.5 -113.5zM520 107q130 0 197.5 77t67.5 222v167q0 144 -67.5 220.5t-197.5 76.5q-129 0 -197 -76.5
t-68 -220.5v-167q0 -145 68 -222t197 -77zM651 1124q-36 0 -69.5 12t-65 28.5t-60 28.5t-53.5 12q-29 0 -41.5 -18.5t-12.5 -55.5v-17h-104v33q0 82 33 128t111 46q37 0 71 -12.5t65 -28t59 -28t53 -12.5q30 0 42 18.5t12 56.5v16h104v-33q0 -83 -33 -128.5t-111 -45.5z" />
    <glyph glyph-name="uni0230" unicode="&#x230;" horiz-adv-x="1197" 
d="M322 1785v110h549v-110h-549zM598 -24q-242 0 -368 133.5t-126 382.5v295q0 248 126 381.5t368 133.5t368 -133.5t126 -381.5v-295q0 -249 -126 -382.5t-368 -133.5zM598 115q162 0 244 96.5t82 273.5v309q0 177 -82 273t-244 96q-161 0 -243 -96t-82 -273v-309
q0 -177 82 -273.5t243 -96.5zM597 1431q-45 0 -68 24.5t-23 68.5v5q0 43 23 67.5t68 24.5q47 0 70 -24.5t23 -67.5v-5q0 -44 -23 -68.5t-70 -24.5z" />
    <glyph glyph-name="uni0231" unicode="&#x231;" horiz-adv-x="1040" 
d="M245 1498v109h550v-109h-550zM520 -25q-210 0 -318.5 113.5t-108.5 326.5v149q0 212 109 325t318 113q210 0 318.5 -113t108.5 -325v-149q0 -213 -108.5 -326.5t-318.5 -113.5zM520 107q130 0 197.5 77t67.5 222v167q0 144 -67.5 220.5t-197.5 76.5q-129 0 -197 -76.5
t-68 -220.5v-167q0 -145 68 -222t197 -77zM519 1135q-47 0 -71 25t-24 71v6q0 45 24 70.5t71 25.5q49 0 72.5 -25.5t23.5 -70.5v-6q0 -46 -23.5 -71t-72.5 -25z" />
    <glyph glyph-name="uni0232" unicode="&#x232;" horiz-adv-x="1096" 
d="M477 384l-439 894h175l235 -489l94 -212h13l94 212l234 489h176l-439 -894h-143zM467 0v539h163v-539h-163zM272 1459v111h549v-111h-549z" />
    <glyph glyph-name="uni0233" unicode="&#x233;" horiz-adv-x="988" 
d="M571 151l-85 -37l292 862h167l-459 -1320h-164l154 446l71 -62h-184l-319 936h168l266 -825h93zM220 1161v111h549v-111h-549z" />
    <glyph glyph-name="uni0237" unicode="&#x237;" horiz-adv-x="461" 
d="M163 191v785h162v-785h-162zM44 -357q-43 0 -81 7.5t-65 17.5l-14 134q28 -13 58.5 -19.5t63.5 -6.5q90 0 123.5 48.5t33.5 139.5v309h162v-317q0 -98 -27 -168t-89 -107.5t-165 -37.5z" />
    <glyph glyph-name="uni0259" unicode="&#x259;" horiz-adv-x="998" 
d="M493 -25q-135 0 -226.5 50.5t-137.5 142.5t-46 215v45q0 32 2.5 64t6.5 62h149q-1 -48 -1.5 -91.5t-0.5 -85.5q0 -85 28 -145.5t85 -92.5t141 -32q126 0 188.5 72t62.5 202v101v20v102q0 59 -15.5 107t-50 81.5t-89 51.5t-132.5 18q-103 0 -190.5 -26t-167.5 -72l15 141
q71 43 163.5 68.5t205.5 25.5q213 0 317.5 -105.5t104.5 -307.5v-190q0 -199 -105 -310t-307 -111zM126 431v123h694v-123h-694z" />
    <glyph glyph-name="uni02B9" unicode="&#x2b9;" horiz-adv-x="348" 
d="M234 891h-121l-14 434h150z" />
    <glyph glyph-name="uni02BA" unicode="&#x2ba;" horiz-adv-x="660" 
d="M426 891l-15 434h150l-15 -434h-120zM113 891l-14 434h150l-15 -434h-121z" />
    <glyph glyph-name="uni02BB" unicode="&#x2bb;" horiz-adv-x="405" 
d="M124 1101q-1 13 -3 31.5t-2 38.5q0 81 23 147.5t78 128.5l104 -33q-33 -53 -49 -111.5t-16 -129.5q0 -18 1.5 -36t2.5 -36h-139z" />
    <glyph glyph-name="uni02BC" unicode="&#x2bc;" horiz-adv-x="413" 
d="M305 1278q2 -16 5 -41.5t3 -55.5q0 -99 -25.5 -183t-84.5 -160l-101 30q38 67 55 141.5t17 164.5q0 27 -1.5 52t-5.5 52h138z" />
    <glyph glyph-name="uni02BE" unicode="&#x2be;" horiz-adv-x="393" 
d="M102 1333v82q94 0 141 -44.5t47 -119.5v-3q0 -74 -47 -119t-141 -45v82q44 0 67.5 21.5t23.5 60.5v3q0 39 -23.5 60.5t-67.5 21.5z" />
    <glyph glyph-name="uni02BF" unicode="&#x2bf;" horiz-adv-x="393" 
d="M291 1333q-44 0 -67.5 -21.5t-23.5 -60.5v-3q0 -39 23.5 -60.5t67.5 -21.5v-82q-93 0 -141 45t-48 119v3q0 75 48 119.5t141 44.5v-82z" />
    <glyph glyph-name="circumflex" unicode="&#x2c6;" horiz-adv-x="759" 
d="M292 1366h175l191 -267v-2h-129l-146 178h-7l-146 -178h-129v2z" />
    <glyph glyph-name="caron" unicode="&#x2c7;" horiz-adv-x="759" 
d="M292 1097l-191 267v2h129l146 -178h7l146 178h129v-2l-191 -267h-175z" />
    <glyph glyph-name="uni02C8" unicode="&#x2c8;" horiz-adv-x="331" 
d="M101 1099v338h129v-338h-129z" />
    <glyph glyph-name="uni02C9" unicode="&#x2c9;" horiz-adv-x="768" 
d="M109 1161v111h549v-111h-549z" />
    <glyph glyph-name="uni02CA" unicode="&#x2ca;" horiz-adv-x="569" 
d="M290 1366h180v-3l-230 -266h-144v2z" />
    <glyph glyph-name="uni02CB" unicode="&#x2cb;" horiz-adv-x="569" 
d="M279 1366l194 -267v-2h-144l-230 266v3h180z" />
    <glyph glyph-name="uni02CC" unicode="&#x2cc;" horiz-adv-x="331" 
d="M101 -454v338h129v-338h-129z" />
    <glyph glyph-name="breve" unicode="&#x2d8;" horiz-adv-x="726" 
d="M363 1089q-133 0 -194.5 71.5t-63.5 205.5h112q3 -85 38.5 -128t107.5 -43t107.5 43t39.5 128h112q-2 -134 -63 -205.5t-196 -71.5z" />
    <glyph glyph-name="dotaccent" unicode="&#x2d9;" horiz-adv-x="393" 
d="M196 1135q-48 0 -71.5 25t-23.5 71v6q0 45 23.5 70.5t71.5 25.5q49 0 72.5 -25.5t23.5 -70.5v-6q0 -46 -23.5 -71t-72.5 -25z" />
    <glyph glyph-name="ring" unicode="&#x2da;" horiz-adv-x="582" 
d="M102 1248v3q0 75 48 119.5t141 44.5t140.5 -44.5t47.5 -119.5v-3q0 -74 -47.5 -119t-140.5 -45t-141 45t-48 119zM200 1248q0 -39 23.5 -60.5t67.5 -21.5q45 0 68 21.5t23 60.5v3q0 39 -23 60.5t-68 21.5q-44 0 -67.5 -21.5t-23.5 -60.5v-3z" />
    <glyph glyph-name="ogonek" unicode="&#x2db;" horiz-adv-x="516" 
d="M301 -363q-84 0 -134.5 38.5t-50.5 115.5v1q0 73 41.5 122t116.5 83v15l107 1v-13q-67 -34 -104.5 -72t-37.5 -89v-1q0 -44 27.5 -64.5t74.5 -20.5q25 0 48 4.5t47 13.5l-16 -113q-23 -10 -54.5 -15.5t-64.5 -5.5z" />
    <glyph glyph-name="tilde" unicode="&#x2dc;" horiz-adv-x="754" 
d="M509 1124q-36 0 -69.5 12t-65 28.5t-60 28.5t-53.5 12q-29 0 -41.5 -18.5t-12.5 -55.5v-17h-104v33q0 82 33 128t111 46q37 0 71 -12.5t65 -28t59 -28t53 -12.5q30 0 42 18.5t12 56.5v16h104v-33q0 -83 -33 -128.5t-111 -45.5z" />
    <glyph glyph-name="hungarumlaut" unicode="&#x2dd;" horiz-adv-x="792" 
d="M534 1366h154v-1l-177 -268h-125v1zM248 1366h154v-4l-177 -265h-124v1z" />
    <glyph glyph-name="gravecomb" unicode="&#x300;" 
d="M279 1366l194 -267v-2h-144l-230 266v3h180z" />
    <glyph glyph-name="acutecomb" unicode="&#x301;" 
d="M290 1366h180v-3l-230 -266h-144v2z" />
    <glyph glyph-name="uni0302" unicode="&#x302;" 
d="M292 1366h175l191 -267v-2h-129l-146 178h-7l-146 -178h-129v2z" />
    <glyph glyph-name="tildecomb" unicode="&#x303;" 
d="M509 1124q-36 0 -69.5 12t-65 28.5t-60 28.5t-53.5 12q-29 0 -41.5 -18.5t-12.5 -55.5v-17h-104v33q0 82 33 128t111 46q37 0 71 -12.5t65 -28t59 -28t53 -12.5q30 0 42 18.5t12 56.5v16h104v-33q0 -83 -33 -128.5t-111 -45.5z" />
    <glyph glyph-name="uni0304" unicode="&#x304;" 
d="M109 1161v111h549v-111h-549z" />
    <glyph glyph-name="uni0306" unicode="&#x306;" 
d="M363 1089q-133 0 -194.5 71.5t-63.5 205.5h112q3 -85 38.5 -128t107.5 -43t107.5 43t39.5 128h112q-2 -134 -63 -205.5t-196 -71.5z" />
    <glyph glyph-name="uni0307" unicode="&#x307;" 
d="M196 1135q-48 0 -71.5 25t-23.5 71v6q0 45 23.5 70.5t71.5 25.5q49 0 72.5 -25.5t23.5 -70.5v-6q0 -46 -23.5 -71t-72.5 -25z" />
    <glyph glyph-name="uni0308" unicode="&#x308;" 
d="M188 1135q-43 0 -65 24.5t-22 69.5v7q0 45 22 69t65 24q45 0 66.5 -24t21.5 -69v-7q0 -45 -21.5 -69.5t-66.5 -24.5zM494 1135q-44 0 -65.5 24.5t-21.5 69.5v7q0 45 21.5 69t65.5 24q43 0 64.5 -24t21.5 -69v-7q0 -45 -21.5 -69.5t-64.5 -24.5z" />
    <glyph glyph-name="hookabovecomb" unicode="&#x309;" 
d="M191 1085q118 22 181 69.5t63 136.5q0 73 -45.5 110.5t-128.5 37.5q-41 0 -78 -9t-63 -21l-8 -97q27 12 57 20.5t61 8.5q85 0 85 -61q0 -40 -35 -62t-106 -39z" />
    <glyph glyph-name="uni030A" unicode="&#x30a;" 
d="M102 1248v3q0 75 48 119.5t141 44.5t140.5 -44.5t47.5 -119.5v-3q0 -74 -47.5 -119t-140.5 -45t-141 45t-48 119zM200 1248q0 -39 23.5 -60.5t67.5 -21.5q45 0 68 21.5t23 60.5v3q0 39 -23 60.5t-68 21.5q-44 0 -67.5 -21.5t-23.5 -60.5v-3z" />
    <glyph glyph-name="uni030B" unicode="&#x30b;" 
d="M534 1366h154v-1l-177 -268h-125v1zM248 1366h154v-4l-177 -265h-124v1z" />
    <glyph glyph-name="uni030C" unicode="&#x30c;" 
d="M292 1097l-191 267v2h129l146 -178h7l146 178h129v-2l-191 -267h-175z" />
    <glyph glyph-name="uni030F" unicode="&#x30f;" 
d="M258 1366l148 -268v-1h-125l-177 268v1h154zM544 1366l147 -268v-1h-125l-176 265v4h154z" />
    <glyph glyph-name="uni0311" unicode="&#x311;" 
d="M363 1374q135 0 196 -71.5t63 -205.5h-112q-4 85 -39.5 128t-107.5 43t-107.5 -43t-38.5 -128h-112q2 134 63.5 205.5t194.5 71.5z" />
    <glyph glyph-name="uni0312" unicode="&#x312;" 
d="M125 1100q-1 13 -3 31.5t-2 38.5q0 81 22.5 147.5t77.5 129.5l104 -34q-33 -53 -49 -111t-16 -130q0 -18 1.5 -36t2.5 -36h-138z" />
    <glyph glyph-name="uni031B" unicode="&#x31b;" 
d="M147 903l-47 68q70 19 106 55.5t36 97.5q0 27 -6 51.5t-14 47.5h145q8 -23 14 -48.5t6 -56.5q0 -86 -57.5 -139.5t-182.5 -75.5z" />
    <glyph glyph-name="dotbelowcomb" unicode="&#x323;" 
d="M196 -356q-48 0 -71.5 25t-23.5 70v7q0 45 23.5 70.5t71.5 25.5q49 0 72.5 -25.5t23.5 -70.5v-7q0 -45 -23.5 -70t-72.5 -25z" />
    <glyph glyph-name="uni0324" unicode="&#x324;" 
d="M188 -355q-43 0 -65 24.5t-22 69.5v7q0 45 22 69t65 24q45 0 66.5 -24t21.5 -69v-7q0 -45 -21.5 -69.5t-66.5 -24.5zM494 -355q-44 0 -65.5 24.5t-21.5 69.5v7q0 45 21.5 69t65.5 24q43 0 64.5 -24t21.5 -69v-7q0 -45 -21.5 -69.5t-64.5 -24.5z" />
    <glyph glyph-name="uni0326" unicode="&#x326;" 
d="M275 -118q2 -13 3 -31.5t1 -39.5q0 -79 -22.5 -145.5t-77.5 -130.5l-105 34q33 53 49 111t16 130q0 19 -1 36.5t-3 35.5h140z" />
    <glyph glyph-name="uni0327" unicode="&#x327;" 
d="M349 17l-20 -152l-69 48q14 0 30.5 0.5t32.5 -0.5q99 -5 147 -40.5t48 -104.5v-5q0 -75 -54.5 -111.5t-156.5 -36.5q-41 0 -79 6.5t-66 13.5l-19 102q31 -10 67.5 -16.5t76.5 -6.5q54 0 82 15t28 44v3q0 35 -35 49.5t-122 20.5q-9 1 -14.5 1h-8.5l21 170h111z" />
    <glyph glyph-name="uni0328" unicode="&#x328;" 
d="M301 -363q-84 0 -134.5 38.5t-50.5 115.5v1q0 73 41.5 122t116.5 83v15l107 1v-13q-67 -34 -104.5 -72t-37.5 -89v-1q0 -44 27.5 -64.5t74.5 -20.5q25 0 48 4.5t47 13.5l-16 -113q-23 -10 -54.5 -15.5t-64.5 -5.5z" />
    <glyph glyph-name="uni032E" unicode="&#x32e;" 
d="M363 -395q-133 0 -194.5 71.5t-63.5 205.5h112q3 -85 38.5 -128t107.5 -43t107.5 43t39.5 128h112q-2 -134 -63 -205.5t-196 -71.5z" />
    <glyph glyph-name="uni0331" unicode="&#x331;" 
d="M109 -296v111h549v-111h-549z" />
    <glyph glyph-name="uni0335" unicode="&#x335;" 
d="M109 608v96l622 -1v-95h-622z" />
    <glyph glyph-name="uni0394" unicode="&#x394;" horiz-adv-x="1190" 
d="M993 60l-448 1218h146l439 -1143zM65 135l113 5h514v-140h-627v135zM202 60l-137 75l440 1143h146zM1130 135v-135h-630v140h517z" />
    <glyph glyph-name="uni03A9" unicode="&#x3a9;" horiz-adv-x="1227" 
d="M605 1302q162 0 271.5 -59.5t166 -173.5t56.5 -278v-252q0 -166 -73 -268.5t-211 -131.5l-1 -6l331 2v-134h-455v137q112 38 176.5 129.5t64.5 241.5v286q0 118 -37 200.5t-109.5 125t-179.5 42.5q-106 0 -178.5 -42.5t-109.5 -125t-37 -200.5v-286q0 -150 64.5 -241.5
t176.5 -129.5v-137h-456v134l331 -2l-1 6q-137 29 -210.5 131.5t-73.5 268.5v252q0 164 56.5 278t166.5 173.5t271 59.5z" />
    <glyph glyph-name="uni03BC" unicode="&#x3bc;" horiz-adv-x="1076" 
d="M947 976v-976h-161l7 234l-7 10v732h161zM294 376q0 -61 14.5 -109.5t43.5 -82.5t74 -51.5t107 -17.5q71 0 125 29t88 79t46 112l29 -120h-35q-12 -70 -45 -123t-86.5 -83t-130.5 -30q-67 0 -114.5 20.5t-77.5 56.5t-46 85h-6l11 -326v-159h-159v1320h162v-600z" />
    <glyph glyph-name="pi" unicode="&#x3c0;" horiz-adv-x="1125" 
d="M65 832v130h995l-15 -130h-980zM241 0v905h160v-905h-160zM710 -1v905h160v-905h-160z" />
    <glyph glyph-name="uni1E08" unicode="&#x1e08;" horiz-adv-x="1015" 
d="M578 -23q-237 0 -355.5 133t-118.5 378v303q0 245 118 377.5t354 132.5q76 0 138.5 -14t111.5 -36t83 -46l14 -154q-59 42 -138.5 73.5t-186.5 31.5q-161 0 -243 -95.5t-82 -271.5v-295q0 -175 83 -271.5t248 -96.5q106 0 187.5 31t141.5 76l-14 -158q-34 -24 -84 -47
t-114.5 -37t-142.5 -14zM614 15l-20 -152l-69 48q14 0 30.5 0.5t32.5 -0.5q99 -5 147 -40.5t48 -104.5v-5q0 -75 -54.5 -111.5t-156.5 -36.5q-41 0 -79 6.5t-66 13.5l-19 102q31 -10 67.5 -16.5t76.5 -6.5q54 0 82 15t28 44v3q0 35 -35 49.5t-122 20.5q-9 1 -14.5 1h-8.5
l21 170h111zM720 1650h188v-3l-273 -246h-156v2z" />
    <glyph glyph-name="uni1E09" unicode="&#x1e09;" horiz-adv-x="868" 
d="M508 -22q-210 0 -312.5 113.5t-102.5 321.5v152q0 209 103 321.5t312 112.5q62 0 113 -11.5t91.5 -30t68.5 -38.5l14 -141q-47 36 -111.5 61t-151.5 25q-140 0 -208.5 -77.5t-68.5 -225.5v-144q0 -145 68.5 -223t208.5 -78q90 0 155.5 25t116.5 61l-15 -143
q-44 -30 -115 -55.5t-166 -25.5zM543 17l-20 -152l-69 48q14 0 30.5 0.5t32.5 -0.5q99 -5 147 -40.5t48 -104.5v-5q0 -75 -54.5 -111.5t-156.5 -36.5q-41 0 -79 6.5t-66 13.5l-19 102q31 -10 67.5 -16.5t76.5 -6.5q54 0 82 15t28 44v3q0 35 -35 49.5t-122 20.5q-9 1 -14.5 1
h-8.5l21 170h111zM606 1366h180v-3l-230 -266h-144v2z" />
    <glyph glyph-name="uni1E0C" unicode="&#x1e0c;" horiz-adv-x="1183" 
d="M263 0v140h310q170 0 255.5 92.5t85.5 264.5v285q0 173 -85.5 265t-255.5 92h-311v139h317q248 0 375 -127.5t127 -367.5v-287q0 -239 -127 -367.5t-375 -128.5h-316zM151 0v1278h164v-1278h-164zM583 -347q-45 0 -68.5 24.5t-23.5 69.5v5q0 43 23.5 67.5t68.5 24.5
q46 0 69.5 -24.5t23.5 -67.5v-5q0 -45 -23.5 -69.5t-69.5 -24.5z" />
    <glyph glyph-name="uni1E0D" unicode="&#x1e0d;" horiz-adv-x="1074" 
d="M454 -21q-176 0 -268 109t-92 318v161q0 210 93 320.5t274 110.5q90 0 156 -30.5t107 -85.5t55 -130h53l-48 -149q-3 86 -38.5 144.5t-96 88.5t-138.5 30q-124 0 -189.5 -72t-65.5 -212v-186q0 -138 65.5 -210t189.5 -72q74 0 131 28.5t94.5 79t51.5 114.5l40 -116h-48
q-14 -66 -53.5 -121t-106 -87.5t-166.5 -32.5zM780 0l7 236l-3 52v408l1 34l-4 277v318h161v-1325h-162zM529 -356q-48 0 -71.5 25t-23.5 70v7q0 45 23.5 70.5t71.5 25.5q49 0 72.5 -25.5t23.5 -70.5v-7q0 -45 -23.5 -70t-72.5 -25z" />
    <glyph glyph-name="uni1E0E" unicode="&#x1e0e;" horiz-adv-x="1183" 
d="M263 0v140h310q170 0 255.5 92.5t85.5 264.5v285q0 173 -85.5 265t-255.5 92h-311v139h317q248 0 375 -127.5t127 -367.5v-287q0 -239 -127 -367.5t-375 -128.5h-316zM151 0v1278h164v-1278h-164zM308 -289v111h549v-111h-549z" />
    <glyph glyph-name="uni1E0F" unicode="&#x1e0f;" horiz-adv-x="1074" 
d="M454 -21q-176 0 -268 109t-92 318v161q0 210 93 320.5t274 110.5q90 0 156 -30.5t107 -85.5t55 -130h53l-48 -149q-3 86 -38.5 144.5t-96 88.5t-138.5 30q-124 0 -189.5 -72t-65.5 -212v-186q0 -138 65.5 -210t189.5 -72q74 0 131 28.5t94.5 79t51.5 114.5l40 -116h-48
q-14 -66 -53.5 -121t-106 -87.5t-166.5 -32.5zM780 0l7 236l-3 52v408l1 34l-4 277v318h161v-1325h-162zM255 -296v111h549v-111h-549z" />
    <glyph glyph-name="uni1E14" unicode="&#x1e14;" horiz-adv-x="1046" 
d="M151 0v1278h164v-1278h-164zM200 0v139h748v-139h-748zM245 583v138h682v-138h-682zM199 1139v139h743v-139h-743zM278 1459v111h549v-111h-549zM387 1958l242 -247v-2h-156l-273 246v3h187z" />
    <glyph glyph-name="uni1E15" unicode="&#x1e15;" horiz-adv-x="999" 
d="M542 -22q-223 0 -336 109t-113 312v174q0 206 105 317.5t307 111.5q136 0 227 -50.5t137 -143.5t46 -222v-36q0 -32 -2.5 -64t-6.5 -63h-149q2 48 2.5 91t0.5 79q0 89 -28.5 150.5t-85 94t-141.5 32.5q-126 0 -189 -73t-63 -209v-93l1 -20v-93q0 -61 18 -110t56.5 -84.5
t98 -54t141.5 -18.5q95 0 177 25t154 68l-15 -140q-65 -41 -151 -65.5t-191 -24.5zM178 423v122h694v-122h-694zM234 1161v111h549v-111h-549zM386 1678l194 -267v-2h-144l-230 266v3h180z" />
    <glyph glyph-name="uni1E16" unicode="&#x1e16;" horiz-adv-x="1046" 
d="M151 0v1278h164v-1278h-164zM200 0v139h748v-139h-748zM245 583v138h682v-138h-682zM199 1139v139h743v-139h-743zM278 1459v111h549v-111h-549zM721 1958h188v-3l-273 -246h-156v2z" />
    <glyph glyph-name="uni1E17" unicode="&#x1e17;" horiz-adv-x="999" 
d="M542 -22q-223 0 -336 109t-113 312v174q0 206 105 317.5t307 111.5q136 0 227 -50.5t137 -143.5t46 -222v-36q0 -32 -2.5 -64t-6.5 -63h-149q2 48 2.5 91t0.5 79q0 89 -28.5 150.5t-85 94t-141.5 32.5q-126 0 -189 -73t-63 -209v-93l1 -20v-93q0 -61 18 -110t56.5 -84.5
t98 -54t141.5 -18.5q95 0 177 25t154 68l-15 -140q-65 -41 -151 -65.5t-191 -24.5zM178 423v122h694v-122h-694zM234 1161v111h549v-111h-549zM632 1678h180v-3l-230 -266h-144v2z" />
    <glyph glyph-name="uni1E1C" unicode="&#x1e1c;" horiz-adv-x="1046" 
d="M151 0v1278h164v-1278h-164zM200 0v139h748v-139h-748zM245 583v138h682v-138h-682zM199 1139v139h743v-139h-743zM614 15l-20 -152l-69 48q14 0 30.5 0.5t32.5 -0.5q99 -5 147 -40.5t48 -104.5v-5q0 -75 -54.5 -111.5t-156.5 -36.5q-41 0 -79 6.5t-66 13.5l-19 102
q31 -10 67.5 -16.5t76.5 -6.5q54 0 82 15t28 44v3q0 35 -35 49.5t-122 20.5q-9 1 -14.5 1h-8.5l21 170h111zM554 1395q-135 0 -197.5 66t-64.5 189h112q3 -73 40 -111t110 -38t110 38t41 111h111q-2 -123 -64 -189t-198 -66z" />
    <glyph glyph-name="uni1E1D" unicode="&#x1e1d;" horiz-adv-x="999" 
d="M542 -22q-223 0 -336 109t-113 312v174q0 206 105 317.5t307 111.5q136 0 227 -50.5t137 -143.5t46 -222v-36q0 -32 -2.5 -64t-6.5 -63h-149q2 48 2.5 91t0.5 79q0 89 -28.5 150.5t-85 94t-141.5 32.5q-126 0 -189 -73t-63 -209v-93l1 -20v-93q0 -61 18 -110t56.5 -84.5
t98 -54t141.5 -18.5q95 0 177 25t154 68l-15 -140q-65 -41 -151 -65.5t-191 -24.5zM178 423v122h694v-122h-694zM573 17l-20 -152l-69 48q14 0 30.5 0.5t32.5 -0.5q99 -5 147 -40.5t48 -104.5v-5q0 -75 -54.5 -111.5t-156.5 -36.5q-41 0 -79 6.5t-66 13.5l-19 102
q31 -10 67.5 -16.5t76.5 -6.5q54 0 82 15t28 44v3q0 35 -35 49.5t-122 20.5q-9 1 -14.5 1h-8.5l21 170h111zM509 1089q-133 0 -194.5 71.5t-63.5 205.5h112q3 -85 38.5 -128t107.5 -43t107.5 43t39.5 128h112q-2 -134 -63 -205.5t-196 -71.5z" />
    <glyph glyph-name="uni1E20" unicode="&#x1e20;" horiz-adv-x="1180" 
d="M544 -24q-145 0 -243 58.5t-147.5 170.5t-49.5 271v302q0 252 129.5 387.5t380.5 135.5q90 0 163.5 -14.5t130.5 -38t98 -49.5l15 -150q-69 44 -162.5 77t-216.5 33q-186 0 -277.5 -99t-91.5 -285v-298q0 -172 80.5 -265.5t241.5 -93.5q82 0 140.5 28t96 74t54.5 101v315
l27 -59h-301v138h436v-505l-163 1q-16 -62 -55 -116t-109 -86.5t-177 -32.5zM893 264h155v-264h-162zM311 1459v111h549v-111h-549z" />
    <glyph glyph-name="uni1E21" unicode="&#x1e21;" horiz-adv-x="1025" 
d="M512 292q-199 0 -305.5 87t-106.5 249v25q0 101 41.5 176t132.5 117.5t238 46.5l498 16v-128l-294 10l-1 -7q69 -14 113 -48t65.5 -85t21.5 -119v-22q0 -155 -102 -236.5t-301 -81.5zM505 -246h23q90 0 154.5 13.5t99.5 42.5t35 77v4q0 56 -40.5 85.5t-138.5 38.5
l-276 25l46 2q-56 -8 -98.5 -26t-66.5 -47.5t-24 -73.5v-2q0 -51 35 -82t99 -44t152 -13zM496 -375q-132 0 -227.5 22.5t-148 73t-52.5 135.5v4q0 60 28.5 100t77 63t108.5 31l-1 6q-82 14 -121 48.5t-39 89.5v1q0 38 17.5 65t53 43t90.5 20v20l186 -47l-76 2
q-68 -1 -94 -16.5t-26 -46.5v-1q0 -33 37 -50t126 -27l237 -24q155 -16 226 -74.5t71 -172.5v-5q0 -91 -54 -149t-153 -84.5t-237 -26.5h-29zM510 412q84 0 139.5 24.5t84 74t28.5 121.5v24q0 70 -27.5 119t-82.5 74.5t-138 25.5h-6q-90 0 -146.5 -27.5t-82 -77
t-25.5 -115.5v-23q0 -72 28.5 -121t85.5 -74t142 -25zM238 1164v111h549v-111h-549z" />
    <glyph glyph-name="uni1E24" unicode="&#x1e24;" horiz-adv-x="1240" 
d="M317 0h-166v1278h166v-1278zM1089 0h-166v1278h166v-1278zM246 729h743v-140h-743v140zM619 -347q-45 0 -68.5 24.5t-23.5 69.5v5q0 43 23.5 67.5t68.5 24.5q46 0 69.5 -24.5t23.5 -67.5v-5q0 -45 -23.5 -69.5t-69.5 -24.5z" />
    <glyph glyph-name="uni1E25" unicode="&#x1e25;" horiz-adv-x="1066" 
d="M785 0v607q0 79 -21.5 136t-70 88.5t-132.5 31.5q-77 0 -133 -29t-90.5 -78.5t-48.5 -112.5l-36 115h42q15 66 55 120.5t107.5 87t164.5 32.5q116 0 187.5 -44t104.5 -126.5t33 -202.5v-625h-162zM132 0v1325h161v-318l-5 -280l6 -13v-714h-162zM534 -356q-48 0 -71.5 25
t-23.5 70v7q0 45 23.5 70.5t71.5 25.5q49 0 72.5 -25.5t23.5 -70.5v-7q0 -45 -23.5 -70t-72.5 -25z" />
    <glyph glyph-name="uni1E2A" unicode="&#x1e2a;" horiz-adv-x="1240" 
d="M317 0h-166v1278h166v-1278zM1089 0h-166v1278h166v-1278zM246 729h743v-140h-743v140zM619 -399q-133 0 -194.5 71.5t-63.5 205.5h112q3 -85 38.5 -128t107.5 -43t107.5 43t39.5 128h112q-2 -134 -63 -205.5t-196 -71.5z" />
    <glyph glyph-name="uni1E2B" unicode="&#x1e2b;" horiz-adv-x="1066" 
d="M785 0v607q0 79 -21.5 136t-70 88.5t-132.5 31.5q-77 0 -133 -29t-90.5 -78.5t-48.5 -112.5l-36 115h42q15 66 55 120.5t107.5 87t164.5 32.5q116 0 187.5 -44t104.5 -126.5t33 -202.5v-625h-162zM132 0v1325h161v-318l-5 -280l6 -13v-714h-162zM534 -395
q-133 0 -194.5 71.5t-63.5 205.5h112q3 -85 38.5 -128t107.5 -43t107.5 43t39.5 128h112q-2 -134 -63 -205.5t-196 -71.5z" />
    <glyph glyph-name="uni1E2E" unicode="&#x1e2e;" horiz-adv-x="472" 
d="M336 1961h150v-2l-183 -236h-122v2zM319 0h-166v1278h166v-1278zM83 1431q-43 0 -65 24.5t-22 70.5v7q0 44 22 68.5t65 24.5q45 0 66.5 -24.5t21.5 -68.5v-7q0 -46 -21.5 -70.5t-66.5 -24.5zM388 1431q-44 0 -65.5 24.5t-21.5 70.5v7q0 44 21.5 68.5t65.5 24.5
t65.5 -24.5t21.5 -68.5v-7q0 -46 -21.5 -70.5t-65.5 -24.5z" />
    <glyph glyph-name="uni1E2F" unicode="&#x1e2f;" horiz-adv-x="432" 
d="M315 1675h150v-1l-183 -236h-121v2zM136 0v976h162v-976h-162zM89 1135q-42 0 -62.5 24t-20.5 69v8q0 45 20.5 69t62.5 24q41 0 62.5 -24t21.5 -69v-8q0 -45 -21.5 -69t-62.5 -24zM345 1135q-42 0 -62.5 24t-20.5 69v8q0 45 20.5 69t62.5 24t62.5 -24t20.5 -69v-8
q0 -45 -20.5 -69t-62.5 -24z" />
    <glyph glyph-name="uni1E36" unicode="&#x1e36;" horiz-adv-x="974" 
d="M317 0h-166v1278h166v-1278zM240 141h674v-141h-674v141zM526 -347q-45 0 -68.5 24.5t-23.5 69.5v5q0 43 23.5 67.5t68.5 24.5q46 0 69.5 -24.5t23.5 -67.5v-5q0 -45 -23.5 -69.5t-69.5 -24.5z" />
    <glyph glyph-name="uni1E37" unicode="&#x1e37;" horiz-adv-x="435" 
d="M137 0v1325h161v-1325h-161zM218 -356q-48 0 -71.5 25t-23.5 70v7q0 45 23.5 70.5t71.5 25.5q49 0 72.5 -25.5t23.5 -70.5v-7q0 -45 -23.5 -70t-72.5 -25z" />
    <glyph glyph-name="uni1E3A" unicode="&#x1e3a;" horiz-adv-x="974" 
d="M317 0h-166v1278h166v-1278zM240 141h674v-141h-674v141zM251 -289v111h549v-111h-549z" />
    <glyph glyph-name="uni1E3B" unicode="&#x1e3b;" horiz-adv-x="435" 
d="M-25 -296v112h488v-112h-488zM137 0v1325h161v-1325h-161z" />
    <glyph glyph-name="uni1E42" unicode="&#x1e42;" horiz-adv-x="1493" 
d="M130 0l49 1278h257l303 -924h14l303 924h258l49 -1278h-161l-18 539l-17 566h-18l-316 -958h-173l-316 958h-18l-18 -567l-17 -538h-161zM746 -347q-45 0 -68.5 24.5t-23.5 69.5v5q0 43 23.5 67.5t68.5 24.5q46 0 69.5 -24.5t23.5 -67.5v-5q0 -45 -23.5 -69.5
t-69.5 -24.5z" />
    <glyph glyph-name="uni1E43" unicode="&#x1e43;" horiz-adv-x="1632" 
d="M1351 0v611q0 77 -19.5 133.5t-64 87.5t-119.5 31q-71 0 -123 -29t-84 -77.5t-45 -110.5l-25 115h20q16 63 54 117t103 87t161 33q109 0 175.5 -43t97.5 -125.5t31 -200.5v-629h-162zM132 0v976h162l-7 -234l7 -10v-732h-162zM742 0v611q0 77 -19.5 133.5t-63.5 87.5
t-119 31q-72 0 -124 -29t-84 -78.5t-45 -112.5l-30 115h36q15 66 52 120.5t100.5 87t154.5 32.5q135 0 205.5 -70t88.5 -204q5 -20 7 -43.5t2 -46.5v-634h-161zM816 -356q-48 0 -71.5 25t-23.5 70v7q0 45 23.5 70.5t71.5 25.5q49 0 72.5 -25.5t23.5 -70.5v-7
q0 -45 -23.5 -70t-72.5 -25z" />
    <glyph glyph-name="uni1E44" unicode="&#x1e44;" horiz-adv-x="1240" 
d="M403 1278l519 -1100h12l-7 558v542h162v-1278h-246l-525 1109h-12l7 -584v-525h-162v1278h252zM621 1431q-45 0 -68.5 24.5t-23.5 68.5v5q0 43 23.5 67.5t68.5 24.5q46 0 69.5 -24.5t23.5 -67.5v-5q0 -44 -23.5 -68.5t-69.5 -24.5z" />
    <glyph glyph-name="uni1E45" unicode="&#x1e45;" horiz-adv-x="1066" 
d="M785 0v607q0 79 -21.5 136t-70 88.5t-132.5 31.5q-77 0 -133.5 -29t-91.5 -78.5t-49 -112.5l-29 115h35q16 66 56 120.5t107.5 87t165.5 32.5q116 0 187.5 -44t104.5 -126.5t33 -202.5v-625h-162zM132 0v976h162l-7 -234l7 -9v-733h-162zM533 1135q-48 0 -71.5 25
t-23.5 71v6q0 45 23.5 70.5t71.5 25.5q49 0 72.5 -25.5t23.5 -70.5v-6q0 -46 -23.5 -71t-72.5 -25z" />
    <glyph glyph-name="uni1E46" unicode="&#x1e46;" horiz-adv-x="1240" 
d="M403 1278l519 -1100h12l-7 558v542h162v-1278h-246l-525 1109h-12l7 -584v-525h-162v1278h252zM621 -347q-45 0 -68.5 24.5t-23.5 69.5v5q0 43 23.5 67.5t68.5 24.5q46 0 69.5 -24.5t23.5 -67.5v-5q0 -45 -23.5 -69.5t-69.5 -24.5z" />
    <glyph glyph-name="uni1E47" unicode="&#x1e47;" horiz-adv-x="1066" 
d="M785 0v607q0 79 -21.5 136t-70 88.5t-132.5 31.5q-77 0 -133.5 -29t-91.5 -78.5t-49 -112.5l-29 115h35q16 66 56 120.5t107.5 87t165.5 32.5q116 0 187.5 -44t104.5 -126.5t33 -202.5v-625h-162zM132 0v976h162l-7 -234l7 -9v-733h-162zM534 -356q-48 0 -71.5 25
t-23.5 70v7q0 45 23.5 70.5t71.5 25.5q49 0 72.5 -25.5t23.5 -70.5v-7q0 -45 -23.5 -70t-72.5 -25z" />
    <glyph glyph-name="uni1E48" unicode="&#x1e48;" horiz-adv-x="1240" 
d="M403 1278l519 -1100h12l-7 558v542h162v-1278h-246l-525 1109h-12l7 -584v-525h-162v1278h252zM347 -289v111h549v-111h-549z" />
    <glyph glyph-name="uni1E49" unicode="&#x1e49;" horiz-adv-x="1066" 
d="M785 0v607q0 79 -21.5 136t-70 88.5t-132.5 31.5q-77 0 -133.5 -29t-91.5 -78.5t-49 -112.5l-29 115h35q16 66 56 120.5t107.5 87t165.5 32.5q116 0 187.5 -44t104.5 -126.5t33 -202.5v-625h-162zM132 0v976h162l-7 -234l7 -9v-733h-162zM259 -296v111h549v-111h-549z
" />
    <glyph glyph-name="uni1E4C" unicode="&#x1e4c;" horiz-adv-x="1197" 
d="M694 1935h150v-2l-182 -219h-122v1zM598 -24q-242 0 -368 133.5t-126 382.5v295q0 248 126 381.5t368 133.5t368 -133.5t126 -381.5v-295q0 -249 -126 -382.5t-368 -133.5zM598 115q162 0 244 96.5t82 273.5v309q0 177 -82 273t-244 96q-161 0 -243 -96t-82 -273v-309
q0 -177 82 -273.5t243 -96.5zM739 1422q-39 0 -75 11t-69.5 25.5t-63.5 26t-58 11.5q-30 0 -43 -18t-13 -53v-13h-104v30q0 78 33 124t112 46q39 0 75.5 -11t69.5 -26t63.5 -26t57.5 -11q31 0 43 18t12 53v13h103v-31q0 -78 -32.5 -123.5t-110.5 -45.5z" />
    <glyph glyph-name="uni1E4D" unicode="&#x1e4d;" horiz-adv-x="1040" 
d="M619 1665h150v-1l-183 -236h-122v2zM520 -25q-210 0 -318.5 113.5t-108.5 326.5v149q0 212 109 325t318 113q210 0 318.5 -113t108.5 -325v-149q0 -213 -108.5 -326.5t-318.5 -113.5zM520 107q130 0 197.5 77t67.5 222v167q0 144 -67.5 220.5t-197.5 76.5
q-129 0 -197 -76.5t-68 -220.5v-167q0 -145 68 -222t197 -77zM651 1124q-36 0 -69.5 12t-65 28.5t-60 28.5t-53.5 12q-29 0 -41.5 -18.5t-12.5 -55.5v-17h-104v33q0 82 33 128t111 46q37 0 71 -12.5t65 -28t59 -28t53 -12.5q30 0 42 18.5t12 56.5v16h104v-33
q0 -83 -33 -128.5t-111 -45.5z" />
    <glyph glyph-name="uni1E4E" unicode="&#x1e4e;" horiz-adv-x="1197" 
d="M446 1757q-43 0 -65 23.5t-22 68.5v6q0 44 22 68t65 24q45 0 66.5 -24t21.5 -68v-6q0 -45 -21.5 -68.5t-66.5 -23.5zM751 1757q-44 0 -65.5 23.5t-21.5 68.5v6q0 44 21.5 68t65.5 24t65.5 -24t21.5 -68v-6q0 -45 -21.5 -68.5t-65.5 -23.5zM598 -24q-242 0 -368 133.5
t-126 382.5v295q0 248 126 381.5t368 133.5t368 -133.5t126 -381.5v-295q0 -249 -126 -382.5t-368 -133.5zM598 115q162 0 244 96.5t82 273.5v309q0 177 -82 273t-244 96q-161 0 -243 -96t-82 -273v-309q0 -177 82 -273.5t243 -96.5zM739 1422q-39 0 -75 11t-69.5 25.5
t-63.5 26t-58 11.5q-30 0 -43 -18t-13 -53v-13h-104v30q0 78 33 124t112 46q39 0 75.5 -11t69.5 -26t63.5 -26t57.5 -11q31 0 43 18t12 53v13h103v-31q0 -78 -32.5 -123.5t-110.5 -45.5z" />
    <glyph glyph-name="uni1E4F" unicode="&#x1e4f;" horiz-adv-x="1040" 
d="M368 1470q-44 0 -65.5 24t-21.5 68v7q0 44 21.5 68t65.5 24t65.5 -24t21.5 -68v-7q0 -44 -21.5 -68t-65.5 -24zM673 1470q-44 0 -65.5 24t-21.5 68v7q0 44 21.5 68t65.5 24t65.5 -24t21.5 -68v-7q0 -44 -21.5 -68t-65.5 -24zM520 -25q-210 0 -318.5 113.5t-108.5 326.5
v149q0 212 109 325t318 113q210 0 318.5 -113t108.5 -325v-149q0 -213 -108.5 -326.5t-318.5 -113.5zM520 107q130 0 197.5 77t67.5 222v167q0 144 -67.5 220.5t-197.5 76.5q-129 0 -197 -76.5t-68 -220.5v-167q0 -145 68 -222t197 -77zM651 1124q-36 0 -69.5 12t-65 28.5
t-60 28.5t-53.5 12q-29 0 -41.5 -18.5t-12.5 -55.5v-17h-104v33q0 82 33 128t111 46q37 0 71 -12.5t65 -28t59 -28t53 -12.5q30 0 42 18.5t12 56.5v16h104v-33q0 -83 -33 -128.5t-111 -45.5z" />
    <glyph glyph-name="uni1E50" unicode="&#x1e50;" horiz-adv-x="1197" 
d="M598 -24q-242 0 -368 133.5t-126 382.5v295q0 248 126 381.5t368 133.5t368 -133.5t126 -381.5v-295q0 -249 -126 -382.5t-368 -133.5zM598 115q162 0 244 96.5t82 273.5v309q0 177 -82 273t-244 96q-161 0 -243 -96t-82 -273v-309q0 -177 82 -273.5t243 -96.5zM323 1459
v111h549v-111h-549zM431 1958l242 -247v-2h-156l-273 246v3h187z" />
    <glyph glyph-name="uni1E51" unicode="&#x1e51;" horiz-adv-x="1040" 
d="M520 -25q-210 0 -318.5 113.5t-108.5 326.5v149q0 212 109 325t318 113q210 0 318.5 -113t108.5 -325v-149q0 -213 -108.5 -326.5t-318.5 -113.5zM520 107q130 0 197.5 77t67.5 222v167q0 144 -67.5 220.5t-197.5 76.5q-129 0 -197 -76.5t-68 -220.5v-167q0 -145 68 -222
t197 -77zM245 1161v111h549v-111h-549zM397 1678l194 -267v-2h-144l-230 266v3h180z" />
    <glyph glyph-name="uni1E52" unicode="&#x1e52;" horiz-adv-x="1197" 
d="M598 -24q-242 0 -368 133.5t-126 382.5v295q0 248 126 381.5t368 133.5t368 -133.5t126 -381.5v-295q0 -249 -126 -382.5t-368 -133.5zM598 115q162 0 244 96.5t82 273.5v309q0 177 -82 273t-244 96q-161 0 -243 -96t-82 -273v-309q0 -177 82 -273.5t243 -96.5zM323 1459
v111h549v-111h-549zM765 1958h188v-3l-273 -246h-156v2z" />
    <glyph glyph-name="uni1E53" unicode="&#x1e53;" horiz-adv-x="1040" 
d="M520 -25q-210 0 -318.5 113.5t-108.5 326.5v149q0 212 109 325t318 113q210 0 318.5 -113t108.5 -325v-149q0 -213 -108.5 -326.5t-318.5 -113.5zM520 107q130 0 197.5 77t67.5 222v167q0 144 -67.5 220.5t-197.5 76.5q-129 0 -197 -76.5t-68 -220.5v-167q0 -145 68 -222
t197 -77zM245 1161v111h549v-111h-549zM644 1678h180v-3l-230 -266h-144v2z" />
    <glyph glyph-name="uni1E5A" unicode="&#x1e5a;" horiz-adv-x="1151" 
d="M896 0l-36 262q-10 74 -34 128.5t-73.5 85.5t-140.5 31l-347 1v131l371 1q131 0 187 64.5t56 175.5v30q0 110 -57 170.5t-190 60.5h-372v137h394q206 0 299.5 -90.5t93.5 -249.5v-34q0 -125 -59 -204.5t-196 -96.5v-20l-71 25q111 -8 171.5 -48.5t88.5 -110.5t43 -168
l43 -281h-171zM151 0v1278h163v-683l1 -63v-532h-164zM585 -347q-45 0 -68.5 24.5t-23.5 69.5v5q0 43 23.5 67.5t68.5 24.5q46 0 69.5 -24.5t23.5 -67.5v-5q0 -45 -23.5 -69.5t-69.5 -24.5z" />
    <glyph glyph-name="uni1E5B" unicode="&#x1e5b;" horiz-adv-x="746" 
d="M286 597l-37 125l40 2q32 124 110 195.5t207 71.5q32 0 57.5 -5t45.5 -12l10 -157q-25 8 -55.5 13t-67.5 5q-110 0 -191.5 -61t-118.5 -177zM132 0v976h158l-8 -288l12 -12v-676h-162zM213 -356q-48 0 -71.5 25t-23.5 70v7q0 45 23.5 70.5t71.5 25.5q49 0 72.5 -25.5
t23.5 -70.5v-7q0 -45 -23.5 -70t-72.5 -25z" />
    <glyph glyph-name="uni1E5E" unicode="&#x1e5e;" horiz-adv-x="1151" 
d="M896 0l-36 262q-10 74 -34 128.5t-73.5 85.5t-140.5 31l-347 1v131l371 1q131 0 187 64.5t56 175.5v30q0 110 -57 170.5t-190 60.5h-372v137h394q206 0 299.5 -90.5t93.5 -249.5v-34q0 -125 -59 -204.5t-196 -96.5v-20l-71 25q111 -8 171.5 -48.5t88.5 -110.5t43 -168
l43 -281h-171zM151 0v1278h163v-683l1 -63v-532h-164zM310 -289v111h549v-111h-549z" />
    <glyph glyph-name="uni1E5F" unicode="&#x1e5f;" horiz-adv-x="746" 
d="M286 597l-37 125l40 2q32 124 110 195.5t207 71.5q32 0 57.5 -5t45.5 -12l10 -157q-25 8 -55.5 13t-67.5 5q-110 0 -191.5 -61t-118.5 -177zM132 0v976h158l-8 -288l12 -12v-676h-162zM-62 -296v111h549v-111h-549z" />
    <glyph glyph-name="uni1E60" unicode="&#x1e60;" horiz-adv-x="1042" 
d="M507 -23q-92 0 -168.5 15t-136.5 37t-100 44l-17 165q77 -46 181.5 -80.5t227.5 -34.5q148 0 219 52.5t71 157.5v16q0 69 -28 113t-94.5 74t-180.5 56q-144 34 -230.5 80.5t-125 116.5t-38.5 174v9q0 157 103 242.5t312 85.5q137 0 233.5 -28t157.5 -62l15 -152
q-71 42 -165.5 71.5t-216.5 29.5q-97 0 -157 -23t-87 -66t-27 -104v-4q0 -62 26.5 -106t93 -76t189.5 -62q141 -33 226 -76t123.5 -112t38.5 -180v-21q0 -173 -111.5 -262.5t-333.5 -89.5zM511 1431q-45 0 -68.5 24.5t-23.5 68.5v5q0 43 23.5 67.5t68.5 24.5
q46 0 69.5 -24.5t23.5 -67.5v-5q0 -44 -23.5 -68.5t-69.5 -24.5z" />
    <glyph glyph-name="uni1E61" unicode="&#x1e61;" horiz-adv-x="882" 
d="M437 -22q-118 0 -206 25.5t-146 55.5l-15 150q73 -38 160.5 -66t198.5 -28q113 0 170 36t57 107v11q0 46 -21.5 76t-77.5 53t-159 46q-123 27 -194 63.5t-101.5 90.5t-30.5 132v9q0 128 89 194t268 66q115 0 199.5 -26t138.5 -58l15 -137q-65 38 -149 63t-189 25
q-76 0 -123 -15.5t-68 -44t-21 -68.5v-8q0 -44 21 -74.5t75.5 -53t151.5 -43.5q125 -25 198.5 -60t105.5 -88.5t32 -137.5v-17q0 -138 -96 -208t-283 -70zM438 1135q-48 0 -71.5 25t-23.5 71v6q0 45 23.5 70.5t71.5 25.5q49 0 72.5 -25.5t23.5 -70.5v-6q0 -46 -23.5 -71
t-72.5 -25z" />
    <glyph glyph-name="uni1E62" unicode="&#x1e62;" horiz-adv-x="1042" 
d="M507 -23q-92 0 -168.5 15t-136.5 37t-100 44l-17 165q77 -46 181.5 -80.5t227.5 -34.5q148 0 219 52.5t71 157.5v16q0 69 -28 113t-94.5 74t-180.5 56q-144 34 -230.5 80.5t-125 116.5t-38.5 174v9q0 157 103 242.5t312 85.5q137 0 233.5 -28t157.5 -62l15 -152
q-71 42 -165.5 71.5t-216.5 29.5q-97 0 -157 -23t-87 -66t-27 -104v-4q0 -62 26.5 -106t93 -76t189.5 -62q141 -33 226 -76t123.5 -112t38.5 -180v-21q0 -173 -111.5 -262.5t-333.5 -89.5zM511 -347q-45 0 -68.5 24.5t-23.5 69.5v5q0 43 23.5 67.5t68.5 24.5
q46 0 69.5 -24.5t23.5 -67.5v-5q0 -45 -23.5 -69.5t-69.5 -24.5z" />
    <glyph glyph-name="uni1E63" unicode="&#x1e63;" horiz-adv-x="882" 
d="M437 -22q-118 0 -206 25.5t-146 55.5l-15 150q73 -38 160.5 -66t198.5 -28q113 0 170 36t57 107v11q0 46 -21.5 76t-77.5 53t-159 46q-123 27 -194 63.5t-101.5 90.5t-30.5 132v9q0 128 89 194t268 66q115 0 199.5 -26t138.5 -58l15 -137q-65 38 -149 63t-189 25
q-76 0 -123 -15.5t-68 -44t-21 -68.5v-8q0 -44 21 -74.5t75.5 -53t151.5 -43.5q125 -25 198.5 -60t105.5 -88.5t32 -137.5v-17q0 -138 -96 -208t-283 -70zM440 -356q-48 0 -71.5 25t-23.5 70v7q0 45 23.5 70.5t71.5 25.5q49 0 72.5 -25.5t23.5 -70.5v-7q0 -45 -23.5 -70
t-72.5 -25z" />
    <glyph glyph-name="uni1E64" unicode="&#x1e64;" horiz-adv-x="1042" 
d="M512 1760q-46 0 -69 24.5t-23 68.5v5q0 42 23 66.5t69 24.5t69 -24.5t23 -66.5v-5q0 -44 -23 -68.5t-69 -24.5zM507 -23q-92 0 -168.5 15t-136.5 37t-100 44l-17 165q77 -46 181.5 -80.5t227.5 -34.5q148 0 219 52.5t71 157.5v16q0 69 -28 113t-94.5 74t-180.5 56
q-144 34 -230.5 80.5t-125 116.5t-38.5 174v9q0 157 103 242.5t312 85.5q137 0 233.5 -28t157.5 -62l15 -152q-71 42 -165.5 71.5t-216.5 29.5q-97 0 -157 -23t-87 -66t-27 -104v-4q0 -62 26.5 -106t93 -76t189.5 -62q141 -33 226 -76t123.5 -112t38.5 -180v-21
q0 -173 -111.5 -262.5t-333.5 -89.5zM679 1650h188v-3l-273 -246h-156v2z" />
    <glyph glyph-name="uni1E65" unicode="&#x1e65;" horiz-adv-x="882" 
d="M441 1482q-46 0 -69.5 24.5t-23.5 68.5v6q0 45 23.5 70t69.5 25q48 0 71.5 -25t23.5 -70v-6q0 -44 -23.5 -68.5t-71.5 -24.5zM437 -22q-118 0 -206 25.5t-146 55.5l-15 150q73 -38 160.5 -66t198.5 -28q113 0 170 36t57 107v11q0 46 -21.5 76t-77.5 53t-159 46
q-123 27 -194 63.5t-101.5 90.5t-30.5 132v9q0 128 89 194t268 66q115 0 199.5 -26t138.5 -58l15 -137q-65 38 -149 63t-189 25q-76 0 -123 -15.5t-68 -44t-21 -68.5v-8q0 -44 21 -74.5t75.5 -53t151.5 -43.5q125 -25 198.5 -60t105.5 -88.5t32 -137.5v-17q0 -138 -96 -208
t-283 -70zM563 1366h179v-3l-230 -266h-143v2z" />
    <glyph glyph-name="uni1E66" unicode="&#x1e66;" horiz-adv-x="1042" 
d="M512 1756q-46 0 -69 24.5t-23 68.5v5q0 42 23 66.5t69 24.5t69 -24.5t23 -66.5v-5q0 -44 -23 -68.5t-69 -24.5zM507 -23q-92 0 -168.5 15t-136.5 37t-100 44l-17 165q77 -46 181.5 -80.5t227.5 -34.5q148 0 219 52.5t71 157.5v16q0 69 -28 113t-94.5 74t-180.5 56
q-144 34 -230.5 80.5t-125 116.5t-38.5 174v9q0 157 103 242.5t312 85.5q137 0 233.5 -28t157.5 -62l15 -152q-71 42 -165.5 71.5t-216.5 29.5q-97 0 -157 -23t-87 -66t-27 -104v-4q0 -62 26.5 -106t93 -76t189.5 -62q141 -33 226 -76t123.5 -112t38.5 -180v-21
q0 -173 -111.5 -262.5t-333.5 -89.5zM426 1401l-222 247v2h138l166 -159h8l165 159h139v-2l-222 -247h-172z" />
    <glyph glyph-name="uni1E67" unicode="&#x1e67;" horiz-adv-x="882" 
d="M438 1475q-47 0 -70 24.5t-23 69.5v6q0 45 23 69.5t70 24.5t70.5 -24.5t23.5 -69.5v-6q0 -45 -23.5 -69.5t-70.5 -24.5zM437 -22q-118 0 -206 25.5t-146 55.5l-15 150q73 -38 160.5 -66t198.5 -28q113 0 170 36t57 107v11q0 46 -21.5 76t-77.5 53t-159 46
q-123 27 -194 63.5t-101.5 90.5t-30.5 132v9q0 128 89 194t268 66q115 0 199.5 -26t138.5 -58l15 -137q-65 38 -149 63t-189 25q-76 0 -123 -15.5t-68 -44t-21 -68.5v-8q0 -44 21 -74.5t75.5 -53t151.5 -43.5q125 -25 198.5 -60t105.5 -88.5t32 -137.5v-17q0 -138 -96 -208
t-283 -70zM351 1097l-190 267v2h129l145 -178h8l145 178h129v-2l-190 -267h-176z" />
    <glyph glyph-name="uni1E68" unicode="&#x1e68;" horiz-adv-x="1042" 
d="M507 -23q-92 0 -168.5 15t-136.5 37t-100 44l-17 165q77 -46 181.5 -80.5t227.5 -34.5q148 0 219 52.5t71 157.5v16q0 69 -28 113t-94.5 74t-180.5 56q-144 34 -230.5 80.5t-125 116.5t-38.5 174v9q0 157 103 242.5t312 85.5q137 0 233.5 -28t157.5 -62l15 -152
q-71 42 -165.5 71.5t-216.5 29.5q-97 0 -157 -23t-87 -66t-27 -104v-4q0 -62 26.5 -106t93 -76t189.5 -62q141 -33 226 -76t123.5 -112t38.5 -180v-21q0 -173 -111.5 -262.5t-333.5 -89.5zM511 -347q-45 0 -68.5 24.5t-23.5 69.5v5q0 43 23.5 67.5t68.5 24.5
q46 0 69.5 -24.5t23.5 -67.5v-5q0 -45 -23.5 -69.5t-69.5 -24.5zM511 1431q-45 0 -68.5 24.5t-23.5 68.5v5q0 43 23.5 67.5t68.5 24.5q46 0 69.5 -24.5t23.5 -67.5v-5q0 -44 -23.5 -68.5t-69.5 -24.5z" />
    <glyph glyph-name="uni1E69" unicode="&#x1e69;" horiz-adv-x="882" 
d="M437 -22q-118 0 -206 25.5t-146 55.5l-15 150q73 -38 160.5 -66t198.5 -28q113 0 170 36t57 107v11q0 46 -21.5 76t-77.5 53t-159 46q-123 27 -194 63.5t-101.5 90.5t-30.5 132v9q0 128 89 194t268 66q115 0 199.5 -26t138.5 -58l15 -137q-65 38 -149 63t-189 25
q-76 0 -123 -15.5t-68 -44t-21 -68.5v-8q0 -44 21 -74.5t75.5 -53t151.5 -43.5q125 -25 198.5 -60t105.5 -88.5t32 -137.5v-17q0 -138 -96 -208t-283 -70zM440 -356q-48 0 -71.5 25t-23.5 70v7q0 45 23.5 70.5t71.5 25.5q49 0 72.5 -25.5t23.5 -70.5v-7q0 -45 -23.5 -70
t-72.5 -25zM438 1135q-48 0 -71.5 25t-23.5 71v6q0 45 23.5 70.5t71.5 25.5q49 0 72.5 -25.5t23.5 -70.5v-6q0 -46 -23.5 -71t-72.5 -25z" />
    <glyph glyph-name="uni1E6C" unicode="&#x1e6c;" horiz-adv-x="1062" 
d="M448 0v1251h166v-1251h-166zM65 1139v139h932v-139h-932zM530 -347q-45 0 -68.5 24.5t-23.5 69.5v5q0 43 23.5 67.5t68.5 24.5q46 0 69.5 -24.5t23.5 -67.5v-5q0 -45 -23.5 -69.5t-69.5 -24.5z" />
    <glyph glyph-name="uni1E6D" unicode="&#x1e6d;" horiz-adv-x="791" 
d="M487 -20q-113 0 -182 34t-100 103t-31 172v616h160v-597q0 -96 44 -141.5t148 -45.5q59 0 113.5 13t102.5 37l-15 -139q-47 -24 -110 -38t-130 -14zM14 832v130h718l-15 -130h-703zM175 946l-1 274l163 21l-7 -295h-155zM451 -356q-48 0 -71.5 25t-23.5 70v7
q0 45 23.5 70.5t71.5 25.5q49 0 72.5 -25.5t23.5 -70.5v-7q0 -45 -23.5 -70t-72.5 -25z" />
    <glyph glyph-name="uni1E6E" unicode="&#x1e6e;" horiz-adv-x="1062" 
d="M448 0v1251h166v-1251h-166zM65 1139v139h932v-139h-932zM255 -289v111h549v-111h-549z" />
    <glyph glyph-name="uni1E6F" unicode="&#x1e6f;" horiz-adv-x="791" 
d="M487 -20q-113 0 -182 34t-100 103t-31 172v616h160v-597q0 -96 44 -141.5t148 -45.5q59 0 113.5 13t102.5 37l-15 -139q-47 -24 -110 -38t-130 -14zM14 832v130h718l-15 -130h-703zM175 946l-1 274l163 21l-7 -295h-155zM176 -296v111h549v-111h-549z" />
    <glyph glyph-name="uni1E78" unicode="&#x1e78;" horiz-adv-x="1220" 
d="M705 1935h151v-2l-182 -219h-123v1zM610 -24q-240 0 -354.5 123.5t-114.5 359.5v819h166v-823q0 -164 72 -250.5t231 -86.5q160 0 231.5 86.5t71.5 250.5v823h166v-819q0 -236 -114 -359.5t-355 -123.5zM750 1422q-38 0 -74.5 11t-69.5 25.5t-63.5 26t-58.5 11.5
q-30 0 -42.5 -18t-12.5 -53v-13h-104v30q0 78 32.5 124t112.5 46q39 0 75.5 -11t69.5 -26t63 -26t58 -11q31 0 43 18t12 53v13h103v-31q0 -78 -32.5 -123.5t-111.5 -45.5z" />
    <glyph glyph-name="uni1E79" unicode="&#x1e79;" horiz-adv-x="1066" 
d="M632 1665h149v-1l-183 -236h-121v2zM281 976v-607q0 -77 21.5 -134.5t70.5 -89t132 -31.5q78 0 134 28.5t91.5 78.5t48.5 113l29 -115h-35q-15 -66 -55 -120.5t-107.5 -87t-166.5 -32.5q-115 0 -186.5 43.5t-104.5 127t-33 201.5v625h161zM934 976v-976h-162l7 234l-7 10
v732h162zM664 1124q-36 0 -70 12t-65.5 28.5t-59.5 28.5t-54 12q-29 0 -41.5 -18.5t-12.5 -55.5v-17h-103v33q0 82 33 128t111 46q37 0 70.5 -12.5t64.5 -28t59.5 -28t53.5 -12.5q30 0 42 18.5t12 56.5v16h103v-33q0 -83 -33 -128.5t-110 -45.5z" />
    <glyph glyph-name="uni1E7A" unicode="&#x1e7a;" horiz-adv-x="1220" 
d="M610 -24q-240 0 -354.5 123.5t-114.5 359.5v819h166v-823q0 -164 72 -250.5t231 -86.5q160 0 231.5 86.5t71.5 250.5v823h166v-819q0 -236 -114 -359.5t-355 -123.5zM334 1459v111h549v-111h-549zM457 1740q-43 0 -65 24.5t-22 69.5v7q0 45 22 69t65 24q45 0 66.5 -24
t21.5 -69v-7q0 -45 -21.5 -69.5t-66.5 -24.5zM763 1740q-44 0 -65.5 24.5t-21.5 69.5v7q0 45 21.5 69t65.5 24q43 0 64.5 -24t21.5 -69v-7q0 -45 -21.5 -69.5t-64.5 -24.5z" />
    <glyph glyph-name="uni1E7B" unicode="&#x1e7b;" horiz-adv-x="1066" 
d="M281 976v-607q0 -77 21.5 -134.5t70.5 -89t132 -31.5q78 0 134 28.5t91.5 78.5t48.5 113l29 -115h-35q-15 -66 -55 -120.5t-107.5 -87t-166.5 -32.5q-115 0 -186.5 43.5t-104.5 127t-33 201.5v625h161zM934 976v-976h-162l7 234l-7 10v732h162zM258 1161v111h549v-111
h-549zM380 1447q-43 0 -65 24.5t-22 69.5v7q0 45 22 69t65 24q45 0 66.5 -24t21.5 -69v-7q0 -45 -21.5 -69.5t-66.5 -24.5zM686 1447q-44 0 -65.5 24.5t-21.5 69.5v7q0 45 21.5 69t65.5 24q43 0 64.5 -24t21.5 -69v-7q0 -45 -21.5 -69.5t-64.5 -24.5z" />
    <glyph glyph-name="Wgrave" unicode="&#x1e80;" horiz-adv-x="1635" 
d="M329 0l-264 1278h170l186 -955l35 -184h18l34 184l187 922h245l187 -922l34 -184h18l36 184l186 955h168l-263 -1278h-262l-148 735l-70 373h-16l-71 -373l-146 -735h-264zM650 1650l242 -247v-2h-156l-273 246v3h187z" />
    <glyph glyph-name="wgrave" unicode="&#x1e81;" horiz-adv-x="1497" 
d="M296 0l-240 976h167l192 -858h19l200 832h229l200 -832h18l194 858h166l-240 -976h-248l-165 694l-32 139h-15l-31 -139l-165 -694h-249zM626 1366l194 -267v-2h-144l-230 266v3h180z" />
    <glyph glyph-name="Wacute" unicode="&#x1e82;" horiz-adv-x="1635" 
d="M329 0l-264 1278h170l186 -955l35 -184h18l34 184l187 922h245l187 -922l34 -184h18l36 184l186 955h168l-263 -1278h-262l-148 735l-70 373h-16l-71 -373l-146 -735h-264zM984 1650h188v-3l-273 -246h-156v2z" />
    <glyph glyph-name="wacute" unicode="&#x1e83;" horiz-adv-x="1497" 
d="M296 0l-240 976h167l192 -858h19l200 832h229l200 -832h18l194 858h166l-240 -976h-248l-165 694l-32 139h-15l-31 -139l-165 -694h-249zM872 1366h180v-3l-230 -266h-144v2z" />
    <glyph glyph-name="Wdieresis" unicode="&#x1e84;" horiz-adv-x="1635" 
d="M329 0l-264 1278h170l186 -955l35 -184h18l34 184l187 922h245l187 -922l34 -184h18l36 184l186 955h168l-263 -1278h-262l-148 735l-70 373h-16l-71 -373l-146 -735h-264zM665 1432q-43 0 -65 24.5t-22 69.5v7q0 45 22 69t65 24q45 0 66.5 -24t21.5 -69v-7
q0 -45 -21.5 -69.5t-66.5 -24.5zM971 1432q-44 0 -65.5 24.5t-21.5 69.5v7q0 45 21.5 69t65.5 24q43 0 64.5 -24t21.5 -69v-7q0 -45 -21.5 -69.5t-64.5 -24.5z" />
    <glyph glyph-name="wdieresis" unicode="&#x1e85;" horiz-adv-x="1497" 
d="M296 0l-240 976h167l192 -858h19l200 832h229l200 -832h18l194 858h166l-240 -976h-248l-165 694l-32 139h-15l-31 -139l-165 -694h-249zM596 1135q-43 0 -65 24.5t-22 69.5v7q0 45 22 69t65 24q45 0 66.5 -24t21.5 -69v-7q0 -45 -21.5 -69.5t-66.5 -24.5zM902 1135
q-44 0 -65.5 24.5t-21.5 69.5v7q0 45 21.5 69t65.5 24q43 0 64.5 -24t21.5 -69v-7q0 -45 -21.5 -69.5t-64.5 -24.5z" />
    <glyph glyph-name="uni1E8E" unicode="&#x1e8e;" horiz-adv-x="1096" 
d="M477 384l-439 894h175l235 -489l94 -212h13l94 212l234 489h176l-439 -894h-143zM467 0v539h163v-539h-163zM547 1431q-45 0 -68.5 24.5t-23.5 68.5v5q0 43 23.5 67.5t68.5 24.5q46 0 69.5 -24.5t23.5 -67.5v-5q0 -44 -23.5 -68.5t-69.5 -24.5z" />
    <glyph glyph-name="uni1E8F" unicode="&#x1e8f;" horiz-adv-x="988" 
d="M571 151l-85 -37l292 862h167l-459 -1320h-164l154 446l71 -62h-184l-319 936h168l266 -825h93zM494 1135q-48 0 -71.5 25t-23.5 71v6q0 45 23.5 70.5t71.5 25.5q49 0 72.5 -25.5t23.5 -70.5v-6q0 -46 -23.5 -71t-72.5 -25z" />
    <glyph glyph-name="uni1E92" unicode="&#x1e92;" horiz-adv-x="1036" 
d="M950 140v-140h-864v131l665 1009h-659v138h851v-129l-665 -1009h672zM518 -347q-45 0 -68.5 24.5t-23.5 69.5v5q0 43 23.5 67.5t68.5 24.5q46 0 69.5 -24.5t23.5 -67.5v-5q0 -45 -23.5 -69.5t-69.5 -24.5z" />
    <glyph glyph-name="uni1E93" unicode="&#x1e93;" horiz-adv-x="903" 
d="M822 134v-134h-741v122l543 721h-541v133h735v-121l-543 -721h547zM451 -356q-48 0 -71.5 25t-23.5 70v7q0 45 23.5 70.5t71.5 25.5q49 0 72.5 -25.5t23.5 -70.5v-7q0 -45 -23.5 -70t-72.5 -25z" />
    <glyph glyph-name="uni1E97" unicode="&#x1e97;" horiz-adv-x="791" 
d="M487 -20q-113 0 -182 34t-100 103t-31 172v616h160v-597q0 -96 44 -141.5t148 -45.5q59 0 113.5 13t102.5 37l-15 -139q-47 -24 -110 -38t-130 -14zM14 832v130h718l-15 -130h-703zM175 946l-1 274l163 21l-7 -295h-155zM105 1371q-43 0 -65 24.5t-22 69.5v7q0 45 22 69
t65 24q45 0 66.5 -24t21.5 -69v-7q0 -45 -21.5 -69.5t-66.5 -24.5zM411 1371q-44 0 -65.5 24.5t-21.5 69.5v7q0 45 21.5 69t65.5 24q43 0 64.5 -24t21.5 -69v-7q0 -45 -21.5 -69.5t-64.5 -24.5z" />
    <glyph glyph-name="uni1E9E" unicode="&#x1e9e;" horiz-adv-x="1257" 
d="M303 0h-162v822q0 225 112 340.5t345 115.5h519v-128l-399 -482l-80 35q39 13 88.5 19t85.5 6q178 0 265 -83.5t87 -247.5v-60q0 -174 -98 -266t-300 -92q-95 0 -166.5 21t-111.5 41l-16 155q54 -31 124.5 -52t155.5 -21q127 0 187 57.5t60 166.5v45q0 112 -61 165.5
t-201 53.5q-43 0 -82 -3.5t-80 -10.5v120l381 466l26 -38h-364q-164 0 -239.5 -82t-75.5 -244v-819z" />
    <glyph glyph-name="uni1EA0" unicode="&#x1ea0;" horiz-adv-x="1161" 
d="M49 0l400 1278h262l401 -1278h-168l-351 1166h-25l-351 -1166h-168zM289 377v138h582v-138h-582zM580 -347q-45 0 -68.5 24.5t-23.5 69.5v5q0 43 23.5 67.5t68.5 24.5q46 0 69.5 -24.5t23.5 -67.5v-5q0 -45 -23.5 -69.5t-69.5 -24.5z" />
    <glyph glyph-name="uni1EA1" unicode="&#x1ea1;" horiz-adv-x="988" 
d="M711 0l7 237l-6 25v311l1 57q0 119 -60.5 176t-191.5 57q-105 0 -192.5 -30t-155.5 -70l15 138q38 23 90.5 45.5t120 37.5t148.5 15q105 0 178.5 -25.5t119 -73.5t66.5 -116t21 -152v-632h-161zM375 -21q-145 0 -222.5 70.5t-77.5 201.5v29q0 135 83.5 201.5t265.5 92.5
l309 44l9 -118l-298 -43q-112 -16 -160 -54.5t-48 -113.5v-16q0 -77 47.5 -118t142.5 -41q84 0 144 29t97 78t50 109l25 -110h-31q-14 -64 -52.5 -119t-107.5 -88.5t-176 -33.5zM486 -356q-48 0 -71.5 25t-23.5 70v7q0 45 23.5 70.5t71.5 25.5q49 0 72.5 -25.5t23.5 -70.5
v-7q0 -45 -23.5 -70t-72.5 -25z" />
    <glyph glyph-name="uni1EA2" unicode="&#x1ea2;" horiz-adv-x="1161" 
d="M49 0l400 1278h262l401 -1278h-168l-351 1166h-25l-351 -1166h-168zM289 377v138h582v-138h-582zM537 1382q118 22 181 69.5t63 136.5q0 73 -45.5 110.5t-128.5 37.5q-41 0 -78 -9t-63 -21l-8 -97q27 12 57 20.5t61 8.5q85 0 85 -61q0 -40 -35 -62t-106 -39z" />
    <glyph glyph-name="uni1EA3" unicode="&#x1ea3;" horiz-adv-x="988" 
d="M711 0l7 237l-6 25v311l1 57q0 119 -60.5 176t-191.5 57q-105 0 -192.5 -30t-155.5 -70l15 138q38 23 90.5 45.5t120 37.5t148.5 15q105 0 178.5 -25.5t119 -73.5t66.5 -116t21 -152v-632h-161zM375 -21q-145 0 -222.5 70.5t-77.5 201.5v29q0 135 83.5 201.5t265.5 92.5
l309 44l9 -118l-298 -43q-112 -16 -160 -54.5t-48 -113.5v-16q0 -77 47.5 -118t142.5 -41q84 0 144 29t97 78t50 109l25 -110h-31q-14 -64 -52.5 -119t-107.5 -88.5t-176 -33.5zM441 1085q118 22 181 69.5t63 136.5q0 73 -45.5 110.5t-128.5 37.5q-41 0 -78 -9t-63 -21
l-8 -97q27 12 57 20.5t61 8.5q85 0 85 -61q0 -40 -35 -62t-106 -39z" />
    <glyph glyph-name="uni1EA4" unicode="&#x1ea4;" horiz-adv-x="1161" 
d="M49 0l400 1278h262l401 -1278h-168l-351 1166h-25l-351 -1166h-168zM289 377v138h582v-138h-582zM955 1842h150v-3l-182 -219h-122v2zM495 1650h172l222 -247v-2h-139l-165 158h-8l-166 -158h-138v2z" />
    <glyph glyph-name="uni1EA5" unicode="&#x1ea5;" horiz-adv-x="988" 
d="M711 0l7 237l-6 25v311l1 57q0 119 -60.5 176t-191.5 57q-105 0 -192.5 -30t-155.5 -70l15 138q38 23 90.5 45.5t120 37.5t148.5 15q105 0 178.5 -25.5t119 -73.5t66.5 -116t21 -152v-632h-161zM375 -21q-145 0 -222.5 70.5t-77.5 201.5v29q0 135 83.5 201.5t265.5 92.5
l309 44l9 -118l-298 -43q-112 -16 -160 -54.5t-48 -113.5v-16q0 -77 47.5 -118t142.5 -41q84 0 144 29t97 78t50 109l25 -110h-31q-14 -64 -52.5 -119t-107.5 -88.5t-176 -33.5zM868 1565h150v-2l-183 -236h-121v2zM399 1363h175l191 -267v-2h-129l-146 178h-7l-146 -178
h-129v2z" />
    <glyph glyph-name="uni1EA6" unicode="&#x1ea6;" horiz-adv-x="1161" 
d="M49 0l400 1278h262l401 -1278h-168l-351 1166h-25l-351 -1166h-168zM289 377v138h582v-138h-582zM854 1841l154 -220v-2h-123l-182 219v3h151zM495 1650h172l222 -247v-2h-139l-165 158h-8l-166 -158h-138v2z" />
    <glyph glyph-name="uni1EA7" unicode="&#x1ea7;" horiz-adv-x="988" 
d="M711 0l7 237l-6 25v311l1 57q0 119 -60.5 176t-191.5 57q-105 0 -192.5 -30t-155.5 -70l15 138q38 23 90.5 45.5t120 37.5t148.5 15q105 0 178.5 -25.5t119 -73.5t66.5 -116t21 -152v-632h-161zM375 -21q-145 0 -222.5 70.5t-77.5 201.5v29q0 135 83.5 201.5t265.5 92.5
l309 44l9 -118l-298 -43q-112 -16 -160 -54.5t-48 -113.5v-16q0 -77 47.5 -118t142.5 -41q84 0 144 29t97 78t50 109l25 -110h-31q-14 -64 -52.5 -119t-107.5 -88.5t-176 -33.5zM767 1568l154 -236v-2h-121l-183 236v2h150zM399 1366h175l191 -267v-2h-129l-146 178h-7
l-146 -178h-129v2z" />
    <glyph glyph-name="uni1EA8" unicode="&#x1ea8;" horiz-adv-x="1161" 
d="M49 0l400 1278h262l401 -1278h-168l-351 1166h-25l-351 -1166h-168zM289 377v138h582v-138h-582zM829 1598q101 19 156 60t55 110q0 65 -39.5 98t-110.5 33q-38 0 -70 -7t-54 -17l-9 -84q24 8 50.5 15t56.5 7q66 0 66 -50q0 -32 -29.5 -50t-87.5 -32zM495 1650h172
l222 -247v-2h-139l-165 158h-8l-166 -158h-138v2z" />
    <glyph glyph-name="uni1EA9" unicode="&#x1ea9;" horiz-adv-x="988" 
d="M711 0l7 237l-6 25v311l1 57q0 119 -60.5 176t-191.5 57q-105 0 -192.5 -30t-155.5 -70l15 138q38 23 90.5 45.5t120 37.5t148.5 15q105 0 178.5 -25.5t119 -73.5t66.5 -116t21 -152v-632h-161zM375 -21q-145 0 -222.5 70.5t-77.5 201.5v29q0 135 83.5 201.5t265.5 92.5
l309 44l9 -118l-298 -43q-112 -16 -160 -54.5t-48 -113.5v-16q0 -77 47.5 -118t142.5 -41q84 0 144 29t97 78t50 109l25 -110h-31q-14 -64 -52.5 -119t-107.5 -88.5t-176 -33.5zM742 1297q103 21 157.5 64t54.5 118q0 69 -40 103.5t-114 34.5q-36 0 -68 -7.5t-54 -17.5
l-8 -89q24 10 50.5 17t54.5 7q69 0 69 -55q0 -35 -30 -54.5t-88 -34.5zM399 1366h175l191 -267v-2h-129l-146 178h-7l-146 -178h-129v2z" />
    <glyph glyph-name="uni1EAA" unicode="&#x1eaa;" horiz-adv-x="1161" 
d="M49 0l400 1278h262l401 -1278h-168l-351 1166h-25l-351 -1166h-168zM289 377v138h582v-138h-582zM709 1755q-35 0 -68 10.5t-63 25t-57.5 25.5t-53.5 11q-30 0 -42.5 -18.5t-12.5 -52.5v-10h-94v22q0 68 29.5 113t107.5 45q36 0 68 -11.5t62 -26.5t58 -26t53 -11
q31 0 43.5 19t12.5 55v10h95v-21q0 -71 -30 -115t-108 -44zM495 1650h172l222 -247v-2h-139l-165 158h-8l-166 -158h-138v2z" />
    <glyph glyph-name="uni1EAB" unicode="&#x1eab;" horiz-adv-x="988" 
d="M711 0l7 237l-6 25v311l1 57q0 119 -60.5 176t-191.5 57q-105 0 -192.5 -30t-155.5 -70l15 138q38 23 90.5 45.5t120 37.5t148.5 15q105 0 178.5 -25.5t119 -73.5t66.5 -116t21 -152v-632h-161zM375 -21q-145 0 -222.5 70.5t-77.5 201.5v29q0 135 83.5 201.5t265.5 92.5
l309 44l9 -118l-298 -43q-112 -16 -160 -54.5t-48 -113.5v-16q0 -77 47.5 -118t142.5 -41q84 0 144 29t97 78t50 109l25 -110h-31q-14 -64 -52.5 -119t-107.5 -88.5t-176 -33.5zM613 1478q-35 0 -67 11t-62.5 26t-58 26t-53.5 11q-29 0 -41 -18t-13 -53v-16h-93v28
q0 71 29.5 117t106.5 46q35 0 67.5 -11.5t62 -26t57.5 -26t54 -11.5q29 0 41.5 18.5t12.5 53.5v15h94v-28q0 -72 -29.5 -117t-107.5 -45zM399 1366h175l191 -267v-2h-129l-146 178h-7l-146 -178h-129v2z" />
    <glyph glyph-name="uni1EAC" unicode="&#x1eac;" horiz-adv-x="1161" 
d="M49 0l400 1278h262l401 -1278h-168l-351 1166h-25l-351 -1166h-168zM289 377v138h582v-138h-582zM580 -347q-45 0 -68.5 24.5t-23.5 69.5v5q0 43 23.5 67.5t68.5 24.5q46 0 69.5 -24.5t23.5 -67.5v-5q0 -45 -23.5 -69.5t-69.5 -24.5zM495 1650h172l222 -247v-2h-139
l-165 158h-8l-166 -158h-138v2z" />
    <glyph glyph-name="uni1EAD" unicode="&#x1ead;" horiz-adv-x="988" 
d="M711 0l7 237l-6 25v311l1 57q0 119 -60.5 176t-191.5 57q-105 0 -192.5 -30t-155.5 -70l15 138q38 23 90.5 45.5t120 37.5t148.5 15q105 0 178.5 -25.5t119 -73.5t66.5 -116t21 -152v-632h-161zM375 -21q-145 0 -222.5 70.5t-77.5 201.5v29q0 135 83.5 201.5t265.5 92.5
l309 44l9 -118l-298 -43q-112 -16 -160 -54.5t-48 -113.5v-16q0 -77 47.5 -118t142.5 -41q84 0 144 29t97 78t50 109l25 -110h-31q-14 -64 -52.5 -119t-107.5 -88.5t-176 -33.5zM486 -356q-48 0 -71.5 25t-23.5 70v7q0 45 23.5 70.5t71.5 25.5q49 0 72.5 -25.5t23.5 -70.5
v-7q0 -45 -23.5 -70t-72.5 -25zM399 1366h175l191 -267v-2h-129l-146 178h-7l-146 -178h-129v2z" />
    <glyph glyph-name="uni1EAE" unicode="&#x1eae;" horiz-adv-x="1161" 
d="M49 0l400 1278h262l401 -1278h-168l-351 1166h-25l-351 -1166h-168zM289 377v138h582v-138h-582zM678 1935h150v-2l-182 -219h-123v1zM581 1395q-135 0 -197.5 66t-64.5 189h112q3 -73 40 -111t110 -38t110 38t41 111h111q-2 -123 -64 -189t-198 -66z" />
    <glyph glyph-name="uni1EAF" unicode="&#x1eaf;" horiz-adv-x="988" 
d="M711 0l7 237l-6 25v311l1 57q0 119 -60.5 176t-191.5 57q-105 0 -192.5 -30t-155.5 -70l15 138q38 23 90.5 45.5t120 37.5t148.5 15q105 0 178.5 -25.5t119 -73.5t66.5 -116t21 -152v-632h-161zM375 -21q-145 0 -222.5 70.5t-77.5 201.5v29q0 135 83.5 201.5t265.5 92.5
l309 44l9 -118l-298 -43q-112 -16 -160 -54.5t-48 -113.5v-16q0 -77 47.5 -118t142.5 -41q84 0 144 29t97 78t50 109l25 -110h-31q-14 -64 -52.5 -119t-107.5 -88.5t-176 -33.5zM586 1678h150v-2l-183 -236h-121v2zM486 1089q-133 0 -194.5 71.5t-63.5 205.5h112
q3 -85 38.5 -128t107.5 -43t107.5 43t39.5 128h112q-2 -134 -63 -205.5t-196 -71.5z" />
    <glyph glyph-name="uni1EB0" unicode="&#x1eb0;" horiz-adv-x="1161" 
d="M49 0l400 1278h262l401 -1278h-168l-351 1166h-25l-351 -1166h-168zM289 377v138h582v-138h-582zM487 1935l154 -220v-1h-123l-182 219v2h151zM581 1395q-135 0 -197.5 66t-64.5 189h112q3 -73 40 -111t110 -38t110 38t41 111h111q-2 -123 -64 -189t-198 -66z" />
    <glyph glyph-name="uni1EB1" unicode="&#x1eb1;" horiz-adv-x="988" 
d="M711 0l7 237l-6 25v311l1 57q0 119 -60.5 176t-191.5 57q-105 0 -192.5 -30t-155.5 -70l15 138q38 23 90.5 45.5t120 37.5t148.5 15q105 0 178.5 -25.5t119 -73.5t66.5 -116t21 -152v-632h-161zM375 -21q-145 0 -222.5 70.5t-77.5 201.5v29q0 135 83.5 201.5t265.5 92.5
l309 44l9 -118l-298 -43q-112 -16 -160 -54.5t-48 -113.5v-16q0 -77 47.5 -118t142.5 -41q84 0 144 29t97 78t50 109l25 -110h-31q-14 -64 -52.5 -119t-107.5 -88.5t-176 -33.5zM387 1678l155 -236v-2h-122l-183 236v2h150zM486 1089q-133 0 -194.5 71.5t-63.5 205.5h112
q3 -85 38.5 -128t107.5 -43t107.5 43t39.5 128h112q-2 -134 -63 -205.5t-196 -71.5z" />
    <glyph glyph-name="uni1EB2" unicode="&#x1eb2;" horiz-adv-x="1161" 
d="M49 0l400 1278h262l401 -1278h-168l-351 1166h-25l-351 -1166h-168zM289 377v138h582v-138h-582zM563 1693q101 19 156 60t55 110q0 65 -39.5 98t-110.5 33q-38 0 -70 -6.5t-55 -16.5l-8 -85q24 9 50.5 15.5t56.5 6.5q66 0 66 -50q0 -31 -29.5 -49.5t-88.5 -32.5z
M581 1395q-135 0 -197.5 66t-64.5 189h112q3 -73 40 -111t110 -38t110 38t41 111h111q-2 -123 -64 -189t-198 -66z" />
    <glyph glyph-name="uni1EB3" unicode="&#x1eb3;" horiz-adv-x="988" 
d="M711 0l7 237l-6 25v311l1 57q0 119 -60.5 176t-191.5 57q-105 0 -192.5 -30t-155.5 -70l15 138q38 23 90.5 45.5t120 37.5t148.5 15q105 0 178.5 -25.5t119 -73.5t66.5 -116t21 -152v-632h-161zM375 -21q-145 0 -222.5 70.5t-77.5 201.5v29q0 135 83.5 201.5t265.5 92.5
l309 44l9 -118l-298 -43q-112 -16 -160 -54.5t-48 -113.5v-16q0 -77 47.5 -118t142.5 -41q84 0 144 29t97 78t50 109l25 -110h-31q-14 -64 -52.5 -119t-107.5 -88.5t-176 -33.5zM463 1413q103 21 157.5 64t54.5 118q0 68 -40 102.5t-113 34.5q-36 0 -68 -7t-55 -17l-8 -89
q24 10 50.5 17t54.5 7q70 0 70 -55q0 -35 -30.5 -55t-88.5 -34zM486 1089q-133 0 -194.5 71.5t-63.5 205.5h112q3 -85 38.5 -128t107.5 -43t107.5 43t39.5 128h112q-2 -134 -63 -205.5t-196 -71.5z" />
    <glyph glyph-name="uni1EB4" unicode="&#x1eb4;" horiz-adv-x="1161" 
d="M49 0l400 1278h262l401 -1278h-168l-351 1166h-25l-351 -1166h-168zM289 377v138h582v-138h-582zM708 1755q-35 0 -67.5 10.5t-62.5 25t-58 25.5t-53 11q-30 0 -43 -18.5t-13 -52.5v-10h-93v22q0 68 29.5 113t106.5 45q36 0 68.5 -11.5t62.5 -26.5t57.5 -26t52.5 -11
q31 0 43.5 19t12.5 55v10h95v-21q0 -71 -30 -115t-108 -44zM580 1395q-135 0 -197 66t-64 189h111q4 -73 40.5 -111t109.5 -38t110 38t41 111h111q-2 -123 -64 -189t-198 -66z" />
    <glyph glyph-name="uni1EB5" unicode="&#x1eb5;" horiz-adv-x="988" 
d="M711 0l7 237l-6 25v311l1 57q0 119 -60.5 176t-191.5 57q-105 0 -192.5 -30t-155.5 -70l15 138q38 23 90.5 45.5t120 37.5t148.5 15q105 0 178.5 -25.5t119 -73.5t66.5 -116t21 -152v-632h-161zM375 -21q-145 0 -222.5 70.5t-77.5 201.5v29q0 135 83.5 201.5t265.5 92.5
l309 44l9 -118l-298 -43q-112 -16 -160 -54.5t-48 -113.5v-16q0 -77 47.5 -118t142.5 -41q84 0 144 29t97 78t50 109l25 -110h-31q-14 -64 -52.5 -119t-107.5 -88.5t-176 -33.5zM612 1484q-35 0 -67.5 11t-62.5 26t-57.5 26t-53.5 11q-29 0 -41.5 -18.5t-12.5 -52.5v-16h-93
v28q0 71 29.5 116.5t106.5 45.5q35 0 67.5 -11t62 -26t57 -26t54.5 -11q29 0 41 18t12 54v15h95v-28q0 -72 -30 -117t-107 -45zM485 1089q-133 0 -194.5 71.5t-63.5 205.5h112q4 -85 39 -128t107 -43t107.5 43t39.5 128h112q-2 -134 -63 -205.5t-196 -71.5z" />
    <glyph glyph-name="uni1EB6" unicode="&#x1eb6;" horiz-adv-x="1161" 
d="M49 0l400 1278h262l401 -1278h-168l-351 1166h-25l-351 -1166h-168zM289 377v138h582v-138h-582zM580 -347q-45 0 -68.5 24.5t-23.5 69.5v5q0 43 23.5 67.5t68.5 24.5q46 0 69.5 -24.5t23.5 -67.5v-5q0 -45 -23.5 -69.5t-69.5 -24.5zM581 1395q-135 0 -197.5 66
t-64.5 189h112q3 -73 40 -111t110 -38t110 38t41 111h111q-2 -123 -64 -189t-198 -66z" />
    <glyph glyph-name="uni1EB7" unicode="&#x1eb7;" horiz-adv-x="988" 
d="M711 0l7 237l-6 25v311l1 57q0 119 -60.5 176t-191.5 57q-105 0 -192.5 -30t-155.5 -70l15 138q38 23 90.5 45.5t120 37.5t148.5 15q105 0 178.5 -25.5t119 -73.5t66.5 -116t21 -152v-632h-161zM375 -21q-145 0 -222.5 70.5t-77.5 201.5v29q0 135 83.5 201.5t265.5 92.5
l309 44l9 -118l-298 -43q-112 -16 -160 -54.5t-48 -113.5v-16q0 -77 47.5 -118t142.5 -41q84 0 144 29t97 78t50 109l25 -110h-31q-14 -64 -52.5 -119t-107.5 -88.5t-176 -33.5zM486 -356q-48 0 -71.5 25t-23.5 70v7q0 45 23.5 70.5t71.5 25.5q49 0 72.5 -25.5t23.5 -70.5
v-7q0 -45 -23.5 -70t-72.5 -25zM486 1089q-133 0 -194.5 71.5t-63.5 205.5h112q3 -85 38.5 -128t107.5 -43t107.5 43t39.5 128h112q-2 -134 -63 -205.5t-196 -71.5z" />
    <glyph glyph-name="uni1EB8" unicode="&#x1eb8;" horiz-adv-x="1046" 
d="M151 0v1278h164v-1278h-164zM200 0v139h748v-139h-748zM245 583v138h682v-138h-682zM199 1139v139h743v-139h-743zM553 -347q-45 0 -68.5 24.5t-23.5 69.5v5q0 43 23.5 67.5t68.5 24.5q46 0 69.5 -24.5t23.5 -67.5v-5q0 -45 -23.5 -69.5t-69.5 -24.5z" />
    <glyph glyph-name="uni1EB9" unicode="&#x1eb9;" horiz-adv-x="999" 
d="M542 -22q-223 0 -336 109t-113 312v174q0 206 105 317.5t307 111.5q136 0 227 -50.5t137 -143.5t46 -222v-36q0 -32 -2.5 -64t-6.5 -63h-149q2 48 2.5 91t0.5 79q0 89 -28.5 150.5t-85 94t-141.5 32.5q-126 0 -189 -73t-63 -209v-93l1 -20v-93q0 -61 18 -110t56.5 -84.5
t98 -54t141.5 -18.5q95 0 177 25t154 68l-15 -140q-65 -41 -151 -65.5t-191 -24.5zM178 423v122h694v-122h-694zM513 -356q-48 0 -71.5 25t-23.5 70v7q0 45 23.5 70.5t71.5 25.5q49 0 72.5 -25.5t23.5 -70.5v-7q0 -45 -23.5 -70t-72.5 -25z" />
    <glyph glyph-name="uni1EBA" unicode="&#x1eba;" horiz-adv-x="1046" 
d="M151 0v1278h164v-1278h-164zM200 0v139h748v-139h-748zM245 583v138h682v-138h-682zM199 1139v139h743v-139h-743zM510 1382q118 22 181 69.5t63 136.5q0 73 -45.5 110.5t-128.5 37.5q-41 0 -78 -9t-63 -21l-8 -97q27 12 57 20.5t61 8.5q85 0 85 -61q0 -40 -35 -62
t-106 -39z" />
    <glyph glyph-name="uni1EBB" unicode="&#x1ebb;" horiz-adv-x="999" 
d="M542 -22q-223 0 -336 109t-113 312v174q0 206 105 317.5t307 111.5q136 0 227 -50.5t137 -143.5t46 -222v-36q0 -32 -2.5 -64t-6.5 -63h-149q2 48 2.5 91t0.5 79q0 89 -28.5 150.5t-85 94t-141.5 32.5q-126 0 -189 -73t-63 -209v-93l1 -20v-93q0 -61 18 -110t56.5 -84.5
t98 -54t141.5 -18.5q95 0 177 25t154 68l-15 -140q-65 -41 -151 -65.5t-191 -24.5zM178 423v122h694v-122h-694zM464 1085q118 22 181 69.5t63 136.5q0 73 -45.5 110.5t-128.5 37.5q-41 0 -78 -9t-63 -21l-8 -97q27 12 57 20.5t61 8.5q85 0 85 -61q0 -40 -35 -62t-106 -39z
" />
    <glyph glyph-name="uni1EBC" unicode="&#x1ebc;" horiz-adv-x="1046" 
d="M151 0v1278h164v-1278h-164zM200 0v139h748v-139h-748zM245 583v138h682v-138h-682zM199 1139v139h743v-139h-743zM695 1422q-39 0 -75 11t-69.5 25.5t-63.5 26t-58 11.5q-31 0 -43.5 -18t-12.5 -53v-13h-104v30q0 78 32.5 124t112.5 46q39 0 75.5 -11t69.5 -26t63.5 -26
t57.5 -11q31 0 43 18t12 53v13h103v-31q0 -78 -32.5 -123.5t-110.5 -45.5z" />
    <glyph glyph-name="uni1EBD" unicode="&#x1ebd;" horiz-adv-x="999" 
d="M542 -22q-223 0 -336 109t-113 312v174q0 206 105 317.5t307 111.5q136 0 227 -50.5t137 -143.5t46 -222v-36q0 -32 -2.5 -64t-6.5 -63h-149q2 48 2.5 91t0.5 79q0 89 -28.5 150.5t-85 94t-141.5 32.5q-126 0 -189 -73t-63 -209v-93l1 -20v-93q0 -61 18 -110t56.5 -84.5
t98 -54t141.5 -18.5q95 0 177 25t154 68l-15 -140q-65 -41 -151 -65.5t-191 -24.5zM178 423v122h694v-122h-694zM639 1124q-36 0 -69.5 12t-65 28.5t-60 28.5t-53.5 12q-29 0 -41.5 -18.5t-12.5 -55.5v-17h-104v33q0 82 33 128t111 46q37 0 71 -12.5t65 -28t59 -28t53 -12.5
q30 0 42 18.5t12 56.5v16h104v-33q0 -83 -33 -128.5t-111 -45.5z" />
    <glyph glyph-name="uni1EBE" unicode="&#x1ebe;" horiz-adv-x="1046" 
d="M151 0v1278h164v-1278h-164zM200 0v139h748v-139h-748zM245 583v138h682v-138h-682zM199 1139v139h743v-139h-743zM928 1842h150v-3l-182 -219h-122v2zM468 1650h172l222 -247v-2h-139l-165 158h-8l-166 -158h-138v2z" />
    <glyph glyph-name="uni1EBF" unicode="&#x1ebf;" horiz-adv-x="999" 
d="M542 -22q-223 0 -336 109t-113 312v174q0 206 105 317.5t307 111.5q136 0 227 -50.5t137 -143.5t46 -222v-36q0 -32 -2.5 -64t-6.5 -63h-149q2 48 2.5 91t0.5 79q0 89 -28.5 150.5t-85 94t-141.5 32.5q-126 0 -189 -73t-63 -209v-93l1 -20v-93q0 -61 18 -110t56.5 -84.5
t98 -54t141.5 -18.5q95 0 177 25t154 68l-15 -140q-65 -41 -151 -65.5t-191 -24.5zM178 423v122h694v-122h-694zM890 1565h150v-2l-183 -236h-121v2zM421 1363h175l191 -267v-2h-129l-146 178h-7l-146 -178h-129v2z" />
    <glyph glyph-name="uni1EC0" unicode="&#x1ec0;" horiz-adv-x="1046" 
d="M151 0v1278h164v-1278h-164zM200 0v139h748v-139h-748zM245 583v138h682v-138h-682zM199 1139v139h743v-139h-743zM827 1841l154 -220v-2h-123l-182 219v3h151zM468 1650h172l222 -247v-2h-139l-165 158h-8l-166 -158h-138v2z" />
    <glyph glyph-name="uni1EC1" unicode="&#x1ec1;" horiz-adv-x="999" 
d="M542 -22q-223 0 -336 109t-113 312v174q0 206 105 317.5t307 111.5q136 0 227 -50.5t137 -143.5t46 -222v-36q0 -32 -2.5 -64t-6.5 -63h-149q2 48 2.5 91t0.5 79q0 89 -28.5 150.5t-85 94t-141.5 32.5q-126 0 -189 -73t-63 -209v-93l1 -20v-93q0 -61 18 -110t56.5 -84.5
t98 -54t141.5 -18.5q95 0 177 25t154 68l-15 -140q-65 -41 -151 -65.5t-191 -24.5zM178 423v122h694v-122h-694zM789 1568l154 -236v-2h-121l-183 236v2h150zM421 1366h175l191 -267v-2h-129l-146 178h-7l-146 -178h-129v2z" />
    <glyph glyph-name="uni1EC2" unicode="&#x1ec2;" horiz-adv-x="1046" 
d="M151 0v1278h164v-1278h-164zM200 0v139h748v-139h-748zM245 583v138h682v-138h-682zM199 1139v139h743v-139h-743zM802 1598q101 19 156 60t55 110q0 65 -39.5 98t-110.5 33q-38 0 -70 -7t-54 -17l-9 -84q24 8 50.5 15t56.5 7q66 0 66 -50q0 -32 -29.5 -50t-87.5 -32z
M468 1650h172l222 -247v-2h-139l-165 158h-8l-166 -158h-138v2z" />
    <glyph glyph-name="uni1EC3" unicode="&#x1ec3;" horiz-adv-x="999" 
d="M542 -22q-223 0 -336 109t-113 312v174q0 206 105 317.5t307 111.5q136 0 227 -50.5t137 -143.5t46 -222v-36q0 -32 -2.5 -64t-6.5 -63h-149q2 48 2.5 91t0.5 79q0 89 -28.5 150.5t-85 94t-141.5 32.5q-126 0 -189 -73t-63 -209v-93l1 -20v-93q0 -61 18 -110t56.5 -84.5
t98 -54t141.5 -18.5q95 0 177 25t154 68l-15 -140q-65 -41 -151 -65.5t-191 -24.5zM178 423v122h694v-122h-694zM764 1297q103 21 157.5 64t54.5 118q0 69 -40 103.5t-114 34.5q-36 0 -68 -7.5t-54 -17.5l-8 -89q24 10 50.5 17t54.5 7q69 0 69 -55q0 -35 -30 -54.5
t-88 -34.5zM421 1366h175l191 -267v-2h-129l-146 178h-7l-146 -178h-129v2z" />
    <glyph glyph-name="uni1EC4" unicode="&#x1ec4;" horiz-adv-x="1046" 
d="M151 0v1278h164v-1278h-164zM200 0v139h748v-139h-748zM245 583v138h682v-138h-682zM199 1139v139h743v-139h-743zM682 1755q-35 0 -68 10.5t-63 25t-57.5 25.5t-53.5 11q-30 0 -42.5 -18.5t-12.5 -52.5v-10h-94v22q0 68 29.5 113t107.5 45q36 0 68 -11.5t62 -26.5
t58 -26t53 -11q31 0 43.5 19t12.5 55v10h95v-21q0 -71 -30 -115t-108 -44zM468 1650h172l222 -247v-2h-139l-165 158h-8l-166 -158h-138v2z" />
    </font>
</defs>
</svg>
