<?xml version="1.0" standalone="no"?>
<!DOCTYPE svg PUBLIC "-//W3C//DTD SVG 1.1//EN" "http://www.w3.org/Graphics/SVG/1.1/DTD/svg11.dtd" >
<svg xmlns="http://www.w3.org/2000/svg" xmlns:xlink="http://www.w3.org/1999/xlink" version="1.1">
<metadata>
Created by FontForge 20190801 at Mon Feb 14 12:33:15 2022
 By root
Copyright 2021 The Anek Project Authors (https://github.com/EkType/Anek)
</metadata>
<defs>
<font id="AnekGurmukhi-Medium" horiz-adv-x="0" >
  <font-face 
    font-family="Anek Gurmukhi Medium"
    font-weight="500"
    font-stretch="normal"
    units-per-em="2000"
    panose-1="0 0 0 0 0 0 0 0 0 0"
    ascent="1600"
    descent="-400"
    x-height="978"
    cap-height="1278"
    bbox="-433 -1119 2588 2026"
    underline-thickness="50"
    underline-position="-125"
    unicode-range="U+000D-FB02"
  />
<missing-glyph horiz-adv-x="1160" 
d="M185 0v1278h790v-1278h-790zM224 35h712v1208h-712v-1208zM210 0l695 1266h40l-695 -1266h-40zM950 0h-40l-695 1266h40z" />
    <glyph glyph-name="fi" unicode="fi" horiz-adv-x="1198" 
d="M457 1352q76 0 137.5 -13t111.5 -33l19 -152q-47 16 -95.5 26t-108.5 10q-71 0 -113.5 -18t-61 -50.5t-18.5 -77.5v-4q0 -32 9 -61t20 -52l-130 -4v23q-37 23 -63 65.5t-26 102.5v5q0 105 78 169t241 64zM171 0v881h195v-881h-195zM17 782v156l229 -1l80 1h395l-17 -156
h-687zM875 0v978h196v-978h-196zM973 1122q-58 0 -86.5 29.5t-28.5 81.5v4q0 52 28.5 81.5t86.5 29.5t86.5 -29.5t28.5 -81.5v-4q0 -53 -28.5 -82t-86.5 -29z" />
    <glyph glyph-name="fl" unicode="fl" horiz-adv-x="1202" 
d="M457 1352q76 0 137.5 -13t111.5 -33l19 -152q-47 16 -95.5 26t-108.5 10q-71 0 -113.5 -18t-61 -50.5t-18.5 -77.5v-4q0 -32 9 -61t20 -52l-130 -4v23q-37 23 -63 65.5t-26 102.5v5q0 105 78 169t241 64zM171 0v881h195v-881h-195zM17 782v156l229 -1l80 1h395l-17 -156
h-687zM878 0v1324h196v-1324h-196z" />
    <glyph glyph-name="f_f" unicode="ff" horiz-adv-x="1386" 
d="M457 1352q76 0 137.5 -13t111.5 -33l19 -152q-47 16 -95.5 26t-108.5 10q-71 0 -113.5 -18t-61 -50.5t-18.5 -77.5v-4q0 -32 9 -61t20 -52l-130 -4v23q-37 23 -63 65.5t-26 102.5v5q0 105 78 169t241 64zM171 0v881h195v-881h-195zM17 782v156l229 -1l80 1h395l-17 -156
h-687zM1093 1352q76 0 137.5 -13t111.5 -33l19 -152q-47 16 -95.5 26t-108.5 10q-71 0 -113.5 -18t-61 -50.5t-18.5 -77.5v-4q0 -32 9 -61t20 -52l-130 -4v23q-37 23 -63 65.5t-26 102.5v5q0 105 78 169t241 64zM807 0v881h195v-881h-195zM653 782v156l229 -1l80 1h395
l-17 -156h-687z" />
    <glyph glyph-name="f_f_i" unicode="ffi" horiz-adv-x="1834" 
d="M457 1352q76 0 137.5 -13t111.5 -33l19 -152q-47 16 -95.5 26t-108.5 10q-71 0 -113.5 -18t-61 -50.5t-18.5 -77.5v-4q0 -32 9 -61t20 -52l-130 -4v23q-37 23 -63 65.5t-26 102.5v5q0 105 78 169t241 64zM171 0v881h195v-881h-195zM17 782v156l229 -1l80 1h395l-17 -156
h-687zM1093 1352q76 0 137.5 -13t111.5 -33l19 -152q-47 16 -95.5 26t-108.5 10q-71 0 -113.5 -18t-61 -50.5t-18.5 -77.5v-4q0 -32 9 -61t20 -52l-130 -4v23q-37 23 -63 65.5t-26 102.5v5q0 105 78 169t241 64zM807 0v881h195v-881h-195zM653 782v156l229 -1l80 1h395
l-17 -156h-687zM1511 0v978h196v-978h-196zM1609 1122q-58 0 -86.5 29.5t-28.5 81.5v4q0 52 28.5 81.5t86.5 29.5t86.5 -29.5t28.5 -81.5v-4q0 -53 -28.5 -82t-86.5 -29z" />
    <glyph glyph-name="f_f_l" unicode="ffl" horiz-adv-x="1838" 
d="M457 1352q76 0 137.5 -13t111.5 -33l19 -152q-47 16 -95.5 26t-108.5 10q-71 0 -113.5 -18t-61 -50.5t-18.5 -77.5v-4q0 -32 9 -61t20 -52l-130 -4v23q-37 23 -63 65.5t-26 102.5v5q0 105 78 169t241 64zM171 0v881h195v-881h-195zM17 782v156l229 -1l80 1h395l-17 -156
h-687zM1093 1352q76 0 137.5 -13t111.5 -33l19 -152q-47 16 -95.5 26t-108.5 10q-71 0 -113.5 -18t-61 -50.5t-18.5 -77.5v-4q0 -32 9 -61t20 -52l-130 -4v23q-37 23 -63 65.5t-26 102.5v5q0 105 78 169t241 64zM807 0v881h195v-881h-195zM653 782v156l229 -1l80 1h395
l-17 -156h-687zM1514 0v1324h196v-1324h-196z" />
    <glyph glyph-name=".notdef" horiz-adv-x="1160" 
d="M185 0v1278h790v-1278h-790zM224 35h712v1208h-712v-1208zM210 0l695 1266h40l-695 -1266h-40zM950 0h-40l-695 1266h40z" />
    <glyph glyph-name="NULL" horiz-adv-x="330" 
 />
    <glyph glyph-name="CR" unicode="&#xd;" horiz-adv-x="2258" 
 />
    <glyph glyph-name="space" unicode=" " horiz-adv-x="552" 
 />
    <glyph glyph-name="exclam" unicode="!" horiz-adv-x="474" 
d="M319 402h-164l-23 876h210zM237 -21q-60 0 -88.5 32.5t-28.5 90.5v10q0 58 28.5 90t88.5 32q59 0 88 -32t29 -90v-10q0 -58 -29 -90.5t-88 -32.5z" />
    <glyph glyph-name="quotedbl" unicode="&#x22;" horiz-adv-x="716" 
d="M263 831h-154l-19 493h193zM606 831h-154l-19 493h193z" />
    <glyph glyph-name="numbersign" unicode="#" horiz-adv-x="1180" 
d="M204 0l162 1278h159l-162 -1278h-159zM61 319v143h1001v-143h-1001zM660 0l158 1278h160l-158 -1278h-160zM121 819v143h999v-143h-999z" />
    <glyph glyph-name="percent" unicode="%" horiz-adv-x="1516" 
d="M273 0l788 1278h186l-788 -1278h-186zM1151 -26q-138 0 -210.5 75.5t-72.5 211.5v89q0 135 73 210t210 75q138 0 211.5 -74t73.5 -211v-89q0 -136 -73.5 -211.5t-211.5 -75.5zM1151 109q62 0 93 37.5t31 110.5v96q0 73 -31.5 110.5t-92.5 37.5t-92.5 -37.5t-31.5 -110.5
v-96q0 -73 32 -110.5t92 -37.5zM362 644q-138 0 -211 74.5t-73 210.5v90q0 135 73 209.5t211 74.5t211.5 -74.5t73.5 -209.5v-90q0 -135 -73.5 -210t-211.5 -75zM362 778q61 0 92.5 37t31.5 110v97q0 72 -31.5 110t-92.5 38t-92.5 -38t-31.5 -110v-97q0 -73 32 -110t92 -37z
" />
    <glyph glyph-name="ampersand" unicode="&#x26;" horiz-adv-x="1280" 
d="M1067 0q-16 16 -47 46t-66 64.5t-65.5 63.5t-44.5 43l-25 27l-467 437l-29 35q-66 68 -97 128t-31 142v7q0 145 91.5 227t278.5 82q119 0 203 -22.5t140 -51.5l19 -179q-65 32 -147.5 55.5t-177.5 23.5q-108 0 -154.5 -37.5t-46.5 -103.5v-5q0 -52 28.5 -97.5
t86.5 -101.5l426 -406l48 -52q30 -29 60.5 -59t61.5 -60.5t62 -62t62 -63.5l62 -64v-16h-231zM520 -24q-218 0 -326 100t-108 284v32q0 140 54.5 229.5t184.5 158.5l104 -138q-73 -35 -105.5 -90t-32.5 -144v-30q0 -116 62.5 -175.5t184.5 -59.5q103 0 175.5 41.5
t123.5 119.5l52 65q50 88 77.5 195.5t38.5 231.5h192q-18 -166 -59.5 -306t-115.5 -247l-54 -56q-52 -67 -115.5 -114t-145 -72t-187.5 -25z" />
    <glyph glyph-name="quotesingle" unicode="'" horiz-adv-x="373" 
d="M263 831h-154l-19 493h193z" />
    <glyph glyph-name="parenleft" unicode="(" horiz-adv-x="597" 
d="M319 608v-107q0 -148 25 -277.5t78 -245t135 -222.5h-204q-77 100 -126.5 212t-73 242t-23.5 285v118q0 154 24 283.5t74 242t127 212.5h202q-82 -106 -135 -221.5t-78 -244.5t-25 -277z" />
    <glyph glyph-name="parenright" unicode=")" horiz-adv-x="599" 
d="M280 608q0 148 -25 277t-77.5 244.5t-135.5 221.5h202q77 -100 127 -212.5t74 -242t24 -283.5v-118q0 -155 -23.5 -285t-72.5 -242t-127 -212h-204q83 107 135.5 222.5t77.5 245t25 277.5v107z" />
    <glyph glyph-name="asterisk" unicode="*" horiz-adv-x="769" 
d="M244 644l-134 92l169 184l-1 4l-230 46l39 155l230 -89l3 2l-22 240h173l-22 -240l3 -2l230 89l39 -155l-231 -46l-1 -4l169 -184l-133 -92l-139 204h-4z" />
    <glyph glyph-name="plus" unicode="+" horiz-adv-x="1004" 
d="M586 198h-168v846h168v-846zM99 542v158h806v-158h-806z" />
    <glyph glyph-name="comma" unicode="," horiz-adv-x="397" 
d="M295 284q3 -20 6.5 -50.5t3.5 -65.5q0 -122 -35 -226t-118 -201l-137 40q50 83 74.5 175t24.5 204q0 33 -1.5 63t-5.5 61h188z" />
    <glyph glyph-name="hyphen" unicode="-" horiz-adv-x="798" 
d="M114 442v160h570v-160h-570z" />
    <glyph glyph-name="period" unicode="." horiz-adv-x="402" 
d="M201 -21q-60 0 -88.5 32.5t-28.5 90.5v10q0 58 28.5 90t88.5 32q59 0 88 -32t29 -90v-10q0 -58 -29 -90.5t-88 -32.5z" />
    <glyph glyph-name="slash" unicode="/" horiz-adv-x="850" 
d="M21 -242l627 1585h181l-626 -1585h-182z" />
    <glyph glyph-name="zero" unicode="0" horiz-adv-x="1151" 
d="M575 -26q-235 0 -355 130.5t-120 377.5v314q0 247 119.5 377.5t355.5 130.5t356 -130.5t120 -377.5v-314q0 -247 -120 -377.5t-356 -130.5zM575 141q139 0 205.5 85.5t66.5 246.5v331q0 162 -66.5 247.5t-205.5 85.5t-205 -85.5t-66 -247.5v-331q0 -161 66.5 -246.5
t204.5 -85.5z" />
    <glyph glyph-name="one" unicode="1" horiz-adv-x="685" 
d="M346 0v1071h-14l-287 -161l5 194l304 174h192v-1278h-200z" />
    <glyph glyph-name="two" unicode="2" horiz-adv-x="950" 
d="M65 0v187l318 304q88 84 148.5 150.5t92.5 129.5t32 134v10q0 67 -26 114.5t-80.5 73t-141.5 25.5q-98 0 -184 -31t-152 -71l18 179q39 24 92 46t119.5 36t147.5 14q206 0 308.5 -94t102.5 -267v-14q0 -99 -34.5 -179.5t-101 -159.5t-163.5 -172l-245 -236v-43l-82 34
h644v-170h-813z" />
    <glyph glyph-name="three" unicode="3" horiz-adv-x="991" 
d="M446 -23q-82 0 -150.5 12t-120.5 29.5t-87 33.5l-19 194q68 -37 159.5 -65t200.5 -28q100 0 160 24t87 69.5t27 110.5v19q0 67 -25.5 109.5t-83 63.5t-154.5 23l-209 4v159l210 5q94 2 150 24.5t80.5 64t24.5 99.5v14q0 93 -58 141t-198 48q-106 0 -199.5 -28.5
t-163.5 -65.5l17 174q62 35 156.5 62.5t223.5 27.5q218 0 321.5 -86t103.5 -242v-20q0 -75 -24.5 -132.5t-75.5 -94t-132 -50.5v-30l-6 21q131 -25 189.5 -93.5t58.5 -195.5v-34q0 -172 -112.5 -269.5t-350.5 -97.5z" />
    <glyph glyph-name="four" unicode="4" horiz-adv-x="1065" 
d="M680 0v848l7 291h-26l-408 -718v-88l-77 73h858v-168h-980v196l487 844h330v-1278h-191z" />
    <glyph glyph-name="five" unicode="5" horiz-adv-x="1053" 
d="M500 -23q-126 0 -218.5 26.5t-144.5 53.5l-20 191q44 -24 100.5 -45.5t123 -35t141.5 -13.5q103 0 166 27.5t91.5 80t28.5 126.5v55q0 103 -51 160t-161 57q-90 0 -152.5 -38.5t-104.5 -103.5l-176 30v730h806v-170h-612v-279l-3 -168h8q38 71 111.5 117.5t192.5 46.5
q173 0 257.5 -100t84.5 -276v-63q0 -125 -49 -217t-152.5 -142t-266.5 -50z" />
    <glyph glyph-name="six" unicode="6" horiz-adv-x="1096" 
d="M566 -26q-149 0 -254.5 58.5t-161 174t-55.5 287.5v274q0 254 126.5 393.5t371.5 139.5q118 0 202 -24t142 -53l20 -180q-43 24 -91 43t-106.5 30t-133.5 11q-166 0 -249 -92t-83 -274v-291q0 -110 32.5 -183.5t94 -110t149.5 -36.5q124 0 183.5 66t59.5 169v52
q0 72 -22 124.5t-71.5 81t-132.5 28.5q-74 0 -134.5 -27.5t-103.5 -79t-64 -122.5l-14 172h33q21 62 64 111t112 77.5t166 28.5q182 0 273.5 -102.5t91.5 -288.5v-58q0 -181 -112.5 -290t-332.5 -109z" />
    <glyph glyph-name="seven" unicode="7" horiz-adv-x="934" 
d="M199 0l468 1108h-612v170h822v-174l-459 -1104h-219z" />
    <glyph glyph-name="eight" unicode="8" horiz-adv-x="1122" 
d="M560 -27q-127 0 -217 25.5t-147 73t-83.5 112.5t-26.5 144v26q0 88 29 151t83.5 103t129.5 58v10q-75 14 -126 50t-77 92.5t-26 130.5v25q0 152 111.5 241t349.5 89q241 0 352.5 -89t111.5 -241v-25q0 -74 -26 -130.5t-77 -92.5t-126 -50v-10q76 -19 130 -59t83 -102.5
t29 -150.5v-26q0 -77 -25.5 -142t-82 -112.5t-147.5 -74t-222 -26.5zM563 140q143 0 207 58.5t64 149.5v23q0 90 -70.5 146.5t-207.5 71.5q-131 -16 -199 -72.5t-68 -145.5v-23q0 -91 65.5 -149.5t208.5 -58.5zM566 730q110 7 184.5 58t74.5 149v15q0 85 -63 136.5
t-202 51.5q-136 0 -199 -51.5t-63 -136.5v-15q0 -65 34.5 -109.5t94.5 -68.5t139 -29z" />
    <glyph glyph-name="nine" unicode="9" horiz-adv-x="1096" 
d="M531 1304q233 0 351.5 -128.5t118.5 -378.5v-302q0 -250 -130 -385t-388 -135q-111 0 -190 21.5t-134 47.5l-21 189q64 -35 138.5 -59t183.5 -24q175 0 258.5 88t83.5 263v316q0 159 -66.5 239.5t-208.5 80.5q-124 0 -184 -65.5t-60 -169.5v-58q0 -105 55 -168.5
t183 -63.5q71 0 129 27.5t99.5 79t61.5 122.5l14 -172h-33q-20 -62 -62 -111t-108.5 -77.5t-161.5 -28.5q-188 0 -281.5 102t-93.5 284v67q0 182 113 290.5t333 108.5z" />
    <glyph glyph-name="colon" unicode=":" horiz-adv-x="418" 
d="M209 -21q-60 0 -88.5 32.5t-28.5 90.5v10q0 58 28.5 90t88.5 32q59 0 88 -32t29 -90v-10q0 -58 -29 -90.5t-88 -32.5zM209 670q-60 0 -88.5 32.5t-28.5 90.5v10q0 58 28.5 90t88.5 32q59 0 88 -32t29 -90v-10q0 -58 -29 -90.5t-88 -32.5z" />
    <glyph glyph-name="semicolon" unicode=";" horiz-adv-x="416" 
d="M304 284q3 -20 6.5 -50.5t3.5 -65.5q0 -122 -35 -226t-118 -201l-137 40q50 83 74.5 175t24.5 204q0 33 -1.5 63t-5.5 61h188zM209 670q-60 0 -88.5 32.5t-28.5 90.5v10q0 58 28.5 90t88.5 32q59 0 88 -32t29 -90v-10q0 -58 -29 -90.5t-88 -32.5z" />
    <glyph glyph-name="less" unicode="&#x3c;" horiz-adv-x="1029" 
d="M241 629v-18l664 -166v-170l-806 215v260l806 215v-170z" />
    <glyph glyph-name="equal" unicode="=" horiz-adv-x="1031" 
d="M113 337v156h805v-156h-805zM113 749v156h805v-156h-805z" />
    <glyph glyph-name="greater" unicode="&#x3e;" horiz-adv-x="1029" 
d="M788 629l-664 166v170l806 -215v-260l-806 -215v170l664 166v18z" />
    <glyph glyph-name="question" unicode="?" horiz-adv-x="902" 
d="M269 391v172l85 19q97 22 155.5 56.5t85.5 87t27 128.5v65q0 103 -52.5 158t-180.5 55q-96 0 -184 -27.5t-159 -65.5l22 176q36 21 88 40.5t119 32.5t145 13q206 0 303.5 -94.5t97.5 -270.5v-79q0 -131 -49 -217.5t-145.5 -139.5t-241.5 -84zM354 -21q-60 0 -88.5 32.5
t-28.5 90.5v10q0 58 28.5 90t88.5 32q59 0 88 -32t29 -90v-10q0 -58 -29 -90.5t-88 -32.5z" />
    <glyph glyph-name="at" unicode="@" horiz-adv-x="1690" 
d="M734 69q-114 0 -176.5 69.5t-62.5 201.5q0 9 0.5 20t1.5 29.5t4 50.5t9 83q13 121 49 208.5t100.5 134.5t164.5 47q101 0 150.5 -47t62.5 -126h48l-54 -172q1 7 1 13.5v12.5q0 55 -18 92.5t-51.5 57t-80.5 19.5q-87 0 -129 -57.5t-53 -157.5q-6 -51 -9 -82.5t-4 -49.5
t-1.5 -27.5t-0.5 -16.5q0 -74 34.5 -111t101.5 -37q44 0 80.5 19t63.5 53t40 79l22 -132h-43q-19 -51 -50 -90t-79.5 -61.5t-120.5 -22.5zM971 82l29 213l-3 31l41 340l4 28l17 191l1 11h178l-93 -792zM1108 220q19 -1 33.5 -2t39.5 -1q106 0 157 60.5t70 186.5
q9 56 14.5 100.5t8.5 77t4 52.5q8 158 -49.5 270t-179 171.5t-305.5 59.5q-199 0 -329.5 -75.5t-201.5 -214t-92 -328.5q-6 -52 -10 -91t-6.5 -69t-4.5 -54.5t-2.5 -45.5t-0.5 -43q0 -232 141 -355.5t427 -123.5q128 0 235.5 18.5t195 50.5t154.5 72l-25 -156
q-70 -36 -154 -64.5t-187 -44.5t-230 -16q-236 0 -396.5 69.5t-242.5 206t-82 336.5q0 24 0.5 47.5t2 49t4 56t6.5 68t9 83.5q27 246 121.5 416t262 258t411.5 88q226 0 384 -72.5t237.5 -214t70.5 -349.5q-1 -23 -3.5 -54t-8 -75.5t-14.5 -110.5q-18 -131 -69 -215.5
t-144.5 -125.5t-241.5 -43q-39 -1 -75.5 1t-71.5 8z" />
    <glyph glyph-name="bracketleft" unicode="[" horiz-adv-x="618" 
d="M143 -244v1595h420v-148h-238v-1299h238v-148h-420z" />
    <glyph glyph-name="backslash" unicode="\" horiz-adv-x="850" 
d="M829 -242h-182l-626 1585h181z" />
    <glyph glyph-name="bracketright" unicode="]" horiz-adv-x="618" 
d="M475 -244h-420v148h238v1299h-238v148h420v-1595z" />
    <glyph glyph-name="asciicircum" unicode="^" horiz-adv-x="857" 
d="M299 1278h258l252 -666h-170l-204 548h-14l-203 -548h-170z" />
    <glyph glyph-name="underscore" unicode="_" horiz-adv-x="899" 
d="M50 -223v152h799v-152h-799z" />
    <glyph glyph-name="braceleft" unicode="{" horiz-adv-x="678" 
d="M625 1330v-143q-22 7 -49 12t-59 5q-70 0 -101 -33.5t-31 -109.5q0 -34 3.5 -85t7 -103.5t3.5 -91.5q0 -61 -14.5 -107t-51 -74.5t-102.5 -38.5v-19l-8 10q70 -8 108 -37.5t53 -77t15 -109.5q0 -39 -3.5 -92t-7 -104t-3.5 -86q0 -76 31 -110t103 -34q31 0 57.5 5.5
t48.5 12.5v-145q-34 -10 -74 -17t-84 -7q-137 0 -202.5 65.5t-65.5 209.5q0 41 3.5 95.5t7 107.5t3.5 89q0 49 -13.5 82t-46 51t-91.5 22v165q59 4 91.5 21.5t46 50.5t13.5 81q0 37 -3.5 89.5t-7 106.5t-3.5 93q0 144 65.5 209t202.5 65q44 0 84 -6.5t74 -17.5z" />
    <glyph glyph-name="bar" unicode="|" horiz-adv-x="494" 
d="M330 -432h-166v1853h166v-1853z" />
    <glyph glyph-name="braceright" unicode="}" horiz-adv-x="678" 
d="M53 1330q34 11 74.5 17.5t83.5 6.5q137 0 202.5 -65t65.5 -209q0 -39 -3.5 -93t-7 -106.5t-3.5 -89.5q0 -48 13.5 -81t46.5 -50.5t91 -21.5v-165q-58 -4 -91 -22t-46.5 -51t-13.5 -82q0 -36 3.5 -89t7 -107.5t3.5 -95.5q0 -144 -65.5 -209.5t-202.5 -65.5q-43 0 -83.5 7
t-74.5 17v145q22 -7 48.5 -12.5t57.5 -5.5q72 0 103 34t31 110q0 35 -3.5 86t-7 104t-3.5 92q0 62 15 109.5t53.5 77t107.5 37.5l-8 -10v19q-65 10 -102 38.5t-51.5 74.5t-14.5 107q0 39 3.5 91.5t7 103.5t3.5 85q0 76 -30.5 109.5t-101.5 33.5q-31 0 -58.5 -5t-49.5 -12
v143z" />
    <glyph glyph-name="asciitilde" unicode="~" horiz-adv-x="1084" 
d="M747 476q-57 0 -110.5 16.5t-103.5 37.5t-96 37.5t-88 16.5q-48 0 -68 -29.5t-20 -82.5v-16h-144v38q0 118 49.5 186t170.5 68q57 0 110.5 -16.5t103.5 -38t96 -38t87 -16.5q50 0 69 29t19 83v17h145v-39q0 -119 -50 -186t-170 -67z" />
    <glyph glyph-name="ellipsis" unicode="&#x2026;" horiz-adv-x="1190" 
d="M989 -21q-60 0 -88.5 32.5t-28.5 90.5v10q0 58 28.5 90t88.5 32q59 0 88 -32t29 -90v-10q0 -58 -29 -90.5t-88 -32.5zM595 -21q-60 0 -88.5 32.5t-28.5 90.5v10q0 58 28.5 90t88.5 32q59 0 88 -32t29 -90v-10q0 -58 -29 -90.5t-88 -32.5zM201 -21q-60 0 -88.5 32.5
t-28.5 90.5v10q0 58 28.5 90t88.5 32q59 0 88 -32t29 -90v-10q0 -58 -29 -90.5t-88 -32.5z" />
    <glyph glyph-name="endash" unicode="&#x2013;" horiz-adv-x="1026" 
d="M114 442v160h798v-160h-798z" />
    <glyph glyph-name="emdash" unicode="&#x2014;" horiz-adv-x="1806" 
d="M114 442v160h1578v-160h-1578z" />
    <glyph glyph-name="quoteleft" unicode="&#x2018;" horiz-adv-x="407" 
d="M91 829q-3 20 -6 48.5t-3 62.5q0 116 32 214t105 185l139 -38q-44 -76 -66 -161.5t-22 -189.5q0 -31 2 -60t5 -61h-186z" />
    <glyph glyph-name="quoteright" unicode="&#x2019;" horiz-adv-x="407" 
d="M316 1324q3 -19 6 -48t3 -63q0 -115 -32 -213.5t-105 -185.5l-139 38q44 76 66 162t22 189q0 32 -2 60.5t-5 60.5h186z" />
    <glyph glyph-name="divide" unicode="&#xf7;" horiz-adv-x="1004" 
d="M99 541v160h806v-160h-806zM507 159q-54 0 -79.5 29.5t-25.5 81.5v9q0 52 25.5 81t79.5 29q53 0 79 -29t26 -81v-9q0 -52 -26 -81.5t-79 -29.5zM507 854q-54 0 -79.5 29.5t-25.5 81.5v9q0 52 25.5 81t79.5 29q53 0 79 -29t26 -81v-9q0 -52 -26 -81.5t-79 -29.5z" />
    <glyph glyph-name="minus" unicode="&#x2212;" horiz-adv-x="979" 
d="M99 541v160h781v-160h-781z" />
    <glyph glyph-name="multiply" unicode="&#xd7;" horiz-adv-x="958" 
d="M868 331l-113 -103l-660 680l113 102zM90 331l660 679l113 -102l-660 -680z" />
    <glyph glyph-name="dollar" unicode="$" horiz-adv-x="1049" 
d="M607 1195h-174v292h174v-292zM607 -214h-174v327h174v-327zM507 -24q-91 0 -168 14t-137.5 35t-102.5 42l-19 197q77 -44 182.5 -78t228.5 -34q140 0 206 46.5t66 140.5v15q0 61 -26.5 100.5t-89.5 68t-171 54.5q-142 35 -229.5 82.5t-127.5 119t-40 178.5v10
q0 161 107 248t321 87q137 0 234.5 -26.5t160.5 -59.5l18 -183q-73 42 -168 70.5t-214 28.5q-93 0 -149 -20.5t-81 -59t-25 -92.5v-4q0 -56 25 -96t88.5 -70.5t180.5 -60.5q139 -35 224.5 -78.5t125.5 -113t40 -182.5v-20q0 -177 -115 -268t-345 -91z" />
    <glyph glyph-name="A" unicode="A" horiz-adv-x="1179" 
d="M42 0l392 1278h311l392 -1278h-203l-332 1144h-25l-332 -1144h-203zM298 357v166h581v-166h-581z" />
    <glyph glyph-name="B" unicode="B" horiz-adv-x="1173" 
d="M281 0v165h383q122 0 173 50t51 140v31q0 92 -52 141.5t-180 49.5h-376v158h374q115 0 163.5 48.5t48.5 135.5v16q0 85 -47 132t-166 47h-376v164h395q211 0 303 -80.5t92 -230.5v-18q0 -115 -53 -178.5t-164 -78.5v-10q127 -25 184.5 -97t57.5 -203v-38q0 -164 -96 -254
t-311 -90h-404zM142 0v1278h198v-1278h-198z" />
    <glyph glyph-name="C" unicode="C" horiz-adv-x="1021" 
d="M586 -25q-245 0 -366.5 136t-121.5 387v284q0 250 121.5 385.5t366.5 135.5q75 0 137 -13t111 -34t84 -44l16 -184q-59 40 -137 70t-184 30q-154 0 -232.5 -91t-78.5 -258v-274q0 -166 79.5 -258t237.5 -92q104 0 184.5 29.5t140.5 72.5l-16 -189q-35 -23 -85.5 -44.5
t-115 -35t-141.5 -13.5z" />
    <glyph glyph-name="D" unicode="D" horiz-adv-x="1195" 
d="M279 0v169h303q158 0 237.5 86t79.5 246v278q0 161 -79.5 246.5t-237.5 85.5h-304v167h311q254 0 383 -128.5t129 -369.5v-280q0 -241 -129 -370.5t-383 -129.5h-310zM142 0v1278h198v-1278h-198z" />
    <glyph glyph-name="E" unicode="E" horiz-adv-x="1055" 
d="M142 0v1278h198v-1278h-198zM201 0v168h761v-168h-761zM256 568v166h684v-166h-684zM200 1111v167h755v-167h-755z" />
    <glyph glyph-name="F" unicode="F" horiz-adv-x="1009" 
d="M142 0v1278h200v-1278h-200zM256 514v168h660v-168h-660zM200 1110v168h731v-168h-731z" />
    <glyph glyph-name="G" unicode="G" horiz-adv-x="1196" 
d="M540 -26q-146 0 -244.5 59.5t-148 173t-49.5 274.5v289q0 257 134.5 395t395.5 138q90 0 164 -14t132.5 -36t100.5 -47l18 -179q-70 41 -164 72.5t-215 31.5q-184 0 -273 -93.5t-89 -271.5v-284q0 -161 75 -248.5t228 -87.5q75 0 129.5 25t89.5 67t51 92v298l30 -70h-283
v166h449v-524l-199 1q-16 -61 -53.5 -113t-105 -83t-173.5 -31zM884 264h187v-264h-196z" />
    <glyph glyph-name="H" unicode="H" horiz-adv-x="1254" 
d="M343 0h-201v1278h201v-1278zM1112 0h-201v1278h201v-1278zM257 742h732v-168h-732v168z" />
    <glyph glyph-name="I" unicode="I" horiz-adv-x="487" 
d="M344 0h-201v1278h201v-1278z" />
    <glyph glyph-name="J" unicode="J" horiz-adv-x="822" 
d="M307 -17q-64 0 -125.5 10t-111.5 30l-15 178q50 -22 102.5 -33t107.5 -11q127 0 175 58.5t48 178.5v884h201v-896q0 -196 -87.5 -297.5t-294.5 -101.5z" />
    <glyph glyph-name="K" unicode="K" horiz-adv-x="1149" 
d="M883 0l-423 574h-133v159h133l417 545h228l-494 -639l-1 48l508 -687h-235zM142 0v1278h199v-1278h-199z" />
    <glyph glyph-name="L" unicode="L" horiz-adv-x="979" 
d="M343 0h-201v1278h201v-1278zM252 170h670v-170h-670v170z" />
    <glyph glyph-name="M" unicode="M" horiz-adv-x="1509" 
d="M122 0l46 1278h305l275 -876h13l275 876h305l46 -1278h-195l-15 511l-14 556h-16l-292 -919h-201l-292 919h-16l-15 -557l-14 -510h-195z" />
    <glyph glyph-name="N" unicode="N" horiz-adv-x="1254" 
d="M442 1278l471 -1060h12l-8 552v508h195v-1278h-293l-478 1072h-12l8 -575v-497h-195v1278h300z" />
    <glyph glyph-name="O" unicode="O" horiz-adv-x="1214" 
d="M607 -26q-250 0 -379.5 136t-129.5 389v281q0 252 129.5 388t379.5 136t379.5 -136t129.5 -388v-281q0 -253 -129.5 -389t-379.5 -136zM607 141q152 0 228.5 91.5t76.5 258.5v297q0 168 -76.5 258.5t-228.5 90.5t-228.5 -90.5t-76.5 -258.5v-297q0 -167 76.5 -258.5
t228.5 -91.5z" />
    <glyph glyph-name="P" unicode="P" horiz-adv-x="1134" 
d="M274 410v166h353q120 0 174.5 59.5t54.5 165.5v87q0 109 -54 167t-173 58h-356v165h360q220 0 321.5 -101.5t101.5 -283.5v-97q0 -182 -102 -284t-322 -102h-358zM142 0v1278h197v-751l1 -90v-437h-198z" />
    <glyph glyph-name="Q" unicode="Q" horiz-adv-x="1216" 
d="M1218 -42l-544 16q-301 9 -438.5 141.5t-137.5 383.5v281q0 252 129.5 388t379.5 136q167 0 280 -61t171 -178t58 -285v-249q0 -95 -20.5 -165t-58 -117.5t-89.5 -76t-116 -39.5v-10l386 10v-175zM638 142l24 -1q51 11 96.5 36.5t80 67.5t54 103t19.5 143v297
q0 168 -76.5 258.5t-228.5 90.5t-228.5 -90.5t-76.5 -258.5v-297q0 -167 87.5 -254.5t248.5 -94.5z" />
    <glyph glyph-name="R" unicode="R" horiz-adv-x="1163" 
d="M879 0l-34 259q-9 71 -31.5 121.5t-69.5 78.5t-131 28l-333 1v158l354 1q123 0 176 59t53 164v28q0 103 -54 159t-179 56h-354v165h382q213 0 310.5 -91t97.5 -254v-32q0 -121 -55.5 -198t-185.5 -97v-26l-84 29q111 -8 171.5 -48t88.5 -110t43 -170l43 -281h-208zM142 0
v1278h197v-687l1 -75v-516h-198z" />
    <glyph glyph-name="S" unicode="S" horiz-adv-x="1049" 
d="M507 -24q-91 0 -168 14t-137.5 35t-102.5 42l-19 197q77 -44 182.5 -78t228.5 -34q140 0 206 46.5t66 140.5v15q0 61 -26.5 100.5t-89.5 68t-171 54.5q-142 35 -229.5 82.5t-127.5 119t-40 178.5v10q0 161 107 248t321 87q137 0 234.5 -26.5t160.5 -59.5l18 -183
q-73 42 -168 70.5t-214 28.5q-93 0 -149 -20.5t-81 -59t-25 -92.5v-4q0 -56 25 -96t88.5 -70.5t180.5 -60.5q139 -35 224.5 -78.5t125.5 -113t40 -182.5v-20q0 -177 -115 -268t-345 -91z" />
    <glyph glyph-name="T" unicode="T" horiz-adv-x="1076" 
d="M438 0v1243h201v-1243h-201zM62 1110v168h952v-168h-952z" />
    <glyph glyph-name="U" unicode="U" horiz-adv-x="1234" 
d="M617 -26q-249 0 -367 125.5t-118 366.5v812h201v-818q0 -154 66.5 -234.5t217.5 -80.5t217.5 80.5t66.5 234.5v818h201v-812q0 -241 -117.5 -366.5t-367.5 -125.5z" />
    <glyph glyph-name="V" unicode="V" horiz-adv-x="1157" 
d="M422 0l-380 1278h210l315 -1127h23l315 1127h210l-379 -1278h-314z" />
    <glyph glyph-name="W" unicode="W" horiz-adv-x="1653" 
d="M312 0l-254 1278h205l161 -887l42 -223h16l40 223l159 855h292l158 -855l40 -223h17l42 223l161 887h204l-253 -1278h-312l-128 697l-67 383h-16l-67 -383l-127 -697h-313z" />
    <glyph glyph-name="X" unicode="X" horiz-adv-x="1147" 
d="M45 0l385 685v-45l-375 638h218l295 -513h13l294 513h218l-375 -638v45l384 -685h-222l-299 548h-14l-300 -548h-222z" />
    <glyph glyph-name="Y" unicode="Y" horiz-adv-x="1112" 
d="M470 372l-440 906h212l218 -465l90 -211h13l90 211l217 465h212l-439 -906h-173zM458 0v558h197v-558h-197z" />
    <glyph glyph-name="Z" unicode="Z" horiz-adv-x="1044" 
d="M965 169v-169h-885v158l645 953h-639v167h871v-156l-645 -953h653z" />
    <glyph glyph-name="grave" unicode="`" horiz-adv-x="595" 
d="M312 1368l189 -272v-3h-172l-233 272v3h216z" />
    <glyph glyph-name="a" unicode="a" horiz-adv-x="1002" 
d="M699 0l8 232l-7 30v308l1 49q0 113 -57.5 166t-184.5 53q-103 0 -191 -29t-159 -67l18 164q40 23 94 45t122 36t149 14q111 0 188 -26.5t124 -76.5t68.5 -120t21.5 -156v-622h-195zM368 -22q-145 0 -222 71.5t-77 203.5v30q0 140 86.5 207.5t272.5 93.5l294 42l11 -142
l-282 -40q-101 -14 -144 -48.5t-43 -101.5v-14q0 -67 41.5 -103t126.5 -36q78 0 134 26t91 69.5t48 96.5l27 -131h-36q-16 -60 -53 -111t-103.5 -82t-171.5 -31z" />
    <glyph glyph-name="b" unicode="b" horiz-adv-x="1086" 
d="M633 -22q-87 0 -150 27.5t-102.5 78t-57.5 117.5h-65l57 185q4 -82 37 -136.5t90 -81.5t130 -27q112 0 171 65.5t59 195.5v183q0 126 -59.5 191t-172.5 65q-69 0 -122 -26t-87.5 -70.5t-48.5 -101.5l-43 134h56q17 62 53.5 112.5t100.5 80.5t162 30q175 0 266.5 -110
t91.5 -321v-155q0 -213 -93 -324.5t-273 -111.5zM124 0v1324h195v-312l-5 -281l1 -34v-406l-3 -62l8 -229h-196z" />
    <glyph glyph-name="c" unicode="c" horiz-adv-x="873" 
d="M515 -23q-218 0 -323.5 115.5t-105.5 326.5v141q0 212 106 327t323 115q60 0 110.5 -11t91.5 -28.5t70 -36.5l17 -168q-48 34 -111 57.5t-147 23.5q-134 0 -198.5 -72.5t-64.5 -210.5v-132q0 -135 64.5 -208t198.5 -73q85 0 150 23.5t117 57.5l-17 -170
q-46 -29 -117.5 -53t-163.5 -24z" />
    <glyph glyph-name="d" unicode="d" horiz-adv-x="1086" 
d="M445 -22q-175 0 -266.5 110t-91.5 321v155q0 213 92.5 324.5t273.5 111.5q87 0 149.5 -27.5t102 -77.5t56.5 -118h65l-55 -181q-3 80 -35 134.5t-88 82.5t-131 28q-113 0 -173 -65t-60 -193v-187q0 -125 59.5 -190t173.5 -65q69 0 121.5 26t87.5 71t48 101l46 -138h-57
q-16 -61 -53.5 -112t-101.5 -81t-163 -30zM766 0l8 229l-3 62v406l1 38l-5 277v312h195v-1324h-196z" />
    <glyph glyph-name="e" unicode="e" horiz-adv-x="1012" 
d="M553 -23q-234 0 -350.5 111.5t-116.5 321.5v160q0 207 108.5 320.5t316.5 113.5q141 0 235 -51.5t141 -145.5t47 -223v-37q0 -34 -3 -69t-8 -67h-180q2 52 2.5 98t0.5 84q0 81 -26 137t-78 85.5t-131 29.5q-117 0 -174 -66.5t-57 -189.5v-92l1 -23v-87q0 -55 16.5 -100
t53 -77.5t94.5 -50t141 -17.5q94 0 176.5 24t155.5 64l-18 -167q-66 -39 -153.5 -62.5t-193.5 -23.5zM190 411v147h693v-147h-693z" />
    <glyph glyph-name="f" unicode="f" horiz-adv-x="750" 
d="M457 1352q76 0 137.5 -13t111.5 -33l19 -152q-47 16 -95.5 26t-108.5 10q-71 0 -113.5 -18t-61 -50.5t-18.5 -77.5v-4q0 -32 9 -61t20 -52l-130 -4v23q-37 23 -63 65.5t-26 102.5v5q0 105 78 169t241 64zM171 0v881h195v-881h-195zM17 782v156l229 -1l80 1h395l-17 -156
h-687z" />
    <glyph glyph-name="g" unicode="g" horiz-adv-x="1035" 
d="M517 296q-206 0 -316 88t-110 251v16q0 103 43 178.5t137.5 118t247.5 47.5l508 17v-153l-272 12v-11q58 -15 96.5 -46.5t58.5 -78.5t20 -111v-11q0 -154 -104.5 -235.5t-308.5 -81.5zM509 -221h25q85 0 144 12t90.5 38t31.5 69v3q0 51 -36 76.5t-125 33.5l-282 27l49 2
q-48 -8 -84.5 -24.5t-57 -43t-20.5 -65.5v-2q0 -46 31.5 -74t91 -40t142.5 -12zM497 -377q-135 0 -232.5 23.5t-150 75t-52.5 136.5v4q0 57 25.5 96t70 62.5t99.5 31.5v10q-73 15 -108.5 49.5t-35.5 89.5v1q0 38 17 65.5t51.5 44t86.5 21.5v22l206 -50l-75 3
q-59 -1 -81.5 -15t-22.5 -40v-1q0 -30 33.5 -44.5t113.5 -23.5l238 -26q158 -17 231 -77t73 -182v-5q0 -94 -54.5 -154t-156 -88.5t-243.5 -28.5h-33zM514 440q77 0 128.5 22.5t77.5 67.5t26 110v15q0 64 -25.5 108t-76 67t-127.5 23h-5q-83 0 -135 -24.5t-75.5 -69
t-23.5 -105.5v-14q0 -65 26 -110t78.5 -67.5t131.5 -22.5z" />
    <glyph glyph-name="h" unicode="h" horiz-adv-x="1080" 
d="M772 0v604q0 71 -19.5 123t-64 81t-121.5 29q-71 0 -122.5 -26t-83.5 -70t-46 -100l-39 136h49q17 62 56 112.5t104 80.5t159 30q115 0 186 -43.5t104.5 -126.5t33.5 -204v-626h-196zM124 0v1324h195v-312l-5 -282l6 -14v-716h-196z" />
    <glyph glyph-name="i" unicode="i" horiz-adv-x="450" 
d="M127 0v978h196v-978h-196zM225 1122q-58 0 -86.5 29.5t-28.5 81.5v4q0 52 28.5 81.5t86.5 29.5t86.5 -29.5t28.5 -81.5v-4q0 -53 -28.5 -82t-86.5 -29z" />
    <glyph glyph-name="j" unicode="j" horiz-adv-x="475" 
d="M152 170v808h196v-808h-196zM250 1122q-58 0 -86.5 29.5t-28.5 81.5v4q0 52 28.5 81.5t86.5 29.5t86.5 -29.5t28.5 -81.5v-4q0 -53 -28.5 -82t-86.5 -29zM52 -358q-43 0 -81.5 7t-65.5 17l-16 159q26 -11 54.5 -17t59.5 -6q86 0 117.5 46t31.5 131v282h196v-292
q0 -101 -28.5 -174.5t-93.5 -113t-174 -39.5z" />
    <glyph glyph-name="k" unicode="k" horiz-adv-x="1012" 
d="M758 0l-359 441h-97v152h98l344 385h229l-428 -475v43l445 -546h-232zM124 0v1324h195v-1324h-195z" />
    <glyph glyph-name="l" unicode="l" horiz-adv-x="452" 
d="M128 0v1324h196v-1324h-196z" />
    <glyph glyph-name="m" unicode="m" horiz-adv-x="1647" 
d="M1339 0v609q0 69 -17.5 120.5t-58 79.5t-109.5 28q-66 0 -114 -26t-77.5 -70t-42.5 -100l-26 136h23q18 59 55 110t100 82t159 31q108 0 175 -42.5t98 -125t31 -201.5v-631h-196zM124 0v978h196l-8 -229l8 -12v-737h-196zM732 0v609q0 69 -17.5 120.5t-58 79.5t-109.5 28
q-66 0 -114 -26t-77.5 -70t-42.5 -100l-32 136h42q16 62 52.5 112.5t97.5 80.5t150 30q136 0 206 -70t88 -204q5 -19 7.5 -43t2.5 -47v-636h-195z" />
    <glyph glyph-name="n" unicode="n" horiz-adv-x="1080" 
d="M772 0v604q0 71 -19.5 123t-64 81t-121.5 29q-71 0 -123 -26t-84.5 -70t-46.5 -100l-32 136h42q17 62 56 112.5t104 80.5t161 30q115 0 186 -43.5t104.5 -126.5t33.5 -204v-626h-196zM124 0v978h196l-8 -229l8 -12v-737h-196z" />
    <glyph glyph-name="o" unicode="o" horiz-adv-x="1051" 
d="M526 -25q-216 0 -328 115t-112 331v139q0 215 112 329.5t328 114.5t327.5 -114.5t111.5 -329.5v-139q0 -216 -111.5 -331t-327.5 -115zM526 134q119 0 181 71t62 204v163q0 132 -62 202.5t-181 70.5t-181 -70.5t-62 -202.5v-163q0 -133 62 -204t181 -71z" />
    <glyph glyph-name="p" unicode="p" horiz-adv-x="1086" 
d="M633 -22q-87 0 -149.5 27.5t-101.5 78t-57 117.5h-65l55 185q3 -82 35 -136.5t88.5 -81.5t130.5 -27q113 0 173 65.5t60 192.5v187q0 125 -59.5 190t-173.5 65q-68 0 -121 -26t-87.5 -70.5t-48.5 -101.5l-46 134h57q17 62 54 112.5t101.5 80.5t162.5 30q175 0 266.5 -110
t91.5 -321v-155q0 -213 -92 -324.5t-274 -111.5zM124 -344v1322h196l-8 -229l3 -58v-410l-1 -38l5 -277v-310h-195z" />
    <glyph glyph-name="q" unicode="q" horiz-adv-x="1086" 
d="M445 -22q-175 0 -266.5 110t-91.5 321v155q0 213 93 324.5t273 111.5q88 0 150.5 -27.5t102.5 -77.5t57 -118h65l-57 -181q-3 82 -36.5 136.5t-90 81.5t-130.5 27q-112 0 -171 -65.5t-59 -195.5v-183q0 -126 59.5 -191t172.5 -65q69 0 122 26t88 71t48 101l43 -138h-56
q-16 -61 -53 -112t-101 -81t-162 -30zM767 -344v310l5 281l-1 38v406l3 58l-8 229h196v-1322h-195z" />
    <glyph glyph-name="r" unicode="r" horiz-adv-x="754" 
d="M312 591l-42 153h48q31 116 104 182.5t199 66.5q30 0 53.5 -4.5t42.5 -10.5l12 -191q-24 8 -54 12.5t-65 4.5q-107 0 -185 -55t-113 -158zM124 0v978h191l-9 -285l14 -14v-679h-196z" />
    <glyph glyph-name="s" unicode="s" horiz-adv-x="892" 
d="M440 -23q-118 0 -207 24.5t-149 53.5l-18 179q74 -37 163 -64.5t200 -27.5q107 0 158.5 31.5t51.5 93.5v8q0 40 -21 66.5t-74.5 47.5t-151.5 43q-123 28 -194 66t-101.5 93.5t-30.5 133.5v9q0 132 92 200t276 68q116 0 202 -25t142 -57l18 -163q-67 36 -152.5 60.5
t-189.5 24.5q-71 0 -114 -13.5t-62 -38t-19 -58.5v-7q0 -37 20 -64.5t71.5 -49t143.5 -41.5q124 -26 198 -61t107 -89.5t33 -140.5v-15q0 -143 -98 -215t-294 -72z" />
    <glyph glyph-name="t" unicode="t" horiz-adv-x="791" 
d="M488 -20q-117 0 -188 35.5t-103 107t-32 178.5v598h194v-575q0 -90 41 -132t138 -42q58 0 111 12t98 34l-17 -166q-48 -24 -111 -37t-131 -13zM12 810v156h726l-17 -156h-709zM167 949l-1 269l196 23l-8 -292h-187z" />
    <glyph glyph-name="u" unicode="u" horiz-adv-x="1080" 
d="M308 978v-604q0 -70 19.5 -122.5t64.5 -81.5t121 -29q72 0 123.5 26t84.5 70.5t46 99.5l32 -136h-42q-17 -61 -56 -112t-104 -81t-161 -30q-114 0 -185.5 43.5t-105 127t-33.5 203.5v626h196zM956 978v-978h-196l8 229l-8 12v737h196z" />
    <glyph glyph-name="v" unicode="v" horiz-adv-x="1001" 
d="M512 132l249 846h203l-304 -978h-319l-304 978h203l249 -846h23z" />
    <glyph glyph-name="w" unicode="w" horiz-adv-x="1511" 
d="M278 0l-230 978h202l173 -837h17l179 811h274l179 -811h16l175 837h200l-230 -978h-294l-147 677l-28 134h-16l-27 -134l-147 -677h-296z" />
    <glyph glyph-name="x" unicode="x" horiz-adv-x="993" 
d="M42 0l313 537v-55l-306 496h214l227 -384h15l225 384h214l-306 -496v55l313 -537h-214l-232 410h-15l-234 -410h-214z" />
    <glyph glyph-name="y" unicode="y" horiz-adv-x="1002" 
d="M593 173l-104 -45l275 850h201l-445 -1322h-198l155 459l88 -74h-221l-307 937h203l244 -805h109z" />
    <glyph glyph-name="z" unicode="z" horiz-adv-x="912" 
d="M836 162v-162h-760v147l520 670h-517v161h752v-146l-520 -670h525z" />
    <glyph glyph-name="quotesinglbase" unicode="&#x201a;" horiz-adv-x="384" 
d="M295 284q3 -20 6.5 -50.5t3.5 -65.5q0 -122 -35 -226t-118 -201l-137 40q50 83 74.5 175t24.5 204q0 33 -1.5 63t-5.5 61h188z" />
    <glyph glyph-name="quotedblbase" unicode="&#x201e;" horiz-adv-x="738" 
d="M649 284q3 -20 6.5 -50.5t3.5 -65.5q0 -122 -35 -226t-118 -201l-137 40q50 83 74.5 175t24.5 204q0 33 -1.5 63t-5.5 61h188zM295 284q3 -20 6.5 -50.5t3.5 -65.5q0 -122 -35 -226t-118 -201l-137 40q50 83 74.5 175t24.5 204q0 33 -1.5 63t-5.5 61h188z" />
    <glyph glyph-name="circumflex" unicode="&#x2c6;" horiz-adv-x="784" 
d="M287 1368h210l187 -272v-3h-154l-134 168h-8l-134 -168h-154v3z" />
    <glyph glyph-name="guilsinglleft" unicode="&#x2039;" horiz-adv-x="570" 
d="M246 490l283 -402h-192l-272 380v44l272 374h192z" />
    <glyph glyph-name="OE" unicode="&#x152;" horiz-adv-x="1734" 
d="M607 -26q-250 0 -379.5 136t-129.5 389v281q0 252 129.5 388t379.5 136t379.5 -136t129.5 -388v-281q0 -253 -129.5 -389t-379.5 -136zM607 141q152 0 228.5 91.5t76.5 258.5v297q0 168 -76.5 258.5t-228.5 90.5t-228.5 -90.5t-76.5 -258.5v-297q0 -167 76.5 -258.5
t228.5 -91.5zM770 0v168h871v-168h-871zM935 568v166h684v-166h-684zM769 1111v167h865v-167h-865z" />
    <glyph glyph-name="quotedblleft" unicode="&#x201c;" horiz-adv-x="760" 
d="M91 829q-3 20 -6 48.5t-3 62.5q0 116 32 214t105 185l139 -38q-44 -76 -66 -161.5t-22 -189.5q0 -31 2 -60t5 -61h-186zM444 829q-3 20 -6 48.5t-3 62.5q0 116 32 214t105 185l139 -38q-44 -76 -66 -161.5t-22 -189.5q0 -31 2 -60t5 -61h-186z" />
    <glyph glyph-name="quotedblright" unicode="&#x201d;" horiz-adv-x="760" 
d="M669 1324q3 -19 6 -48t3 -63q0 -115 -32 -213.5t-105 -185.5l-139 38q44 76 66 162t22 189q0 32 -2 60.5t-5 60.5h186zM316 1324q3 -19 6 -48t3 -63q0 -115 -32 -213.5t-105 -185.5l-139 38q44 76 66 162t22 189q0 32 -2 60.5t-5 60.5h186z" />
    <glyph glyph-name="bullet" unicode="&#x2022;" horiz-adv-x="589" 
d="M295 420q-100 0 -147.5 53.5t-47.5 150.5v17q0 96 47.5 149t147.5 53q98 0 146 -53t48 -149v-17q0 -97 -48 -150.5t-146 -53.5z" />
    <glyph glyph-name="tilde" unicode="&#x2dc;" horiz-adv-x="775" 
d="M520 1117q-36 0 -70 10.5t-65.5 25t-59.5 25t-52 10.5q-27 0 -38.5 -17t-11.5 -51v-14h-123v34q0 87 35.5 137t120.5 50q37 0 71 -11t65 -25t58.5 -25t51.5 -11q28 0 39 17.5t11 51.5v14h123v-35q0 -88 -35.5 -137t-119.5 -49z" />
    <glyph glyph-name="guilsinglright" unicode="&#x203a;" horiz-adv-x="570" 
d="M324 490l-283 396h192l272 -374v-44l-272 -380h-192z" />
    <glyph glyph-name="oe" unicode="&#x153;" horiz-adv-x="1696" 
d="M498 -25q-196 0 -304 115t-108 331v139q0 215 108 329.5t304 114.5q147 0 235.5 -58t129.5 -163h6q39 105 126 163t220 58q134 0 223.5 -51.5t134.5 -145.5t45 -223v-37q0 -34 -3 -69t-8 -67h-180q2 52 2.5 98t0.5 84q0 81 -26 137t-78 85.5t-131 29.5q-116 0 -173 -66.5
t-57 -189.5v-95v-23v-74q0 -118 73.5 -186.5t233.5 -68.5q92 0 174.5 24t155.5 64l-18 -167q-64 -39 -149 -62.5t-188 -23.5q-144 0 -240 56t-138 167h-6q-38 -109 -128.5 -167t-236.5 -58zM874 411v148h693v-148h-693zM524 134q120 0 182.5 71t62.5 204v163
q0 132 -62.5 202.5t-182.5 70.5q-118 0 -179.5 -70.5t-61.5 -202.5v-163q0 -133 61.5 -204t179.5 -71z" />
    <glyph glyph-name="exclamdown" unicode="&#xa1;" horiz-adv-x="474" 
d="M319 576l23 -876h-210l23 876h164zM237 999q59 0 88 -32t29 -91v-10q0 -58 -29 -90t-88 -32q-60 0 -88.5 32t-28.5 90v10q0 59 28.5 91t88.5 32z" />
    <glyph glyph-name="cent" unicode="&#xa2;" horiz-adv-x="873" 
d="M591 926h-168v262h168v-262zM591 -214h-168v292h168v-292zM515 -23q-218 0 -323.5 115.5t-105.5 326.5v141q0 212 106 327t323 115q60 0 110.5 -11t91.5 -28.5t70 -36.5l17 -168q-48 34 -111 57.5t-147 23.5q-134 0 -198.5 -72.5t-64.5 -210.5v-132q0 -135 64.5 -208
t198.5 -73q85 0 150 23.5t117 57.5l-17 -170q-46 -29 -117.5 -53t-163.5 -24z" />
    <glyph glyph-name="sterling" unicode="&#xa3;" horiz-adv-x="1077" 
d="M78 580l11 152h828l-11 -152h-828zM315 170h699v-170h-930v167l30 8q57 15 91.5 51.5t49.5 93.5t15 134q0 58 -10.5 117.5t-24.5 120.5t-24.5 122t-10.5 122q0 183 105 274.5t327 91.5q83 0 163 -15.5t143 -41.5l16 -169q-68 28 -137 41.5t-140 13.5q-95 0 -154.5 -24.5
t-87 -73t-27.5 -122.5q0 -53 10 -108.5t23.5 -112t23.5 -112t10 -108.5q0 -124 -41 -189.5t-119 -100.5v-10z" />
    <glyph glyph-name="currency" unicode="&#xa4;" horiz-adv-x="1035" 
d="M517 237q-179 0 -273.5 93t-94.5 266v43q0 173 95 265.5t274 92.5t273.5 -92.5t94.5 -265.5v-43q0 -173 -95 -266t-274 -93zM518 385q94 0 143.5 53t49.5 155l-1 49q0 102 -49 154.5t-143 52.5t-144 -52.5t-50 -154.5v-49q0 -102 50 -155t144 -53zM779 424l188 -212
l-111 -94l-186 208zM365 326l-185 -208l-111 94l191 214zM249 815l-180 203l110 95l183 -205zM670 903l186 210l110 -95l-188 -214z" />
    <glyph glyph-name="yen" unicode="&#xa5;" horiz-adv-x="1133" 
d="M646 536l35 146h344l-14 -146h-365zM125 385h900l-14 -145h-900zM448 682l36 -146h-373l14 146h323zM479 372l-440 906h212l218 -465l90 -211h13l90 211l217 465h212l-439 -906h-173zM467 0v558h197v-558h-197z" />
    <glyph glyph-name="brokenbar" unicode="&#xa6;" horiz-adv-x="494" 
d="M330 587h-166v834h166v-834zM330 -432h-166v840h166v-840z" />
    <glyph glyph-name="section" unicode="&#xa7;" horiz-adv-x="953" 
d="M552 422q58 18 87 58t29 88v7q0 52 -21.5 83t-75.5 52t-153 42q-122 26 -192.5 64t-100.5 91.5t-30 123.5v11q0 128 91.5 193.5t273.5 65.5q115 0 200.5 -25t140.5 -57l18 -163q-67 36 -151 60.5t-188 24.5q-106 0 -149 -27t-43 -76v-10q0 -33 20 -56.5t70.5 -43
t141.5 -41.5q123 -29 196.5 -62t106 -83t32.5 -131v-6q0 -82 -47 -137.5t-130 -68.5l1 -33zM394 771q-53 -18 -82.5 -53.5t-29.5 -87.5v-9q0 -49 20.5 -80.5t72 -54.5t145.5 -47q123 -30 196.5 -66t106 -87.5t32.5 -130.5v-16q0 -133 -97.5 -202t-291.5 -69
q-118 0 -206 24.5t-147 53.5l-18 179q73 -37 161.5 -64.5t198.5 -27.5q105 0 156 28.5t51 82.5v10q0 37 -21 61t-74 44.5t-149 44.5q-118 31 -189 67t-102.5 85.5t-31.5 118.5v7q0 83 45.5 133.5t131.5 70.5l-1 31z" />
    <glyph glyph-name="dieresis" unicode="&#xa8;" horiz-adv-x="714" 
d="M199 1122q-49 0 -74 27.5t-25 77.5v7q0 50 25 77t74 27q51 0 75.5 -27t24.5 -77v-7q0 -50 -24.5 -77.5t-75.5 -27.5zM515 1122q-50 0 -74.5 27.5t-24.5 77.5v7q0 50 24.5 77t74.5 27t74.5 -27t24.5 -77v-7q0 -50 -24.5 -77.5t-74.5 -27.5z" />
    <glyph glyph-name="copyright" unicode="&#xa9;" horiz-adv-x="1398" 
d="M699 -26q-191 0 -325.5 69.5t-205 201.5t-70.5 319v156q0 186 70.5 316.5t205 199t325.5 68.5t325.5 -68.5t205 -199t70.5 -316.5v-156q0 -187 -70.5 -319t-205 -201.5t-325.5 -69.5zM739 311q-141 0 -209 75t-68 214v84q0 138 68.5 212.5t208.5 74.5q62 0 109 -16
t75 -36l11 -115q-33 23 -74.5 39t-98.5 16q-85 0 -125 -44.5t-40 -127.5v-87q0 -84 42 -129t127 -45q57 0 99 16t75 39l-10 -116q-30 -21 -77.5 -37.5t-112.5 -16.5zM699 85q217 0 343 122t126 347v176q0 223 -126 343t-343 120t-343 -120t-126 -343v-176q0 -225 126 -347
t343 -122z" />
    <glyph glyph-name="ordfeminine" unicode="&#xaa;" horiz-adv-x="665" 
d="M440 642l6 148l-2 11v200v55q0 58 -32 89t-109 31q-63 0 -117.5 -19.5t-99.5 -44.5l12 120q41 23 98 41.5t130 18.5q72 0 120.5 -18t78 -50t42 -76t12.5 -95v-411h-139zM250 629q-93 0 -142 48.5t-49 138.5v15q0 88 52 133t164 62l186 28l9 -100l-164 -25q-57 -9 -82 -29
t-25 -60v-11q0 -39 24 -61t75 -22q56 0 96 31t53 77l16 -95h-24q-18 -56 -59 -93t-130 -37z" />
    <glyph glyph-name="registered" unicode="&#xae;" horiz-adv-x="833" 
d="M417 535q-170 0 -262.5 90t-92.5 251v80q0 161 92.5 251t262.5 90t262 -90t92 -251v-80q0 -161 -92 -251t-262 -90zM417 610q132 0 199.5 67t67.5 196v87q0 128 -67.5 195t-199.5 67q-133 0 -201 -67t-68 -195v-87q0 -129 68 -196t201 -67zM497 732l-10 65
q-6 38 -21.5 52.5t-48.5 14.5h-81v64h95q32 0 46 14.5t14 42.5v9q0 26 -13.5 41t-45.5 15h-97v65h108q67 0 98 -27.5t31 -82.5v-7q0 -38 -20 -60.5t-63 -27.5v-10l-15 9q48 -4 66.5 -28t26.5 -73l13 -76h-83zM282 732v383h80v-209v-27v-147h-80z" />
    <glyph glyph-name="degree" unicode="&#xb0;" horiz-adv-x="658" 
d="M329 776q-122 0 -188 68.5t-66 189.5v13q0 120 66 188.5t188 68.5t188 -68.5t66 -188.5v-13q0 -121 -66 -189.5t-188 -68.5zM329 904q54 0 81 34t27 95v14q0 61 -27 95t-81 34q-53 0 -80.5 -34t-27.5 -95v-14q0 -61 27.5 -95t80.5 -34z" />
    <glyph glyph-name="plusminus" unicode="&#xb1;" horiz-adv-x="1031" 
d="M113 130v156h805v-156h-805zM599 406h-167v692h167v-692zM113 674v156h805v-156h-805z" />
    <glyph glyph-name="acute" unicode="&#xb4;" horiz-adv-x="595" 
d="M283 1368h216v-3l-233 -272h-172v3z" />
    <glyph glyph-name="paragraph" unicode="&#xb6;" horiz-adv-x="748" 
d="M369 655q-151 0 -222 76t-71 212v48q0 136 71 211.5t222 75.5h91l1 -623h-92zM606 0h-195v1278h195v-1278z" />
    <glyph glyph-name="cedilla" unicode="&#xb8;" horiz-adv-x="588" 
d="M367 21l-22 -156l-82 55q17 1 34 1.5t34 -0.5q100 -4 148.5 -41t48.5 -107v-6q0 -79 -57 -116.5t-164 -37.5q-41 0 -79.5 6t-67.5 13l-22 120q31 -10 67.5 -16t76.5 -6q49 0 75 13t26 38v2q0 30 -34 42.5t-119 17.5q-10 1 -14 1h-4l22 177h133z" />
    <glyph glyph-name="ordmasculine" unicode="&#xba;" horiz-adv-x="694" 
d="M347 629q-139 0 -212 75.5t-73 218.5v77q0 143 73 218t212 75q140 0 212.5 -75t72.5 -218v-77q0 -143 -73 -218.5t-212 -75.5zM347 747q68 0 103.5 43t35.5 126v92q0 82 -35 124.5t-104 42.5t-104 -42.5t-35 -124.5v-92q0 -82 35 -125.5t104 -43.5z" />
    <glyph glyph-name="questiondown" unicode="&#xbf;" horiz-adv-x="902" 
d="M633 587v-172l-85 -19q-96 -21 -155 -56t-86 -87.5t-27 -128.5v-65q0 -103 53 -158t180 -55q96 0 184 28t159 65l-22 -176q-35 -20 -87.5 -40t-119 -33t-145.5 -13q-205 0 -303 94.5t-98 270.5v79q0 132 49 218t146 139t241 84zM548 999q60 0 88.5 -32t28.5 -91v-10
q0 -58 -28.5 -90t-88.5 -32q-59 0 -88 32t-29 90v10q0 59 29 91t88 32z" />
    <glyph glyph-name="Agrave" unicode="&#xc0;" horiz-adv-x="1179" 
d="M42 0l392 1278h311l392 -1278h-203l-332 1144h-25l-332 -1144h-203zM298 357v166h581v-166h-581zM442 1651l236 -253v-2h-186l-275 252v3h225z" />
    <glyph glyph-name="Aacute" unicode="&#xc1;" horiz-adv-x="1179" 
d="M42 0l392 1278h311l392 -1278h-203l-332 1144h-25l-332 -1144h-203zM298 357v166h581v-166h-581zM736 1651h225v-3l-275 -252h-186v2z" />
    <glyph glyph-name="Acircumflex" unicode="&#xc2;" horiz-adv-x="1179" 
d="M42 0l392 1278h311l392 -1278h-203l-332 1144h-25l-332 -1144h-203zM298 357v166h581v-166h-581zM487 1651h206l217 -252v-3h-165l-151 148h-8l-151 -148h-165v3z" />
    <glyph glyph-name="Atilde" unicode="&#xc3;" horiz-adv-x="1179" 
d="M42 0l392 1278h311l392 -1278h-203l-332 1144h-25l-332 -1144h-203zM298 357v166h581v-166h-581zM730 1415q-38 0 -74 9.5t-69 22t-62.5 22t-55.5 9.5q-28 0 -40 -16.5t-12 -48.5v-9h-123v30q0 85 35.5 134t120.5 49q39 0 75.5 -9.5t69 -22.5t62 -22.5t54.5 -9.5
q29 0 40 16.5t11 49.5v9h123v-31q0 -85 -35.5 -133.5t-119.5 -48.5z" />
    <glyph glyph-name="Aring" unicode="&#xc5;" horiz-adv-x="1179" 
d="M42 0l392 1278h311l392 -1278h-203l-332 1144h-25l-332 -1144h-203zM298 357v166h581v-166h-581zM391 1524v4q0 77 49.5 123t149.5 46q99 0 148.5 -46t49.5 -123v-4q0 -75 -49.5 -121.5t-148.5 -46.5q-100 0 -149.5 46.5t-49.5 121.5zM506 1525q0 -35 21.5 -54t62.5 -19
t62 19t21 54v3q0 35 -21 54t-62 19t-62.5 -19t-21.5 -54v-3z" />
    <glyph glyph-name="Adieresis" unicode="&#xc4;" horiz-adv-x="1179" 
d="M42 0l392 1278h311l392 -1278h-203l-332 1144h-25l-332 -1144h-203zM298 357v166h581v-166h-581zM432 1419q-49 0 -74 27.5t-25 77.5v7q0 50 25 77t74 27q51 0 75.5 -27t24.5 -77v-7q0 -50 -24.5 -77.5t-75.5 -27.5zM748 1419q-50 0 -74.5 27.5t-24.5 77.5v7
q0 50 24.5 77t74.5 27t74.5 -27t24.5 -77v-7q0 -50 -24.5 -77.5t-74.5 -27.5z" />
    <glyph glyph-name="AE" unicode="&#xc6;" horiz-adv-x="1769" 
d="M40 0l629 1278h220v-134h-83l-554 -1144h-212zM346 357v166h581v-166h-581zM915 0v168h761v-168h-761zM856 0v1278h198v-1278h-198zM970 568v166h684v-166h-684zM914 1111v167h755v-167h-755z" />
    <glyph glyph-name="Ccedilla" unicode="&#xc7;" horiz-adv-x="1021" 
d="M586 -25q-245 0 -366.5 136t-121.5 387v284q0 250 121.5 385.5t366.5 135.5q75 0 137 -13t111 -34t84 -44l16 -184q-59 40 -137 70t-184 30q-154 0 -232.5 -91t-78.5 -258v-274q0 -166 79.5 -258t237.5 -92q104 0 184.5 29.5t140.5 72.5l-16 -189q-35 -23 -85.5 -44.5
t-115 -35t-141.5 -13.5zM635 18l-22 -156l-82 55q17 1 34 1.5t34 -0.5q100 -4 148.5 -41t48.5 -107v-6q0 -79 -57 -116.5t-164 -37.5q-41 0 -79.5 6t-67.5 13l-22 120q31 -10 67.5 -16t76.5 -6q49 0 75 13t26 38v2q0 30 -34 42.5t-119 17.5q-10 1 -14 1h-4l22 177h133z" />
    <glyph glyph-name="Egrave" unicode="&#xc8;" horiz-adv-x="1055" 
d="M142 0v1278h198v-1278h-198zM201 0v168h761v-168h-761zM256 568v166h684v-166h-684zM200 1111v167h755v-167h-755zM408 1651l236 -253v-2h-186l-275 252v3h225z" />
    <glyph glyph-name="Eacute" unicode="&#xc9;" horiz-adv-x="1055" 
d="M142 0v1278h198v-1278h-198zM201 0v168h761v-168h-761zM256 568v166h684v-166h-684zM200 1111v167h755v-167h-755zM702 1651h225v-3l-275 -252h-186v2z" />
    <glyph glyph-name="Ecircumflex" unicode="&#xca;" horiz-adv-x="1055" 
d="M142 0v1278h198v-1278h-198zM201 0v168h761v-168h-761zM256 568v166h684v-166h-684zM200 1111v167h755v-167h-755zM453 1651h206l217 -252v-3h-165l-151 148h-8l-151 -148h-165v3z" />
    <glyph glyph-name="Edieresis" unicode="&#xcb;" horiz-adv-x="1055" 
d="M142 0v1278h198v-1278h-198zM201 0v168h761v-168h-761zM256 568v166h684v-166h-684zM200 1111v167h755v-167h-755zM398 1419q-49 0 -74 27.5t-25 77.5v7q0 50 25 77t74 27q51 0 75.5 -27t24.5 -77v-7q0 -50 -24.5 -77.5t-75.5 -27.5zM714 1419q-50 0 -74.5 27.5
t-24.5 77.5v7q0 50 24.5 77t74.5 27t74.5 -27t24.5 -77v-7q0 -50 -24.5 -77.5t-74.5 -27.5z" />
    <glyph glyph-name="Igrave" unicode="&#xcc;" horiz-adv-x="487" 
d="M344 0h-201v1278h201v-1278zM95 1651l236 -253v-2h-186l-275 252v3h225z" />
    <glyph glyph-name="Iacute" unicode="&#xcd;" horiz-adv-x="487" 
d="M344 0h-201v1278h201v-1278zM389 1651h225v-3l-275 -252h-186v2z" />
    <glyph glyph-name="Icircumflex" unicode="&#xce;" horiz-adv-x="487" 
d="M344 0h-201v1278h201v-1278zM140 1651h206l217 -252v-3h-165l-151 148h-8l-151 -148h-165v3z" />
    <glyph glyph-name="Idieresis" unicode="&#xcf;" horiz-adv-x="487" 
d="M344 0h-201v1278h201v-1278zM85 1419q-49 0 -74 27.5t-25 77.5v7q0 50 25 77t74 27q51 0 75.5 -27t24.5 -77v-7q0 -50 -24.5 -77.5t-75.5 -27.5zM401 1419q-50 0 -74.5 27.5t-24.5 77.5v7q0 50 24.5 77t74.5 27t74.5 -27t24.5 -77v-7q0 -50 -24.5 -77.5t-74.5 -27.5z" />
    <glyph glyph-name="Eth" unicode="&#xd0;" horiz-adv-x="1195" 
d="M5 581v150h629v-150h-629zM279 0v169h303q158 0 237.5 86t79.5 246v278q0 161 -79.5 246.5t-237.5 85.5h-304v167h311q254 0 383 -128.5t129 -369.5v-280q0 -241 -129 -370.5t-383 -129.5h-310zM142 0v1278h198v-1278h-198z" />
    <glyph glyph-name="Ntilde" unicode="&#xd1;" horiz-adv-x="1254" 
d="M442 1278l471 -1060h12l-8 552v508h195v-1278h-293l-478 1072h-12l8 -575v-497h-195v1278h300zM770 1415q-38 0 -74 9.5t-69 22t-62.5 22t-55.5 9.5q-28 0 -40 -16.5t-12 -48.5v-9h-123v30q0 85 35.5 134t120.5 49q39 0 75.5 -9.5t69 -22.5t62 -22.5t54.5 -9.5
q29 0 40 16.5t11 49.5v9h123v-31q0 -85 -35.5 -133.5t-119.5 -48.5z" />
    <glyph glyph-name="Ograve" unicode="&#xd2;" horiz-adv-x="1214" 
d="M607 -26q-250 0 -379.5 136t-129.5 389v281q0 252 129.5 388t379.5 136t379.5 -136t129.5 -388v-281q0 -253 -129.5 -389t-379.5 -136zM607 141q152 0 228.5 91.5t76.5 258.5v297q0 168 -76.5 258.5t-228.5 90.5t-228.5 -90.5t-76.5 -258.5v-297q0 -167 76.5 -258.5
t228.5 -91.5zM459 1651l236 -253v-2h-186l-275 252v3h225z" />
    <glyph glyph-name="Oacute" unicode="&#xd3;" horiz-adv-x="1214" 
d="M607 -26q-250 0 -379.5 136t-129.5 389v281q0 252 129.5 388t379.5 136t379.5 -136t129.5 -388v-281q0 -253 -129.5 -389t-379.5 -136zM607 141q152 0 228.5 91.5t76.5 258.5v297q0 168 -76.5 258.5t-228.5 90.5t-228.5 -90.5t-76.5 -258.5v-297q0 -167 76.5 -258.5
t228.5 -91.5zM753 1651h225v-3l-275 -252h-186v2z" />
    <glyph glyph-name="Ocircumflex" unicode="&#xd4;" horiz-adv-x="1214" 
d="M607 -26q-250 0 -379.5 136t-129.5 389v281q0 252 129.5 388t379.5 136t379.5 -136t129.5 -388v-281q0 -253 -129.5 -389t-379.5 -136zM607 141q152 0 228.5 91.5t76.5 258.5v297q0 168 -76.5 258.5t-228.5 90.5t-228.5 -90.5t-76.5 -258.5v-297q0 -167 76.5 -258.5
t228.5 -91.5zM504 1651h206l217 -252v-3h-165l-151 148h-8l-151 -148h-165v3z" />
    <glyph glyph-name="Otilde" unicode="&#xd5;" horiz-adv-x="1214" 
d="M607 -26q-250 0 -379.5 136t-129.5 389v281q0 252 129.5 388t379.5 136t379.5 -136t129.5 -388v-281q0 -253 -129.5 -389t-379.5 -136zM607 141q152 0 228.5 91.5t76.5 258.5v297q0 168 -76.5 258.5t-228.5 90.5t-228.5 -90.5t-76.5 -258.5v-297q0 -167 76.5 -258.5
t228.5 -91.5zM747 1415q-38 0 -74 9.5t-69 22t-62.5 22t-55.5 9.5q-28 0 -40 -16.5t-12 -48.5v-9h-123v30q0 85 35.5 134t120.5 49q39 0 75.5 -9.5t69 -22.5t62 -22.5t54.5 -9.5q29 0 40 16.5t11 49.5v9h123v-31q0 -85 -35.5 -133.5t-119.5 -48.5z" />
    <glyph glyph-name="Odieresis" unicode="&#xd6;" horiz-adv-x="1214" 
d="M607 -26q-250 0 -379.5 136t-129.5 389v281q0 252 129.5 388t379.5 136t379.5 -136t129.5 -388v-281q0 -253 -129.5 -389t-379.5 -136zM607 141q152 0 228.5 91.5t76.5 258.5v297q0 168 -76.5 258.5t-228.5 90.5t-228.5 -90.5t-76.5 -258.5v-297q0 -167 76.5 -258.5
t228.5 -91.5zM449 1419q-49 0 -74 27.5t-25 77.5v7q0 50 25 77t74 27q51 0 75.5 -27t24.5 -77v-7q0 -50 -24.5 -77.5t-75.5 -27.5zM765 1419q-50 0 -74.5 27.5t-24.5 77.5v7q0 50 24.5 77t74.5 27t74.5 -27t24.5 -77v-7q0 -50 -24.5 -77.5t-74.5 -27.5z" />
    <glyph glyph-name="Oslash" unicode="&#xd8;" horiz-adv-x="1214" 
d="M607 -26q-162 0 -275.5 63t-173.5 181t-60 281v281q0 252 129.5 388t379.5 136q162 0 275.5 -63t173.5 -180.5t60 -280.5v-281q0 -253 -129.5 -389t-379.5 -136zM106 -69l148 233l45 59l524 946l18 41l86 137h181l-147 -226l-41 -61l-519 -937l-15 -28l-98 -164h-182z
M607 141q152 0 228.5 91.5t76.5 258.5v297q0 168 -73 258.5t-232 90.5q-152 0 -228.5 -90.5t-76.5 -258.5v-297q0 -167 72.5 -258.5t232.5 -91.5z" />
    <glyph glyph-name="Ugrave" unicode="&#xd9;" horiz-adv-x="1234" 
d="M617 -26q-249 0 -367 125.5t-118 366.5v812h201v-818q0 -154 66.5 -234.5t217.5 -80.5t217.5 80.5t66.5 234.5v818h201v-812q0 -241 -117.5 -366.5t-367.5 -125.5zM469 1651l236 -253v-2h-186l-275 252v3h225z" />
    <glyph glyph-name="Uacute" unicode="&#xda;" horiz-adv-x="1234" 
d="M617 -26q-249 0 -367 125.5t-118 366.5v812h201v-818q0 -154 66.5 -234.5t217.5 -80.5t217.5 80.5t66.5 234.5v818h201v-812q0 -241 -117.5 -366.5t-367.5 -125.5zM763 1651h225v-3l-275 -252h-186v2z" />
    <glyph glyph-name="Ucircumflex" unicode="&#xdb;" horiz-adv-x="1234" 
d="M617 -26q-249 0 -367 125.5t-118 366.5v812h201v-818q0 -154 66.5 -234.5t217.5 -80.5t217.5 80.5t66.5 234.5v818h201v-812q0 -241 -117.5 -366.5t-367.5 -125.5zM514 1651h206l217 -252v-3h-165l-151 148h-8l-151 -148h-165v3z" />
    <glyph glyph-name="Udieresis" unicode="&#xdc;" horiz-adv-x="1234" 
d="M617 -26q-249 0 -367 125.5t-118 366.5v812h201v-818q0 -154 66.5 -234.5t217.5 -80.5t217.5 80.5t66.5 234.5v818h201v-812q0 -241 -117.5 -366.5t-367.5 -125.5zM459 1419q-49 0 -74 27.5t-25 77.5v7q0 50 25 77t74 27q51 0 75.5 -27t24.5 -77v-7q0 -50 -24.5 -77.5
t-75.5 -27.5zM775 1419q-50 0 -74.5 27.5t-24.5 77.5v7q0 50 24.5 77t74.5 27t74.5 -27t24.5 -77v-7q0 -50 -24.5 -77.5t-74.5 -27.5z" />
    <glyph glyph-name="Yacute" unicode="&#xdd;" horiz-adv-x="1112" 
d="M470 372l-440 906h212l218 -465l90 -211h13l90 211l217 465h212l-439 -906h-173zM458 0v558h197v-558h-197zM702 1651h225v-3l-275 -252h-186v2z" />
    <glyph glyph-name="Thorn" unicode="&#xde;" horiz-adv-x="1134" 
d="M274 209v166h353q120 0 174.5 59.5t54.5 165.5v87q0 109 -54 167t-173 58h-356v165h360q220 0 321.5 -101.5t101.5 -283.5v-97q0 -182 -102 -284t-322 -102h-358zM142 0v1278h197v-241v-76v-648v-52v-261h-197z" />
    <glyph glyph-name="germandbls" unicode="&#xdf;" horiz-adv-x="1152" 
d="M124 979q0 122 40 205t128 125.5t232 42.5q116 0 201 -31.5t131.5 -92t46.5 -149.5q0 -58 -22.5 -101.5t-56 -78.5t-67 -65t-56 -60.5t-22.5 -66.5v-4q0 -49 35.5 -77t122.5 -61q83 -31 137 -65t80.5 -85t26.5 -132v-15q0 -95 -42.5 -159t-121 -96t-187.5 -32
q-75 0 -133.5 13t-103.5 30l-17 176q56 -24 114 -39.5t121 -15.5q90 0 134 32.5t44 93.5v10q0 39 -15 65.5t-52 48.5t-102 47q-82 33 -134 65t-76 75t-24 108v6q0 56 22.5 99.5t55.5 79t66 67.5t55.5 63.5t22.5 68.5q0 36 -20 63.5t-61 43t-105 15.5q-77 0 -122 -26t-64 -76
t-19 -122v-972h-193v979z" />
    <glyph glyph-name="agrave" unicode="&#xe0;" horiz-adv-x="1002" 
d="M699 0l8 232l-7 30v308l1 49q0 113 -57.5 166t-184.5 53q-103 0 -191 -29t-159 -67l18 164q40 23 94 45t122 36t149 14q111 0 188 -26.5t124 -76.5t68.5 -120t21.5 -156v-622h-195zM368 -22q-145 0 -222 71.5t-77 203.5v30q0 140 86.5 207.5t272.5 93.5l294 42l11 -142
l-282 -40q-101 -14 -144 -48.5t-43 -101.5v-14q0 -67 41.5 -103t126.5 -36q78 0 134 26t91 69.5t48 96.5l27 -131h-36q-16 -60 -53 -111t-103.5 -82t-171.5 -31zM390 1368l189 -272v-3h-172l-233 272v3h216z" />
    <glyph glyph-name="aacute" unicode="&#xe1;" horiz-adv-x="1002" 
d="M699 0l8 232l-7 30v308l1 49q0 113 -57.5 166t-184.5 53q-103 0 -191 -29t-159 -67l18 164q40 23 94 45t122 36t149 14q111 0 188 -26.5t124 -76.5t68.5 -120t21.5 -156v-622h-195zM368 -22q-145 0 -222 71.5t-77 203.5v30q0 140 86.5 207.5t272.5 93.5l294 42l11 -142
l-282 -40q-101 -14 -144 -48.5t-43 -101.5v-14q0 -67 41.5 -103t126.5 -36q78 0 134 26t91 69.5t48 96.5l27 -131h-36q-16 -60 -53 -111t-103.5 -82t-171.5 -31zM598 1368h216v-3l-233 -272h-172v3z" />
    <glyph glyph-name="acircumflex" unicode="&#xe2;" horiz-adv-x="1002" 
d="M699 0l8 232l-7 30v308l1 49q0 113 -57.5 166t-184.5 53q-103 0 -191 -29t-159 -67l18 164q40 23 94 45t122 36t149 14q111 0 188 -26.5t124 -76.5t68.5 -120t21.5 -156v-622h-195zM368 -22q-145 0 -222 71.5t-77 203.5v30q0 140 86.5 207.5t272.5 93.5l294 42l11 -142
l-282 -40q-101 -14 -144 -48.5t-43 -101.5v-14q0 -67 41.5 -103t126.5 -36q78 0 134 26t91 69.5t48 96.5l27 -131h-36q-16 -60 -53 -111t-103.5 -82t-171.5 -31zM389 1368h210l187 -272v-3h-154l-134 168h-8l-134 -168h-154v3z" />
    <glyph glyph-name="atilde" unicode="&#xe3;" horiz-adv-x="1002" 
d="M699 0l8 232l-7 30v308l1 49q0 113 -57.5 166t-184.5 53q-103 0 -191 -29t-159 -67l18 164q40 23 94 45t122 36t149 14q111 0 188 -26.5t124 -76.5t68.5 -120t21.5 -156v-622h-195zM368 -22q-145 0 -222 71.5t-77 203.5v30q0 140 86.5 207.5t272.5 93.5l294 42l11 -142
l-282 -40q-101 -14 -144 -48.5t-43 -101.5v-14q0 -67 41.5 -103t126.5 -36q78 0 134 26t91 69.5t48 96.5l27 -131h-36q-16 -60 -53 -111t-103.5 -82t-171.5 -31zM625 1117q-36 0 -70 10.5t-65.5 25t-59.5 25t-52 10.5q-27 0 -38.5 -17t-11.5 -51v-14h-123v34q0 87 35.5 137
t120.5 50q37 0 71 -11t65 -25t58.5 -25t51.5 -11q28 0 39 17.5t11 51.5v14h123v-35q0 -88 -35.5 -137t-119.5 -49z" />
    <glyph glyph-name="adieresis" unicode="&#xe4;" horiz-adv-x="1002" 
d="M699 0l8 232l-7 30v308l1 49q0 113 -57.5 166t-184.5 53q-103 0 -191 -29t-159 -67l18 164q40 23 94 45t122 36t149 14q111 0 188 -26.5t124 -76.5t68.5 -120t21.5 -156v-622h-195zM368 -22q-145 0 -222 71.5t-77 203.5v30q0 140 86.5 207.5t272.5 93.5l294 42l11 -142
l-282 -40q-101 -14 -144 -48.5t-43 -101.5v-14q0 -67 41.5 -103t126.5 -36q78 0 134 26t91 69.5t48 96.5l27 -131h-36q-16 -60 -53 -111t-103.5 -82t-171.5 -31zM336 1122q-49 0 -74 27.5t-25 77.5v7q0 50 25 77t74 27q51 0 75.5 -27t24.5 -77v-7q0 -50 -24.5 -77.5
t-75.5 -27.5zM652 1122q-50 0 -74.5 27.5t-24.5 77.5v7q0 50 24.5 77t74.5 27t74.5 -27t24.5 -77v-7q0 -50 -24.5 -77.5t-74.5 -27.5z" />
    <glyph glyph-name="aring" unicode="&#xe5;" horiz-adv-x="1002" 
d="M699 0l8 232l-7 30v308l1 49q0 113 -57.5 166t-184.5 53q-103 0 -191 -29t-159 -67l18 164q40 23 94 45t122 36t149 14q111 0 188 -26.5t124 -76.5t68.5 -120t21.5 -156v-622h-195zM368 -22q-145 0 -222 71.5t-77 203.5v30q0 140 86.5 207.5t272.5 93.5l294 42l11 -142
l-282 -40q-101 -14 -144 -48.5t-43 -101.5v-14q0 -67 41.5 -103t126.5 -36q78 0 134 26t91 69.5t48 96.5l27 -131h-36q-16 -60 -53 -111t-103.5 -82t-171.5 -31zM295 1246v4q0 77 49.5 123t149.5 46q99 0 148.5 -46t49.5 -123v-4q0 -75 -49.5 -121.5t-148.5 -46.5
q-100 0 -149.5 46.5t-49.5 121.5zM410 1247q0 -35 21.5 -54t62.5 -19t62 19t21 54v3q0 35 -21 54t-62 19t-62.5 -19t-21.5 -54v-3z" />
    <glyph glyph-name="ae" unicode="&#xe6;" horiz-adv-x="1626" 
d="M1167 -23q-188 0 -298 74.5t-143 208.5l-20 40q-4 56 -5.5 111t-0.5 117l1 91q0 113 -61.5 166t-180.5 53q-104 0 -192 -29t-158 -67l18 164q38 23 89 45t115.5 36t140.5 14q140 0 217 -59t102 -159h6q31 98 119.5 159.5t233.5 61.5q132 0 220.5 -51.5t133 -145.5
t44.5 -223v-37q0 -34 -3 -69t-8 -67h-180q2 52 2.5 97t0.5 85q0 81 -26 137t-77.5 85.5t-129.5 29.5q-117 0 -174.5 -68.5t-57.5 -187.5v-93v-23v-76q0 -57 16.5 -104t53 -80.5t94.5 -52t141 -18.5q94 0 176.5 24t155.5 64l-18 -167q-66 -39 -153.5 -62.5t-193.5 -23.5z
M378 -22q-153 0 -231 72.5t-78 202.5v30q0 140 87.5 207.5t271.5 93.5l294 42l11 -142l-282 -40q-101 -14 -144 -48.5t-43 -101.5v-14q0 -67 41.5 -103t126.5 -36q79 0 135.5 25t92.5 68.5t50 96.5l61 -125h-34q-22 -64 -65 -115.5t-114.5 -82t-179.5 -30.5zM804 411v148
h693v-148h-693z" />
    <glyph glyph-name="ccedilla" unicode="&#xe7;" horiz-adv-x="873" 
d="M515 -23q-218 0 -323.5 115.5t-105.5 326.5v141q0 212 106 327t323 115q60 0 110.5 -11t91.5 -28.5t70 -36.5l17 -168q-48 34 -111 57.5t-147 23.5q-134 0 -198.5 -72.5t-64.5 -210.5v-132q0 -135 64.5 -208t198.5 -73q85 0 150 23.5t117 57.5l-17 -170
q-46 -29 -117.5 -53t-163.5 -24zM559 21l-22 -156l-82 55q17 1 34 1.5t34 -0.5q100 -4 148.5 -41t48.5 -107v-6q0 -79 -57 -116.5t-164 -37.5q-41 0 -79.5 6t-67.5 13l-22 120q31 -10 67.5 -16t76.5 -6q49 0 75 13t26 38v2q0 30 -34 42.5t-119 17.5q-10 1 -14 1h-4l22 177
h133z" />
    <glyph glyph-name="egrave" unicode="&#xe8;" horiz-adv-x="1012" 
d="M553 -23q-234 0 -350.5 111.5t-116.5 321.5v160q0 207 108.5 320.5t316.5 113.5q141 0 235 -51.5t141 -145.5t47 -223v-37q0 -34 -3 -69t-8 -67h-180q2 52 2.5 98t0.5 84q0 81 -26 137t-78 85.5t-131 29.5q-117 0 -174 -66.5t-57 -189.5v-92l1 -23v-87q0 -55 16.5 -100
t53 -77.5t94.5 -50t141 -17.5q94 0 176.5 24t155.5 64l-18 -167q-66 -39 -153.5 -62.5t-193.5 -23.5zM190 411v147h693v-147h-693zM412 1368l189 -272v-3h-172l-233 272v3h216z" />
    <glyph glyph-name="eacute" unicode="&#xe9;" horiz-adv-x="1012" 
d="M553 -23q-234 0 -350.5 111.5t-116.5 321.5v160q0 207 108.5 320.5t316.5 113.5q141 0 235 -51.5t141 -145.5t47 -223v-37q0 -34 -3 -69t-8 -67h-180q2 52 2.5 98t0.5 84q0 81 -26 137t-78 85.5t-131 29.5q-117 0 -174 -66.5t-57 -189.5v-92l1 -23v-87q0 -55 16.5 -100
t53 -77.5t94.5 -50t141 -17.5q94 0 176.5 24t155.5 64l-18 -167q-66 -39 -153.5 -62.5t-193.5 -23.5zM190 411v147h693v-147h-693zM620 1368h216v-3l-233 -272h-172v3z" />
    <glyph glyph-name="ecircumflex" unicode="&#xea;" horiz-adv-x="1012" 
d="M553 -23q-234 0 -350.5 111.5t-116.5 321.5v160q0 207 108.5 320.5t316.5 113.5q141 0 235 -51.5t141 -145.5t47 -223v-37q0 -34 -3 -69t-8 -67h-180q2 52 2.5 98t0.5 84q0 81 -26 137t-78 85.5t-131 29.5q-117 0 -174 -66.5t-57 -189.5v-92l1 -23v-87q0 -55 16.5 -100
t53 -77.5t94.5 -50t141 -17.5q94 0 176.5 24t155.5 64l-18 -167q-66 -39 -153.5 -62.5t-193.5 -23.5zM190 411v147h693v-147h-693zM411 1368h210l187 -272v-3h-154l-134 168h-8l-134 -168h-154v3z" />
    <glyph glyph-name="edieresis" unicode="&#xeb;" horiz-adv-x="1012" 
d="M553 -23q-234 0 -350.5 111.5t-116.5 321.5v160q0 207 108.5 320.5t316.5 113.5q141 0 235 -51.5t141 -145.5t47 -223v-37q0 -34 -3 -69t-8 -67h-180q2 52 2.5 98t0.5 84q0 81 -26 137t-78 85.5t-131 29.5q-117 0 -174 -66.5t-57 -189.5v-92l1 -23v-87q0 -55 16.5 -100
t53 -77.5t94.5 -50t141 -17.5q94 0 176.5 24t155.5 64l-18 -167q-66 -39 -153.5 -62.5t-193.5 -23.5zM190 411v147h693v-147h-693zM358 1122q-49 0 -74 27.5t-25 77.5v7q0 50 25 77t74 27q51 0 75.5 -27t24.5 -77v-7q0 -50 -24.5 -77.5t-75.5 -27.5zM674 1122
q-50 0 -74.5 27.5t-24.5 77.5v7q0 50 24.5 77t74.5 27t74.5 -27t24.5 -77v-7q0 -50 -24.5 -77.5t-74.5 -27.5z" />
    <glyph glyph-name="igrave" unicode="&#xec;" horiz-adv-x="449" 
d="M127 0v978h196v-978h-196zM197 1368l106 -273v-2h-161l-145 273v2h200z" />
    <glyph glyph-name="iacute" unicode="&#xed;" horiz-adv-x="449" 
d="M127 0v978h196v-978h-196zM253 1368h200v-2l-145 -273h-161v2z" />
    <glyph glyph-name="icircumflex" unicode="&#xee;" horiz-adv-x="449" 
d="M127 0v978h196v-978h-196zM123 1368h204l150 -273v-2h-147l-102 166h-7l-101 -166h-147v2z" />
    <glyph glyph-name="idieresis" unicode="&#xef;" horiz-adv-x="449" 
d="M127 0v978h196v-978h-196zM91 1122q-47 0 -70.5 27t-23.5 77v8q0 50 23.5 77t70.5 27t71 -27t24 -77v-8q0 -50 -24 -77t-71 -27zM360 1122q-48 0 -71.5 27t-23.5 77v8q0 50 23.5 77t71.5 27q47 0 70.5 -27t23.5 -77v-8q0 -50 -23.5 -77t-70.5 -27z" />
    <glyph glyph-name="eth" unicode="&#xf0;" horiz-adv-x="1051" 
d="M526 -25q-216 0 -328 115t-112 331v61q0 204 102.5 318.5t276.5 114.5q71 0 122.5 -18t87 -51.5t58.5 -80.5l50 14l-14 -293q0 66 -16 117t-47 85.5t-77 52.5t-107 18q-118 0 -178.5 -70.5t-60.5 -202.5v-77q0 -133 62 -204t181 -71t181 71t62 204v58v65q-1 49 -1 80
t-1 76q-11 76 -50.5 146.5t-107 144.5t-162.5 158t-217 186v1h246q113 -101 203.5 -191t154 -181.5t97.5 -195.5t34 -233v-102q0 -216 -111.5 -331t-327.5 -115zM198 983v126l714 172v-126z" />
    <glyph glyph-name="ntilde" unicode="&#xf1;" horiz-adv-x="1080" 
d="M772 0v604q0 71 -19.5 123t-64 81t-121.5 29q-71 0 -123 -26t-84.5 -70t-46.5 -100l-32 136h42q17 62 56 112.5t104 80.5t161 30q115 0 186 -43.5t104.5 -126.5t33.5 -204v-626h-196zM124 0v978h196l-8 -229l8 -12v-737h-196zM672 1117q-36 0 -70 10.5t-65.5 25t-59.5 25
t-52 10.5q-27 0 -38.5 -17t-11.5 -51v-14h-123v34q0 87 35.5 137t120.5 50q37 0 71 -11t65 -25t58.5 -25t51.5 -11q28 0 39 17.5t11 51.5v14h123v-35q0 -88 -35.5 -137t-119.5 -49z" />
    <glyph glyph-name="ograve" unicode="&#xf2;" horiz-adv-x="1051" 
d="M526 -25q-216 0 -328 115t-112 331v139q0 215 112 329.5t328 114.5t327.5 -114.5t111.5 -329.5v-139q0 -216 -111.5 -331t-327.5 -115zM526 134q119 0 181 71t62 204v163q0 132 -62 202.5t-181 70.5t-181 -70.5t-62 -202.5v-163q0 -133 62 -204t181 -71zM422 1368
l189 -272v-3h-172l-233 272v3h216z" />
    <glyph glyph-name="oacute" unicode="&#xf3;" horiz-adv-x="1051" 
d="M526 -25q-216 0 -328 115t-112 331v139q0 215 112 329.5t328 114.5t327.5 -114.5t111.5 -329.5v-139q0 -216 -111.5 -331t-327.5 -115zM526 134q119 0 181 71t62 204v163q0 132 -62 202.5t-181 70.5t-181 -70.5t-62 -202.5v-163q0 -133 62 -204t181 -71zM630 1368h216v-3
l-233 -272h-172v3z" />
    <glyph glyph-name="ocircumflex" unicode="&#xf4;" horiz-adv-x="1051" 
d="M526 -25q-216 0 -328 115t-112 331v139q0 215 112 329.5t328 114.5t327.5 -114.5t111.5 -329.5v-139q0 -216 -111.5 -331t-327.5 -115zM526 134q119 0 181 71t62 204v163q0 132 -62 202.5t-181 70.5t-181 -70.5t-62 -202.5v-163q0 -133 62 -204t181 -71zM421 1368h210
l187 -272v-3h-154l-134 168h-8l-134 -168h-154v3z" />
    <glyph glyph-name="otilde" unicode="&#xf5;" horiz-adv-x="1051" 
d="M526 -25q-216 0 -328 115t-112 331v139q0 215 112 329.5t328 114.5t327.5 -114.5t111.5 -329.5v-139q0 -216 -111.5 -331t-327.5 -115zM526 134q119 0 181 71t62 204v163q0 132 -62 202.5t-181 70.5t-181 -70.5t-62 -202.5v-163q0 -133 62 -204t181 -71zM657 1117
q-36 0 -70 10.5t-65.5 25t-59.5 25t-52 10.5q-27 0 -38.5 -17t-11.5 -51v-14h-123v34q0 87 35.5 137t120.5 50q37 0 71 -11t65 -25t58.5 -25t51.5 -11q28 0 39 17.5t11 51.5v14h123v-35q0 -88 -35.5 -137t-119.5 -49z" />
    <glyph glyph-name="odieresis" unicode="&#xf6;" horiz-adv-x="1051" 
d="M526 -25q-216 0 -328 115t-112 331v139q0 215 112 329.5t328 114.5t327.5 -114.5t111.5 -329.5v-139q0 -216 -111.5 -331t-327.5 -115zM526 134q119 0 181 71t62 204v163q0 132 -62 202.5t-181 70.5t-181 -70.5t-62 -202.5v-163q0 -133 62 -204t181 -71zM368 1122
q-49 0 -74 27.5t-25 77.5v7q0 50 25 77t74 27q51 0 75.5 -27t24.5 -77v-7q0 -50 -24.5 -77.5t-75.5 -27.5zM684 1122q-50 0 -74.5 27.5t-24.5 77.5v7q0 50 24.5 77t74.5 27t74.5 -27t24.5 -77v-7q0 -50 -24.5 -77.5t-74.5 -27.5z" />
    <glyph glyph-name="oslash" unicode="&#xf8;" horiz-adv-x="1051" 
d="M526 -25q-144 0 -242 51.5t-148 151.5t-50 243v139q0 215 112 329.5t328 114.5q144 0 242 -51t147.5 -150t49.5 -243v-139q0 -216 -111.5 -331t-327.5 -115zM102 -69l130 200l43 57l410 700l26 44l71 115h167l-122 -183l-44 -60l-405 -696l-28 -49l-80 -128h-168z
M526 134q119 0 181 71t62 204v163q0 132 -62 202.5t-181 70.5t-181 -70.5t-62 -202.5v-163q0 -133 62 -204t181 -71z" />
    <glyph glyph-name="ugrave" unicode="&#xf9;" horiz-adv-x="1080" 
d="M308 978v-604q0 -70 19.5 -122.5t64.5 -81.5t121 -29q72 0 123.5 26t84.5 70.5t46 99.5l32 -136h-42q-17 -61 -56 -112t-104 -81t-161 -30q-114 0 -185.5 43.5t-105 127t-33.5 203.5v626h196zM956 978v-978h-196l8 229l-8 12v737h196zM437 1368l189 -272v-3h-172
l-233 272v3h216z" />
    <glyph glyph-name="uacute" unicode="&#xfa;" horiz-adv-x="1080" 
d="M308 978v-604q0 -70 19.5 -122.5t64.5 -81.5t121 -29q72 0 123.5 26t84.5 70.5t46 99.5l32 -136h-42q-17 -61 -56 -112t-104 -81t-161 -30q-114 0 -185.5 43.5t-105 127t-33.5 203.5v626h196zM956 978v-978h-196l8 229l-8 12v737h196zM645 1368h216v-3l-233 -272h-172v3z
" />
    <glyph glyph-name="ucircumflex" unicode="&#xfb;" horiz-adv-x="1080" 
d="M308 978v-604q0 -70 19.5 -122.5t64.5 -81.5t121 -29q72 0 123.5 26t84.5 70.5t46 99.5l32 -136h-42q-17 -61 -56 -112t-104 -81t-161 -30q-114 0 -185.5 43.5t-105 127t-33.5 203.5v626h196zM956 978v-978h-196l8 229l-8 12v737h196zM436 1368h210l187 -272v-3h-154
l-134 168h-8l-134 -168h-154v3z" />
    <glyph glyph-name="udieresis" unicode="&#xfc;" horiz-adv-x="1080" 
d="M308 978v-604q0 -70 19.5 -122.5t64.5 -81.5t121 -29q72 0 123.5 26t84.5 70.5t46 99.5l32 -136h-42q-17 -61 -56 -112t-104 -81t-161 -30q-114 0 -185.5 43.5t-105 127t-33.5 203.5v626h196zM956 978v-978h-196l8 229l-8 12v737h196zM383 1122q-49 0 -74 27.5t-25 77.5
v7q0 50 25 77t74 27q51 0 75.5 -27t24.5 -77v-7q0 -50 -24.5 -77.5t-75.5 -27.5zM699 1122q-50 0 -74.5 27.5t-24.5 77.5v7q0 50 24.5 77t74.5 27t74.5 -27t24.5 -77v-7q0 -50 -24.5 -77.5t-74.5 -27.5z" />
    <glyph glyph-name="yacute" unicode="&#xfd;" horiz-adv-x="1002" 
d="M593 173l-104 -45l275 850h201l-445 -1322h-198l155 459l88 -74h-221l-307 937h203l244 -805h109zM606 1368h216v-3l-233 -272h-172v3z" />
    <glyph glyph-name="thorn" unicode="&#xfe;" horiz-adv-x="1086" 
d="M633 -22q-87 0 -149.5 27.5t-101.5 78t-57 117.5h-65l55 185q3 -82 35 -136.5t88.5 -81.5t130.5 -27q113 0 173 65.5t60 192.5v187q0 125 -59.5 190t-173.5 65q-68 0 -121 -26t-87.5 -70.5t-48.5 -101.5l-46 134h59q17 62 53.5 112.5t100.5 80.5t162 30q175 0 266.5 -110
t91.5 -321v-155q0 -213 -92 -324.5t-274 -111.5zM124 -344v1668h195v-346l-5 -229l1 -64v-402l-1 -40l5 -277v-310h-195z" />
    <glyph glyph-name="ydieresis" unicode="&#xff;" horiz-adv-x="1002" 
d="M593 173l-104 -45l275 850h201l-445 -1322h-198l155 459l88 -74h-221l-307 937h203l244 -805h109zM344 1122q-49 0 -74 27.5t-25 77.5v7q0 50 25 77t74 27q51 0 75.5 -27t24.5 -77v-7q0 -50 -24.5 -77.5t-75.5 -27.5zM660 1122q-50 0 -74.5 27.5t-24.5 77.5v7
q0 50 24.5 77t74.5 27t74.5 -27t24.5 -77v-7q0 -50 -24.5 -77.5t-74.5 -27.5z" />
    <glyph glyph-name="logicalnot" unicode="&#xac;" horiz-adv-x="1018" 
d="M905 198h-166v442h166v-442zM99 543v157h806v-157h-806z" />
    <glyph glyph-name="macron" unicode="&#xaf;" horiz-adv-x="778" 
d="M105 1147v133h568v-133h-568z" />
    <glyph glyph-name="ring" unicode="&#x2da;" horiz-adv-x="597" 
d="M100 1246v4q0 77 49.5 123t149.5 46q99 0 148.5 -46t49.5 -123v-4q0 -75 -49.5 -121.5t-148.5 -46.5q-100 0 -149.5 46.5t-49.5 121.5zM215 1247q0 -35 21.5 -54t62.5 -19t62 19t21 54v3q0 35 -21 54t-62 19t-62.5 -19t-21.5 -54v-3z" />
    <glyph glyph-name="periodcentered" unicode="&#xb7;" horiz-adv-x="387" 
d="M193 420q-55 0 -82 28t-27 79v6q0 50 27 79t82 29q56 0 83 -29t27 -79v-6q0 -51 -27 -79t-83 -28z" />
    <glyph glyph-name="fraction" unicode="&#x2044;" horiz-adv-x="423" 
d="M-293 0l865 1278h156l-863 -1278h-158z" />
    <glyph glyph-name="uni00B9" unicode="&#xb9;" horiz-adv-x="429" 
d="M208 726v531h-8l-173 -95l5 138l183 104h135v-678h-142z" />
    <glyph glyph-name="uni00B2" unicode="&#xb2;" horiz-adv-x="593" 
d="M37 726v124l203 159q46 36 80 67.5t53 62t19 62.5v7q0 42 -30.5 65t-101.5 23q-64 0 -116.5 -16t-98.5 -36l12 124q40 21 101 36t125 15q127 0 193 -51.5t66 -143.5v-11q0 -54 -22 -97.5t-62.5 -84t-98.5 -85.5l-121 -91v-30l-65 23h378v-122h-514z" />
    <glyph glyph-name="uni00B3" unicode="&#xb3;" horiz-adv-x="617" 
d="M280 710q-71 0 -131.5 14t-95.5 29l-13 125q42 -18 99 -32.5t120 -14.5q92 0 124 26.5t32 66.5v5q0 20 -7.5 36t-24 27t-44 17t-68.5 7l-132 3v106l132 3q76 2 108.5 23t32.5 61v6q0 39 -30.5 60.5t-113.5 21.5q-69 0 -126 -15.5t-98 -32.5l13 116q39 20 97.5 35
t133.5 15q137 0 205 -46.5t68 -134.5v-7q0 -59 -32 -96.5t-99 -48.5v-16l-5 11q72 -13 106.5 -52t34.5 -108v-9q0 -58 -30 -103.5t-93.5 -71.5t-162.5 -26z" />
    <glyph glyph-name="onequarter" unicode="&#xbc;" horiz-adv-x="1397" 
d="M208 600v531h-8l-173 -95l5 138l183 104h135v-678h-142zM136 0l865 1278h156l-863 -1278h-158zM1151 0v408l5 171h-14l-222 -342v-48l-67 40h527v-116h-608v128l292 437h223v-678h-136z" />
    <glyph glyph-name="onehalf" unicode="&#xbd;" horiz-adv-x="1460" 
d="M208 600v531h-8l-173 -95l5 138l183 104h135v-678h-142zM136 0l865 1278h156l-863 -1278h-158zM904 0v124l203 159q46 36 80 67.5t53 62t19 62.5v7q0 42 -30.5 65t-101.5 23q-64 0 -116.5 -16t-98.5 -36l12 124q40 21 101 36t125 15q127 0 193 -51.5t66 -143.5v-11
q0 -54 -22 -97.5t-62.5 -84t-98.5 -85.5l-121 -91v-30l-65 23h378v-122h-514z" />
    <glyph glyph-name="threequarters" unicode="&#xbe;" horiz-adv-x="1580" 
d="M280 584q-71 0 -131.5 14t-95.5 29l-13 125q42 -18 99 -32.5t120 -14.5q92 0 124 26.5t32 66.5v5q0 20 -7.5 36t-24 27t-44 17t-68.5 7l-132 3v106l132 3q76 2 108.5 23t32.5 61v6q0 39 -30.5 60.5t-113.5 21.5q-69 0 -126 -15.5t-98 -32.5l13 116q39 20 97.5 35
t133.5 15q137 0 205 -46.5t68 -134.5v-7q0 -59 -32 -96.5t-99 -48.5v-16l-5 11q72 -13 106.5 -52t34.5 -108v-9q0 -58 -30 -103.5t-93.5 -71.5t-162.5 -26zM319 0l865 1278h156l-863 -1278h-158zM1334 0v408l5 171h-14l-222 -342v-48l-67 40h527v-116h-608v128l292 437h223
v-678h-136z" />
    <glyph glyph-name="r_t" horiz-adv-x="1480" 
d="M1169 -20q-116 0 -187 35.5t-103.5 106.5t-32.5 179v598h194v-573q0 -91 43 -133.5t148 -42.5q56 0 108.5 13t96.5 35l-17 -168q-48 -24 -112 -37t-138 -13zM124 0v978h191l-9 -285l14 -14v-679h-196zM312 591l-42 153h48q30 116 103 182.5t193 66.5q29 0 50.5 -4.5
t40.5 -10.5l12 -191q-23 8 -51.5 12.5t-62.5 4.5q-102 0 -179.5 -55t-111.5 -158zM846 810v156h581l-17 -156h-564zM846 949v269l196 23l-7 -292h-189z" />
    <glyph glyph-name="uni1E9E" unicode="&#x1e9e;" horiz-adv-x="1268" 
d="M328 0h-196v812q0 230 115 348t353 118h534v-154l-382 -460l-99 42q41 14 92.5 20.5t86.5 6.5q177 0 264 -83.5t87 -246.5v-65q0 -175 -100.5 -267.5t-308.5 -92.5q-92 0 -162 20.5t-110 39.5l-18 184q53 -29 121.5 -49.5t149.5 -20.5q119 0 173.5 51t54.5 148v46
q0 100 -56 148t-189 48q-43 0 -81 -3.5t-77 -10.5v143l361 442l32 -46h-348q-153 0 -225 -77t-72 -233v-808z" />
    <glyph glyph-name="dotlessi" unicode="&#x131;" horiz-adv-x="449" 
d="M127 0v978h196v-978h-196z" />
    <glyph glyph-name="zero.zero" horiz-adv-x="1151" 
d="M199 379l668 649l66 -133l-670 -650zM575 -26q-235 0 -355 130.5t-120 377.5v314q0 247 119.5 377.5t355.5 130.5t356 -130.5t120 -377.5v-314q0 -247 -120 -377.5t-356 -130.5zM575 141q139 0 205.5 85.5t66.5 246.5v331q0 162 -66.5 247.5t-205.5 85.5t-205 -85.5
t-66 -247.5v-331q0 -161 66.5 -246.5t204.5 -85.5z" />
    <glyph glyph-name="zero.tf" horiz-adv-x="1107" 
d="M558 -26q-235 0 -355 130.5t-120 377.5v314q0 247 119.5 377.5t355.5 130.5t356 -130.5t120 -377.5v-314q0 -247 -120 -377.5t-356 -130.5zM558 141q139 0 205.5 85.5t66.5 246.5v331q0 162 -66.5 247.5t-205.5 85.5t-205 -85.5t-66 -247.5v-331q0 -161 66.5 -246.5
t204.5 -85.5z" />
    <glyph glyph-name="one.tf" horiz-adv-x="1107" 
d="M503 0v1071h-14l-340 -176l5 194l357 189h191l1 -1278h-200zM116 0v170h900v-170h-900z" />
    <glyph glyph-name="two.tf" horiz-adv-x="1107" 
d="M138 0v187l325 304q91 85 154 151.5t96.5 129.5t33.5 134v10q0 67 -26 114t-81 72.5t-142 25.5q-101 0 -190 -31t-157 -71l18 179q40 24 94.5 46t123.5 36t152 14q206 0 309 -94t103 -266v-14q0 -99 -36 -180t-105 -159.5t-169 -172.5l-252 -236v-43l-82 34h663v-170
h-832z" />
    <glyph glyph-name="three.tf" horiz-adv-x="1107" 
d="M504 -23q-83 0 -153 12t-123.5 29.5t-88.5 33.5l-19 194q69 -37 162 -65t205 -28q103 0 164.5 24t89 69.5t27.5 110.5v19q0 67 -26 109.5t-85.5 63.5t-158.5 23l-216 4v159l217 5q97 2 154 24.5t82.5 64t25.5 99.5v14q0 62 -26 104t-83.5 63.5t-153.5 21.5
q-109 0 -204 -28.5t-166 -65.5l17 174q64 35 160 62.5t227 27.5q222 0 327 -86t105 -242v-20q0 -75 -25 -132.5t-78 -94t-136 -50.5v-30l-6 21q135 -25 195 -93.5t60 -195.5v-34q0 -172 -114 -269.5t-356 -97.5z" />
    <glyph glyph-name="four.tf" horiz-adv-x="1107" 
d="M705 0v848l7 291h-26l-408 -718v-88l-77 73h858v-168h-980v196l487 844h330v-1278h-191z" />
    <glyph glyph-name="five.tf" horiz-adv-x="1107" 
d="M540 -23q-126 0 -218.5 26.5t-144.5 53.5l-20 191q44 -24 100.5 -45.5t123 -35t141.5 -13.5q103 0 166 27.5t91.5 80t28.5 126.5v55q0 103 -51 160t-161 57q-90 0 -152.5 -38.5t-104.5 -103.5l-176 30v730h806v-170h-612v-279l-3 -168h8q38 71 111.5 117.5t192.5 46.5
q173 0 257.5 -100t84.5 -276v-63q0 -125 -49 -217t-152.5 -142t-266.5 -50z" />
    <glyph glyph-name="six.tf" horiz-adv-x="1107" 
d="M579 -26q-149 0 -254.5 58.5t-161 174t-55.5 287.5v274q0 254 126.5 393.5t371.5 139.5q118 0 202 -24t142 -53l20 -180q-43 24 -91 43t-106.5 30t-133.5 11q-166 0 -249 -92t-83 -274v-291q0 -110 32.5 -183.5t94 -110t149.5 -36.5q124 0 183.5 66t59.5 169v52
q0 72 -22 124.5t-71.5 81t-132.5 28.5q-74 0 -134.5 -27.5t-103.5 -79t-64 -122.5l-14 172h33q21 62 64 111t112 77.5t166 28.5q182 0 273.5 -102.5t91.5 -288.5v-58q0 -181 -112.5 -290t-332.5 -109z" />
    <glyph glyph-name="seven.tf" horiz-adv-x="1107" 
d="M138 1278h186v-435h-186v435zM352 0l468 1108h-612v170h822v-174l-459 -1104h-219z" />
    <glyph glyph-name="eight.tf" horiz-adv-x="1107" 
d="M555 -27q-127 0 -217 25.5t-147 73t-83.5 112.5t-26.5 144v26q0 88 29 151t83.5 103t129.5 58v10q-75 14 -126 50t-77 92.5t-26 130.5v25q0 152 111.5 241t349.5 89q241 0 352.5 -89t111.5 -241v-25q0 -74 -26 -130.5t-77 -92.5t-126 -50v-10q76 -19 130 -59t83 -102.5
t29 -150.5v-26q0 -77 -25.5 -142t-82 -112.5t-147.5 -74t-222 -26.5zM558 140q143 0 207 58.5t64 149.5v23q0 90 -70.5 146.5t-207.5 71.5q-131 -16 -199 -72.5t-68 -145.5v-23q0 -91 65.5 -149.5t208.5 -58.5zM561 730q110 7 184.5 58t74.5 149v15q0 85 -63 136.5
t-202 51.5q-136 0 -199 -51.5t-63 -136.5v-15q0 -65 34.5 -109.5t94.5 -68.5t139 -29z" />
    <glyph glyph-name="nine.tf" horiz-adv-x="1107" 
d="M540 1304q233 0 351.5 -128.5t118.5 -378.5v-302q0 -250 -130 -385t-388 -135q-111 0 -190 21.5t-134 47.5l-21 189q64 -35 138.5 -59t183.5 -24q175 0 258.5 88t83.5 263v316q0 159 -66.5 239.5t-208.5 80.5q-124 0 -184 -65.5t-60 -169.5v-58q0 -105 55 -168.5
t183 -63.5q71 0 129 27.5t99.5 79t61.5 122.5l14 -172h-33q-20 -62 -62 -111t-108.5 -77.5t-161.5 -28.5q-188 0 -281.5 102t-93.5 284v67q0 182 113 290.5t333 108.5z" />
    <glyph glyph-name="zero.tf.zero" horiz-adv-x="1107" 
d="M182 379l668 649l66 -133l-670 -650zM558 -26q-235 0 -355 130.5t-120 377.5v314q0 247 119.5 377.5t355.5 130.5t356 -130.5t120 -377.5v-314q0 -247 -120 -377.5t-356 -130.5zM558 141q139 0 205.5 85.5t66.5 246.5v331q0 162 -66.5 247.5t-205.5 85.5t-205 -85.5
t-66 -247.5v-331q0 -161 66.5 -246.5t204.5 -85.5z" />
    <glyph glyph-name="zero.dnom" horiz-adv-x="712" 
d="M355 -18q-147 0 -223 78.5t-76 226.5v100q0 147 75.5 226t223.5 79q149 0 225 -79t76 -226v-100q0 -148 -76 -226.5t-225 -78.5zM356 104q76 0 113.5 46t37.5 128v118q0 83 -37.5 128.5t-113.5 45.5q-80 0 -115.5 -48.5t-35.5 -125.5v-118q0 -83 37.5 -128.5t113.5 -45.5
z" />
    <glyph glyph-name="one.dnom" horiz-adv-x="429" 
d="M208 0v531h-8l-173 -95l5 138l183 104h135v-678h-142z" />
    <glyph glyph-name="two.dnom" horiz-adv-x="593" 
d="M37 0v124l203 159q46 36 80 67.5t53 62t19 62.5v7q0 42 -30.5 65t-101.5 23q-64 0 -116.5 -16t-98.5 -36l12 124q40 21 101 36t125 15q127 0 193 -51.5t66 -143.5v-11q0 -54 -22 -97.5t-62.5 -84t-98.5 -85.5l-121 -91v-30l-65 23h378v-122h-514z" />
    <glyph glyph-name="three.dnom" horiz-adv-x="617" 
d="M280 -16q-71 0 -131.5 14t-95.5 29l-13 125q42 -18 99 -32.5t120 -14.5q92 0 124 26.5t32 66.5v5q0 20 -7.5 36t-24 27t-44 17t-68.5 7l-132 3v106l132 3q76 2 108.5 23t32.5 61v6q0 39 -30.5 60.5t-113.5 21.5q-69 0 -126 -15.5t-98 -32.5l13 116q39 20 97.5 35
t133.5 15q137 0 205 -46.5t68 -134.5v-7q0 -59 -32 -96.5t-99 -48.5v-16l-5 11q72 -13 106.5 -52t34.5 -108v-9q0 -58 -30 -103.5t-93.5 -71.5t-162.5 -26z" />
    <glyph glyph-name="four.dnom" horiz-adv-x="655" 
d="M409 0v408l5 171h-14l-222 -342v-48l-67 40h527v-116h-608v128l292 437h223v-678h-136z" />
    <glyph glyph-name="five.dnom" horiz-adv-x="653" 
d="M304 -16q-74 0 -134 15t-92 29l-13 126q42 -19 100.5 -34t128.5 -15q95 0 129.5 31t34.5 82v11q0 47 -25.5 74.5t-89.5 27.5q-47 0 -84 -18.5t-63 -49.5l-127 19v396h508v-118h-373v-120l-2 -89h6q26 43 74 65.5t117 22.5q104 0 155 -55.5t51 -151.5v-19
q0 -70 -31.5 -121.5t-98 -79.5t-171.5 -28z" />
    <glyph glyph-name="six.dnom" horiz-adv-x="678" 
d="M354 -18q-146 0 -223 78.5t-77 226.5v101q0 143 79.5 223.5t237.5 80.5q65 0 117.5 -12t90.5 -28l14 -120q-39 17 -84.5 28.5t-107.5 11.5q-71 0 -115.5 -23t-65 -65t-20.5 -99v-120q0 -75 39.5 -118.5t116.5 -43.5q65 0 98.5 28t33.5 81v12q0 52 -27.5 80t-92.5 28
q-62 0 -104.5 -26t-65.5 -68l-16 84h24q14 32 39.5 58.5t66.5 42.5t99 16q109 0 164.5 -54t55.5 -152v-23q0 -110 -71.5 -169t-205.5 -59z" />
    <glyph glyph-name="seven.dnom" horiz-adv-x="574" 
d="M115 0l275 559h-359v119h511v-121l-268 -557h-159z" />
    <glyph glyph-name="eight.dnom" horiz-adv-x="689" 
d="M344 -20q-106 0 -171 24t-94.5 68t-29.5 105v7q0 46 15.5 79.5t46 56t74.5 33.5v6q-43 8 -71.5 27.5t-42 48t-13.5 61.5v11q0 86 69.5 135.5t216.5 49.5q148 0 217.5 -49t69.5 -136v-10q0 -55 -32.5 -90t-94.5 -48v-6q71 -14 103.5 -57t32.5 -112v-7q0 -58 -28 -102.5
t-92.5 -69.5t-175.5 -25zM346 100q77 0 110 25t33 70v6q0 43 -35.5 68t-112.5 30q-73 -5 -107 -30.5t-34 -67.5v-7q0 -44 34 -69t112 -25zM347 394q68 6 101.5 30t33.5 62v4q0 41 -32.5 63.5t-105.5 22.5t-104.5 -23t-31.5 -63v-4q0 -38 33.5 -62t105.5 -30z" />
    <glyph glyph-name="nine.dnom" horiz-adv-x="677" 
d="M326 692q145 0 221 -78.5t76 -226.5v-101q0 -95 -36.5 -163.5t-109 -104.5t-181.5 -36q-63 0 -113.5 11.5t-87.5 25.5l-16 124q40 -17 86 -29t110 -12q107 0 154.5 51t47.5 136v122q0 74 -38.5 117t-114.5 43q-67 0 -101 -28t-34 -81v-12q0 -52 30 -80t100 -28
q59 0 99 26t61 68l16 -84h-24q-13 -32 -37.5 -58.5t-63 -42.5t-94.5 -16q-114 0 -172 54t-58 151v23q0 109 72 169t208 60z" />
    <glyph glyph-name="uni2080" unicode="&#x2080;" horiz-adv-x="712" 
d="M355 -218q-147 0 -223 78.5t-76 226.5v100q0 147 75.5 226t223.5 79q149 0 225 -79t76 -226v-100q0 -148 -76 -226.5t-225 -78.5zM356 -96q76 0 113.5 46t37.5 128v118q0 83 -37.5 128.5t-113.5 45.5q-80 0 -115.5 -48.5t-35.5 -125.5v-118q0 -83 37.5 -128.5
t113.5 -45.5z" />
    <glyph glyph-name="uni2081" unicode="&#x2081;" horiz-adv-x="429" 
d="M208 -200v531h-8l-173 -95l5 138l183 104h135v-678h-142z" />
    <glyph glyph-name="uni2082" unicode="&#x2082;" horiz-adv-x="593" 
d="M37 -200v124l203 159q46 36 80 67.5t53 62t19 62.5v7q0 42 -30.5 65t-101.5 23q-64 0 -116.5 -16t-98.5 -36l12 124q40 21 101 36t125 15q127 0 193 -51.5t66 -143.5v-11q0 -54 -22 -97.5t-62.5 -84t-98.5 -85.5l-121 -91v-30l-65 23h378v-122h-514z" />
    <glyph glyph-name="uni2083" unicode="&#x2083;" horiz-adv-x="617" 
d="M280 -216q-71 0 -131.5 14t-95.5 29l-13 125q42 -18 99 -32.5t120 -14.5q92 0 124 26.5t32 66.5v5q0 20 -7.5 36t-24 27t-44 17t-68.5 7l-132 3v106l132 3q76 2 108.5 23t32.5 61v6q0 39 -30.5 60.5t-113.5 21.5q-69 0 -126 -15.5t-98 -32.5l13 116q39 20 97.5 35
t133.5 15q137 0 205 -46.5t68 -134.5v-7q0 -59 -32 -96.5t-99 -48.5v-16l-5 11q72 -13 106.5 -52t34.5 -108v-9q0 -58 -30 -103.5t-93.5 -71.5t-162.5 -26z" />
    <glyph glyph-name="uni2084" unicode="&#x2084;" horiz-adv-x="655" 
d="M409 -200v408l5 171h-14l-222 -342v-48l-67 40h527v-116h-608v128l292 437h223v-678h-136z" />
    <glyph glyph-name="uni2085" unicode="&#x2085;" horiz-adv-x="653" 
d="M304 -216q-74 0 -134 15t-92 29l-13 126q42 -19 100.5 -34t128.5 -15q95 0 129.5 31t34.5 82v11q0 47 -25.5 74.5t-89.5 27.5q-47 0 -84 -18.5t-63 -49.5l-127 19v396h508v-118h-373v-120l-2 -89h6q26 43 74 65.5t117 22.5q104 0 155 -55.5t51 -151.5v-19
q0 -70 -31.5 -121.5t-98 -79.5t-171.5 -28z" />
    <glyph glyph-name="uni2086" unicode="&#x2086;" horiz-adv-x="678" 
d="M354 -218q-146 0 -223 78.5t-77 226.5v101q0 143 79.5 223.5t237.5 80.5q65 0 117.5 -12t90.5 -28l14 -120q-39 17 -84.5 28.5t-107.5 11.5q-71 0 -115.5 -23t-65 -65t-20.5 -99v-120q0 -75 39.5 -118.5t116.5 -43.5q65 0 98.5 28t33.5 81v12q0 52 -27.5 80t-92.5 28
q-62 0 -104.5 -26t-65.5 -68l-16 84h24q14 32 39.5 58.5t66.5 42.5t99 16q109 0 164.5 -54t55.5 -152v-23q0 -110 -71.5 -169t-205.5 -59z" />
    <glyph glyph-name="uni2087" unicode="&#x2087;" horiz-adv-x="574" 
d="M115 -200l275 559h-359v119h511v-121l-268 -557h-159z" />
    <glyph glyph-name="uni2088" unicode="&#x2088;" horiz-adv-x="689" 
d="M344 -220q-106 0 -171 24t-94.5 68t-29.5 105v7q0 46 15.5 79.5t46 56t74.5 33.5v6q-43 8 -71.5 27.5t-42 48t-13.5 61.5v11q0 86 69.5 135.5t216.5 49.5q148 0 217.5 -49t69.5 -136v-10q0 -55 -32.5 -90t-94.5 -48v-6q71 -14 103.5 -57t32.5 -112v-7q0 -58 -28 -102.5
t-92.5 -69.5t-175.5 -25zM346 -100q77 0 110 25t33 70v6q0 43 -35.5 68t-112.5 30q-73 -5 -107 -30.5t-34 -67.5v-7q0 -44 34 -69t112 -25zM347 194q68 6 101.5 30t33.5 62v4q0 41 -32.5 63.5t-105.5 22.5t-104.5 -23t-31.5 -63v-4q0 -38 33.5 -62t105.5 -30z" />
    <glyph glyph-name="uni2089" unicode="&#x2089;" horiz-adv-x="677" 
d="M326 492q145 0 221 -78.5t76 -226.5v-101q0 -95 -36.5 -163.5t-109 -104.5t-181.5 -36q-63 0 -113.5 11.5t-87.5 25.5l-16 124q40 -17 86 -29t110 -12q107 0 154.5 51t47.5 136v122q0 74 -38.5 117t-114.5 43q-67 0 -101 -28t-34 -81v-12q0 -52 30 -80t100 -28
q59 0 99 26t61 68l16 -84h-24q-13 -32 -37.5 -58.5t-63 -42.5t-94.5 -16q-114 0 -172 54t-58 151v23q0 109 72 169t208 60z" />
    <glyph glyph-name="zero.numr" horiz-adv-x="712" 
d="M355 582q-147 0 -223 78.5t-76 226.5v100q0 147 75.5 226t223.5 79q149 0 225 -79t76 -226v-100q0 -148 -76 -226.5t-225 -78.5zM356 704q76 0 113.5 46t37.5 128v118q0 83 -37.5 128.5t-113.5 45.5q-80 0 -115.5 -48.5t-35.5 -125.5v-118q0 -83 37.5 -128.5t113.5 -45.5
z" />
    <glyph glyph-name="one.numr" horiz-adv-x="429" 
d="M208 600v531h-8l-173 -95l5 138l183 104h135v-678h-142z" />
    <glyph glyph-name="two.numr" horiz-adv-x="593" 
d="M37 600v124l203 159q46 36 80 67.5t53 62t19 62.5v7q0 42 -30.5 65t-101.5 23q-64 0 -116.5 -16t-98.5 -36l12 124q40 21 101 36t125 15q127 0 193 -51.5t66 -143.5v-11q0 -54 -22 -97.5t-62.5 -84t-98.5 -85.5l-121 -91v-30l-65 23h378v-122h-514z" />
    <glyph glyph-name="three.numr" horiz-adv-x="617" 
d="M280 584q-71 0 -131.5 14t-95.5 29l-13 125q42 -18 99 -32.5t120 -14.5q92 0 124 26.5t32 66.5v5q0 20 -7.5 36t-24 27t-44 17t-68.5 7l-132 3v106l132 3q76 2 108.5 23t32.5 61v6q0 39 -30.5 60.5t-113.5 21.5q-69 0 -126 -15.5t-98 -32.5l13 116q39 20 97.5 35
t133.5 15q137 0 205 -46.5t68 -134.5v-7q0 -59 -32 -96.5t-99 -48.5v-16l-5 11q72 -13 106.5 -52t34.5 -108v-9q0 -58 -30 -103.5t-93.5 -71.5t-162.5 -26z" />
    <glyph glyph-name="four.numr" horiz-adv-x="655" 
d="M409 600v408l5 171h-14l-222 -342v-48l-67 40h527v-116h-608v128l292 437h223v-678h-136z" />
    <glyph glyph-name="five.numr" horiz-adv-x="653" 
d="M304 584q-74 0 -134 15t-92 29l-13 126q42 -19 100.5 -34t128.5 -15q95 0 129.5 31t34.5 82v11q0 47 -25.5 74.5t-89.5 27.5q-47 0 -84 -18.5t-63 -49.5l-127 19v396h508v-118h-373v-120l-2 -89h6q26 43 74 65.5t117 22.5q104 0 155 -55.5t51 -151.5v-19
q0 -70 -31.5 -121.5t-98 -79.5t-171.5 -28z" />
    <glyph glyph-name="six.numr" horiz-adv-x="678" 
d="M354 582q-146 0 -223 78.5t-77 226.5v101q0 143 79.5 223.5t237.5 80.5q65 0 117.5 -12t90.5 -28l14 -120q-39 17 -84.5 28.5t-107.5 11.5q-71 0 -115.5 -23t-65 -65t-20.5 -99v-120q0 -75 39.5 -118.5t116.5 -43.5q65 0 98.5 28t33.5 81v12q0 52 -27.5 80t-92.5 28
q-62 0 -104.5 -26t-65.5 -68l-16 84h24q14 32 39.5 58.5t66.5 42.5t99 16q109 0 164.5 -54t55.5 -152v-23q0 -110 -71.5 -169t-205.5 -59z" />
    <glyph glyph-name="seven.numr" horiz-adv-x="574" 
d="M115 600l275 559h-359v119h511v-121l-268 -557h-159z" />
    <glyph glyph-name="eight.numr" horiz-adv-x="689" 
d="M344 580q-106 0 -171 24t-94.5 68t-29.5 105v7q0 46 15.5 79.5t46 56t74.5 33.5v6q-43 8 -71.5 27.5t-42 48t-13.5 61.5v11q0 86 69.5 135.5t216.5 49.5q148 0 217.5 -49t69.5 -136v-10q0 -55 -32.5 -90t-94.5 -48v-6q71 -14 103.5 -57t32.5 -112v-7q0 -58 -28 -102.5
t-92.5 -69.5t-175.5 -25zM346 700q77 0 110 25t33 70v6q0 43 -35.5 68t-112.5 30q-73 -5 -107 -30.5t-34 -67.5v-7q0 -44 34 -69t112 -25zM347 994q68 6 101.5 30t33.5 62v4q0 41 -32.5 63.5t-105.5 22.5t-104.5 -23t-31.5 -63v-4q0 -38 33.5 -62t105.5 -30z" />
    <glyph glyph-name="nine.numr" horiz-adv-x="677" 
d="M326 1292q145 0 221 -78.5t76 -226.5v-101q0 -95 -36.5 -163.5t-109 -104.5t-181.5 -36q-63 0 -113.5 11.5t-87.5 25.5l-16 124q40 -17 86 -29t110 -12q107 0 154.5 51t47.5 136v122q0 74 -38.5 117t-114.5 43q-67 0 -101 -28t-34 -81v-12q0 -52 30 -80t100 -28
q59 0 99 26t61 68l16 -84h-24q-13 -32 -37.5 -58.5t-63 -42.5t-94.5 -16q-114 0 -172 54t-58 151v23q0 109 72 169t208 60z" />
    <glyph glyph-name="uni2070" unicode="&#x2070;" horiz-adv-x="712" 
d="M355 708q-147 0 -223 78.5t-76 226.5v100q0 147 75.5 226t223.5 79q149 0 225 -79t76 -226v-100q0 -148 -76 -226.5t-225 -78.5zM356 830q76 0 113.5 46t37.5 128v118q0 83 -37.5 128.5t-113.5 45.5q-80 0 -115.5 -48.5t-35.5 -125.5v-118q0 -83 37.5 -128.5t113.5 -45.5
z" />
    <glyph glyph-name="uni2074" unicode="&#x2074;" horiz-adv-x="655" 
d="M409 726v408l5 171h-14l-222 -342v-48l-67 40h527v-116h-608v128l292 437h223v-678h-136z" />
    <glyph glyph-name="uni2075" unicode="&#x2075;" horiz-adv-x="653" 
d="M304 710q-74 0 -134 15t-92 29l-13 126q42 -19 100.5 -34t128.5 -15q95 0 129.5 31t34.5 82v11q0 47 -25.5 74.5t-89.5 27.5q-47 0 -84 -18.5t-63 -49.5l-127 19v396h508v-118h-373v-120l-2 -89h6q26 43 74 65.5t117 22.5q104 0 155 -55.5t51 -151.5v-19
q0 -70 -31.5 -121.5t-98 -79.5t-171.5 -28z" />
    <glyph glyph-name="uni2076" unicode="&#x2076;" horiz-adv-x="678" 
d="M354 708q-146 0 -223 78.5t-77 226.5v101q0 143 79.5 223.5t237.5 80.5q65 0 117.5 -12t90.5 -28l14 -120q-39 17 -84.5 28.5t-107.5 11.5q-71 0 -115.5 -23t-65 -65t-20.5 -99v-120q0 -75 39.5 -118.5t116.5 -43.5q65 0 98.5 28t33.5 81v12q0 52 -27.5 80t-92.5 28
q-62 0 -104.5 -26t-65.5 -68l-16 84h24q14 32 39.5 58.5t66.5 42.5t99 16q109 0 164.5 -54t55.5 -152v-23q0 -110 -71.5 -169t-205.5 -59z" />
    <glyph glyph-name="uni2077" unicode="&#x2077;" horiz-adv-x="574" 
d="M115 726l275 559h-359v119h511v-121l-268 -557h-159z" />
    <glyph glyph-name="uni2078" unicode="&#x2078;" horiz-adv-x="689" 
d="M344 706q-106 0 -171 24t-94.5 68t-29.5 105v7q0 46 15.5 79.5t46 56t74.5 33.5v6q-43 8 -71.5 27.5t-42 48t-13.5 61.5v11q0 86 69.5 135.5t216.5 49.5q148 0 217.5 -49t69.5 -136v-10q0 -55 -32.5 -90t-94.5 -48v-6q71 -14 103.5 -57t32.5 -112v-7q0 -58 -28 -102.5
t-92.5 -69.5t-175.5 -25zM346 826q77 0 110 25t33 70v6q0 43 -35.5 68t-112.5 30q-73 -5 -107 -30.5t-34 -67.5v-7q0 -44 34 -69t112 -25zM347 1120q68 6 101.5 30t33.5 62v4q0 41 -32.5 63.5t-105.5 22.5t-104.5 -23t-31.5 -63v-4q0 -38 33.5 -62t105.5 -30z" />
    <glyph glyph-name="uni2079" unicode="&#x2079;" horiz-adv-x="677" 
d="M326 1418q145 0 221 -78.5t76 -226.5v-101q0 -95 -36.5 -163.5t-109 -104.5t-181.5 -36q-63 0 -113.5 11.5t-87.5 25.5l-16 124q40 -17 86 -29t110 -12q107 0 154.5 51t47.5 136v122q0 74 -38.5 117t-114.5 43q-67 0 -101 -28t-34 -81v-12q0 -52 30 -80t100 -28
q59 0 99 26t61 68l16 -84h-24q-13 -32 -37.5 -58.5t-63 -42.5t-94.5 -16q-114 0 -172 54t-58 151v23q0 109 72 169t208 60z" />
    <glyph glyph-name="uni2007" unicode="&#x2007;" horiz-adv-x="1151" 
 />
    <glyph glyph-name="uni200A" unicode="&#x200a;" horiz-adv-x="286" 
 />
    <glyph glyph-name="uni2008" unicode="&#x2008;" horiz-adv-x="402" 
 />
    <glyph glyph-name="uni00A0" unicode="&#xa0;" horiz-adv-x="552" 
 />
    <glyph glyph-name="uni2009" unicode="&#x2009;" horiz-adv-x="400" 
 />
    <glyph glyph-name="uni200B" unicode="&#x200b;" 
 />
    <glyph glyph-name="uni00AD" unicode="&#xad;" horiz-adv-x="798" 
d="M114 442v160h570v-160h-570z" />
    <glyph glyph-name="guillemotleft" unicode="&#xab;" horiz-adv-x="999" 
d="M675 490l283 -402h-192l-272 380v44l272 374h192zM246 490l283 -402h-192l-272 380v44l272 374h192z" />
    <glyph glyph-name="guillemotright" unicode="&#xbb;" horiz-adv-x="999" 
d="M324 490l-283 396h192l272 -374v-44l-272 -380h-192zM753 490l-283 396h192l272 -374v-44l-272 -380h-192z" />
    <glyph glyph-name="Euro" unicode="&#x20ac;" horiz-adv-x="1073" 
d="M692 -26q-262 0 -389 134.5t-127 381.5v303q0 245 127 378t384 133q90 0 164.5 -19t120.5 -42l16 -172q-51 25 -120 42t-155 17q-169 0 -250.5 -90t-81.5 -253v-291q0 -163 83.5 -253.5t261.5 -90.5q88 0 156 18.5t114 45.5l-16 -179q-43 -23 -118 -43t-170 -20zM26 418
l14 147h844l-13 -147h-845zM26 733l14 147h844l-13 -147h-845z" />
    <glyph glyph-name="uni20B9" unicode="&#x20b9;" horiz-adv-x="1022" 
d="M957 1278h-879l11 -145h879zM780 8l-222 272q-33 41 -65 75.5t-68 67.5t-81 68l5 49l-259 54v-147l114 -12l342 -435h234v8zM464 1172q63 -56 92 -127t29 -161v-12q0 -140 -73 -209t-240 -69h-182l149 -145l96 2q226 5 334 108.5t108 305.5v13q0 92 -30 166.5t-88 127.5
h-195zM957 943h-879l11 -145h879z" />
    <glyph glyph-name="uni2219" unicode="&#x2219;" horiz-adv-x="402" 
d="M201 381q-60 0 -88.5 32.5t-28.5 90.5v10q0 58 28.5 90t88.5 32q59 0 88 -32t29 -90v-10q0 -58 -29 -90.5t-88 -32.5z" />
    <glyph glyph-name="uni2215" unicode="&#x2215;" horiz-adv-x="850" 
d="M21 -242l627 1585h181l-626 -1585h-182z" />
    <glyph glyph-name="uni00B5" unicode="&#xb5;" horiz-adv-x="1093" 
d="M969 978v-978h-196l8 229l-8 12v737h196zM320 385q0 -57 13 -102t39.5 -76.5t68 -47.5t98.5 -16q66 0 115.5 26t81 70.5t43.5 99.5l32 -143h-41q-14 -66 -44 -115t-78.5 -75.5t-118.5 -26.5q-58 0 -100.5 16.5t-71 48t-45.5 77.5h-8l12 -340v-125h-192v1322h196v-593z
" />
    <glyph glyph-name="uni0308" unicode="&#x308;" 
d="M199 1122q-49 0 -74 27.5t-25 77.5v7q0 50 25 77t74 27q51 0 75.5 -27t24.5 -77v-7q0 -50 -24.5 -77.5t-75.5 -27.5zM515 1122q-50 0 -74.5 27.5t-24.5 77.5v7q0 50 24.5 77t74.5 27t74.5 -27t24.5 -77v-7q0 -50 -24.5 -77.5t-74.5 -27.5z" />
    <glyph glyph-name="uni0307" unicode="&#x307;" 
d="M209 1122q-55 0 -82 28t-27 79v6q0 50 27 79t82 29q56 0 83 -29t27 -79v-6q0 -51 -27 -79t-83 -28z" />
    <glyph glyph-name="gravecomb" unicode="&#x300;" 
d="M312 1368l189 -272v-3h-172l-233 272v3h216z" />
    <glyph glyph-name="acutecomb" unicode="&#x301;" 
d="M283 1368h216v-3l-233 -272h-172v3z" />
    <glyph glyph-name="uni0302" unicode="&#x302;" 
d="M287 1368h210l187 -272v-3h-154l-134 168h-8l-134 -168h-154v3z" />
    <glyph glyph-name="uni030A" unicode="&#x30a;" 
d="M100 1246v4q0 77 49.5 123t149.5 46q99 0 148.5 -46t49.5 -123v-4q0 -75 -49.5 -121.5t-148.5 -46.5q-100 0 -149.5 46.5t-49.5 121.5zM215 1247q0 -35 21.5 -54t62.5 -19t62 19t21 54v3q0 35 -21 54t-62 19t-62.5 -19t-21.5 -54v-3z" />
    <glyph glyph-name="tildecomb" unicode="&#x303;" 
d="M520 1117q-36 0 -70 10.5t-65.5 25t-59.5 25t-52 10.5q-27 0 -38.5 -17t-11.5 -51v-14h-123v34q0 87 35.5 137t120.5 50q37 0 71 -11t65 -25t58.5 -25t51.5 -11q28 0 39 17.5t11 51.5v14h123v-35q0 -88 -35.5 -137t-119.5 -49z" />
    <glyph glyph-name="uni0304" unicode="&#x304;" 
d="M105 1147v133h568v-133h-568z" />
    <glyph glyph-name="uni0327" unicode="&#x327;" 
d="M367 21l-22 -156l-82 55q17 1 34 1.5t34 -0.5q100 -4 148.5 -41t48.5 -107v-6q0 -79 -57 -116.5t-164 -37.5q-41 0 -79.5 6t-67.5 13l-22 120q31 -10 67.5 -16t76.5 -6q49 0 75 13t26 38v2q0 30 -34 42.5t-119 17.5q-10 1 -14 1h-4l22 177h133z" />
    <glyph glyph-name="uni0308.case" 
d="M199 1419q-49 0 -74 27.5t-25 77.5v7q0 50 25 77t74 27q51 0 75.5 -27t24.5 -77v-7q0 -50 -24.5 -77.5t-75.5 -27.5zM515 1419q-50 0 -74.5 27.5t-24.5 77.5v7q0 50 24.5 77t74.5 27t74.5 -27t24.5 -77v-7q0 -50 -24.5 -77.5t-74.5 -27.5z" />
    <glyph glyph-name="gravecomb.case" 
d="M315 1651l236 -253v-2h-186l-275 252v3h225z" />
    <glyph glyph-name="acutecomb.case" 
d="M335 1651h225v-3l-275 -252h-186v2z" />
    <glyph glyph-name="uni0302.case" 
d="M318 1651h206l217 -252v-3h-165l-151 148h-8l-151 -148h-165v3z" />
    <glyph glyph-name="uni030A.case" 
d="M100 1524v4q0 77 49.5 123t149.5 46q99 0 148.5 -46t49.5 -123v-4q0 -75 -49.5 -121.5t-148.5 -46.5q-100 0 -149.5 46.5t-49.5 121.5zM215 1525q0 -35 21.5 -54t62.5 -19t62 19t21 54v3q0 35 -21 54t-62 19t-62.5 -19t-21.5 -54v-3z" />
    <glyph glyph-name="tildecomb.case" 
d="M536 1415q-38 0 -74 9.5t-69 22t-62.5 22t-55.5 9.5q-28 0 -40 -16.5t-12 -48.5v-9h-123v30q0 85 35.5 134t120.5 49q39 0 75.5 -9.5t69 -22.5t62 -22.5t54.5 -9.5q29 0 40 16.5t11 49.5v9h123v-31q0 -85 -35.5 -133.5t-119.5 -48.5z" />
    <glyph glyph-name="uni0304.case" 
d="M105 1444v133h568v-133h-568z" />
    <glyph glyph-name="uni0327.case" 
d="M367 18l-22 -156l-82 55q17 1 34 1.5t34 -0.5q100 -4 148.5 -41t48.5 -107v-6q0 -79 -57 -116.5t-164 -37.5q-41 0 -79.5 6t-67.5 13l-22 120q31 -10 67.5 -16t76.5 -6q49 0 75 13t26 38v2q0 30 -34 42.5t-119 17.5q-10 1 -14 1h-4l22 177h133z" />
    <glyph glyph-name="uni0308.narrow" 
d="M223 1122q-47 0 -70.5 27t-23.5 77v8q0 50 23.5 77t70.5 27t71 -27t24 -77v-8q0 -50 -24 -77t-71 -27zM492 1122q-48 0 -71.5 27t-23.5 77v8q0 50 23.5 77t71.5 27q47 0 70.5 -27t23.5 -77v-8q0 -50 -23.5 -77t-70.5 -27z" />
    <glyph glyph-name="gravecomb.narrow" 
d="M388 1368l106 -273v-2h-161l-145 273v2h200z" />
    <glyph glyph-name="acutecomb.narrow" 
d="M207 1368h200v-2l-145 -273h-161v2z" />
    <glyph glyph-name="uni0302.narrow" 
d="M290 1368h204l150 -273v-2h-147l-102 166h-7l-101 -166h-147v2z" />
    <glyph glyph-name="MatraAa.gm" unicode="&#xa3e;" horiz-adv-x="504" 
d="M157 457v696h190v-696h-190zM-29 1073l13 145h549l-14 -145h-548z" />
    <glyph glyph-name="MatraI.gm" unicode="&#xa3f;" horiz-adv-x="504" 
d="M157 1191v156q0 177 90 271t262 94q167 0 256.5 -92.5t89.5 -265.5v-40h-189v41q-1 99 -40.5 150.5t-117.5 51.5q-82 0 -122.5 -52t-40.5 -158v-157zM157 0v1107l190 -1v-1106h-190zM-29 1073l13 145h594l-14 -145h-593z" />
    <glyph glyph-name="MatraIi.gm" unicode="&#xa40;" horiz-adv-x="504" 
d="M159 1190v157q0 106 -40.5 158t-123.5 52q-77 0 -117 -51.5t-41 -150.5v-41h-190v40q0 173 90 265.5t257 92.5q173 0 263 -94t90 -271v-156zM157 0v1102h190v-1102h-190zM-81 1073l13 145h602l-15 -145h-600z" />
    <glyph glyph-name="MatraIiBindi.gm" horiz-adv-x="504" 
d="M380 1592q-51 0 -73.5 25.5t-22.5 68.5v7q0 44 22.5 69.5t73.5 25.5q50 0 73 -25.5t23 -69.5v-7q0 -44 -23 -69t-73 -25zM159 1190v157q0 106 -40.5 158t-123.5 52q-77 0 -117 -51.5t-41 -150.5v-41h-190v40q0 173 90 265.5t257 92.5q173 0 263 -94t90 -271v-156zM157 0
v1102h190v-1102h-190zM-81 1073l13 145h602l-15 -145h-600z" />
    <glyph glyph-name="Danda.gm" unicode="&#x964;" horiz-adv-x="580" 
d="M195 0v1217h190v-1217h-190z" />
    <glyph glyph-name="Doubledanda.gm" unicode="&#x965;" horiz-adv-x="1039" 
d="M656 0v1219h188v-1219h-188zM195 0v1219h188v-1219h-188z" />
    <glyph glyph-name="VowelA.gm" unicode="&#xa05;" horiz-adv-x="1616" 
d="M695 111q20 113 30.5 248.5t10.5 268.5q0 57 -3 124t-10 140l59 -7l-515 -345l-17 180l501 342h154q7 -76 12 -156t7.5 -154t2.5 -134q0 -138 -10.5 -271.5t-27.5 -235.5h-194zM135 296q20 116 30 249.5t10 267.5q0 58 -3 124.5t-9 135.5h-146l-6 145h336
q7 -71 12 -144.5t7.5 -143t2.5 -129.5q0 -138 -10.5 -269.5t-28.5 -235.5h-195zM820 362v194l517 325v-195zM-29 1073l13 145h111v-145h-124zM1528 1073v145h118l-13 -145h-105zM1270 0v1218h317v-145h-128v-1073h-189z" />
    <glyph glyph-name="VowelAa.gm" unicode="&#xa06;" horiz-adv-x="2120" 
d="M1773 457v696h190v-696h-190zM1587 1073l13 145h549l-14 -145h-548zM695 111q20 113 30.5 248.5t10.5 268.5q0 57 -3 124t-10 140l59 -7l-515 -345l-17 180l501 342h154q7 -76 12 -156t7.5 -154t2.5 -134q0 -138 -10.5 -271.5t-27.5 -235.5h-194zM135 296
q20 116 30 249.5t10 267.5q0 58 -3 124.5t-9 135.5h-146l-6 145h336q7 -71 12 -144.5t7.5 -143t2.5 -129.5q0 -138 -10.5 -269.5t-28.5 -235.5h-195zM820 362v194l517 325v-195zM-29 1073l13 145h111v-145h-124zM1528 1073v145h118l-13 -145h-105zM1270 0v1218h317v-145
h-128v-1073h-189z" />
    <glyph glyph-name="VowelI.gm" unicode="&#xa07;" horiz-adv-x="1686" 
d="M157 1191v156q0 177 90 271t262 94q167 0 256.5 -92.5t89.5 -265.5v-40h-189v41q-1 99 -40.5 150.5t-117.5 51.5q-82 0 -122.5 -52t-40.5 -158v-157zM157 0v1107l190 -1v-1106h-190zM-29 1073l13 145h594l-14 -145h-593zM1192 -24q-179 0 -304 55t-189.5 157t-64.5 242
v119q89 35 180.5 62.5t200.5 49.5l15 6q72 11 155 29.5t159 28.5v412h191v-545q-137 -15 -272.5 -39.5t-260 -57t-229.5 -73.5l53 76v-86q0 -85 48 -145t133.5 -91.5t197.5 -31.5q107 0 206.5 27t170.5 64l-14 -181q-58 -31 -153 -54.5t-223 -23.5zM985 645v13
q-109 8 -186.5 45.5t-118.5 106t-41 168.5v162h197v-142q0 -97 45.5 -163t130 -99.5t202.5 -33.5l-136 -57h-93zM531 1073v145h1135v-145h-215l-13 8h-683l-13 -8h-211zM475 1073l13 145h111v-145h-124zM1598 1073v145h118l-13 -145h-105z" />
    <glyph glyph-name="VowelIi.gm" unicode="&#xa08;" horiz-adv-x="1686" 
d="M1341 1190v157q0 106 -40.5 158t-123.5 52q-77 0 -117 -51.5t-41 -150.5v-41h-190v40q0 173 90 265.5t257 92.5q173 0 263 -94t90 -271v-156zM1339 0v1102h190v-1102h-190zM1101 1073l13 145h602l-15 -145h-600zM688 -24q-179 0 -304 55t-189.5 157t-64.5 242v119
q89 35 180.5 62.5t200.5 49.5l15 6q72 11 155 29.5t159 28.5v412h191v-545q-137 -15 -272.5 -39.5t-260 -57t-229.5 -73.5l53 76v-86q0 -85 48 -145t133.5 -91.5t197.5 -31.5q107 0 206.5 27t170.5 64l-14 -181q-58 -31 -153 -54.5t-223 -23.5zM481 645v13
q-109 8 -186.5 45.5t-118.5 106t-41 168.5v162h197v-142q0 -97 45.5 -163t130 -99.5t202.5 -33.5l-136 -57h-93zM27 1073v145h1135v-145h-215l-13 8h-683l-13 -8h-211zM-29 1073l13 145h111v-145h-124zM1094 1073v145h118l-13 -145h-105z" />
    <glyph glyph-name="VowelU.gm" unicode="&#xa09;" horiz-adv-x="1272" 
d="M687 -27q-283 0 -417.5 153t-134.5 447v573q0 188 64 311.5t183 185t282 61.5q157 0 270 -49t174 -139t61 -214v-42l-142 -39v-6l-47 -13v67q0 85 -36 145t-106 92t-173 32q-110 0 -186 -39.5t-115.5 -123.5t-39.5 -217v-587q0 -144 36.5 -240.5t115 -144.5t204.5 -48
q134 0 194.5 56t60.5 157v4q0 63 -26.5 108.5t-79.5 70t-134 24.5h-455v166h446q91 0 156 33t100 99t35 164v124h190v-113q0 -89 -21.5 -160.5t-63 -122.5t-102 -78t-137.5 -27v-62l-69 62q95 0 162.5 -22.5t110.5 -64t63.5 -97t20.5 -121.5v-3q0 -114 -49 -195t-147.5 -124
t-247.5 -43zM28 1073v145h1230v-145h-174l-11 3h-827l-10 -3h-208zM-29 1073l13 145h111v-145h-124zM1186 1073v145h118l-13 -145h-105zM666 -354q-106 0 -206 19.5t-174 55.5l-11 156q81 -36 186 -56t213 -20t210 20t180 55l-11 -155q-76 -35 -178 -55t-209 -20z" />
    <glyph glyph-name="VowelUu.gm" unicode="&#xa0a;" horiz-adv-x="1272" 
d="M687 -27q-283 0 -417.5 153t-134.5 447v573q0 188 64 311.5t183 185t282 61.5q157 0 270 -49t174 -139t61 -214v-42l-142 -39v-6l-47 -13v67q0 85 -36 145t-106 92t-173 32q-110 0 -186 -39.5t-115.5 -123.5t-39.5 -217v-587q0 -144 36.5 -240.5t115 -144.5t204.5 -48
q134 0 194.5 56t60.5 157v4q0 63 -26.5 108.5t-79.5 70t-134 24.5h-455v166h446q91 0 156 33t100 99t35 164v124h190v-113q0 -89 -21.5 -160.5t-63 -122.5t-102 -78t-137.5 -27v-62l-69 62q95 0 162.5 -22.5t110.5 -64t63.5 -97t20.5 -121.5v-3q0 -114 -49 -195t-147.5 -124
t-247.5 -43zM28 1073v145h1230v-145h-174l-11 3h-827l-10 -3h-208zM-29 1073l13 145h111v-145h-124zM1186 1073v145h118l-13 -145h-105zM663 -297q-109 1 -209.5 19.5t-173.5 52.5l-10 140q77 -34 182.5 -53.5t217.5 -19.5t214 20.5t176 52.5l-10 -140q-72 -33 -174.5 -52
t-212.5 -20zM662 -546q-109 0 -209.5 19t-173.5 53l-10 140q77 -34 182.5 -53.5t217.5 -19.5t214 19.5t176 53.5l-10 -140q-72 -34 -174.5 -53t-212.5 -19z" />
    <glyph glyph-name="VowelEe.gm" unicode="&#xa0f;" horiz-adv-x="1182" 
d="M688 -24q-179 0 -304 55t-189.5 157t-64.5 242v119q89 35 180.5 62.5t200.5 49.5l15 6q72 11 155 29.5t159 28.5v412h191v-545q-137 -15 -272.5 -39.5t-260 -57t-229.5 -73.5l53 76v-86q0 -85 48 -145t133.5 -91.5t197.5 -31.5q107 0 206.5 27t170.5 64l-14 -181
q-58 -31 -153 -54.5t-223 -23.5zM481 645v13q-109 8 -186.5 45.5t-118.5 106t-41 168.5v162h197v-142q0 -97 45.5 -163t130 -99.5t202.5 -33.5l-136 -57h-93zM27 1073v145h1135v-145h-215l-13 8h-683l-13 -8h-211zM931 1195l-2 10q-18 88 -50.5 152t-87.5 105.5t-139 61.5
t-203 20q-24 0 -55.5 -1.5t-65.5 -4t-68 -6.5l15 174q46 5 89 8.5t90 3.5q182 0 303 -49t188 -163.5t86 -310.5h-100zM-29 1073l13 145h111v-145h-124zM1094 1073v145h118l-13 -145h-105z" />
    <glyph glyph-name="VowelAi.gm" unicode="&#xa10;" horiz-adv-x="1616" 
d="M695 111q20 113 30.5 248.5t10.5 268.5q0 57 -3 124t-10 140l59 -7l-515 -345l-17 180l501 342h154q7 -76 12 -156t7.5 -154t2.5 -134q0 -138 -10.5 -271.5t-27.5 -235.5h-194zM135 296q20 116 30 249.5t10 267.5q0 58 -3 124.5t-9 135.5h-146l-6 145h336
q7 -71 12 -144.5t7.5 -143t2.5 -129.5q0 -138 -10.5 -269.5t-28.5 -235.5h-195zM820 362v194l517 325v-195zM-29 1073l13 145h111v-145h-124zM1528 1073v145h118l-13 -145h-105zM1270 0v1218h317v-145h-128v-1073h-189zM1370 1197l-20 161l12 3q-16 79 -48 139t-86 100.5
t-137.5 61t-204.5 20.5q-52 0 -120.5 -5.5t-136.5 -16.5l13 166q75 11 132.5 15.5t106.5 4.5q195 0 317.5 -56t182.5 -171t65 -293l4 -129h-80zM1339 1197l-2 19q-6 58 -47.5 99t-124.5 63t-214 22q-36 0 -72.5 -2t-77 -6t-89.5 -10l13 166q57 8 110.5 12t95.5 4
q149 0 247.5 -42.5t151 -118.5t62.5 -175l3 -31h-56z" />
    <glyph glyph-name="VowelOo.gm" unicode="&#xa13;" horiz-adv-x="1282" 
d="M693 -27q-135 0 -238 36.5t-172.5 110.5t-105 187t-35.5 266v519q0 209 69.5 344t206 200t335.5 65q72 0 142 -11.5t129 -31.5l12 -153q-64 18 -131 28t-135 10q-144 0 -241.5 -45t-147 -144t-49.5 -262v-520q0 -117 22.5 -200.5t66.5 -136.5t111 -78.5t155 -25.5
q138 0 195.5 59.5t57.5 154.5v10q0 61 -26 107t-78.5 72t-133.5 26h-458v152h448q91 0 156 35t100 103.5t35 168.5v107h191v-95q0 -89 -23 -160t-64.5 -121.5t-97 -79t-119.5 -32.5v-59l-70 61q90 -4 154 -26.5t104.5 -61.5t60 -92t19.5 -118v-12q0 -106 -47 -186.5
t-145.5 -125.5t-252.5 -45zM18 1073v145h1252v-145h-170l-3 4h-857l-2 -4h-220zM-29 1073l13 145h111v-145h-124zM1196 1073v145h118l-13 -145h-105z" />
    <glyph glyph-name="VowelAu.gm" unicode="&#xa14;" horiz-adv-x="1616" 
d="M695 111q20 113 30.5 248.5t10.5 268.5q0 57 -3 124t-10 140l59 -7l-515 -345l-17 180l501 342h154q7 -76 12 -156t7.5 -154t2.5 -134q0 -138 -10.5 -271.5t-27.5 -235.5h-194zM135 296q20 116 30 249.5t10 267.5q0 58 -3 124.5t-9 135.5h-146l-6 145h336
q7 -71 12 -144.5t7.5 -143t2.5 -129.5q0 -138 -10.5 -269.5t-28.5 -235.5h-195zM820 362v194l517 325v-195zM-29 1073l13 145h111v-145h-124zM1528 1073v145h118l-13 -145h-105zM1270 0v1218h317v-145h-128v-1073h-189zM1147 1313q-24 29 -37.5 62t-13.5 71q0 52 28.5 93.5
t82.5 63.5l-6 23q30 26 72.5 39.5t92.5 13.5q130 0 201.5 -60t71.5 -158q0 -44 -13.5 -81t-39.5 -67h-123q11 21 18 45t7 49q0 54 -32.5 84t-88.5 30q-55 0 -88.5 -30.5t-33.5 -83.5q0 -25 7 -49t17 -45h-122zM999 1522q-60 0 -105 23t-70.5 73t-27.5 130l-3 87h113
q4 -63 27 -97t63.5 -47t97.5 -13l272 1l-23 -115l-184 -4l-6 6q-28 -19 -64.5 -31.5t-89.5 -12.5z" />
    <glyph glyph-name="Ka.gm" unicode="&#xa15;" horiz-adv-x="1270" 
d="M21 1072v146h1245v-146h-1245zM955 0l-17 122q-16 114 -44 200t-65 144l-9 29q-21 45 -53.5 87t-73.5 75.5t-90 53t-103 19.5q-108 0 -160.5 -50.5t-52.5 -136.5v-4q0 -84 55 -132.5t158 -48.5q52 0 101 20t92 53.5t76 76.5t52 89l7 34q27 53 49 116.5t38 131.5t22 134
l13 128l201 2l-16 -138q-15 -132 -61 -262.5t-130 -247.5l-22 -33q-31 -58 -74.5 -106.5t-99 -84.5t-123 -55.5t-147.5 -19.5q-181 0 -282.5 90.5t-101.5 251.5v4q0 163 96.5 256.5t274.5 93.5q80 0 146.5 -19t121 -54t99 -82t80.5 -104l24 -30q52 -60 91.5 -131t66.5 -157
t41 -192l16 -123h-196zM-29 1073l13 145h111v-145h-124zM1181 1073v145h118l-13 -145h-105z" />
    <glyph glyph-name="Kha.gm" unicode="&#xa16;" horiz-adv-x="1284" 
d="M630 182q-172 0 -307 54t-222 155q26 62 45 140t29 170.5t10 194.5q0 43 -1.5 87.5t-4.5 89.5h-145v145h333q7 -75 10 -145.5t3 -135.5q0 -110 -8 -202.5t-24 -168.5t-40 -137l-22 50q35 -38 88.5 -68t121 -47t142.5 -17q89 0 170 22.5t136 62.5l6 -60h-17l-44 -140
q-48 -23 -117 -36.5t-142 -13.5zM264 689v162l769 1v-163h-769zM1196 1073v145h118l-13 -145h-105zM938 0v1218h317v-145h-128v-1073h-189zM-29 1073l13 145h111v-145h-124z" />
    <glyph glyph-name="Ga.gm" unicode="&#xa17;" horiz-adv-x="1621" 
d="M577 -26q-154 0 -258.5 59t-157 160.5t-52.5 228.5v18q0 170 95 263.5t297 93.5h353v-160h-331q-115 0 -167 -52.5t-52 -154.5v-15q0 -82 31.5 -144.5t92 -97t148.5 -34.5q96 0 147.5 49.5t51.5 137.5v385l-2 9v380h190v-780q0 -168 -102 -257t-284 -89zM25 1073v145
h1364v-145h-1364zM1533 1073v145h118l-13 -145h-105zM1275 0v1218h317v-145h-128v-1073h-189zM-29 1073l13 145h111v-145h-124z" />
    <glyph glyph-name="Gha.gm" unicode="&#xa18;" horiz-adv-x="1583" 
d="M504 215q-130 0 -233 50t-170 142q30 64 47.5 137t25.5 160t8 192q0 43 -1.5 87.5t-4.5 89.5h-140l-4 145h332q6 -75 9 -145.5t3 -135.5q0 -109 -8.5 -197.5t-25.5 -160t-43 -130.5l-5 42q28 -51 90 -81t144 -30q88 0 145 31.5t88 89.5l57 -104l-82 -3l-39 -135
q-31 -17 -81 -30.5t-112 -13.5zM1047 214q-100 0 -169.5 29.5t-108 80.5t-46.5 113l173 32q20 -40 65.5 -65t117.5 -25q63 0 105 18t63 40l8 -67h-23l-41 -124q-17 -9 -55.5 -20.5t-88.5 -11.5zM904 1204v-308v-151.5t-0.5 -159.5t-0.5 -165l-186 -3q-1 50 -2 111
t-1.5 126.5t-1 127t-0.5 111.5v281zM1495 1073v145h118l-13 -145h-105zM1237 0v1218h317v-145h-128v-1073h-189zM-29 1073l13 145h111v-145h-124z" />
    <glyph glyph-name="Nga.gm" unicode="&#xa19;" horiz-adv-x="1231" 
d="M34 1073v145h1160v-146l-902 4l-5 -3h-253zM517 -6q-199 0 -298.5 73t-99.5 198v3q0 59 18.5 108.5t58.5 86t103.5 57t152.5 20.5q108 0 201.5 -29t167 -90.5t122.5 -159.5l-106 -80q-58 95 -148.5 149t-198.5 54q-91 0 -135 -28t-44 -86v-2q0 -38 23.5 -64.5t71.5 -40
t120 -13.5q123 0 198.5 31.5t117.5 79.5l3 43q39 39 61 91t22 116v10q0 99 -59.5 148.5t-184.5 49.5h-517v434h191v-274h364q203 0 300 -91.5t97 -255.5v-26q0 -114 -47 -206.5t-133 -152.5l-13 -24q-65 -52 -163.5 -90.5t-245.5 -38.5zM950 -105l-110 265l118 108l191 -373
h-199zM-29 1073l13 145h111v-145h-124zM1147 1073v145h118l-13 -145h-105z" />
    <glyph glyph-name="Ca.gm" unicode="&#xa1a;" horiz-adv-x="1281" 
d="M679 -25q-172 0 -294 67t-187 193.5t-65 306.5v359l190 33v-395q0 -191 92.5 -295t261.5 -104q134 0 200.5 60t66.5 178v280l-5 7v488h190v-776q0 -199 -113 -300.5t-337 -101.5zM229 575v163h810v-163h-810zM26 1073v145h1214v-145h-1214zM-29 1073l13 145h111v-145
h-124zM1192 1073v145h118l-13 -145h-105z" />
    <glyph glyph-name="Cha.gm" unicode="&#xa1b;" horiz-adv-x="1281" 
d="M653 -26v144h181q76 0 119.5 35t43.5 101v4q0 63 -39 99t-120 36h-337l-131 72v12q-71 2 -125.5 24.5t-85 66.5t-30.5 109q0 101 70 159t196 58h504v259h193v-403h-627q-66 0 -102 -27t-36 -80q0 -38 20 -61.5t53 -34t71 -10.5h387q73 0 132.5 -17t102.5 -51.5t66 -86
t23 -120.5v-5q0 -92 -38.5 -155t-117.5 -95.5t-201 -32.5h-172zM501 -26q-129 0 -213.5 30t-126.5 89.5t-42 146.5v4q0 75 33.5 126t89.5 77.5t122 26.5h198v-81h-100q-74 0 -116 -36t-42 -99v-4q0 -68 45.5 -102t124.5 -34h189v-144h-162zM572 40v429h162v-429h-162z
M41 1073l-3 145h1214v-145h-258l-4 4zM-29 1073l13 145h111v-145h-124zM1192 1073v145h118l-13 -145h-105z" />
    <glyph glyph-name="Ja.gm" unicode="&#xa1c;" horiz-adv-x="1244" 
d="M130 0q17 125 25 267t8 278q0 92 -5.5 180.5t-14.5 164.5l192 32q11 -83 16.5 -182.5t5.5 -200.5q0 -136 -8.5 -277t-24.5 -262h-194zM265 530v163h731v-163h-731zM31 1073v145h981v-145h-981zM1156 1073v145h118l-13 -145h-105zM898 0v1218h317v-145h-128v-1073h-189z
M-29 1073l13 145h111v-145h-124z" />
    <glyph glyph-name="Jha.gm" unicode="&#xa1d;" horiz-adv-x="1227" 
d="M597 44q-73 0 -147 9t-148.5 25t-150.5 38l-14 165q61 -18 117 -31.5t111 -22.5t112 -13.5t120 -4.5q118 0 187.5 18.5t100 57.5t30.5 101v2q0 54 -28.5 94.5t-98.5 62.5t-194 22q-67 0 -124.5 -3.5t-111.5 -10t-110 -15.5t-121 -21l15 158q54 13 122.5 22t132.5 10v23
h218h188v-36q153 -14 230.5 -96.5t77.5 -211.5v-4q0 -170 -120.5 -254t-393.5 -84zM536 -192l-304 307l256 -5l-7 -55q66 -43 152 -107.5t169 -140.5zM472 706q-108 2 -187.5 36.5t-123 97.5t-44.5 149l-2 149h214v-163q0 -78 36.5 -132.5t101 -83.5t147.5 -29zM16 1073v145
h1169v-145h-173l-10 8h-773l-6 -8h-207zM1108 992q-1 -66 -22.5 -120t-65 -93t-109 -60.5t-154.5 -22.5l-141 34q85 0 147.5 27.5t97.5 82.5t35 135v163h214zM-29 1073l13 145h111v-145h-124zM1138 1073v145h118l-13 -145h-105z" />
    <glyph glyph-name="Nya.gm" unicode="&#xa1e;" horiz-adv-x="1239" 
d="M408 343q-149 0 -233 63t-84 191q0 122 84 186t235 64h490v293h189v-447h-659q-67 0 -104 -22.5t-37 -73.5q0 -54 37.5 -75t101.5 -21h625v-158h-645zM915 -29q-142 0 -252 42t-182 137t-103 255l201 -2q15 -103 63.5 -162t124 -83.5t171.5 -24.5q41 0 87.5 5.5
t92.5 16.5l-14 -161q-44 -11 -94.5 -17t-94.5 -6zM353 745q-76 87 -131 195.5t-76 231.5l202 -2q24 -121 72.5 -220.5t117.5 -164.5zM53 1073v145h1135v-145h-183l-14 7h-713l-13 -7h-212zM-29 1073l13 145h111v-145h-124zM1150 1073v145h118l-13 -145h-105z" />
    <glyph glyph-name="Tta.gm" unicode="&#xa1f;" horiz-adv-x="1131" 
d="M655 -19q-173 0 -292.5 57t-180.5 162.5t-61 250.5v174q80 39 170 70.5t185.5 56t193 43t191.5 30.5l-71 -57v374h190v-469q-132 -14 -260 -38t-245 -60t-216 -87l54 67v-131q0 -90 44.5 -152t127 -94t195.5 -32q95 0 190 26.5t163 60.5l-13 -175q-57 -32 -151 -54.5
t-214 -22.5zM25 1073v145h1059v-145h-1059zM-29 1073l13 145h111v-145h-124zM1053 1073v145h118l-13 -145h-105z" />
    <glyph glyph-name="Ttha.gm" unicode="&#xa20;" horiz-adv-x="1249" 
d="M626 -30q-253 0 -384 113.5t-131 325.5v13q0 119 54.5 209.5t168.5 151t293 89.5q183 -30 296.5 -90t166 -150t52.5 -210v-12q0 -213 -131 -326.5t-385 -113.5zM627 135q156 0 239 70.5t83 203.5v11q0 114 -80 187.5t-242 103.5q-156 -31 -239 -104t-83 -187v-12
q0 -133 84 -203t238 -70zM533 782v372h193v-372h-193zM28 1073v145h1187v-145h-1187zM-29 1073l13 145h111v-145h-124zM1161 1073v145h118l-13 -145h-105z" />
    <glyph glyph-name="Dda.gm" unicode="&#xa21;" horiz-adv-x="1191" 
d="M534 -28q-150 0 -248.5 32.5t-147.5 91.5t-49 136v8q0 80 36.5 136.5t112.5 87t193 30.5q116 0 196.5 -18t131.5 -56.5t76.5 -97.5t29.5 -142l-38 -10q-29 55 -79 91.5t-114.5 55t-139.5 18.5t-122.5 -11.5t-70 -33.5t-22.5 -53v-3q0 -31 27 -54t82 -35.5t139 -12.5
q129 0 208 27t115 82t36 138v16q0 75 -29 134t-85 93t-137 34h-431v160h431q118 0 171.5 57t53.5 151v127h196v-122q0 -88 -32.5 -152t-88.5 -99.5t-126 -40.5v-52l-67 53q104 0 179 -44.5t116 -124t41 -183.5v-17q0 -189 -137 -293t-407 -104zM49 1073l-6 145h1137l-5 -145
h-248l-8 3zM-29 1073l13 145h111v-145h-124zM1104 1073v145h118l-13 -145h-105z" />
    <glyph glyph-name="Ddha.gm" unicode="&#xa22;" horiz-adv-x="1230" 
d="M733 -32q-187 0 -322.5 68t-209 201.5t-73.5 329.5v370l193 33v-427q0 -140 48 -232.5t140 -138.5t222 -46q106 0 159.5 27.5t53.5 76.5v3q0 50 -48.5 77.5t-149.5 27.5q-70 0 -130 -19t-102 -59.5t-60 -105.5l-53 32q12 109 57 177.5t130.5 100.5t219.5 32
q113 0 185.5 -31t107 -89.5t34.5 -140.5v-6q0 -120 -101 -190.5t-301 -70.5zM226 656v156h649v341h192v-497h-841zM35 1073v145h1157v-145h-1157zM-29 1073l13 145h111v-145h-124zM1141 1073v145h118l-13 -145h-105z" />
    <glyph glyph-name="Nna.gm" unicode="&#xa23;" horiz-adv-x="1180" 
d="M673 -27q-185 0 -312 48t-191.5 137.5t-64.5 215.5v102q78 22 160 40.5t168 34t174 27.5v166l188 -4v-297q-96 -9 -190.5 -23.5t-187.5 -34t-185 -44.5l63 84v-58q0 -73 44.5 -124t132.5 -78t219 -27q101 0 204 23.5t186 65.5l-13 -177q-70 -36 -174.5 -56.5
t-220.5 -20.5zM947 646q-194 0 -333 30.5t-228 88.5t-131.5 140.5t-42.5 186.5v68h202v-74q0 -98 54 -161t172 -93.5t308 -30.5h113v-155h-114zM16 1073v145h1128l-4 -145h-1124zM-29 1073l13 145h111v-145h-124zM1092 1073v145h118l-13 -145h-105z" />
    <glyph glyph-name="Ta.gm" unicode="&#xa24;" horiz-adv-x="1107" 
d="M41 1073v145h1030v-145h-1030zM501 -17q-77 0 -151.5 10t-140 28.5t-116.5 42.5l-13 184q62 -29 129.5 -51t138 -34t140.5 -12q158 0 237 52.5t79 152.5v13q0 63 -27 107.5t-80 68t-131 23.5h-396v169h388q84 0 132.5 30.5t69.5 84t21 123.5v173h198v-179q0 -98 -29 -166
t-83 -105t-129 -42v-50l-39 50q142 -10 221 -87.5t79 -218.5v-12q0 -172 -123 -263.5t-375 -91.5zM-29 1073l13 145h111v-145h-124zM1021 1073v145h118l-13 -145h-105z" />
    <glyph glyph-name="Tha.gm" unicode="&#xa25;" horiz-adv-x="1304" 
d="M282 649l-5 159h774v-159h-769zM222 1073v145h892v-145h-53l-9 9h-761l-8 -9h-61zM630 182q-172 0 -307 54t-222 155q26 62 45 140t29 170.5t10 194.5q0 43 -1.5 87.5t-4.5 89.5h-145v145h333q7 -75 10 -145.5t3 -135.5q0 -110 -8 -202.5t-24 -168.5t-40 -137l-22 50
q35 -38 88.5 -68t121 -47t142.5 -17q95 0 183 22.5t143 62.5l6 -60h-17l-44 -140q-52 -23 -126.5 -36.5t-152.5 -13.5zM1216 1073v145h118l-13 -145h-105zM958 0v1218h317v-145h-128v-1073h-189zM-29 1073l13 145h111v-145h-124z" />
    <glyph glyph-name="Da.gm" unicode="&#xa26;" horiz-adv-x="1203" 
d="M728 -23q-294 0 -444 135.5t-150 404.5v362l191 32v-264l2 -14v-135q0 -177 106 -265t309 -88q101 0 197 27.5t164 65.5l-13 -180q-44 -26 -100.5 -44.5t-122.5 -27.5t-139 -9zM235 547v158h635v447h189v-605h-824zM21 1073v145h1150v-145h-1150zM-29 1073l13 145h111
v-145h-124zM1115 1073v145h118l-13 -145h-105z" />
    <glyph glyph-name="Dha.gm" unicode="&#xa27;" horiz-adv-x="1254" 
d="M226 1073l-4 145h845v-145h-841zM620 182q-169 0 -301 54t-218 155q26 62 45 140t29 170.5t10 194.5q0 43 -1.5 87.5t-4.5 89.5h-145v145h333q7 -75 10 -145.5t3 -135.5q0 -110 -8 -202.5t-24 -168.5t-40 -137l-22 50q34 -38 86 -68t117.5 -47t138.5 -17q84 0 158.5 22
t129.5 60l6 -60h-17l-44 -140q-48 -22 -110.5 -34.5t-130.5 -12.5zM1166 1073v145h118l-13 -145h-105zM908 0v1218h317v-145h-128v-1073h-189zM-29 1073l13 145h111v-145h-124z" />
    <glyph glyph-name="Na.gm" unicode="&#xa28;" horiz-adv-x="1235" 
d="M224 0q-57 68 -86 158.5t-29 198.5v4q0 135 58.5 235t172.5 167t281 102q166 -35 280 -102t172.5 -167t58.5 -235v-5q0 -104 -29.5 -194.5t-86.5 -161.5h-217l4 11q66 75 100 162.5t34 182.5v6q0 91 -38 156.5t-109 111t-169 75.5q-100 -30 -171 -75.5t-108.5 -111
t-37.5 -156.5v-6q0 -97 34 -184.5t100 -161.5l3 -10h-217zM527 766v375h191v-375h-191zM39 1073v145h1159v-145h-1159zM-29 1073l13 145h111v-145h-124zM1146 1073v145h118l-13 -145h-105z" />
    <glyph glyph-name="Pa.gm" unicode="&#xa2a;" horiz-adv-x="1248" 
d="M610 190q-166 0 -295.5 54t-213.5 155q26 62 45 139t29 167.5t10 190.5q0 43 -1.5 87.5t-4.5 89.5h-145v145h333q7 -75 10 -145.5t3 -135.5q0 -110 -8 -202.5t-24 -168.5t-40 -137l-22 58q33 -38 83.5 -68t114 -47t134.5 -17q84 0 158.5 22t129.5 60l6 -60h-17l-44 -140
q-48 -22 -110.5 -34.5t-130.5 -12.5zM1160 1073v145h118l-13 -145h-105zM902 0v1218h317v-145h-128v-1073h-189zM-29 1073l13 145h111v-145h-124z" />
    <glyph glyph-name="Pha.gm" unicode="&#xa2b;" horiz-adv-x="1196" 
d="M689 -28q-174 0 -304.5 58t-202.5 169.5t-72 273.5v15q0 181 102.5 283.5t291.5 102.5h335v279h190v-434h-472q-122 0 -187 -59t-65 -177v-9q0 -85 26.5 -149t76.5 -107.5t121.5 -65.5t160.5 -22q122 0 176 29t54 84v4q0 59 -49 84.5t-149 25.5q-113 0 -191.5 -48.5
t-107.5 -143.5l-53 40q7 102 49.5 171t129 104t225.5 35q173 0 255 -73t82 -193v-7q0 -126 -104.5 -198t-317.5 -72zM41 1073v145h1144v-145h-275l-6 3zM-29 1073l13 145h111v-145h-124zM1112 1073v145h118l-13 -145h-105z" />
    <glyph glyph-name="Ba.gm" unicode="&#xa2c;" horiz-adv-x="1299" 
d="M614 135q-155 0 -266 49t-170.5 140t-59.5 217v99q85 26 183.5 49t192.5 41v5q122 25 258 46.5t267 34.5v-159q-129 -17 -260 -38t-253.5 -46.5t-228.5 -56.5l35 69v-56q0 -69 38 -120.5t115 -80t192 -28.5q91 0 168.5 20t132.5 55l9 -60h-20l-39 -127q-55 -25 -130 -39
t-164 -14zM614 726q-128 2 -218.5 24t-147 62.5t-83 97t-26.5 127.5v114h213v-131q0 -59 25 -105t73 -78t117 -49t157 -17zM38 1073l-4 145h1037l3 -145h-30l-17 8h-764l-11 -8h-214zM1211 1073v145h118l-13 -145h-105zM953 0v1218h317v-145h-128v-1073h-189zM-29 1073
l13 145h111v-145h-124z" />
    <glyph glyph-name="Bha.gm" unicode="&#xa2d;" horiz-adv-x="1172" 
d="M521 -22q-124 0 -232 21.5t-190 55.5l-13 176q88 -41 195.5 -64.5t223.5 -23.5q185 0 273.5 65t88.5 189v5q0 63 -24.5 110.5t-55.5 77.5v27q-35 46 -82.5 77.5t-104 48t-119.5 16.5q-82 0 -131.5 -28.5t-49.5 -90.5v-2q0 -60 49.5 -87.5t131.5 -27.5q69 0 126 17.5
t100 51.5t69 82l19 34q17 32 31.5 77t24 102t9.5 125v133h200v-141q0 -94 -24 -171t-58.5 -134t-64.5 -90l-12 -32l-26 -9q-48 -88 -160 -142.5t-252 -54.5q-166 0 -256 70.5t-90 197.5v6q0 128 90 198t253 70q96 0 176.5 -29t140 -74t90.5 -94l40 -37q48 -29 83 -75
t54 -104.5t19 -127.5v-6q0 -188 -135.5 -288t-406.5 -100zM53 1073v145h1100v-145h-1100zM-29 1073l13 145h111v-145h-124zM1083 1073v145h118l-13 -145h-105z" />
    <glyph glyph-name="Ma.gm" unicode="&#xa2e;" horiz-adv-x="1204" 
d="M137 87q20 115 29.5 242t9.5 251q0 113 -6 238t-19 254h-116l-1 146h294q21 -164 31 -329.5t10 -317.5q0 -126 -9 -249.5t-26 -234.5h-197zM262 412v164h686v-164h-686zM1116 1073v145h118l-13 -145h-105zM858 0v1218h317v-145h-128v-1073h-189zM-29 1073l13 145h111
v-145h-124z" />
    <glyph glyph-name="Ya.gm" unicode="&#xa2f;" horiz-adv-x="1545" 
d="M576 153q-329 0 -472 208q40 98 61 232t21 302q0 51 -2.5 110t-8.5 126h195q5 -67 7 -126t2 -110q0 -154 -18 -276t-51 -210q88 -97 258 -97q47 0 91 8.5t80 22.5l-56 -58v494h607v-159h-420v-416q-61 -25 -136.5 -38t-157.5 -13zM34 1073v145h1229v-145h-1229z
M1457 1073v145h118l-13 -145h-105zM1199 0v1218h317v-145h-128v-1073h-189zM-29 1073l13 145h111v-145h-124z" />
    <glyph glyph-name="Ra.gm" unicode="&#xa30;" horiz-adv-x="1241" 
d="M642 -25q-170 0 -288.5 60.5t-179.5 162.5t-61 226v12q0 170 100.5 267.5t302.5 97.5h475v-158h-452q-117 0 -173.5 -54t-56.5 -155v-11q0 -84 40.5 -149.5t115.5 -102.5t178 -37q134 0 196.5 60t62.5 172v344l-2 19v371h190v-738q0 -187 -113.5 -287t-334.5 -100z
M36 1073v145h1168v-145h-1168zM-29 1073l13 145h111v-145h-124zM1153 1073v145h118l-13 -145h-105z" />
    <glyph glyph-name="La.gm" unicode="&#xa32;" horiz-adv-x="1408" 
d="M708 387q-90 54 -169 129.5t-142 170t-106 205t-61 233.5l-4 25h194l7 -43q32 -166 102.5 -297t178.5 -226q67 65 120 144t92.5 173.5t63.5 205.5l8 43h194l-4 -25q-19 -123 -64 -233.5t-109.5 -204.5t-141 -170t-159.5 -130zM231 0q-59 74 -88.5 162t-29.5 201v8
q0 164 74.5 276.5t217.5 161.5l62 -158q-76 -39 -118 -112.5t-42 -177.5v-8q0 -69 14 -128.5t42 -113.5t69 -105l-9 -6h-192zM1176 0h-193l-8 6q42 50 69.5 102t41.5 112.5t14 132.5v9q0 102 -42 176t-121 113l63 158q145 -50 219.5 -162.5t74.5 -278.5v-12
q0 -109 -29.5 -197t-88.5 -159zM26 1073v145h1338v-145h-1338zM-29 1073l13 145h111v-145h-124zM1319 1073v145h118l-13 -145h-105z" />
    <glyph glyph-name="Lla.gm" unicode="&#xa33;" horiz-adv-x="1408" 
d="M708 387q-90 54 -169 129.5t-142 170t-106 205t-61 233.5l-4 25h194l7 -43q32 -166 102.5 -297t178.5 -226q67 65 120 144t92.5 173.5t63.5 205.5l8 43h194l-4 -25q-19 -123 -64 -233.5t-109.5 -204.5t-141 -170t-159.5 -130zM231 0q-59 74 -88.5 162t-29.5 201v8
q0 164 74.5 276.5t217.5 161.5l62 -158q-76 -39 -118 -112.5t-42 -177.5v-8q0 -69 14 -128.5t42 -113.5t69 -105l-9 -6h-192zM1176 0h-193l-8 6q42 50 69.5 102t41.5 112.5t14 132.5v9q0 102 -42 176t-121 113l63 158q145 -50 219.5 -162.5t74.5 -278.5v-12
q0 -109 -29.5 -197t-88.5 -159zM26 1073v145h1338v-145h-1338zM-29 1073l13 145h111v-145h-124zM1319 1073v145h118l-13 -145h-105zM174 -294q-52 0 -79 29.5t-27 81.5v11q0 53 27 81.5t79 28.5q54 0 81 -28.5t27 -81.5v-11q0 -52 -27 -81.5t-81 -29.5z" />
    <glyph glyph-name="Va.gm" unicode="&#xa35;" horiz-adv-x="1223" 
d="M407 354q-155 1 -239 66.5t-84 191.5t83.5 190t239.5 64h486v279h191v-433h-656q-72 0 -109 -23.5t-37 -76.5q0 -51 36.5 -75t107.5 -25h621v-158h-640zM904 -29q-139 0 -246.5 42t-178.5 137.5t-102 255.5h201q15 -104 62.5 -163.5t121 -84.5t166.5 -25q44 0 89.5 6
t89.5 16l-13 -161q-44 -10 -90.5 -16.5t-99.5 -6.5zM52 1073v145h1148v-145h-233l-14 4zM-29 1073l13 145h111v-145h-124zM1134 1073v145h118l-13 -145h-105z" />
    <glyph glyph-name="Sha.gm" unicode="&#xa36;" horiz-adv-x="1226" 
d="M137 87q20 115 29.5 242t9.5 251q0 113 -6 236t-20 256h-133l-1 146h312q20 -163 30.5 -329t10.5 -318q0 -126 -9 -249.5t-26 -234.5h-197zM289 409v164h701v-164h-701zM888 0v485l-2 19v714h293v-145h-104v-1073h-187zM231 1073l-3 145h750l5 -145h-752zM625 37
q-54 0 -82 30.5t-28 85.5v12q0 56 28 86.5t82 30.5q56 0 84 -30.5t28 -86.5v-12q0 -55 -28 -85.5t-84 -30.5zM1138 1073v145h118l-13 -145h-105zM-29 1073l13 145h111v-145h-124z" />
    <glyph glyph-name="Sa.gm" unicode="&#xa38;" horiz-adv-x="1217" 
d="M137 87q20 116 29.5 242.5t9.5 250.5q0 113 -7 238t-21 254h-113l-1 146h292q22 -164 32.5 -329.5t10.5 -317.5q0 -126 -9 -249t-26 -235h-197zM274 407v164h681v-164h-681zM160 1073v145h872v-145h-872zM-29 1073l13 145h111v-145h-124zM1129 1073v145h118l-13 -145
h-105zM871 0v1218h317v-145h-128v-1073h-189z" />
    <glyph glyph-name="Ha.gm" unicode="&#xa39;" horiz-adv-x="1230" 
d="M635 -25q-173 0 -290.5 61t-177 164t-59.5 228v15q0 173 99.5 264t291.5 91h183l-27 -159h-133q-109 0 -164 -52.5t-55 -151.5v-12q0 -81 42 -145t116.5 -101t173.5 -37q133 0 193.5 63t60.5 177v770h189v-774q0 -191 -111.5 -296t-331.5 -105zM30 1073v145h1161v-145
h-1161zM-29 1073l13 145h111v-145h-124zM1141 1073v145h118l-13 -145h-105z" />
    <glyph glyph-name="Khha.gm" unicode="&#xa59;" horiz-adv-x="1284" 
d="M630 182q-172 0 -307 54t-222 155q26 62 45 140t29 170.5t10 194.5q0 43 -1.5 87.5t-4.5 89.5h-145v145h333q7 -75 10 -145.5t3 -135.5q0 -110 -8 -202.5t-24 -168.5t-40 -137l-22 50q35 -38 88.5 -68t121 -47t142.5 -17q89 0 170 22.5t136 62.5l6 -60h-17l-44 -140
q-48 -23 -117 -36.5t-142 -13.5zM264 689v162l769 1v-163h-769zM1196 1073v145h118l-13 -145h-105zM938 0v1218h317v-145h-128v-1073h-189zM-29 1073l13 145h111v-145h-124zM275 -121q-52 0 -79 29.5t-27 81.5v11q0 53 27 81.5t79 28.5q54 0 81 -28.5t27 -81.5v-11
q0 -52 -27 -81.5t-81 -29.5z" />
    <glyph glyph-name="Ghha.gm" unicode="&#xa5a;" horiz-adv-x="1621" 
d="M577 -26q-154 0 -258.5 59t-157 160.5t-52.5 228.5v18q0 170 95 263.5t297 93.5h353v-160h-331q-115 0 -167 -52.5t-52 -154.5v-15q0 -82 31.5 -144.5t92 -97t148.5 -34.5q96 0 147.5 49.5t51.5 137.5v385l-2 9v380h190v-780q0 -168 -102 -257t-284 -89zM25 1073v145
h1364v-145h-1364zM1533 1073v145h118l-13 -145h-105zM1275 0v1218h317v-145h-128v-1073h-189zM-29 1073l13 145h111v-145h-124zM209 -286q-52 0 -79 29.5t-27 81.5v11q0 53 27 81.5t79 28.5q54 0 81 -28.5t27 -81.5v-11q0 -52 -27 -81.5t-81 -29.5z" />
    <glyph glyph-name="Za.gm" unicode="&#xa5b;" horiz-adv-x="1273" 
d="M135 0q16 125 24.5 266t8.5 277q0 92 -5.5 180.5t-14.5 164.5l191 31q11 -83 16.5 -182.5t5.5 -200.5q0 -135 -8.5 -275t-24.5 -261h-193zM260 533v162h758v-162h-758zM26 1073v145h1036v-145h-1036zM650 66q-54 0 -82 30.5t-28 85.5v12q0 56 28 86.5t82 30.5
q56 0 84 -30.5t28 -86.5v-12q0 -55 -28 -85.5t-84 -30.5zM1185 1073v145h118l-13 -145h-105zM927 0v1218h317v-145h-128v-1073h-189zM-29 1073l13 145h111v-145h-124z" />
    <glyph glyph-name="Rra.gm" unicode="&#xa5c;" horiz-adv-x="1081" 
d="M487 38q-124 0 -226.5 26.5t-174.5 60.5l-13 154q51 -25 114.5 -44t133.5 -30t140 -11q111 0 180 23t101.5 67t32.5 107v11q0 56 -23.5 98.5t-74 67t-132.5 24.5h-400v162h392q78 0 126 32.5t69.5 88.5t21.5 127v146h197v-156q0 -135 -69 -222t-196 -89v-51l-46 50
q113 -1 185.5 -37t108 -100t35.5 -149v-26q0 -152 -115.5 -241t-366.5 -89zM295 -187l-209 312l181 6l236 -318h-208zM857 -187l-232 303l185 26l255 -329h-208zM28 1073v145h1023l3 -145h-1026zM-29 1073l13 145h111v-145h-124zM995 1073v145h118l-13 -145h-105z" />
    <glyph glyph-name="Fa.gm" unicode="&#xa5e;" horiz-adv-x="1196" 
d="M689 -28q-174 0 -304.5 58t-202.5 169.5t-72 273.5v15q0 181 102.5 283.5t291.5 102.5h335v279h190v-434h-472q-122 0 -187 -59t-65 -177v-9q0 -85 26.5 -149t76.5 -107.5t121.5 -65.5t160.5 -22q122 0 176 29t54 84v4q0 59 -49 84.5t-149 25.5q-113 0 -191.5 -48.5
t-107.5 -143.5l-53 40q7 102 49.5 171t129 104t225.5 35q173 0 255 -73t82 -193v-7q0 -126 -104.5 -198t-317.5 -72zM41 1073v145h1144v-145h-275l-6 3zM-29 1073l13 145h111v-145h-124zM1112 1073v145h118l-13 -145h-105zM188 -256q-52 0 -79 29.5t-27 81.5v11
q0 53 27 81.5t79 28.5q54 0 81 -28.5t27 -81.5v-11q0 -52 -27 -81.5t-81 -29.5z" />
    <glyph glyph-name="Iri.gm" unicode="&#xa72;" horiz-adv-x="1182" 
d="M688 -24q-179 0 -304 55t-189.5 157t-64.5 242v119q89 35 180.5 62.5t200.5 49.5l15 6q72 11 155 29.5t159 28.5v412h191v-545q-137 -15 -272.5 -39.5t-260 -57t-229.5 -73.5l53 76v-86q0 -85 48 -145t133.5 -91.5t197.5 -31.5q107 0 206.5 27t170.5 64l-14 -181
q-58 -31 -153 -54.5t-223 -23.5zM481 645v13q-109 8 -186.5 45.5t-118.5 106t-41 168.5v162h197v-142q0 -97 45.5 -163t130 -99.5t202.5 -33.5l-136 -57h-93zM27 1073v145h1135v-145h-215l-13 8h-683l-13 -8h-211zM-29 1073l13 145h111v-145h-124zM1094 1073v145h118
l-13 -145h-105z" />
    <glyph glyph-name="Ura.gm" unicode="&#xa73;" horiz-adv-x="1272" 
d="M687 -27q-283 0 -417.5 153t-134.5 447v573q0 188 64 311.5t183 185t282 61.5q157 0 270 -49t174 -139t61 -214v-42l-142 -39v-6l-47 -13v67q0 85 -36 145t-106 92t-173 32q-110 0 -186 -39.5t-115.5 -123.5t-39.5 -217v-587q0 -144 36.5 -240.5t115 -144.5t204.5 -48
q134 0 194.5 56t60.5 157v4q0 63 -26.5 108.5t-79.5 70t-134 24.5h-455v166h446q91 0 156 33t100 99t35 164v124h190v-113q0 -89 -21.5 -160.5t-63 -122.5t-102 -78t-137.5 -27v-62l-69 62q95 0 162.5 -22.5t110.5 -64t63.5 -97t20.5 -121.5v-3q0 -114 -49 -195t-147.5 -124
t-247.5 -43zM28 1073v145h1230v-145h-174l-11 3h-827l-10 -3h-208zM-29 1073l13 145h111v-145h-124zM1186 1073v145h118l-13 -145h-105z" />
    <glyph glyph-name="EkOnkar.gm" unicode="&#xa74;" horiz-adv-x="2309" 
d="M1708 -26q-135 0 -238 36.5t-172.5 110.5t-105 187t-35.5 266v535q0 201 69.5 332t202.5 195t324 64q79 0 152.5 -12t134.5 -32l11 -159q-65 19 -133.5 29t-139.5 10q-146 0 -241.5 -44.5t-142.5 -142.5t-47 -257v-519q0 -117 22.5 -200.5t66.5 -136.5t111 -78.5
t155 -25.5q138 0 195.5 59.5t57.5 154.5v10q0 61 -26 107t-78.5 72t-133.5 26h-458v152h448q91 0 156 35t100 103.5t35 168.5v107h191v-95q0 -89 -23 -160t-64.5 -121.5t-97 -79t-119.5 -32.5v-59l-70 61q90 -4 154 -26.5t104.5 -61.5t60 -92t19.5 -118v-12
q0 -106 -47 -186.5t-145.5 -125.5t-252.5 -45zM1244 1073l4 145h1019v-145h-165l-9 3h-806l-8 -3h-35zM2051 1497l-177 74v18q0 138 58.5 235.5t167.5 149.5t259 52q51 0 108 -8.5t109 -23.5l12 -161q-46 14 -97.5 21t-98.5 7q-112 0 -188 -37.5t-114.5 -108t-38.5 -168.5
v-50zM2220 1073v145h118l-13 -145h-105zM770 0v849q0 109 -63 169.5t-181 60.5t-178 -60t-60 -176v-6q0 -106 61.5 -162.5t178.5 -56.5q93 0 154.5 25t89.5 50l10 -41h-16l-46 -155q-34 -13 -72 -22t-78.5 -13.5t-82.5 -4.5q-124 0 -212.5 41.5t-135 125t-46.5 209.5v2
q0 194 112.5 299.5t320.5 105.5q138 0 235.5 -47.5t148.5 -137t51 -216.5v-839h-191z" />
    <glyph glyph-name="Visarga.gm" unicode="&#xa03;" horiz-adv-x="587" 
d="M292 678q-55 0 -83.5 31t-28.5 86v12q0 56 28.5 86.5t83.5 30.5q57 0 86 -30.5t29 -86.5v-12q0 -55 -29 -86t-86 -31zM292 108q-55 0 -83.5 31t-28.5 86v12q0 56 28.5 86.5t83.5 30.5q57 0 86 -30.5t29 -86.5v-12q0 -55 -29 -86t-86 -31z" />
    <glyph glyph-name="AddhaMa.gm" horiz-adv-x="1155" 
d="M59 438v157h812v-157h-812zM1067 1073v145h118l-13 -145h-105zM809 0v1218h317v-145h-128v-1073h-189z" />
    <glyph glyph-name="AddhaTha.gm" horiz-adv-x="1148" 
d="M448 204q-101 0 -202.5 16t-191.5 47v161q89 -31 191 -48t203 -17q104 0 205 16.5t189 47.5v-159q-88 -31 -189 -47.5t-205 -16.5zM27 1073v145h892v-145h-892zM1060 1073v145h118l-13 -145h-105zM802 0v1218h317v-145h-128v-1073h-189zM-29 1073l13 145h111v-145h-124z
" />
    <glyph glyph-name="AddhaYa.gm" horiz-adv-x="1316" 
d="M368 154q-88 0 -170.5 15.5t-150.5 46.5v162q63 -33 141 -49t160 -16q54 0 102 7t81 20l-55 -49v486h568v-160h-384v-413q-58 -24 -134.5 -37t-157.5 -13zM8 1073v145h1098v-145h-1098zM1228 1073v145h118l-13 -145h-105zM970 0v1218h317v-145h-128v-1073h-189zM-29 1073
l13 145h111v-145h-124z" />
    <glyph glyph-name="Rha.gm" horiz-adv-x="1101" 
d="M27 1073v145h1052l4 -145h-1056zM308 -189l-224 316l171 6l254 -322h-201zM871 -398q-87 0 -150 26.5t-96.5 74t-33.5 108.5q0 72 46.5 117t123.5 52l66 -99q-40 -4 -64 -22.5t-24 -50.5q0 -25 17.5 -43t47 -28t63.5 -10q49 0 79.5 22t30.5 62q0 24 -10.5 46t-26.5 45
l-158 231l112 91l174 -266q29 -44 42 -81t13 -66q0 -61 -29.5 -108t-85.5 -74t-137 -27zM497 36q-138 0 -243 28t-170 63l-13 155q48 -25 111 -45.5t137 -32t152 -11.5q110 0 180 18.5t103.5 58.5t33.5 103v32q0 54 -22.5 96.5t-73.5 67t-139 24.5h-401v158h393q79 0 127 30
t70 84t22 125v123h197v-131q0 -95 -29.5 -159t-84 -99t-131.5 -43v-49l-26 49q135 -8 213.5 -82t78.5 -206v-40q0 -154 -119 -235.5t-366 -81.5zM-29 1073l13 145h111v-145h-124zM1027 1073v145h118l-13 -145h-105z" />
    <glyph glyph-name="KaVirama.gm" horiz-adv-x="1270" 
d="M21 1072v146h1245v-146h-1245zM955 0l-17 122q-16 114 -44 200t-65 144l-9 29q-21 45 -53.5 87t-73.5 75.5t-90 53t-103 19.5q-108 0 -160.5 -50.5t-52.5 -136.5v-4q0 -84 55 -132.5t158 -48.5q52 0 101 20t92 53.5t76 76.5t52 89l7 34q27 53 49 116.5t38 131.5t22 134
l13 128l201 2l-16 -138q-15 -132 -61 -262.5t-130 -247.5l-22 -33q-31 -58 -74.5 -106.5t-99 -84.5t-123 -55.5t-147.5 -19.5q-181 0 -282.5 90.5t-101.5 251.5v4q0 163 96.5 256.5t274.5 93.5q80 0 146.5 -19t121 -54t99 -82t80.5 -104l24 -30q52 -60 91.5 -131t66.5 -157
t41 -192l16 -123h-196zM-29 1073l13 145h111v-145h-124zM1181 1073v145h118l-13 -145h-105zM1226 -490l-271 356h205l250 -357z" />
    <glyph glyph-name="KaViramaRa.gm" horiz-adv-x="1262" 
d="M591 -323v167h380l-33 -41q5 29 8 71.5t3 92.5v53q0 106 -18 193.5t-43.5 151.5t-47.5 101l-15 51q-31 57 -77 106.5t-106.5 80t-136.5 30.5q-109 0 -162 -44.5t-53 -125.5v-42q0 -82 53 -125t162 -43q55 0 103.5 17.5t89.5 48.5t73.5 71.5t54.5 86.5v52q27 53 49 112.5
t38 127t24 143.5l14 128l200 2l-16 -138q-15 -132 -61 -261t-129 -244l-23 -40q-31 -57 -74.5 -105.5t-99.5 -84t-123.5 -55t-146.5 -19.5q-184 0 -284 84t-100 240v45q0 156 95 241.5t276 85.5q80 0 146 -19t121 -53.5t99 -81t80 -102.5l26 -38q54 -57 100.5 -137t75 -189
t28.5 -253v-57q0 -54 -5 -110.5t-20 -108.5l-100 -66h-425zM1429 -603q-46 36 -107.5 78t-129.5 85t-135 81t-123 65l80 121q62 -31 135.5 -73.5t142 -86.5t116.5 -82zM21 1072v146h1245v-146h-1245zM-29 1073l13 145h111v-145h-124zM1189 1073v145h118l-13 -145h-105z" />
    <glyph glyph-name="NaViramaRa.gm" horiz-adv-x="1235" 
d="M224 0q-57 68 -86 158.5t-29 198.5v4q0 135 58.5 235t172.5 167t281 102q166 -35 280 -102t172.5 -167t58.5 -235v-5q0 -104 -29.5 -194.5t-86.5 -161.5h-195v36q39 47 64.5 98.5t38.5 107.5t13 114v6q0 91 -38 156.5t-109 111t-169 75.5q-100 -30 -171 -75.5
t-108.5 -111t-37.5 -156.5v-6q0 -97 34 -184.5t100 -161.5l3 -10h-217zM527 766v375h191v-375h-191zM39 1073v145h1159v-145h-1159zM1293 -628q-47 35 -109 76t-130.5 83t-135 79t-122.5 64l80 120q76 -36 146 -74.5t133.5 -78.5t117.5 -81zM455 -338v167h380l-45 -54
q15 36 23 86t8 112v35l195 -3v-43q0 -71 -17.5 -131t-49.5 -104l-86 -65h-408zM-29 1073l13 145h111v-145h-124zM1146 1073v145h118l-13 -145h-105z" />
    <glyph glyph-name="KhaVirama.gm" horiz-adv-x="1284" 
d="M630 182q-172 0 -307 54t-222 155q26 62 45 140t29 170.5t10 194.5q0 43 -1.5 87.5t-4.5 89.5h-145v145h333q7 -75 10 -145.5t3 -135.5q0 -110 -8 -202.5t-24 -168.5t-40 -137l-22 50q35 -38 88.5 -68t121 -47t142.5 -17q89 0 170 22.5t136 62.5l6 -60h-17l-44 -140
q-48 -23 -117 -36.5t-142 -13.5zM264 689v162l769 1v-163h-769zM1196 1073v145h118l-13 -145h-105zM938 0v1218h317v-145h-128v-1073h-189zM-29 1073l13 145h111v-145h-124zM1212 -490l-271 356h205l250 -357z" />
    <glyph glyph-name="GaVirama.gm" horiz-adv-x="1621" 
d="M577 -26q-154 0 -258.5 59t-157 160.5t-52.5 228.5v18q0 170 95 263.5t297 93.5h353v-160h-331q-115 0 -167 -52.5t-52 -154.5v-15q0 -82 31.5 -144.5t92 -97t148.5 -34.5q96 0 147.5 49.5t51.5 137.5v385l-2 9v380h190v-780q0 -168 -102 -257t-284 -89zM25 1073v145
h1364v-145h-1364zM1533 1073v145h118l-13 -145h-105zM1275 0v1218h317v-145h-128v-1073h-189zM-29 1073l13 145h111v-145h-124zM1549 -490l-271 356h205l250 -357z" />
    <glyph glyph-name="GhaVirama.gm" horiz-adv-x="1583" 
d="M504 215q-130 0 -233 50t-170 142q30 64 47.5 137t25.5 160t8 192q0 43 -1.5 87.5t-4.5 89.5h-140l-4 145h332q6 -75 9 -145.5t3 -135.5q0 -109 -8.5 -197.5t-25.5 -160t-43 -130.5l-5 42q28 -51 90 -81t144 -30q88 0 145 31.5t88 89.5l57 -104l-82 -3l-39 -135
q-31 -17 -81 -30.5t-112 -13.5zM1047 214q-100 0 -169.5 29.5t-108 80.5t-46.5 113l173 32q20 -40 65.5 -65t117.5 -25q63 0 105 18t63 40l8 -67h-23l-41 -124q-17 -9 -55.5 -20.5t-88.5 -11.5zM904 1204v-308v-151.5t-0.5 -159.5t-0.5 -165l-186 -3q-1 50 -2 111
t-1.5 126.5t-1 127t-0.5 111.5v281zM1495 1073v145h118l-13 -145h-105zM1237 0v1218h317v-145h-128v-1073h-189zM-29 1073l13 145h111v-145h-124zM1511 -490l-271 356h205l250 -357z" />
    <glyph glyph-name="NgaVirama.gm" horiz-adv-x="1231" 
d="M34 1073v145h1160v-146l-902 4l-5 -3h-253zM517 -6q-199 0 -298.5 73t-99.5 198v3q0 59 18.5 108.5t58.5 86t103.5 57t152.5 20.5q108 0 201.5 -29t167 -90.5t122.5 -159.5l-106 -80q-58 95 -148.5 149t-198.5 54q-91 0 -135 -28t-44 -86v-2q0 -38 23.5 -64.5t71.5 -40
t120 -13.5q123 0 198.5 31.5t117.5 79.5l3 43q39 39 61 91t22 116v10q0 99 -59.5 148.5t-184.5 49.5h-517v434h191v-274h364q203 0 300 -91.5t97 -255.5v-26q0 -114 -47 -206.5t-133 -152.5l-13 -24q-65 -52 -163.5 -90.5t-245.5 -38.5zM950 -105l-110 265l118 108l191 -373
h-199zM-29 1073l13 145h111v-145h-124zM1147 1073v145h118l-13 -145h-105zM970 -515l-271 356h205l250 -357z" />
    <glyph glyph-name="CaVirama.gm" horiz-adv-x="1281" 
d="M679 -25q-172 0 -294 67t-187 193.5t-65 306.5v359l190 33v-395q0 -191 92.5 -295t261.5 -104q134 0 200.5 60t66.5 178v280l-5 7v488h190v-776q0 -199 -113 -300.5t-337 -101.5zM229 575v163h810v-163h-810zM26 1073v145h1214v-145h-1214zM-29 1073l13 145h111v-145
h-124zM1192 1073v145h118l-13 -145h-105zM1057 -490l-271 356h205l250 -357z" />
    <glyph glyph-name="ChaVirama.gm" horiz-adv-x="1281" 
d="M653 -26v144h181q76 0 119.5 35t43.5 101v4q0 63 -39 99t-120 36h-337l-131 72v12q-71 2 -125.5 24.5t-85 66.5t-30.5 109q0 101 70 159t196 58h504v259h193v-403h-627q-66 0 -102 -27t-36 -80q0 -38 20 -61.5t53 -34t71 -10.5h387q73 0 132.5 -17t102.5 -51.5t66 -86
t23 -120.5v-5q0 -92 -38.5 -155t-117.5 -95.5t-201 -32.5h-172zM501 -26q-129 0 -213.5 30t-126.5 89.5t-42 146.5v4q0 75 33.5 126t89.5 77.5t122 26.5h198v-81h-100q-74 0 -116 -36t-42 -99v-4q0 -68 45.5 -102t124.5 -34h189v-144h-162zM572 40v429h162v-429h-162z
M41 1073l-3 145h1214v-145h-258l-4 4zM-29 1073l13 145h111v-145h-124zM1192 1073v145h118l-13 -145h-105zM1046 -490l-271 356h205l250 -357z" />
    <glyph glyph-name="JaVirama.gm" horiz-adv-x="1244" 
d="M130 0q17 125 25 267t8 278q0 92 -5.5 180.5t-14.5 164.5l192 32q11 -83 16.5 -182.5t5.5 -200.5q0 -136 -8.5 -277t-24.5 -262h-194zM265 530v163h731v-163h-731zM31 1073v145h981v-145h-981zM1156 1073v145h118l-13 -145h-105zM898 0v1218h317v-145h-128v-1073h-189z
M-29 1073l13 145h111v-145h-124zM1172 -490l-271 356h205l250 -357z" />
    <glyph glyph-name="JhaVirama.gm" horiz-adv-x="1227" 
d="M597 44q-73 0 -147 9t-148.5 25t-150.5 38l-14 165q61 -18 117 -31.5t111 -22.5t112 -13.5t120 -4.5q118 0 187.5 18.5t100 57.5t30.5 101v2q0 54 -28.5 94.5t-98.5 62.5t-194 22q-67 0 -124.5 -3.5t-111.5 -10t-110 -15.5t-121 -21l15 158q54 13 122.5 22t132.5 10v23
h218h188v-36q153 -14 230.5 -96.5t77.5 -211.5v-4q0 -170 -120.5 -254t-393.5 -84zM536 -192l-304 307l256 -5l-7 -55q66 -43 152 -107.5t169 -140.5zM472 706q-108 2 -187.5 36.5t-123 97.5t-44.5 149l-2 149h214v-163q0 -78 36.5 -132.5t101 -83.5t147.5 -29zM16 1073v145
h1169v-145h-173l-10 8h-773l-6 -8h-207zM1108 992q-1 -66 -22.5 -120t-65 -93t-109 -60.5t-154.5 -22.5l-141 34q85 0 147.5 27.5t97.5 82.5t35 135v163h214zM-29 1073l13 145h111v-145h-124zM1138 1073v145h118l-13 -145h-105zM845 -598l-271 356h205l250 -357z" />
    <glyph glyph-name="NyaVirama.gm" horiz-adv-x="1239" 
d="M408 343q-149 0 -233 63t-84 191q0 122 84 186t235 64h490v293h189v-447h-659q-67 0 -104 -22.5t-37 -73.5q0 -54 37.5 -75t101.5 -21h625v-158h-645zM915 -29q-142 0 -252 42t-182 137t-103 255l201 -2q15 -103 63.5 -162t124 -83.5t171.5 -24.5q41 0 87.5 5.5
t92.5 16.5l-14 -161q-44 -11 -94.5 -17t-94.5 -6zM353 745q-76 87 -131 195.5t-76 231.5l202 -2q24 -121 72.5 -220.5t117.5 -164.5zM53 1073v145h1135v-145h-183l-14 7h-713l-13 -7h-212zM-29 1073l13 145h111v-145h-124zM1150 1073v145h118l-13 -145h-105zM1038 -497
l-271 356h205l250 -357z" />
    <glyph glyph-name="TtaVirama.gm" horiz-adv-x="1131" 
d="M655 -19q-173 0 -292.5 57t-180.5 162.5t-61 250.5v174q80 39 170 70.5t185.5 56t193 43t191.5 30.5l-71 -57v374h190v-469q-132 -14 -260 -38t-245 -60t-216 -87l54 67v-131q0 -90 44.5 -152t127 -94t195.5 -32q95 0 190 26.5t163 60.5l-13 -175q-57 -32 -151 -54.5
t-214 -22.5zM25 1073v145h1059v-145h-1059zM-29 1073l13 145h111v-145h-124zM1053 1073v145h118l-13 -145h-105zM981 -490l-271 356h205l250 -357z" />
    <glyph glyph-name="TthaVirama.gm" horiz-adv-x="1249" 
d="M626 -30q-253 0 -384 113.5t-131 325.5v13q0 119 54.5 209.5t168.5 151t293 89.5q183 -30 296.5 -90t166 -150t52.5 -210v-12q0 -213 -131 -326.5t-385 -113.5zM627 135q156 0 239 70.5t83 203.5v11q0 114 -80 187.5t-242 103.5q-156 -31 -239 -104t-83 -187v-12
q0 -133 84 -203t238 -70zM533 782v372h193v-372h-193zM28 1073v145h1187v-145h-1187zM-29 1073l13 145h111v-145h-124zM1161 1073v145h118l-13 -145h-105zM994 -490l-271 356h205l250 -357z" />
    <glyph glyph-name="DdaVirama.gm" horiz-adv-x="1191" 
d="M534 -28q-150 0 -248.5 32.5t-147.5 91.5t-49 136v8q0 80 36.5 136.5t112.5 87t193 30.5q116 0 196.5 -18t131.5 -56.5t76.5 -97.5t29.5 -142l-38 -10q-29 55 -79 91.5t-114.5 55t-139.5 18.5t-122.5 -11.5t-70 -33.5t-22.5 -53v-3q0 -31 27 -54t82 -35.5t139 -12.5
q129 0 208 27t115 82t36 138v16q0 75 -29 134t-85 93t-137 34h-431v160h431q118 0 171.5 57t53.5 151v127h196v-122q0 -88 -32.5 -152t-88.5 -99.5t-126 -40.5v-52l-67 53q104 0 179 -44.5t116 -124t41 -183.5v-17q0 -189 -137 -293t-407 -104zM49 1073l-6 145h1137l-5 -145
h-248l-8 3zM-29 1073l13 145h111v-145h-124zM1104 1073v145h118l-13 -145h-105zM959 -490l-271 356h205l250 -357z" />
    <glyph glyph-name="DdhaVirama.gm" horiz-adv-x="1230" 
d="M733 -32q-187 0 -322.5 68t-209 201.5t-73.5 329.5v370l193 33v-427q0 -140 48 -232.5t140 -138.5t222 -46q106 0 159.5 27.5t53.5 76.5v3q0 50 -48.5 77.5t-149.5 27.5q-70 0 -130 -19t-102 -59.5t-60 -105.5l-53 32q12 109 57 177.5t130.5 100.5t219.5 32
q113 0 185.5 -31t107 -89.5t34.5 -140.5v-6q0 -120 -101 -190.5t-301 -70.5zM226 656v156h649v341h192v-497h-841zM35 1073v145h1157v-145h-1157zM-29 1073l13 145h111v-145h-124zM1141 1073v145h118l-13 -145h-105zM1030 -495l-271 356h205l250 -357z" />
    <glyph glyph-name="NnaVirama.gm" horiz-adv-x="1180" 
d="M673 -27q-185 0 -312 48t-191.5 137.5t-64.5 215.5v102q78 22 160 40.5t168 34t174 27.5v166l188 -4v-297q-96 -9 -190.5 -23.5t-187.5 -34t-185 -44.5l63 84v-58q0 -73 44.5 -124t132.5 -78t219 -27q101 0 204 23.5t186 65.5l-13 -177q-70 -36 -174.5 -56.5
t-220.5 -20.5zM947 646q-194 0 -333 30.5t-228 88.5t-131.5 140.5t-42.5 186.5v68h202v-74q0 -98 54 -161t172 -93.5t308 -30.5h113v-155h-114zM16 1073v145h1128l-4 -145h-1124zM-29 1073l13 145h111v-145h-124zM1092 1073v145h118l-13 -145h-105zM1021 -490l-271 356h205
l250 -357z" />
    <glyph glyph-name="TaVirama.gm" horiz-adv-x="1107" 
d="M41 1073v145h1030v-145h-1030zM501 -17q-77 0 -151.5 10t-140 28.5t-116.5 42.5l-13 184q62 -29 129.5 -51t138 -34t140.5 -12q158 0 237 52.5t79 152.5v13q0 63 -27 107.5t-80 68t-131 23.5h-396v169h388q84 0 132.5 30.5t69.5 84t21 123.5v173h198v-179q0 -98 -29 -166
t-83 -105t-129 -42v-50l-39 50q142 -10 221 -87.5t79 -218.5v-12q0 -172 -123 -263.5t-375 -91.5zM-29 1073l13 145h111v-145h-124zM1021 1073v145h118l-13 -145h-105zM891 -490l-271 356h205l250 -357z" />
    <glyph glyph-name="ThaVirama.gm" horiz-adv-x="1304" 
d="M282 649l-5 159h774v-159h-769zM222 1073v145h892v-145h-53l-9 9h-761l-8 -9h-61zM630 182q-172 0 -307 54t-222 155q26 62 45 140t29 170.5t10 194.5q0 43 -1.5 87.5t-4.5 89.5h-145v145h333q7 -75 10 -145.5t3 -135.5q0 -110 -8 -202.5t-24 -168.5t-40 -137l-22 50
q35 -38 88.5 -68t121 -47t142.5 -17q95 0 183 22.5t143 62.5l6 -60h-17l-44 -140q-52 -23 -126.5 -36.5t-152.5 -13.5zM1216 1073v145h118l-13 -145h-105zM958 0v1218h317v-145h-128v-1073h-189zM-29 1073l13 145h111v-145h-124zM1232 -490l-271 356h205l250 -357z" />
    <glyph glyph-name="DaVirama.gm" horiz-adv-x="1203" 
d="M728 -23q-294 0 -444 135.5t-150 404.5v362l191 32v-264l2 -14v-135q0 -177 106 -265t309 -88q101 0 197 27.5t164 65.5l-13 -180q-44 -26 -100.5 -44.5t-122.5 -27.5t-139 -9zM235 547v158h635v447h189v-605h-824zM21 1073v145h1150v-145h-1150zM-29 1073l13 145h111
v-145h-124zM1115 1073v145h118l-13 -145h-105zM1011 -495l-271 356h205l250 -357z" />
    <glyph glyph-name="DhaVirama.gm" horiz-adv-x="1254" 
d="M226 1073l-4 145h845v-145h-841zM620 182q-169 0 -301 54t-218 155q26 62 45 140t29 170.5t10 194.5q0 43 -1.5 87.5t-4.5 89.5h-145v145h333q7 -75 10 -145.5t3 -135.5q0 -110 -8 -202.5t-24 -168.5t-40 -137l-22 50q34 -38 86 -68t117.5 -47t138.5 -17q84 0 158.5 22
t129.5 60l6 -60h-17l-44 -140q-48 -22 -110.5 -34.5t-130.5 -12.5zM1166 1073v145h118l-13 -145h-105zM908 0v1218h317v-145h-128v-1073h-189zM-29 1073l13 145h111v-145h-124zM1182 -490l-271 356h205l250 -357z" />
    <glyph glyph-name="NaVirama.gm" horiz-adv-x="1235" 
d="M224 0q-57 68 -86 158.5t-29 198.5v4q0 135 58.5 235t172.5 167t281 102q166 -35 280 -102t172.5 -167t58.5 -235v-5q0 -104 -29.5 -194.5t-86.5 -161.5h-217l4 11q66 75 100 162.5t34 182.5v6q0 91 -38 156.5t-109 111t-169 75.5q-100 -30 -171 -75.5t-108.5 -111
t-37.5 -156.5v-6q0 -97 34 -184.5t100 -161.5l3 -10h-217zM527 766v375h191v-375h-191zM39 1073v145h1159v-145h-1159zM-29 1073l13 145h111v-145h-124zM1146 1073v145h118l-13 -145h-105zM1111 -502l-271 356h205l250 -357z" />
    <glyph glyph-name="PaVirama.gm" horiz-adv-x="1248" 
d="M610 190q-166 0 -295.5 54t-213.5 155q26 62 45 139t29 167.5t10 190.5q0 43 -1.5 87.5t-4.5 89.5h-145v145h333q7 -75 10 -145.5t3 -135.5q0 -110 -8 -202.5t-24 -168.5t-40 -137l-22 58q33 -38 83.5 -68t114 -47t134.5 -17q84 0 158.5 22t129.5 60l6 -60h-17l-44 -140
q-48 -22 -110.5 -34.5t-130.5 -12.5zM1160 1073v145h118l-13 -145h-105zM902 0v1218h317v-145h-128v-1073h-189zM-29 1073l13 145h111v-145h-124zM1176 -490l-271 356h205l250 -357z" />
    <glyph glyph-name="PhaVirama.gm" horiz-adv-x="1196" 
d="M689 -28q-174 0 -304.5 58t-202.5 169.5t-72 273.5v15q0 181 102.5 283.5t291.5 102.5h335v279h190v-434h-472q-122 0 -187 -59t-65 -177v-9q0 -85 26.5 -149t76.5 -107.5t121.5 -65.5t160.5 -22q122 0 176 29t54 84v4q0 59 -49 84.5t-149 25.5q-113 0 -191.5 -48.5
t-107.5 -143.5l-53 40q7 102 49.5 171t129 104t225.5 35q173 0 255 -73t82 -193v-7q0 -126 -104.5 -198t-317.5 -72zM41 1073v145h1144v-145h-275l-6 3zM-29 1073l13 145h111v-145h-124zM1112 1073v145h118l-13 -145h-105zM1020 -496l-271 356h205l250 -357z" />
    <glyph glyph-name="BaVirama.gm" horiz-adv-x="1299" 
d="M614 135q-155 0 -266 49t-170.5 140t-59.5 217v99q85 26 183.5 49t192.5 41v5q122 25 258 46.5t267 34.5v-159q-129 -17 -260 -38t-253.5 -46.5t-228.5 -56.5l35 69v-56q0 -69 38 -120.5t115 -80t192 -28.5q91 0 168.5 20t132.5 55l9 -60h-20l-39 -127q-55 -25 -130 -39
t-164 -14zM614 726q-128 2 -218.5 24t-147 62.5t-83 97t-26.5 127.5v114h213v-131q0 -59 25 -105t73 -78t117 -49t157 -17zM38 1073l-4 145h1037l3 -145h-30l-17 8h-764l-11 -8h-214zM1211 1073v145h118l-13 -145h-105zM953 0v1218h317v-145h-128v-1073h-189zM-29 1073
l13 145h111v-145h-124zM1227 -490l-271 356h205l250 -357z" />
    <glyph glyph-name="BhaVirama.gm" horiz-adv-x="1172" 
d="M521 -22q-124 0 -232 21.5t-190 55.5l-13 176q88 -41 195.5 -64.5t223.5 -23.5q185 0 273.5 65t88.5 189v5q0 63 -24.5 110.5t-55.5 77.5v27q-35 46 -82.5 77.5t-104 48t-119.5 16.5q-82 0 -131.5 -28.5t-49.5 -90.5v-2q0 -60 49.5 -87.5t131.5 -27.5q69 0 126 17.5
t100 51.5t69 82l19 34q17 32 31.5 77t24 102t9.5 125v133h200v-141q0 -94 -24 -171t-58.5 -134t-64.5 -90l-12 -32l-26 -9q-48 -88 -160 -142.5t-252 -54.5q-166 0 -256 70.5t-90 197.5v6q0 128 90 198t253 70q96 0 176.5 -29t140 -74t90.5 -94l40 -37q48 -29 83 -75
t54 -104.5t19 -127.5v-6q0 -188 -135.5 -288t-406.5 -100zM53 1073v145h1100v-145h-1100zM-29 1073l13 145h111v-145h-124zM1083 1073v145h118l-13 -145h-105zM954 -490l-271 356h205l250 -357z" />
    <glyph glyph-name="MaVirama.gm" horiz-adv-x="1204" 
d="M137 87q20 115 29.5 242t9.5 251q0 113 -6 238t-19 254h-116l-1 146h294q21 -164 31 -329.5t10 -317.5q0 -126 -9 -249.5t-26 -234.5h-197zM262 412v164h686v-164h-686zM1116 1073v145h118l-13 -145h-105zM858 0v1218h317v-145h-128v-1073h-189zM-29 1073l13 145h111
v-145h-124zM1132 -490l-271 356h205l250 -357z" />
    <glyph glyph-name="YaVirama.gm" horiz-adv-x="1545" 
d="M576 153q-329 0 -472 208q40 98 61 232t21 302q0 51 -2.5 110t-8.5 126h195q5 -67 7 -126t2 -110q0 -154 -18 -276t-51 -210q88 -97 258 -97q47 0 91 8.5t80 22.5l-56 -58v494h607v-159h-420v-416q-61 -25 -136.5 -38t-157.5 -13zM34 1073v145h1229v-145h-1229z
M1457 1073v145h118l-13 -145h-105zM1199 0v1218h317v-145h-128v-1073h-189zM-29 1073l13 145h111v-145h-124zM1473 -490l-271 356h205l250 -357z" />
    <glyph glyph-name="RaVirama.gm" horiz-adv-x="1241" 
d="M642 -25q-170 0 -288.5 60.5t-179.5 162.5t-61 226v12q0 170 100.5 267.5t302.5 97.5h475v-158h-452q-117 0 -173.5 -54t-56.5 -155v-11q0 -84 40.5 -149.5t115.5 -102.5t178 -37q134 0 196.5 60t62.5 172v344l-2 19v371h190v-738q0 -187 -113.5 -287t-334.5 -100z
M36 1073v145h1168v-145h-1168zM-29 1073l13 145h111v-145h-124zM1153 1073v145h118l-13 -145h-105zM1010 -490l-271 356h205l250 -357z" />
    <glyph glyph-name="LaVirama.gm" horiz-adv-x="1408" 
d="M708 387q-90 54 -169 129.5t-142 170t-106 205t-61 233.5l-4 25h194l7 -43q32 -166 102.5 -297t178.5 -226q67 65 120 144t92.5 173.5t63.5 205.5l8 43h194l-4 -25q-19 -123 -64 -233.5t-109.5 -204.5t-141 -170t-159.5 -130zM231 0q-59 74 -88.5 162t-29.5 201v8
q0 164 74.5 276.5t217.5 161.5l62 -158q-76 -39 -118 -112.5t-42 -177.5v-8q0 -69 14 -128.5t42 -113.5t69 -105l-9 -6h-192zM1176 0h-193l-8 6q42 50 69.5 102t41.5 112.5t14 132.5v9q0 102 -42 176t-121 113l63 158q145 -50 219.5 -162.5t74.5 -278.5v-12
q0 -109 -29.5 -197t-88.5 -159zM26 1073v145h1338v-145h-1338zM-29 1073l13 145h111v-145h-124zM1319 1073v145h118l-13 -145h-105zM1285 -490l-271 356h205l250 -357z" />
    <glyph glyph-name="LlaVirama.gm" horiz-adv-x="1408" 
d="M708 387q-90 54 -169 129.5t-142 170t-106 205t-61 233.5l-4 25h194l7 -43q32 -166 102.5 -297t178.5 -226q67 65 120 144t92.5 173.5t63.5 205.5l8 43h194l-4 -25q-19 -123 -64 -233.5t-109.5 -204.5t-141 -170t-159.5 -130zM231 0q-59 74 -88.5 162t-29.5 201v8
q0 164 74.5 276.5t217.5 161.5l62 -158q-76 -39 -118 -112.5t-42 -177.5v-8q0 -69 14 -128.5t42 -113.5t69 -105l-9 -6h-192zM1176 0h-193l-8 6q42 50 69.5 102t41.5 112.5t14 132.5v9q0 102 -42 176t-121 113l63 158q145 -50 219.5 -162.5t74.5 -278.5v-12
q0 -109 -29.5 -197t-88.5 -159zM26 1073v145h1338v-145h-1338zM-29 1073l13 145h111v-145h-124zM1319 1073v145h118l-13 -145h-105zM174 -294q-52 0 -79 29.5t-27 81.5v11q0 53 27 81.5t79 28.5q54 0 81 -28.5t27 -81.5v-11q0 -52 -27 -81.5t-81 -29.5zM1248 -490l-271 356
h205l250 -357z" />
    <glyph glyph-name="VaVirama.gm" horiz-adv-x="1223" 
d="M407 354q-155 1 -239 66.5t-84 191.5t83.5 190t239.5 64h486v279h191v-433h-656q-72 0 -109 -23.5t-37 -76.5q0 -51 36.5 -75t107.5 -25h621v-158h-640zM904 -29q-139 0 -246.5 42t-178.5 137.5t-102 255.5h201q15 -104 62.5 -163.5t121 -84.5t166.5 -25q44 0 89.5 6
t89.5 16l-13 -161q-44 -10 -90.5 -16.5t-99.5 -6.5zM52 1073v145h1148v-145h-233l-14 4zM-29 1073l13 145h111v-145h-124zM1134 1073v145h118l-13 -145h-105zM1018 -496l-271 356h205l250 -357z" />
    <glyph glyph-name="ShaVirama.gm" horiz-adv-x="1226" 
d="M137 87q20 115 29.5 242t9.5 251q0 113 -6 236t-20 256h-133l-1 146h312q20 -163 30.5 -329t10.5 -318q0 -126 -9 -249.5t-26 -234.5h-197zM289 409v164h701v-164h-701zM888 0v485l-2 19v714h293v-145h-104v-1073h-187zM231 1073l-3 145h750l5 -145h-752zM625 37
q-54 0 -82 30.5t-28 85.5v12q0 56 28 86.5t82 30.5q56 0 84 -30.5t28 -86.5v-12q0 -55 -28 -85.5t-84 -30.5zM1138 1073v145h118l-13 -145h-105zM-29 1073l13 145h111v-145h-124zM1160 -490l-271 356h205l250 -357z" />
    <glyph glyph-name="SaVirama.gm" horiz-adv-x="1217" 
d="M137 87q20 116 29.5 242.5t9.5 250.5q0 113 -7 238t-21 254h-113l-1 146h292q22 -164 32.5 -329.5t10.5 -317.5q0 -126 -9 -249t-26 -235h-197zM274 407v164h681v-164h-681zM160 1073v145h872v-145h-872zM-29 1073l13 145h111v-145h-124zM1129 1073v145h118l-13 -145
h-105zM871 0v1218h317v-145h-128v-1073h-189zM1145 -490l-271 356h205l250 -357z" />
    <glyph glyph-name="HaVirama.gm" horiz-adv-x="1230" 
d="M635 -25q-173 0 -290.5 61t-177 164t-59.5 228v15q0 173 99.5 264t291.5 91h183l-27 -159h-133q-109 0 -164 -52.5t-55 -151.5v-12q0 -81 42 -145t116.5 -101t173.5 -37q133 0 193.5 63t60.5 177v770h189v-774q0 -191 -111.5 -296t-331.5 -105zM30 1073v145h1161v-145
h-1161zM-29 1073l13 145h111v-145h-124zM1141 1073v145h118l-13 -145h-105zM998 -490l-271 356h205l250 -357z" />
    <glyph glyph-name="KhhaVirama.gm" horiz-adv-x="1284" 
d="M630 182q-172 0 -307 54t-222 155q26 62 45 140t29 170.5t10 194.5q0 43 -1.5 87.5t-4.5 89.5h-145v145h333q7 -75 10 -145.5t3 -135.5q0 -110 -8 -202.5t-24 -168.5t-40 -137l-22 50q35 -38 88.5 -68t121 -47t142.5 -17q89 0 170 22.5t136 62.5l6 -60h-17l-44 -140
q-48 -23 -117 -36.5t-142 -13.5zM264 689v162l769 1v-163h-769zM1196 1073v145h118l-13 -145h-105zM938 0v1218h317v-145h-128v-1073h-189zM-29 1073l13 145h111v-145h-124zM275 -121q-52 0 -79 29.5t-27 81.5v11q0 53 27 81.5t79 28.5q54 0 81 -28.5t27 -81.5v-11
q0 -52 -27 -81.5t-81 -29.5zM1212 -490l-271 356h205l250 -357z" />
    <glyph glyph-name="GhhaVirama.gm" horiz-adv-x="1621" 
d="M577 -26q-154 0 -258.5 59t-157 160.5t-52.5 228.5v18q0 170 95 263.5t297 93.5h353v-160h-331q-115 0 -167 -52.5t-52 -154.5v-15q0 -82 31.5 -144.5t92 -97t148.5 -34.5q96 0 147.5 49.5t51.5 137.5v385l-2 9v380h190v-780q0 -168 -102 -257t-284 -89zM25 1073v145
h1364v-145h-1364zM1533 1073v145h118l-13 -145h-105zM1275 0v1218h317v-145h-128v-1073h-189zM-29 1073l13 145h111v-145h-124zM209 -286q-52 0 -79 29.5t-27 81.5v11q0 53 27 81.5t79 28.5q54 0 81 -28.5t27 -81.5v-11q0 -52 -27 -81.5t-81 -29.5zM1549 -490l-271 356h205
l250 -357z" />
    <glyph glyph-name="ZaVirama.gm" horiz-adv-x="1273" 
d="M135 0q16 125 24.5 266t8.5 277q0 92 -5.5 180.5t-14.5 164.5l191 31q11 -83 16.5 -182.5t5.5 -200.5q0 -135 -8.5 -275t-24.5 -261h-193zM260 533v162h758v-162h-758zM26 1073v145h1036v-145h-1036zM650 66q-54 0 -82 30.5t-28 85.5v12q0 56 28 86.5t82 30.5
q56 0 84 -30.5t28 -86.5v-12q0 -55 -28 -85.5t-84 -30.5zM1185 1073v145h118l-13 -145h-105zM927 0v1218h317v-145h-128v-1073h-189zM-29 1073l13 145h111v-145h-124zM1201 -490l-271 356h205l250 -357z" />
    <glyph glyph-name="RraVirama.gm" horiz-adv-x="1081" 
d="M487 38q-124 0 -226.5 26.5t-174.5 60.5l-13 154q51 -25 114.5 -44t133.5 -30t140 -11q111 0 180 23t101.5 67t32.5 107v11q0 56 -23.5 98.5t-74 67t-132.5 24.5h-400v162h392q78 0 126 32.5t69.5 88.5t21.5 127v146h197v-156q0 -135 -69 -222t-196 -89v-51l-46 50
q113 -1 185.5 -37t108 -100t35.5 -149v-26q0 -152 -115.5 -241t-366.5 -89zM295 -187l-209 312l181 6l236 -318h-208zM857 -187l-232 303l185 26l255 -329h-208zM28 1073v145h1023l3 -145h-1026zM-29 1073l13 145h111v-145h-124zM995 1073v145h118l-13 -145h-105zM818 -580
l-271 356h205l250 -357z" />
    <glyph glyph-name="FaVirama.gm" horiz-adv-x="1196" 
d="M689 -28q-174 0 -304.5 58t-202.5 169.5t-72 273.5v15q0 181 102.5 283.5t291.5 102.5h335v279h190v-434h-472q-122 0 -187 -59t-65 -177v-9q0 -85 26.5 -149t76.5 -107.5t121.5 -65.5t160.5 -22q122 0 176 29t54 84v4q0 59 -49 84.5t-149 25.5q-113 0 -191.5 -48.5
t-107.5 -143.5l-53 40q7 102 49.5 171t129 104t225.5 35q173 0 255 -73t82 -193v-7q0 -126 -104.5 -198t-317.5 -72zM41 1073v145h1144v-145h-275l-6 3zM-29 1073l13 145h111v-145h-124zM1112 1073v145h118l-13 -145h-105zM188 -256q-52 0 -79 29.5t-27 81.5v11
q0 53 27 81.5t79 28.5q54 0 81 -28.5t27 -81.5v-11q0 -52 -27 -81.5t-81 -29.5zM1012 -497l-271 356h205l250 -357z" />
    <glyph glyph-name="LaHa.gm" horiz-adv-x="1408" 
d="M708 387q-90 54 -169 129.5t-142 170t-106 205t-61 233.5l-4 25h194l7 -43q32 -166 102.5 -297t178.5 -226q67 65 120 144t92.5 173.5t63.5 205.5l8 43h194l-4 -25q-19 -123 -64 -233.5t-109.5 -204.5t-141 -170t-159.5 -130zM231 0q-59 74 -88.5 162t-29.5 201v8
q0 164 74.5 276.5t217.5 161.5l62 -158q-76 -39 -118 -112.5t-42 -177.5v-8q0 -69 14 -128.5t42 -113.5t69 -105l-9 -6h-192zM1172 0h-189v21q42 50 67.5 98.5t37.5 105t12 128.5v9q0 102 -42 176t-121 113l63 158q145 -50 219.5 -162.5t74.5 -278.5v-12q0 -109 -30.5 -197
t-91.5 -159zM26 1073v145h1338v-145h-1338zM807 -670q-131 0 -220.5 42.5t-135 114.5t-45.5 159v3q0 122 74 185t213 63h158v-151h-140q-57 0 -85.5 -26.5t-28.5 -73.5v-2q0 -73 55.5 -117t149.5 -44q90 0 135.5 37t45.5 114v366h189v-358q0 -97 -38.5 -167t-119 -107.5
t-207.5 -37.5zM-29 1073l13 145h111v-145h-124zM1319 1073v145h118l-13 -145h-105z" />
    <glyph glyph-name="NaHa.gm" horiz-adv-x="1235" 
d="M224 0q-57 68 -86 155.5t-29 201.5v14q0 133 58.5 230.5t172.5 163t281 100.5q166 -35 280 -100.5t172.5 -163t58.5 -230.5v-15q0 -112 -28.5 -199t-94.5 -157h-189v11q62 77 89.5 158.5t27.5 178.5v14q0 91 -38 156.5t-109 111t-169 75.5q-100 -30 -171 -75.5
t-108.5 -111t-37.5 -156.5v-14q0 -96 28 -178.5t91 -159.5l3 -10h-202zM527 766v375h191v-375h-191zM39 1073v145h1159v-145h-1159zM644 -670q-131 0 -220.5 42.5t-135 114.5t-45.5 159v3q0 122 74 185t213 63h158v-151h-140q-57 0 -85.5 -26.5t-28.5 -73.5v-2
q0 -73 55.5 -117t149.5 -44q90 0 135.5 37t45.5 114v366h189v-358q0 -97 -38.5 -167t-119 -107.5t-207.5 -37.5zM-29 1073l13 145h111v-145h-124zM1146 1073v145h118l-13 -145h-105z" />
    <glyph glyph-name="zero.gm" unicode="&#xa66;" horiz-adv-x="1058" 
d="M532 138q-138 0 -237 52t-152 146.5t-53 221.5v108q0 131 52.5 225t151.5 144.5t237 50.5q140 0 238.5 -50.5t151 -144.5t52.5 -225v-108q0 -127 -52 -221.5t-150.5 -146.5t-238.5 -52zM531 301q77 0 132 30.5t84 89t29 141.5v101q0 84 -29 142t-83.5 88t-131.5 30
t-132.5 -30t-84.5 -87.5t-29 -141.5v-101q0 -84 29 -142.5t84 -89t132 -30.5z" />
    <glyph glyph-name="one.gm" unicode="&#xa67;" horiz-adv-x="1080" 
d="M770 0v849q0 109 -63 169.5t-181 60.5t-178 -60t-60 -176v-6q0 -106 61.5 -162.5t178.5 -56.5q93 0 154.5 25t89.5 50l10 -41h-16l-46 -155q-34 -13 -72 -22t-78.5 -13.5t-82.5 -4.5q-124 0 -212.5 41.5t-135 125t-46.5 209.5v2q0 194 112.5 299.5t320.5 105.5
q138 0 235.5 -47.5t148.5 -137t51 -216.5v-839h-191z" />
    <glyph glyph-name="two.gm" unicode="&#xa68;" horiz-adv-x="1024" 
d="M439 358q-90 0 -174 16.5t-163 40.5l-14 172q80 -31 158 -47.5t162 -16.5q114 0 186 30t106.5 88.5t34.5 143.5v20q0 134 -73 203.5t-207 69.5q-90 0 -182 -26.5t-169 -69.5v169q75 44 177 66.5t191 22.5q222 0 341 -112t119 -330v-21q0 -135 -53 -228.5t-162 -142
t-278 -48.5zM591 -22l-413 429l253 41l-17 -92q82 -59 154.5 -118.5t142 -123.5t141.5 -136h-261z" />
    <glyph glyph-name="three.gm" unicode="&#xa69;" horiz-adv-x="1046" 
d="M499 61q-65 0 -136 10t-140 28t-130 42l-13 184q58 -27 124 -49t137.5 -35t143.5 -13q134 0 202.5 43.5t68.5 127.5v4q0 77 -52.5 121.5t-166.5 44.5h-355v163h354q110 0 156 46t46 118v2q0 89 -70.5 131.5t-201.5 42.5q-60 0 -122.5 -10.5t-125 -30.5t-122.5 -49v169
q53 28 117 48t132 30.5t132 10.5q150 0 252 -39t154 -111t52 -172v-4q0 -114 -61.5 -183t-178.5 -74v-52l-75 54q115 0 188.5 -35.5t109 -97.5t35.5 -143v-4q0 -149 -111.5 -233.5t-342.5 -84.5zM474 -177l-301 321l264 13l1 -98q74 -48 146.5 -103.5t157.5 -132.5h-268z
" />
    <glyph glyph-name="four.gm" unicode="&#xa6a;" horiz-adv-x="1142" 
d="M572 -20q-143 0 -246.5 39.5t-159 117.5t-55.5 192v9q0 134 67.5 210.5t193.5 95.5v4q-135 21 -204 98t-69 200q0 71 8.5 140t24.5 132h196q-16 -65 -24 -132.5t-8 -138.5q0 -100 67 -155t209 -55q143 0 209 55t66 155q0 71 -8 138.5t-24 132.5h196q16 -63 24.5 -131
t8.5 -141q0 -122 -69.5 -199t-210.5 -98v-4q128 -19 197.5 -97t69.5 -209v-10q0 -114 -54.5 -192t-157 -117.5t-247.5 -39.5zM572 145q128 0 194.5 52.5t66.5 155.5v6q0 63 -26 111t-83.5 75t-153.5 27q-95 0 -153 -27t-84 -75t-26 -110v-7q0 -103 70 -155.5t195 -52.5z" />
    <glyph glyph-name="five.gm" unicode="&#xa6b;" horiz-adv-x="1173" 
d="M549 190q-151 0 -272.5 53.5t-195.5 159.5q29 89 47 180.5t26 191.5t8 215q0 59 -2.5 116t-7.5 112h196q5 -55 7.5 -113t2.5 -117q0 -94 -7.5 -187.5t-21.5 -179.5t-35 -161q48 -47 125.5 -76t172.5 -29q82 0 155 20.5t122 54.5l6 -57h-15l-47 -140q-55 -20 -124.5 -31.5
t-139.5 -11.5zM864 0v1218h190v-1218h-190z" />
    <glyph glyph-name="six.gm" unicode="&#xa6c;" horiz-adv-x="1045" 
d="M577 -20q-161 0 -268.5 40t-161 116t-53.5 185v4q0 85 37 148t111.5 98t185.5 37l-66 -39v39q-118 8 -185.5 79t-67.5 187v3q0 103 50 176.5t150.5 113t249.5 39.5q109 0 200.5 -21.5t167.5 -58.5l2 -170q-45 24 -105 43t-125 30.5t-126 11.5q-129 0 -198 -44t-69 -133
v-2q0 -53 21.5 -92.5t69 -61.5t124.5 -22h349v-163h-349q-118 0 -174.5 -49.5t-56.5 -133.5v-2q0 -60 32.5 -101.5t101 -63t175.5 -21.5q67 0 129 11.5t120 33t113 49.5l-12 -185q-51 -25 -111 -43t-126 -28t-135 -10zM954 1394q-26 6 -54 9t-54 3q-68 0 -103 -27t-35 -72
q0 -47 40.5 -84.5t94.5 -62.5l-198 -38v86q-46 21 -79.5 58.5t-33.5 103.5q0 92 70.5 142t209.5 50q33 0 65.5 -3t63.5 -9z" />
    <glyph glyph-name="seven.gm" unicode="&#xa6d;" horiz-adv-x="1128" 
d="M127 0l-14 180h149q188 0 315.5 49t192.5 151.5t65 260.5v129q0 143 -66 223.5t-206 80.5q-84 0 -144.5 -35.5t-92.5 -102.5t-32 -164v-135h-194v129q0 152 55 257.5t158.5 160.5t249.5 55q150 0 254 -57t158 -163t54 -253v-125q0 -214 -88 -356.5t-257 -213.5t-412 -71
h-145z" />
    <glyph glyph-name="eight.gm" unicode="&#xa6e;" horiz-adv-x="1087" 
d="M668 -23q-178 0 -300.5 61t-185.5 180.5t-63 295.5v678l192 33v-713q0 -180 99.5 -271.5t286.5 -91.5q89 0 174 26t151 67l-14 -188q-56 -32 -147 -54.5t-193 -22.5zM218 823v156h779v-156h-779z" />
    <glyph glyph-name="nine.gm" unicode="&#xa6f;" horiz-adv-x="1087" 
d="M668 -23q-178 0 -300.5 61t-185.5 180.5t-63 295.5v678l192 33v-713q0 -180 99.5 -271.5t286.5 -91.5q89 0 174 26t151 67l-14 -188q-56 -32 -147 -54.5t-193 -22.5zM218 823v156h779v-156h-779zM775 900v86q-43 20 -75.5 47t-51 64t-18.5 86q0 95 71 153t216 58
q34 0 66 -2.5t62 -9.5l13 -153q-25 5 -51 7.5t-55 2.5q-72 0 -109 -32t-37 -82q0 -53 42 -90.5t104 -56.5z" />
    <glyph glyph-name="Khanda.gm" unicode="&#x262c;" horiz-adv-x="1779" 
d="M800 -8l46 200l-178 -143l-113 98l250 104q-66 0 -148.5 21t-166 65t-153.5 112t-113 161.5t-43 214.5q0 107 39.5 190t109 133t158.5 57q-43 -52 -73 -130.5t-30 -195.5q0 -144 46.5 -244.5t119 -164t152.5 -95t147 -38.5v69l-103 67q36 98 53.5 199.5t17.5 203.5
q0 110 -21 219.5t-62 215.5l161 150l155 -150q-40 -106 -59.5 -214.5t-19.5 -217.5q0 -102 17.5 -204t53.5 -202l-117 -72v-64q67 7 147.5 38.5t153.5 95t120 164t47 244.5q0 117 -29.5 195.5t-72.5 130.5q89 -7 158 -57t108.5 -133t39.5 -190q0 -121 -43 -214.5
t-114 -161.5t-155 -112t-167 -65t-149 -21l252 -104l-114 -98l-178 143l47 -200h-177zM894 533q-181 0 -288 97t-107 265q0 169 107 265t288 96q180 0 287 -96t107 -265q0 -168 -107 -265t-287 -97zM894 578q125 0 183.5 81.5t58.5 235.5q0 155 -58.5 236t-183.5 81
q-126 0 -184.5 -81t-58.5 -236q0 -154 58.5 -235.5t184.5 -81.5z" />
    <glyph glyph-name="AddakBindi.gm" unicode="&#xa01;" 
d="M307 1595q-53 0 -76.5 26.5t-23.5 71.5v7q0 46 23.5 72t76.5 26q52 0 75.5 -26t23.5 -72v-7q0 -46 -23.5 -72t-75.5 -26zM307 1367q-145 0 -213.5 80.5t-67.5 246.5h114q7 -80 48 -124t118 -44q75 0 116 44t48 124h114q2 -166 -66 -246.5t-211 -80.5z" />
    <glyph glyph-name="Bindi.gm" unicode="&#xa02;" 
d="M306 1422q-63 0 -91 31.5t-28 85.5v8q0 54 28 85.5t91 31.5q62 0 90 -31t28 -86v-8q0 -55 -28 -86t-90 -31z" />
    <glyph glyph-name="Nukta.gm" unicode="&#xa3c;" 
d="M-325 -281q-52 0 -79 29.5t-27 81.5v11q0 53 27 81.5t79 28.5q54 0 81 -28.5t27 -81.5v-11q0 -52 -27 -81.5t-81 -29.5z" />
    <glyph glyph-name="MatraU.gm" unicode="&#xa41;" 
d="M82 -355q-106 0 -206 19.5t-174 55.5l-11 156q81 -36 186 -56t213 -20t210 20t180 55l-11 -155q-76 -35 -178 -55t-209 -20z" />
    <glyph glyph-name="MatraUu.gm" unicode="&#xa42;" 
d="M82 -292q-109 1 -209.5 19.5t-173.5 52.5l-10 140q77 -34 182.5 -53.5t217.5 -19.5t214 20.5t176 52.5l-10 -140q-72 -33 -174.5 -52t-212.5 -20zM81 -541q-109 0 -209.5 19t-173.5 53l-10 140q77 -34 182.5 -53.5t217.5 -19.5t214 19.5t176 53.5l-10 -140
q-72 -34 -174.5 -53t-212.5 -19z" />
    <glyph glyph-name="MatraEe.gm" unicode="&#xa47;" 
d="M288 1195l-2 10q-18 88 -50.5 152t-87.5 105.5t-139 61.5t-203 20q-24 0 -55.5 -1.5t-65.5 -4t-68 -6.5l15 174q46 5 89 8.5t90 3.5q182 0 302.5 -49t188 -163.5t86.5 -310.5h-100z" />
    <glyph glyph-name="MatraAi.gm" unicode="&#xa48;" 
d="M308 1197l-20 161l12 3q-16 79 -48 139t-86 100.5t-137.5 61t-204.5 20.5q-52 0 -120.5 -5.5t-136.5 -16.5l13 166q75 11 132.5 15.5t106.5 4.5q195 0 317.5 -56t182.5 -171t65 -293l4 -129h-80zM277 1197l-2 19q-6 58 -47.5 99t-124.5 63t-214 22q-36 0 -72.5 -2t-77 -6
t-89.5 -10l13 166q57 8 110.5 12t95.5 4q149 0 247.5 -42.5t151 -118.5t62.5 -175l3 -31h-56z" />
    <glyph glyph-name="MatraOo.gm" unicode="&#xa4b;" 
d="M283 1206q-3 79 -26.5 123.5t-72 65.5t-127.5 27l-143 12q-98 7 -161.5 37.5t-94 88.5t-30.5 146v90h100q3 -69 27 -109.5t68.5 -59.5t108.5 -24l140 -11q109 -8 179.5 -37t104.5 -89t34 -161q0 -22 -2 -47t-4 -52h-101z" />
    <glyph glyph-name="MatraAu.gm" unicode="&#xa4c;" 
d="M88 1313q-24 29 -37.5 62t-13.5 71q0 52 28.5 93.5t82.5 63.5l-6 23q30 26 72.5 39.5t92.5 13.5q130 0 201.5 -60t71.5 -158q0 -44 -13.5 -81t-39.5 -67h-123q11 21 18 45t7 49q0 54 -32.5 84t-88.5 30q-55 0 -88.5 -30.5t-33.5 -83.5q0 -25 7 -49t17 -45h-122zM-60 1522
q-60 0 -105 23t-70.5 73t-27.5 130l-3 87h113q4 -63 27 -97t63.5 -47t97.5 -13l272 1l-23 -115l-184 -4l-6 6q-28 -19 -64.5 -31.5t-89.5 -12.5z" />
    <glyph glyph-name="Virama.gm" unicode="&#xa4d;" 
d="M528 -490l-271 356h205l250 -357z" />
    <glyph glyph-name="Virama.gm.alt" 
d="M373 -1048l-217 287h177l199 -288z" />
    <glyph glyph-name="Udaat.gm" unicode="&#xa51;" 
d="M693 -499q-143 0 -241.5 41.5t-148.5 123t-50 200.5h189q0 -69 29.5 -115t85.5 -69.5t136 -23.5v-157z" />
    <glyph glyph-name="Tippi.gm" unicode="&#xa70;" 
d="M97 1354q-25 32 -40 71.5t-15 81.5q0 99 72.5 158t197.5 59t197 -59t72 -158q-1 -42 -16 -81.5t-39 -71.5h-116q11 23 18 48.5t7 50.5q0 59 -32 92.5t-91 33.5t-92 -33.5t-33 -92.5q0 -24 7 -50t18 -49h-115z" />
    <glyph glyph-name="Addak.gm" unicode="&#xa71;" 
d="M307 1367q-145 0 -213.5 80.5t-67.5 246.5h114q7 -80 48 -124t118 -44q75 0 116 44t48 124h114q2 -166 -66 -246.5t-211 -80.5z" />
    <glyph glyph-name="Yakash.gm" unicode="&#xa75;" 
d="M577 -492q-166 0 -244.5 77t-78.5 215v228h189v-228q0 -60 35.5 -95t105.5 -35q68 0 102.5 36t34.5 97h167q0 -141 -76 -218t-235 -77z" />
    <glyph glyph-name="AddakBindi.gm.alt" 
d="M186 1390q-106 0 -157.5 60.5t-47.5 183.5h93q5 -46 32 -71t79 -25q50 0 77 25t32 71h94q3 -123 -48 -183.5t-154 -60.5zM184 1582q-34 0 -49 16.5t-15 44.5v4q0 29 15 45t49 16t48.5 -16t14.5 -45v-4q0 -28 -14.5 -44.5t-48.5 -16.5z" />
    <glyph glyph-name="Addak.gm.alt" 
d="M186 1390q-106 0 -157.5 60.5t-47.5 183.5h93q5 -46 32 -71t79 -25q50 0 77 25t32 71h94q3 -123 -48 -183.5t-154 -60.5z" />
    <glyph glyph-name="Bindi.gm.alt" 
d="M131 1423q-55 0 -80 28t-25 75v8q0 47 25 75.5t80 28.5q54 0 79.5 -28t25.5 -76v-8q0 -48 -25 -75.5t-80 -27.5z" />
    <glyph glyph-name="MatraAi.gm.alt" 
d="M327 1198l-15 149l11 3q-17 105 -58 181.5t-118.5 118.5t-206.5 42q-43 0 -94 -6t-103 -17l9 157q56 11 100 15.5t85 4.5q157 0 255 -56t145.5 -171t54.5 -293l5 -128h-70zM289 1198l-2 17q-10 89 -79.5 139.5t-215.5 50.5q-48 0 -88.5 -5t-94.5 -13l8 156q41 8 81 12
t78 4q118 0 195.5 -38t118 -109.5t47.5 -172.5l3 -41h-51z" />
    <glyph glyph-name="MatraAiAddak.gm" 
d="M308 1197l-20 161l12 3q-16 79 -48 139t-86 100.5t-137.5 61t-204.5 20.5q-52 0 -120.5 -5.5t-136.5 -16.5l13 166q75 11 132.5 15.5t106.5 4.5q195 0 317.5 -56t182.5 -171t65 -293l4 -129h-80zM277 1197l-2 19q-6 58 -47.5 99t-124.5 63t-214 22q-36 0 -72.5 -2t-77 -6
t-89.5 -10l13 166q57 8 110.5 12t95.5 4q149 0 247.5 -42.5t151 -118.5t62.5 -175l3 -31h-56zM516 1580q-106 0 -157.5 60.5t-47.5 183.5h93q5 -46 32 -71t79 -25q50 0 77 25t32 71h94q3 -123 -48 -183.5t-154 -60.5z" />
    <glyph glyph-name="MatraAiAddak.gm.alt" 
d="M327 1198l-15 149l11 3q-17 105 -58 181.5t-118.5 118.5t-206.5 42q-43 0 -94 -6t-103 -17l9 157q56 11 100 15.5t85 4.5q157 0 255 -56t145.5 -171t54.5 -293l5 -128h-70zM289 1198l-2 17q-10 89 -79.5 139.5t-215.5 50.5q-48 0 -88.5 -5t-94.5 -13l8 156q41 8 81 12
t78 4q118 0 195.5 -38t118 -109.5t47.5 -172.5l3 -41h-51zM540 1580q-106 0 -157.5 60.5t-47.5 183.5h93q5 -46 32 -71t79 -25q50 0 77 25t32 71h94q3 -123 -48 -183.5t-154 -60.5z" />
    <glyph glyph-name="MatraAiAddakBindi.gm" 
d="M308 1197l-20 161l12 3q-16 79 -48 139t-86 100.5t-137.5 61t-204.5 20.5q-52 0 -120.5 -5.5t-136.5 -16.5l13 166q75 11 132.5 15.5t106.5 4.5q195 0 317.5 -56t182.5 -171t65 -293l4 -129h-80zM277 1197l-2 19q-6 58 -47.5 99t-124.5 63t-214 22q-36 0 -72.5 -2t-77 -6
t-89.5 -10l13 166q57 8 110.5 12t95.5 4q149 0 247.5 -42.5t151 -118.5t62.5 -175l3 -31h-56zM516 1580q-106 0 -157.5 60.5t-47.5 183.5h93q5 -46 32 -71t79 -25q50 0 77 25t32 71h94q3 -123 -48 -183.5t-154 -60.5zM514 1772q-34 0 -49 16.5t-15 44.5v4q0 29 15 45t49 16
t48.5 -16t14.5 -45v-4q0 -28 -14.5 -44.5t-48.5 -16.5z" />
    <glyph glyph-name="MatraAiAddakBindi.gm.alt" 
d="M327 1198l-15 149l11 3q-17 105 -58 181.5t-118.5 118.5t-206.5 42q-43 0 -94 -6t-103 -17l9 157q56 11 100 15.5t85 4.5q157 0 255 -56t145.5 -171t54.5 -293l5 -128h-70zM289 1198l-2 17q-10 89 -79.5 139.5t-215.5 50.5q-48 0 -88.5 -5t-94.5 -13l8 156q41 8 81 12
t78 4q118 0 195.5 -38t118 -109.5t47.5 -172.5l3 -41h-51zM540 1580q-106 0 -157.5 60.5t-47.5 183.5h93q5 -46 32 -71t79 -25q50 0 77 25t32 71h94q3 -123 -48 -183.5t-154 -60.5zM538 1772q-34 0 -49 16.5t-15 44.5v4q0 29 15 45t49 16t48.5 -16t14.5 -45v-4
q0 -28 -14.5 -44.5t-48.5 -16.5z" />
    <glyph glyph-name="MatraAiBindi.gm" 
d="M308 1197l-20 161l12 3q-16 79 -48 139t-86 100.5t-137.5 61t-204.5 20.5q-52 0 -120.5 -5.5t-136.5 -16.5l13 166q75 11 132.5 15.5t106.5 4.5q195 0 317.5 -56t182.5 -171t65 -293l4 -129h-80zM277 1197l-2 19q-6 58 -47.5 99t-124.5 63t-214 22q-36 0 -72.5 -2t-77 -6
t-89.5 -10l13 166q57 8 110.5 12t95.5 4q149 0 247.5 -42.5t151 -118.5t62.5 -175l3 -31h-56zM417 1633q-55 0 -80 28t-25 75v8q0 47 25 75.5t80 28.5q54 0 79.5 -28t25.5 -76v-8q0 -48 -25 -75.5t-80 -27.5z" />
    <glyph glyph-name="MatraAiBindi.gm.alt" 
d="M327 1198l-15 149l11 3q-17 105 -58 181.5t-118.5 118.5t-206.5 42q-43 0 -94 -6t-103 -17l9 157q56 11 100 15.5t85 4.5q157 0 255 -56t145.5 -171t54.5 -293l5 -128h-70zM289 1198l-2 17q-10 89 -79.5 139.5t-215.5 50.5q-48 0 -88.5 -5t-94.5 -13l8 156q41 8 81 12
t78 4q118 0 195.5 -38t118 -109.5t47.5 -172.5l3 -41h-51zM441 1633q-55 0 -80 28t-25 75v8q0 47 25 75.5t80 28.5q54 0 79.5 -28t25.5 -76v-8q0 -48 -25 -75.5t-80 -27.5z" />
    <glyph glyph-name="MatraAu.gm.alt" 
d="M118 1353q-23 29 -36 61.5t-13 69.5q0 51 27.5 92t78.5 62l-6 22q29 26 68.5 39t80.5 13q120 0 186 -59t66 -155q0 -43 -13 -79t-38 -66h-119q11 21 17 44t6 48q0 52 -25.5 81t-78.5 29q-50 0 -77.5 -29.5t-27.5 -80.5q0 -25 7 -48t17 -44h-120zM8 1561q-85 0 -135 51
t-55 163l-4 91h115q4 -62 27 -96t63.5 -46.5t95.5 -12.5l203 1l-20 -118l-163 1h-7q-21 -15 -49.5 -24.5t-70.5 -9.5z" />
    <glyph glyph-name="MatraAuAddak.gm" 
d="M88 1313q-24 29 -37.5 62t-13.5 71q0 52 28.5 93.5t82.5 63.5l-6 23q30 26 72.5 39.5t92.5 13.5q130 0 201.5 -60t71.5 -158q0 -44 -13.5 -81t-39.5 -67h-123q11 21 18 45t7 49q0 54 -32.5 84t-88.5 30q-55 0 -88.5 -30.5t-33.5 -83.5q0 -25 7 -49t17 -45h-122zM-60 1522
q-60 0 -105 23t-70.5 73t-27.5 130l-3 87h113q4 -63 27 -97t63.5 -47t97.5 -13l272 1l-23 -115l-184 -4l-6 6q-28 -19 -64.5 -31.5t-89.5 -12.5zM685 1644q-106 0 -157.5 60.5t-47.5 183.5h93q5 -46 32 -71t79 -25q50 0 77 25t32 71h94q3 -123 -48 -183.5t-154 -60.5z" />
    <glyph glyph-name="MatraAuAddak.gm.alt" 
d="M118 1353q-23 29 -36 61.5t-13 69.5q0 51 27.5 92t78.5 62l-6 22q29 26 68.5 39t80.5 13q120 0 186 -59t66 -155q0 -43 -13 -79t-38 -66h-119q11 21 17 44t6 48q0 52 -25.5 81t-78.5 29q-50 0 -77.5 -29.5t-27.5 -80.5q0 -25 7 -48t17 -44h-120zM8 1561q-85 0 -135 51
t-55 163l-4 91h115q4 -62 27 -96t63.5 -46.5t95.5 -12.5l203 1l-20 -118l-163 1h-7q-21 -15 -49.5 -24.5t-70.5 -9.5zM685 1644q-106 0 -157.5 60.5t-47.5 183.5h93q5 -46 32 -71t79 -25q50 0 77 25t32 71h94q3 -123 -48 -183.5t-154 -60.5z" />
    <glyph glyph-name="MatraAuAddakBindi.gm" 
d="M88 1313q-24 29 -37.5 62t-13.5 71q0 52 28.5 93.5t82.5 63.5l-6 23q30 26 72.5 39.5t92.5 13.5q130 0 201.5 -60t71.5 -158q0 -44 -13.5 -81t-39.5 -67h-123q11 21 18 45t7 49q0 54 -32.5 84t-88.5 30q-55 0 -88.5 -30.5t-33.5 -83.5q0 -25 7 -49t17 -45h-122zM-60 1522
q-60 0 -105 23t-70.5 73t-27.5 130l-3 87h113q4 -63 27 -97t63.5 -47t97.5 -13l272 1l-23 -115l-184 -4l-6 6q-28 -19 -64.5 -31.5t-89.5 -12.5zM685 1644q-106 0 -157.5 60.5t-47.5 183.5h93q5 -46 32 -71t79 -25q50 0 77 25t32 71h94q3 -123 -48 -183.5t-154 -60.5z
M683 1836q-34 0 -49 16.5t-15 44.5v4q0 29 15 45t49 16t48.5 -16t14.5 -45v-4q0 -28 -14.5 -44.5t-48.5 -16.5z" />
    <glyph glyph-name="MatraAuAddakBindi.gm.alt" 
d="M118 1353q-23 29 -36 61.5t-13 69.5q0 51 27.5 92t78.5 62l-6 22q29 26 68.5 39t80.5 13q120 0 186 -59t66 -155q0 -43 -13 -79t-38 -66h-119q11 21 17 44t6 48q0 52 -25.5 81t-78.5 29q-50 0 -77.5 -29.5t-27.5 -80.5q0 -25 7 -48t17 -44h-120zM8 1561q-85 0 -135 51
t-55 163l-4 91h115q4 -62 27 -96t63.5 -46.5t95.5 -12.5l203 1l-20 -118l-163 1h-7q-21 -15 -49.5 -24.5t-70.5 -9.5zM685 1644q-106 0 -157.5 60.5t-47.5 183.5h93q5 -46 32 -71t79 -25q50 0 77 25t32 71h94q3 -123 -48 -183.5t-154 -60.5zM683 1836q-34 0 -49 16.5
t-15 44.5v4q0 29 15 45t49 16t48.5 -16t14.5 -45v-4q0 -28 -14.5 -44.5t-48.5 -16.5z" />
    <glyph glyph-name="MatraAuBindi.gm" 
d="M88 1313q-24 29 -37.5 62t-13.5 71q0 52 28.5 93.5t82.5 63.5l-6 23q30 26 72.5 39.5t92.5 13.5q130 0 201.5 -60t71.5 -158q0 -44 -13.5 -81t-39.5 -67h-123q11 21 18 45t7 49q0 54 -32.5 84t-88.5 30q-55 0 -88.5 -30.5t-33.5 -83.5q0 -25 7 -49t17 -45h-122zM-60 1522
q-60 0 -105 23t-70.5 73t-27.5 130l-3 87h113q4 -63 27 -97t63.5 -47t97.5 -13l272 1l-23 -115l-184 -4l-6 6q-28 -19 -64.5 -31.5t-89.5 -12.5zM586 1697q-55 0 -80 28t-25 75v8q0 47 25 75.5t80 28.5q54 0 79.5 -28t25.5 -76v-8q0 -48 -25 -75.5t-80 -27.5z" />
    <glyph glyph-name="MatraAuBindi.gm.alt" 
d="M118 1353q-23 29 -36 61.5t-13 69.5q0 51 27.5 92t78.5 62l-6 22q29 26 68.5 39t80.5 13q120 0 186 -59t66 -155q0 -43 -13 -79t-38 -66h-119q11 21 17 44t6 48q0 52 -25.5 81t-78.5 29q-50 0 -77.5 -29.5t-27.5 -80.5q0 -25 7 -48t17 -44h-120zM8 1561q-85 0 -135 51
t-55 163l-4 91h115q4 -62 27 -96t63.5 -46.5t95.5 -12.5l203 1l-20 -118l-163 1h-7q-21 -15 -49.5 -24.5t-70.5 -9.5zM586 1697q-55 0 -80 28t-25 75v8q0 47 25 75.5t80 28.5q54 0 79.5 -28t25.5 -76v-8q0 -48 -25 -75.5t-80 -27.5z" />
    <glyph glyph-name="MatraEe.gm.alt" 
d="M288 1195l-2 10q-23 119 -61.5 195.5t-108 113.5t-187.5 37q-19 0 -44 -1t-52.5 -3.5t-54.5 -7.5l12 164q37 6 71.5 9t72.5 3q105 0 183.5 -26t133.5 -86t89 -160t49 -248h-101z" />
    <glyph glyph-name="MatraEeAddak.gm" 
d="M288 1195l-2 10q-18 88 -50.5 152t-87.5 105.5t-139 61.5t-203 20q-24 0 -55.5 -1.5t-65.5 -4t-68 -6.5l15 174q46 5 89 8.5t90 3.5q182 0 302.5 -49t188 -163.5t86.5 -310.5h-100zM444 1559q-106 0 -157.5 60.5t-47.5 183.5h93q5 -46 32 -71t79 -25q50 0 77 25t32 71h94
q3 -123 -48 -183.5t-154 -60.5z" />
    <glyph glyph-name="MatraEeAddak.gm.alt" 
d="M288 1195l-2 10q-23 119 -61.5 195.5t-108 113.5t-187.5 37q-19 0 -44 -1t-52.5 -3.5t-54.5 -7.5l12 164q37 6 71.5 9t72.5 3q105 0 183.5 -26t133.5 -86t89 -160t49 -248h-101zM454 1559q-106 0 -157.5 60.5t-47.5 183.5h93q5 -46 32 -71t79 -25q50 0 77 25t32 71h94
q3 -123 -48 -183.5t-154 -60.5z" />
    <glyph glyph-name="MatraEeAddakBindi.gm" 
d="M288 1195l-2 10q-18 88 -50.5 152t-87.5 105.5t-139 61.5t-203 20q-24 0 -55.5 -1.5t-65.5 -4t-68 -6.5l15 174q46 5 89 8.5t90 3.5q182 0 302.5 -49t188 -163.5t86.5 -310.5h-100zM444 1559q-106 0 -157.5 60.5t-47.5 183.5h93q5 -46 32 -71t79 -25q50 0 77 25t32 71h94
q3 -123 -48 -183.5t-154 -60.5zM442 1751q-34 0 -49 16.5t-15 44.5v4q0 29 15 45t49 16t48.5 -16t14.5 -45v-4q0 -28 -14.5 -44.5t-48.5 -16.5z" />
    <glyph glyph-name="MatraEeAddakBindi.gm.alt" 
d="M288 1195l-2 10q-23 119 -61.5 195.5t-108 113.5t-187.5 37q-19 0 -44 -1t-52.5 -3.5t-54.5 -7.5l12 164q37 6 71.5 9t72.5 3q105 0 183.5 -26t133.5 -86t89 -160t49 -248h-101zM454 1559q-106 0 -157.5 60.5t-47.5 183.5h93q5 -46 32 -71t79 -25q50 0 77 25t32 71h94
q3 -123 -48 -183.5t-154 -60.5zM452 1751q-34 0 -49 16.5t-15 44.5v4q0 29 15 45t49 16t48.5 -16t14.5 -45v-4q0 -28 -14.5 -44.5t-48.5 -16.5z" />
    <glyph glyph-name="MatraEeBindi.gm" 
d="M288 1195l-2 10q-18 88 -50.5 152t-87.5 105.5t-139 61.5t-203 20q-24 0 -55.5 -1.5t-65.5 -4t-68 -6.5l15 174q46 5 89 8.5t90 3.5q182 0 302.5 -49t188 -163.5t86.5 -310.5h-100zM345 1612q-55 0 -80 28t-25 75v8q0 47 25 75.5t80 28.5q54 0 79.5 -28t25.5 -76v-8
q0 -48 -25 -75.5t-80 -27.5z" />
    <glyph glyph-name="MatraEeBindi.gm.alt" 
d="M288 1195l-2 10q-23 119 -61.5 195.5t-108 113.5t-187.5 37q-19 0 -44 -1t-52.5 -3.5t-54.5 -7.5l12 164q37 6 71.5 9t72.5 3q105 0 183.5 -26t133.5 -86t89 -160t49 -248h-101zM355 1612q-55 0 -80 28t-25 75v8q0 47 25 75.5t80 28.5q54 0 79.5 -28t25.5 -76v-8
q0 -48 -25 -75.5t-80 -27.5z" />
    <glyph glyph-name="MatraOo.gm.alt" 
d="M292 1211q-3 78 -23 122t-59.5 64.5t-103.5 26.5l-71 6q-92 9 -151.5 40.5t-88 89.5t-28.5 146v92h100q3 -70 24 -111.5t59.5 -61.5t95.5 -26l70 -5q98 -10 160.5 -41t92.5 -91.5t30 -161.5q0 -19 -1.5 -41t-4.5 -48h-101z" />
    <glyph glyph-name="MatraOoAddak.gm" 
d="M283 1206q-3 79 -26.5 123.5t-72 65.5t-127.5 27l-143 12q-98 7 -161.5 37.5t-94 88.5t-30.5 146v90h100q3 -69 27 -109.5t68.5 -59.5t108.5 -24l140 -11q109 -8 179.5 -37t104.5 -89t34 -161q0 -22 -2 -47t-4 -52h-101zM478 1563q-106 0 -157.5 60.5t-47.5 183.5h93
q5 -46 32 -71t79 -25q50 0 77 25t32 71h94q3 -123 -48 -183.5t-154 -60.5z" />
    <glyph glyph-name="MatraOoAddak.gm.alt" 
d="M292 1211q-3 78 -23 122t-59.5 64.5t-103.5 26.5l-71 6q-92 9 -151.5 40.5t-88 89.5t-28.5 146v92h100q3 -70 24 -111.5t59.5 -61.5t95.5 -26l70 -5q98 -10 160.5 -41t92.5 -91.5t30 -161.5q0 -19 -1.5 -41t-4.5 -48h-101zM478 1563q-106 0 -157.5 60.5t-47.5 183.5h93
q5 -46 32 -71t79 -25q50 0 77 25t32 71h94q3 -123 -48 -183.5t-154 -60.5z" />
    <glyph glyph-name="MatraOoAddakBindi.gm" 
d="M283 1206q-3 79 -26.5 123.5t-72 65.5t-127.5 27l-143 12q-98 7 -161.5 37.5t-94 88.5t-30.5 146v90h100q3 -69 27 -109.5t68.5 -59.5t108.5 -24l140 -11q109 -8 179.5 -37t104.5 -89t34 -161q0 -22 -2 -47t-4 -52h-101zM478 1563q-106 0 -157.5 60.5t-47.5 183.5h93
q5 -46 32 -71t79 -25q50 0 77 25t32 71h94q3 -123 -48 -183.5t-154 -60.5zM476 1755q-34 0 -49 16.5t-15 44.5v4q0 29 15 45t49 16t48.5 -16t14.5 -45v-4q0 -28 -14.5 -44.5t-48.5 -16.5z" />
    <glyph glyph-name="MatraOoAddakBindi.gm.alt" 
d="M292 1211q-3 78 -23 122t-59.5 64.5t-103.5 26.5l-71 6q-92 9 -151.5 40.5t-88 89.5t-28.5 146v92h100q3 -70 24 -111.5t59.5 -61.5t95.5 -26l70 -5q98 -10 160.5 -41t92.5 -91.5t30 -161.5q0 -19 -1.5 -41t-4.5 -48h-101zM478 1563q-106 0 -157.5 60.5t-47.5 183.5h93
q5 -46 32 -71t79 -25q50 0 77 25t32 71h94q3 -123 -48 -183.5t-154 -60.5zM476 1755q-34 0 -49 16.5t-15 44.5v4q0 29 15 45t49 16t48.5 -16t14.5 -45v-4q0 -28 -14.5 -44.5t-48.5 -16.5z" />
    <glyph glyph-name="MatraOoBindi.gm" 
d="M283 1206q-3 79 -26.5 123.5t-72 65.5t-127.5 27l-143 12q-98 7 -161.5 37.5t-94 88.5t-30.5 146v90h100q3 -69 27 -109.5t68.5 -59.5t108.5 -24l140 -11q109 -8 179.5 -37t104.5 -89t34 -161q0 -22 -2 -47t-4 -52h-101zM379 1616q-55 0 -80 28t-25 75v8q0 47 25 75.5
t80 28.5q54 0 79.5 -28t25.5 -76v-8q0 -48 -25 -75.5t-80 -27.5z" />
    <glyph glyph-name="MatraOoBindi.gm.alt" 
d="M292 1211q-3 78 -23 122t-59.5 64.5t-103.5 26.5l-71 6q-92 9 -151.5 40.5t-88 89.5t-28.5 146v92h100q3 -70 24 -111.5t59.5 -61.5t95.5 -26l70 -5q98 -10 160.5 -41t92.5 -91.5t30 -161.5q0 -19 -1.5 -41t-4.5 -48h-101zM379 1616q-55 0 -80 28t-25 75v8q0 47 25 75.5
t80 28.5q54 0 79.5 -28t25.5 -76v-8q0 -48 -25 -75.5t-80 -27.5z" />
    <glyph glyph-name="MatraU.gm.alt" 
d="M76 -953q-85 0 -167.5 14.5t-146.5 40.5l-7 145q63 -25 151 -40.5t176 -15.5q89 0 173 15.5t145 40.5l-7 -145q-61 -25 -143 -40t-174 -15z" />
    <glyph glyph-name="MatraUu.gm.alt" 
d="M67 -918q-85 0 -167.5 15t-145.5 41l-8 122q63 -25 151 -40.5t176 -15.5q89 0 173.5 15.5t145.5 40.5l-8 -122q-61 -25 -143 -40.5t-174 -15.5zM66 -1119q-85 0 -167.5 14.5t-145.5 40.5l-7 123q62 -25 150 -40.5t176 -15.5q89 0 173.5 15.5t145.5 40.5l-8 -123
q-61 -25 -143 -40t-174 -15z" />
    <glyph glyph-name="AddakBindiDist.gm" 
d="M307 1595q-53 0 -76.5 26.5t-23.5 71.5v7q0 46 23.5 72t76.5 26q52 0 75.5 -26t23.5 -72v-7q0 -46 -23.5 -72t-75.5 -26zM307 1367q-145 0 -213.5 80.5t-67.5 246.5h114q7 -80 48 -124t118 -44q75 0 116 44t48 124h114q2 -166 -66 -246.5t-211 -80.5z" />
    <glyph glyph-name="AddakDist.gm" 
d="M307 1367q-145 0 -213.5 80.5t-67.5 246.5h114q7 -80 48 -124t118 -44q75 0 116 44t48 124h114q2 -166 -66 -246.5t-211 -80.5z" />
    <glyph glyph-name="TippiDist.gm" 
d="M91 1354q-25 32 -40 71.5t-15 81.5q0 99 72.5 158t197.5 59t197 -59t72 -158q-1 -42 -16 -81.5t-39 -71.5h-116q11 23 18 48.5t7 50.5q0 59 -32 92.5t-91 33.5t-92 -33.5t-33 -92.5q0 -24 7 -50t18 -49h-115z" />
    <glyph glyph-name="PairinHa.gm" 
d="M78 -670q-131 0 -220.5 42.5t-135 114.5t-45.5 159v3q0 122 74 185t213 63h158v-151h-140q-57 0 -85.5 -26.5t-28.5 -73.5v-2q0 -73 55.5 -117t149.5 -44q90 0 135.5 37t45.5 114v443l189 5v-440q0 -97 -38.5 -167t-119 -107.5t-207.5 -37.5z" />
    <glyph glyph-name="PairinHaMatraU.gm" 
d="M78 -670q-131 0 -220.5 42.5t-135 114.5t-45.5 159v3q0 122 74 185t213 63h158v-151h-140q-57 0 -85.5 -26.5t-28.5 -73.5v-2q0 -73 55.5 -117t149.5 -44q90 0 135.5 37t45.5 114v443l189 5v-440q0 -97 -38.5 -167t-119 -107.5t-207.5 -37.5zM76 -953q-85 0 -167.5 14.5
t-146.5 40.5l-7 145q63 -25 151 -40.5t176 -15.5q89 0 173 15.5t145 40.5l-7 -145q-61 -25 -143 -40t-174 -15z" />
    <glyph glyph-name="PairinHaMatraUu.gm" 
d="M78 -670q-131 0 -220.5 42.5t-135 114.5t-45.5 159v3q0 122 74 185t213 63h158v-151h-140q-57 0 -85.5 -26.5t-28.5 -73.5v-2q0 -73 55.5 -117t149.5 -44q90 0 135.5 37t45.5 114v443l189 5v-440q0 -97 -38.5 -167t-119 -107.5t-207.5 -37.5zM67 -918q-85 0 -167.5 15
t-145.5 41l-8 122q63 -25 151 -40.5t176 -15.5q89 0 173.5 15.5t145.5 40.5l-8 -122q-61 -25 -143 -40.5t-174 -15.5zM66 -1119q-85 0 -167.5 14.5t-145.5 40.5l-7 123q62 -25 150 -40.5t176 -15.5q89 0 173.5 15.5t145.5 40.5l-8 -123q-61 -25 -143 -40t-174 -15z" />
    <glyph glyph-name="PairinHaVirama.gm" 
d="M78 -670q-131 0 -220.5 42.5t-135 114.5t-45.5 159v3q0 122 74 185t213 63h158v-151h-140q-57 0 -85.5 -26.5t-28.5 -73.5v-2q0 -73 55.5 -117t149.5 -44q90 0 135.5 37t45.5 114v443l189 5v-440q0 -97 -38.5 -167t-119 -107.5t-207.5 -37.5zM273 -1048l-217 287h177
l199 -288z" />
    <glyph glyph-name="PairinRa.gm" 
d="M723 -628q-47 35 -109 76t-130.5 83t-135 79t-122.5 64l80 120q76 -36 146 -74.5t133.5 -78.5t117.5 -81zM-115 -338v167h380l-45 -54q17 36 25.5 86t8.5 112v73l189 5v-89q0 -71 -16 -131t-48 -104l-86 -65h-408z" />
    <glyph glyph-name="PairinRaMatraU.gm" 
d="M723 -628q-47 35 -109 76t-130.5 83t-135 79t-122.5 64l80 120q76 -36 146 -74.5t133.5 -78.5t117.5 -81zM-115 -338v167h380l-45 -54q17 36 25.5 86t8.5 112v73l189 5v-89q0 -71 -16 -131t-48 -104l-86 -65h-408zM76 -653q-85 0 -167.5 14.5t-146.5 40.5l-7 145
q63 -25 151 -40.5t176 -15.5q89 0 173 15.5t145 40.5l-7 -145q-61 -25 -143 -40t-174 -15z" />
    <glyph glyph-name="PairinRaMatraUu.gm" 
d="M723 -628q-47 35 -109 76t-130.5 83t-135 79t-122.5 64l80 120q76 -36 146 -74.5t133.5 -78.5t117.5 -81zM-115 -338v167h380l-45 -54q17 36 25.5 86t8.5 112v73l189 5v-89q0 -71 -16 -131t-48 -104l-86 -65h-408zM67 -618q-85 0 -167.5 15t-145.5 41l-8 122
q63 -25 151 -40.5t176 -15.5q89 0 173.5 15.5t145.5 40.5l-8 -122q-61 -25 -143 -40.5t-174 -15.5zM66 -819q-85 0 -167.5 14.5t-145.5 40.5l-7 123q62 -25 150 -40.5t176 -15.5q89 0 173.5 15.5t145.5 40.5l-8 -123q-61 -25 -143 -40t-174 -15z" />
    <glyph glyph-name="PairinRaVirama.gm" 
d="M723 -628q-47 35 -109 76t-130.5 83t-135 79t-122.5 64l80 120q76 -36 146 -74.5t133.5 -78.5t117.5 -81zM-115 -338v167h380l-45 -54q17 36 25.5 86t8.5 112v73l189 5v-89q0 -71 -16 -131t-48 -104l-86 -65h-408zM273 -748l-217 287h177l199 -288z" />
    <glyph glyph-name="UdaatMatraU.gm" 
d="M693 -499q-143 0 -241.5 41.5t-148.5 123t-50 200.5h189q0 -69 29.5 -115t85.5 -69.5t136 -23.5v-157zM76 -733q-85 0 -167.5 14.5t-146.5 40.5l-7 145q63 -25 151 -40.5t176 -15.5q89 0 173 15.5t145 40.5l-7 -145q-61 -25 -143 -40t-174 -15z" />
    <glyph glyph-name="UdaatMatraUu.gm" 
d="M693 -499q-143 0 -241.5 41.5t-148.5 123t-50 200.5h189q0 -69 29.5 -115t85.5 -69.5t136 -23.5v-157zM67 -698q-85 0 -167.5 15t-145.5 41l-8 122q63 -25 151 -40.5t176 -15.5q89 0 173.5 15.5t145.5 40.5l-8 -122q-61 -25 -143 -40.5t-174 -15.5zM66 -899
q-85 0 -167.5 14.5t-145.5 40.5l-7 123q62 -25 150 -40.5t176 -15.5q89 0 173.5 15.5t145.5 40.5l-8 -123q-61 -25 -143 -40t-174 -15z" />
    <glyph glyph-name="UdaatVirama.gm" 
d="M693 -499q-143 0 -241.5 41.5t-148.5 123t-50 200.5h189q0 -69 29.5 -115t85.5 -69.5t136 -23.5v-157zM273 -828l-217 287h177l199 -288z" />
    <glyph glyph-name="YakashMatraU.gm" 
d="M577 -492q-166 0 -244.5 77t-78.5 215v228h189v-228q0 -60 35.5 -95t105.5 -35q68 0 102.5 36t34.5 97h167q0 -141 -76 -218t-235 -77zM76 -733q-85 0 -167.5 14.5t-146.5 40.5l-7 145q63 -25 151 -40.5t176 -15.5q89 0 173 15.5t145 40.5l-7 -145q-61 -25 -143 -40
t-174 -15z" />
    <glyph glyph-name="YakashMatraUu.gm" 
d="M577 -492q-166 0 -244.5 77t-78.5 215v228h189v-228q0 -60 35.5 -95t105.5 -35q68 0 102.5 36t34.5 97h167q0 -141 -76 -218t-235 -77zM67 -698q-85 0 -167.5 15t-145.5 41l-8 122q63 -25 151 -40.5t176 -15.5q89 0 173.5 15.5t145.5 40.5l-8 -122q-61 -25 -143 -40.5
t-174 -15.5zM66 -899q-85 0 -167.5 14.5t-145.5 40.5l-7 123q62 -25 150 -40.5t176 -15.5q89 0 173.5 15.5t145.5 40.5l-8 -123q-61 -25 -143 -40t-174 -15z" />
    <glyph glyph-name="YakashVirama.gm" 
d="M577 -492q-166 0 -244.5 77t-78.5 215v228h189v-228q0 -60 35.5 -95t105.5 -35q68 0 102.5 36t34.5 97h167q0 -141 -76 -218t-235 -77zM273 -828l-217 287h177l199 -288z" />
    <glyph glyph-name="PairinVa.gm" 
d="M-11 -438q-106 0 -163 48.5t-57 136.5q0 89 55.5 134.5t160.5 45.5h269v155l189 15v-301h-433q-35 0 -57 -12.5t-22 -39.5q0 -26 21.5 -38.5t56.5 -12.5h409v-131h-429zM332 -684q-90 0 -161.5 27t-122.5 92.5t-78 180.5l170 -7q11 -62 39.5 -96.5t71 -48.5t94.5 -14
q28 0 56 3.5t59 11.5l-13 -134q-28 -7 -54.5 -11t-60.5 -4z" />
    <glyph glyph-name="PairinVaMatraU.gm" 
d="M-11 -438q-106 0 -163 48.5t-57 136.5q0 89 55.5 134.5t160.5 45.5h269v155l189 15v-301h-433q-35 0 -57 -12.5t-22 -39.5q0 -26 21.5 -38.5t56.5 -12.5h409v-131h-429zM332 -684q-90 0 -161.5 27t-122.5 92.5t-78 180.5l170 -7q11 -62 39.5 -96.5t71 -48.5t94.5 -14
q28 0 56 3.5t59 11.5l-13 -134q-28 -7 -54.5 -11t-60.5 -4zM76 -953q-85 0 -167.5 14.5t-146.5 40.5l-7 145q63 -25 151 -40.5t176 -15.5q89 0 173 15.5t145 40.5l-7 -145q-61 -25 -143 -40t-174 -15z" />
    <glyph glyph-name="PairinVaMatraUu.gm" 
d="M-11 -438q-106 0 -163 48.5t-57 136.5q0 89 55.5 134.5t160.5 45.5h269v155l189 15v-301h-433q-35 0 -57 -12.5t-22 -39.5q0 -26 21.5 -38.5t56.5 -12.5h409v-131h-429zM332 -684q-90 0 -161.5 27t-122.5 92.5t-78 180.5l170 -7q11 -62 39.5 -96.5t71 -48.5t94.5 -14
q28 0 56 3.5t59 11.5l-13 -134q-28 -7 -54.5 -11t-60.5 -4zM67 -918q-85 0 -167.5 15t-145.5 41l-8 122q63 -25 151 -40.5t176 -15.5q89 0 173.5 15.5t145.5 40.5l-8 -122q-61 -25 -143 -40.5t-174 -15.5zM66 -1119q-85 0 -167.5 14.5t-145.5 40.5l-7 123q62 -25 150 -40.5
t176 -15.5q89 0 173.5 15.5t145.5 40.5l-8 -123q-61 -25 -143 -40t-174 -15z" />
    <glyph glyph-name="PairinVaVirama.gm" 
d="M-11 -438q-106 0 -163 48.5t-57 136.5q0 89 55.5 134.5t160.5 45.5h269v155l189 15v-301h-433q-35 0 -57 -12.5t-22 -39.5q0 -26 21.5 -38.5t56.5 -12.5h409v-131h-429zM332 -684q-90 0 -161.5 27t-122.5 92.5t-78 180.5l170 -7q11 -62 39.5 -96.5t71 -48.5t94.5 -14
q28 0 56 3.5t59 11.5l-13 -134q-28 -7 -54.5 -11t-60.5 -4zM273 -1048l-217 287h177l199 -288z" />
    <glyph glyph-name="MatraEeTa.gm" 
d="M288 1195l-2 10q-18 88 -49 152t-82 105.5t-129 61.5t-190 20q-24 0 -55.5 -1.5t-65.5 -4t-68 -6.5l15 174q46 5 89 8.5t90 3.5q172 0 286.5 -49t178.5 -163.5t82 -310.5h-100z" />
    <glyph glyph-name="ZWJ" unicode="&#x200d;" horiz-adv-x="600" 
 />
    <glyph glyph-name="ZWNJ" unicode="&#x200c;" horiz-adv-x="600" 
 />
    <glyph glyph-name="uni25CC" unicode="&#x25cc;" horiz-adv-x="1154" 
d="M634 947q0 -25 -16 -42t-42 -17q-57 0 -57 59q0 25 16 42.5t41 17.5q26 0 42 -17.5t16 -42.5zM348 805q0 -25 -16 -41.5t-42 -16.5q-58 0 -58 58q0 26 16.5 42.5t41.5 16.5q26 0 42 -16.5t16 -42.5zM920 803q0 -25 -16 -41t-42 -16q-57 0 -57 57q0 26 16 42.5t41 16.5
q26 0 42 -16.5t16 -42.5zM223 512q0 -25 -15.5 -41.5t-41.5 -16.5q-25 0 -41.5 16.5t-16.5 41.5q0 26 16.5 42.5t41.5 16.5q26 0 41.5 -16.5t15.5 -42.5zM1046 512q0 -25 -17 -41.5t-43 -16.5q-24 0 -40.5 16.5t-16.5 41.5q0 26 16.5 42.5t40.5 16.5q26 0 43 -16.5t17 -42.5
zM348 221q0 -25 -16 -41t-42 -16q-58 0 -58 57q0 26 16.5 43t41.5 17q26 0 42 -17t16 -43zM920 221q0 -25 -16 -41t-42 -16q-57 0 -57 57q0 26 16 43t41 17q26 0 42 -17t16 -43zM634 79q0 -27 -16 -43t-42 -16q-57 0 -57 59q0 25 16 41.5t41 16.5q26 0 42 -16.5t16 -41.5z
" />
    </font>
</defs>
</svg>
