<?xml version="1.0" encoding="UTF-8"?>
<svg id="Layer_8" data-name="Layer 8" xmlns="http://www.w3.org/2000/svg" viewBox="0 0 380.36 60.69">
  <defs>
    <style>
      .cls-1 {
        fill: #e19b20;
        stroke-width: 0px;
      }
    </style>
  </defs>
  <path class="cls-1" d="M281.33,4.97c-.2-.02-.45-.04-.73-.05l.73.05Z"/>
  <path class="cls-1" d="M209.93,3.58c.54,0,.76-.03.79-.06-.5.01-.91.03-.79.06Z"/>
  <path class="cls-1" d="M197.87,3.02c.26.01.48.02.71.03-.27-.03-.54-.06-.71-.03Z"/>
  <path class="cls-1" d="M280.6,4.92l-1.89-.13c-.13.11.97.1,1.89.13Z"/>
  <path class="cls-1" d="M311.76,5.16h.57c.17-.03.33-.07.48-.12l-1.05.12Z"/>
  <path class="cls-1" d="M335.67,5.5c-.54-.02-.73.26-.94.38.31-.11.71-.16,1.18-.17,0-.05-.06-.12-.24-.2Z"/>
  <path class="cls-1" d="M361.45,33.25c.14.15.35.36.47.48l-.47-.48Z"/>
  <path class="cls-1" d="M294.64,4.82s-.12-.08-.22-.1c0,.04.08.07.22.1Z"/>
  <path class="cls-1" d="M175.79,2.29s.06,0,.1,0c.58-.02.25-.02-.1,0Z"/>
  <path class="cls-1" d="M20.77,22.55c-1.39-1.84,2.8,2.5.63-.21.14.31-2.48-1.98-.63.21Z"/>
  <path class="cls-1" d="M125.42,1.76s-.13-.07-.52-.13c.1.05.31.09.52.13Z"/>
  <path class="cls-1" d="M162.8,2.65l-.94-.05c.37.03.67.05.94.05Z"/>
  <path class="cls-1" d="M104.8,1.67c-.26-.02-.49-.03-.96-.02.06.02.13.03.21.04.18-.02.41-.04.75-.02Z"/>
  <path class="cls-1" d="M104.8,1.67c.12,0,.25.02.42.03-.16-.01-.29-.02-.42-.03Z"/>
  <path class="cls-1" d="M84.73,1.37c.11.02.25.04.38.06.2,0,.44,0,.65,0l-1.03-.06Z"/>
  <path class="cls-1" d="M231.26,58.01s0,0,0,0c-.02,0-.02,0,0,0Z"/>
  <path class="cls-1" d="M250,57.74s.03,0,.05,0c0,0-.02,0-.05,0Z"/>
  <path class="cls-1" d="M101.69,1.86s.04-.01.05-.02c0,0-.02,0-.05.02Z"/>
  <path class="cls-1" d="M177.95,2.42c-.33,0-.57,0-.77.01.27,0,.53,0,.77-.01Z"/>
  <path class="cls-1" d="M379.95,55.68s-.05-.11-.1-.2l.41-.16-.38.02s-.04.06-.06.08c-.02-.03-.03-.05-.05-.08h.11s.05-.07.08-.09h.31s-.14-.16-.14-.16c.29-.27.53-.53-.65-.74l-14.22-16.3.21.12-.51-.47-1.94-2.22c.1.03.32.2.72.63-1.25-1.75-1.36-1.33-2.4-2.87-.11-.18-.03-.12.1.01l-1.47-1.5c.34.25,0-.46.79.55-2.29-2.99-4.22-4.36-4.91-5.64l.23.22c-2.64-2.87-1.65-1.55-2.16-1.83l-1.6-1.84-.8-1.7-.57-.19c-.35-.41-1.03-1.23-.81-1.16-1.47-1.37.12.34-.79-.4-1.49-2.13-4.79-5.3-4.81-6.05-.79-.55,1.49,1.98-.45,0-.12-.94-2.17-2.35-3.54-4.29.68.37,2.05,2.15.67.21-.48-.29-1.01-.86-1.57-1.53-.59-.75-1.23-1.57-1.84-2.35-.39-.02-.77-.04-1.13-.05-.28-.01-.55-.01-.8,0-.1.36-4.34.08-7.69.15.21-.12-6.3-.3-9.41-.49l.09-.06c-.61.36-3.82.24-6.16.27.1-.22.52-.3,1.79-.38l-2.2-.03c-.52.11-1.21.16-2.63.18l.56-.27c-2.93-.03-5.9.23-9.66-.02-.15.17,1.27.46.96.66l-2.04-.03c.07-.09.29-.16.83-.18-.34.01-1.22.1-1.91.02l1.59-.21c-1.71-.13-.9.18-2.27.14.03-.2-1.01-.16-.81-.31.35-.01,1.19.1,1.72.03-1.55-.06-3.41-.21-4.03-.37.13.11,0,.27-1.14.27-2.93-.03-1-.25-2.7-.38-.71.13-2.58-.05-2.63.25-.86-.02-1.01-.16-1.34-.24-1.52.11-7.07-.08-5.37.26l.39.03c-.07,0-.16,0-.25,0-4.97.21-10.31-.34-15.24-.29v-.1c-2.93.06-6.54-.04-8.64.14-.87-.01-2.05-.21-1.68-.33-2.25.04-2.5.14-5.75-.07,2.26-.14-.78-.17,2.32-.09-2.92-.13-3.58-.3-6.72-.08,1.07-.24-2.19-.35-3.58-.3l2.04.21c-1.56.01-2.93-.03-4.31-.08l.76-.32c-5.97-.5-10.79.51-15.33-.24-1.58.21,3.24.22,1.82.47-2.75-.09-5.6-.61-6.47-.63-3.76-.25-3.52.43-7.46.24.5.13.97.45-1.97.51-2.75-.09-3.37-.55-1.64-.62.66,0,.98.04.95.08.89-.03,2.06-.06.97-.21l-.36.11c-1.36-.14-5.15-.19-4.26-.37-2.08.08-.89.18.65.27-3.53-.23-5.51-.1-9.14-.27.58.07,1.11.22.53.21-5.32-.23-2.35.19-5.96.18-2.05-.21.74-.42-2.89-.33-2.22-.16-.46-.32.42-.4-3.31.17-6.18-.25-8.07-.32l1.75-.07c-1.04.04-1.9.02-2.77,0l.99.25c-1.02-.06-1.89-.07-1.87-.17-1.06.14.8.41-1.3.59-1.36-.14-4.16.06-4.62-.26,3.9.16.34-.24,2.39-.3-.53,0-1.13-.02-1.81-.06-.15-.04.15-.06.43-.08-4.1-.35-1.89.33-6.15.25.54-.17-.98-.35-1.68-.33,1.72.03.82.31-.76.42-2.73-.18-2.97.05-4.4.01l1.63.09c-.56.17-1.92.12-3.82.15-.16-.14,1.73-.07,1.05-.14-2.12.28-4.77-.4-7.72-.24-1.36-.14-.13-.34-1.32-.44-3.31.18-3.57-.3-7.05-.17,1,.25,1.17.2-1.28.39l5.71-.07-3.67.29c1.72.03,3.64-.09,4.67-.03-1.75.17-1.57.11-.75.32-2.35-.4-4.67.13-7.39-.15l.09-.59c-4.09-.33-7.28.18-12.59-.05l1.71.13c-.72.22-3.28-.02-5.01.05.16-.19-.91-.28-1.64-.42.09.15-3.89-.08-4.38.31l-2.37-.3c-4.29-.18-4.91.48-9.03.35,1.25-.19-.63-.36,2.14-.47-1.38-.02-2.62-.08-2.64.06-.8-.14-3.82.2-5.09,0-.58.08-.78.28-2.32.24-.11-.03-.07-.06-.04-.08-.32.08-2.27.09-1.03.31-4.23-.69-11.86-.15-15.55-.74-3.01.02-6.63.02-9.36,0,.18-.06.01-.1.53-.07-3.76-.25-2.32.53-6.61.25-2.18-.35,2.28-.14.92-.28-.58-.66-5.17,0-8.05-.42l.7-.03c-2.2-.26-5.38.16-8.98.05,0,0,.18-.05.02-.1-2.47.29-7.13.32-10.6.36,1.08-.24,1.58-.11.92-.38-1.55.01.45.42-2.65.44-1.01-.16-3.24-.31-3.53-.59l2.92.03c-1.49-.38-3.78-.05-5.32-.14l.2-.15c-4.48-.02-4.55.37-9.37.26l.5.13c-2.64.35-2.2-.26-4.83,0l-.79-.41c-1.74.07-6.09.28-9.2.3,1.77-.26,5.42-.35,7.67-.49-1.72-.03-5.85-.07-6.75.11.69-.03,1.57-.11,2.25-.04-2.12.28-4.9.38-8.33.32.17-.21-.45-.33-1.5-.41-.36-.02-.75-.04-1.17-.06-.45-.01-.94-.03-1.45-.05-1.02-.02-2.13-.05-3.26-.08,1.18,1.26,2.37,2.55,3.43,3.73.13.15.26.3.39.44.08.1.17.2.25.29.15.19.29.36.43.53.26.33.47.63.61.87,4.37,4.22,8.18,8.84,13.07,13.94-1.29-2.23,1.43,1.49,1.58.75,1.15,1.16,1.57,1.62,1.65,1.76l-.22-.27c.09.12.15.18.22.28h0s3.16,3.87,3.16,3.87c.68.98-1.17-1.05-1.17-.84,2.44,2.65.85,1.28,2.37,3.12-.18-.51,1.09.7,2.44,2.25l-1.78-2.3c3.7,3.44,2.62,3.52,6.34,6.99l-1.24-1.04c1.87,1.82,6.6,6.99,8.71,8.51.27.38.56.94-.26.14,4.22,4.58,9.9,9.72,13.01,13.45l-.43-.24c.83.82,1.59,1.28,2.48,2.44-.1-.01-.43-.24-.07.16.12.1.32.29.58.52.14.13.29.27.45.42.25.24.51.5.78.77.59-.02,1.23-.05,1.84-.07.45-.01.89-.02,1.27,0l-1.31.19c6.08.12,9.32-.53,14.41-.7,0,.44,4.77.52,7.16.56l-.08.06c7.08-.04,12.01-.52,18.56-.78,4.07.42,13.78.02,20.32.2-1-.07.16-.35,1.32-.4,1.53.07,4.24-.36,4,.05h-.55c1.16.38,4.31.23,6.77.21l.4-.53c6.45.68,16.86-.5,20.39.14,1.55-.15,3.48-.18,5.01-.33l-.08.28c4.31.02,6.45.02,11.77-.11l-1.08.22c3-.02,3.78-.87,6.55-.92l.84.41c5.24-.07,10.54.23,15.71-.22-.08.06-.24.19-1.08.22,2.46-.02,9.54.16,8.63-.41.07.38,5.4-.03,8.23-.24l-.44.28c2.38-.39,2.46-.49,5.79-.63.79.03.69.21-.36.16,2.63.11,2.05-.29,5.24-.18l-1.19.19c2.71-.01,2.49-.11,3.98-.33,1.7-.13,5.14,0,5.54.25.36-.16,1.84-.38,3.44-.33.22.09-.36.16-.66.19,4.53.13,6.73-.41,9.85-.18.07.09.27.14.53.16-3.3.04-6.01.06-6.22.04.04.25,2.89.26.6.64,2.33-.22,6.31-.7,9.15-.61.14.02.27.05.38.08l-.29.03c.65.02,1.24-.01,1.79-.06.9.03,1.48.05,2.35.05.34.21,3.33.07,4.78.06-.12-.28,1.73-.26.05-.46.04.02-.45.03-1.29.05-.22.01-.47.02-.62.04.03,0,.06-.02.1-.03-.95.02-2.19.04-3.6.07,1.14-.16,2.34-.29,3.94-.16.74-.19,1.56-.39,2.02-.48,1.99.37,5.81.53,6.35.76,4.42-.22,10.42-.24,13.19-.8,1.26-.08,1.45.13,1.92.21-.73.06-1.59.07-1.98.15,2.51-.17,7.45-.15,8.05-.53,3.17.13-1.78.36,2.58.25l-.59.12c8.58.48,13.92-1.12,23.43-.49-.66-.04-.99-.06-1.12-.12,10.83.19,22.31-.6,33.01-.21,3.04.07,3.36-.17,5.22-.38l.66.29,3.17-.39c4.49-.31,7.79.64,13.48.08l-.74-.19c2.04.01,6.47-.2,6.13.03.21-.04.67-.22,1.47-.12l.06.16,5.02-.34c3.89.06-.6.64,5.08.59,2.11-.09,6.01-.54,5.21-.63-.07,0-.15,0-.23,0ZM247.31,58.08s.08-.03.11-.04c-.09.05-.2.11-.38.15-.96.05-1.29,0-1.42-.05.45-.02.99-.03,1.68-.06ZM360.67,32.73c.07.11.12.18.15.24l-.81-.93c.21.22.43.44.66.69ZM379.45,55.37l.29.31c-.8-.02-1.74-.09-1.8-.22l1.5-.08Z"/>
  <path class="cls-1" d="M248.77,57.8c.14,0,.22-.01.4-.03-.2-.02-.39-.04-.58-.06-.12.03-.24.06-.34.09.17,0,.36,0,.52-.01Z"/>
  <path class="cls-1" d="M281.33,4.97c.11.01.2.03.27.04-.09-.02-.09-.02-.14-.04h-.13Z"/>
  <path class="cls-1" d="M349.47,18.91c-2.87-3.78.46.9-2.74-2.84l2.41,2.88c-.35-.57-.81-1.31.33-.04Z"/>
  <path class="cls-1" d="M339.41,7.11c-.92-.9-1.14-1.12-.22.08,1.36,1.49.1-.12.22-.08Z"/>
  <path class="cls-1" d="M255.2,4.32l.21-.25c-1.56.01-.02.1-.21.25Z"/>
  <polygon class="cls-1" points="230.32 3.38 227.72 3.43 229.64 3.4 230.32 3.38"/>
  <path class="cls-1" d="M88.38,1.18l.46.32c1.05-.04,1.28-.39-.46-.32Z"/>
  <path class="cls-1" d="M27.4.5c-.66-.17-2.38-.3-3.43-.16,1.37.04,2.74.19,3.43.16Z"/>
  <polygon class="cls-1" points="132.71 59.82 135.02 59.71 133.94 59.7 132.71 59.82"/>
</svg>